solid OpenSCAD_Model
  facet normal 0 0 -1
    outer loop
      vertex 143.147 84.6468 0
      vertex 146 87.5 0
      vertex 145.427 85.7366 0
    endloop
  endfacet
  facet normal 0 0 -1
    outer loop
      vertex 146 87.5 0
      vertex 129.5 103.5 0
      vertex 146 157.5 0
    endloop
  endfacet
  facet normal 0 0 -1
    outer loop
      vertex 143.147 84.6468 0
      vertex 145.427 85.7366 0
      vertex 143.927 84.6468 0
    endloop
  endfacet
  facet normal 0 -0 -1
    outer loop
      vertex 143.147 160.353 0
      vertex 146 157.5 0
      vertex 129.5 103.5 0
    endloop
  endfacet
  facet normal 0 0 -1
    outer loop
      vertex 146 157.5 0
      vertex 143.147 160.353 0
      vertex 145.427 159.263 0
    endloop
  endfacet
  facet normal -0 0 -1
    outer loop
      vertex 146 87.5 0
      vertex 143.147 84.6468 0
      vertex 129.5 93.5 0
    endloop
  endfacet
  facet normal 0 0 -1
    outer loop
      vertex 129.5 93.5 0
      vertex 143.147 84.6468 0
      vertex 143 84.5 0
    endloop
  endfacet
  facet normal 0 0 -1
    outer loop
      vertex 145.427 159.263 0
      vertex 143.147 160.353 0
      vertex 143.927 160.353 0
    endloop
  endfacet
  facet normal 0 0 -1
    outer loop
      vertex 146 87.5 0
      vertex 129.5 93.5 0
      vertex 129.5 103.5 0
    endloop
  endfacet
  facet normal 0 0 -1
    outer loop
      vertex 143 84.5 0
      vertex 44.5 93.5 0
      vertex 129.5 93.5 0
    endloop
  endfacet
  facet normal -0 0 -1
    outer loop
      vertex 44.5 93.5 0
      vertex 3 84.5 0
      vertex 44.5 103.5 0
    endloop
  endfacet
  facet normal 0 0 -1
    outer loop
      vertex 3 84.5 0
      vertex 44.5 93.5 0
      vertex 143 84.5 0
    endloop
  endfacet
  facet normal -0 0 -1
    outer loop
      vertex 143.147 160.353 0
      vertex 129.5 103.5 0
      vertex 143 160.5 0
    endloop
  endfacet
  facet normal 0 0 -1
    outer loop
      vertex 44.5 103.5 0
      vertex 143 160.5 0
      vertex 129.5 103.5 0
    endloop
  endfacet
  facet normal 0 0 -1
    outer loop
      vertex 2.85318 84.6468 0
      vertex 44.5 103.5 0
      vertex 3 84.5 0
    endloop
  endfacet
  facet normal 0 0 -1
    outer loop
      vertex 44.5 103.5 0
      vertex 3 160.5 0
      vertex 143 160.5 0
    endloop
  endfacet
  facet normal 0 0 -1
    outer loop
      vertex 0 87.5 0
      vertex 44.5 103.5 0
      vertex 2.85318 84.6468 0
    endloop
  endfacet
  facet normal 0 0 -1
    outer loop
      vertex 44.5 103.5 0
      vertex 2.85316 160.353 0
      vertex 3 160.5 0
    endloop
  endfacet
  facet normal 0 0 -1
    outer loop
      vertex 0.572937 85.7366 0
      vertex 2.85318 84.6468 0
      vertex 2.07294 84.6468 0
    endloop
  endfacet
  facet normal 0 0 -1
    outer loop
      vertex 0 157.5 0
      vertex 44.5 103.5 0
      vertex 0 87.5 0
    endloop
  endfacet
  facet normal 0 0 -1
    outer loop
      vertex 2.85318 84.6468 0
      vertex 0.572937 85.7366 0
      vertex 0 87.5 0
    endloop
  endfacet
  facet normal 0 0 -1
    outer loop
      vertex 44.5 103.5 0
      vertex 0 157.5 0
      vertex 2.85316 160.353 0
    endloop
  endfacet
  facet normal 0 -0 -1
    outer loop
      vertex 0.572937 159.263 0
      vertex 2.85316 160.353 0
      vertex 0 157.5 0
    endloop
  endfacet
  facet normal -0 0 -1
    outer loop
      vertex 2.85316 160.353 0
      vertex 0.572937 159.263 0
      vertex 2.07294 160.353 0
    endloop
  endfacet
  facet normal 0 0 1
    outer loop
      vertex 143.147 160.353 1.5
      vertex 146 157.5 1.5
      vertex 145.427 159.263 1.5
    endloop
  endfacet
  facet normal 0 0 1
    outer loop
      vertex 146 157.5 1.5
      vertex 129.5 103.5 1.5
      vertex 146 87.5 1.5
    endloop
  endfacet
  facet normal -0 0 1
    outer loop
      vertex 143.147 160.353 1.5
      vertex 145.427 159.263 1.5
      vertex 143.927 160.353 1.5
    endloop
  endfacet
  facet normal -0 0 1
    outer loop
      vertex 129.5 93.5 1.5
      vertex 146 87.5 1.5
      vertex 129.5 103.5 1.5
    endloop
  endfacet
  facet normal 0 0 1
    outer loop
      vertex 146 157.5 1.5
      vertex 143.147 160.353 1.5
      vertex 129.5 103.5 1.5
    endloop
  endfacet
  facet normal 0 -0 1
    outer loop
      vertex 143.147 84.6468 1.5
      vertex 146 87.5 1.5
      vertex 129.5 93.5 1.5
    endloop
  endfacet
  facet normal 0 0 1
    outer loop
      vertex 129.5 103.5 1.5
      vertex 143.147 160.353 1.5
      vertex 143 160.5 1.5
    endloop
  endfacet
  facet normal 0 0 1
    outer loop
      vertex 145.427 85.7366 1.5
      vertex 143.147 84.6468 1.5
      vertex 143.927 84.6468 1.5
    endloop
  endfacet
  facet normal 0 0 1
    outer loop
      vertex 146 87.5 1.5
      vertex 143.147 84.6468 1.5
      vertex 145.427 85.7366 1.5
    endloop
  endfacet
  facet normal 0 0 1
    outer loop
      vertex 143 160.5 1.5
      vertex 44.5 103.5 1.5
      vertex 129.5 103.5 1.5
    endloop
  endfacet
  facet normal -0 0 1
    outer loop
      vertex 2.85316 160.353 1.5
      vertex 44.5 103.5 1.5
      vertex 3 160.5 1.5
    endloop
  endfacet
  facet normal -0 0 1
    outer loop
      vertex 3 160.5 1.5
      vertex 44.5 103.5 1.5
      vertex 143 160.5 1.5
    endloop
  endfacet
  facet normal 0 0 1
    outer loop
      vertex 143.147 84.6468 1.5
      vertex 129.5 93.5 1.5
      vertex 143 84.5 1.5
    endloop
  endfacet
  facet normal -0 0 1
    outer loop
      vertex 44.5 93.5 1.5
      vertex 143 84.5 1.5
      vertex 129.5 93.5 1.5
    endloop
  endfacet
  facet normal 0 0 1
    outer loop
      vertex 44.5 93.5 1.5
      vertex 3 84.5 1.5
      vertex 143 84.5 1.5
    endloop
  endfacet
  facet normal -0 0 1
    outer loop
      vertex 0 157.5 1.5
      vertex 44.5 103.5 1.5
      vertex 2.85316 160.353 1.5
    endloop
  endfacet
  facet normal 0 0 1
    outer loop
      vertex 44.5 103.5 1.5
      vertex 3 84.5 1.5
      vertex 44.5 93.5 1.5
    endloop
  endfacet
  facet normal 0 0 1
    outer loop
      vertex 0 87.5 1.5
      vertex 44.5 103.5 1.5
      vertex 0 157.5 1.5
    endloop
  endfacet
  facet normal 0 0 1
    outer loop
      vertex 0.572937 159.263 1.5
      vertex 2.85316 160.353 1.5
      vertex 2.07294 160.353 1.5
    endloop
  endfacet
  facet normal 0 -0 1
    outer loop
      vertex 2.85318 84.6468 1.5
      vertex 44.5 103.5 1.5
      vertex 0 87.5 1.5
    endloop
  endfacet
  facet normal 0 0 1
    outer loop
      vertex 2.85316 160.353 1.5
      vertex 0.572937 159.263 1.5
      vertex 0 157.5 1.5
    endloop
  endfacet
  facet normal 0 -0 1
    outer loop
      vertex 3 84.5 1.5
      vertex 44.5 103.5 1.5
      vertex 2.85318 84.6468 1.5
    endloop
  endfacet
  facet normal -0 -0 1
    outer loop
      vertex 0.572937 85.7366 1.5
      vertex 2.85318 84.6468 1.5
      vertex 0 87.5 1.5
    endloop
  endfacet
  facet normal 0 0 1
    outer loop
      vertex 2.85318 84.6468 1.5
      vertex 0.572937 85.7366 1.5
      vertex 2.07294 84.6468 1.5
    endloop
  endfacet
  facet normal 0 -1 0
    outer loop
      vertex 143.147 84.6468 0
      vertex 143.927 84.6468 1.5
      vertex 143.147 84.6468 1.5
    endloop
  endfacet
  facet normal 0 -1 -0
    outer loop
      vertex 143.927 84.6468 1.5
      vertex 143.147 84.6468 0
      vertex 143.927 84.6468 0
    endloop
  endfacet
  facet normal 0.587785 -0.809017 0
    outer loop
      vertex 143.927 84.6468 0
      vertex 145.427 85.7366 1.5
      vertex 143.927 84.6468 1.5
    endloop
  endfacet
  facet normal 0.587785 -0.809017 0
    outer loop
      vertex 145.427 85.7366 1.5
      vertex 143.927 84.6468 0
      vertex 145.427 85.7366 0
    endloop
  endfacet
  facet normal 0.951057 -0.309017 0
    outer loop
      vertex 145.427 85.7366 1.5
      vertex 146 87.5 0
      vertex 146 87.5 1.5
    endloop
  endfacet
  facet normal 0.951057 -0.309017 0
    outer loop
      vertex 146 87.5 0
      vertex 145.427 85.7366 1.5
      vertex 145.427 85.7366 0
    endloop
  endfacet
  facet normal 1 -0 0
    outer loop
      vertex 146 87.5 1.5
      vertex 146 157.5 0
      vertex 146 157.5 1.5
    endloop
  endfacet
  facet normal 1 0 0
    outer loop
      vertex 146 157.5 0
      vertex 146 87.5 1.5
      vertex 146 87.5 0
    endloop
  endfacet
  facet normal 0.951056 0.309019 0
    outer loop
      vertex 146 157.5 1.5
      vertex 145.427 159.263 0
      vertex 145.427 159.263 1.5
    endloop
  endfacet
  facet normal 0.951056 0.309019 0
    outer loop
      vertex 145.427 159.263 0
      vertex 146 157.5 1.5
      vertex 146 157.5 0
    endloop
  endfacet
  facet normal 0.587785 0.809017 -0
    outer loop
      vertex 145.427 159.263 0
      vertex 143.927 160.353 1.5
      vertex 145.427 159.263 1.5
    endloop
  endfacet
  facet normal 0.587785 0.809017 0
    outer loop
      vertex 143.927 160.353 1.5
      vertex 145.427 159.263 0
      vertex 143.927 160.353 0
    endloop
  endfacet
  facet normal 0 1 -0
    outer loop
      vertex 143.927 160.353 0
      vertex 143.147 160.353 1.5
      vertex 143.927 160.353 1.5
    endloop
  endfacet
  facet normal 0 1 0
    outer loop
      vertex 143.147 160.353 1.5
      vertex 143.927 160.353 0
      vertex 143.147 160.353 0
    endloop
  endfacet
  facet normal 0.707107 0.707107 0
    outer loop
      vertex 143.147 160.353 1.5
      vertex 143 160.5 0
      vertex 143 160.5 1.5
    endloop
  endfacet
  facet normal 0.707107 0.707107 0
    outer loop
      vertex 143 160.5 0
      vertex 143.147 160.353 1.5
      vertex 143.147 160.353 0
    endloop
  endfacet
  facet normal 0 1 -0
    outer loop
      vertex 143 160.5 0
      vertex 3 160.5 1.5
      vertex 143 160.5 1.5
    endloop
  endfacet
  facet normal 0 1 0
    outer loop
      vertex 3 160.5 1.5
      vertex 143 160.5 0
      vertex 3 160.5 0
    endloop
  endfacet
  facet normal -0.707107 0.707107 0
    outer loop
      vertex 2.85316 160.353 0
      vertex 3 160.5 1.5
      vertex 3 160.5 0
    endloop
  endfacet
  facet normal -0.707107 0.707107 0
    outer loop
      vertex 3 160.5 1.5
      vertex 2.85316 160.353 0
      vertex 2.85316 160.353 1.5
    endloop
  endfacet
  facet normal 0 1 -0
    outer loop
      vertex 2.85316 160.353 0
      vertex 2.07294 160.353 1.5
      vertex 2.85316 160.353 1.5
    endloop
  endfacet
  facet normal 0 1 0
    outer loop
      vertex 2.07294 160.353 1.5
      vertex 2.85316 160.353 0
      vertex 2.07294 160.353 0
    endloop
  endfacet
  facet normal -0.587785 0.809017 0
    outer loop
      vertex 2.07294 160.353 0
      vertex 0.572937 159.263 1.5
      vertex 2.07294 160.353 1.5
    endloop
  endfacet
  facet normal -0.587785 0.809017 0
    outer loop
      vertex 0.572937 159.263 1.5
      vertex 2.07294 160.353 0
      vertex 0.572937 159.263 0
    endloop
  endfacet
  facet normal -0.951058 0.309012 0
    outer loop
      vertex 0 157.5 0
      vertex 0.572937 159.263 1.5
      vertex 0.572937 159.263 0
    endloop
  endfacet
  facet normal -0.951058 0.309012 0
    outer loop
      vertex 0.572937 159.263 1.5
      vertex 0 157.5 0
      vertex 0 157.5 1.5
    endloop
  endfacet
  facet normal -1 0 0
    outer loop
      vertex 0 87.5 0
      vertex 0 157.5 1.5
      vertex 0 157.5 0
    endloop
  endfacet
  facet normal -1 -0 0
    outer loop
      vertex 0 157.5 1.5
      vertex 0 87.5 0
      vertex 0 87.5 1.5
    endloop
  endfacet
  facet normal -0.951059 -0.309009 0
    outer loop
      vertex 0.572937 85.7366 0
      vertex 0 87.5 1.5
      vertex 0 87.5 0
    endloop
  endfacet
  facet normal -0.951059 -0.309009 0
    outer loop
      vertex 0 87.5 1.5
      vertex 0.572937 85.7366 0
      vertex 0.572937 85.7366 1.5
    endloop
  endfacet
  facet normal -0.587785 -0.809017 0
    outer loop
      vertex 0.572937 85.7366 0
      vertex 2.07294 84.6468 1.5
      vertex 0.572937 85.7366 1.5
    endloop
  endfacet
  facet normal -0.587785 -0.809017 -0
    outer loop
      vertex 2.07294 84.6468 1.5
      vertex 0.572937 85.7366 0
      vertex 2.07294 84.6468 0
    endloop
  endfacet
  facet normal 0 -1 0
    outer loop
      vertex 2.07294 84.6468 0
      vertex 2.85318 84.6468 1.5
      vertex 2.07294 84.6468 1.5
    endloop
  endfacet
  facet normal 0 -1 -0
    outer loop
      vertex 2.85318 84.6468 1.5
      vertex 2.07294 84.6468 0
      vertex 2.85318 84.6468 0
    endloop
  endfacet
  facet normal -0.707107 -0.707107 0
    outer loop
      vertex 3 84.5 0
      vertex 2.85318 84.6468 1.5
      vertex 2.85318 84.6468 0
    endloop
  endfacet
  facet normal -0.707107 -0.707107 0
    outer loop
      vertex 2.85318 84.6468 1.5
      vertex 3 84.5 0
      vertex 3 84.5 1.5
    endloop
  endfacet
  facet normal 0 -1 0
    outer loop
      vertex 3 84.5 0
      vertex 143 84.5 1.5
      vertex 3 84.5 1.5
    endloop
  endfacet
  facet normal 0 -1 -0
    outer loop
      vertex 143 84.5 1.5
      vertex 3 84.5 0
      vertex 143 84.5 0
    endloop
  endfacet
  facet normal 0.707107 -0.707107 0
    outer loop
      vertex 143 84.5 1.5
      vertex 143.147 84.6468 0
      vertex 143.147 84.6468 1.5
    endloop
  endfacet
  facet normal 0.707107 -0.707107 0
    outer loop
      vertex 143.147 84.6468 0
      vertex 143 84.5 1.5
      vertex 143 84.5 0
    endloop
  endfacet
  facet normal 1 -0 0
    outer loop
      vertex 44.5 93.5 1.5
      vertex 44.5 103.5 0
      vertex 44.5 103.5 1.5
    endloop
  endfacet
  facet normal 1 0 0
    outer loop
      vertex 44.5 103.5 0
      vertex 44.5 93.5 1.5
      vertex 44.5 93.5 0
    endloop
  endfacet
  facet normal -1 0 0
    outer loop
      vertex 129.5 93.5 0
      vertex 129.5 103.5 1.5
      vertex 129.5 103.5 0
    endloop
  endfacet
  facet normal -1 -0 0
    outer loop
      vertex 129.5 103.5 1.5
      vertex 129.5 93.5 0
      vertex 129.5 93.5 1.5
    endloop
  endfacet
  facet normal 0 -1 0
    outer loop
      vertex 44.5 103.5 0
      vertex 129.5 103.5 1.5
      vertex 44.5 103.5 1.5
    endloop
  endfacet
  facet normal 0 -1 -0
    outer loop
      vertex 129.5 103.5 1.5
      vertex 44.5 103.5 0
      vertex 129.5 103.5 0
    endloop
  endfacet
  facet normal 0 1 -0
    outer loop
      vertex 129.5 93.5 0
      vertex 44.5 93.5 1.5
      vertex 129.5 93.5 1.5
    endloop
  endfacet
  facet normal 0 1 0
    outer loop
      vertex 44.5 93.5 1.5
      vertex 129.5 93.5 0
      vertex 44.5 93.5 0
    endloop
  endfacet
endsolid OpenSCAD_Model
