solid OpenSCAD_Model
  facet normal -2.22045e-016 -1 0
    outer loop
      vertex -5 -7.5 1
      vertex -5 -7.5 -1
      vertex 15 -7.5 -1
    endloop
  endfacet
  facet normal -2.22045e-016 -1 0
    outer loop
      vertex 15 -7.5 1
      vertex -5 -7.5 1
      vertex 15 -7.5 -1
    endloop
  endfacet
  facet normal 0 0 -1
    outer loop
      vertex -3.1 12.5 -1
      vertex -5 1 -1
      vertex -5 19.5 -1
    endloop
  endfacet
  facet normal 0 0 -1
    outer loop
      vertex 0.525329 17.6168 -1
      vertex -5 19.5 -1
      vertex 5 19.5 -1
    endloop
  endfacet
  facet normal 0 0 -1
    outer loop
      vertex 0.177698 -4.69069 -1
      vertex 15 -7.5 -1
      vertex -0.177698 -4.69069 -1
    endloop
  endfacet
  facet normal 0 0 -1
    outer loop
      vertex -3.1 12.5 -1
      vertex -5 19.5 -1
      vertex -1.37533 15.0008 -1
    endloop
  endfacet
  facet normal 0 0 -1
    outer loop
      vertex -3.1 0.5 -1
      vertex -5 1 -1
      vertex -3.1 12.5 -1
    endloop
  endfacet
  facet normal 0 0 -1
    outer loop
      vertex 12.1629 -4.35345 -1
      vertex 15 -7.5 -1
      vertex 12.053 -4.69145 -1
    endloop
  endfacet
  facet normal 0 0 -1
    outer loop
      vertex 9.12467 -4.99923 -1
      vertex -5 1 -1
      vertex -3.1 0.5 -1
    endloop
  endfacet
  facet normal 0 0 -1
    outer loop
      vertex 8.8 -4 -1
      vertex -3.1 0.5 -1
      vertex 3.1 0.5 -1
    endloop
  endfacet
  facet normal 0 0 -1
    outer loop
      vertex 5 9.5 -1
      vertex 3.1 12.5 -1
      vertex 5 19.5 -1
    endloop
  endfacet
  facet normal 0 0 -1
    outer loop
      vertex -5 -7.5 -1
      vertex -5 1 -1
      vertex -1.7 -3 -1
    endloop
  endfacet
  facet normal 0 0 -1
    outer loop
      vertex -5 -7.5 -1
      vertex -1.7 -3 -1
      vertex -1.66285 -3.35345 -1
    endloop
  endfacet
  facet normal 0 0 -1
    outer loop
      vertex -5 -7.5 -1
      vertex -1.66285 -3.35345 -1
      vertex -1.55303 -3.69145 -1
    endloop
  endfacet
  facet normal 0 0 -1
    outer loop
      vertex -5 -7.5 -1
      vertex -1.55303 -3.69145 -1
      vertex -1.37533 -3.99923 -1
    endloop
  endfacet
  facet normal 0 0 -1
    outer loop
      vertex -5 -7.5 -1
      vertex -1.37533 -3.99923 -1
      vertex -1.13752 -4.26335 -1
    endloop
  endfacet
  facet normal 0 0 -1
    outer loop
      vertex -5 -7.5 -1
      vertex -1.13752 -4.26335 -1
      vertex -0.85 -4.47224 -1
    endloop
  endfacet
  facet normal 0 0 -1
    outer loop
      vertex -5 -7.5 -1
      vertex -0.85 -4.47224 -1
      vertex -0.525329 -4.6168 -1
    endloop
  endfacet
  facet normal 0 0 -1
    outer loop
      vertex -5 -7.5 -1
      vertex -0.525329 -4.6168 -1
      vertex -0.177698 -4.69069 -1
    endloop
  endfacet
  facet normal 0 0 -1
    outer loop
      vertex -5 -7.5 -1
      vertex -0.177698 -4.69069 -1
      vertex 15 -7.5 -1
    endloop
  endfacet
  facet normal 0 0 -1
    outer loop
      vertex 0.525329 -4.6168 -1
      vertex 15 -7.5 -1
      vertex 0.177698 -4.69069 -1
    endloop
  endfacet
  facet normal 0 0 -1
    outer loop
      vertex 0.85 -4.47224 -1
      vertex 15 -7.5 -1
      vertex 0.525329 -4.6168 -1
    endloop
  endfacet
  facet normal 0 0 -1
    outer loop
      vertex 1.13752 -4.26335 -1
      vertex 15 -7.5 -1
      vertex 0.85 -4.47224 -1
    endloop
  endfacet
  facet normal 0 0 -1
    outer loop
      vertex 1.37533 -3.99923 -1
      vertex 15 -7.5 -1
      vertex 1.13752 -4.26335 -1
    endloop
  endfacet
  facet normal 0 0 -1
    outer loop
      vertex 1.55303 -3.69145 -1
      vertex 15 -7.5 -1
      vertex 1.37533 -3.99923 -1
    endloop
  endfacet
  facet normal 0 0 -1
    outer loop
      vertex -1.7 16 -1
      vertex -5 19.5 -1
      vertex -1.66285 16.3534 -1
    endloop
  endfacet
  facet normal 0 0 -1
    outer loop
      vertex 0.177698 -1.30931 -1
      vertex -5 1 -1
      vertex 0.525329 -1.3832 -1
    endloop
  endfacet
  facet normal 0 0 -1
    outer loop
      vertex -1.37533 -2.00076 -1
      vertex -5 1 -1
      vertex -1.13752 -1.73665 -1
    endloop
  endfacet
  facet normal 0 0 -1
    outer loop
      vertex 1.55303 -3.69145 -1
      vertex 1.66285 -3.35345 -1
      vertex 15 -7.5 -1
    endloop
  endfacet
  facet normal 0 0 -1
    outer loop
      vertex -1.13752 -1.73665 -1
      vertex -5 1 -1
      vertex -0.85 -1.52776 -1
    endloop
  endfacet
  facet normal 0 0 -1
    outer loop
      vertex 1.66285 -3.35345 -1
      vertex 1.7 -3 -1
      vertex 15 -7.5 -1
    endloop
  endfacet
  facet normal 0 0 -1
    outer loop
      vertex 1.7 -3 -1
      vertex 1.66285 -2.64655 -1
      vertex 15 -7.5 -1
    endloop
  endfacet
  facet normal 0 0 -1
    outer loop
      vertex -0.85 -1.52776 -1
      vertex -5 1 -1
      vertex -0.525329 -1.3832 -1
    endloop
  endfacet
  facet normal 0 0 -1
    outer loop
      vertex 10.3223 -5.69069 -1
      vertex 15 -7.5 -1
      vertex 9.97467 -5.6168 -1
    endloop
  endfacet
  facet normal 0 0 -1
    outer loop
      vertex -0.525329 -1.3832 -1
      vertex -5 1 -1
      vertex -0.177698 -1.30931 -1
    endloop
  endfacet
  facet normal 0 0 -1
    outer loop
      vertex 9.65 -5.47224 -1
      vertex 1.55303 -2.30855 -1
      vertex 9.36248 -5.26335 -1
    endloop
  endfacet
  facet normal 0 0 -1
    outer loop
      vertex -0.177698 -1.30931 -1
      vertex -5 1 -1
      vertex 0.177698 -1.30931 -1
    endloop
  endfacet
  facet normal 0 0 -1
    outer loop
      vertex 10.6777 -5.69069 -1
      vertex 15 -7.5 -1
      vertex 10.3223 -5.69069 -1
    endloop
  endfacet
  facet normal 0 0 -1
    outer loop
      vertex -1.55303 -2.30855 -1
      vertex -5 1 -1
      vertex -1.37533 -2.00076 -1
    endloop
  endfacet
  facet normal 0 0 -1
    outer loop
      vertex -1.66285 -2.64655 -1
      vertex -5 1 -1
      vertex -1.55303 -2.30855 -1
    endloop
  endfacet
  facet normal 0 0 -1
    outer loop
      vertex -1.7 -3 -1
      vertex -5 1 -1
      vertex -1.66285 -2.64655 -1
    endloop
  endfacet
  facet normal 0 0 -1
    outer loop
      vertex -1.66285 15.6465 -1
      vertex -5 19.5 -1
      vertex -1.7 16 -1
    endloop
  endfacet
  facet normal 0 0 -1
    outer loop
      vertex -1.55303 15.3085 -1
      vertex -5 19.5 -1
      vertex -1.66285 15.6465 -1
    endloop
  endfacet
  facet normal 0 0 -1
    outer loop
      vertex -1.37533 15.0008 -1
      vertex -5 19.5 -1
      vertex -1.55303 15.3085 -1
    endloop
  endfacet
  facet normal 0 0 -1
    outer loop
      vertex 0.525329 -1.3832 -1
      vertex -5 1 -1
      vertex 9.12467 -4.99923 -1
    endloop
  endfacet
  facet normal 0 0 -1
    outer loop
      vertex 11.8753 -4.99923 -1
      vertex 15 -7.5 -1
      vertex 11.6375 -5.26335 -1
    endloop
  endfacet
  facet normal 0 0 -1
    outer loop
      vertex 0.85 14.5278 -1
      vertex 3.1 12.5 -1
      vertex 0.525329 14.3832 -1
    endloop
  endfacet
  facet normal 0 0 -1
    outer loop
      vertex 8.8 -4 -1
      vertex 3.1 0.5 -1
      vertex 3.1 12.5 -1
    endloop
  endfacet
  facet normal 0 0 -1
    outer loop
      vertex 1.55303 15.3085 -1
      vertex 5 19.5 -1
      vertex 1.37533 15.0008 -1
    endloop
  endfacet
  facet normal 0 0 -1
    outer loop
      vertex 3.1 12.5 -1
      vertex 0.85 14.5278 -1
      vertex 1.13752 14.7367 -1
    endloop
  endfacet
  facet normal 0 0 -1
    outer loop
      vertex 3.1 12.5 -1
      vertex 1.13752 14.7367 -1
      vertex 1.37533 15.0008 -1
    endloop
  endfacet
  facet normal 0 0 -1
    outer loop
      vertex 3.1 12.5 -1
      vertex 1.37533 15.0008 -1
      vertex 5 19.5 -1
    endloop
  endfacet
  facet normal 0 0 -1
    outer loop
      vertex 1.66285 15.6465 -1
      vertex 5 19.5 -1
      vertex 1.55303 15.3085 -1
    endloop
  endfacet
  facet normal 0 0 -1
    outer loop
      vertex -1.66285 16.3534 -1
      vertex -5 19.5 -1
      vertex -1.55303 16.6915 -1
    endloop
  endfacet
  facet normal 0 0 -1
    outer loop
      vertex 0.177698 17.6907 -1
      vertex -5 19.5 -1
      vertex 0.525329 17.6168 -1
    endloop
  endfacet
  facet normal 0 0 -1
    outer loop
      vertex 1.66285 15.6465 -1
      vertex 1.7 16 -1
      vertex 5 19.5 -1
    endloop
  endfacet
  facet normal 0 0 -1
    outer loop
      vertex -1.13752 17.2633 -1
      vertex -5 19.5 -1
      vertex -0.85 17.4722 -1
    endloop
  endfacet
  facet normal 0 0 -1
    outer loop
      vertex 1.7 16 -1
      vertex 1.66285 16.3534 -1
      vertex 5 19.5 -1
    endloop
  endfacet
  facet normal 0 0 -1
    outer loop
      vertex 1.66285 16.3534 -1
      vertex 1.55303 16.6915 -1
      vertex 5 19.5 -1
    endloop
  endfacet
  facet normal 0 0 -1
    outer loop
      vertex -0.85 17.4722 -1
      vertex -5 19.5 -1
      vertex -0.525329 17.6168 -1
    endloop
  endfacet
  facet normal 0 0 -1
    outer loop
      vertex 1.55303 16.6915 -1
      vertex 1.37533 16.9992 -1
      vertex 5 19.5 -1
    endloop
  endfacet
  facet normal 0 0 -1
    outer loop
      vertex -0.525329 17.6168 -1
      vertex -5 19.5 -1
      vertex -0.177698 17.6907 -1
    endloop
  endfacet
  facet normal 0 0 -1
    outer loop
      vertex 1.37533 16.9992 -1
      vertex 1.13752 17.2633 -1
      vertex 5 19.5 -1
    endloop
  endfacet
  facet normal 0 0 -1
    outer loop
      vertex -0.177698 17.6907 -1
      vertex -5 19.5 -1
      vertex 0.177698 17.6907 -1
    endloop
  endfacet
  facet normal 0 0 -1
    outer loop
      vertex 1.13752 17.2633 -1
      vertex 0.85 17.4722 -1
      vertex 5 19.5 -1
    endloop
  endfacet
  facet normal 0 0 -1
    outer loop
      vertex 0.85 17.4722 -1
      vertex 0.525329 17.6168 -1
      vertex 5 19.5 -1
    endloop
  endfacet
  facet normal 0 0 -1
    outer loop
      vertex -1.37533 16.9992 -1
      vertex -5 19.5 -1
      vertex -1.13752 17.2633 -1
    endloop
  endfacet
  facet normal 0 0 -1
    outer loop
      vertex -1.55303 16.6915 -1
      vertex -5 19.5 -1
      vertex -1.37533 16.9992 -1
    endloop
  endfacet
  facet normal 0 0 -1
    outer loop
      vertex 8.8 -4 -1
      vertex 5 9.5 -1
      vertex 8.8 6 -1
    endloop
  endfacet
  facet normal 0 0 -1
    outer loop
      vertex 11.0253 -5.6168 -1
      vertex 15 -7.5 -1
      vertex 10.6777 -5.69069 -1
    endloop
  endfacet
  facet normal 0 0 -1
    outer loop
      vertex 8.83715 -4.35345 -1
      vertex -3.1 0.5 -1
      vertex 8.8 -4 -1
    endloop
  endfacet
  facet normal 0 0 -1
    outer loop
      vertex 9.12467 -4.99923 -1
      vertex -3.1 0.5 -1
      vertex 8.94697 -4.69145 -1
    endloop
  endfacet
  facet normal 0 0 -1
    outer loop
      vertex 8.94697 -4.69145 -1
      vertex -3.1 0.5 -1
      vertex 8.83715 -4.35345 -1
    endloop
  endfacet
  facet normal 0 0 -1
    outer loop
      vertex 9.36248 -5.26335 -1
      vertex 1.13752 -1.73665 -1
      vertex 0.85 -1.52776 -1
    endloop
  endfacet
  facet normal 0 0 -1
    outer loop
      vertex 9.36248 -5.26335 -1
      vertex 1.37533 -2.00076 -1
      vertex 1.13752 -1.73665 -1
    endloop
  endfacet
  facet normal 0 0 -1
    outer loop
      vertex 1.55303 -2.30855 -1
      vertex 1.37533 -2.00076 -1
      vertex 9.36248 -5.26335 -1
    endloop
  endfacet
  facet normal 0 0 -1
    outer loop
      vertex 1.66285 -2.64655 -1
      vertex 1.55303 -2.30855 -1
      vertex 9.65 -5.47224 -1
    endloop
  endfacet
  facet normal 0 0 -1
    outer loop
      vertex 1.66285 -2.64655 -1
      vertex 9.65 -5.47224 -1
      vertex 9.97467 -5.6168 -1
    endloop
  endfacet
  facet normal 0 0 -1
    outer loop
      vertex 1.66285 -2.64655 -1
      vertex 9.97467 -5.6168 -1
      vertex 15 -7.5 -1
    endloop
  endfacet
  facet normal 0 0 -1
    outer loop
      vertex 11.35 -5.47224 -1
      vertex 15 -7.5 -1
      vertex 11.0253 -5.6168 -1
    endloop
  endfacet
  facet normal 0 0 -1
    outer loop
      vertex 11.6375 -5.26335 -1
      vertex 15 -7.5 -1
      vertex 11.35 -5.47224 -1
    endloop
  endfacet
  facet normal 0 0 -1
    outer loop
      vertex 12.2 6 -1
      vertex 15 -7.5 -1
      vertex 12.2 -4 -1
    endloop
  endfacet
  facet normal 0 0 -1
    outer loop
      vertex 9.36248 -5.26335 -1
      vertex 0.85 -1.52776 -1
      vertex 0.525329 -1.3832 -1
    endloop
  endfacet
  facet normal 0 0 -1
    outer loop
      vertex 15 -7.5 -1
      vertex 11.8753 -4.99923 -1
      vertex 12.053 -4.69145 -1
    endloop
  endfacet
  facet normal 0 0 -1
    outer loop
      vertex 15 -7.5 -1
      vertex 12.1629 -4.35345 -1
      vertex 12.2 -4 -1
    endloop
  endfacet
  facet normal 0 0 -1
    outer loop
      vertex 9.36248 -5.26335 -1
      vertex 0.525329 -1.3832 -1
      vertex 9.12467 -4.99923 -1
    endloop
  endfacet
  facet normal 0 0 -1
    outer loop
      vertex 15 -7.5 -1
      vertex 12.2 6 -1
      vertex 15 9.5 -1
    endloop
  endfacet
  facet normal 0 0 -1
    outer loop
      vertex 12.2 6 -1
      vertex 12.1629 6.35345 -1
      vertex 15 9.5 -1
    endloop
  endfacet
  facet normal 0 0 -1
    outer loop
      vertex 12.1629 6.35345 -1
      vertex 12.053 6.69145 -1
      vertex 15 9.5 -1
    endloop
  endfacet
  facet normal 0 0 -1
    outer loop
      vertex -3.1 12.5 -1
      vertex -1.37533 15.0008 -1
      vertex -1.13752 14.7367 -1
    endloop
  endfacet
  facet normal 0 0 -1
    outer loop
      vertex -3.1 12.5 -1
      vertex -1.13752 14.7367 -1
      vertex -0.85 14.5278 -1
    endloop
  endfacet
  facet normal 0 0 -1
    outer loop
      vertex -3.1 12.5 -1
      vertex -0.85 14.5278 -1
      vertex -0.525329 14.3832 -1
    endloop
  endfacet
  facet normal 0 0 -1
    outer loop
      vertex -3.1 12.5 -1
      vertex -0.525329 14.3832 -1
      vertex -0.177698 14.3093 -1
    endloop
  endfacet
  facet normal 0 0 -1
    outer loop
      vertex -3.1 12.5 -1
      vertex -0.177698 14.3093 -1
      vertex 0.177698 14.3093 -1
    endloop
  endfacet
  facet normal 0 0 -1
    outer loop
      vertex 8.8 -4 -1
      vertex 3.1 12.5 -1
      vertex 5 9.5 -1
    endloop
  endfacet
  facet normal 0 0 -1
    outer loop
      vertex -3.1 12.5 -1
      vertex 0.177698 14.3093 -1
      vertex 0.525329 14.3832 -1
    endloop
  endfacet
  facet normal 0 0 -1
    outer loop
      vertex -3.1 12.5 -1
      vertex 0.525329 14.3832 -1
      vertex 3.1 12.5 -1
    endloop
  endfacet
  facet normal 0 0 -1
    outer loop
      vertex 15 9.5 -1
      vertex 12.053 6.69145 -1
      vertex 11.8753 6.99923 -1
    endloop
  endfacet
  facet normal 0 0 -1
    outer loop
      vertex 15 9.5 -1
      vertex 11.8753 6.99923 -1
      vertex 11.6375 7.26335 -1
    endloop
  endfacet
  facet normal 0 0 -1
    outer loop
      vertex 15 9.5 -1
      vertex 11.6375 7.26335 -1
      vertex 11.35 7.47224 -1
    endloop
  endfacet
  facet normal 0 0 -1
    outer loop
      vertex 15 9.5 -1
      vertex 11.35 7.47224 -1
      vertex 11.0253 7.6168 -1
    endloop
  endfacet
  facet normal 0 0 -1
    outer loop
      vertex 15 9.5 -1
      vertex 11.0253 7.6168 -1
      vertex 10.6777 7.69069 -1
    endloop
  endfacet
  facet normal 0 0 -1
    outer loop
      vertex 15 9.5 -1
      vertex 10.6777 7.69069 -1
      vertex 10.3223 7.69069 -1
    endloop
  endfacet
  facet normal 0 0 -1
    outer loop
      vertex 15 9.5 -1
      vertex 10.3223 7.69069 -1
      vertex 9.97467 7.6168 -1
    endloop
  endfacet
  facet normal 0 0 -1
    outer loop
      vertex 8.83715 6.35345 -1
      vertex 8.8 6 -1
      vertex 5 9.5 -1
    endloop
  endfacet
  facet normal 0 0 -1
    outer loop
      vertex 8.94697 6.69145 -1
      vertex 8.83715 6.35345 -1
      vertex 5 9.5 -1
    endloop
  endfacet
  facet normal 0 0 -1
    outer loop
      vertex 9.12467 6.99923 -1
      vertex 8.94697 6.69145 -1
      vertex 5 9.5 -1
    endloop
  endfacet
  facet normal 0 0 -1
    outer loop
      vertex 9.36248 7.26335 -1
      vertex 9.12467 6.99923 -1
      vertex 5 9.5 -1
    endloop
  endfacet
  facet normal 0 0 -1
    outer loop
      vertex 9.65 7.47224 -1
      vertex 9.36248 7.26335 -1
      vertex 5 9.5 -1
    endloop
  endfacet
  facet normal 0 0 -1
    outer loop
      vertex 9.97467 7.6168 -1
      vertex 9.65 7.47224 -1
      vertex 5 9.5 -1
    endloop
  endfacet
  facet normal 0 0 -1
    outer loop
      vertex 15 9.5 -1
      vertex 9.97467 7.6168 -1
      vertex 5 9.5 -1
    endloop
  endfacet
  facet normal -1 2.22045e-016 0
    outer loop
      vertex -5 -7.5 -1
      vertex -5 -7.5 1
      vertex -5 1 -1
    endloop
  endfacet
  facet normal -1 2.22045e-016 0
    outer loop
      vertex -5 1 -1
      vertex -5 -7.5 1
      vertex -5 1 1
    endloop
  endfacet
  facet normal 0 0 1
    outer loop
      vertex 0.85 -4.47224 1
      vertex -5 -7.5 1
      vertex 15 -7.5 1
    endloop
  endfacet
  facet normal 0 0 1
    outer loop
      vertex 10.6777 -5.69069 1
      vertex 10.3223 -5.69069 1
      vertex 15 -7.5 1
    endloop
  endfacet
  facet normal 0 0 1
    outer loop
      vertex 3.1 12.5 1
      vertex 3.1 0.5 1
      vertex 5 9.5 1
    endloop
  endfacet
  facet normal 0 0 1
    outer loop
      vertex 5 9.5 1
      vertex 8.8 6 1
      vertex 8.83715 6.35345 1
    endloop
  endfacet
  facet normal 0 0 1
    outer loop
      vertex -5 19.5 1
      vertex -5 1 1
      vertex -3.1 12.5 1
    endloop
  endfacet
  facet normal 0 0 1
    outer loop
      vertex 5 19.5 1
      vertex 3.1 12.5 1
      vertex 5 9.5 1
    endloop
  endfacet
  facet normal 0 0 1
    outer loop
      vertex 5 9.5 1
      vertex 3.1 0.5 1
      vertex 8.8 6 1
    endloop
  endfacet
  facet normal 0 0 1
    outer loop
      vertex 0.525329 -4.6168 1
      vertex 0.177698 -4.69069 1
      vertex -5 -7.5 1
    endloop
  endfacet
  facet normal 0 0 1
    outer loop
      vertex -5 1 1
      vertex -5 -7.5 1
      vertex -1.66285 -3.35345 1
    endloop
  endfacet
  facet normal 0 0 1
    outer loop
      vertex 1.37533 -3.99923 1
      vertex 1.13752 -4.26335 1
      vertex 15 -7.5 1
    endloop
  endfacet
  facet normal 0 0 1
    outer loop
      vertex -5 1 1
      vertex -1.66285 -3.35345 1
      vertex -1.7 -3 1
    endloop
  endfacet
  facet normal 0 0 1
    outer loop
      vertex 1.55303 -3.69145 1
      vertex 1.37533 -3.99923 1
      vertex 15 -7.5 1
    endloop
  endfacet
  facet normal 0 0 1
    outer loop
      vertex -5 1 1
      vertex -1.7 -3 1
      vertex -1.66285 -2.64655 1
    endloop
  endfacet
  facet normal 0 0 1
    outer loop
      vertex 1.66285 -3.35345 1
      vertex 1.55303 -3.69145 1
      vertex 15 -7.5 1
    endloop
  endfacet
  facet normal 0 0 1
    outer loop
      vertex -5 1 1
      vertex -1.66285 -2.64655 1
      vertex -1.55303 -2.30855 1
    endloop
  endfacet
  facet normal 0 0 1
    outer loop
      vertex 0.525329 17.6168 1
      vertex 0.85 17.4722 1
      vertex 5 19.5 1
    endloop
  endfacet
  facet normal 0 0 1
    outer loop
      vertex -5 1 1
      vertex -1.55303 -2.30855 1
      vertex -1.37533 -2.00076 1
    endloop
  endfacet
  facet normal 0 0 1
    outer loop
      vertex -5 1 1
      vertex -1.37533 -2.00076 1
      vertex -1.13752 -1.73665 1
    endloop
  endfacet
  facet normal 0 0 1
    outer loop
      vertex 1.7 -3 1
      vertex 1.66285 -3.35345 1
      vertex 15 -7.5 1
    endloop
  endfacet
  facet normal 0 0 1
    outer loop
      vertex -5 1 1
      vertex -1.13752 -1.73665 1
      vertex -0.85 -1.52776 1
    endloop
  endfacet
  facet normal 0 0 1
    outer loop
      vertex 1.55303 -2.30855 1
      vertex 9.97467 -5.6168 1
      vertex 9.65 -5.47224 1
    endloop
  endfacet
  facet normal 0 0 1
    outer loop
      vertex -5 1 1
      vertex -0.85 -1.52776 1
      vertex -0.525329 -1.3832 1
    endloop
  endfacet
  facet normal 0 0 1
    outer loop
      vertex 9.36248 -5.26335 1
      vertex 0.525329 -1.3832 1
      vertex 0.85 -1.52776 1
    endloop
  endfacet
  facet normal 0 0 1
    outer loop
      vertex -5 1 1
      vertex -0.525329 -1.3832 1
      vertex -0.177698 -1.30931 1
    endloop
  endfacet
  facet normal 0 0 1
    outer loop
      vertex 10.3223 -5.69069 1
      vertex 9.97467 -5.6168 1
      vertex 15 -7.5 1
    endloop
  endfacet
  facet normal 0 0 1
    outer loop
      vertex -5 1 1
      vertex -0.177698 -1.30931 1
      vertex 0.177698 -1.30931 1
    endloop
  endfacet
  facet normal 0 0 1
    outer loop
      vertex -5 1 1
      vertex 0.177698 -1.30931 1
      vertex 0.525329 -1.3832 1
    endloop
  endfacet
  facet normal 0 0 1
    outer loop
      vertex 9.65 -5.47224 1
      vertex 9.36248 -5.26335 1
      vertex 1.37533 -2.00076 1
    endloop
  endfacet
  facet normal 0 0 1
    outer loop
      vertex 9.97467 -5.6168 1
      vertex 1.66285 -2.64655 1
      vertex 15 -7.5 1
    endloop
  endfacet
  facet normal 0 0 1
    outer loop
      vertex 1.13752 -4.26335 1
      vertex 0.85 -4.47224 1
      vertex 15 -7.5 1
    endloop
  endfacet
  facet normal 0 0 1
    outer loop
      vertex 0.525329 -4.6168 1
      vertex -5 -7.5 1
      vertex 0.85 -4.47224 1
    endloop
  endfacet
  facet normal 0 0 1
    outer loop
      vertex -0.525329 17.6168 1
      vertex -0.177698 17.6907 1
      vertex 5 19.5 1
    endloop
  endfacet
  facet normal 0 0 1
    outer loop
      vertex -0.177698 -4.69069 1
      vertex -5 -7.5 1
      vertex 0.177698 -4.69069 1
    endloop
  endfacet
  facet normal 0 0 1
    outer loop
      vertex -0.525329 -4.6168 1
      vertex -5 -7.5 1
      vertex -0.177698 -4.69069 1
    endloop
  endfacet
  facet normal 0 0 1
    outer loop
      vertex -0.85 -4.47224 1
      vertex -5 -7.5 1
      vertex -0.525329 -4.6168 1
    endloop
  endfacet
  facet normal 0 0 1
    outer loop
      vertex -1.13752 -4.26335 1
      vertex -5 -7.5 1
      vertex -0.85 -4.47224 1
    endloop
  endfacet
  facet normal 0 0 1
    outer loop
      vertex -1.37533 -3.99923 1
      vertex -5 -7.5 1
      vertex -1.13752 -4.26335 1
    endloop
  endfacet
  facet normal 0 0 1
    outer loop
      vertex -1.55303 -3.69145 1
      vertex -5 -7.5 1
      vertex -1.37533 -3.99923 1
    endloop
  endfacet
  facet normal 0 0 1
    outer loop
      vertex -1.66285 -3.35345 1
      vertex -5 -7.5 1
      vertex -1.55303 -3.69145 1
    endloop
  endfacet
  facet normal 0 0 1
    outer loop
      vertex 1.55303 16.6915 1
      vertex 1.66285 16.3534 1
      vertex 5 19.5 1
    endloop
  endfacet
  facet normal 0 0 1
    outer loop
      vertex -5 19.5 1
      vertex -3.1 12.5 1
      vertex -1.66285 15.6465 1
    endloop
  endfacet
  facet normal 0 0 1
    outer loop
      vertex -0.525329 14.3832 1
      vertex -0.85 14.5278 1
      vertex -3.1 12.5 1
    endloop
  endfacet
  facet normal 0 0 1
    outer loop
      vertex -5 19.5 1
      vertex -1.66285 15.6465 1
      vertex -1.7 16 1
    endloop
  endfacet
  facet normal 0 0 1
    outer loop
      vertex -5 19.5 1
      vertex -1.7 16 1
      vertex -1.66285 16.3534 1
    endloop
  endfacet
  facet normal 0 0 1
    outer loop
      vertex 0.85 17.4722 1
      vertex 1.13752 17.2633 1
      vertex 5 19.5 1
    endloop
  endfacet
  facet normal 0 0 1
    outer loop
      vertex -5 19.5 1
      vertex -1.66285 16.3534 1
      vertex -1.55303 16.6915 1
    endloop
  endfacet
  facet normal 0 0 1
    outer loop
      vertex -5 19.5 1
      vertex -1.55303 16.6915 1
      vertex -1.37533 16.9992 1
    endloop
  endfacet
  facet normal 0 0 1
    outer loop
      vertex 0.177698 17.6907 1
      vertex 0.525329 17.6168 1
      vertex 5 19.5 1
    endloop
  endfacet
  facet normal 0 0 1
    outer loop
      vertex -5 19.5 1
      vertex -1.37533 16.9992 1
      vertex -1.13752 17.2633 1
    endloop
  endfacet
  facet normal 0 0 1
    outer loop
      vertex -0.177698 17.6907 1
      vertex 0.177698 17.6907 1
      vertex 5 19.5 1
    endloop
  endfacet
  facet normal 0 0 1
    outer loop
      vertex -5 19.5 1
      vertex -1.13752 17.2633 1
      vertex -0.85 17.4722 1
    endloop
  endfacet
  facet normal 0 0 1
    outer loop
      vertex -5 19.5 1
      vertex -0.525329 17.6168 1
      vertex 5 19.5 1
    endloop
  endfacet
  facet normal 0 0 1
    outer loop
      vertex -5 19.5 1
      vertex -0.85 17.4722 1
      vertex -0.525329 17.6168 1
    endloop
  endfacet
  facet normal 0 0 1
    outer loop
      vertex 11.6375 7.26335 1
      vertex 11.8753 6.99923 1
      vertex 15 9.5 1
    endloop
  endfacet
  facet normal 0 0 1
    outer loop
      vertex 1.13752 17.2633 1
      vertex 1.37533 16.9992 1
      vertex 5 19.5 1
    endloop
  endfacet
  facet normal 0 0 1
    outer loop
      vertex 1.37533 16.9992 1
      vertex 1.55303 16.6915 1
      vertex 5 19.5 1
    endloop
  endfacet
  facet normal 0 0 1
    outer loop
      vertex 1.66285 16.3534 1
      vertex 1.7 16 1
      vertex 5 19.5 1
    endloop
  endfacet
  facet normal 0 0 1
    outer loop
      vertex 5 9.5 1
      vertex 9.12467 6.99923 1
      vertex 9.36248 7.26335 1
    endloop
  endfacet
  facet normal 0 0 1
    outer loop
      vertex 1.7 16 1
      vertex 1.66285 15.6465 1
      vertex 5 19.5 1
    endloop
  endfacet
  facet normal 0 0 1
    outer loop
      vertex 11.35 7.47224 1
      vertex 11.6375 7.26335 1
      vertex 15 9.5 1
    endloop
  endfacet
  facet normal 0 0 1
    outer loop
      vertex 1.66285 15.6465 1
      vertex 1.55303 15.3085 1
      vertex 5 19.5 1
    endloop
  endfacet
  facet normal 0 0 1
    outer loop
      vertex 5 9.5 1
      vertex 8.83715 6.35345 1
      vertex 8.94697 6.69145 1
    endloop
  endfacet
  facet normal 0 0 1
    outer loop
      vertex 5 9.5 1
      vertex 8.94697 6.69145 1
      vertex 9.12467 6.99923 1
    endloop
  endfacet
  facet normal 0 0 1
    outer loop
      vertex -3.1 12.5 1
      vertex 0.85 14.5278 1
      vertex 0.525329 14.3832 1
    endloop
  endfacet
  facet normal 0 0 1
    outer loop
      vertex -3.1 12.5 1
      vertex 0.525329 14.3832 1
      vertex 0.177698 14.3093 1
    endloop
  endfacet
  facet normal 0 0 1
    outer loop
      vertex -3.1 12.5 1
      vertex 0.177698 14.3093 1
      vertex -0.177698 14.3093 1
    endloop
  endfacet
  facet normal 0 0 1
    outer loop
      vertex -0.85 14.5278 1
      vertex -1.13752 14.7367 1
      vertex -3.1 12.5 1
    endloop
  endfacet
  facet normal 0 0 1
    outer loop
      vertex -3.1 12.5 1
      vertex -0.177698 14.3093 1
      vertex -0.525329 14.3832 1
    endloop
  endfacet
  facet normal 0 0 1
    outer loop
      vertex -1.37533 15.0008 1
      vertex -3.1 12.5 1
      vertex -1.13752 14.7367 1
    endloop
  endfacet
  facet normal 0 0 1
    outer loop
      vertex -1.55303 15.3085 1
      vertex -3.1 12.5 1
      vertex -1.37533 15.0008 1
    endloop
  endfacet
  facet normal 0 0 1
    outer loop
      vertex -1.66285 15.6465 1
      vertex -3.1 12.5 1
      vertex -1.55303 15.3085 1
    endloop
  endfacet
  facet normal 0 0 1
    outer loop
      vertex 3.1 0.5 1
      vertex -3.1 0.5 1
      vertex 8.8 -4 1
    endloop
  endfacet
  facet normal 0 0 1
    outer loop
      vertex 0.525329 -1.3832 1
      vertex 9.12467 -4.99923 1
      vertex -5 1 1
    endloop
  endfacet
  facet normal 0 0 1
    outer loop
      vertex 11.0253 7.6168 1
      vertex 11.35 7.47224 1
      vertex 15 9.5 1
    endloop
  endfacet
  facet normal 0 0 1
    outer loop
      vertex 10.3223 7.69069 1
      vertex 10.6777 7.69069 1
      vertex 15 9.5 1
    endloop
  endfacet
  facet normal 0 0 1
    outer loop
      vertex 5 9.5 1
      vertex 9.36248 7.26335 1
      vertex 9.65 7.47224 1
    endloop
  endfacet
  facet normal 0 0 1
    outer loop
      vertex 5 9.5 1
      vertex 9.97467 7.6168 1
      vertex 15 9.5 1
    endloop
  endfacet
  facet normal 0 0 1
    outer loop
      vertex 5 9.5 1
      vertex 9.65 7.47224 1
      vertex 9.97467 7.6168 1
    endloop
  endfacet
  facet normal 0 0 1
    outer loop
      vertex 9.36248 -5.26335 1
      vertex 0.85 -1.52776 1
      vertex 1.13752 -1.73665 1
    endloop
  endfacet
  facet normal 0 0 1
    outer loop
      vertex 9.97467 7.6168 1
      vertex 10.3223 7.69069 1
      vertex 15 9.5 1
    endloop
  endfacet
  facet normal 0 0 1
    outer loop
      vertex 11.6375 -5.26335 1
      vertex 11.35 -5.47224 1
      vertex 15 -7.5 1
    endloop
  endfacet
  facet normal 0 0 1
    outer loop
      vertex 10.6777 7.69069 1
      vertex 11.0253 7.6168 1
      vertex 15 9.5 1
    endloop
  endfacet
  facet normal 0 0 1
    outer loop
      vertex 15 9.5 1
      vertex 11.8753 6.99923 1
      vertex 12.053 6.69145 1
    endloop
  endfacet
  facet normal 0 0 1
    outer loop
      vertex 15 9.5 1
      vertex 12.1629 6.35345 1
      vertex 15 -7.5 1
    endloop
  endfacet
  facet normal 0 0 1
    outer loop
      vertex 15 9.5 1
      vertex 12.053 6.69145 1
      vertex 12.1629 6.35345 1
    endloop
  endfacet
  facet normal 0 0 1
    outer loop
      vertex 12.1629 6.35345 1
      vertex 12.2 6 1
      vertex 15 -7.5 1
    endloop
  endfacet
  facet normal 0 0 1
    outer loop
      vertex 12.2 -4 1
      vertex 12.1629 -4.35345 1
      vertex 15 -7.5 1
    endloop
  endfacet
  facet normal 0 0 1
    outer loop
      vertex 8.94697 -4.69145 1
      vertex 8.83715 -4.35345 1
      vertex -3.1 0.5 1
    endloop
  endfacet
  facet normal 0 0 1
    outer loop
      vertex 12.1629 -4.35345 1
      vertex 12.053 -4.69145 1
      vertex 15 -7.5 1
    endloop
  endfacet
  facet normal 0 0 1
    outer loop
      vertex 11.0253 -5.6168 1
      vertex 10.6777 -5.69069 1
      vertex 15 -7.5 1
    endloop
  endfacet
  facet normal 0 0 1
    outer loop
      vertex 12.053 -4.69145 1
      vertex 11.8753 -4.99923 1
      vertex 15 -7.5 1
    endloop
  endfacet
  facet normal 0 0 1
    outer loop
      vertex 9.12467 -4.99923 1
      vertex 8.94697 -4.69145 1
      vertex -3.1 0.5 1
    endloop
  endfacet
  facet normal 0 0 1
    outer loop
      vertex 11.35 -5.47224 1
      vertex 11.0253 -5.6168 1
      vertex 15 -7.5 1
    endloop
  endfacet
  facet normal 0 0 1
    outer loop
      vertex 9.36248 -5.26335 1
      vertex 1.13752 -1.73665 1
      vertex 1.37533 -2.00076 1
    endloop
  endfacet
  facet normal 0 0 1
    outer loop
      vertex 1.66285 -2.64655 1
      vertex 1.7 -3 1
      vertex 15 -7.5 1
    endloop
  endfacet
  facet normal 0 0 1
    outer loop
      vertex 9.65 -5.47224 1
      vertex 1.37533 -2.00076 1
      vertex 1.55303 -2.30855 1
    endloop
  endfacet
  facet normal 0 0 1
    outer loop
      vertex 1.55303 -2.30855 1
      vertex 1.66285 -2.64655 1
      vertex 9.97467 -5.6168 1
    endloop
  endfacet
  facet normal 0 0 1
    outer loop
      vertex 9.36248 -5.26335 1
      vertex 9.12467 -4.99923 1
      vertex 0.525329 -1.3832 1
    endloop
  endfacet
  facet normal 0 0 1
    outer loop
      vertex -3.1 0.5 1
      vertex -5 1 1
      vertex 9.12467 -4.99923 1
    endloop
  endfacet
  facet normal 0 0 1
    outer loop
      vertex 8.8 -4 1
      vertex -3.1 0.5 1
      vertex 8.83715 -4.35345 1
    endloop
  endfacet
  facet normal 0 0 1
    outer loop
      vertex 1.37533 15.0008 1
      vertex 5 19.5 1
      vertex 1.55303 15.3085 1
    endloop
  endfacet
  facet normal 0 0 1
    outer loop
      vertex 1.37533 15.0008 1
      vertex 3.1 12.5 1
      vertex 5 19.5 1
    endloop
  endfacet
  facet normal 0 0 1
    outer loop
      vertex 1.13752 14.7367 1
      vertex 3.1 12.5 1
      vertex 1.37533 15.0008 1
    endloop
  endfacet
  facet normal 0 0 1
    outer loop
      vertex 0.85 14.5278 1
      vertex 3.1 12.5 1
      vertex 1.13752 14.7367 1
    endloop
  endfacet
  facet normal 0 0 1
    outer loop
      vertex -3.1 12.5 1
      vertex 3.1 12.5 1
      vertex 0.85 14.5278 1
    endloop
  endfacet
  facet normal 0 0 1
    outer loop
      vertex 8.8 -4 1
      vertex 8.8 6 1
      vertex 3.1 0.5 1
    endloop
  endfacet
  facet normal 0 0 1
    outer loop
      vertex 12.2 6 1
      vertex 12.2 -4 1
      vertex 15 -7.5 1
    endloop
  endfacet
  facet normal 0 0 1
    outer loop
      vertex 11.8753 -4.99923 1
      vertex 11.6375 -5.26335 1
      vertex 15 -7.5 1
    endloop
  endfacet
  facet normal 0 0 1
    outer loop
      vertex -3.1 0.5 1
      vertex -3.1 12.5 1
      vertex -5 1 1
    endloop
  endfacet
  facet normal 1 -2.22045e-016 0
    outer loop
      vertex 15 -7.5 1
      vertex 15 -7.5 -1
      vertex 15 9.5 -1
    endloop
  endfacet
  facet normal 1 -2.22045e-016 0
    outer loop
      vertex 15 9.5 1
      vertex 15 -7.5 1
      vertex 15 9.5 -1
    endloop
  endfacet
  facet normal 2.22045e-016 1 0
    outer loop
      vertex 5 9.5 -1
      vertex 5 9.5 1
      vertex 15 9.5 -1
    endloop
  endfacet
  facet normal 2.22045e-016 1 0
    outer loop
      vertex 15 9.5 -1
      vertex 5 9.5 1
      vertex 15 9.5 1
    endloop
  endfacet
  facet normal 1 0 0
    outer loop
      vertex 5 9.5 1
      vertex 5 9.5 -1
      vertex 5 19.5 -1
    endloop
  endfacet
  facet normal 1 0 0
    outer loop
      vertex 5 19.5 1
      vertex 5 9.5 1
      vertex 5 19.5 -1
    endloop
  endfacet
  facet normal 0 1 0
    outer loop
      vertex -5 19.5 -1
      vertex -5 19.5 1
      vertex 5 19.5 -1
    endloop
  endfacet
  facet normal 0 1 0
    outer loop
      vertex 5 19.5 -1
      vertex -5 19.5 1
      vertex 5 19.5 1
    endloop
  endfacet
  facet normal -1 0 0
    outer loop
      vertex -5 1 -1
      vertex -5 1 1
      vertex -5 19.5 -1
    endloop
  endfacet
  facet normal -1 0 0
    outer loop
      vertex -5 19.5 -1
      vertex -5 1 1
      vertex -5 19.5 1
    endloop
  endfacet
  facet normal 1 0 0
    outer loop
      vertex -3.1 12.5 -1
      vertex -3.1 12.5 1
      vertex -3.1 0.5 1
    endloop
  endfacet
  facet normal 1 0 0
    outer loop
      vertex -3.1 0.5 -1
      vertex -3.1 12.5 -1
      vertex -3.1 0.5 1
    endloop
  endfacet
  facet normal 0 -1 0
    outer loop
      vertex 3.1 12.5 -1
      vertex 3.1 12.5 1
      vertex -3.1 12.5 1
    endloop
  endfacet
  facet normal 0 -1 0
    outer loop
      vertex -3.1 12.5 -1
      vertex 3.1 12.5 -1
      vertex -3.1 12.5 1
    endloop
  endfacet
  facet normal -1 0 0
    outer loop
      vertex 3.1 12.5 1
      vertex 3.1 12.5 -1
      vertex 3.1 0.5 1
    endloop
  endfacet
  facet normal -1 0 0
    outer loop
      vertex 3.1 0.5 1
      vertex 3.1 12.5 -1
      vertex 3.1 0.5 -1
    endloop
  endfacet
  facet normal 0 1 0
    outer loop
      vertex 3.1 0.5 1
      vertex 3.1 0.5 -1
      vertex -3.1 0.5 1
    endloop
  endfacet
  facet normal 0 1 0
    outer loop
      vertex -3.1 0.5 1
      vertex 3.1 0.5 -1
      vertex -3.1 0.5 -1
    endloop
  endfacet
  facet normal 0.994522 0.104528 0
    outer loop
      vertex -1.7 -3 1
      vertex -1.66285 -3.35345 1
      vertex -1.66285 -3.35345 -1
    endloop
  endfacet
  facet normal 0.994522 0.104528 0
    outer loop
      vertex -1.7 -3 -1
      vertex -1.7 -3 1
      vertex -1.66285 -3.35345 -1
    endloop
  endfacet
  facet normal 0.994522 -0.104528 0
    outer loop
      vertex -1.66285 -2.64655 -1
      vertex -1.66285 -2.64655 1
      vertex -1.7 -3 1
    endloop
  endfacet
  facet normal 0.994522 -0.104528 0
    outer loop
      vertex -1.7 -3 -1
      vertex -1.66285 -2.64655 -1
      vertex -1.7 -3 1
    endloop
  endfacet
  facet normal 0.951056 -0.309018 0
    outer loop
      vertex -1.55303 -2.30855 -1
      vertex -1.55303 -2.30855 1
      vertex -1.66285 -2.64655 1
    endloop
  endfacet
  facet normal 0.951056 -0.309018 0
    outer loop
      vertex -1.66285 -2.64655 -1
      vertex -1.55303 -2.30855 -1
      vertex -1.66285 -2.64655 1
    endloop
  endfacet
  facet normal 0.866026 -0.499999 0
    outer loop
      vertex -1.37533 -2.00076 -1
      vertex -1.37533 -2.00076 1
      vertex -1.55303 -2.30855 1
    endloop
  endfacet
  facet normal 0.866026 -0.499999 0
    outer loop
      vertex -1.55303 -2.30855 -1
      vertex -1.37533 -2.00076 -1
      vertex -1.55303 -2.30855 1
    endloop
  endfacet
  facet normal 0.743144 -0.669131 0
    outer loop
      vertex -1.13752 -1.73665 -1
      vertex -1.13752 -1.73665 1
      vertex -1.37533 -2.00076 1
    endloop
  endfacet
  facet normal 0.743144 -0.669131 0
    outer loop
      vertex -1.37533 -2.00076 -1
      vertex -1.13752 -1.73665 -1
      vertex -1.37533 -2.00076 1
    endloop
  endfacet
  facet normal 0.587785 -0.809017 0
    outer loop
      vertex -0.85 -1.52776 -1
      vertex -0.85 -1.52776 1
      vertex -1.13752 -1.73665 1
    endloop
  endfacet
  facet normal 0.587785 -0.809017 0
    outer loop
      vertex -1.13752 -1.73665 -1
      vertex -0.85 -1.52776 -1
      vertex -1.13752 -1.73665 1
    endloop
  endfacet
  facet normal 0.406737 -0.913545 0
    outer loop
      vertex -0.525329 -1.3832 -1
      vertex -0.525329 -1.3832 1
      vertex -0.85 -1.52776 1
    endloop
  endfacet
  facet normal 0.406737 -0.913545 0
    outer loop
      vertex -0.85 -1.52776 -1
      vertex -0.525329 -1.3832 -1
      vertex -0.85 -1.52776 1
    endloop
  endfacet
  facet normal 0.207911 -0.978148 0
    outer loop
      vertex -0.177698 -1.30931 -1
      vertex -0.177698 -1.30931 1
      vertex -0.525329 -1.3832 1
    endloop
  endfacet
  facet normal 0.207911 -0.978148 0
    outer loop
      vertex -0.525329 -1.3832 -1
      vertex -0.177698 -1.30931 -1
      vertex -0.525329 -1.3832 1
    endloop
  endfacet
  facet normal 0 -1 0
    outer loop
      vertex 0.177698 -1.30931 -1
      vertex 0.177698 -1.30931 1
      vertex -0.177698 -1.30931 1
    endloop
  endfacet
  facet normal 0 -1 0
    outer loop
      vertex -0.177698 -1.30931 -1
      vertex 0.177698 -1.30931 -1
      vertex -0.177698 -1.30931 1
    endloop
  endfacet
  facet normal -0.207911 -0.978148 0
    outer loop
      vertex 0.525329 -1.3832 -1
      vertex 0.525329 -1.3832 1
      vertex 0.177698 -1.30931 1
    endloop
  endfacet
  facet normal -0.207911 -0.978148 0
    outer loop
      vertex 0.177698 -1.30931 -1
      vertex 0.525329 -1.3832 -1
      vertex 0.177698 -1.30931 1
    endloop
  endfacet
  facet normal -0.406737 -0.913545 0
    outer loop
      vertex 0.85 -1.52776 -1
      vertex 0.85 -1.52776 1
      vertex 0.525329 -1.3832 1
    endloop
  endfacet
  facet normal -0.406737 -0.913545 0
    outer loop
      vertex 0.525329 -1.3832 -1
      vertex 0.85 -1.52776 -1
      vertex 0.525329 -1.3832 1
    endloop
  endfacet
  facet normal -0.587785 -0.809017 0
    outer loop
      vertex 1.13752 -1.73665 -1
      vertex 1.13752 -1.73665 1
      vertex 0.85 -1.52776 1
    endloop
  endfacet
  facet normal -0.587785 -0.809017 0
    outer loop
      vertex 0.85 -1.52776 -1
      vertex 1.13752 -1.73665 -1
      vertex 0.85 -1.52776 1
    endloop
  endfacet
  facet normal -0.743144 -0.669131 0
    outer loop
      vertex 1.37533 -2.00076 1
      vertex 1.13752 -1.73665 1
      vertex 1.37533 -2.00076 -1
    endloop
  endfacet
  facet normal -0.743144 -0.669131 0
    outer loop
      vertex 1.37533 -2.00076 -1
      vertex 1.13752 -1.73665 1
      vertex 1.13752 -1.73665 -1
    endloop
  endfacet
  facet normal -0.866026 -0.499999 0
    outer loop
      vertex 1.55303 -2.30855 1
      vertex 1.37533 -2.00076 1
      vertex 1.55303 -2.30855 -1
    endloop
  endfacet
  facet normal -0.866026 -0.499999 0
    outer loop
      vertex 1.55303 -2.30855 -1
      vertex 1.37533 -2.00076 1
      vertex 1.37533 -2.00076 -1
    endloop
  endfacet
  facet normal -0.951056 -0.309018 0
    outer loop
      vertex 1.66285 -2.64655 1
      vertex 1.55303 -2.30855 1
      vertex 1.66285 -2.64655 -1
    endloop
  endfacet
  facet normal -0.951056 -0.309018 0
    outer loop
      vertex 1.66285 -2.64655 -1
      vertex 1.55303 -2.30855 1
      vertex 1.55303 -2.30855 -1
    endloop
  endfacet
  facet normal -0.994522 -0.104528 0
    outer loop
      vertex 1.7 -3 1
      vertex 1.66285 -2.64655 1
      vertex 1.7 -3 -1
    endloop
  endfacet
  facet normal -0.994522 -0.104528 0
    outer loop
      vertex 1.7 -3 -1
      vertex 1.66285 -2.64655 1
      vertex 1.66285 -2.64655 -1
    endloop
  endfacet
  facet normal -0.994522 0.104528 0
    outer loop
      vertex 1.7 -3 1
      vertex 1.7 -3 -1
      vertex 1.66285 -3.35345 1
    endloop
  endfacet
  facet normal -0.994522 0.104528 0
    outer loop
      vertex 1.66285 -3.35345 1
      vertex 1.7 -3 -1
      vertex 1.66285 -3.35345 -1
    endloop
  endfacet
  facet normal -0.951056 0.309018 0
    outer loop
      vertex 1.66285 -3.35345 1
      vertex 1.66285 -3.35345 -1
      vertex 1.55303 -3.69145 1
    endloop
  endfacet
  facet normal -0.951056 0.309018 0
    outer loop
      vertex 1.55303 -3.69145 1
      vertex 1.66285 -3.35345 -1
      vertex 1.55303 -3.69145 -1
    endloop
  endfacet
  facet normal -0.866026 0.499999 0
    outer loop
      vertex 1.55303 -3.69145 1
      vertex 1.55303 -3.69145 -1
      vertex 1.37533 -3.99923 1
    endloop
  endfacet
  facet normal -0.866026 0.499999 0
    outer loop
      vertex 1.37533 -3.99923 1
      vertex 1.55303 -3.69145 -1
      vertex 1.37533 -3.99923 -1
    endloop
  endfacet
  facet normal -0.743144 0.669131 0
    outer loop
      vertex 1.37533 -3.99923 1
      vertex 1.37533 -3.99923 -1
      vertex 1.13752 -4.26335 1
    endloop
  endfacet
  facet normal -0.743144 0.669131 0
    outer loop
      vertex 1.13752 -4.26335 1
      vertex 1.37533 -3.99923 -1
      vertex 1.13752 -4.26335 -1
    endloop
  endfacet
  facet normal -0.587785 0.809017 0
    outer loop
      vertex 1.13752 -4.26335 1
      vertex 1.13752 -4.26335 -1
      vertex 0.85 -4.47224 1
    endloop
  endfacet
  facet normal -0.587785 0.809017 0
    outer loop
      vertex 0.85 -4.47224 1
      vertex 1.13752 -4.26335 -1
      vertex 0.85 -4.47224 -1
    endloop
  endfacet
  facet normal -0.406737 0.913545 0
    outer loop
      vertex 0.85 -4.47224 1
      vertex 0.85 -4.47224 -1
      vertex 0.525329 -4.6168 1
    endloop
  endfacet
  facet normal -0.406737 0.913545 0
    outer loop
      vertex 0.525329 -4.6168 1
      vertex 0.85 -4.47224 -1
      vertex 0.525329 -4.6168 -1
    endloop
  endfacet
  facet normal -0.207911 0.978148 0
    outer loop
      vertex 0.525329 -4.6168 1
      vertex 0.525329 -4.6168 -1
      vertex 0.177698 -4.69069 1
    endloop
  endfacet
  facet normal -0.207911 0.978148 0
    outer loop
      vertex 0.177698 -4.69069 1
      vertex 0.525329 -4.6168 -1
      vertex 0.177698 -4.69069 -1
    endloop
  endfacet
  facet normal 0 1 0
    outer loop
      vertex 0.177698 -4.69069 1
      vertex 0.177698 -4.69069 -1
      vertex -0.177698 -4.69069 1
    endloop
  endfacet
  facet normal 0 1 0
    outer loop
      vertex -0.177698 -4.69069 1
      vertex 0.177698 -4.69069 -1
      vertex -0.177698 -4.69069 -1
    endloop
  endfacet
  facet normal 0.207911 0.978148 0
    outer loop
      vertex -0.177698 -4.69069 1
      vertex -0.177698 -4.69069 -1
      vertex -0.525329 -4.6168 1
    endloop
  endfacet
  facet normal 0.207911 0.978148 0
    outer loop
      vertex -0.525329 -4.6168 1
      vertex -0.177698 -4.69069 -1
      vertex -0.525329 -4.6168 -1
    endloop
  endfacet
  facet normal 0.406737 0.913545 0
    outer loop
      vertex -0.525329 -4.6168 1
      vertex -0.525329 -4.6168 -1
      vertex -0.85 -4.47224 1
    endloop
  endfacet
  facet normal 0.406737 0.913545 0
    outer loop
      vertex -0.85 -4.47224 1
      vertex -0.525329 -4.6168 -1
      vertex -0.85 -4.47224 -1
    endloop
  endfacet
  facet normal 0.587785 0.809017 0
    outer loop
      vertex -0.85 -4.47224 1
      vertex -0.85 -4.47224 -1
      vertex -1.13752 -4.26335 1
    endloop
  endfacet
  facet normal 0.587785 0.809017 0
    outer loop
      vertex -1.13752 -4.26335 1
      vertex -0.85 -4.47224 -1
      vertex -1.13752 -4.26335 -1
    endloop
  endfacet
  facet normal 0.743144 0.669131 0
    outer loop
      vertex -1.37533 -3.99923 1
      vertex -1.13752 -4.26335 1
      vertex -1.13752 -4.26335 -1
    endloop
  endfacet
  facet normal 0.743144 0.669131 0
    outer loop
      vertex -1.37533 -3.99923 -1
      vertex -1.37533 -3.99923 1
      vertex -1.13752 -4.26335 -1
    endloop
  endfacet
  facet normal 0.866026 0.499999 0
    outer loop
      vertex -1.55303 -3.69145 1
      vertex -1.37533 -3.99923 1
      vertex -1.37533 -3.99923 -1
    endloop
  endfacet
  facet normal 0.866026 0.499999 0
    outer loop
      vertex -1.55303 -3.69145 -1
      vertex -1.55303 -3.69145 1
      vertex -1.37533 -3.99923 -1
    endloop
  endfacet
  facet normal 0.951056 0.309018 0
    outer loop
      vertex -1.66285 -3.35345 1
      vertex -1.55303 -3.69145 1
      vertex -1.55303 -3.69145 -1
    endloop
  endfacet
  facet normal 0.951056 0.309018 0
    outer loop
      vertex -1.66285 -3.35345 -1
      vertex -1.66285 -3.35345 1
      vertex -1.55303 -3.69145 -1
    endloop
  endfacet
  facet normal 0.994522 0.104528 0
    outer loop
      vertex -1.7 16 1
      vertex -1.66285 15.6465 1
      vertex -1.66285 15.6465 -1
    endloop
  endfacet
  facet normal 0.994522 0.104528 0
    outer loop
      vertex -1.7 16 -1
      vertex -1.7 16 1
      vertex -1.66285 15.6465 -1
    endloop
  endfacet
  facet normal 0.994522 -0.104528 0
    outer loop
      vertex -1.66285 16.3534 -1
      vertex -1.66285 16.3534 1
      vertex -1.7 16 1
    endloop
  endfacet
  facet normal 0.994522 -0.104528 0
    outer loop
      vertex -1.7 16 -1
      vertex -1.66285 16.3534 -1
      vertex -1.7 16 1
    endloop
  endfacet
  facet normal 0.951056 -0.309018 0
    outer loop
      vertex -1.55303 16.6915 -1
      vertex -1.55303 16.6915 1
      vertex -1.66285 16.3534 1
    endloop
  endfacet
  facet normal 0.951056 -0.309018 0
    outer loop
      vertex -1.66285 16.3534 -1
      vertex -1.55303 16.6915 -1
      vertex -1.66285 16.3534 1
    endloop
  endfacet
  facet normal 0.866026 -0.499999 0
    outer loop
      vertex -1.37533 16.9992 -1
      vertex -1.37533 16.9992 1
      vertex -1.55303 16.6915 1
    endloop
  endfacet
  facet normal 0.866026 -0.499999 0
    outer loop
      vertex -1.55303 16.6915 -1
      vertex -1.37533 16.9992 -1
      vertex -1.55303 16.6915 1
    endloop
  endfacet
  facet normal 0.743144 -0.669131 0
    outer loop
      vertex -1.13752 17.2633 -1
      vertex -1.13752 17.2633 1
      vertex -1.37533 16.9992 1
    endloop
  endfacet
  facet normal 0.743144 -0.669131 0
    outer loop
      vertex -1.37533 16.9992 -1
      vertex -1.13752 17.2633 -1
      vertex -1.37533 16.9992 1
    endloop
  endfacet
  facet normal 0.587785 -0.809017 0
    outer loop
      vertex -0.85 17.4722 -1
      vertex -0.85 17.4722 1
      vertex -1.13752 17.2633 1
    endloop
  endfacet
  facet normal 0.587785 -0.809017 0
    outer loop
      vertex -1.13752 17.2633 -1
      vertex -0.85 17.4722 -1
      vertex -1.13752 17.2633 1
    endloop
  endfacet
  facet normal 0.406737 -0.913545 0
    outer loop
      vertex -0.525329 17.6168 -1
      vertex -0.525329 17.6168 1
      vertex -0.85 17.4722 1
    endloop
  endfacet
  facet normal 0.406737 -0.913545 0
    outer loop
      vertex -0.85 17.4722 -1
      vertex -0.525329 17.6168 -1
      vertex -0.85 17.4722 1
    endloop
  endfacet
  facet normal 0.207911 -0.978148 0
    outer loop
      vertex -0.177698 17.6907 -1
      vertex -0.177698 17.6907 1
      vertex -0.525329 17.6168 1
    endloop
  endfacet
  facet normal 0.207911 -0.978148 0
    outer loop
      vertex -0.525329 17.6168 -1
      vertex -0.177698 17.6907 -1
      vertex -0.525329 17.6168 1
    endloop
  endfacet
  facet normal 0 -1 0
    outer loop
      vertex 0.177698 17.6907 -1
      vertex 0.177698 17.6907 1
      vertex -0.177698 17.6907 1
    endloop
  endfacet
  facet normal 0 -1 0
    outer loop
      vertex -0.177698 17.6907 -1
      vertex 0.177698 17.6907 -1
      vertex -0.177698 17.6907 1
    endloop
  endfacet
  facet normal -0.207911 -0.978148 0
    outer loop
      vertex 0.525329 17.6168 -1
      vertex 0.525329 17.6168 1
      vertex 0.177698 17.6907 1
    endloop
  endfacet
  facet normal -0.207911 -0.978148 0
    outer loop
      vertex 0.177698 17.6907 -1
      vertex 0.525329 17.6168 -1
      vertex 0.177698 17.6907 1
    endloop
  endfacet
  facet normal -0.406737 -0.913545 0
    outer loop
      vertex 0.85 17.4722 -1
      vertex 0.85 17.4722 1
      vertex 0.525329 17.6168 1
    endloop
  endfacet
  facet normal -0.406737 -0.913545 0
    outer loop
      vertex 0.525329 17.6168 -1
      vertex 0.85 17.4722 -1
      vertex 0.525329 17.6168 1
    endloop
  endfacet
  facet normal -0.587785 -0.809017 0
    outer loop
      vertex 1.13752 17.2633 -1
      vertex 1.13752 17.2633 1
      vertex 0.85 17.4722 1
    endloop
  endfacet
  facet normal -0.587785 -0.809017 0
    outer loop
      vertex 0.85 17.4722 -1
      vertex 1.13752 17.2633 -1
      vertex 0.85 17.4722 1
    endloop
  endfacet
  facet normal -0.743144 -0.669131 0
    outer loop
      vertex 1.37533 16.9992 1
      vertex 1.13752 17.2633 1
      vertex 1.37533 16.9992 -1
    endloop
  endfacet
  facet normal -0.743144 -0.669131 0
    outer loop
      vertex 1.37533 16.9992 -1
      vertex 1.13752 17.2633 1
      vertex 1.13752 17.2633 -1
    endloop
  endfacet
  facet normal -0.866026 -0.499999 0
    outer loop
      vertex 1.55303 16.6915 1
      vertex 1.37533 16.9992 1
      vertex 1.55303 16.6915 -1
    endloop
  endfacet
  facet normal -0.866026 -0.499999 0
    outer loop
      vertex 1.55303 16.6915 -1
      vertex 1.37533 16.9992 1
      vertex 1.37533 16.9992 -1
    endloop
  endfacet
  facet normal -0.951056 -0.309018 0
    outer loop
      vertex 1.66285 16.3534 1
      vertex 1.55303 16.6915 1
      vertex 1.66285 16.3534 -1
    endloop
  endfacet
  facet normal -0.951056 -0.309018 0
    outer loop
      vertex 1.66285 16.3534 -1
      vertex 1.55303 16.6915 1
      vertex 1.55303 16.6915 -1
    endloop
  endfacet
  facet normal -0.994522 -0.104528 0
    outer loop
      vertex 1.7 16 1
      vertex 1.66285 16.3534 1
      vertex 1.7 16 -1
    endloop
  endfacet
  facet normal -0.994522 -0.104528 0
    outer loop
      vertex 1.7 16 -1
      vertex 1.66285 16.3534 1
      vertex 1.66285 16.3534 -1
    endloop
  endfacet
  facet normal -0.994522 0.104528 0
    outer loop
      vertex 1.7 16 1
      vertex 1.7 16 -1
      vertex 1.66285 15.6465 1
    endloop
  endfacet
  facet normal -0.994522 0.104528 0
    outer loop
      vertex 1.66285 15.6465 1
      vertex 1.7 16 -1
      vertex 1.66285 15.6465 -1
    endloop
  endfacet
  facet normal -0.951056 0.309018 0
    outer loop
      vertex 1.66285 15.6465 1
      vertex 1.66285 15.6465 -1
      vertex 1.55303 15.3085 1
    endloop
  endfacet
  facet normal -0.951056 0.309018 0
    outer loop
      vertex 1.55303 15.3085 1
      vertex 1.66285 15.6465 -1
      vertex 1.55303 15.3085 -1
    endloop
  endfacet
  facet normal -0.866026 0.499999 0
    outer loop
      vertex 1.55303 15.3085 1
      vertex 1.55303 15.3085 -1
      vertex 1.37533 15.0008 1
    endloop
  endfacet
  facet normal -0.866026 0.499999 0
    outer loop
      vertex 1.37533 15.0008 1
      vertex 1.55303 15.3085 -1
      vertex 1.37533 15.0008 -1
    endloop
  endfacet
  facet normal -0.743144 0.669131 0
    outer loop
      vertex 1.37533 15.0008 1
      vertex 1.37533 15.0008 -1
      vertex 1.13752 14.7367 1
    endloop
  endfacet
  facet normal -0.743144 0.669131 0
    outer loop
      vertex 1.13752 14.7367 1
      vertex 1.37533 15.0008 -1
      vertex 1.13752 14.7367 -1
    endloop
  endfacet
  facet normal -0.587785 0.809017 0
    outer loop
      vertex 1.13752 14.7367 1
      vertex 1.13752 14.7367 -1
      vertex 0.85 14.5278 1
    endloop
  endfacet
  facet normal -0.587785 0.809017 0
    outer loop
      vertex 0.85 14.5278 1
      vertex 1.13752 14.7367 -1
      vertex 0.85 14.5278 -1
    endloop
  endfacet
  facet normal -0.406737 0.913545 0
    outer loop
      vertex 0.85 14.5278 1
      vertex 0.85 14.5278 -1
      vertex 0.525329 14.3832 1
    endloop
  endfacet
  facet normal -0.406737 0.913545 0
    outer loop
      vertex 0.525329 14.3832 1
      vertex 0.85 14.5278 -1
      vertex 0.525329 14.3832 -1
    endloop
  endfacet
  facet normal -0.207911 0.978148 0
    outer loop
      vertex 0.525329 14.3832 1
      vertex 0.525329 14.3832 -1
      vertex 0.177698 14.3093 1
    endloop
  endfacet
  facet normal -0.207911 0.978148 0
    outer loop
      vertex 0.177698 14.3093 1
      vertex 0.525329 14.3832 -1
      vertex 0.177698 14.3093 -1
    endloop
  endfacet
  facet normal 0 1 0
    outer loop
      vertex 0.177698 14.3093 1
      vertex 0.177698 14.3093 -1
      vertex -0.177698 14.3093 1
    endloop
  endfacet
  facet normal 0 1 0
    outer loop
      vertex -0.177698 14.3093 1
      vertex 0.177698 14.3093 -1
      vertex -0.177698 14.3093 -1
    endloop
  endfacet
  facet normal 0.207911 0.978148 0
    outer loop
      vertex -0.177698 14.3093 1
      vertex -0.177698 14.3093 -1
      vertex -0.525329 14.3832 1
    endloop
  endfacet
  facet normal 0.207911 0.978148 0
    outer loop
      vertex -0.525329 14.3832 1
      vertex -0.177698 14.3093 -1
      vertex -0.525329 14.3832 -1
    endloop
  endfacet
  facet normal 0.406737 0.913545 0
    outer loop
      vertex -0.525329 14.3832 1
      vertex -0.525329 14.3832 -1
      vertex -0.85 14.5278 1
    endloop
  endfacet
  facet normal 0.406737 0.913545 0
    outer loop
      vertex -0.85 14.5278 1
      vertex -0.525329 14.3832 -1
      vertex -0.85 14.5278 -1
    endloop
  endfacet
  facet normal 0.587785 0.809017 0
    outer loop
      vertex -0.85 14.5278 1
      vertex -0.85 14.5278 -1
      vertex -1.13752 14.7367 1
    endloop
  endfacet
  facet normal 0.587785 0.809017 0
    outer loop
      vertex -1.13752 14.7367 1
      vertex -0.85 14.5278 -1
      vertex -1.13752 14.7367 -1
    endloop
  endfacet
  facet normal 0.743144 0.669131 0
    outer loop
      vertex -1.37533 15.0008 1
      vertex -1.13752 14.7367 1
      vertex -1.13752 14.7367 -1
    endloop
  endfacet
  facet normal 0.743144 0.669131 0
    outer loop
      vertex -1.37533 15.0008 -1
      vertex -1.37533 15.0008 1
      vertex -1.13752 14.7367 -1
    endloop
  endfacet
  facet normal 0.866026 0.499999 0
    outer loop
      vertex -1.55303 15.3085 1
      vertex -1.37533 15.0008 1
      vertex -1.37533 15.0008 -1
    endloop
  endfacet
  facet normal 0.866026 0.499999 0
    outer loop
      vertex -1.55303 15.3085 -1
      vertex -1.55303 15.3085 1
      vertex -1.37533 15.0008 -1
    endloop
  endfacet
  facet normal 0.951056 0.309018 0
    outer loop
      vertex -1.66285 15.6465 1
      vertex -1.55303 15.3085 1
      vertex -1.55303 15.3085 -1
    endloop
  endfacet
  facet normal 0.951056 0.309018 0
    outer loop
      vertex -1.66285 15.6465 -1
      vertex -1.66285 15.6465 1
      vertex -1.55303 15.3085 -1
    endloop
  endfacet
  facet normal 1 0 0
    outer loop
      vertex 8.8 6 -1
      vertex 8.8 6 1
      vertex 8.8 -4 1
    endloop
  endfacet
  facet normal 1 0 0
    outer loop
      vertex 8.8 -4 -1
      vertex 8.8 6 -1
      vertex 8.8 -4 1
    endloop
  endfacet
  facet normal 0.994522 -0.104528 0
    outer loop
      vertex 8.83715 6.35345 -1
      vertex 8.83715 6.35345 1
      vertex 8.8 6 1
    endloop
  endfacet
  facet normal 0.994522 -0.104528 0
    outer loop
      vertex 8.8 6 -1
      vertex 8.83715 6.35345 -1
      vertex 8.8 6 1
    endloop
  endfacet
  facet normal 0.951056 -0.309018 0
    outer loop
      vertex 8.94697 6.69145 -1
      vertex 8.94697 6.69145 1
      vertex 8.83715 6.35345 1
    endloop
  endfacet
  facet normal 0.951056 -0.309018 0
    outer loop
      vertex 8.83715 6.35345 -1
      vertex 8.94697 6.69145 -1
      vertex 8.83715 6.35345 1
    endloop
  endfacet
  facet normal 0.866026 -0.499999 0
    outer loop
      vertex 9.12467 6.99923 -1
      vertex 9.12467 6.99923 1
      vertex 8.94697 6.69145 1
    endloop
  endfacet
  facet normal 0.866026 -0.499999 0
    outer loop
      vertex 8.94697 6.69145 -1
      vertex 9.12467 6.99923 -1
      vertex 8.94697 6.69145 1
    endloop
  endfacet
  facet normal 0.743144 -0.669131 0
    outer loop
      vertex 9.36248 7.26335 -1
      vertex 9.36248 7.26335 1
      vertex 9.12467 6.99923 1
    endloop
  endfacet
  facet normal 0.743144 -0.669131 0
    outer loop
      vertex 9.12467 6.99923 -1
      vertex 9.36248 7.26335 -1
      vertex 9.12467 6.99923 1
    endloop
  endfacet
  facet normal 0.587785 -0.809017 0
    outer loop
      vertex 9.65 7.47224 -1
      vertex 9.65 7.47224 1
      vertex 9.36248 7.26335 1
    endloop
  endfacet
  facet normal 0.587785 -0.809017 0
    outer loop
      vertex 9.36248 7.26335 -1
      vertex 9.65 7.47224 -1
      vertex 9.36248 7.26335 1
    endloop
  endfacet
  facet normal 0.406737 -0.913545 0
    outer loop
      vertex 9.97467 7.6168 -1
      vertex 9.97467 7.6168 1
      vertex 9.65 7.47224 1
    endloop
  endfacet
  facet normal 0.406737 -0.913545 0
    outer loop
      vertex 9.65 7.47224 -1
      vertex 9.97467 7.6168 -1
      vertex 9.65 7.47224 1
    endloop
  endfacet
  facet normal 0.207911 -0.978148 0
    outer loop
      vertex 10.3223 7.69069 -1
      vertex 10.3223 7.69069 1
      vertex 9.97467 7.6168 1
    endloop
  endfacet
  facet normal 0.207911 -0.978148 0
    outer loop
      vertex 9.97467 7.6168 -1
      vertex 10.3223 7.69069 -1
      vertex 9.97467 7.6168 1
    endloop
  endfacet
  facet normal 0 -1 0
    outer loop
      vertex 10.6777 7.69069 -1
      vertex 10.6777 7.69069 1
      vertex 10.3223 7.69069 1
    endloop
  endfacet
  facet normal 0 -1 0
    outer loop
      vertex 10.3223 7.69069 -1
      vertex 10.6777 7.69069 -1
      vertex 10.3223 7.69069 1
    endloop
  endfacet
  facet normal -0.207911 -0.978148 0
    outer loop
      vertex 11.0253 7.6168 -1
      vertex 11.0253 7.6168 1
      vertex 10.6777 7.69069 1
    endloop
  endfacet
  facet normal -0.207911 -0.978148 0
    outer loop
      vertex 10.6777 7.69069 -1
      vertex 11.0253 7.6168 -1
      vertex 10.6777 7.69069 1
    endloop
  endfacet
  facet normal -0.406737 -0.913545 0
    outer loop
      vertex 11.35 7.47224 -1
      vertex 11.35 7.47224 1
      vertex 11.0253 7.6168 1
    endloop
  endfacet
  facet normal -0.406737 -0.913545 0
    outer loop
      vertex 11.0253 7.6168 -1
      vertex 11.35 7.47224 -1
      vertex 11.0253 7.6168 1
    endloop
  endfacet
  facet normal -0.587785 -0.809017 0
    outer loop
      vertex 11.6375 7.26335 -1
      vertex 11.6375 7.26335 1
      vertex 11.35 7.47224 1
    endloop
  endfacet
  facet normal -0.587785 -0.809017 0
    outer loop
      vertex 11.35 7.47224 -1
      vertex 11.6375 7.26335 -1
      vertex 11.35 7.47224 1
    endloop
  endfacet
  facet normal -0.743144 -0.669131 0
    outer loop
      vertex 11.8753 6.99923 1
      vertex 11.6375 7.26335 1
      vertex 11.8753 6.99923 -1
    endloop
  endfacet
  facet normal -0.743144 -0.669131 0
    outer loop
      vertex 11.8753 6.99923 -1
      vertex 11.6375 7.26335 1
      vertex 11.6375 7.26335 -1
    endloop
  endfacet
  facet normal -0.866026 -0.499999 0
    outer loop
      vertex 12.053 6.69145 1
      vertex 11.8753 6.99923 1
      vertex 12.053 6.69145 -1
    endloop
  endfacet
  facet normal -0.866026 -0.499999 0
    outer loop
      vertex 12.053 6.69145 -1
      vertex 11.8753 6.99923 1
      vertex 11.8753 6.99923 -1
    endloop
  endfacet
  facet normal -0.951056 -0.309018 0
    outer loop
      vertex 12.1629 6.35345 1
      vertex 12.053 6.69145 1
      vertex 12.1629 6.35345 -1
    endloop
  endfacet
  facet normal -0.951056 -0.309018 0
    outer loop
      vertex 12.1629 6.35345 -1
      vertex 12.053 6.69145 1
      vertex 12.053 6.69145 -1
    endloop
  endfacet
  facet normal -0.994522 -0.104528 0
    outer loop
      vertex 12.2 6 1
      vertex 12.1629 6.35345 1
      vertex 12.2 6 -1
    endloop
  endfacet
  facet normal -0.994522 -0.104528 0
    outer loop
      vertex 12.2 6 -1
      vertex 12.1629 6.35345 1
      vertex 12.1629 6.35345 -1
    endloop
  endfacet
  facet normal -1 0 0
    outer loop
      vertex 12.2 6 1
      vertex 12.2 6 -1
      vertex 12.2 -4 1
    endloop
  endfacet
  facet normal -1 0 0
    outer loop
      vertex 12.2 -4 1
      vertex 12.2 6 -1
      vertex 12.2 -4 -1
    endloop
  endfacet
  facet normal -0.994522 0.104528 0
    outer loop
      vertex 12.2 -4 1
      vertex 12.2 -4 -1
      vertex 12.1629 -4.35345 1
    endloop
  endfacet
  facet normal -0.994522 0.104528 0
    outer loop
      vertex 12.1629 -4.35345 1
      vertex 12.2 -4 -1
      vertex 12.1629 -4.35345 -1
    endloop
  endfacet
  facet normal -0.951056 0.309018 0
    outer loop
      vertex 12.1629 -4.35345 1
      vertex 12.1629 -4.35345 -1
      vertex 12.053 -4.69145 1
    endloop
  endfacet
  facet normal -0.951056 0.309018 0
    outer loop
      vertex 12.053 -4.69145 1
      vertex 12.1629 -4.35345 -1
      vertex 12.053 -4.69145 -1
    endloop
  endfacet
  facet normal -0.866026 0.499999 0
    outer loop
      vertex 12.053 -4.69145 1
      vertex 12.053 -4.69145 -1
      vertex 11.8753 -4.99923 1
    endloop
  endfacet
  facet normal -0.866026 0.499999 0
    outer loop
      vertex 11.8753 -4.99923 1
      vertex 12.053 -4.69145 -1
      vertex 11.8753 -4.99923 -1
    endloop
  endfacet
  facet normal -0.743144 0.669131 0
    outer loop
      vertex 11.8753 -4.99923 1
      vertex 11.8753 -4.99923 -1
      vertex 11.6375 -5.26335 1
    endloop
  endfacet
  facet normal -0.743144 0.669131 0
    outer loop
      vertex 11.6375 -5.26335 1
      vertex 11.8753 -4.99923 -1
      vertex 11.6375 -5.26335 -1
    endloop
  endfacet
  facet normal -0.587785 0.809017 0
    outer loop
      vertex 11.6375 -5.26335 1
      vertex 11.6375 -5.26335 -1
      vertex 11.35 -5.47224 1
    endloop
  endfacet
  facet normal -0.587785 0.809017 0
    outer loop
      vertex 11.35 -5.47224 1
      vertex 11.6375 -5.26335 -1
      vertex 11.35 -5.47224 -1
    endloop
  endfacet
  facet normal -0.406737 0.913545 0
    outer loop
      vertex 11.35 -5.47224 1
      vertex 11.35 -5.47224 -1
      vertex 11.0253 -5.6168 1
    endloop
  endfacet
  facet normal -0.406737 0.913545 0
    outer loop
      vertex 11.0253 -5.6168 1
      vertex 11.35 -5.47224 -1
      vertex 11.0253 -5.6168 -1
    endloop
  endfacet
  facet normal -0.207911 0.978148 0
    outer loop
      vertex 11.0253 -5.6168 1
      vertex 11.0253 -5.6168 -1
      vertex 10.6777 -5.69069 1
    endloop
  endfacet
  facet normal -0.207911 0.978148 0
    outer loop
      vertex 10.6777 -5.69069 1
      vertex 11.0253 -5.6168 -1
      vertex 10.6777 -5.69069 -1
    endloop
  endfacet
  facet normal 0 1 0
    outer loop
      vertex 10.6777 -5.69069 1
      vertex 10.6777 -5.69069 -1
      vertex 10.3223 -5.69069 1
    endloop
  endfacet
  facet normal 0 1 0
    outer loop
      vertex 10.3223 -5.69069 1
      vertex 10.6777 -5.69069 -1
      vertex 10.3223 -5.69069 -1
    endloop
  endfacet
  facet normal 0.207911 0.978148 0
    outer loop
      vertex 10.3223 -5.69069 1
      vertex 10.3223 -5.69069 -1
      vertex 9.97467 -5.6168 1
    endloop
  endfacet
  facet normal 0.207911 0.978148 0
    outer loop
      vertex 9.97467 -5.6168 1
      vertex 10.3223 -5.69069 -1
      vertex 9.97467 -5.6168 -1
    endloop
  endfacet
  facet normal 0.406737 0.913545 0
    outer loop
      vertex 9.97467 -5.6168 1
      vertex 9.97467 -5.6168 -1
      vertex 9.65 -5.47224 1
    endloop
  endfacet
  facet normal 0.406737 0.913545 0
    outer loop
      vertex 9.65 -5.47224 1
      vertex 9.97467 -5.6168 -1
      vertex 9.65 -5.47224 -1
    endloop
  endfacet
  facet normal 0.587785 0.809017 0
    outer loop
      vertex 9.65 -5.47224 1
      vertex 9.65 -5.47224 -1
      vertex 9.36248 -5.26335 1
    endloop
  endfacet
  facet normal 0.587785 0.809017 0
    outer loop
      vertex 9.36248 -5.26335 1
      vertex 9.65 -5.47224 -1
      vertex 9.36248 -5.26335 -1
    endloop
  endfacet
  facet normal 0.743144 0.669131 0
    outer loop
      vertex 9.12467 -4.99923 1
      vertex 9.36248 -5.26335 1
      vertex 9.36248 -5.26335 -1
    endloop
  endfacet
  facet normal 0.743144 0.669131 0
    outer loop
      vertex 9.12467 -4.99923 -1
      vertex 9.12467 -4.99923 1
      vertex 9.36248 -5.26335 -1
    endloop
  endfacet
  facet normal 0.866026 0.499999 0
    outer loop
      vertex 8.94697 -4.69145 1
      vertex 9.12467 -4.99923 1
      vertex 9.12467 -4.99923 -1
    endloop
  endfacet
  facet normal 0.866026 0.499999 0
    outer loop
      vertex 8.94697 -4.69145 -1
      vertex 8.94697 -4.69145 1
      vertex 9.12467 -4.99923 -1
    endloop
  endfacet
  facet normal 0.951056 0.309018 0
    outer loop
      vertex 8.83715 -4.35345 1
      vertex 8.94697 -4.69145 1
      vertex 8.94697 -4.69145 -1
    endloop
  endfacet
  facet normal 0.951056 0.309018 0
    outer loop
      vertex 8.83715 -4.35345 -1
      vertex 8.83715 -4.35345 1
      vertex 8.94697 -4.69145 -1
    endloop
  endfacet
  facet normal 0.994522 0.104528 0
    outer loop
      vertex 8.8 -4 1
      vertex 8.83715 -4.35345 1
      vertex 8.83715 -4.35345 -1
    endloop
  endfacet
  facet normal 0.994522 0.104528 0
    outer loop
      vertex 8.8 -4 -1
      vertex 8.8 -4 1
      vertex 8.83715 -4.35345 -1
    endloop
  endfacet
endsolid OpenSCAD_Model
