solid OpenSCAD_Model
  facet normal -1 0 0
    outer loop
      vertex -5 -35 -0.5
      vertex -5 -35 1.5
      vertex -5 35 -0.5
    endloop
  endfacet
  facet normal -1 0 0
    outer loop
      vertex -5 25 0.5
      vertex -5 -35 1.5
      vertex -5 25 1.5
    endloop
  endfacet
  facet normal -1 0 0
    outer loop
      vertex -5 35 -0.5
      vertex -5 -35 1.5
      vertex -5 25 0.5
    endloop
  endfacet
  facet normal -1 0 0
    outer loop
      vertex -5 35 0.5
      vertex -5 35 -0.5
      vertex -5 25 0.5
    endloop
  endfacet
  facet normal 0 -1 0
    outer loop
      vertex -5 -35 1.5
      vertex -5 -35 -0.5
      vertex 5 -35 -0.5
    endloop
  endfacet
  facet normal 0 -1 0
    outer loop
      vertex 5 -35 1.5
      vertex -5 -35 1.5
      vertex 5 -35 -0.5
    endloop
  endfacet
  facet normal 0 0 -1
    outer loop
      vertex 2.15192 10.4574 -0.5
      vertex -5 35 -0.5
      vertex 5 35 -0.5
    endloop
  endfacet
  facet normal 0 0 -1
    outer loop
      vertex -5 -35 -0.5
      vertex -5 35 -0.5
      vertex -2.2 10 -0.5
    endloop
  endfacet
  facet normal 0 0 -1
    outer loop
      vertex -5 -35 -0.5
      vertex -2.2 10 -0.5
      vertex -2.2 -25 -0.5
    endloop
  endfacet
  facet normal 0 0 -1
    outer loop
      vertex -5 -35 -0.5
      vertex -2.2 -25 -0.5
      vertex -2.15192 -25.4574 -0.5
    endloop
  endfacet
  facet normal 0 0 -1
    outer loop
      vertex -1.77984 11.2931 -0.5
      vertex -5 35 -0.5
      vertex -1.47209 11.6349 -0.5
    endloop
  endfacet
  facet normal 0 0 -1
    outer loop
      vertex -5 -35 -0.5
      vertex -2.15192 -25.4574 -0.5
      vertex -2.0098 -25.8948 -0.5
    endloop
  endfacet
  facet normal 0 0 -1
    outer loop
      vertex -5 -35 -0.5
      vertex -2.0098 -25.8948 -0.5
      vertex -1.77984 -26.2931 -0.5
    endloop
  endfacet
  facet normal 0 0 -1
    outer loop
      vertex -5 -35 -0.5
      vertex -1.77984 -26.2931 -0.5
      vertex 5 -35 -0.5
    endloop
  endfacet
  facet normal 0 0 -1
    outer loop
      vertex -1.77984 -26.2931 -0.5
      vertex -1.47209 -26.6349 -0.5
      vertex 5 -35 -0.5
    endloop
  endfacet
  facet normal 0 0 -1
    outer loop
      vertex -0.679837 -27.0923 -0.5
      vertex 5 -35 -0.5
      vertex -1.1 -26.9053 -0.5
    endloop
  endfacet
  facet normal 0 0 -1
    outer loop
      vertex 2.2 10 -0.5
      vertex 5 -35 -0.5
      vertex 2.2 -25 -0.5
    endloop
  endfacet
  facet normal 0 0 -1
    outer loop
      vertex -0.679837 -27.0923 -0.5
      vertex -0.229963 -27.1879 -0.5
      vertex 5 -35 -0.5
    endloop
  endfacet
  facet normal 0 0 -1
    outer loop
      vertex -0.229963 -27.1879 -0.5
      vertex 0.229963 -27.1879 -0.5
      vertex 5 -35 -0.5
    endloop
  endfacet
  facet normal 0 0 -1
    outer loop
      vertex 0.229963 -27.1879 -0.5
      vertex 0.679837 -27.0923 -0.5
      vertex 5 -35 -0.5
    endloop
  endfacet
  facet normal 0 0 -1
    outer loop
      vertex 0.679837 -27.0923 -0.5
      vertex 1.1 -26.9053 -0.5
      vertex 5 -35 -0.5
    endloop
  endfacet
  facet normal 0 0 -1
    outer loop
      vertex 1.1 -26.9053 -0.5
      vertex 1.47209 -26.6349 -0.5
      vertex 5 -35 -0.5
    endloop
  endfacet
  facet normal 0 0 -1
    outer loop
      vertex 1.47209 -26.6349 -0.5
      vertex 1.77984 -26.2931 -0.5
      vertex 5 -35 -0.5
    endloop
  endfacet
  facet normal 0 0 -1
    outer loop
      vertex 1.77984 -26.2931 -0.5
      vertex 2.0098 -25.8948 -0.5
      vertex 5 -35 -0.5
    endloop
  endfacet
  facet normal 0 0 -1
    outer loop
      vertex 2.0098 -25.8948 -0.5
      vertex 2.15192 -25.4574 -0.5
      vertex 5 -35 -0.5
    endloop
  endfacet
  facet normal 0 0 -1
    outer loop
      vertex 2.15192 -25.4574 -0.5
      vertex 2.2 -25 -0.5
      vertex 5 -35 -0.5
    endloop
  endfacet
  facet normal 0 0 -1
    outer loop
      vertex 5 -35 -0.5
      vertex 2.2 10 -0.5
      vertex 5 35 -0.5
    endloop
  endfacet
  facet normal 0 0 -1
    outer loop
      vertex 2.0098 10.8948 -0.5
      vertex -5 35 -0.5
      vertex 2.15192 10.4574 -0.5
    endloop
  endfacet
  facet normal 0 0 -1
    outer loop
      vertex 2.2 10 -0.5
      vertex 2.15192 10.4574 -0.5
      vertex 5 35 -0.5
    endloop
  endfacet
  facet normal 0 0 -1
    outer loop
      vertex 1.47209 11.6349 -0.5
      vertex -5 35 -0.5
      vertex 1.77984 11.2931 -0.5
    endloop
  endfacet
  facet normal 0 0 -1
    outer loop
      vertex 1.77984 11.2931 -0.5
      vertex -5 35 -0.5
      vertex 2.0098 10.8948 -0.5
    endloop
  endfacet
  facet normal 0 0 -1
    outer loop
      vertex 1.1 11.9053 -0.5
      vertex -5 35 -0.5
      vertex 1.47209 11.6349 -0.5
    endloop
  endfacet
  facet normal 0 0 -1
    outer loop
      vertex 0.679837 12.0923 -0.5
      vertex -5 35 -0.5
      vertex 1.1 11.9053 -0.5
    endloop
  endfacet
  facet normal 0 0 -1
    outer loop
      vertex 0.229963 12.1879 -0.5
      vertex -5 35 -0.5
      vertex 0.679837 12.0923 -0.5
    endloop
  endfacet
  facet normal 0 0 -1
    outer loop
      vertex -0.229963 12.1879 -0.5
      vertex -5 35 -0.5
      vertex 0.229963 12.1879 -0.5
    endloop
  endfacet
  facet normal 0 0 -1
    outer loop
      vertex -0.679837 12.0923 -0.5
      vertex -5 35 -0.5
      vertex -0.229963 12.1879 -0.5
    endloop
  endfacet
  facet normal 0 0 -1
    outer loop
      vertex -1.1 11.9053 -0.5
      vertex -5 35 -0.5
      vertex -0.679837 12.0923 -0.5
    endloop
  endfacet
  facet normal 0 0 -1
    outer loop
      vertex -1.47209 11.6349 -0.5
      vertex -5 35 -0.5
      vertex -1.1 11.9053 -0.5
    endloop
  endfacet
  facet normal 0 0 -1
    outer loop
      vertex -2.0098 10.8948 -0.5
      vertex -5 35 -0.5
      vertex -1.77984 11.2931 -0.5
    endloop
  endfacet
  facet normal 0 0 -1
    outer loop
      vertex -2.15192 10.4574 -0.5
      vertex -5 35 -0.5
      vertex -2.0098 10.8948 -0.5
    endloop
  endfacet
  facet normal 0 0 -1
    outer loop
      vertex -2.2 10 -0.5
      vertex -5 35 -0.5
      vertex -2.15192 10.4574 -0.5
    endloop
  endfacet
  facet normal 0 0 -1
    outer loop
      vertex -1.1 -26.9053 -0.5
      vertex 5 -35 -0.5
      vertex -1.47209 -26.6349 -0.5
    endloop
  endfacet
  facet normal 0 1 0
    outer loop
      vertex -5 35 -0.5
      vertex -5 35 0.5
      vertex 5 35 -0.5
    endloop
  endfacet
  facet normal 0 1 0
    outer loop
      vertex 5 35 -0.5
      vertex -5 35 0.5
      vertex 5 35 0.5
    endloop
  endfacet
  facet normal 0 0 1
    outer loop
      vertex -5 35 0.5
      vertex -5 25 0.5
      vertex 5 25 0.5
    endloop
  endfacet
  facet normal 0 0 1
    outer loop
      vertex 5 35 0.5
      vertex -5 35 0.5
      vertex 5 25 0.5
    endloop
  endfacet
  facet normal 0 1 0
    outer loop
      vertex -5 25 0.5
      vertex -5 25 1.5
      vertex 5 25 0.5
    endloop
  endfacet
  facet normal 0 1 0
    outer loop
      vertex 5 25 0.5
      vertex -5 25 1.5
      vertex 5 25 1.5
    endloop
  endfacet
  facet normal 0 0 1
    outer loop
      vertex -1.1 -26.9053 1.5
      vertex -5 -35 1.5
      vertex 5 -35 1.5
    endloop
  endfacet
  facet normal 0 0 1
    outer loop
      vertex -5 25 1.5
      vertex -5 -35 1.5
      vertex -2.2 -25 1.5
    endloop
  endfacet
  facet normal 0 0 1
    outer loop
      vertex -0.679837 -27.0923 1.5
      vertex -1.1 -26.9053 1.5
      vertex 5 -35 1.5
    endloop
  endfacet
  facet normal 0 0 1
    outer loop
      vertex -2.15192 10.4574 1.5
      vertex -5 25 1.5
      vertex -2.2 10 1.5
    endloop
  endfacet
  facet normal 0 0 1
    outer loop
      vertex -2.0098 10.8948 1.5
      vertex -5 25 1.5
      vertex -2.15192 10.4574 1.5
    endloop
  endfacet
  facet normal 0 0 1
    outer loop
      vertex 5 25 1.5
      vertex -5 25 1.5
      vertex -2.0098 10.8948 1.5
    endloop
  endfacet
  facet normal 0 0 1
    outer loop
      vertex -1.47209 11.6349 1.5
      vertex -1.1 11.9053 1.5
      vertex 5 25 1.5
    endloop
  endfacet
  facet normal 0 0 1
    outer loop
      vertex 5 25 1.5
      vertex -2.0098 10.8948 1.5
      vertex -1.77984 11.2931 1.5
    endloop
  endfacet
  facet normal 0 0 1
    outer loop
      vertex 5 25 1.5
      vertex -1.1 11.9053 1.5
      vertex -0.679837 12.0923 1.5
    endloop
  endfacet
  facet normal 0 0 1
    outer loop
      vertex 5 25 1.5
      vertex -0.679837 12.0923 1.5
      vertex -0.229963 12.1879 1.5
    endloop
  endfacet
  facet normal 0 0 1
    outer loop
      vertex 5 25 1.5
      vertex -0.229963 12.1879 1.5
      vertex 0.229963 12.1879 1.5
    endloop
  endfacet
  facet normal 0 0 1
    outer loop
      vertex 5 25 1.5
      vertex 0.229963 12.1879 1.5
      vertex 0.679837 12.0923 1.5
    endloop
  endfacet
  facet normal 0 0 1
    outer loop
      vertex 5 25 1.5
      vertex 0.679837 12.0923 1.5
      vertex 1.1 11.9053 1.5
    endloop
  endfacet
  facet normal 0 0 1
    outer loop
      vertex 5 25 1.5
      vertex 1.1 11.9053 1.5
      vertex 1.47209 11.6349 1.5
    endloop
  endfacet
  facet normal 0 0 1
    outer loop
      vertex 5 25 1.5
      vertex 1.47209 11.6349 1.5
      vertex 1.77984 11.2931 1.5
    endloop
  endfacet
  facet normal 0 0 1
    outer loop
      vertex 5 25 1.5
      vertex 1.77984 11.2931 1.5
      vertex 2.0098 10.8948 1.5
    endloop
  endfacet
  facet normal 0 0 1
    outer loop
      vertex 5 25 1.5
      vertex 2.0098 10.8948 1.5
      vertex 2.15192 10.4574 1.5
    endloop
  endfacet
  facet normal 0 0 1
    outer loop
      vertex 5 25 1.5
      vertex 2.2 10 1.5
      vertex 5 -35 1.5
    endloop
  endfacet
  facet normal 0 0 1
    outer loop
      vertex 5 25 1.5
      vertex 2.15192 10.4574 1.5
      vertex 2.2 10 1.5
    endloop
  endfacet
  facet normal 0 0 1
    outer loop
      vertex -1.77984 11.2931 1.5
      vertex -1.47209 11.6349 1.5
      vertex 5 25 1.5
    endloop
  endfacet
  facet normal 0 0 1
    outer loop
      vertex 2.2 -25 1.5
      vertex 2.15192 -25.4574 1.5
      vertex 5 -35 1.5
    endloop
  endfacet
  facet normal 0 0 1
    outer loop
      vertex 2.15192 -25.4574 1.5
      vertex 2.0098 -25.8948 1.5
      vertex 5 -35 1.5
    endloop
  endfacet
  facet normal 0 0 1
    outer loop
      vertex 2.0098 -25.8948 1.5
      vertex 1.77984 -26.2931 1.5
      vertex 5 -35 1.5
    endloop
  endfacet
  facet normal 0 0 1
    outer loop
      vertex 1.77984 -26.2931 1.5
      vertex 1.47209 -26.6349 1.5
      vertex 5 -35 1.5
    endloop
  endfacet
  facet normal 0 0 1
    outer loop
      vertex 1.47209 -26.6349 1.5
      vertex 1.1 -26.9053 1.5
      vertex 5 -35 1.5
    endloop
  endfacet
  facet normal 0 0 1
    outer loop
      vertex 1.1 -26.9053 1.5
      vertex 0.679837 -27.0923 1.5
      vertex 5 -35 1.5
    endloop
  endfacet
  facet normal 0 0 1
    outer loop
      vertex 0.679837 -27.0923 1.5
      vertex 0.229963 -27.1879 1.5
      vertex 5 -35 1.5
    endloop
  endfacet
  facet normal 0 0 1
    outer loop
      vertex 0.229963 -27.1879 1.5
      vertex -0.229963 -27.1879 1.5
      vertex 5 -35 1.5
    endloop
  endfacet
  facet normal 0 0 1
    outer loop
      vertex -0.229963 -27.1879 1.5
      vertex -0.679837 -27.0923 1.5
      vertex 5 -35 1.5
    endloop
  endfacet
  facet normal 0 0 1
    outer loop
      vertex -1.47209 -26.6349 1.5
      vertex -5 -35 1.5
      vertex -1.1 -26.9053 1.5
    endloop
  endfacet
  facet normal 0 0 1
    outer loop
      vertex -1.77984 -26.2931 1.5
      vertex -5 -35 1.5
      vertex -1.47209 -26.6349 1.5
    endloop
  endfacet
  facet normal 0 0 1
    outer loop
      vertex -2.0098 -25.8948 1.5
      vertex -5 -35 1.5
      vertex -1.77984 -26.2931 1.5
    endloop
  endfacet
  facet normal 0 0 1
    outer loop
      vertex -2.15192 -25.4574 1.5
      vertex -5 -35 1.5
      vertex -2.0098 -25.8948 1.5
    endloop
  endfacet
  facet normal 0 0 1
    outer loop
      vertex -2.2 -25 1.5
      vertex -5 -35 1.5
      vertex -2.15192 -25.4574 1.5
    endloop
  endfacet
  facet normal 0 0 1
    outer loop
      vertex -2.2 -25 1.5
      vertex -2.2 10 1.5
      vertex -5 25 1.5
    endloop
  endfacet
  facet normal 0 0 1
    outer loop
      vertex 2.2 10 1.5
      vertex 2.2 -25 1.5
      vertex 5 -35 1.5
    endloop
  endfacet
  facet normal 1 0 0
    outer loop
      vertex 5 -35 1.5
      vertex 5 -35 -0.5
      vertex 5 35 -0.5
    endloop
  endfacet
  facet normal 1 0 0
    outer loop
      vertex 5 25 0.5
      vertex 5 -35 1.5
      vertex 5 35 -0.5
    endloop
  endfacet
  facet normal 1 0 0
    outer loop
      vertex 5 35 0.5
      vertex 5 25 0.5
      vertex 5 35 -0.5
    endloop
  endfacet
  facet normal 1 0 0
    outer loop
      vertex 5 25 0.5
      vertex 5 25 1.5
      vertex 5 -35 1.5
    endloop
  endfacet
  facet normal 1 0 0
    outer loop
      vertex -2.2 10 -0.5
      vertex -2.2 10 1.5
      vertex -2.2 -25 1.5
    endloop
  endfacet
  facet normal 1 0 0
    outer loop
      vertex -2.2 -25 -0.5
      vertex -2.2 10 -0.5
      vertex -2.2 -25 1.5
    endloop
  endfacet
  facet normal 0.994522 -0.104528 0
    outer loop
      vertex -2.15192 10.4574 -0.5
      vertex -2.15192 10.4574 1.5
      vertex -2.2 10 1.5
    endloop
  endfacet
  facet normal 0.994522 -0.104528 0
    outer loop
      vertex -2.2 10 -0.5
      vertex -2.15192 10.4574 -0.5
      vertex -2.2 10 1.5
    endloop
  endfacet
  facet normal 0.951056 -0.309017 0
    outer loop
      vertex -2.0098 10.8948 -0.5
      vertex -2.0098 10.8948 1.5
      vertex -2.15192 10.4574 1.5
    endloop
  endfacet
  facet normal 0.951056 -0.309017 0
    outer loop
      vertex -2.15192 10.4574 -0.5
      vertex -2.0098 10.8948 -0.5
      vertex -2.15192 10.4574 1.5
    endloop
  endfacet
  facet normal 0.866025 -0.500001 0
    outer loop
      vertex -1.77984 11.2931 -0.5
      vertex -1.77984 11.2931 1.5
      vertex -2.0098 10.8948 1.5
    endloop
  endfacet
  facet normal 0.866025 -0.500001 0
    outer loop
      vertex -2.0098 10.8948 -0.5
      vertex -1.77984 11.2931 -0.5
      vertex -2.0098 10.8948 1.5
    endloop
  endfacet
  facet normal 0.743145 -0.669131 0
    outer loop
      vertex -1.47209 11.6349 -0.5
      vertex -1.47209 11.6349 1.5
      vertex -1.77984 11.2931 1.5
    endloop
  endfacet
  facet normal 0.743145 -0.669131 0
    outer loop
      vertex -1.77984 11.2931 -0.5
      vertex -1.47209 11.6349 -0.5
      vertex -1.77984 11.2931 1.5
    endloop
  endfacet
  facet normal 0.587785 -0.809017 0
    outer loop
      vertex -1.1 11.9053 -0.5
      vertex -1.1 11.9053 1.5
      vertex -1.47209 11.6349 1.5
    endloop
  endfacet
  facet normal 0.587785 -0.809017 0
    outer loop
      vertex -1.47209 11.6349 -0.5
      vertex -1.1 11.9053 -0.5
      vertex -1.47209 11.6349 1.5
    endloop
  endfacet
  facet normal 0.406736 -0.913546 0
    outer loop
      vertex -0.679837 12.0923 -0.5
      vertex -0.679837 12.0923 1.5
      vertex -1.1 11.9053 1.5
    endloop
  endfacet
  facet normal 0.406736 -0.913546 0
    outer loop
      vertex -1.1 11.9053 -0.5
      vertex -0.679837 12.0923 -0.5
      vertex -1.1 11.9053 1.5
    endloop
  endfacet
  facet normal 0.207912 -0.978147 0
    outer loop
      vertex -0.229963 12.1879 -0.5
      vertex -0.229963 12.1879 1.5
      vertex -0.679837 12.0923 1.5
    endloop
  endfacet
  facet normal 0.207912 -0.978147 0
    outer loop
      vertex -0.679837 12.0923 -0.5
      vertex -0.229963 12.1879 -0.5
      vertex -0.679837 12.0923 1.5
    endloop
  endfacet
  facet normal 0 -1 0
    outer loop
      vertex 0.229963 12.1879 -0.5
      vertex 0.229963 12.1879 1.5
      vertex -0.229963 12.1879 1.5
    endloop
  endfacet
  facet normal 0 -1 0
    outer loop
      vertex -0.229963 12.1879 -0.5
      vertex 0.229963 12.1879 -0.5
      vertex -0.229963 12.1879 1.5
    endloop
  endfacet
  facet normal -0.207912 -0.978147 0
    outer loop
      vertex 0.679837 12.0923 -0.5
      vertex 0.679837 12.0923 1.5
      vertex 0.229963 12.1879 1.5
    endloop
  endfacet
  facet normal -0.207912 -0.978147 0
    outer loop
      vertex 0.229963 12.1879 -0.5
      vertex 0.679837 12.0923 -0.5
      vertex 0.229963 12.1879 1.5
    endloop
  endfacet
  facet normal -0.406736 -0.913546 0
    outer loop
      vertex 1.1 11.9053 -0.5
      vertex 1.1 11.9053 1.5
      vertex 0.679837 12.0923 1.5
    endloop
  endfacet
  facet normal -0.406736 -0.913546 0
    outer loop
      vertex 0.679837 12.0923 -0.5
      vertex 1.1 11.9053 -0.5
      vertex 0.679837 12.0923 1.5
    endloop
  endfacet
  facet normal -0.587785 -0.809017 0
    outer loop
      vertex 1.47209 11.6349 -0.5
      vertex 1.47209 11.6349 1.5
      vertex 1.1 11.9053 1.5
    endloop
  endfacet
  facet normal -0.587785 -0.809017 0
    outer loop
      vertex 1.1 11.9053 -0.5
      vertex 1.47209 11.6349 -0.5
      vertex 1.1 11.9053 1.5
    endloop
  endfacet
  facet normal -0.743145 -0.669131 0
    outer loop
      vertex 1.77984 11.2931 1.5
      vertex 1.47209 11.6349 1.5
      vertex 1.77984 11.2931 -0.5
    endloop
  endfacet
  facet normal -0.743145 -0.669131 0
    outer loop
      vertex 1.77984 11.2931 -0.5
      vertex 1.47209 11.6349 1.5
      vertex 1.47209 11.6349 -0.5
    endloop
  endfacet
  facet normal -0.866025 -0.500001 0
    outer loop
      vertex 2.0098 10.8948 1.5
      vertex 1.77984 11.2931 1.5
      vertex 2.0098 10.8948 -0.5
    endloop
  endfacet
  facet normal -0.866025 -0.500001 0
    outer loop
      vertex 2.0098 10.8948 -0.5
      vertex 1.77984 11.2931 1.5
      vertex 1.77984 11.2931 -0.5
    endloop
  endfacet
  facet normal -0.951056 -0.309017 0
    outer loop
      vertex 2.15192 10.4574 1.5
      vertex 2.0098 10.8948 1.5
      vertex 2.15192 10.4574 -0.5
    endloop
  endfacet
  facet normal -0.951056 -0.309017 0
    outer loop
      vertex 2.15192 10.4574 -0.5
      vertex 2.0098 10.8948 1.5
      vertex 2.0098 10.8948 -0.5
    endloop
  endfacet
  facet normal -0.994522 -0.104528 0
    outer loop
      vertex 2.2 10 1.5
      vertex 2.15192 10.4574 1.5
      vertex 2.2 10 -0.5
    endloop
  endfacet
  facet normal -0.994522 -0.104528 0
    outer loop
      vertex 2.2 10 -0.5
      vertex 2.15192 10.4574 1.5
      vertex 2.15192 10.4574 -0.5
    endloop
  endfacet
  facet normal -1 0 0
    outer loop
      vertex 2.2 10 1.5
      vertex 2.2 10 -0.5
      vertex 2.2 -25 1.5
    endloop
  endfacet
  facet normal -1 0 0
    outer loop
      vertex 2.2 -25 1.5
      vertex 2.2 10 -0.5
      vertex 2.2 -25 -0.5
    endloop
  endfacet
  facet normal -0.994522 0.104528 0
    outer loop
      vertex 2.2 -25 1.5
      vertex 2.2 -25 -0.5
      vertex 2.15192 -25.4574 1.5
    endloop
  endfacet
  facet normal -0.994522 0.104528 0
    outer loop
      vertex 2.15192 -25.4574 1.5
      vertex 2.2 -25 -0.5
      vertex 2.15192 -25.4574 -0.5
    endloop
  endfacet
  facet normal -0.951056 0.309017 0
    outer loop
      vertex 2.15192 -25.4574 1.5
      vertex 2.15192 -25.4574 -0.5
      vertex 2.0098 -25.8948 1.5
    endloop
  endfacet
  facet normal -0.951056 0.309017 0
    outer loop
      vertex 2.0098 -25.8948 1.5
      vertex 2.15192 -25.4574 -0.5
      vertex 2.0098 -25.8948 -0.5
    endloop
  endfacet
  facet normal -0.866025 0.500001 0
    outer loop
      vertex 2.0098 -25.8948 1.5
      vertex 2.0098 -25.8948 -0.5
      vertex 1.77984 -26.2931 1.5
    endloop
  endfacet
  facet normal -0.866025 0.500001 0
    outer loop
      vertex 1.77984 -26.2931 1.5
      vertex 2.0098 -25.8948 -0.5
      vertex 1.77984 -26.2931 -0.5
    endloop
  endfacet
  facet normal -0.743145 0.669131 0
    outer loop
      vertex 1.77984 -26.2931 1.5
      vertex 1.77984 -26.2931 -0.5
      vertex 1.47209 -26.6349 1.5
    endloop
  endfacet
  facet normal -0.743145 0.669131 0
    outer loop
      vertex 1.47209 -26.6349 1.5
      vertex 1.77984 -26.2931 -0.5
      vertex 1.47209 -26.6349 -0.5
    endloop
  endfacet
  facet normal -0.587785 0.809017 0
    outer loop
      vertex 1.47209 -26.6349 1.5
      vertex 1.47209 -26.6349 -0.5
      vertex 1.1 -26.9053 1.5
    endloop
  endfacet
  facet normal -0.587785 0.809017 0
    outer loop
      vertex 1.1 -26.9053 1.5
      vertex 1.47209 -26.6349 -0.5
      vertex 1.1 -26.9053 -0.5
    endloop
  endfacet
  facet normal -0.406736 0.913546 0
    outer loop
      vertex 1.1 -26.9053 1.5
      vertex 1.1 -26.9053 -0.5
      vertex 0.679837 -27.0923 1.5
    endloop
  endfacet
  facet normal -0.406736 0.913546 0
    outer loop
      vertex 0.679837 -27.0923 1.5
      vertex 1.1 -26.9053 -0.5
      vertex 0.679837 -27.0923 -0.5
    endloop
  endfacet
  facet normal -0.207912 0.978147 0
    outer loop
      vertex 0.679837 -27.0923 1.5
      vertex 0.679837 -27.0923 -0.5
      vertex 0.229963 -27.1879 1.5
    endloop
  endfacet
  facet normal -0.207912 0.978147 0
    outer loop
      vertex 0.229963 -27.1879 1.5
      vertex 0.679837 -27.0923 -0.5
      vertex 0.229963 -27.1879 -0.5
    endloop
  endfacet
  facet normal 0 1 0
    outer loop
      vertex 0.229963 -27.1879 1.5
      vertex 0.229963 -27.1879 -0.5
      vertex -0.229963 -27.1879 1.5
    endloop
  endfacet
  facet normal 0 1 0
    outer loop
      vertex -0.229963 -27.1879 1.5
      vertex 0.229963 -27.1879 -0.5
      vertex -0.229963 -27.1879 -0.5
    endloop
  endfacet
  facet normal 0.207912 0.978147 0
    outer loop
      vertex -0.229963 -27.1879 1.5
      vertex -0.229963 -27.1879 -0.5
      vertex -0.679837 -27.0923 1.5
    endloop
  endfacet
  facet normal 0.207912 0.978147 0
    outer loop
      vertex -0.679837 -27.0923 1.5
      vertex -0.229963 -27.1879 -0.5
      vertex -0.679837 -27.0923 -0.5
    endloop
  endfacet
  facet normal 0.406736 0.913546 0
    outer loop
      vertex -0.679837 -27.0923 1.5
      vertex -0.679837 -27.0923 -0.5
      vertex -1.1 -26.9053 1.5
    endloop
  endfacet
  facet normal 0.406736 0.913546 0
    outer loop
      vertex -1.1 -26.9053 1.5
      vertex -0.679837 -27.0923 -0.5
      vertex -1.1 -26.9053 -0.5
    endloop
  endfacet
  facet normal 0.587785 0.809017 0
    outer loop
      vertex -1.1 -26.9053 1.5
      vertex -1.1 -26.9053 -0.5
      vertex -1.47209 -26.6349 1.5
    endloop
  endfacet
  facet normal 0.587785 0.809017 0
    outer loop
      vertex -1.47209 -26.6349 1.5
      vertex -1.1 -26.9053 -0.5
      vertex -1.47209 -26.6349 -0.5
    endloop
  endfacet
  facet normal 0.743145 0.669131 0
    outer loop
      vertex -1.77984 -26.2931 1.5
      vertex -1.47209 -26.6349 1.5
      vertex -1.47209 -26.6349 -0.5
    endloop
  endfacet
  facet normal 0.743145 0.669131 0
    outer loop
      vertex -1.77984 -26.2931 -0.5
      vertex -1.77984 -26.2931 1.5
      vertex -1.47209 -26.6349 -0.5
    endloop
  endfacet
  facet normal 0.866025 0.500001 0
    outer loop
      vertex -2.0098 -25.8948 1.5
      vertex -1.77984 -26.2931 1.5
      vertex -1.77984 -26.2931 -0.5
    endloop
  endfacet
  facet normal 0.866025 0.500001 0
    outer loop
      vertex -2.0098 -25.8948 -0.5
      vertex -2.0098 -25.8948 1.5
      vertex -1.77984 -26.2931 -0.5
    endloop
  endfacet
  facet normal 0.951056 0.309017 0
    outer loop
      vertex -2.15192 -25.4574 1.5
      vertex -2.0098 -25.8948 1.5
      vertex -2.0098 -25.8948 -0.5
    endloop
  endfacet
  facet normal 0.951056 0.309017 0
    outer loop
      vertex -2.15192 -25.4574 -0.5
      vertex -2.15192 -25.4574 1.5
      vertex -2.0098 -25.8948 -0.5
    endloop
  endfacet
  facet normal 0.994522 0.104528 0
    outer loop
      vertex -2.2 -25 1.5
      vertex -2.15192 -25.4574 1.5
      vertex -2.15192 -25.4574 -0.5
    endloop
  endfacet
  facet normal 0.994522 0.104528 0
    outer loop
      vertex -2.2 -25 -0.5
      vertex -2.2 -25 1.5
      vertex -2.15192 -25.4574 -0.5
    endloop
  endfacet
endsolid OpenSCAD_Model
