solid OpenSCAD_Model
  facet normal -1 0 0
    outer loop
      vertex 0 0 0
      vertex 0 16 4
      vertex 0 16 0
    endloop
  endfacet
  facet normal -1 -0 0
    outer loop
      vertex 0 16 4
      vertex 0 0 0
      vertex 0 0 4
    endloop
  endfacet
  facet normal 0 0 1
    outer loop
      vertex 25 16 4
      vertex 23.5786 8 4
      vertex 25 0 4
    endloop
  endfacet
  facet normal 0 0 1
    outer loop
      vertex 25 16 4
      vertex 23.3927 8.87448 4
      vertex 23.5786 8 4
    endloop
  endfacet
  facet normal 0 0 1
    outer loop
      vertex 25 16 4
      vertex 22.8672 9.59776 4
      vertex 23.3927 8.87448 4
    endloop
  endfacet
  facet normal 0 0 1
    outer loop
      vertex 25 16 4
      vertex 22.093 10.0448 4
      vertex 22.8672 9.59776 4
    endloop
  endfacet
  facet normal 0 0 1
    outer loop
      vertex 25 16 4
      vertex 21.2038 10.1382 4
      vertex 22.093 10.0448 4
    endloop
  endfacet
  facet normal -0 0 1
    outer loop
      vertex 17 14 4
      vertex 21.2038 10.1382 4
      vertex 25 16 4
    endloop
  endfacet
  facet normal 0 0 1
    outer loop
      vertex 21.2038 10.1382 4
      vertex 17 14 4
      vertex 20.3536 9.86195 4
    endloop
  endfacet
  facet normal 0 0 1
    outer loop
      vertex 19.3256 8.44701 4
      vertex 17 14 4
      vertex 19.3256 7.55299 4
    endloop
  endfacet
  facet normal 0 0 1
    outer loop
      vertex 19.6892 9.26374 4
      vertex 17 14 4
      vertex 19.3256 8.44701 4
    endloop
  endfacet
  facet normal 0 0 1
    outer loop
      vertex 20.3536 9.86195 4
      vertex 17 14 4
      vertex 19.6892 9.26374 4
    endloop
  endfacet
  facet normal 0 0 1
    outer loop
      vertex 25 16 4
      vertex 8 14 4
      vertex 17 14 4
    endloop
  endfacet
  facet normal 0 0 1
    outer loop
      vertex 8 14 4
      vertex 5.72143 8 4
      vertex 8 2 4
    endloop
  endfacet
  facet normal 0 0 1
    outer loop
      vertex 8 14 4
      vertex 5.53555 8.87448 4
      vertex 5.72143 8 4
    endloop
  endfacet
  facet normal 0 0 1
    outer loop
      vertex 8 14 4
      vertex 5.01006 9.59776 4
      vertex 5.53555 8.87448 4
    endloop
  endfacet
  facet normal 0 0 1
    outer loop
      vertex 8 14 4
      vertex 4.23582 10.0448 4
      vertex 5.01006 9.59776 4
    endloop
  endfacet
  facet normal 0 0 1
    outer loop
      vertex 8 14 4
      vertex 3.34669 10.1382 4
      vertex 4.23582 10.0448 4
    endloop
  endfacet
  facet normal 0 0 1
    outer loop
      vertex 0 16 4
      vertex 3.34669 10.1382 4
      vertex 8 14 4
    endloop
  endfacet
  facet normal 0 0 1
    outer loop
      vertex 1.46841 8.44701 4
      vertex 0 16 4
      vertex 1.46841 7.55299 4
    endloop
  endfacet
  facet normal 0 0 1
    outer loop
      vertex 1.83204 9.26374 4
      vertex 0 16 4
      vertex 1.46841 8.44701 4
    endloop
  endfacet
  facet normal 0 0 1
    outer loop
      vertex 2.49643 9.86195 4
      vertex 0 16 4
      vertex 1.83204 9.26374 4
    endloop
  endfacet
  facet normal 0 0 1
    outer loop
      vertex 3.34669 10.1382 4
      vertex 0 16 4
      vertex 2.49643 9.86195 4
    endloop
  endfacet
  facet normal -0 0 1
    outer loop
      vertex 0 16 4
      vertex 8 14 4
      vertex 25 16 4
    endloop
  endfacet
  facet normal -0 0 1
    outer loop
      vertex 23.3927 7.12552 4
      vertex 25 0 4
      vertex 23.5786 8 4
    endloop
  endfacet
  facet normal -0 0 1
    outer loop
      vertex 22.8672 6.40224 4
      vertex 25 0 4
      vertex 23.3927 7.12552 4
    endloop
  endfacet
  facet normal -0 0 1
    outer loop
      vertex 22.093 5.95523 4
      vertex 25 0 4
      vertex 22.8672 6.40224 4
    endloop
  endfacet
  facet normal -0 0 1
    outer loop
      vertex 21.2038 5.86178 4
      vertex 25 0 4
      vertex 22.093 5.95523 4
    endloop
  endfacet
  facet normal 0 0 1
    outer loop
      vertex 17 2 4
      vertex 21.2038 5.86178 4
      vertex 20.3536 6.13805 4
    endloop
  endfacet
  facet normal 0 0 1
    outer loop
      vertex 17 2 4
      vertex 20.3536 6.13805 4
      vertex 19.6892 6.73626 4
    endloop
  endfacet
  facet normal 0 0 1
    outer loop
      vertex 17 2 4
      vertex 19.3256 7.55299 4
      vertex 17 14 4
    endloop
  endfacet
  facet normal 0 0 1
    outer loop
      vertex 17 2 4
      vertex 19.6892 6.73626 4
      vertex 19.3256 7.55299 4
    endloop
  endfacet
  facet normal 0 0 1
    outer loop
      vertex 21.2038 5.86178 4
      vertex 17 2 4
      vertex 25 0 4
    endloop
  endfacet
  facet normal -0 0 1
    outer loop
      vertex 8 2 4
      vertex 25 0 4
      vertex 17 2 4
    endloop
  endfacet
  facet normal -0 0 1
    outer loop
      vertex 5.53555 7.12552 4
      vertex 8 2 4
      vertex 5.72143 8 4
    endloop
  endfacet
  facet normal -0 0 1
    outer loop
      vertex 5.01006 6.40224 4
      vertex 8 2 4
      vertex 5.53555 7.12552 4
    endloop
  endfacet
  facet normal -0 0 1
    outer loop
      vertex 4.23582 5.95523 4
      vertex 8 2 4
      vertex 5.01006 6.40224 4
    endloop
  endfacet
  facet normal -0 0 1
    outer loop
      vertex 3.34669 5.86178 4
      vertex 8 2 4
      vertex 4.23582 5.95523 4
    endloop
  endfacet
  facet normal 0 0 1
    outer loop
      vertex 0 0 4
      vertex 3.34669 5.86178 4
      vertex 2.49643 6.13805 4
    endloop
  endfacet
  facet normal 0 0 1
    outer loop
      vertex 8 2 4
      vertex 0 0 4
      vertex 25 0 4
    endloop
  endfacet
  facet normal 0 0 1
    outer loop
      vertex 3.34669 5.86178 4
      vertex 0 0 4
      vertex 8 2 4
    endloop
  endfacet
  facet normal 0 0 1
    outer loop
      vertex 1.83204 6.73626 4
      vertex 0 0 4
      vertex 2.49643 6.13805 4
    endloop
  endfacet
  facet normal 0 0 1
    outer loop
      vertex 1.46841 7.55299 4
      vertex 0 0 4
      vertex 1.83204 6.73626 4
    endloop
  endfacet
  facet normal 0 0 1
    outer loop
      vertex 0 0 4
      vertex 1.46841 7.55299 4
      vertex 0 16 4
    endloop
  endfacet
  facet normal 1 -0 0
    outer loop
      vertex 25 0 4
      vertex 25 16 0
      vertex 25 16 4
    endloop
  endfacet
  facet normal 1 0 0
    outer loop
      vertex 25 16 0
      vertex 25 0 4
      vertex 25 0 0
    endloop
  endfacet
  facet normal 0 1 -0
    outer loop
      vertex 25 16 0
      vertex 0 16 4
      vertex 25 16 4
    endloop
  endfacet
  facet normal 0 1 0
    outer loop
      vertex 0 16 4
      vertex 25 16 0
      vertex 0 16 0
    endloop
  endfacet
  facet normal 0 0 -1
    outer loop
      vertex 25 0 0
      vertex 23.5786 8 0
      vertex 25 16 0
    endloop
  endfacet
  facet normal 0 0 -1
    outer loop
      vertex 25 0 0
      vertex 23.3927 7.12552 0
      vertex 23.5786 8 0
    endloop
  endfacet
  facet normal 0 0 -1
    outer loop
      vertex 25 0 0
      vertex 22.8672 6.40224 0
      vertex 23.3927 7.12552 0
    endloop
  endfacet
  facet normal 0 0 -1
    outer loop
      vertex 25 0 0
      vertex 22.093 5.95523 0
      vertex 22.8672 6.40224 0
    endloop
  endfacet
  facet normal 0 0 -1
    outer loop
      vertex 25 0 0
      vertex 21.2038 5.86178 0
      vertex 22.093 5.95523 0
    endloop
  endfacet
  facet normal 0 0 -1
    outer loop
      vertex 25 0 0
      vertex 20.3536 6.13805 0
      vertex 21.2038 5.86178 0
    endloop
  endfacet
  facet normal 0 0 -1
    outer loop
      vertex 5.01006 6.40224 0
      vertex 20.3536 6.13805 0
      vertex 25 0 0
    endloop
  endfacet
  facet normal 0 0 -1
    outer loop
      vertex 19.3256 7.55299 0
      vertex 5.72143 8 0
      vertex 19.3256 8.44701 0
    endloop
  endfacet
  facet normal 0 0 -1
    outer loop
      vertex 5.53555 7.12552 0
      vertex 19.3256 7.55299 0
      vertex 19.6892 6.73626 0
    endloop
  endfacet
  facet normal 0 0 -1
    outer loop
      vertex 20.3536 6.13805 0
      vertex 5.01006 6.40224 0
      vertex 19.6892 6.73626 0
    endloop
  endfacet
  facet normal -0 0 -1
    outer loop
      vertex 19.3256 7.55299 0
      vertex 5.53555 7.12552 0
      vertex 5.72143 8 0
    endloop
  endfacet
  facet normal -0 0 -1
    outer loop
      vertex 19.6892 6.73626 0
      vertex 5.01006 6.40224 0
      vertex 5.53555 7.12552 0
    endloop
  endfacet
  facet normal 0 0 -1
    outer loop
      vertex 0 0 0
      vertex 5.01006 6.40224 0
      vertex 25 0 0
    endloop
  endfacet
  facet normal 0 0 -1
    outer loop
      vertex 5.01006 6.40224 0
      vertex 0 0 0
      vertex 4.23582 5.95523 0
    endloop
  endfacet
  facet normal -0 0 -1
    outer loop
      vertex 1.46841 7.55299 0
      vertex 0 0 0
      vertex 1.46841 8.44701 0
    endloop
  endfacet
  facet normal -0 0 -1
    outer loop
      vertex 1.83204 6.73626 0
      vertex 0 0 0
      vertex 1.46841 7.55299 0
    endloop
  endfacet
  facet normal -0 0 -1
    outer loop
      vertex 2.49643 6.13805 0
      vertex 0 0 0
      vertex 1.83204 6.73626 0
    endloop
  endfacet
  facet normal -0 0 -1
    outer loop
      vertex 3.34669 5.86178 0
      vertex 0 0 0
      vertex 2.49643 6.13805 0
    endloop
  endfacet
  facet normal 0 0 -1
    outer loop
      vertex 4.23582 5.95523 0
      vertex 0 0 0
      vertex 3.34669 5.86178 0
    endloop
  endfacet
  facet normal 0 0 -1
    outer loop
      vertex 23.3927 8.87448 0
      vertex 25 16 0
      vertex 23.5786 8 0
    endloop
  endfacet
  facet normal 0 0 -1
    outer loop
      vertex 22.8672 9.59776 0
      vertex 25 16 0
      vertex 23.3927 8.87448 0
    endloop
  endfacet
  facet normal 0 0 -1
    outer loop
      vertex 22.093 10.0448 0
      vertex 25 16 0
      vertex 22.8672 9.59776 0
    endloop
  endfacet
  facet normal 0 0 -1
    outer loop
      vertex 21.2038 10.1382 0
      vertex 25 16 0
      vertex 22.093 10.0448 0
    endloop
  endfacet
  facet normal 0 0 -1
    outer loop
      vertex 20.3536 9.86195 0
      vertex 25 16 0
      vertex 21.2038 10.1382 0
    endloop
  endfacet
  facet normal 0 0 -1
    outer loop
      vertex 5.01006 9.59776 0
      vertex 20.3536 9.86195 0
      vertex 19.6892 9.26374 0
    endloop
  endfacet
  facet normal 0 0 -1
    outer loop
      vertex 5.53555 8.87448 0
      vertex 19.3256 8.44701 0
      vertex 5.72143 8 0
    endloop
  endfacet
  facet normal 0 0 -1
    outer loop
      vertex 19.3256 8.44701 0
      vertex 5.53555 8.87448 0
      vertex 19.6892 9.26374 0
    endloop
  endfacet
  facet normal 0 0 -1
    outer loop
      vertex 5.01006 9.59776 0
      vertex 19.6892 9.26374 0
      vertex 5.53555 8.87448 0
    endloop
  endfacet
  facet normal -0 0 -1
    outer loop
      vertex 20.3536 9.86195 0
      vertex 5.01006 9.59776 0
      vertex 25 16 0
    endloop
  endfacet
  facet normal 0 0 -1
    outer loop
      vertex 0 16 0
      vertex 5.01006 9.59776 0
      vertex 4.23582 10.0448 0
    endloop
  endfacet
  facet normal 0 0 -1
    outer loop
      vertex 0 16 0
      vertex 4.23582 10.0448 0
      vertex 3.34669 10.1382 0
    endloop
  endfacet
  facet normal 0 0 -1
    outer loop
      vertex 5.01006 9.59776 0
      vertex 0 16 0
      vertex 25 16 0
    endloop
  endfacet
  facet normal 0 0 -1
    outer loop
      vertex 2.49643 9.86195 0
      vertex 0 16 0
      vertex 3.34669 10.1382 0
    endloop
  endfacet
  facet normal 0 0 -1
    outer loop
      vertex 1.83204 9.26374 0
      vertex 0 16 0
      vertex 2.49643 9.86195 0
    endloop
  endfacet
  facet normal 0 0 -1
    outer loop
      vertex 1.46841 8.44701 0
      vertex 0 16 0
      vertex 1.83204 9.26374 0
    endloop
  endfacet
  facet normal 0 0 -1
    outer loop
      vertex 0 16 0
      vertex 1.46841 8.44701 0
      vertex 0 0 0
    endloop
  endfacet
  facet normal 0 -1 0
    outer loop
      vertex 0 0 0
      vertex 25 0 4
      vertex 0 0 4
    endloop
  endfacet
  facet normal 0 -1 -0
    outer loop
      vertex 25 0 4
      vertex 0 0 0
      vertex 25 0 0
    endloop
  endfacet
  facet normal -0.978147 -0.207915 0
    outer loop
      vertex 5.72143 8 0
      vertex 5.53555 8.87448 4
      vertex 5.53555 8.87448 0
    endloop
  endfacet
  facet normal -0.978147 -0.207915 0
    outer loop
      vertex 5.53555 8.87448 4
      vertex 5.72143 8 0
      vertex 5.72143 8 4
    endloop
  endfacet
  facet normal 1 -0 0
    outer loop
      vertex 1.46841 7.55299 4
      vertex 1.46841 8.44701 0
      vertex 1.46841 8.44701 4
    endloop
  endfacet
  facet normal 1 0 0
    outer loop
      vertex 1.46841 8.44701 0
      vertex 1.46841 7.55299 4
      vertex 1.46841 7.55299 0
    endloop
  endfacet
  facet normal -0.104472 -0.994528 0
    outer loop
      vertex 3.34669 10.1382 0
      vertex 4.23582 10.0448 4
      vertex 3.34669 10.1382 4
    endloop
  endfacet
  facet normal -0.104472 -0.994528 -0
    outer loop
      vertex 4.23582 10.0448 4
      vertex 3.34669 10.1382 0
      vertex 4.23582 10.0448 0
    endloop
  endfacet
  facet normal -0.809019 -0.587783 0
    outer loop
      vertex 5.53555 8.87448 0
      vertex 5.01006 9.59776 4
      vertex 5.01006 9.59776 0
    endloop
  endfacet
  facet normal -0.809019 -0.587783 0
    outer loop
      vertex 5.01006 9.59776 4
      vertex 5.53555 8.87448 0
      vertex 5.53555 8.87448 4
    endloop
  endfacet
  facet normal -0.500002 0.866024 0
    outer loop
      vertex 5.01006 6.40224 0
      vertex 4.23582 5.95523 4
      vertex 5.01006 6.40224 4
    endloop
  endfacet
  facet normal -0.500002 0.866024 0
    outer loop
      vertex 4.23582 5.95523 4
      vertex 5.01006 6.40224 0
      vertex 4.23582 5.95523 0
    endloop
  endfacet
  facet normal -0.500027 -0.86601 0
    outer loop
      vertex 4.23582 10.0448 0
      vertex 5.01006 9.59776 4
      vertex 4.23582 10.0448 4
    endloop
  endfacet
  facet normal -0.500027 -0.86601 -0
    outer loop
      vertex 5.01006 9.59776 4
      vertex 4.23582 10.0448 0
      vertex 5.01006 9.59776 0
    endloop
  endfacet
  facet normal 0.669125 -0.74315 0
    outer loop
      vertex 1.83204 9.26374 0
      vertex 2.49643 9.86195 4
      vertex 1.83204 9.26374 4
    endloop
  endfacet
  facet normal 0.669125 -0.74315 0
    outer loop
      vertex 2.49643 9.86195 4
      vertex 1.83204 9.26374 0
      vertex 2.49643 9.86195 0
    endloop
  endfacet
  facet normal 0.913546 -0.406735 0
    outer loop
      vertex 1.46841 8.44701 4
      vertex 1.83204 9.26374 0
      vertex 1.83204 9.26374 4
    endloop
  endfacet
  facet normal 0.913546 -0.406735 0
    outer loop
      vertex 1.83204 9.26374 0
      vertex 1.46841 8.44701 4
      vertex 1.46841 8.44701 0
    endloop
  endfacet
  facet normal 0.309001 -0.951062 0
    outer loop
      vertex 2.49643 9.86195 0
      vertex 3.34669 10.1382 4
      vertex 2.49643 9.86195 4
    endloop
  endfacet
  facet normal 0.309001 -0.951062 0
    outer loop
      vertex 3.34669 10.1382 4
      vertex 2.49643 9.86195 0
      vertex 3.34669 10.1382 0
    endloop
  endfacet
  facet normal -0.978147 0.207915 0
    outer loop
      vertex 5.53555 7.12552 0
      vertex 5.72143 8 4
      vertex 5.72143 8 0
    endloop
  endfacet
  facet normal -0.978147 0.207915 0
    outer loop
      vertex 5.72143 8 4
      vertex 5.53555 7.12552 0
      vertex 5.53555 7.12552 4
    endloop
  endfacet
  facet normal 0.309021 0.951055 -0
    outer loop
      vertex 3.34669 5.86178 0
      vertex 2.49643 6.13805 4
      vertex 3.34669 5.86178 4
    endloop
  endfacet
  facet normal 0.309021 0.951055 0
    outer loop
      vertex 2.49643 6.13805 4
      vertex 3.34669 5.86178 0
      vertex 2.49643 6.13805 0
    endloop
  endfacet
  facet normal 0.913546 0.406735 0
    outer loop
      vertex 1.83204 6.73626 4
      vertex 1.46841 7.55299 0
      vertex 1.46841 7.55299 4
    endloop
  endfacet
  facet normal 0.913546 0.406735 0
    outer loop
      vertex 1.46841 7.55299 0
      vertex 1.83204 6.73626 4
      vertex 1.83204 6.73626 0
    endloop
  endfacet
  facet normal -0.809019 0.587783 0
    outer loop
      vertex 5.01006 6.40224 0
      vertex 5.53555 7.12552 4
      vertex 5.53555 7.12552 0
    endloop
  endfacet
  facet normal -0.809019 0.587783 0
    outer loop
      vertex 5.53555 7.12552 4
      vertex 5.01006 6.40224 0
      vertex 5.01006 6.40224 4
    endloop
  endfacet
  facet normal -0.104527 0.994522 0
    outer loop
      vertex 4.23582 5.95523 0
      vertex 3.34669 5.86178 4
      vertex 4.23582 5.95523 4
    endloop
  endfacet
  facet normal -0.104527 0.994522 0
    outer loop
      vertex 3.34669 5.86178 4
      vertex 4.23582 5.95523 0
      vertex 3.34669 5.86178 0
    endloop
  endfacet
  facet normal 0.669125 0.74315 -0
    outer loop
      vertex 2.49643 6.13805 0
      vertex 1.83204 6.73626 4
      vertex 2.49643 6.13805 4
    endloop
  endfacet
  facet normal 0.669125 0.74315 0
    outer loop
      vertex 1.83204 6.73626 4
      vertex 2.49643 6.13805 0
      vertex 1.83204 6.73626 0
    endloop
  endfacet
  facet normal -0.978142 -0.207937 0
    outer loop
      vertex 23.5786 8 0
      vertex 23.3927 8.87448 4
      vertex 23.3927 8.87448 0
    endloop
  endfacet
  facet normal -0.978142 -0.207937 0
    outer loop
      vertex 23.3927 8.87448 4
      vertex 23.5786 8 0
      vertex 23.5786 8 4
    endloop
  endfacet
  facet normal 1 -0 0
    outer loop
      vertex 19.3256 7.55299 4
      vertex 19.3256 8.44701 0
      vertex 19.3256 8.44701 4
    endloop
  endfacet
  facet normal 1 0 0
    outer loop
      vertex 19.3256 8.44701 0
      vertex 19.3256 7.55299 4
      vertex 19.3256 7.55299 0
    endloop
  endfacet
  facet normal -0.104464 -0.994529 0
    outer loop
      vertex 21.2038 10.1382 0
      vertex 22.093 10.0448 4
      vertex 21.2038 10.1382 4
    endloop
  endfacet
  facet normal -0.104464 -0.994529 -0
    outer loop
      vertex 22.093 10.0448 4
      vertex 21.2038 10.1382 0
      vertex 22.093 10.0448 0
    endloop
  endfacet
  facet normal -0.809014 -0.58779 0
    outer loop
      vertex 23.3927 8.87448 0
      vertex 22.8672 9.59776 4
      vertex 22.8672 9.59776 0
    endloop
  endfacet
  facet normal -0.809014 -0.58779 0
    outer loop
      vertex 22.8672 9.59776 4
      vertex 23.3927 8.87448 0
      vertex 23.3927 8.87448 4
    endloop
  endfacet
  facet normal -0.500046 -0.865999 0
    outer loop
      vertex 22.093 10.0448 0
      vertex 22.8672 9.59776 4
      vertex 22.093 10.0448 4
    endloop
  endfacet
  facet normal -0.500046 -0.865999 -0
    outer loop
      vertex 22.8672 9.59776 4
      vertex 22.093 10.0448 0
      vertex 22.8672 9.59776 0
    endloop
  endfacet
  facet normal 0.669119 -0.743155 0
    outer loop
      vertex 19.6892 9.26374 0
      vertex 20.3536 9.86195 4
      vertex 19.6892 9.26374 4
    endloop
  endfacet
  facet normal 0.669119 -0.743155 0
    outer loop
      vertex 20.3536 9.86195 4
      vertex 19.6892 9.26374 0
      vertex 20.3536 9.86195 0
    endloop
  endfacet
  facet normal 0.913559 -0.406707 0
    outer loop
      vertex 19.3256 8.44701 4
      vertex 19.6892 9.26374 0
      vertex 19.6892 9.26374 4
    endloop
  endfacet
  facet normal 0.913559 -0.406707 0
    outer loop
      vertex 19.6892 9.26374 0
      vertex 19.3256 8.44701 4
      vertex 19.3256 8.44701 0
    endloop
  endfacet
  facet normal 0.30902 -0.951055 0
    outer loop
      vertex 20.3536 9.86195 0
      vertex 21.2038 10.1382 4
      vertex 20.3536 9.86195 4
    endloop
  endfacet
  facet normal 0.30902 -0.951055 0
    outer loop
      vertex 21.2038 10.1382 4
      vertex 20.3536 9.86195 0
      vertex 21.2038 10.1382 0
    endloop
  endfacet
  facet normal -0.978142 0.207937 0
    outer loop
      vertex 23.3927 7.12552 0
      vertex 23.5786 8 4
      vertex 23.5786 8 0
    endloop
  endfacet
  facet normal -0.978142 0.207937 0
    outer loop
      vertex 23.5786 8 4
      vertex 23.3927 7.12552 0
      vertex 23.3927 7.12552 4
    endloop
  endfacet
  facet normal 0.309041 0.951049 -0
    outer loop
      vertex 21.2038 5.86178 0
      vertex 20.3536 6.13805 4
      vertex 21.2038 5.86178 4
    endloop
  endfacet
  facet normal 0.309041 0.951049 0
    outer loop
      vertex 20.3536 6.13805 4
      vertex 21.2038 5.86178 0
      vertex 20.3536 6.13805 0
    endloop
  endfacet
  facet normal 0.913559 0.406707 0
    outer loop
      vertex 19.6892 6.73626 4
      vertex 19.3256 7.55299 0
      vertex 19.3256 7.55299 4
    endloop
  endfacet
  facet normal 0.913559 0.406707 0
    outer loop
      vertex 19.3256 7.55299 0
      vertex 19.6892 6.73626 4
      vertex 19.6892 6.73626 0
    endloop
  endfacet
  facet normal -0.809014 0.58779 0
    outer loop
      vertex 22.8672 6.40224 0
      vertex 23.3927 7.12552 4
      vertex 23.3927 7.12552 0
    endloop
  endfacet
  facet normal -0.809014 0.58779 0
    outer loop
      vertex 23.3927 7.12552 4
      vertex 22.8672 6.40224 0
      vertex 22.8672 6.40224 4
    endloop
  endfacet
  facet normal -0.500021 0.866013 0
    outer loop
      vertex 22.8672 6.40224 0
      vertex 22.093 5.95523 4
      vertex 22.8672 6.40224 4
    endloop
  endfacet
  facet normal -0.500021 0.866013 0
    outer loop
      vertex 22.093 5.95523 4
      vertex 22.8672 6.40224 0
      vertex 22.093 5.95523 0
    endloop
  endfacet
  facet normal -0.104519 0.994523 0
    outer loop
      vertex 22.093 5.95523 0
      vertex 21.2038 5.86178 4
      vertex 22.093 5.95523 4
    endloop
  endfacet
  facet normal -0.104519 0.994523 0
    outer loop
      vertex 21.2038 5.86178 4
      vertex 22.093 5.95523 0
      vertex 21.2038 5.86178 0
    endloop
  endfacet
  facet normal 0.669119 0.743155 -0
    outer loop
      vertex 20.3536 6.13805 0
      vertex 19.6892 6.73626 4
      vertex 20.3536 6.13805 4
    endloop
  endfacet
  facet normal 0.669119 0.743155 0
    outer loop
      vertex 19.6892 6.73626 4
      vertex 20.3536 6.13805 0
      vertex 19.6892 6.73626 0
    endloop
  endfacet
  facet normal 0 -1 0
    outer loop
      vertex 7 -4.5 17
      vertex 18 -4.5 21
      vertex 7 -4.5 21
    endloop
  endfacet
  facet normal 0 -1 -0
    outer loop
      vertex 18 -4.5 21
      vertex 7 -4.5 17
      vertex 18 -4.5 17
    endloop
  endfacet
  facet normal 0 0 1
    outer loop
      vertex 18 -4.5 21
      vertex 14.0692 -0.890122 21
      vertex 14.141 -1.57247 21
    endloop
  endfacet
  facet normal 0 0 1
    outer loop
      vertex 13.7262 -0.295935 21
      vertex 18 20.5 21
      vertex 13.9289 16.575 21
    endloop
  endfacet
  facet normal 0 0 1
    outer loop
      vertex 18 20.5 21
      vertex 13.7262 -0.295935 21
      vertex 14.0692 -0.890122 21
    endloop
  endfacet
  facet normal -0 0 1
    outer loop
      vertex 13.4698 16.0651 21
      vertex 13.7262 -0.295935 21
      vertex 13.9289 16.575 21
    endloop
  endfacet
  facet normal 0 0 1
    outer loop
      vertex 13.4698 16.0651 21
      vertex 13.1711 0.107349 21
      vertex 13.7262 -0.295935 21
    endloop
  endfacet
  facet normal -0 0 1
    outer loop
      vertex 12.8431 15.7861 21
      vertex 13.1711 0.107349 21
      vertex 13.4698 16.0651 21
    endloop
  endfacet
  facet normal 0 0 1
    outer loop
      vertex 12.8431 15.7861 21
      vertex 12.5 0.25 21
      vertex 13.1711 0.107349 21
    endloop
  endfacet
  facet normal -0 0 1
    outer loop
      vertex 12.1569 15.7861 21
      vertex 12.5 0.25 21
      vertex 12.8431 15.7861 21
    endloop
  endfacet
  facet normal 0 0 1
    outer loop
      vertex 12.1569 15.7861 21
      vertex 11.8289 0.107349 21
      vertex 12.5 0.25 21
    endloop
  endfacet
  facet normal 0 0 1
    outer loop
      vertex 11.5302 16.0651 21
      vertex 11.8289 0.107349 21
      vertex 12.1569 15.7861 21
    endloop
  endfacet
  facet normal 0 0 1
    outer loop
      vertex 11.5302 16.0651 21
      vertex 11.2738 -0.295935 21
      vertex 11.8289 0.107349 21
    endloop
  endfacet
  facet normal 0 0 1
    outer loop
      vertex 11.0711 16.575 21
      vertex 11.2738 -0.295935 21
      vertex 11.5302 16.0651 21
    endloop
  endfacet
  facet normal 0 0 1
    outer loop
      vertex 7 -4.5 21
      vertex 11.2738 -0.295935 21
      vertex 11.0711 16.575 21
    endloop
  endfacet
  facet normal 0 0 1
    outer loop
      vertex 7 20.5 21
      vertex 11.0711 16.575 21
      vertex 10.859 17.2275 21
    endloop
  endfacet
  facet normal 0 0 1
    outer loop
      vertex 7 -4.5 21
      vertex 11.0711 16.575 21
      vertex 7 20.5 21
    endloop
  endfacet
  facet normal 0 0 1
    outer loop
      vertex 13.9289 16.575 21
      vertex 18 20.5 21
      vertex 14.141 17.2275 21
    endloop
  endfacet
  facet normal 0 0 1
    outer loop
      vertex 18 20.5 21
      vertex 14.0692 17.9099 21
      vertex 14.141 17.2275 21
    endloop
  endfacet
  facet normal 0 0 1
    outer loop
      vertex 18 20.5 21
      vertex 13.7262 18.5041 21
      vertex 14.0692 17.9099 21
    endloop
  endfacet
  facet normal 0 0 1
    outer loop
      vertex 18 20.5 21
      vertex 13.1711 18.9073 21
      vertex 13.7262 18.5041 21
    endloop
  endfacet
  facet normal 0 0 1
    outer loop
      vertex 18 20.5 21
      vertex 12.5 19.05 21
      vertex 13.1711 18.9073 21
    endloop
  endfacet
  facet normal -0 0 1
    outer loop
      vertex 7 20.5 21
      vertex 12.5 19.05 21
      vertex 18 20.5 21
    endloop
  endfacet
  facet normal 0 0 1
    outer loop
      vertex 11.2738 -0.295935 21
      vertex 7 -4.5 21
      vertex 10.9308 -0.890122 21
    endloop
  endfacet
  facet normal 0 0 1
    outer loop
      vertex 10.9308 17.9099 21
      vertex 7 20.5 21
      vertex 10.859 17.2275 21
    endloop
  endfacet
  facet normal 0 0 1
    outer loop
      vertex 11.2738 18.5041 21
      vertex 7 20.5 21
      vertex 10.9308 17.9099 21
    endloop
  endfacet
  facet normal 0 0 1
    outer loop
      vertex 11.8289 18.9073 21
      vertex 7 20.5 21
      vertex 11.2738 18.5041 21
    endloop
  endfacet
  facet normal 0 0 1
    outer loop
      vertex 12.5 19.05 21
      vertex 7 20.5 21
      vertex 11.8289 18.9073 21
    endloop
  endfacet
  facet normal 0 0 1
    outer loop
      vertex 18 20.5 21
      vertex 14.0692 -0.890122 21
      vertex 18 -4.5 21
    endloop
  endfacet
  facet normal -0 0 1
    outer loop
      vertex 13.9289 -2.225 21
      vertex 18 -4.5 21
      vertex 14.141 -1.57247 21
    endloop
  endfacet
  facet normal -0 0 1
    outer loop
      vertex 13.4698 -2.73488 21
      vertex 18 -4.5 21
      vertex 13.9289 -2.225 21
    endloop
  endfacet
  facet normal -0 0 1
    outer loop
      vertex 12.8431 -3.01394 21
      vertex 18 -4.5 21
      vertex 13.4698 -2.73488 21
    endloop
  endfacet
  facet normal -0 0 1
    outer loop
      vertex 12.1569 -3.01394 21
      vertex 18 -4.5 21
      vertex 12.8431 -3.01394 21
    endloop
  endfacet
  facet normal 0 0 1
    outer loop
      vertex 12.1569 -3.01394 21
      vertex 7 -4.5 21
      vertex 18 -4.5 21
    endloop
  endfacet
  facet normal 0 0 1
    outer loop
      vertex 11.5302 -2.73488 21
      vertex 7 -4.5 21
      vertex 12.1569 -3.01394 21
    endloop
  endfacet
  facet normal 0 0 1
    outer loop
      vertex 11.0711 -2.225 21
      vertex 7 -4.5 21
      vertex 11.5302 -2.73488 21
    endloop
  endfacet
  facet normal 0 0 1
    outer loop
      vertex 10.859 -1.57247 21
      vertex 7 -4.5 21
      vertex 11.0711 -2.225 21
    endloop
  endfacet
  facet normal 0 0 1
    outer loop
      vertex 10.9308 -0.890122 21
      vertex 7 -4.5 21
      vertex 10.859 -1.57247 21
    endloop
  endfacet
  facet normal 0 1 -0
    outer loop
      vertex 18 20.5 17
      vertex 7 20.5 21
      vertex 18 20.5 21
    endloop
  endfacet
  facet normal 0 1 0
    outer loop
      vertex 7 20.5 21
      vertex 18 20.5 17
      vertex 7 20.5 17
    endloop
  endfacet
  facet normal -1 0 0
    outer loop
      vertex 7 -4.5 17
      vertex 7 20.5 21
      vertex 7 20.5 17
    endloop
  endfacet
  facet normal -1 -0 0
    outer loop
      vertex 7 20.5 21
      vertex 7 -4.5 17
      vertex 7 -4.5 21
    endloop
  endfacet
  facet normal 0 0 -1
    outer loop
      vertex 17 14 17
      vertex 13.9289 16.575 17
      vertex 14.141 17.2275 17
    endloop
  endfacet
  facet normal 0 0 -1
    outer loop
      vertex 17 14 17
      vertex 13.4698 16.0651 17
      vertex 13.9289 16.575 17
    endloop
  endfacet
  facet normal 0 0 -1
    outer loop
      vertex 17 14 17
      vertex 12.8431 15.7861 17
      vertex 13.4698 16.0651 17
    endloop
  endfacet
  facet normal 0 0 -1
    outer loop
      vertex 17 14 17
      vertex 12.1569 15.7861 17
      vertex 12.8431 15.7861 17
    endloop
  endfacet
  facet normal -0 0 -1
    outer loop
      vertex 11.0711 16.575 17
      vertex 8 14 17
      vertex 10.859 17.2275 17
    endloop
  endfacet
  facet normal -0 0 -1
    outer loop
      vertex 11.5302 16.0651 17
      vertex 8 14 17
      vertex 11.0711 16.575 17
    endloop
  endfacet
  facet normal -0 0 -1
    outer loop
      vertex 12.1569 15.7861 17
      vertex 8 14 17
      vertex 11.5302 16.0651 17
    endloop
  endfacet
  facet normal 0 0 -1
    outer loop
      vertex 8 14 17
      vertex 12.1569 15.7861 17
      vertex 17 14 17
    endloop
  endfacet
  facet normal 0 0 -1
    outer loop
      vertex 18 -4.5 17
      vertex 17 2 17
      vertex 18 20.5 17
    endloop
  endfacet
  facet normal 0 0 -1
    outer loop
      vertex 18 -4.5 17
      vertex 14.141 -1.57247 17
      vertex 17 2 17
    endloop
  endfacet
  facet normal 0 0 -1
    outer loop
      vertex 18 -4.5 17
      vertex 13.9289 -2.225 17
      vertex 14.141 -1.57247 17
    endloop
  endfacet
  facet normal 0 0 -1
    outer loop
      vertex 18 -4.5 17
      vertex 13.4698 -2.73488 17
      vertex 13.9289 -2.225 17
    endloop
  endfacet
  facet normal 0 0 -1
    outer loop
      vertex 18 -4.5 17
      vertex 12.8431 -3.01394 17
      vertex 13.4698 -2.73488 17
    endloop
  endfacet
  facet normal 0 0 -1
    outer loop
      vertex 18 -4.5 17
      vertex 12.1569 -3.01394 17
      vertex 12.8431 -3.01394 17
    endloop
  endfacet
  facet normal 0 0 -1
    outer loop
      vertex 7 -4.5 17
      vertex 10.859 -1.57247 17
      vertex 11.0711 -2.225 17
    endloop
  endfacet
  facet normal -0 0 -1
    outer loop
      vertex 8 2 17
      vertex 7 -4.5 17
      vertex 8 14 17
    endloop
  endfacet
  facet normal -0 0 -1
    outer loop
      vertex 10.859 -1.57247 17
      vertex 7 -4.5 17
      vertex 8 2 17
    endloop
  endfacet
  facet normal -0 0 -1
    outer loop
      vertex 11.5302 -2.73488 17
      vertex 7 -4.5 17
      vertex 11.0711 -2.225 17
    endloop
  endfacet
  facet normal -0 0 -1
    outer loop
      vertex 12.1569 -3.01394 17
      vertex 7 -4.5 17
      vertex 11.5302 -2.73488 17
    endloop
  endfacet
  facet normal 0 0 -1
    outer loop
      vertex 7 -4.5 17
      vertex 12.1569 -3.01394 17
      vertex 18 -4.5 17
    endloop
  endfacet
  facet normal 0 0 -1
    outer loop
      vertex 17 14 17
      vertex 18 20.5 17
      vertex 17 2 17
    endloop
  endfacet
  facet normal 0 0 -1
    outer loop
      vertex 14.141 17.2275 17
      vertex 18 20.5 17
      vertex 17 14 17
    endloop
  endfacet
  facet normal 0 0 -1
    outer loop
      vertex 14.0692 17.9099 17
      vertex 18 20.5 17
      vertex 14.141 17.2275 17
    endloop
  endfacet
  facet normal 0 0 -1
    outer loop
      vertex 13.7262 18.5041 17
      vertex 18 20.5 17
      vertex 14.0692 17.9099 17
    endloop
  endfacet
  facet normal 0 0 -1
    outer loop
      vertex 13.1711 18.9073 17
      vertex 18 20.5 17
      vertex 13.7262 18.5041 17
    endloop
  endfacet
  facet normal 0 0 -1
    outer loop
      vertex 12.5 19.05 17
      vertex 18 20.5 17
      vertex 13.1711 18.9073 17
    endloop
  endfacet
  facet normal 0 0 -1
    outer loop
      vertex 7 20.5 17
      vertex 12.5 19.05 17
      vertex 11.8289 18.9073 17
    endloop
  endfacet
  facet normal 0 0 -1
    outer loop
      vertex 7 20.5 17
      vertex 10.859 17.2275 17
      vertex 8 14 17
    endloop
  endfacet
  facet normal 0 0 -1
    outer loop
      vertex 10.859 17.2275 17
      vertex 7 20.5 17
      vertex 10.9308 17.9099 17
    endloop
  endfacet
  facet normal 0 0 -1
    outer loop
      vertex 12.5 19.05 17
      vertex 7 20.5 17
      vertex 18 20.5 17
    endloop
  endfacet
  facet normal 0 0 -1
    outer loop
      vertex 11.2738 18.5041 17
      vertex 7 20.5 17
      vertex 11.8289 18.9073 17
    endloop
  endfacet
  facet normal 0 0 -1
    outer loop
      vertex 10.9308 17.9099 17
      vertex 7 20.5 17
      vertex 11.2738 18.5041 17
    endloop
  endfacet
  facet normal 0 0 -1
    outer loop
      vertex 7 20.5 17
      vertex 8 14 17
      vertex 7 -4.5 17
    endloop
  endfacet
  facet normal 0 0 -1
    outer loop
      vertex 14.0692 -0.890122 17
      vertex 17 2 17
      vertex 14.141 -1.57247 17
    endloop
  endfacet
  facet normal 0 0 -1
    outer loop
      vertex 13.7262 -0.295935 17
      vertex 17 2 17
      vertex 14.0692 -0.890122 17
    endloop
  endfacet
  facet normal 0 0 -1
    outer loop
      vertex 13.1711 0.107349 17
      vertex 17 2 17
      vertex 13.7262 -0.295935 17
    endloop
  endfacet
  facet normal 0 0 -1
    outer loop
      vertex 12.5 0.25 17
      vertex 17 2 17
      vertex 13.1711 0.107349 17
    endloop
  endfacet
  facet normal 0 0 -1
    outer loop
      vertex 8 2 17
      vertex 12.5 0.25 17
      vertex 11.8289 0.107349 17
    endloop
  endfacet
  facet normal 0 0 -1
    outer loop
      vertex 12.5 0.25 17
      vertex 8 2 17
      vertex 17 2 17
    endloop
  endfacet
  facet normal 0 0 -1
    outer loop
      vertex 11.2738 -0.295935 17
      vertex 8 2 17
      vertex 11.8289 0.107349 17
    endloop
  endfacet
  facet normal 0 0 -1
    outer loop
      vertex 10.9308 -0.890122 17
      vertex 8 2 17
      vertex 11.2738 -0.295935 17
    endloop
  endfacet
  facet normal 0 0 -1
    outer loop
      vertex 8 2 17
      vertex 10.9308 -0.890122 17
      vertex 10.859 -1.57247 17
    endloop
  endfacet
  facet normal 1 -0 0
    outer loop
      vertex 18 -4.5 21
      vertex 18 20.5 17
      vertex 18 20.5 21
    endloop
  endfacet
  facet normal 1 0 0
    outer loop
      vertex 18 20.5 17
      vertex 18 -4.5 21
      vertex 18 -4.5 17
    endloop
  endfacet
  facet normal 0.207918 -0.978146 0
    outer loop
      vertex 11.8289 0.107349 17
      vertex 12.5 0.25 21
      vertex 11.8289 0.107349 21
    endloop
  endfacet
  facet normal 0.207918 -0.978146 0
    outer loop
      vertex 12.5 0.25 21
      vertex 11.8289 0.107349 17
      vertex 12.5 0.25 17
    endloop
  endfacet
  facet normal 0 1 -0
    outer loop
      vertex 12.8431 -3.01394 17
      vertex 12.1569 -3.01394 21
      vertex 12.8431 -3.01394 21
    endloop
  endfacet
  facet normal 0 1 0
    outer loop
      vertex 12.1569 -3.01394 21
      vertex 12.8431 -3.01394 17
      vertex 12.1569 -3.01394 17
    endloop
  endfacet
  facet normal 0.951022 0.309123 0
    outer loop
      vertex 11.0711 -2.225 21
      vertex 10.859 -1.57247 17
      vertex 10.859 -1.57247 21
    endloop
  endfacet
  facet normal 0.951022 0.309123 0
    outer loop
      vertex 10.859 -1.57247 17
      vertex 11.0711 -2.225 21
      vertex 11.0711 -2.225 17
    endloop
  endfacet
  facet normal 0.743143 0.669132 0
    outer loop
      vertex 11.5302 -2.73488 21
      vertex 11.0711 -2.225 17
      vertex 11.0711 -2.225 21
    endloop
  endfacet
  facet normal 0.743143 0.669132 0
    outer loop
      vertex 11.0711 -2.225 17
      vertex 11.5302 -2.73488 21
      vertex 11.5302 -2.73488 17
    endloop
  endfacet
  facet normal -0.994509 -0.104647 0
    outer loop
      vertex 14.141 -1.57247 17
      vertex 14.0692 -0.890122 21
      vertex 14.0692 -0.890122 17
    endloop
  endfacet
  facet normal -0.994509 -0.104647 0
    outer loop
      vertex 14.0692 -0.890122 21
      vertex 14.141 -1.57247 17
      vertex 14.141 -1.57247 21
    endloop
  endfacet
  facet normal -0.866059 -0.499941 0
    outer loop
      vertex 14.0692 -0.890122 17
      vertex 13.7262 -0.295935 21
      vertex 13.7262 -0.295935 17
    endloop
  endfacet
  facet normal -0.866059 -0.499941 0
    outer loop
      vertex 13.7262 -0.295935 21
      vertex 14.0692 -0.890122 17
      vertex 14.0692 -0.890122 21
    endloop
  endfacet
  facet normal 0.866059 -0.499941 0
    outer loop
      vertex 10.9308 -0.890122 21
      vertex 11.2738 -0.295935 17
      vertex 11.2738 -0.295935 21
    endloop
  endfacet
  facet normal 0.866059 -0.499941 0
    outer loop
      vertex 11.2738 -0.295935 17
      vertex 10.9308 -0.890122 21
      vertex 10.9308 -0.890122 17
    endloop
  endfacet
  facet normal 0.587766 -0.809031 0
    outer loop
      vertex 11.2738 -0.295935 17
      vertex 11.8289 0.107349 21
      vertex 11.2738 -0.295935 21
    endloop
  endfacet
  facet normal 0.587766 -0.809031 0
    outer loop
      vertex 11.8289 0.107349 21
      vertex 11.2738 -0.295935 17
      vertex 11.8289 0.107349 17
    endloop
  endfacet
  facet normal 0.994509 -0.104647 0
    outer loop
      vertex 10.859 -1.57247 21
      vertex 10.9308 -0.890122 17
      vertex 10.9308 -0.890122 21
    endloop
  endfacet
  facet normal 0.994509 -0.104647 0
    outer loop
      vertex 10.9308 -0.890122 17
      vertex 10.859 -1.57247 21
      vertex 10.859 -1.57247 17
    endloop
  endfacet
  facet normal 0.406779 0.913526 -0
    outer loop
      vertex 12.1569 -3.01394 17
      vertex 11.5302 -2.73488 21
      vertex 12.1569 -3.01394 21
    endloop
  endfacet
  facet normal 0.406779 0.913526 0
    outer loop
      vertex 11.5302 -2.73488 21
      vertex 12.1569 -3.01394 17
      vertex 11.5302 -2.73488 17
    endloop
  endfacet
  facet normal -0.951022 0.309123 0
    outer loop
      vertex 13.9289 -2.225 17
      vertex 14.141 -1.57247 21
      vertex 14.141 -1.57247 17
    endloop
  endfacet
  facet normal -0.951022 0.309123 0
    outer loop
      vertex 14.141 -1.57247 21
      vertex 13.9289 -2.225 17
      vertex 13.9289 -2.225 21
    endloop
  endfacet
  facet normal -0.406779 0.913526 0
    outer loop
      vertex 13.4698 -2.73488 17
      vertex 12.8431 -3.01394 21
      vertex 13.4698 -2.73488 21
    endloop
  endfacet
  facet normal -0.406779 0.913526 0
    outer loop
      vertex 12.8431 -3.01394 21
      vertex 13.4698 -2.73488 17
      vertex 12.8431 -3.01394 17
    endloop
  endfacet
  facet normal -0.587766 -0.809031 0
    outer loop
      vertex 13.1711 0.107349 17
      vertex 13.7262 -0.295935 21
      vertex 13.1711 0.107349 21
    endloop
  endfacet
  facet normal -0.587766 -0.809031 -0
    outer loop
      vertex 13.7262 -0.295935 21
      vertex 13.1711 0.107349 17
      vertex 13.7262 -0.295935 17
    endloop
  endfacet
  facet normal -0.207918 -0.978146 0
    outer loop
      vertex 12.5 0.25 17
      vertex 13.1711 0.107349 21
      vertex 12.5 0.25 21
    endloop
  endfacet
  facet normal -0.207918 -0.978146 -0
    outer loop
      vertex 13.1711 0.107349 21
      vertex 12.5 0.25 17
      vertex 13.1711 0.107349 17
    endloop
  endfacet
  facet normal -0.743143 0.669132 0
    outer loop
      vertex 13.4698 -2.73488 17
      vertex 13.9289 -2.225 21
      vertex 13.9289 -2.225 17
    endloop
  endfacet
  facet normal -0.743143 0.669132 0
    outer loop
      vertex 13.9289 -2.225 21
      vertex 13.4698 -2.73488 17
      vertex 13.4698 -2.73488 21
    endloop
  endfacet
  facet normal 0.207986 -0.978132 0
    outer loop
      vertex 11.8289 18.9073 17
      vertex 12.5 19.05 21
      vertex 11.8289 18.9073 21
    endloop
  endfacet
  facet normal 0.207986 -0.978132 0
    outer loop
      vertex 12.5 19.05 21
      vertex 11.8289 18.9073 17
      vertex 12.5 19.05 17
    endloop
  endfacet
  facet normal 0 1 -0
    outer loop
      vertex 12.8431 15.7861 17
      vertex 12.1569 15.7861 21
      vertex 12.8431 15.7861 21
    endloop
  endfacet
  facet normal 0 1 0
    outer loop
      vertex 12.1569 15.7861 21
      vertex 12.8431 15.7861 17
      vertex 12.1569 15.7861 17
    endloop
  endfacet
  facet normal 0.951018 0.309136 0
    outer loop
      vertex 11.0711 16.575 21
      vertex 10.859 17.2275 17
      vertex 10.859 17.2275 21
    endloop
  endfacet
  facet normal 0.951018 0.309136 0
    outer loop
      vertex 10.859 17.2275 17
      vertex 11.0711 16.575 21
      vertex 11.0711 16.575 17
    endloop
  endfacet
  facet normal -0.99451 -0.104639 0
    outer loop
      vertex 14.141 17.2275 17
      vertex 14.0692 17.9099 21
      vertex 14.0692 17.9099 17
    endloop
  endfacet
  facet normal -0.99451 -0.104639 0
    outer loop
      vertex 14.0692 17.9099 21
      vertex 14.141 17.2275 17
      vertex 14.141 17.2275 21
    endloop
  endfacet
  facet normal -0.866064 -0.499933 0
    outer loop
      vertex 14.0692 17.9099 17
      vertex 13.7262 18.5041 21
      vertex 13.7262 18.5041 17
    endloop
  endfacet
  facet normal -0.866064 -0.499933 0
    outer loop
      vertex 13.7262 18.5041 21
      vertex 14.0692 17.9099 17
      vertex 14.0692 17.9099 21
    endloop
  endfacet
  facet normal 0.866064 -0.499933 0
    outer loop
      vertex 10.9308 17.9099 21
      vertex 11.2738 18.5041 17
      vertex 11.2738 18.5041 21
    endloop
  endfacet
  facet normal 0.866064 -0.499933 0
    outer loop
      vertex 11.2738 18.5041 17
      vertex 10.9308 17.9099 21
      vertex 10.9308 17.9099 17
    endloop
  endfacet
  facet normal 0.587686 -0.809089 0
    outer loop
      vertex 11.2738 18.5041 17
      vertex 11.8289 18.9073 21
      vertex 11.2738 18.5041 21
    endloop
  endfacet
  facet normal 0.587686 -0.809089 0
    outer loop
      vertex 11.8289 18.9073 21
      vertex 11.2738 18.5041 17
      vertex 11.8289 18.9073 17
    endloop
  endfacet
  facet normal 0.99451 -0.104639 0
    outer loop
      vertex 10.859 17.2275 21
      vertex 10.9308 17.9099 17
      vertex 10.9308 17.9099 21
    endloop
  endfacet
  facet normal 0.99451 -0.104639 0
    outer loop
      vertex 10.9308 17.9099 17
      vertex 10.859 17.2275 21
      vertex 10.859 17.2275 17
    endloop
  endfacet
  facet normal 0.406706 0.913559 -0
    outer loop
      vertex 12.1569 15.7861 17
      vertex 11.5302 16.0651 21
      vertex 12.1569 15.7861 21
    endloop
  endfacet
  facet normal 0.406706 0.913559 0
    outer loop
      vertex 11.5302 16.0651 21
      vertex 12.1569 15.7861 17
      vertex 11.5302 16.0651 17
    endloop
  endfacet
  facet normal 0.743156 0.669118 0
    outer loop
      vertex 11.5302 16.0651 21
      vertex 11.0711 16.575 17
      vertex 11.0711 16.575 21
    endloop
  endfacet
  facet normal 0.743156 0.669118 0
    outer loop
      vertex 11.0711 16.575 17
      vertex 11.5302 16.0651 21
      vertex 11.5302 16.0651 17
    endloop
  endfacet
  facet normal -0.951018 0.309136 0
    outer loop
      vertex 13.9289 16.575 17
      vertex 14.141 17.2275 21
      vertex 14.141 17.2275 17
    endloop
  endfacet
  facet normal -0.951018 0.309136 0
    outer loop
      vertex 14.141 17.2275 21
      vertex 13.9289 16.575 17
      vertex 13.9289 16.575 21
    endloop
  endfacet
  facet normal -0.587686 -0.809089 0
    outer loop
      vertex 13.1711 18.9073 17
      vertex 13.7262 18.5041 21
      vertex 13.1711 18.9073 21
    endloop
  endfacet
  facet normal -0.587686 -0.809089 -0
    outer loop
      vertex 13.7262 18.5041 21
      vertex 13.1711 18.9073 17
      vertex 13.7262 18.5041 17
    endloop
  endfacet
  facet normal -0.207986 -0.978132 0
    outer loop
      vertex 12.5 19.05 17
      vertex 13.1711 18.9073 21
      vertex 12.5 19.05 21
    endloop
  endfacet
  facet normal -0.207986 -0.978132 -0
    outer loop
      vertex 13.1711 18.9073 21
      vertex 12.5 19.05 17
      vertex 13.1711 18.9073 17
    endloop
  endfacet
  facet normal -0.743156 0.669118 0
    outer loop
      vertex 13.4698 16.0651 17
      vertex 13.9289 16.575 21
      vertex 13.9289 16.575 17
    endloop
  endfacet
  facet normal -0.743156 0.669118 0
    outer loop
      vertex 13.9289 16.575 21
      vertex 13.4698 16.0651 17
      vertex 13.4698 16.0651 21
    endloop
  endfacet
  facet normal -0.406706 0.913559 0
    outer loop
      vertex 13.4698 16.0651 17
      vertex 12.8431 15.7861 21
      vertex 13.4698 16.0651 21
    endloop
  endfacet
  facet normal -0.406706 0.913559 0
    outer loop
      vertex 12.8431 15.7861 21
      vertex 13.4698 16.0651 17
      vertex 12.8431 15.7861 17
    endloop
  endfacet
  facet normal -1 0 0
    outer loop
      vertex 8 2 4
      vertex 8 14 17
      vertex 8 14 4
    endloop
  endfacet
  facet normal -1 -0 0
    outer loop
      vertex 8 14 17
      vertex 8 2 4
      vertex 8 2 17
    endloop
  endfacet
  facet normal 1 -0 0
    outer loop
      vertex 17 2 17
      vertex 17 14 4
      vertex 17 14 17
    endloop
  endfacet
  facet normal 1 0 0
    outer loop
      vertex 17 14 4
      vertex 17 2 17
      vertex 17 2 4
    endloop
  endfacet
  facet normal 0 -1 0
    outer loop
      vertex 8 2 4
      vertex 17 2 17
      vertex 8 2 17
    endloop
  endfacet
  facet normal 0 -1 -0
    outer loop
      vertex 17 2 17
      vertex 8 2 4
      vertex 17 2 4
    endloop
  endfacet
  facet normal 0 1 -0
    outer loop
      vertex 17 14 4
      vertex 8 14 17
      vertex 17 14 17
    endloop
  endfacet
  facet normal 0 1 0
    outer loop
      vertex 8 14 17
      vertex 17 14 4
      vertex 8 14 4
    endloop
  endfacet
endsolid OpenSCAD_Model
