solid OpenSCAD_Model
  facet normal -1 0 0
    outer loop
      vertex 0 10.05 0
      vertex 0 20.05 1.5
      vertex 0 20.05 0
    endloop
  endfacet
  facet normal -1 -0 0
    outer loop
      vertex 0 20.05 1.5
      vertex 0 10.05 0
      vertex 0 10.05 1.5
    endloop
  endfacet
  facet normal -0 0 1
    outer loop
      vertex 0 20.05 1.5
      vertex 20 10.05 1.5
      vertex 20 20.05 1.5
    endloop
  endfacet
  facet normal 0 0 1
    outer loop
      vertex 20 10.05 1.5
      vertex 0 20.05 1.5
      vertex 0 10.05 1.5
    endloop
  endfacet
  facet normal 1 -0 0
    outer loop
      vertex 20 10.05 1.5
      vertex 20 20.05 0
      vertex 20 20.05 1.5
    endloop
  endfacet
  facet normal 1 0 0
    outer loop
      vertex 20 20.05 0
      vertex 20 10.05 1.5
      vertex 20 10.05 0
    endloop
  endfacet
  facet normal 0 1 -0
    outer loop
      vertex 20 20.05 0
      vertex 0 20.05 1.5
      vertex 20 20.05 1.5
    endloop
  endfacet
  facet normal 0 1 0
    outer loop
      vertex 0 20.05 1.5
      vertex 20 20.05 0
      vertex 0 20.05 0
    endloop
  endfacet
  facet normal 0 0 -1
    outer loop
      vertex 0 10.05 0
      vertex 20 20.05 0
      vertex 20 10.05 0
    endloop
  endfacet
  facet normal -0 0 -1
    outer loop
      vertex 20 20.05 0
      vertex 0 10.05 0
      vertex 0 20.05 0
    endloop
  endfacet
  facet normal 0 -1 0
    outer loop
      vertex 0 10.05 0
      vertex 20 10.05 1.5
      vertex 0 10.05 1.5
    endloop
  endfacet
  facet normal 0 -1 -0
    outer loop
      vertex 20 10.05 1.5
      vertex 0 10.05 0
      vertex 20 10.05 0
    endloop
  endfacet
  facet normal -1 0 0
    outer loop
      vertex 0 20.1 0
      vertex 0 30.1 1.5
      vertex 0 30.1 0
    endloop
  endfacet
  facet normal -1 -0 0
    outer loop
      vertex 0 30.1 1.5
      vertex 0 20.1 0
      vertex 0 20.1 1.5
    endloop
  endfacet
  facet normal -0 0 1
    outer loop
      vertex 0 30.1 1.5
      vertex 20 20.1 1.5
      vertex 20 30.1 1.5
    endloop
  endfacet
  facet normal 0 0 1
    outer loop
      vertex 20 20.1 1.5
      vertex 0 30.1 1.5
      vertex 0 20.1 1.5
    endloop
  endfacet
  facet normal 1 -0 0
    outer loop
      vertex 20 20.1 1.5
      vertex 20 30.1 0
      vertex 20 30.1 1.5
    endloop
  endfacet
  facet normal 1 0 0
    outer loop
      vertex 20 30.1 0
      vertex 20 20.1 1.5
      vertex 20 20.1 0
    endloop
  endfacet
  facet normal 0 1 -0
    outer loop
      vertex 20 30.1 0
      vertex 0 30.1 1.5
      vertex 20 30.1 1.5
    endloop
  endfacet
  facet normal 0 1 0
    outer loop
      vertex 0 30.1 1.5
      vertex 20 30.1 0
      vertex 0 30.1 0
    endloop
  endfacet
  facet normal 0 0 -1
    outer loop
      vertex 0 20.1 0
      vertex 20 30.1 0
      vertex 20 20.1 0
    endloop
  endfacet
  facet normal -0 0 -1
    outer loop
      vertex 20 30.1 0
      vertex 0 20.1 0
      vertex 0 30.1 0
    endloop
  endfacet
  facet normal 0 -1 0
    outer loop
      vertex 0 20.1 0
      vertex 20 20.1 1.5
      vertex 0 20.1 1.5
    endloop
  endfacet
  facet normal 0 -1 -0
    outer loop
      vertex 20 20.1 1.5
      vertex 0 20.1 0
      vertex 20 20.1 0
    endloop
  endfacet
  facet normal -1 0 0
    outer loop
      vertex 0 30.15 0
      vertex 0 40.15 1.5
      vertex 0 40.15 0
    endloop
  endfacet
  facet normal -1 -0 0
    outer loop
      vertex 0 40.15 1.5
      vertex 0 30.15 0
      vertex 0 30.15 1.5
    endloop
  endfacet
  facet normal -0 0 1
    outer loop
      vertex 0 40.15 1.5
      vertex 20 30.15 1.5
      vertex 20 40.15 1.5
    endloop
  endfacet
  facet normal 0 0 1
    outer loop
      vertex 20 30.15 1.5
      vertex 0 40.15 1.5
      vertex 0 30.15 1.5
    endloop
  endfacet
  facet normal 1 -0 0
    outer loop
      vertex 20 30.15 1.5
      vertex 20 40.15 0
      vertex 20 40.15 1.5
    endloop
  endfacet
  facet normal 1 0 0
    outer loop
      vertex 20 40.15 0
      vertex 20 30.15 1.5
      vertex 20 30.15 0
    endloop
  endfacet
  facet normal 0 1 -0
    outer loop
      vertex 20 40.15 0
      vertex 0 40.15 1.5
      vertex 20 40.15 1.5
    endloop
  endfacet
  facet normal 0 1 0
    outer loop
      vertex 0 40.15 1.5
      vertex 20 40.15 0
      vertex 0 40.15 0
    endloop
  endfacet
  facet normal 0 0 -1
    outer loop
      vertex 0 30.15 0
      vertex 20 40.15 0
      vertex 20 30.15 0
    endloop
  endfacet
  facet normal -0 0 -1
    outer loop
      vertex 20 40.15 0
      vertex 0 30.15 0
      vertex 0 40.15 0
    endloop
  endfacet
  facet normal 0 -1 0
    outer loop
      vertex 0 30.15 0
      vertex 20 30.15 1.5
      vertex 0 30.15 1.5
    endloop
  endfacet
  facet normal 0 -1 -0
    outer loop
      vertex 20 30.15 1.5
      vertex 0 30.15 0
      vertex 20 30.15 0
    endloop
  endfacet
  facet normal -1 0 0
    outer loop
      vertex 0 40.2 0
      vertex 0 50.2 1.5
      vertex 0 50.2 0
    endloop
  endfacet
  facet normal -1 -0 0
    outer loop
      vertex 0 50.2 1.5
      vertex 0 40.2 0
      vertex 0 40.2 1.5
    endloop
  endfacet
  facet normal -0 0 1
    outer loop
      vertex 0 50.2 1.5
      vertex 20 40.2 1.5
      vertex 20 50.2 1.5
    endloop
  endfacet
  facet normal 0 0 1
    outer loop
      vertex 20 40.2 1.5
      vertex 0 50.2 1.5
      vertex 0 40.2 1.5
    endloop
  endfacet
  facet normal 1 -0 0
    outer loop
      vertex 20 40.2 1.5
      vertex 20 50.2 0
      vertex 20 50.2 1.5
    endloop
  endfacet
  facet normal 1 0 0
    outer loop
      vertex 20 50.2 0
      vertex 20 40.2 1.5
      vertex 20 40.2 0
    endloop
  endfacet
  facet normal 0 1 -0
    outer loop
      vertex 20 50.2 0
      vertex 0 50.2 1.5
      vertex 20 50.2 1.5
    endloop
  endfacet
  facet normal 0 1 0
    outer loop
      vertex 0 50.2 1.5
      vertex 20 50.2 0
      vertex 0 50.2 0
    endloop
  endfacet
  facet normal 0 0 -1
    outer loop
      vertex 0 40.2 0
      vertex 20 50.2 0
      vertex 20 40.2 0
    endloop
  endfacet
  facet normal -0 0 -1
    outer loop
      vertex 20 50.2 0
      vertex 0 40.2 0
      vertex 0 50.2 0
    endloop
  endfacet
  facet normal 0 -1 0
    outer loop
      vertex 0 40.2 0
      vertex 20 40.2 1.5
      vertex 0 40.2 1.5
    endloop
  endfacet
  facet normal 0 -1 -0
    outer loop
      vertex 20 40.2 1.5
      vertex 0 40.2 0
      vertex 20 40.2 0
    endloop
  endfacet
  facet normal -1 0 0
    outer loop
      vertex 0 50.25 0
      vertex 0 60.25 1.5
      vertex 0 60.25 0
    endloop
  endfacet
  facet normal -1 -0 0
    outer loop
      vertex 0 60.25 1.5
      vertex 0 50.25 0
      vertex 0 50.25 1.5
    endloop
  endfacet
  facet normal -0 0 1
    outer loop
      vertex 0 60.25 1.5
      vertex 20 50.25 1.5
      vertex 20 60.25 1.5
    endloop
  endfacet
  facet normal 0 0 1
    outer loop
      vertex 20 50.25 1.5
      vertex 0 60.25 1.5
      vertex 0 50.25 1.5
    endloop
  endfacet
  facet normal 1 -0 0
    outer loop
      vertex 20 50.25 1.5
      vertex 20 60.25 0
      vertex 20 60.25 1.5
    endloop
  endfacet
  facet normal 1 0 0
    outer loop
      vertex 20 60.25 0
      vertex 20 50.25 1.5
      vertex 20 50.25 0
    endloop
  endfacet
  facet normal 0 1 -0
    outer loop
      vertex 20 60.25 0
      vertex 0 60.25 1.5
      vertex 20 60.25 1.5
    endloop
  endfacet
  facet normal 0 1 0
    outer loop
      vertex 0 60.25 1.5
      vertex 20 60.25 0
      vertex 0 60.25 0
    endloop
  endfacet
  facet normal 0 0 -1
    outer loop
      vertex 0 50.25 0
      vertex 20 60.25 0
      vertex 20 50.25 0
    endloop
  endfacet
  facet normal -0 0 -1
    outer loop
      vertex 20 60.25 0
      vertex 0 50.25 0
      vertex 0 60.25 0
    endloop
  endfacet
  facet normal 0 -1 0
    outer loop
      vertex 0 50.25 0
      vertex 20 50.25 1.5
      vertex 0 50.25 1.5
    endloop
  endfacet
  facet normal 0 -1 -0
    outer loop
      vertex 20 50.25 1.5
      vertex 0 50.25 0
      vertex 20 50.25 0
    endloop
  endfacet
  facet normal -1 0 0
    outer loop
      vertex 0 0 0
      vertex 0 10 1.5
      vertex 0 10 0
    endloop
  endfacet
  facet normal -1 -0 0
    outer loop
      vertex 0 10 1.5
      vertex 0 0 0
      vertex 0 0 1.5
    endloop
  endfacet
  facet normal -0 0 1
    outer loop
      vertex 0 10 1.5
      vertex 20 0 1.5
      vertex 20 10 1.5
    endloop
  endfacet
  facet normal 0 0 1
    outer loop
      vertex 20 0 1.5
      vertex 0 10 1.5
      vertex 0 0 1.5
    endloop
  endfacet
  facet normal 1 -0 0
    outer loop
      vertex 20 0 1.5
      vertex 20 10 0
      vertex 20 10 1.5
    endloop
  endfacet
  facet normal 1 0 0
    outer loop
      vertex 20 10 0
      vertex 20 0 1.5
      vertex 20 0 0
    endloop
  endfacet
  facet normal 0 1 -0
    outer loop
      vertex 20 10 0
      vertex 0 10 1.5
      vertex 20 10 1.5
    endloop
  endfacet
  facet normal 0 1 0
    outer loop
      vertex 0 10 1.5
      vertex 20 10 0
      vertex 0 10 0
    endloop
  endfacet
  facet normal 0 0 -1
    outer loop
      vertex 0 0 0
      vertex 20 10 0
      vertex 20 0 0
    endloop
  endfacet
  facet normal -0 0 -1
    outer loop
      vertex 20 10 0
      vertex 0 0 0
      vertex 0 10 0
    endloop
  endfacet
  facet normal 0 -1 0
    outer loop
      vertex 0 0 0
      vertex 20 0 1.5
      vertex 0 0 1.5
    endloop
  endfacet
  facet normal 0 -1 -0
    outer loop
      vertex 20 0 1.5
      vertex 0 0 0
      vertex 20 0 0
    endloop
  endfacet
endsolid OpenSCAD_Model
