solid OpenSCAD_Model
  facet normal -0.978139 -0.207952 0
    outer loop
      vertex 3.75 2 0
      vertex 3.72874 2.1 1.5
      vertex 3.72874 2.1 0
    endloop
  endfacet
  facet normal -0.978139 -0.207952 0
    outer loop
      vertex 3.72874 2.1 1.5
      vertex 3.75 2 0
      vertex 3.75 2 1.5
    endloop
  endfacet
  facet normal 1 -0 0
    outer loop
      vertex 1.27732 1.74011 1.5
      vertex 1.27732 8.25989 0
      vertex 1.27732 8.25989 1.5
    endloop
  endfacet
  facet normal 1 0 0
    outer loop
      vertex 1.27732 8.25989 0
      vertex 1.27732 1.74011 1.5
      vertex 1.27732 1.74011 0
    endloop
  endfacet
  facet normal 0 0 -1
    outer loop
      vertex 3.75 7.8 0
      vertex 3.72874 7.9 0
      vertex 3.75 8 0
    endloop
  endfacet
  facet normal 0 0 -1
    outer loop
      vertex 3.75 7.6 0
      vertex 3.72874 7.7 0
      vertex 3.75 7.8 0
    endloop
  endfacet
  facet normal 0 0 -1
    outer loop
      vertex 3.75 7.4 0
      vertex 3.72874 7.5 0
      vertex 3.75 7.6 0
    endloop
  endfacet
  facet normal 0 0 -1
    outer loop
      vertex 3.75 7.2 0
      vertex 3.72874 7.3 0
      vertex 3.75 7.4 0
    endloop
  endfacet
  facet normal 0 0 -1
    outer loop
      vertex 3.75 7 0
      vertex 3.72874 7.1 0
      vertex 3.75 7.2 0
    endloop
  endfacet
  facet normal 0 0 -1
    outer loop
      vertex 3.75 6.8 0
      vertex 3.72874 6.9 0
      vertex 3.75 7 0
    endloop
  endfacet
  facet normal 0 0 -1
    outer loop
      vertex 3.75 6.6 0
      vertex 3.72874 6.7 0
      vertex 3.75 6.8 0
    endloop
  endfacet
  facet normal 0 0 -1
    outer loop
      vertex 3.75 6.4 0
      vertex 3.72874 6.5 0
      vertex 3.75 6.6 0
    endloop
  endfacet
  facet normal 0 0 -1
    outer loop
      vertex 3.75 6.2 0
      vertex 3.72874 6.3 0
      vertex 3.75 6.4 0
    endloop
  endfacet
  facet normal 0 0 -1
    outer loop
      vertex 3.75 6 0
      vertex 3.72874 6.1 0
      vertex 3.75 6.2 0
    endloop
  endfacet
  facet normal 0 0 -1
    outer loop
      vertex 3.75 5.8 0
      vertex 3.72874 5.9 0
      vertex 3.75 6 0
    endloop
  endfacet
  facet normal 0 0 -1
    outer loop
      vertex 3.75 5.6 0
      vertex 3.72874 5.7 0
      vertex 3.75 5.8 0
    endloop
  endfacet
  facet normal 0 0 -1
    outer loop
      vertex 3.75 5.4 0
      vertex 3.72874 5.5 0
      vertex 3.75 5.6 0
    endloop
  endfacet
  facet normal 0 0 -1
    outer loop
      vertex 3.75 5.2 0
      vertex 3.72874 5.3 0
      vertex 3.75 5.4 0
    endloop
  endfacet
  facet normal 0 0 -1
    outer loop
      vertex 3.75 5 0
      vertex 3.72874 5.1 0
      vertex 3.75 5.2 0
    endloop
  endfacet
  facet normal 0 0 -1
    outer loop
      vertex 3.75 4.8 0
      vertex 3.72874 4.9 0
      vertex 3.75 5 0
    endloop
  endfacet
  facet normal 0 0 -1
    outer loop
      vertex 3.75 4.6 0
      vertex 3.72874 4.7 0
      vertex 3.75 4.8 0
    endloop
  endfacet
  facet normal 0 0 -1
    outer loop
      vertex 3.75 4.4 0
      vertex 3.72874 4.5 0
      vertex 3.75 4.6 0
    endloop
  endfacet
  facet normal 0 0 -1
    outer loop
      vertex 3.75 4.2 0
      vertex 3.72874 4.3 0
      vertex 3.75 4.4 0
    endloop
  endfacet
  facet normal 0 0 -1
    outer loop
      vertex 3.75 4 0
      vertex 3.72874 4.1 0
      vertex 3.75 4.2 0
    endloop
  endfacet
  facet normal 0 0 -1
    outer loop
      vertex 3.75 3.8 0
      vertex 3.72874 3.9 0
      vertex 3.75 4 0
    endloop
  endfacet
  facet normal 0 0 -1
    outer loop
      vertex 3.75 3.6 0
      vertex 3.72874 3.7 0
      vertex 3.75 3.8 0
    endloop
  endfacet
  facet normal 0 0 -1
    outer loop
      vertex 3.75 3.4 0
      vertex 3.72874 3.5 0
      vertex 3.75 3.6 0
    endloop
  endfacet
  facet normal 0 0 -1
    outer loop
      vertex 3.75 3.2 0
      vertex 3.72874 3.3 0
      vertex 3.75 3.4 0
    endloop
  endfacet
  facet normal 0 0 -1
    outer loop
      vertex 3.75 3 0
      vertex 3.72874 3.1 0
      vertex 3.75 3.2 0
    endloop
  endfacet
  facet normal 0 0 -1
    outer loop
      vertex 3.75 2.8 0
      vertex 3.72874 2.9 0
      vertex 3.75 3 0
    endloop
  endfacet
  facet normal 0 0 -1
    outer loop
      vertex 3.75 2.6 0
      vertex 3.72874 2.7 0
      vertex 3.75 2.8 0
    endloop
  endfacet
  facet normal 0 0 -1
    outer loop
      vertex 3.75 2.4 0
      vertex 3.72874 2.5 0
      vertex 3.75 2.6 0
    endloop
  endfacet
  facet normal 0 0 -1
    outer loop
      vertex 3.75 2.2 0
      vertex 3.72874 2.3 0
      vertex 3.75 2.4 0
    endloop
  endfacet
  facet normal 0 0 -1
    outer loop
      vertex 3.75 2 0
      vertex 3.72874 2.1 0
      vertex 3.75 2.2 0
    endloop
  endfacet
  facet normal 0 0 -1
    outer loop
      vertex 8.75 7.8 0
      vertex 8.72874 7.9 0
      vertex 8.75 8 0
    endloop
  endfacet
  facet normal 0 0 -1
    outer loop
      vertex 8.75 7.6 0
      vertex 8.72874 7.7 0
      vertex 8.75 7.8 0
    endloop
  endfacet
  facet normal 0 0 -1
    outer loop
      vertex 8.75 7.4 0
      vertex 8.72874 7.5 0
      vertex 8.75 7.6 0
    endloop
  endfacet
  facet normal 0 0 -1
    outer loop
      vertex 8.75 7.2 0
      vertex 8.72874 7.3 0
      vertex 8.75 7.4 0
    endloop
  endfacet
  facet normal 0 0 -1
    outer loop
      vertex 8.75 7 0
      vertex 8.72874 7.1 0
      vertex 8.75 7.2 0
    endloop
  endfacet
  facet normal 0 0 -1
    outer loop
      vertex 8.75 6.8 0
      vertex 8.72874 6.9 0
      vertex 8.75 7 0
    endloop
  endfacet
  facet normal 0 0 -1
    outer loop
      vertex 8.75 6.6 0
      vertex 8.72874 6.7 0
      vertex 8.75 6.8 0
    endloop
  endfacet
  facet normal 0 0 -1
    outer loop
      vertex 8.75 6.4 0
      vertex 8.72874 6.5 0
      vertex 8.75 6.6 0
    endloop
  endfacet
  facet normal 0 0 -1
    outer loop
      vertex 8.75 6.2 0
      vertex 8.72874 6.3 0
      vertex 8.75 6.4 0
    endloop
  endfacet
  facet normal 0 0 -1
    outer loop
      vertex 8.75 6 0
      vertex 8.72874 6.1 0
      vertex 8.75 6.2 0
    endloop
  endfacet
  facet normal 0 0 -1
    outer loop
      vertex 8.75 5.8 0
      vertex 8.72874 5.9 0
      vertex 8.75 6 0
    endloop
  endfacet
  facet normal 0 0 -1
    outer loop
      vertex 8.75 5.6 0
      vertex 8.72874 5.7 0
      vertex 8.75 5.8 0
    endloop
  endfacet
  facet normal 0 0 -1
    outer loop
      vertex 8.75 5.4 0
      vertex 8.72874 5.5 0
      vertex 8.75 5.6 0
    endloop
  endfacet
  facet normal 0 0 -1
    outer loop
      vertex 8.75 5.2 0
      vertex 8.72874 5.3 0
      vertex 8.75 5.4 0
    endloop
  endfacet
  facet normal 0 0 -1
    outer loop
      vertex 8.75 5 0
      vertex 8.72874 5.1 0
      vertex 8.75 5.2 0
    endloop
  endfacet
  facet normal 0 0 -1
    outer loop
      vertex 8.75 4.8 0
      vertex 8.72874 4.9 0
      vertex 8.75 5 0
    endloop
  endfacet
  facet normal 0 0 -1
    outer loop
      vertex 8.75 4.6 0
      vertex 8.72874 4.7 0
      vertex 8.75 4.8 0
    endloop
  endfacet
  facet normal 0 0 -1
    outer loop
      vertex 8.75 4.4 0
      vertex 8.72874 4.5 0
      vertex 8.75 4.6 0
    endloop
  endfacet
  facet normal 0 0 -1
    outer loop
      vertex 8.75 4.2 0
      vertex 8.72874 4.3 0
      vertex 8.75 4.4 0
    endloop
  endfacet
  facet normal 0 0 -1
    outer loop
      vertex 8.75 4 0
      vertex 8.72874 4.1 0
      vertex 8.75 4.2 0
    endloop
  endfacet
  facet normal 0 0 -1
    outer loop
      vertex 8.75 3.8 0
      vertex 8.72874 3.9 0
      vertex 8.75 4 0
    endloop
  endfacet
  facet normal 0 0 -1
    outer loop
      vertex 8.75 3.6 0
      vertex 8.72874 3.7 0
      vertex 8.75 3.8 0
    endloop
  endfacet
  facet normal 0 0 -1
    outer loop
      vertex 8.75 3.4 0
      vertex 8.72874 3.5 0
      vertex 8.75 3.6 0
    endloop
  endfacet
  facet normal 0 0 -1
    outer loop
      vertex 8.75 3.2 0
      vertex 8.72874 3.3 0
      vertex 8.75 3.4 0
    endloop
  endfacet
  facet normal 0 0 -1
    outer loop
      vertex 8.75 3 0
      vertex 8.72874 3.1 0
      vertex 8.75 3.2 0
    endloop
  endfacet
  facet normal 0 0 -1
    outer loop
      vertex 8.75 2.8 0
      vertex 8.72874 2.9 0
      vertex 8.75 3 0
    endloop
  endfacet
  facet normal 0 0 -1
    outer loop
      vertex 8.75 2.6 0
      vertex 8.72874 2.7 0
      vertex 8.75 2.8 0
    endloop
  endfacet
  facet normal 0 0 -1
    outer loop
      vertex 8.75 2.4 0
      vertex 8.72874 2.5 0
      vertex 8.75 2.6 0
    endloop
  endfacet
  facet normal 0 0 -1
    outer loop
      vertex 8.75 2.2 0
      vertex 8.72874 2.3 0
      vertex 8.75 2.4 0
    endloop
  endfacet
  facet normal 0 0 -1
    outer loop
      vertex 8.75 2 0
      vertex 8.72874 2.1 0
      vertex 8.75 2.2 0
    endloop
  endfacet
  facet normal 0 0 -1
    outer loop
      vertex 8.75 2.2 0
      vertex 10 0 0
      vertex 8.75 2 0
    endloop
  endfacet
  facet normal 0 0 -1
    outer loop
      vertex 10 0 0
      vertex 8.64193 1.49158 0
      vertex 8.75 2 0
    endloop
  endfacet
  facet normal 0 0 -1
    outer loop
      vertex 10 0 0
      vertex 8.33641 1.07107 0
      vertex 8.64193 1.49158 0
    endloop
  endfacet
  facet normal 0 0 -1
    outer loop
      vertex 10 0 0
      vertex 7.88627 0.811179 0
      vertex 8.33641 1.07107 0
    endloop
  endfacet
  facet normal 0 0 -1
    outer loop
      vertex 10 0 0
      vertex 7.36934 0.756847 0
      vertex 7.88627 0.811179 0
    endloop
  endfacet
  facet normal 0 0 -1
    outer loop
      vertex 3.75 2.2 0
      vertex 6.27732 1.74011 0
      vertex 3.75 2 0
    endloop
  endfacet
  facet normal 0 0 -1
    outer loop
      vertex 3.64193 1.49158 0
      vertex 6.27732 1.74011 0
      vertex 6.48873 1.26527 0
    endloop
  endfacet
  facet normal 0 0 -1
    outer loop
      vertex 3.33641 1.07107 0
      vertex 6.48873 1.26527 0
      vertex 6.875 0.917468 0
    endloop
  endfacet
  facet normal -0 0 -1
    outer loop
      vertex 6.27732 1.74011 0
      vertex 3.64193 1.49158 0
      vertex 3.75 2 0
    endloop
  endfacet
  facet normal 0 0 -1
    outer loop
      vertex 2.88627 0.811179 0
      vertex 6.875 0.917468 0
      vertex 7.36934 0.756847 0
    endloop
  endfacet
  facet normal 0 0 -1
    outer loop
      vertex 2.88627 0.811179 0
      vertex 7.36934 0.756847 0
      vertex 10 0 0
    endloop
  endfacet
  facet normal -0 0 -1
    outer loop
      vertex 6.48873 1.26527 0
      vertex 3.33641 1.07107 0
      vertex 3.64193 1.49158 0
    endloop
  endfacet
  facet normal -0 0 -1
    outer loop
      vertex 6.875 0.917468 0
      vertex 2.88627 0.811179 0
      vertex 3.33641 1.07107 0
    endloop
  endfacet
  facet normal 0 0 -1
    outer loop
      vertex 0 0 0
      vertex 2.88627 0.811179 0
      vertex 10 0 0
    endloop
  endfacet
  facet normal -0 0 -1
    outer loop
      vertex 1.27732 1.74011 0
      vertex 0 0 0
      vertex 1.27732 8.25989 0
    endloop
  endfacet
  facet normal -0 0 -1
    outer loop
      vertex 1.48873 1.26527 0
      vertex 0 0 0
      vertex 1.27732 1.74011 0
    endloop
  endfacet
  facet normal -0 0 -1
    outer loop
      vertex 1.875 0.917468 0
      vertex 0 0 0
      vertex 1.48873 1.26527 0
    endloop
  endfacet
  facet normal -0 0 -1
    outer loop
      vertex 2.36934 0.756847 0
      vertex 0 0 0
      vertex 1.875 0.917468 0
    endloop
  endfacet
  facet normal 0 0 -1
    outer loop
      vertex 2.88627 0.811179 0
      vertex 0 0 0
      vertex 2.36934 0.756847 0
    endloop
  endfacet
  facet normal 0 0 -1
    outer loop
      vertex 8.75 2.4 0
      vertex 10 0 0
      vertex 8.75 2.2 0
    endloop
  endfacet
  facet normal 0 0 -1
    outer loop
      vertex 8.75 2.6 0
      vertex 10 0 0
      vertex 8.75 2.4 0
    endloop
  endfacet
  facet normal 0 0 -1
    outer loop
      vertex 8.75 2.8 0
      vertex 10 0 0
      vertex 8.75 2.6 0
    endloop
  endfacet
  facet normal 0 0 -1
    outer loop
      vertex 8.75 3 0
      vertex 10 0 0
      vertex 8.75 2.8 0
    endloop
  endfacet
  facet normal 0 0 -1
    outer loop
      vertex 8.75 3.2 0
      vertex 10 0 0
      vertex 8.75 3 0
    endloop
  endfacet
  facet normal 0 0 -1
    outer loop
      vertex 8.75 3.4 0
      vertex 10 0 0
      vertex 8.75 3.2 0
    endloop
  endfacet
  facet normal 0 0 -1
    outer loop
      vertex 8.75 3.6 0
      vertex 10 0 0
      vertex 8.75 3.4 0
    endloop
  endfacet
  facet normal 0 0 -1
    outer loop
      vertex 8.75 3.8 0
      vertex 10 0 0
      vertex 8.75 3.6 0
    endloop
  endfacet
  facet normal 0 0 -1
    outer loop
      vertex 8.75 4 0
      vertex 10 0 0
      vertex 8.75 3.8 0
    endloop
  endfacet
  facet normal 0 0 -1
    outer loop
      vertex 8.75 4.2 0
      vertex 10 0 0
      vertex 8.75 4 0
    endloop
  endfacet
  facet normal 0 0 -1
    outer loop
      vertex 8.75 4.4 0
      vertex 10 0 0
      vertex 8.75 4.2 0
    endloop
  endfacet
  facet normal 0 0 -1
    outer loop
      vertex 8.75 4.6 0
      vertex 10 0 0
      vertex 8.75 4.4 0
    endloop
  endfacet
  facet normal 0 0 -1
    outer loop
      vertex 8.75 4.8 0
      vertex 10 0 0
      vertex 8.75 4.6 0
    endloop
  endfacet
  facet normal 0 0 -1
    outer loop
      vertex 8.75 5 0
      vertex 10 0 0
      vertex 8.75 4.8 0
    endloop
  endfacet
  facet normal 0 0 -1
    outer loop
      vertex 8.75 5.2 0
      vertex 10 0 0
      vertex 8.75 5 0
    endloop
  endfacet
  facet normal 0 0 -1
    outer loop
      vertex 8.75 5.4 0
      vertex 10 0 0
      vertex 8.75 5.2 0
    endloop
  endfacet
  facet normal 0 0 -1
    outer loop
      vertex 8.75 5.6 0
      vertex 10 0 0
      vertex 8.75 5.4 0
    endloop
  endfacet
  facet normal 0 0 -1
    outer loop
      vertex 8.75 5.8 0
      vertex 10 0 0
      vertex 8.75 5.6 0
    endloop
  endfacet
  facet normal 0 0 -1
    outer loop
      vertex 8.75 6 0
      vertex 10 0 0
      vertex 8.75 5.8 0
    endloop
  endfacet
  facet normal 0 0 -1
    outer loop
      vertex 8.75 6.2 0
      vertex 10 0 0
      vertex 8.75 6 0
    endloop
  endfacet
  facet normal 0 0 -1
    outer loop
      vertex 8.75 6.4 0
      vertex 10 0 0
      vertex 8.75 6.2 0
    endloop
  endfacet
  facet normal 0 0 -1
    outer loop
      vertex 8.75 6.6 0
      vertex 10 0 0
      vertex 8.75 6.4 0
    endloop
  endfacet
  facet normal 0 0 -1
    outer loop
      vertex 8.75 6.8 0
      vertex 10 0 0
      vertex 8.75 6.6 0
    endloop
  endfacet
  facet normal 0 0 -1
    outer loop
      vertex 8.75 7 0
      vertex 10 0 0
      vertex 8.75 6.8 0
    endloop
  endfacet
  facet normal 0 0 -1
    outer loop
      vertex 8.75 7.2 0
      vertex 10 0 0
      vertex 8.75 7 0
    endloop
  endfacet
  facet normal 0 0 -1
    outer loop
      vertex 8.75 7.4 0
      vertex 10 0 0
      vertex 8.75 7.2 0
    endloop
  endfacet
  facet normal 0 0 -1
    outer loop
      vertex 8.75 7.6 0
      vertex 10 0 0
      vertex 8.75 7.4 0
    endloop
  endfacet
  facet normal 0 0 -1
    outer loop
      vertex 8.75 7.8 0
      vertex 10 0 0
      vertex 8.75 7.6 0
    endloop
  endfacet
  facet normal 0 0 -1
    outer loop
      vertex 8.75 8 0
      vertex 10 0 0
      vertex 8.75 7.8 0
    endloop
  endfacet
  facet normal 0 0 -1
    outer loop
      vertex 10 0 0
      vertex 8.75 8 0
      vertex 10 20 0
    endloop
  endfacet
  facet normal 0 0 -1
    outer loop
      vertex 8.64193 8.50842 0
      vertex 10 20 0
      vertex 8.75 8 0
    endloop
  endfacet
  facet normal 0 0 -1
    outer loop
      vertex 8.33641 8.92893 0
      vertex 10 20 0
      vertex 8.64193 8.50842 0
    endloop
  endfacet
  facet normal 0 0 -1
    outer loop
      vertex 7.88627 9.18882 0
      vertex 10 20 0
      vertex 8.33641 8.92893 0
    endloop
  endfacet
  facet normal 0 0 -1
    outer loop
      vertex 7.36934 9.24315 0
      vertex 10 20 0
      vertex 7.88627 9.18882 0
    endloop
  endfacet
  facet normal 0 0 -1
    outer loop
      vertex 6.875 9.08253 0
      vertex 10 20 0
      vertex 7.36934 9.24315 0
    endloop
  endfacet
  facet normal 0 0 -1
    outer loop
      vertex 3.33641 8.92893 0
      vertex 6.875 9.08253 0
      vertex 6.48873 8.73473 0
    endloop
  endfacet
  facet normal 0 0 -1
    outer loop
      vertex 3.64193 8.50842 0
      vertex 6.48873 8.73473 0
      vertex 6.27732 8.25989 0
    endloop
  endfacet
  facet normal 0 0 -1
    outer loop
      vertex 3.75 2.4 0
      vertex 6.27732 1.74011 0
      vertex 3.75 2.2 0
    endloop
  endfacet
  facet normal 0 0 -1
    outer loop
      vertex 3.75 2.6 0
      vertex 6.27732 1.74011 0
      vertex 3.75 2.4 0
    endloop
  endfacet
  facet normal 0 0 -1
    outer loop
      vertex 3.75 2.8 0
      vertex 6.27732 1.74011 0
      vertex 3.75 2.6 0
    endloop
  endfacet
  facet normal 0 0 -1
    outer loop
      vertex 3.75 3 0
      vertex 6.27732 1.74011 0
      vertex 3.75 2.8 0
    endloop
  endfacet
  facet normal 0 0 -1
    outer loop
      vertex 3.75 3.2 0
      vertex 6.27732 1.74011 0
      vertex 3.75 3 0
    endloop
  endfacet
  facet normal 0 0 -1
    outer loop
      vertex 3.75 3.4 0
      vertex 6.27732 1.74011 0
      vertex 3.75 3.2 0
    endloop
  endfacet
  facet normal 0 0 -1
    outer loop
      vertex 3.75 3.6 0
      vertex 6.27732 1.74011 0
      vertex 3.75 3.4 0
    endloop
  endfacet
  facet normal 0 0 -1
    outer loop
      vertex 3.75 3.8 0
      vertex 6.27732 1.74011 0
      vertex 3.75 3.6 0
    endloop
  endfacet
  facet normal 0 0 -1
    outer loop
      vertex 3.75 4 0
      vertex 6.27732 1.74011 0
      vertex 3.75 3.8 0
    endloop
  endfacet
  facet normal 0 0 -1
    outer loop
      vertex 3.75 4.2 0
      vertex 6.27732 1.74011 0
      vertex 3.75 4 0
    endloop
  endfacet
  facet normal 0 0 -1
    outer loop
      vertex 3.75 4.4 0
      vertex 6.27732 1.74011 0
      vertex 3.75 4.2 0
    endloop
  endfacet
  facet normal 0 0 -1
    outer loop
      vertex 3.75 4.6 0
      vertex 6.27732 1.74011 0
      vertex 3.75 4.4 0
    endloop
  endfacet
  facet normal 0 0 -1
    outer loop
      vertex 3.75 4.8 0
      vertex 6.27732 1.74011 0
      vertex 3.75 4.6 0
    endloop
  endfacet
  facet normal 0 0 -1
    outer loop
      vertex 3.75 5 0
      vertex 6.27732 1.74011 0
      vertex 3.75 4.8 0
    endloop
  endfacet
  facet normal 0 0 -1
    outer loop
      vertex 6.27732 1.74011 0
      vertex 3.75 5 0
      vertex 6.27732 8.25989 0
    endloop
  endfacet
  facet normal 0 0 -1
    outer loop
      vertex 3.75 5.2 0
      vertex 6.27732 8.25989 0
      vertex 3.75 5 0
    endloop
  endfacet
  facet normal 0 0 -1
    outer loop
      vertex 3.75 5.4 0
      vertex 6.27732 8.25989 0
      vertex 3.75 5.2 0
    endloop
  endfacet
  facet normal 0 0 -1
    outer loop
      vertex 3.75 5.6 0
      vertex 6.27732 8.25989 0
      vertex 3.75 5.4 0
    endloop
  endfacet
  facet normal 0 0 -1
    outer loop
      vertex 3.75 5.8 0
      vertex 6.27732 8.25989 0
      vertex 3.75 5.6 0
    endloop
  endfacet
  facet normal 0 0 -1
    outer loop
      vertex 3.75 6 0
      vertex 6.27732 8.25989 0
      vertex 3.75 5.8 0
    endloop
  endfacet
  facet normal 0 0 -1
    outer loop
      vertex 3.75 6.2 0
      vertex 6.27732 8.25989 0
      vertex 3.75 6 0
    endloop
  endfacet
  facet normal 0 0 -1
    outer loop
      vertex 3.75 6.4 0
      vertex 6.27732 8.25989 0
      vertex 3.75 6.2 0
    endloop
  endfacet
  facet normal 0 0 -1
    outer loop
      vertex 3.75 6.6 0
      vertex 6.27732 8.25989 0
      vertex 3.75 6.4 0
    endloop
  endfacet
  facet normal 0 0 -1
    outer loop
      vertex 3.75 6.8 0
      vertex 6.27732 8.25989 0
      vertex 3.75 6.6 0
    endloop
  endfacet
  facet normal 0 0 -1
    outer loop
      vertex 3.75 7 0
      vertex 6.27732 8.25989 0
      vertex 3.75 6.8 0
    endloop
  endfacet
  facet normal 0 0 -1
    outer loop
      vertex 3.75 7.2 0
      vertex 6.27732 8.25989 0
      vertex 3.75 7 0
    endloop
  endfacet
  facet normal 0 0 -1
    outer loop
      vertex 3.75 7.4 0
      vertex 6.27732 8.25989 0
      vertex 3.75 7.2 0
    endloop
  endfacet
  facet normal 0 0 -1
    outer loop
      vertex 3.75 7.6 0
      vertex 6.27732 8.25989 0
      vertex 3.75 7.4 0
    endloop
  endfacet
  facet normal 0 0 -1
    outer loop
      vertex 3.75 7.8 0
      vertex 6.27732 8.25989 0
      vertex 3.75 7.6 0
    endloop
  endfacet
  facet normal 0 0 -1
    outer loop
      vertex 3.75 8 0
      vertex 6.27732 8.25989 0
      vertex 3.75 7.8 0
    endloop
  endfacet
  facet normal 0 0 -1
    outer loop
      vertex 3.64193 8.50842 0
      vertex 6.27732 8.25989 0
      vertex 3.75 8 0
    endloop
  endfacet
  facet normal -0 0 -1
    outer loop
      vertex 6.48873 8.73473 0
      vertex 3.64193 8.50842 0
      vertex 3.33641 8.92893 0
    endloop
  endfacet
  facet normal -0 0 -1
    outer loop
      vertex 6.875 9.08253 0
      vertex 3.33641 8.92893 0
      vertex 2.88627 9.18882 0
    endloop
  endfacet
  facet normal 0 0 -1
    outer loop
      vertex 6.875 9.08253 0
      vertex 2.88627 9.18882 0
      vertex 10 20 0
    endloop
  endfacet
  facet normal 0 0 -1
    outer loop
      vertex 0 20 0
      vertex 2.88627 9.18882 0
      vertex 2.36934 9.24315 0
    endloop
  endfacet
  facet normal 0 0 -1
    outer loop
      vertex 0 20 0
      vertex 2.36934 9.24315 0
      vertex 1.875 9.08253 0
    endloop
  endfacet
  facet normal 0 0 -1
    outer loop
      vertex 0 20 0
      vertex 1.875 9.08253 0
      vertex 1.48873 8.73473 0
    endloop
  endfacet
  facet normal 0 0 -1
    outer loop
      vertex 2.88627 9.18882 0
      vertex 0 20 0
      vertex 10 20 0
    endloop
  endfacet
  facet normal 0 0 -1
    outer loop
      vertex 1.27732 8.25989 0
      vertex 0 20 0
      vertex 1.48873 8.73473 0
    endloop
  endfacet
  facet normal 0 0 -1
    outer loop
      vertex 0 20 0
      vertex 1.27732 8.25989 0
      vertex 0 0 0
    endloop
  endfacet
  facet normal 0 0 1
    outer loop
      vertex 3.75 2.2 1.5
      vertex 3.72874 2.1 1.5
      vertex 3.75 2 1.5
    endloop
  endfacet
  facet normal 0 0 1
    outer loop
      vertex 3.75 2.4 1.5
      vertex 3.72874 2.3 1.5
      vertex 3.75 2.2 1.5
    endloop
  endfacet
  facet normal 0 0 1
    outer loop
      vertex 3.75 2.6 1.5
      vertex 3.72874 2.5 1.5
      vertex 3.75 2.4 1.5
    endloop
  endfacet
  facet normal 0 0 1
    outer loop
      vertex 3.75 2.8 1.5
      vertex 3.72874 2.7 1.5
      vertex 3.75 2.6 1.5
    endloop
  endfacet
  facet normal 0 0 1
    outer loop
      vertex 3.75 3 1.5
      vertex 3.72874 2.9 1.5
      vertex 3.75 2.8 1.5
    endloop
  endfacet
  facet normal 0 0 1
    outer loop
      vertex 3.75 3.2 1.5
      vertex 3.72874 3.1 1.5
      vertex 3.75 3 1.5
    endloop
  endfacet
  facet normal 0 0 1
    outer loop
      vertex 3.75 3.4 1.5
      vertex 3.72874 3.3 1.5
      vertex 3.75 3.2 1.5
    endloop
  endfacet
  facet normal 0 0 1
    outer loop
      vertex 3.75 3.6 1.5
      vertex 3.72874 3.5 1.5
      vertex 3.75 3.4 1.5
    endloop
  endfacet
  facet normal 0 0 1
    outer loop
      vertex 3.75 3.8 1.5
      vertex 3.72874 3.7 1.5
      vertex 3.75 3.6 1.5
    endloop
  endfacet
  facet normal 0 0 1
    outer loop
      vertex 3.75 4 1.5
      vertex 3.72874 3.9 1.5
      vertex 3.75 3.8 1.5
    endloop
  endfacet
  facet normal 0 0 1
    outer loop
      vertex 3.75 4.2 1.5
      vertex 3.72874 4.1 1.5
      vertex 3.75 4 1.5
    endloop
  endfacet
  facet normal 0 0 1
    outer loop
      vertex 3.75 4.4 1.5
      vertex 3.72874 4.3 1.5
      vertex 3.75 4.2 1.5
    endloop
  endfacet
  facet normal 0 0 1
    outer loop
      vertex 3.75 4.6 1.5
      vertex 3.72874 4.5 1.5
      vertex 3.75 4.4 1.5
    endloop
  endfacet
  facet normal 0 0 1
    outer loop
      vertex 3.75 4.8 1.5
      vertex 3.72874 4.7 1.5
      vertex 3.75 4.6 1.5
    endloop
  endfacet
  facet normal 0 0 1
    outer loop
      vertex 3.75 5 1.5
      vertex 3.72874 4.9 1.5
      vertex 3.75 4.8 1.5
    endloop
  endfacet
  facet normal 0 0 1
    outer loop
      vertex 3.75 5.2 1.5
      vertex 3.72874 5.1 1.5
      vertex 3.75 5 1.5
    endloop
  endfacet
  facet normal 0 0 1
    outer loop
      vertex 3.75 5.4 1.5
      vertex 3.72874 5.3 1.5
      vertex 3.75 5.2 1.5
    endloop
  endfacet
  facet normal 0 0 1
    outer loop
      vertex 3.75 5.6 1.5
      vertex 3.72874 5.5 1.5
      vertex 3.75 5.4 1.5
    endloop
  endfacet
  facet normal 0 0 1
    outer loop
      vertex 3.75 5.8 1.5
      vertex 3.72874 5.7 1.5
      vertex 3.75 5.6 1.5
    endloop
  endfacet
  facet normal 0 0 1
    outer loop
      vertex 3.75 6 1.5
      vertex 3.72874 5.9 1.5
      vertex 3.75 5.8 1.5
    endloop
  endfacet
  facet normal 0 0 1
    outer loop
      vertex 3.75 6.2 1.5
      vertex 3.72874 6.1 1.5
      vertex 3.75 6 1.5
    endloop
  endfacet
  facet normal 0 0 1
    outer loop
      vertex 3.75 6.4 1.5
      vertex 3.72874 6.3 1.5
      vertex 3.75 6.2 1.5
    endloop
  endfacet
  facet normal 0 0 1
    outer loop
      vertex 3.75 6.6 1.5
      vertex 3.72874 6.5 1.5
      vertex 3.75 6.4 1.5
    endloop
  endfacet
  facet normal 0 0 1
    outer loop
      vertex 3.75 6.8 1.5
      vertex 3.72874 6.7 1.5
      vertex 3.75 6.6 1.5
    endloop
  endfacet
  facet normal 0 0 1
    outer loop
      vertex 3.75 7 1.5
      vertex 3.72874 6.9 1.5
      vertex 3.75 6.8 1.5
    endloop
  endfacet
  facet normal 0 0 1
    outer loop
      vertex 3.75 7.2 1.5
      vertex 3.72874 7.1 1.5
      vertex 3.75 7 1.5
    endloop
  endfacet
  facet normal 0 0 1
    outer loop
      vertex 3.75 7.4 1.5
      vertex 3.72874 7.3 1.5
      vertex 3.75 7.2 1.5
    endloop
  endfacet
  facet normal 0 0 1
    outer loop
      vertex 3.75 7.6 1.5
      vertex 3.72874 7.5 1.5
      vertex 3.75 7.4 1.5
    endloop
  endfacet
  facet normal 0 0 1
    outer loop
      vertex 3.75 7.8 1.5
      vertex 3.72874 7.7 1.5
      vertex 3.75 7.6 1.5
    endloop
  endfacet
  facet normal 0 0 1
    outer loop
      vertex 3.75 8 1.5
      vertex 3.72874 7.9 1.5
      vertex 3.75 7.8 1.5
    endloop
  endfacet
  facet normal 0 0 1
    outer loop
      vertex 8.75 2.2 1.5
      vertex 8.72874 2.1 1.5
      vertex 8.75 2 1.5
    endloop
  endfacet
  facet normal 0 0 1
    outer loop
      vertex 8.75 2.4 1.5
      vertex 8.72874 2.3 1.5
      vertex 8.75 2.2 1.5
    endloop
  endfacet
  facet normal 0 0 1
    outer loop
      vertex 8.75 2.6 1.5
      vertex 8.72874 2.5 1.5
      vertex 8.75 2.4 1.5
    endloop
  endfacet
  facet normal 0 0 1
    outer loop
      vertex 8.75 2.8 1.5
      vertex 8.72874 2.7 1.5
      vertex 8.75 2.6 1.5
    endloop
  endfacet
  facet normal 0 0 1
    outer loop
      vertex 8.75 3 1.5
      vertex 8.72874 2.9 1.5
      vertex 8.75 2.8 1.5
    endloop
  endfacet
  facet normal 0 0 1
    outer loop
      vertex 8.75 3.2 1.5
      vertex 8.72874 3.1 1.5
      vertex 8.75 3 1.5
    endloop
  endfacet
  facet normal 0 0 1
    outer loop
      vertex 8.75 3.4 1.5
      vertex 8.72874 3.3 1.5
      vertex 8.75 3.2 1.5
    endloop
  endfacet
  facet normal 0 0 1
    outer loop
      vertex 8.75 3.6 1.5
      vertex 8.72874 3.5 1.5
      vertex 8.75 3.4 1.5
    endloop
  endfacet
  facet normal 0 0 1
    outer loop
      vertex 8.75 3.8 1.5
      vertex 8.72874 3.7 1.5
      vertex 8.75 3.6 1.5
    endloop
  endfacet
  facet normal 0 0 1
    outer loop
      vertex 8.75 4 1.5
      vertex 8.72874 3.9 1.5
      vertex 8.75 3.8 1.5
    endloop
  endfacet
  facet normal 0 0 1
    outer loop
      vertex 8.75 4.2 1.5
      vertex 8.72874 4.1 1.5
      vertex 8.75 4 1.5
    endloop
  endfacet
  facet normal 0 0 1
    outer loop
      vertex 8.75 4.4 1.5
      vertex 8.72874 4.3 1.5
      vertex 8.75 4.2 1.5
    endloop
  endfacet
  facet normal 0 0 1
    outer loop
      vertex 8.75 4.6 1.5
      vertex 8.72874 4.5 1.5
      vertex 8.75 4.4 1.5
    endloop
  endfacet
  facet normal 0 0 1
    outer loop
      vertex 8.75 4.8 1.5
      vertex 8.72874 4.7 1.5
      vertex 8.75 4.6 1.5
    endloop
  endfacet
  facet normal 0 0 1
    outer loop
      vertex 8.75 5 1.5
      vertex 8.72874 4.9 1.5
      vertex 8.75 4.8 1.5
    endloop
  endfacet
  facet normal 0 0 1
    outer loop
      vertex 8.75 5.2 1.5
      vertex 8.72874 5.1 1.5
      vertex 8.75 5 1.5
    endloop
  endfacet
  facet normal 0 0 1
    outer loop
      vertex 8.75 5.4 1.5
      vertex 8.72874 5.3 1.5
      vertex 8.75 5.2 1.5
    endloop
  endfacet
  facet normal 0 0 1
    outer loop
      vertex 8.75 5.6 1.5
      vertex 8.72874 5.5 1.5
      vertex 8.75 5.4 1.5
    endloop
  endfacet
  facet normal 0 0 1
    outer loop
      vertex 8.75 5.8 1.5
      vertex 8.72874 5.7 1.5
      vertex 8.75 5.6 1.5
    endloop
  endfacet
  facet normal 0 0 1
    outer loop
      vertex 8.75 6 1.5
      vertex 8.72874 5.9 1.5
      vertex 8.75 5.8 1.5
    endloop
  endfacet
  facet normal 0 0 1
    outer loop
      vertex 8.75 6.2 1.5
      vertex 8.72874 6.1 1.5
      vertex 8.75 6 1.5
    endloop
  endfacet
  facet normal 0 0 1
    outer loop
      vertex 8.75 6.4 1.5
      vertex 8.72874 6.3 1.5
      vertex 8.75 6.2 1.5
    endloop
  endfacet
  facet normal 0 0 1
    outer loop
      vertex 8.75 6.6 1.5
      vertex 8.72874 6.5 1.5
      vertex 8.75 6.4 1.5
    endloop
  endfacet
  facet normal 0 0 1
    outer loop
      vertex 8.75 6.8 1.5
      vertex 8.72874 6.7 1.5
      vertex 8.75 6.6 1.5
    endloop
  endfacet
  facet normal 0 0 1
    outer loop
      vertex 8.75 7 1.5
      vertex 8.72874 6.9 1.5
      vertex 8.75 6.8 1.5
    endloop
  endfacet
  facet normal 0 0 1
    outer loop
      vertex 8.75 7.2 1.5
      vertex 8.72874 7.1 1.5
      vertex 8.75 7 1.5
    endloop
  endfacet
  facet normal 0 0 1
    outer loop
      vertex 8.75 7.4 1.5
      vertex 8.72874 7.3 1.5
      vertex 8.75 7.2 1.5
    endloop
  endfacet
  facet normal 0 0 1
    outer loop
      vertex 8.75 7.6 1.5
      vertex 8.72874 7.5 1.5
      vertex 8.75 7.4 1.5
    endloop
  endfacet
  facet normal 0 0 1
    outer loop
      vertex 8.75 7.8 1.5
      vertex 8.72874 7.7 1.5
      vertex 8.75 7.6 1.5
    endloop
  endfacet
  facet normal 0 0 1
    outer loop
      vertex 8.75 8 1.5
      vertex 8.72874 7.9 1.5
      vertex 8.75 7.8 1.5
    endloop
  endfacet
  facet normal 0 0 1
    outer loop
      vertex 10 20 1.5
      vertex 8.75 8 1.5
      vertex 10 0 1.5
    endloop
  endfacet
  facet normal 0 0 1
    outer loop
      vertex 10 20 1.5
      vertex 8.64193 8.50842 1.5
      vertex 8.75 8 1.5
    endloop
  endfacet
  facet normal 0 0 1
    outer loop
      vertex 10 20 1.5
      vertex 8.33641 8.92893 1.5
      vertex 8.64193 8.50842 1.5
    endloop
  endfacet
  facet normal 0 0 1
    outer loop
      vertex 10 20 1.5
      vertex 7.88627 9.18882 1.5
      vertex 8.33641 8.92893 1.5
    endloop
  endfacet
  facet normal 0 0 1
    outer loop
      vertex 10 20 1.5
      vertex 7.36934 9.24315 1.5
      vertex 7.88627 9.18882 1.5
    endloop
  endfacet
  facet normal 0 0 1
    outer loop
      vertex 10 20 1.5
      vertex 6.875 9.08253 1.5
      vertex 7.36934 9.24315 1.5
    endloop
  endfacet
  facet normal -0 0 1
    outer loop
      vertex 2.88627 9.18882 1.5
      vertex 6.875 9.08253 1.5
      vertex 10 20 1.5
    endloop
  endfacet
  facet normal 0 -0 1
    outer loop
      vertex 3.33641 8.92893 1.5
      vertex 6.875 9.08253 1.5
      vertex 2.88627 9.18882 1.5
    endloop
  endfacet
  facet normal 0 0 1
    outer loop
      vertex 3.75 7.8 1.5
      vertex 6.27732 8.25989 1.5
      vertex 3.75 8 1.5
    endloop
  endfacet
  facet normal 0 0 1
    outer loop
      vertex 6.875 9.08253 1.5
      vertex 3.33641 8.92893 1.5
      vertex 6.48873 8.73473 1.5
    endloop
  endfacet
  facet normal 0 0 1
    outer loop
      vertex 6.27732 8.25989 1.5
      vertex 3.64193 8.50842 1.5
      vertex 3.75 8 1.5
    endloop
  endfacet
  facet normal 0 0 1
    outer loop
      vertex 6.48873 8.73473 1.5
      vertex 3.64193 8.50842 1.5
      vertex 6.27732 8.25989 1.5
    endloop
  endfacet
  facet normal 0 -0 1
    outer loop
      vertex 3.64193 8.50842 1.5
      vertex 6.48873 8.73473 1.5
      vertex 3.33641 8.92893 1.5
    endloop
  endfacet
  facet normal -0 0 1
    outer loop
      vertex 0 20 1.5
      vertex 2.88627 9.18882 1.5
      vertex 10 20 1.5
    endloop
  endfacet
  facet normal 0 0 1
    outer loop
      vertex 2.88627 9.18882 1.5
      vertex 0 20 1.5
      vertex 2.36934 9.24315 1.5
    endloop
  endfacet
  facet normal 0 0 1
    outer loop
      vertex 2.36934 9.24315 1.5
      vertex 0 20 1.5
      vertex 1.875 9.08253 1.5
    endloop
  endfacet
  facet normal 0 0 1
    outer loop
      vertex 0 0 1.5
      vertex 1.27732 8.25989 1.5
      vertex 0 20 1.5
    endloop
  endfacet
  facet normal 0 0 1
    outer loop
      vertex 1.48873 8.73473 1.5
      vertex 0 20 1.5
      vertex 1.27732 8.25989 1.5
    endloop
  endfacet
  facet normal 0 0 1
    outer loop
      vertex 1.875 9.08253 1.5
      vertex 0 20 1.5
      vertex 1.48873 8.73473 1.5
    endloop
  endfacet
  facet normal -0 0 1
    outer loop
      vertex 8.75 7.8 1.5
      vertex 10 0 1.5
      vertex 8.75 8 1.5
    endloop
  endfacet
  facet normal -0 0 1
    outer loop
      vertex 8.75 7.6 1.5
      vertex 10 0 1.5
      vertex 8.75 7.8 1.5
    endloop
  endfacet
  facet normal -0 0 1
    outer loop
      vertex 8.75 7.4 1.5
      vertex 10 0 1.5
      vertex 8.75 7.6 1.5
    endloop
  endfacet
  facet normal -0 0 1
    outer loop
      vertex 8.75 7.2 1.5
      vertex 10 0 1.5
      vertex 8.75 7.4 1.5
    endloop
  endfacet
  facet normal -0 0 1
    outer loop
      vertex 8.75 7 1.5
      vertex 10 0 1.5
      vertex 8.75 7.2 1.5
    endloop
  endfacet
  facet normal -0 0 1
    outer loop
      vertex 8.75 6.8 1.5
      vertex 10 0 1.5
      vertex 8.75 7 1.5
    endloop
  endfacet
  facet normal -0 0 1
    outer loop
      vertex 8.75 6.6 1.5
      vertex 10 0 1.5
      vertex 8.75 6.8 1.5
    endloop
  endfacet
  facet normal -0 0 1
    outer loop
      vertex 8.75 6.4 1.5
      vertex 10 0 1.5
      vertex 8.75 6.6 1.5
    endloop
  endfacet
  facet normal -0 0 1
    outer loop
      vertex 8.75 6.2 1.5
      vertex 10 0 1.5
      vertex 8.75 6.4 1.5
    endloop
  endfacet
  facet normal -0 0 1
    outer loop
      vertex 8.75 6 1.5
      vertex 10 0 1.5
      vertex 8.75 6.2 1.5
    endloop
  endfacet
  facet normal -0 0 1
    outer loop
      vertex 8.75 5.8 1.5
      vertex 10 0 1.5
      vertex 8.75 6 1.5
    endloop
  endfacet
  facet normal -0 0 1
    outer loop
      vertex 8.75 5.6 1.5
      vertex 10 0 1.5
      vertex 8.75 5.8 1.5
    endloop
  endfacet
  facet normal -0 0 1
    outer loop
      vertex 8.75 5.4 1.5
      vertex 10 0 1.5
      vertex 8.75 5.6 1.5
    endloop
  endfacet
  facet normal -0 0 1
    outer loop
      vertex 8.75 5.2 1.5
      vertex 10 0 1.5
      vertex 8.75 5.4 1.5
    endloop
  endfacet
  facet normal -0 0 1
    outer loop
      vertex 8.75 5 1.5
      vertex 10 0 1.5
      vertex 8.75 5.2 1.5
    endloop
  endfacet
  facet normal -0 0 1
    outer loop
      vertex 8.75 4.8 1.5
      vertex 10 0 1.5
      vertex 8.75 5 1.5
    endloop
  endfacet
  facet normal -0 0 1
    outer loop
      vertex 8.75 4.6 1.5
      vertex 10 0 1.5
      vertex 8.75 4.8 1.5
    endloop
  endfacet
  facet normal -0 0 1
    outer loop
      vertex 8.75 4.4 1.5
      vertex 10 0 1.5
      vertex 8.75 4.6 1.5
    endloop
  endfacet
  facet normal -0 0 1
    outer loop
      vertex 8.75 4.2 1.5
      vertex 10 0 1.5
      vertex 8.75 4.4 1.5
    endloop
  endfacet
  facet normal -0 0 1
    outer loop
      vertex 8.75 4 1.5
      vertex 10 0 1.5
      vertex 8.75 4.2 1.5
    endloop
  endfacet
  facet normal -0 0 1
    outer loop
      vertex 8.75 3.8 1.5
      vertex 10 0 1.5
      vertex 8.75 4 1.5
    endloop
  endfacet
  facet normal -0 0 1
    outer loop
      vertex 8.75 3.6 1.5
      vertex 10 0 1.5
      vertex 8.75 3.8 1.5
    endloop
  endfacet
  facet normal -0 0 1
    outer loop
      vertex 8.75 3.4 1.5
      vertex 10 0 1.5
      vertex 8.75 3.6 1.5
    endloop
  endfacet
  facet normal -0 0 1
    outer loop
      vertex 8.75 3.2 1.5
      vertex 10 0 1.5
      vertex 8.75 3.4 1.5
    endloop
  endfacet
  facet normal -0 0 1
    outer loop
      vertex 8.75 3 1.5
      vertex 10 0 1.5
      vertex 8.75 3.2 1.5
    endloop
  endfacet
  facet normal -0 0 1
    outer loop
      vertex 8.75 2.8 1.5
      vertex 10 0 1.5
      vertex 8.75 3 1.5
    endloop
  endfacet
  facet normal -0 0 1
    outer loop
      vertex 8.75 2.6 1.5
      vertex 10 0 1.5
      vertex 8.75 2.8 1.5
    endloop
  endfacet
  facet normal -0 0 1
    outer loop
      vertex 8.75 2.4 1.5
      vertex 10 0 1.5
      vertex 8.75 2.6 1.5
    endloop
  endfacet
  facet normal -0 0 1
    outer loop
      vertex 8.75 2.2 1.5
      vertex 10 0 1.5
      vertex 8.75 2.4 1.5
    endloop
  endfacet
  facet normal -0 0 1
    outer loop
      vertex 8.75 2 1.5
      vertex 10 0 1.5
      vertex 8.75 2.2 1.5
    endloop
  endfacet
  facet normal -0 0 1
    outer loop
      vertex 8.64193 1.49158 1.5
      vertex 10 0 1.5
      vertex 8.75 2 1.5
    endloop
  endfacet
  facet normal -0 0 1
    outer loop
      vertex 8.33641 1.07107 1.5
      vertex 10 0 1.5
      vertex 8.64193 1.49158 1.5
    endloop
  endfacet
  facet normal -0 0 1
    outer loop
      vertex 7.88627 0.811179 1.5
      vertex 10 0 1.5
      vertex 8.33641 1.07107 1.5
    endloop
  endfacet
  facet normal -0 0 1
    outer loop
      vertex 7.36934 0.756847 1.5
      vertex 10 0 1.5
      vertex 7.88627 0.811179 1.5
    endloop
  endfacet
  facet normal 0 0 1
    outer loop
      vertex 3.75 7.6 1.5
      vertex 6.27732 8.25989 1.5
      vertex 3.75 7.8 1.5
    endloop
  endfacet
  facet normal 0 0 1
    outer loop
      vertex 3.75 7.4 1.5
      vertex 6.27732 8.25989 1.5
      vertex 3.75 7.6 1.5
    endloop
  endfacet
  facet normal 0 0 1
    outer loop
      vertex 3.75 7.2 1.5
      vertex 6.27732 8.25989 1.5
      vertex 3.75 7.4 1.5
    endloop
  endfacet
  facet normal 0 0 1
    outer loop
      vertex 3.75 7 1.5
      vertex 6.27732 8.25989 1.5
      vertex 3.75 7.2 1.5
    endloop
  endfacet
  facet normal 0 0 1
    outer loop
      vertex 3.75 6.8 1.5
      vertex 6.27732 8.25989 1.5
      vertex 3.75 7 1.5
    endloop
  endfacet
  facet normal 0 0 1
    outer loop
      vertex 3.75 6.6 1.5
      vertex 6.27732 8.25989 1.5
      vertex 3.75 6.8 1.5
    endloop
  endfacet
  facet normal 0 0 1
    outer loop
      vertex 3.75 6.4 1.5
      vertex 6.27732 8.25989 1.5
      vertex 3.75 6.6 1.5
    endloop
  endfacet
  facet normal 0 0 1
    outer loop
      vertex 3.75 6.2 1.5
      vertex 6.27732 8.25989 1.5
      vertex 3.75 6.4 1.5
    endloop
  endfacet
  facet normal 0 0 1
    outer loop
      vertex 3.75 6 1.5
      vertex 6.27732 8.25989 1.5
      vertex 3.75 6.2 1.5
    endloop
  endfacet
  facet normal 0 0 1
    outer loop
      vertex 3.75 5.8 1.5
      vertex 6.27732 8.25989 1.5
      vertex 3.75 6 1.5
    endloop
  endfacet
  facet normal 0 0 1
    outer loop
      vertex 3.75 5.6 1.5
      vertex 6.27732 8.25989 1.5
      vertex 3.75 5.8 1.5
    endloop
  endfacet
  facet normal 0 0 1
    outer loop
      vertex 3.75 5.4 1.5
      vertex 6.27732 8.25989 1.5
      vertex 3.75 5.6 1.5
    endloop
  endfacet
  facet normal 0 0 1
    outer loop
      vertex 3.75 5.2 1.5
      vertex 6.27732 8.25989 1.5
      vertex 3.75 5.4 1.5
    endloop
  endfacet
  facet normal 0 0 1
    outer loop
      vertex 3.75 5 1.5
      vertex 6.27732 8.25989 1.5
      vertex 3.75 5.2 1.5
    endloop
  endfacet
  facet normal 0 0 1
    outer loop
      vertex 6.27732 8.25989 1.5
      vertex 3.75 5 1.5
      vertex 6.27732 1.74011 1.5
    endloop
  endfacet
  facet normal -0 0 1
    outer loop
      vertex 3.75 4.8 1.5
      vertex 6.27732 1.74011 1.5
      vertex 3.75 5 1.5
    endloop
  endfacet
  facet normal -0 0 1
    outer loop
      vertex 3.75 4.6 1.5
      vertex 6.27732 1.74011 1.5
      vertex 3.75 4.8 1.5
    endloop
  endfacet
  facet normal -0 0 1
    outer loop
      vertex 3.75 4.4 1.5
      vertex 6.27732 1.74011 1.5
      vertex 3.75 4.6 1.5
    endloop
  endfacet
  facet normal -0 0 1
    outer loop
      vertex 3.75 4.2 1.5
      vertex 6.27732 1.74011 1.5
      vertex 3.75 4.4 1.5
    endloop
  endfacet
  facet normal -0 0 1
    outer loop
      vertex 3.75 4 1.5
      vertex 6.27732 1.74011 1.5
      vertex 3.75 4.2 1.5
    endloop
  endfacet
  facet normal -0 0 1
    outer loop
      vertex 3.75 3.8 1.5
      vertex 6.27732 1.74011 1.5
      vertex 3.75 4 1.5
    endloop
  endfacet
  facet normal -0 0 1
    outer loop
      vertex 3.75 3.6 1.5
      vertex 6.27732 1.74011 1.5
      vertex 3.75 3.8 1.5
    endloop
  endfacet
  facet normal -0 0 1
    outer loop
      vertex 3.75 3.4 1.5
      vertex 6.27732 1.74011 1.5
      vertex 3.75 3.6 1.5
    endloop
  endfacet
  facet normal -0 0 1
    outer loop
      vertex 3.75 3.2 1.5
      vertex 6.27732 1.74011 1.5
      vertex 3.75 3.4 1.5
    endloop
  endfacet
  facet normal -0 0 1
    outer loop
      vertex 3.75 3 1.5
      vertex 6.27732 1.74011 1.5
      vertex 3.75 3.2 1.5
    endloop
  endfacet
  facet normal -0 0 1
    outer loop
      vertex 3.75 2.8 1.5
      vertex 6.27732 1.74011 1.5
      vertex 3.75 3 1.5
    endloop
  endfacet
  facet normal -0 0 1
    outer loop
      vertex 3.75 2.6 1.5
      vertex 6.27732 1.74011 1.5
      vertex 3.75 2.8 1.5
    endloop
  endfacet
  facet normal -0 0 1
    outer loop
      vertex 3.75 2.4 1.5
      vertex 6.27732 1.74011 1.5
      vertex 3.75 2.6 1.5
    endloop
  endfacet
  facet normal -0 0 1
    outer loop
      vertex 3.75 2.2 1.5
      vertex 6.27732 1.74011 1.5
      vertex 3.75 2.4 1.5
    endloop
  endfacet
  facet normal -0 0 1
    outer loop
      vertex 3.75 2 1.5
      vertex 6.27732 1.74011 1.5
      vertex 3.75 2.2 1.5
    endloop
  endfacet
  facet normal 0 0 1
    outer loop
      vertex 3.64193 1.49158 1.5
      vertex 6.27732 1.74011 1.5
      vertex 3.75 2 1.5
    endloop
  endfacet
  facet normal 0 0 1
    outer loop
      vertex 6.27732 1.74011 1.5
      vertex 3.64193 1.49158 1.5
      vertex 6.48873 1.26527 1.5
    endloop
  endfacet
  facet normal 0 0 1
    outer loop
      vertex 3.33641 1.07107 1.5
      vertex 6.48873 1.26527 1.5
      vertex 3.64193 1.49158 1.5
    endloop
  endfacet
  facet normal 0 0 1
    outer loop
      vertex 6.48873 1.26527 1.5
      vertex 3.33641 1.07107 1.5
      vertex 6.875 0.917468 1.5
    endloop
  endfacet
  facet normal 0 0 1
    outer loop
      vertex 2.88627 0.811179 1.5
      vertex 6.875 0.917468 1.5
      vertex 3.33641 1.07107 1.5
    endloop
  endfacet
  facet normal 0 0 1
    outer loop
      vertex 6.875 0.917468 1.5
      vertex 2.88627 0.811179 1.5
      vertex 7.36934 0.756847 1.5
    endloop
  endfacet
  facet normal 0 0 1
    outer loop
      vertex 7.36934 0.756847 1.5
      vertex 2.88627 0.811179 1.5
      vertex 10 0 1.5
    endloop
  endfacet
  facet normal 0 0 1
    outer loop
      vertex 0 0 1.5
      vertex 2.88627 0.811179 1.5
      vertex 2.36934 0.756847 1.5
    endloop
  endfacet
  facet normal 0 0 1
    outer loop
      vertex 2.88627 0.811179 1.5
      vertex 0 0 1.5
      vertex 10 0 1.5
    endloop
  endfacet
  facet normal 0 0 1
    outer loop
      vertex 1.875 0.917468 1.5
      vertex 0 0 1.5
      vertex 2.36934 0.756847 1.5
    endloop
  endfacet
  facet normal 0 0 1
    outer loop
      vertex 1.48873 1.26527 1.5
      vertex 0 0 1.5
      vertex 1.875 0.917468 1.5
    endloop
  endfacet
  facet normal 0 0 1
    outer loop
      vertex 1.27732 1.74011 1.5
      vertex 0 0 1.5
      vertex 1.48873 1.26527 1.5
    endloop
  endfacet
  facet normal 0 0 1
    outer loop
      vertex 1.27732 8.25989 1.5
      vertex 0 0 1.5
      vertex 1.27732 1.74011 1.5
    endloop
  endfacet
  facet normal -0.978147 0.207915 0
    outer loop
      vertex 3.64193 1.49158 0
      vertex 3.75 2 1.5
      vertex 3.75 2 0
    endloop
  endfacet
  facet normal -0.978147 0.207915 0
    outer loop
      vertex 3.75 2 1.5
      vertex 3.64193 1.49158 0
      vertex 3.64193 1.49158 1.5
    endloop
  endfacet
  facet normal 0.309017 0.951056 -0
    outer loop
      vertex 2.36934 0.756847 0
      vertex 1.875 0.917468 1.5
      vertex 2.36934 0.756847 1.5
    endloop
  endfacet
  facet normal 0.309017 0.951056 0
    outer loop
      vertex 1.875 0.917468 1.5
      vertex 2.36934 0.756847 0
      vertex 1.875 0.917468 0
    endloop
  endfacet
  facet normal 0.913547 0.406733 0
    outer loop
      vertex 1.48873 1.26527 1.5
      vertex 1.27732 1.74011 0
      vertex 1.27732 1.74011 1.5
    endloop
  endfacet
  facet normal 0.913547 0.406733 0
    outer loop
      vertex 1.27732 1.74011 0
      vertex 1.48873 1.26527 1.5
      vertex 1.48873 1.26527 0
    endloop
  endfacet
  facet normal -0.809016 0.587787 0
    outer loop
      vertex 3.33641 1.07107 0
      vertex 3.64193 1.49158 1.5
      vertex 3.64193 1.49158 0
    endloop
  endfacet
  facet normal -0.809016 0.587787 0
    outer loop
      vertex 3.64193 1.49158 1.5
      vertex 3.33641 1.07107 0
      vertex 3.33641 1.07107 1.5
    endloop
  endfacet
  facet normal -0.500004 0.866023 0
    outer loop
      vertex 3.33641 1.07107 0
      vertex 2.88627 0.811179 1.5
      vertex 3.33641 1.07107 1.5
    endloop
  endfacet
  facet normal -0.500004 0.866023 0
    outer loop
      vertex 2.88627 0.811179 1.5
      vertex 3.33641 1.07107 0
      vertex 2.88627 0.811179 0
    endloop
  endfacet
  facet normal -0.104529 0.994522 0
    outer loop
      vertex 2.88627 0.811179 0
      vertex 2.36934 0.756847 1.5
      vertex 2.88627 0.811179 1.5
    endloop
  endfacet
  facet normal -0.104529 0.994522 0
    outer loop
      vertex 2.36934 0.756847 1.5
      vertex 2.88627 0.811179 0
      vertex 2.36934 0.756847 0
    endloop
  endfacet
  facet normal 0.669134 0.743142 -0
    outer loop
      vertex 1.875 0.917468 0
      vertex 1.48873 1.26527 1.5
      vertex 1.875 0.917468 1.5
    endloop
  endfacet
  facet normal 0.669134 0.743142 0
    outer loop
      vertex 1.48873 1.26527 1.5
      vertex 1.875 0.917468 0
      vertex 1.48873 1.26527 0
    endloop
  endfacet
  facet normal -0.978139 -0.207952 0
    outer loop
      vertex 3.75 2.2 0
      vertex 3.72874 2.3 1.5
      vertex 3.72874 2.3 0
    endloop
  endfacet
  facet normal -0.978139 -0.207952 0
    outer loop
      vertex 3.72874 2.3 1.5
      vertex 3.75 2.2 0
      vertex 3.75 2.2 1.5
    endloop
  endfacet
  facet normal -0.978139 0.207952 0
    outer loop
      vertex 3.72874 2.1 0
      vertex 3.75 2.2 1.5
      vertex 3.75 2.2 0
    endloop
  endfacet
  facet normal -0.978139 0.207952 0
    outer loop
      vertex 3.75 2.2 1.5
      vertex 3.72874 2.1 0
      vertex 3.72874 2.1 1.5
    endloop
  endfacet
  facet normal -0.978139 -0.207952 0
    outer loop
      vertex 3.75 2.4 0
      vertex 3.72874 2.5 1.5
      vertex 3.72874 2.5 0
    endloop
  endfacet
  facet normal -0.978139 -0.207952 0
    outer loop
      vertex 3.72874 2.5 1.5
      vertex 3.75 2.4 0
      vertex 3.75 2.4 1.5
    endloop
  endfacet
  facet normal -0.978139 0.207952 0
    outer loop
      vertex 3.72874 2.3 0
      vertex 3.75 2.4 1.5
      vertex 3.75 2.4 0
    endloop
  endfacet
  facet normal -0.978139 0.207952 0
    outer loop
      vertex 3.75 2.4 1.5
      vertex 3.72874 2.3 0
      vertex 3.72874 2.3 1.5
    endloop
  endfacet
  facet normal -0.978139 -0.207952 0
    outer loop
      vertex 3.75 2.6 0
      vertex 3.72874 2.7 1.5
      vertex 3.72874 2.7 0
    endloop
  endfacet
  facet normal -0.978139 -0.207952 0
    outer loop
      vertex 3.72874 2.7 1.5
      vertex 3.75 2.6 0
      vertex 3.75 2.6 1.5
    endloop
  endfacet
  facet normal -0.978139 0.207952 0
    outer loop
      vertex 3.72874 2.5 0
      vertex 3.75 2.6 1.5
      vertex 3.75 2.6 0
    endloop
  endfacet
  facet normal -0.978139 0.207952 0
    outer loop
      vertex 3.75 2.6 1.5
      vertex 3.72874 2.5 0
      vertex 3.72874 2.5 1.5
    endloop
  endfacet
  facet normal -0.978139 -0.207952 0
    outer loop
      vertex 3.75 2.8 0
      vertex 3.72874 2.9 1.5
      vertex 3.72874 2.9 0
    endloop
  endfacet
  facet normal -0.978139 -0.207952 0
    outer loop
      vertex 3.72874 2.9 1.5
      vertex 3.75 2.8 0
      vertex 3.75 2.8 1.5
    endloop
  endfacet
  facet normal -0.978139 0.207952 0
    outer loop
      vertex 3.72874 2.7 0
      vertex 3.75 2.8 1.5
      vertex 3.75 2.8 0
    endloop
  endfacet
  facet normal -0.978139 0.207952 0
    outer loop
      vertex 3.75 2.8 1.5
      vertex 3.72874 2.7 0
      vertex 3.72874 2.7 1.5
    endloop
  endfacet
  facet normal -0.978139 -0.207952 0
    outer loop
      vertex 3.75 3 0
      vertex 3.72874 3.1 1.5
      vertex 3.72874 3.1 0
    endloop
  endfacet
  facet normal -0.978139 -0.207952 0
    outer loop
      vertex 3.72874 3.1 1.5
      vertex 3.75 3 0
      vertex 3.75 3 1.5
    endloop
  endfacet
  facet normal -0.978139 0.207952 0
    outer loop
      vertex 3.72874 2.9 0
      vertex 3.75 3 1.5
      vertex 3.75 3 0
    endloop
  endfacet
  facet normal -0.978139 0.207952 0
    outer loop
      vertex 3.75 3 1.5
      vertex 3.72874 2.9 0
      vertex 3.72874 2.9 1.5
    endloop
  endfacet
  facet normal -0.978139 -0.207952 0
    outer loop
      vertex 3.75 3.2 0
      vertex 3.72874 3.3 1.5
      vertex 3.72874 3.3 0
    endloop
  endfacet
  facet normal -0.978139 -0.207952 0
    outer loop
      vertex 3.72874 3.3 1.5
      vertex 3.75 3.2 0
      vertex 3.75 3.2 1.5
    endloop
  endfacet
  facet normal -0.978139 0.207952 0
    outer loop
      vertex 3.72874 3.1 0
      vertex 3.75 3.2 1.5
      vertex 3.75 3.2 0
    endloop
  endfacet
  facet normal -0.978139 0.207952 0
    outer loop
      vertex 3.75 3.2 1.5
      vertex 3.72874 3.1 0
      vertex 3.72874 3.1 1.5
    endloop
  endfacet
  facet normal -0.978139 -0.207952 0
    outer loop
      vertex 3.75 3.4 0
      vertex 3.72874 3.5 1.5
      vertex 3.72874 3.5 0
    endloop
  endfacet
  facet normal -0.978139 -0.207952 0
    outer loop
      vertex 3.72874 3.5 1.5
      vertex 3.75 3.4 0
      vertex 3.75 3.4 1.5
    endloop
  endfacet
  facet normal -0.978139 0.207952 0
    outer loop
      vertex 3.72874 3.3 0
      vertex 3.75 3.4 1.5
      vertex 3.75 3.4 0
    endloop
  endfacet
  facet normal -0.978139 0.207952 0
    outer loop
      vertex 3.75 3.4 1.5
      vertex 3.72874 3.3 0
      vertex 3.72874 3.3 1.5
    endloop
  endfacet
  facet normal -0.978139 -0.207952 0
    outer loop
      vertex 3.75 3.6 0
      vertex 3.72874 3.7 1.5
      vertex 3.72874 3.7 0
    endloop
  endfacet
  facet normal -0.978139 -0.207952 0
    outer loop
      vertex 3.72874 3.7 1.5
      vertex 3.75 3.6 0
      vertex 3.75 3.6 1.5
    endloop
  endfacet
  facet normal -0.978139 0.207952 0
    outer loop
      vertex 3.72874 3.5 0
      vertex 3.75 3.6 1.5
      vertex 3.75 3.6 0
    endloop
  endfacet
  facet normal -0.978139 0.207952 0
    outer loop
      vertex 3.75 3.6 1.5
      vertex 3.72874 3.5 0
      vertex 3.72874 3.5 1.5
    endloop
  endfacet
  facet normal -0.978139 -0.207952 0
    outer loop
      vertex 3.75 3.8 0
      vertex 3.72874 3.9 1.5
      vertex 3.72874 3.9 0
    endloop
  endfacet
  facet normal -0.978139 -0.207952 0
    outer loop
      vertex 3.72874 3.9 1.5
      vertex 3.75 3.8 0
      vertex 3.75 3.8 1.5
    endloop
  endfacet
  facet normal -0.978139 0.207952 0
    outer loop
      vertex 3.72874 3.7 0
      vertex 3.75 3.8 1.5
      vertex 3.75 3.8 0
    endloop
  endfacet
  facet normal -0.978139 0.207952 0
    outer loop
      vertex 3.75 3.8 1.5
      vertex 3.72874 3.7 0
      vertex 3.72874 3.7 1.5
    endloop
  endfacet
  facet normal -0.978139 -0.207952 0
    outer loop
      vertex 3.75 4 0
      vertex 3.72874 4.1 1.5
      vertex 3.72874 4.1 0
    endloop
  endfacet
  facet normal -0.978139 -0.207952 0
    outer loop
      vertex 3.72874 4.1 1.5
      vertex 3.75 4 0
      vertex 3.75 4 1.5
    endloop
  endfacet
  facet normal -0.978139 0.207952 0
    outer loop
      vertex 3.72874 3.9 0
      vertex 3.75 4 1.5
      vertex 3.75 4 0
    endloop
  endfacet
  facet normal -0.978139 0.207952 0
    outer loop
      vertex 3.75 4 1.5
      vertex 3.72874 3.9 0
      vertex 3.72874 3.9 1.5
    endloop
  endfacet
  facet normal -0.978139 -0.207952 0
    outer loop
      vertex 3.75 4.2 0
      vertex 3.72874 4.3 1.5
      vertex 3.72874 4.3 0
    endloop
  endfacet
  facet normal -0.978139 -0.207952 0
    outer loop
      vertex 3.72874 4.3 1.5
      vertex 3.75 4.2 0
      vertex 3.75 4.2 1.5
    endloop
  endfacet
  facet normal -0.978139 0.207952 0
    outer loop
      vertex 3.72874 4.1 0
      vertex 3.75 4.2 1.5
      vertex 3.75 4.2 0
    endloop
  endfacet
  facet normal -0.978139 0.207952 0
    outer loop
      vertex 3.75 4.2 1.5
      vertex 3.72874 4.1 0
      vertex 3.72874 4.1 1.5
    endloop
  endfacet
  facet normal -0.978139 -0.207952 0
    outer loop
      vertex 3.75 4.4 0
      vertex 3.72874 4.5 1.5
      vertex 3.72874 4.5 0
    endloop
  endfacet
  facet normal -0.978139 -0.207952 0
    outer loop
      vertex 3.72874 4.5 1.5
      vertex 3.75 4.4 0
      vertex 3.75 4.4 1.5
    endloop
  endfacet
  facet normal -0.978139 0.207952 0
    outer loop
      vertex 3.72874 4.3 0
      vertex 3.75 4.4 1.5
      vertex 3.75 4.4 0
    endloop
  endfacet
  facet normal -0.978139 0.207952 0
    outer loop
      vertex 3.75 4.4 1.5
      vertex 3.72874 4.3 0
      vertex 3.72874 4.3 1.5
    endloop
  endfacet
  facet normal -0.978139 -0.207952 0
    outer loop
      vertex 3.75 4.6 0
      vertex 3.72874 4.7 1.5
      vertex 3.72874 4.7 0
    endloop
  endfacet
  facet normal -0.978139 -0.207952 0
    outer loop
      vertex 3.72874 4.7 1.5
      vertex 3.75 4.6 0
      vertex 3.75 4.6 1.5
    endloop
  endfacet
  facet normal -0.978139 0.207952 0
    outer loop
      vertex 3.72874 4.5 0
      vertex 3.75 4.6 1.5
      vertex 3.75 4.6 0
    endloop
  endfacet
  facet normal -0.978139 0.207952 0
    outer loop
      vertex 3.75 4.6 1.5
      vertex 3.72874 4.5 0
      vertex 3.72874 4.5 1.5
    endloop
  endfacet
  facet normal -0.978139 -0.207952 0
    outer loop
      vertex 3.75 4.8 0
      vertex 3.72874 4.9 1.5
      vertex 3.72874 4.9 0
    endloop
  endfacet
  facet normal -0.978139 -0.207952 0
    outer loop
      vertex 3.72874 4.9 1.5
      vertex 3.75 4.8 0
      vertex 3.75 4.8 1.5
    endloop
  endfacet
  facet normal -0.978139 0.207952 0
    outer loop
      vertex 3.72874 4.7 0
      vertex 3.75 4.8 1.5
      vertex 3.75 4.8 0
    endloop
  endfacet
  facet normal -0.978139 0.207952 0
    outer loop
      vertex 3.75 4.8 1.5
      vertex 3.72874 4.7 0
      vertex 3.72874 4.7 1.5
    endloop
  endfacet
  facet normal -0.978139 -0.207952 0
    outer loop
      vertex 3.75 5 0
      vertex 3.72874 5.1 1.5
      vertex 3.72874 5.1 0
    endloop
  endfacet
  facet normal -0.978139 -0.207952 0
    outer loop
      vertex 3.72874 5.1 1.5
      vertex 3.75 5 0
      vertex 3.75 5 1.5
    endloop
  endfacet
  facet normal -0.978139 0.207952 0
    outer loop
      vertex 3.72874 4.9 0
      vertex 3.75 5 1.5
      vertex 3.75 5 0
    endloop
  endfacet
  facet normal -0.978139 0.207952 0
    outer loop
      vertex 3.75 5 1.5
      vertex 3.72874 4.9 0
      vertex 3.72874 4.9 1.5
    endloop
  endfacet
  facet normal -0.978139 -0.207952 0
    outer loop
      vertex 3.75 5.2 0
      vertex 3.72874 5.3 1.5
      vertex 3.72874 5.3 0
    endloop
  endfacet
  facet normal -0.978139 -0.207952 0
    outer loop
      vertex 3.72874 5.3 1.5
      vertex 3.75 5.2 0
      vertex 3.75 5.2 1.5
    endloop
  endfacet
  facet normal -0.978139 0.207952 0
    outer loop
      vertex 3.72874 5.1 0
      vertex 3.75 5.2 1.5
      vertex 3.75 5.2 0
    endloop
  endfacet
  facet normal -0.978139 0.207952 0
    outer loop
      vertex 3.75 5.2 1.5
      vertex 3.72874 5.1 0
      vertex 3.72874 5.1 1.5
    endloop
  endfacet
  facet normal -0.978139 -0.207952 0
    outer loop
      vertex 3.75 5.4 0
      vertex 3.72874 5.5 1.5
      vertex 3.72874 5.5 0
    endloop
  endfacet
  facet normal -0.978139 -0.207952 0
    outer loop
      vertex 3.72874 5.5 1.5
      vertex 3.75 5.4 0
      vertex 3.75 5.4 1.5
    endloop
  endfacet
  facet normal -0.978139 0.207952 0
    outer loop
      vertex 3.72874 5.3 0
      vertex 3.75 5.4 1.5
      vertex 3.75 5.4 0
    endloop
  endfacet
  facet normal -0.978139 0.207952 0
    outer loop
      vertex 3.75 5.4 1.5
      vertex 3.72874 5.3 0
      vertex 3.72874 5.3 1.5
    endloop
  endfacet
  facet normal -0.978139 -0.207952 0
    outer loop
      vertex 3.75 5.6 0
      vertex 3.72874 5.7 1.5
      vertex 3.72874 5.7 0
    endloop
  endfacet
  facet normal -0.978139 -0.207952 0
    outer loop
      vertex 3.72874 5.7 1.5
      vertex 3.75 5.6 0
      vertex 3.75 5.6 1.5
    endloop
  endfacet
  facet normal -0.978139 0.207952 0
    outer loop
      vertex 3.72874 5.5 0
      vertex 3.75 5.6 1.5
      vertex 3.75 5.6 0
    endloop
  endfacet
  facet normal -0.978139 0.207952 0
    outer loop
      vertex 3.75 5.6 1.5
      vertex 3.72874 5.5 0
      vertex 3.72874 5.5 1.5
    endloop
  endfacet
  facet normal -0.978139 -0.207952 0
    outer loop
      vertex 3.75 5.8 0
      vertex 3.72874 5.9 1.5
      vertex 3.72874 5.9 0
    endloop
  endfacet
  facet normal -0.978139 -0.207952 0
    outer loop
      vertex 3.72874 5.9 1.5
      vertex 3.75 5.8 0
      vertex 3.75 5.8 1.5
    endloop
  endfacet
  facet normal -0.978139 0.207952 0
    outer loop
      vertex 3.72874 5.7 0
      vertex 3.75 5.8 1.5
      vertex 3.75 5.8 0
    endloop
  endfacet
  facet normal -0.978139 0.207952 0
    outer loop
      vertex 3.75 5.8 1.5
      vertex 3.72874 5.7 0
      vertex 3.72874 5.7 1.5
    endloop
  endfacet
  facet normal -0.978139 -0.207952 0
    outer loop
      vertex 3.75 6 0
      vertex 3.72874 6.1 1.5
      vertex 3.72874 6.1 0
    endloop
  endfacet
  facet normal -0.978139 -0.207952 0
    outer loop
      vertex 3.72874 6.1 1.5
      vertex 3.75 6 0
      vertex 3.75 6 1.5
    endloop
  endfacet
  facet normal -0.978139 0.207952 0
    outer loop
      vertex 3.72874 5.9 0
      vertex 3.75 6 1.5
      vertex 3.75 6 0
    endloop
  endfacet
  facet normal -0.978139 0.207952 0
    outer loop
      vertex 3.75 6 1.5
      vertex 3.72874 5.9 0
      vertex 3.72874 5.9 1.5
    endloop
  endfacet
  facet normal -0.978139 -0.207952 0
    outer loop
      vertex 3.75 6.2 0
      vertex 3.72874 6.3 1.5
      vertex 3.72874 6.3 0
    endloop
  endfacet
  facet normal -0.978139 -0.207952 0
    outer loop
      vertex 3.72874 6.3 1.5
      vertex 3.75 6.2 0
      vertex 3.75 6.2 1.5
    endloop
  endfacet
  facet normal -0.978139 0.207952 0
    outer loop
      vertex 3.72874 6.1 0
      vertex 3.75 6.2 1.5
      vertex 3.75 6.2 0
    endloop
  endfacet
  facet normal -0.978139 0.207952 0
    outer loop
      vertex 3.75 6.2 1.5
      vertex 3.72874 6.1 0
      vertex 3.72874 6.1 1.5
    endloop
  endfacet
  facet normal -0.978139 -0.207952 0
    outer loop
      vertex 3.75 6.4 0
      vertex 3.72874 6.5 1.5
      vertex 3.72874 6.5 0
    endloop
  endfacet
  facet normal -0.978139 -0.207952 0
    outer loop
      vertex 3.72874 6.5 1.5
      vertex 3.75 6.4 0
      vertex 3.75 6.4 1.5
    endloop
  endfacet
  facet normal -0.978139 0.207952 0
    outer loop
      vertex 3.72874 6.3 0
      vertex 3.75 6.4 1.5
      vertex 3.75 6.4 0
    endloop
  endfacet
  facet normal -0.978139 0.207952 0
    outer loop
      vertex 3.75 6.4 1.5
      vertex 3.72874 6.3 0
      vertex 3.72874 6.3 1.5
    endloop
  endfacet
  facet normal -0.978139 -0.207952 0
    outer loop
      vertex 3.75 6.6 0
      vertex 3.72874 6.7 1.5
      vertex 3.72874 6.7 0
    endloop
  endfacet
  facet normal -0.978139 -0.207952 0
    outer loop
      vertex 3.72874 6.7 1.5
      vertex 3.75 6.6 0
      vertex 3.75 6.6 1.5
    endloop
  endfacet
  facet normal -0.978139 0.207952 0
    outer loop
      vertex 3.72874 6.5 0
      vertex 3.75 6.6 1.5
      vertex 3.75 6.6 0
    endloop
  endfacet
  facet normal -0.978139 0.207952 0
    outer loop
      vertex 3.75 6.6 1.5
      vertex 3.72874 6.5 0
      vertex 3.72874 6.5 1.5
    endloop
  endfacet
  facet normal -0.978139 -0.207952 0
    outer loop
      vertex 3.75 6.8 0
      vertex 3.72874 6.9 1.5
      vertex 3.72874 6.9 0
    endloop
  endfacet
  facet normal -0.978139 -0.207952 0
    outer loop
      vertex 3.72874 6.9 1.5
      vertex 3.75 6.8 0
      vertex 3.75 6.8 1.5
    endloop
  endfacet
  facet normal -0.978139 0.207952 0
    outer loop
      vertex 3.72874 6.7 0
      vertex 3.75 6.8 1.5
      vertex 3.75 6.8 0
    endloop
  endfacet
  facet normal -0.978139 0.207952 0
    outer loop
      vertex 3.75 6.8 1.5
      vertex 3.72874 6.7 0
      vertex 3.72874 6.7 1.5
    endloop
  endfacet
  facet normal -0.978139 -0.207952 0
    outer loop
      vertex 3.75 7 0
      vertex 3.72874 7.1 1.5
      vertex 3.72874 7.1 0
    endloop
  endfacet
  facet normal -0.978139 -0.207952 0
    outer loop
      vertex 3.72874 7.1 1.5
      vertex 3.75 7 0
      vertex 3.75 7 1.5
    endloop
  endfacet
  facet normal -0.978139 0.207952 0
    outer loop
      vertex 3.72874 6.9 0
      vertex 3.75 7 1.5
      vertex 3.75 7 0
    endloop
  endfacet
  facet normal -0.978139 0.207952 0
    outer loop
      vertex 3.75 7 1.5
      vertex 3.72874 6.9 0
      vertex 3.72874 6.9 1.5
    endloop
  endfacet
  facet normal -0.978139 -0.207952 0
    outer loop
      vertex 3.75 7.2 0
      vertex 3.72874 7.3 1.5
      vertex 3.72874 7.3 0
    endloop
  endfacet
  facet normal -0.978139 -0.207952 0
    outer loop
      vertex 3.72874 7.3 1.5
      vertex 3.75 7.2 0
      vertex 3.75 7.2 1.5
    endloop
  endfacet
  facet normal -0.978139 0.207952 0
    outer loop
      vertex 3.72874 7.1 0
      vertex 3.75 7.2 1.5
      vertex 3.75 7.2 0
    endloop
  endfacet
  facet normal -0.978139 0.207952 0
    outer loop
      vertex 3.75 7.2 1.5
      vertex 3.72874 7.1 0
      vertex 3.72874 7.1 1.5
    endloop
  endfacet
  facet normal -0.978139 -0.207952 0
    outer loop
      vertex 3.75 7.4 0
      vertex 3.72874 7.5 1.5
      vertex 3.72874 7.5 0
    endloop
  endfacet
  facet normal -0.978139 -0.207952 0
    outer loop
      vertex 3.72874 7.5 1.5
      vertex 3.75 7.4 0
      vertex 3.75 7.4 1.5
    endloop
  endfacet
  facet normal -0.978139 0.207952 0
    outer loop
      vertex 3.72874 7.3 0
      vertex 3.75 7.4 1.5
      vertex 3.75 7.4 0
    endloop
  endfacet
  facet normal -0.978139 0.207952 0
    outer loop
      vertex 3.75 7.4 1.5
      vertex 3.72874 7.3 0
      vertex 3.72874 7.3 1.5
    endloop
  endfacet
  facet normal -0.978139 -0.207952 0
    outer loop
      vertex 3.75 7.6 0
      vertex 3.72874 7.7 1.5
      vertex 3.72874 7.7 0
    endloop
  endfacet
  facet normal -0.978139 -0.207952 0
    outer loop
      vertex 3.72874 7.7 1.5
      vertex 3.75 7.6 0
      vertex 3.75 7.6 1.5
    endloop
  endfacet
  facet normal -0.978139 0.207952 0
    outer loop
      vertex 3.72874 7.5 0
      vertex 3.75 7.6 1.5
      vertex 3.75 7.6 0
    endloop
  endfacet
  facet normal -0.978139 0.207952 0
    outer loop
      vertex 3.75 7.6 1.5
      vertex 3.72874 7.5 0
      vertex 3.72874 7.5 1.5
    endloop
  endfacet
  facet normal -0.978139 -0.207952 0
    outer loop
      vertex 3.75 7.8 0
      vertex 3.72874 7.9 1.5
      vertex 3.72874 7.9 0
    endloop
  endfacet
  facet normal -0.978139 -0.207952 0
    outer loop
      vertex 3.72874 7.9 1.5
      vertex 3.75 7.8 0
      vertex 3.75 7.8 1.5
    endloop
  endfacet
  facet normal -0.978139 0.207952 0
    outer loop
      vertex 3.72874 7.7 0
      vertex 3.75 7.8 1.5
      vertex 3.75 7.8 0
    endloop
  endfacet
  facet normal -0.978139 0.207952 0
    outer loop
      vertex 3.75 7.8 1.5
      vertex 3.72874 7.7 0
      vertex 3.72874 7.7 1.5
    endloop
  endfacet
  facet normal -0.978147 -0.207915 0
    outer loop
      vertex 3.75 8 0
      vertex 3.64193 8.50842 1.5
      vertex 3.64193 8.50842 0
    endloop
  endfacet
  facet normal -0.978147 -0.207915 0
    outer loop
      vertex 3.64193 8.50842 1.5
      vertex 3.75 8 0
      vertex 3.75 8 1.5
    endloop
  endfacet
  facet normal -0.104526 -0.994522 0
    outer loop
      vertex 2.36934 9.24315 0
      vertex 2.88627 9.18882 1.5
      vertex 2.36934 9.24315 1.5
    endloop
  endfacet
  facet normal -0.104526 -0.994522 -0
    outer loop
      vertex 2.88627 9.18882 1.5
      vertex 2.36934 9.24315 0
      vertex 2.88627 9.18882 0
    endloop
  endfacet
  facet normal -0.500002 -0.866024 0
    outer loop
      vertex 2.88627 9.18882 0
      vertex 3.33641 8.92893 1.5
      vertex 2.88627 9.18882 1.5
    endloop
  endfacet
  facet normal -0.500002 -0.866024 -0
    outer loop
      vertex 3.33641 8.92893 1.5
      vertex 2.88627 9.18882 0
      vertex 3.33641 8.92893 0
    endloop
  endfacet
  facet normal -0.809016 -0.587787 0
    outer loop
      vertex 3.64193 8.50842 0
      vertex 3.33641 8.92893 1.5
      vertex 3.33641 8.92893 0
    endloop
  endfacet
  facet normal -0.809016 -0.587787 0
    outer loop
      vertex 3.33641 8.92893 1.5
      vertex 3.64193 8.50842 0
      vertex 3.64193 8.50842 1.5
    endloop
  endfacet
  facet normal 0.669132 -0.743144 0
    outer loop
      vertex 1.48873 8.73473 0
      vertex 1.875 9.08253 1.5
      vertex 1.48873 8.73473 1.5
    endloop
  endfacet
  facet normal 0.669132 -0.743144 0
    outer loop
      vertex 1.875 9.08253 1.5
      vertex 1.48873 8.73473 0
      vertex 1.875 9.08253 0
    endloop
  endfacet
  facet normal 0.913547 -0.406733 0
    outer loop
      vertex 1.27732 8.25989 1.5
      vertex 1.48873 8.73473 0
      vertex 1.48873 8.73473 1.5
    endloop
  endfacet
  facet normal 0.913547 -0.406733 0
    outer loop
      vertex 1.48873 8.73473 0
      vertex 1.27732 8.25989 1.5
      vertex 1.27732 8.25989 0
    endloop
  endfacet
  facet normal 0.309016 -0.951057 0
    outer loop
      vertex 1.875 9.08253 0
      vertex 2.36934 9.24315 1.5
      vertex 1.875 9.08253 1.5
    endloop
  endfacet
  facet normal 0.309016 -0.951057 0
    outer loop
      vertex 2.36934 9.24315 1.5
      vertex 1.875 9.08253 0
      vertex 2.36934 9.24315 0
    endloop
  endfacet
  facet normal -0.978139 0.207952 0
    outer loop
      vertex 3.72874 7.9 0
      vertex 3.75 8 1.5
      vertex 3.75 8 0
    endloop
  endfacet
  facet normal -0.978139 0.207952 0
    outer loop
      vertex 3.75 8 1.5
      vertex 3.72874 7.9 0
      vertex 3.72874 7.9 1.5
    endloop
  endfacet
  facet normal -0.978139 -0.207952 0
    outer loop
      vertex 8.75 2 0
      vertex 8.72874 2.1 1.5
      vertex 8.72874 2.1 0
    endloop
  endfacet
  facet normal -0.978139 -0.207952 0
    outer loop
      vertex 8.72874 2.1 1.5
      vertex 8.75 2 0
      vertex 8.75 2 1.5
    endloop
  endfacet
  facet normal 1 -0 0
    outer loop
      vertex 6.27732 1.74011 1.5
      vertex 6.27732 8.25989 0
      vertex 6.27732 8.25989 1.5
    endloop
  endfacet
  facet normal 1 0 0
    outer loop
      vertex 6.27732 8.25989 0
      vertex 6.27732 1.74011 1.5
      vertex 6.27732 1.74011 0
    endloop
  endfacet
  facet normal -0.500004 0.866023 0
    outer loop
      vertex 8.33641 1.07107 0
      vertex 7.88627 0.811179 1.5
      vertex 8.33641 1.07107 1.5
    endloop
  endfacet
  facet normal -0.500004 0.866023 0
    outer loop
      vertex 7.88627 0.811179 1.5
      vertex 8.33641 1.07107 0
      vertex 7.88627 0.811179 0
    endloop
  endfacet
  facet normal 0.309017 0.951056 -0
    outer loop
      vertex 7.36934 0.756847 0
      vertex 6.875 0.917468 1.5
      vertex 7.36934 0.756847 1.5
    endloop
  endfacet
  facet normal 0.309017 0.951056 0
    outer loop
      vertex 6.875 0.917468 1.5
      vertex 7.36934 0.756847 0
      vertex 6.875 0.917468 0
    endloop
  endfacet
  facet normal 0.913547 0.406733 0
    outer loop
      vertex 6.48873 1.26527 1.5
      vertex 6.27732 1.74011 0
      vertex 6.27732 1.74011 1.5
    endloop
  endfacet
  facet normal 0.913547 0.406733 0
    outer loop
      vertex 6.27732 1.74011 0
      vertex 6.48873 1.26527 1.5
      vertex 6.48873 1.26527 0
    endloop
  endfacet
  facet normal -0.809016 0.587787 0
    outer loop
      vertex 8.33641 1.07107 0
      vertex 8.64193 1.49158 1.5
      vertex 8.64193 1.49158 0
    endloop
  endfacet
  facet normal -0.809016 0.587787 0
    outer loop
      vertex 8.64193 1.49158 1.5
      vertex 8.33641 1.07107 0
      vertex 8.33641 1.07107 1.5
    endloop
  endfacet
  facet normal -0.978147 0.207915 0
    outer loop
      vertex 8.64193 1.49158 0
      vertex 8.75 2 1.5
      vertex 8.75 2 0
    endloop
  endfacet
  facet normal -0.978147 0.207915 0
    outer loop
      vertex 8.75 2 1.5
      vertex 8.64193 1.49158 0
      vertex 8.64193 1.49158 1.5
    endloop
  endfacet
  facet normal -0.104529 0.994522 0
    outer loop
      vertex 7.88627 0.811179 0
      vertex 7.36934 0.756847 1.5
      vertex 7.88627 0.811179 1.5
    endloop
  endfacet
  facet normal -0.104529 0.994522 0
    outer loop
      vertex 7.36934 0.756847 1.5
      vertex 7.88627 0.811179 0
      vertex 7.36934 0.756847 0
    endloop
  endfacet
  facet normal 0.669134 0.743142 -0
    outer loop
      vertex 6.875 0.917468 0
      vertex 6.48873 1.26527 1.5
      vertex 6.875 0.917468 1.5
    endloop
  endfacet
  facet normal 0.669134 0.743142 0
    outer loop
      vertex 6.48873 1.26527 1.5
      vertex 6.875 0.917468 0
      vertex 6.48873 1.26527 0
    endloop
  endfacet
  facet normal -0.978139 -0.207952 0
    outer loop
      vertex 8.75 2.2 0
      vertex 8.72874 2.3 1.5
      vertex 8.72874 2.3 0
    endloop
  endfacet
  facet normal -0.978139 -0.207952 0
    outer loop
      vertex 8.72874 2.3 1.5
      vertex 8.75 2.2 0
      vertex 8.75 2.2 1.5
    endloop
  endfacet
  facet normal -0.978139 0.207952 0
    outer loop
      vertex 8.72874 2.1 0
      vertex 8.75 2.2 1.5
      vertex 8.75 2.2 0
    endloop
  endfacet
  facet normal -0.978139 0.207952 0
    outer loop
      vertex 8.75 2.2 1.5
      vertex 8.72874 2.1 0
      vertex 8.72874 2.1 1.5
    endloop
  endfacet
  facet normal -0.978139 -0.207952 0
    outer loop
      vertex 8.75 2.4 0
      vertex 8.72874 2.5 1.5
      vertex 8.72874 2.5 0
    endloop
  endfacet
  facet normal -0.978139 -0.207952 0
    outer loop
      vertex 8.72874 2.5 1.5
      vertex 8.75 2.4 0
      vertex 8.75 2.4 1.5
    endloop
  endfacet
  facet normal -0.978139 0.207952 0
    outer loop
      vertex 8.72874 2.3 0
      vertex 8.75 2.4 1.5
      vertex 8.75 2.4 0
    endloop
  endfacet
  facet normal -0.978139 0.207952 0
    outer loop
      vertex 8.75 2.4 1.5
      vertex 8.72874 2.3 0
      vertex 8.72874 2.3 1.5
    endloop
  endfacet
  facet normal -0.978139 -0.207952 0
    outer loop
      vertex 8.75 2.6 0
      vertex 8.72874 2.7 1.5
      vertex 8.72874 2.7 0
    endloop
  endfacet
  facet normal -0.978139 -0.207952 0
    outer loop
      vertex 8.72874 2.7 1.5
      vertex 8.75 2.6 0
      vertex 8.75 2.6 1.5
    endloop
  endfacet
  facet normal -0.978139 0.207952 0
    outer loop
      vertex 8.72874 2.5 0
      vertex 8.75 2.6 1.5
      vertex 8.75 2.6 0
    endloop
  endfacet
  facet normal -0.978139 0.207952 0
    outer loop
      vertex 8.75 2.6 1.5
      vertex 8.72874 2.5 0
      vertex 8.72874 2.5 1.5
    endloop
  endfacet
  facet normal -0.978139 -0.207952 0
    outer loop
      vertex 8.75 2.8 0
      vertex 8.72874 2.9 1.5
      vertex 8.72874 2.9 0
    endloop
  endfacet
  facet normal -0.978139 -0.207952 0
    outer loop
      vertex 8.72874 2.9 1.5
      vertex 8.75 2.8 0
      vertex 8.75 2.8 1.5
    endloop
  endfacet
  facet normal -0.978139 0.207952 0
    outer loop
      vertex 8.72874 2.7 0
      vertex 8.75 2.8 1.5
      vertex 8.75 2.8 0
    endloop
  endfacet
  facet normal -0.978139 0.207952 0
    outer loop
      vertex 8.75 2.8 1.5
      vertex 8.72874 2.7 0
      vertex 8.72874 2.7 1.5
    endloop
  endfacet
  facet normal -0.978139 -0.207952 0
    outer loop
      vertex 8.75 3 0
      vertex 8.72874 3.1 1.5
      vertex 8.72874 3.1 0
    endloop
  endfacet
  facet normal -0.978139 -0.207952 0
    outer loop
      vertex 8.72874 3.1 1.5
      vertex 8.75 3 0
      vertex 8.75 3 1.5
    endloop
  endfacet
  facet normal -0.978139 0.207952 0
    outer loop
      vertex 8.72874 2.9 0
      vertex 8.75 3 1.5
      vertex 8.75 3 0
    endloop
  endfacet
  facet normal -0.978139 0.207952 0
    outer loop
      vertex 8.75 3 1.5
      vertex 8.72874 2.9 0
      vertex 8.72874 2.9 1.5
    endloop
  endfacet
  facet normal -0.978139 -0.207952 0
    outer loop
      vertex 8.75 3.2 0
      vertex 8.72874 3.3 1.5
      vertex 8.72874 3.3 0
    endloop
  endfacet
  facet normal -0.978139 -0.207952 0
    outer loop
      vertex 8.72874 3.3 1.5
      vertex 8.75 3.2 0
      vertex 8.75 3.2 1.5
    endloop
  endfacet
  facet normal -0.978139 0.207952 0
    outer loop
      vertex 8.72874 3.1 0
      vertex 8.75 3.2 1.5
      vertex 8.75 3.2 0
    endloop
  endfacet
  facet normal -0.978139 0.207952 0
    outer loop
      vertex 8.75 3.2 1.5
      vertex 8.72874 3.1 0
      vertex 8.72874 3.1 1.5
    endloop
  endfacet
  facet normal -0.978139 -0.207952 0
    outer loop
      vertex 8.75 3.4 0
      vertex 8.72874 3.5 1.5
      vertex 8.72874 3.5 0
    endloop
  endfacet
  facet normal -0.978139 -0.207952 0
    outer loop
      vertex 8.72874 3.5 1.5
      vertex 8.75 3.4 0
      vertex 8.75 3.4 1.5
    endloop
  endfacet
  facet normal -0.978139 0.207952 0
    outer loop
      vertex 8.72874 3.3 0
      vertex 8.75 3.4 1.5
      vertex 8.75 3.4 0
    endloop
  endfacet
  facet normal -0.978139 0.207952 0
    outer loop
      vertex 8.75 3.4 1.5
      vertex 8.72874 3.3 0
      vertex 8.72874 3.3 1.5
    endloop
  endfacet
  facet normal -0.978139 -0.207952 0
    outer loop
      vertex 8.75 3.6 0
      vertex 8.72874 3.7 1.5
      vertex 8.72874 3.7 0
    endloop
  endfacet
  facet normal -0.978139 -0.207952 0
    outer loop
      vertex 8.72874 3.7 1.5
      vertex 8.75 3.6 0
      vertex 8.75 3.6 1.5
    endloop
  endfacet
  facet normal -0.978139 0.207952 0
    outer loop
      vertex 8.72874 3.5 0
      vertex 8.75 3.6 1.5
      vertex 8.75 3.6 0
    endloop
  endfacet
  facet normal -0.978139 0.207952 0
    outer loop
      vertex 8.75 3.6 1.5
      vertex 8.72874 3.5 0
      vertex 8.72874 3.5 1.5
    endloop
  endfacet
  facet normal -0.978139 -0.207952 0
    outer loop
      vertex 8.75 3.8 0
      vertex 8.72874 3.9 1.5
      vertex 8.72874 3.9 0
    endloop
  endfacet
  facet normal -0.978139 -0.207952 0
    outer loop
      vertex 8.72874 3.9 1.5
      vertex 8.75 3.8 0
      vertex 8.75 3.8 1.5
    endloop
  endfacet
  facet normal -0.978139 0.207952 0
    outer loop
      vertex 8.72874 3.7 0
      vertex 8.75 3.8 1.5
      vertex 8.75 3.8 0
    endloop
  endfacet
  facet normal -0.978139 0.207952 0
    outer loop
      vertex 8.75 3.8 1.5
      vertex 8.72874 3.7 0
      vertex 8.72874 3.7 1.5
    endloop
  endfacet
  facet normal -0.978139 -0.207952 0
    outer loop
      vertex 8.75 4 0
      vertex 8.72874 4.1 1.5
      vertex 8.72874 4.1 0
    endloop
  endfacet
  facet normal -0.978139 -0.207952 0
    outer loop
      vertex 8.72874 4.1 1.5
      vertex 8.75 4 0
      vertex 8.75 4 1.5
    endloop
  endfacet
  facet normal -0.978139 0.207952 0
    outer loop
      vertex 8.72874 3.9 0
      vertex 8.75 4 1.5
      vertex 8.75 4 0
    endloop
  endfacet
  facet normal -0.978139 0.207952 0
    outer loop
      vertex 8.75 4 1.5
      vertex 8.72874 3.9 0
      vertex 8.72874 3.9 1.5
    endloop
  endfacet
  facet normal -0.978139 -0.207952 0
    outer loop
      vertex 8.75 4.2 0
      vertex 8.72874 4.3 1.5
      vertex 8.72874 4.3 0
    endloop
  endfacet
  facet normal -0.978139 -0.207952 0
    outer loop
      vertex 8.72874 4.3 1.5
      vertex 8.75 4.2 0
      vertex 8.75 4.2 1.5
    endloop
  endfacet
  facet normal -0.978139 0.207952 0
    outer loop
      vertex 8.72874 4.1 0
      vertex 8.75 4.2 1.5
      vertex 8.75 4.2 0
    endloop
  endfacet
  facet normal -0.978139 0.207952 0
    outer loop
      vertex 8.75 4.2 1.5
      vertex 8.72874 4.1 0
      vertex 8.72874 4.1 1.5
    endloop
  endfacet
  facet normal -0.978139 -0.207952 0
    outer loop
      vertex 8.75 4.4 0
      vertex 8.72874 4.5 1.5
      vertex 8.72874 4.5 0
    endloop
  endfacet
  facet normal -0.978139 -0.207952 0
    outer loop
      vertex 8.72874 4.5 1.5
      vertex 8.75 4.4 0
      vertex 8.75 4.4 1.5
    endloop
  endfacet
  facet normal -0.978139 0.207952 0
    outer loop
      vertex 8.72874 4.3 0
      vertex 8.75 4.4 1.5
      vertex 8.75 4.4 0
    endloop
  endfacet
  facet normal -0.978139 0.207952 0
    outer loop
      vertex 8.75 4.4 1.5
      vertex 8.72874 4.3 0
      vertex 8.72874 4.3 1.5
    endloop
  endfacet
  facet normal -0.978139 -0.207952 0
    outer loop
      vertex 8.75 4.6 0
      vertex 8.72874 4.7 1.5
      vertex 8.72874 4.7 0
    endloop
  endfacet
  facet normal -0.978139 -0.207952 0
    outer loop
      vertex 8.72874 4.7 1.5
      vertex 8.75 4.6 0
      vertex 8.75 4.6 1.5
    endloop
  endfacet
  facet normal -0.978139 0.207952 0
    outer loop
      vertex 8.72874 4.5 0
      vertex 8.75 4.6 1.5
      vertex 8.75 4.6 0
    endloop
  endfacet
  facet normal -0.978139 0.207952 0
    outer loop
      vertex 8.75 4.6 1.5
      vertex 8.72874 4.5 0
      vertex 8.72874 4.5 1.5
    endloop
  endfacet
  facet normal -0.978139 -0.207952 0
    outer loop
      vertex 8.75 4.8 0
      vertex 8.72874 4.9 1.5
      vertex 8.72874 4.9 0
    endloop
  endfacet
  facet normal -0.978139 -0.207952 0
    outer loop
      vertex 8.72874 4.9 1.5
      vertex 8.75 4.8 0
      vertex 8.75 4.8 1.5
    endloop
  endfacet
  facet normal -0.978139 0.207952 0
    outer loop
      vertex 8.72874 4.7 0
      vertex 8.75 4.8 1.5
      vertex 8.75 4.8 0
    endloop
  endfacet
  facet normal -0.978139 0.207952 0
    outer loop
      vertex 8.75 4.8 1.5
      vertex 8.72874 4.7 0
      vertex 8.72874 4.7 1.5
    endloop
  endfacet
  facet normal -0.978139 -0.207952 0
    outer loop
      vertex 8.75 5 0
      vertex 8.72874 5.1 1.5
      vertex 8.72874 5.1 0
    endloop
  endfacet
  facet normal -0.978139 -0.207952 0
    outer loop
      vertex 8.72874 5.1 1.5
      vertex 8.75 5 0
      vertex 8.75 5 1.5
    endloop
  endfacet
  facet normal -0.978139 0.207952 0
    outer loop
      vertex 8.72874 4.9 0
      vertex 8.75 5 1.5
      vertex 8.75 5 0
    endloop
  endfacet
  facet normal -0.978139 0.207952 0
    outer loop
      vertex 8.75 5 1.5
      vertex 8.72874 4.9 0
      vertex 8.72874 4.9 1.5
    endloop
  endfacet
  facet normal -0.978139 -0.207952 0
    outer loop
      vertex 8.75 5.2 0
      vertex 8.72874 5.3 1.5
      vertex 8.72874 5.3 0
    endloop
  endfacet
  facet normal -0.978139 -0.207952 0
    outer loop
      vertex 8.72874 5.3 1.5
      vertex 8.75 5.2 0
      vertex 8.75 5.2 1.5
    endloop
  endfacet
  facet normal -0.978139 0.207952 0
    outer loop
      vertex 8.72874 5.1 0
      vertex 8.75 5.2 1.5
      vertex 8.75 5.2 0
    endloop
  endfacet
  facet normal -0.978139 0.207952 0
    outer loop
      vertex 8.75 5.2 1.5
      vertex 8.72874 5.1 0
      vertex 8.72874 5.1 1.5
    endloop
  endfacet
  facet normal -0.978139 -0.207952 0
    outer loop
      vertex 8.75 5.4 0
      vertex 8.72874 5.5 1.5
      vertex 8.72874 5.5 0
    endloop
  endfacet
  facet normal -0.978139 -0.207952 0
    outer loop
      vertex 8.72874 5.5 1.5
      vertex 8.75 5.4 0
      vertex 8.75 5.4 1.5
    endloop
  endfacet
  facet normal -0.978139 0.207952 0
    outer loop
      vertex 8.72874 5.3 0
      vertex 8.75 5.4 1.5
      vertex 8.75 5.4 0
    endloop
  endfacet
  facet normal -0.978139 0.207952 0
    outer loop
      vertex 8.75 5.4 1.5
      vertex 8.72874 5.3 0
      vertex 8.72874 5.3 1.5
    endloop
  endfacet
  facet normal -0.978139 -0.207952 0
    outer loop
      vertex 8.75 5.6 0
      vertex 8.72874 5.7 1.5
      vertex 8.72874 5.7 0
    endloop
  endfacet
  facet normal -0.978139 -0.207952 0
    outer loop
      vertex 8.72874 5.7 1.5
      vertex 8.75 5.6 0
      vertex 8.75 5.6 1.5
    endloop
  endfacet
  facet normal -0.978139 0.207952 0
    outer loop
      vertex 8.72874 5.5 0
      vertex 8.75 5.6 1.5
      vertex 8.75 5.6 0
    endloop
  endfacet
  facet normal -0.978139 0.207952 0
    outer loop
      vertex 8.75 5.6 1.5
      vertex 8.72874 5.5 0
      vertex 8.72874 5.5 1.5
    endloop
  endfacet
  facet normal -0.978139 -0.207952 0
    outer loop
      vertex 8.75 5.8 0
      vertex 8.72874 5.9 1.5
      vertex 8.72874 5.9 0
    endloop
  endfacet
  facet normal -0.978139 -0.207952 0
    outer loop
      vertex 8.72874 5.9 1.5
      vertex 8.75 5.8 0
      vertex 8.75 5.8 1.5
    endloop
  endfacet
  facet normal -0.978139 0.207952 0
    outer loop
      vertex 8.72874 5.7 0
      vertex 8.75 5.8 1.5
      vertex 8.75 5.8 0
    endloop
  endfacet
  facet normal -0.978139 0.207952 0
    outer loop
      vertex 8.75 5.8 1.5
      vertex 8.72874 5.7 0
      vertex 8.72874 5.7 1.5
    endloop
  endfacet
  facet normal -0.978139 -0.207952 0
    outer loop
      vertex 8.75 6 0
      vertex 8.72874 6.1 1.5
      vertex 8.72874 6.1 0
    endloop
  endfacet
  facet normal -0.978139 -0.207952 0
    outer loop
      vertex 8.72874 6.1 1.5
      vertex 8.75 6 0
      vertex 8.75 6 1.5
    endloop
  endfacet
  facet normal -0.978139 0.207952 0
    outer loop
      vertex 8.72874 5.9 0
      vertex 8.75 6 1.5
      vertex 8.75 6 0
    endloop
  endfacet
  facet normal -0.978139 0.207952 0
    outer loop
      vertex 8.75 6 1.5
      vertex 8.72874 5.9 0
      vertex 8.72874 5.9 1.5
    endloop
  endfacet
  facet normal -0.978139 -0.207952 0
    outer loop
      vertex 8.75 6.2 0
      vertex 8.72874 6.3 1.5
      vertex 8.72874 6.3 0
    endloop
  endfacet
  facet normal -0.978139 -0.207952 0
    outer loop
      vertex 8.72874 6.3 1.5
      vertex 8.75 6.2 0
      vertex 8.75 6.2 1.5
    endloop
  endfacet
  facet normal -0.978139 0.207952 0
    outer loop
      vertex 8.72874 6.1 0
      vertex 8.75 6.2 1.5
      vertex 8.75 6.2 0
    endloop
  endfacet
  facet normal -0.978139 0.207952 0
    outer loop
      vertex 8.75 6.2 1.5
      vertex 8.72874 6.1 0
      vertex 8.72874 6.1 1.5
    endloop
  endfacet
  facet normal -0.978139 -0.207952 0
    outer loop
      vertex 8.75 6.4 0
      vertex 8.72874 6.5 1.5
      vertex 8.72874 6.5 0
    endloop
  endfacet
  facet normal -0.978139 -0.207952 0
    outer loop
      vertex 8.72874 6.5 1.5
      vertex 8.75 6.4 0
      vertex 8.75 6.4 1.5
    endloop
  endfacet
  facet normal -0.978139 0.207952 0
    outer loop
      vertex 8.72874 6.3 0
      vertex 8.75 6.4 1.5
      vertex 8.75 6.4 0
    endloop
  endfacet
  facet normal -0.978139 0.207952 0
    outer loop
      vertex 8.75 6.4 1.5
      vertex 8.72874 6.3 0
      vertex 8.72874 6.3 1.5
    endloop
  endfacet
  facet normal -0.978139 -0.207952 0
    outer loop
      vertex 8.75 6.6 0
      vertex 8.72874 6.7 1.5
      vertex 8.72874 6.7 0
    endloop
  endfacet
  facet normal -0.978139 -0.207952 0
    outer loop
      vertex 8.72874 6.7 1.5
      vertex 8.75 6.6 0
      vertex 8.75 6.6 1.5
    endloop
  endfacet
  facet normal -0.978139 0.207952 0
    outer loop
      vertex 8.72874 6.5 0
      vertex 8.75 6.6 1.5
      vertex 8.75 6.6 0
    endloop
  endfacet
  facet normal -0.978139 0.207952 0
    outer loop
      vertex 8.75 6.6 1.5
      vertex 8.72874 6.5 0
      vertex 8.72874 6.5 1.5
    endloop
  endfacet
  facet normal -0.978139 -0.207952 0
    outer loop
      vertex 8.75 6.8 0
      vertex 8.72874 6.9 1.5
      vertex 8.72874 6.9 0
    endloop
  endfacet
  facet normal -0.978139 -0.207952 0
    outer loop
      vertex 8.72874 6.9 1.5
      vertex 8.75 6.8 0
      vertex 8.75 6.8 1.5
    endloop
  endfacet
  facet normal -0.978139 0.207952 0
    outer loop
      vertex 8.72874 6.7 0
      vertex 8.75 6.8 1.5
      vertex 8.75 6.8 0
    endloop
  endfacet
  facet normal -0.978139 0.207952 0
    outer loop
      vertex 8.75 6.8 1.5
      vertex 8.72874 6.7 0
      vertex 8.72874 6.7 1.5
    endloop
  endfacet
  facet normal -0.978139 -0.207952 0
    outer loop
      vertex 8.75 7 0
      vertex 8.72874 7.1 1.5
      vertex 8.72874 7.1 0
    endloop
  endfacet
  facet normal -0.978139 -0.207952 0
    outer loop
      vertex 8.72874 7.1 1.5
      vertex 8.75 7 0
      vertex 8.75 7 1.5
    endloop
  endfacet
  facet normal -0.978139 0.207952 0
    outer loop
      vertex 8.72874 6.9 0
      vertex 8.75 7 1.5
      vertex 8.75 7 0
    endloop
  endfacet
  facet normal -0.978139 0.207952 0
    outer loop
      vertex 8.75 7 1.5
      vertex 8.72874 6.9 0
      vertex 8.72874 6.9 1.5
    endloop
  endfacet
  facet normal -0.978139 -0.207952 0
    outer loop
      vertex 8.75 7.2 0
      vertex 8.72874 7.3 1.5
      vertex 8.72874 7.3 0
    endloop
  endfacet
  facet normal -0.978139 -0.207952 0
    outer loop
      vertex 8.72874 7.3 1.5
      vertex 8.75 7.2 0
      vertex 8.75 7.2 1.5
    endloop
  endfacet
  facet normal -0.978139 0.207952 0
    outer loop
      vertex 8.72874 7.1 0
      vertex 8.75 7.2 1.5
      vertex 8.75 7.2 0
    endloop
  endfacet
  facet normal -0.978139 0.207952 0
    outer loop
      vertex 8.75 7.2 1.5
      vertex 8.72874 7.1 0
      vertex 8.72874 7.1 1.5
    endloop
  endfacet
  facet normal -0.978139 -0.207952 0
    outer loop
      vertex 8.75 7.4 0
      vertex 8.72874 7.5 1.5
      vertex 8.72874 7.5 0
    endloop
  endfacet
  facet normal -0.978139 -0.207952 0
    outer loop
      vertex 8.72874 7.5 1.5
      vertex 8.75 7.4 0
      vertex 8.75 7.4 1.5
    endloop
  endfacet
  facet normal -0.978139 0.207952 0
    outer loop
      vertex 8.72874 7.3 0
      vertex 8.75 7.4 1.5
      vertex 8.75 7.4 0
    endloop
  endfacet
  facet normal -0.978139 0.207952 0
    outer loop
      vertex 8.75 7.4 1.5
      vertex 8.72874 7.3 0
      vertex 8.72874 7.3 1.5
    endloop
  endfacet
  facet normal -0.978139 -0.207952 0
    outer loop
      vertex 8.75 7.6 0
      vertex 8.72874 7.7 1.5
      vertex 8.72874 7.7 0
    endloop
  endfacet
  facet normal -0.978139 -0.207952 0
    outer loop
      vertex 8.72874 7.7 1.5
      vertex 8.75 7.6 0
      vertex 8.75 7.6 1.5
    endloop
  endfacet
  facet normal -0.978139 0.207952 0
    outer loop
      vertex 8.72874 7.5 0
      vertex 8.75 7.6 1.5
      vertex 8.75 7.6 0
    endloop
  endfacet
  facet normal -0.978139 0.207952 0
    outer loop
      vertex 8.75 7.6 1.5
      vertex 8.72874 7.5 0
      vertex 8.72874 7.5 1.5
    endloop
  endfacet
  facet normal -0.978139 -0.207952 0
    outer loop
      vertex 8.75 7.8 0
      vertex 8.72874 7.9 1.5
      vertex 8.72874 7.9 0
    endloop
  endfacet
  facet normal -0.978139 -0.207952 0
    outer loop
      vertex 8.72874 7.9 1.5
      vertex 8.75 7.8 0
      vertex 8.75 7.8 1.5
    endloop
  endfacet
  facet normal -0.978139 0.207952 0
    outer loop
      vertex 8.72874 7.7 0
      vertex 8.75 7.8 1.5
      vertex 8.75 7.8 0
    endloop
  endfacet
  facet normal -0.978139 0.207952 0
    outer loop
      vertex 8.75 7.8 1.5
      vertex 8.72874 7.7 0
      vertex 8.72874 7.7 1.5
    endloop
  endfacet
  facet normal -0.978147 -0.207915 0
    outer loop
      vertex 8.75 8 0
      vertex 8.64193 8.50842 1.5
      vertex 8.64193 8.50842 0
    endloop
  endfacet
  facet normal -0.978147 -0.207915 0
    outer loop
      vertex 8.64193 8.50842 1.5
      vertex 8.75 8 0
      vertex 8.75 8 1.5
    endloop
  endfacet
  facet normal -0.104526 -0.994522 0
    outer loop
      vertex 7.36934 9.24315 0
      vertex 7.88627 9.18882 1.5
      vertex 7.36934 9.24315 1.5
    endloop
  endfacet
  facet normal -0.104526 -0.994522 -0
    outer loop
      vertex 7.88627 9.18882 1.5
      vertex 7.36934 9.24315 0
      vertex 7.88627 9.18882 0
    endloop
  endfacet
  facet normal -0.500002 -0.866024 0
    outer loop
      vertex 7.88627 9.18882 0
      vertex 8.33641 8.92893 1.5
      vertex 7.88627 9.18882 1.5
    endloop
  endfacet
  facet normal -0.500002 -0.866024 -0
    outer loop
      vertex 8.33641 8.92893 1.5
      vertex 7.88627 9.18882 0
      vertex 8.33641 8.92893 0
    endloop
  endfacet
  facet normal -0.809016 -0.587787 0
    outer loop
      vertex 8.64193 8.50842 0
      vertex 8.33641 8.92893 1.5
      vertex 8.33641 8.92893 0
    endloop
  endfacet
  facet normal -0.809016 -0.587787 0
    outer loop
      vertex 8.33641 8.92893 1.5
      vertex 8.64193 8.50842 0
      vertex 8.64193 8.50842 1.5
    endloop
  endfacet
  facet normal 0.669132 -0.743144 0
    outer loop
      vertex 6.48873 8.73473 0
      vertex 6.875 9.08253 1.5
      vertex 6.48873 8.73473 1.5
    endloop
  endfacet
  facet normal 0.669132 -0.743144 0
    outer loop
      vertex 6.875 9.08253 1.5
      vertex 6.48873 8.73473 0
      vertex 6.875 9.08253 0
    endloop
  endfacet
  facet normal 0.913547 -0.406733 0
    outer loop
      vertex 6.27732 8.25989 1.5
      vertex 6.48873 8.73473 0
      vertex 6.48873 8.73473 1.5
    endloop
  endfacet
  facet normal 0.913547 -0.406733 0
    outer loop
      vertex 6.48873 8.73473 0
      vertex 6.27732 8.25989 1.5
      vertex 6.27732 8.25989 0
    endloop
  endfacet
  facet normal 0.309016 -0.951057 0
    outer loop
      vertex 6.875 9.08253 0
      vertex 7.36934 9.24315 1.5
      vertex 6.875 9.08253 1.5
    endloop
  endfacet
  facet normal 0.309016 -0.951057 0
    outer loop
      vertex 7.36934 9.24315 1.5
      vertex 6.875 9.08253 0
      vertex 7.36934 9.24315 0
    endloop
  endfacet
  facet normal -0.978139 0.207952 0
    outer loop
      vertex 8.72874 7.9 0
      vertex 8.75 8 1.5
      vertex 8.75 8 0
    endloop
  endfacet
  facet normal -0.978139 0.207952 0
    outer loop
      vertex 8.75 8 1.5
      vertex 8.72874 7.9 0
      vertex 8.72874 7.9 1.5
    endloop
  endfacet
  facet normal -1 0 0
    outer loop
      vertex 0 0 0
      vertex 0 20 1.5
      vertex 0 20 0
    endloop
  endfacet
  facet normal -1 -0 0
    outer loop
      vertex 0 20 1.5
      vertex 0 0 0
      vertex 0 0 1.5
    endloop
  endfacet
  facet normal 1 -0 0
    outer loop
      vertex 10 0 1.5
      vertex 10 20 0
      vertex 10 20 1.5
    endloop
  endfacet
  facet normal 1 0 0
    outer loop
      vertex 10 20 0
      vertex 10 0 1.5
      vertex 10 0 0
    endloop
  endfacet
  facet normal 0 1 -0
    outer loop
      vertex 10 20 0
      vertex 0 20 1.5
      vertex 10 20 1.5
    endloop
  endfacet
  facet normal 0 1 0
    outer loop
      vertex 0 20 1.5
      vertex 10 20 0
      vertex 0 20 0
    endloop
  endfacet
  facet normal 0 -1 0
    outer loop
      vertex 0 0 0
      vertex 10 0 1.5
      vertex 0 0 1.5
    endloop
  endfacet
  facet normal 0 -1 -0
    outer loop
      vertex 10 0 1.5
      vertex 0 0 0
      vertex 10 0 0
    endloop
  endfacet
endsolid OpenSCAD_Model
