solid OpenSCAD_Model
  facet normal -1 0 0
    outer loop
      vertex 0 0 0
      vertex 0 16 4
      vertex 0 16 0
    endloop
  endfacet
  facet normal -1 -0 0
    outer loop
      vertex 0 16 4
      vertex 0 0 0
      vertex 0 0 4
    endloop
  endfacet
  facet normal -0 0 1
    outer loop
      vertex 0 16 4
      vertex 4.5 12 4
      vertex 4.5 16 4
    endloop
  endfacet
  facet normal 0 0 1
    outer loop
      vertex 4.5 12 4
      vertex 4.11394 6.34305 4
      vertex 4.15 6 4
    endloop
  endfacet
  facet normal 0 0 1
    outer loop
      vertex 4.5 12 4
      vertex 4.00735 6.67111 4
      vertex 4.11394 6.34305 4
    endloop
  endfacet
  facet normal 0 0 1
    outer loop
      vertex 4.5 12 4
      vertex 3.83488 6.96984 4
      vertex 4.00735 6.67111 4
    endloop
  endfacet
  facet normal 0 0 1
    outer loop
      vertex 4.5 12 4
      vertex 3.60406 7.22619 4
      vertex 3.83488 6.96984 4
    endloop
  endfacet
  facet normal 0 0 1
    outer loop
      vertex 4.5 12 4
      vertex 3.325 7.42894 4
      vertex 3.60406 7.22619 4
    endloop
  endfacet
  facet normal 0 0 1
    outer loop
      vertex 4.5 12 4
      vertex 3.00988 7.56924 4
      vertex 3.325 7.42894 4
    endloop
  endfacet
  facet normal 0 0 1
    outer loop
      vertex 4.5 12 4
      vertex 2.67247 7.64096 4
      vertex 3.00988 7.56924 4
    endloop
  endfacet
  facet normal 0 0 1
    outer loop
      vertex 4.5 12 4
      vertex 2.32753 7.64096 4
      vertex 2.67247 7.64096 4
    endloop
  endfacet
  facet normal 0 -0 1
    outer loop
      vertex 1.99012 7.56924 4
      vertex 4.5 12 4
      vertex 0 16 4
    endloop
  endfacet
  facet normal 0 0 1
    outer loop
      vertex 4.5 12 4
      vertex 1.99012 7.56924 4
      vertex 2.32753 7.64096 4
    endloop
  endfacet
  facet normal 0 0 1
    outer loop
      vertex 1.99012 7.56924 4
      vertex 0 16 4
      vertex 1.675 7.42894 4
    endloop
  endfacet
  facet normal 0 0 1
    outer loop
      vertex 1.675 7.42894 4
      vertex 0 16 4
      vertex 1.39593 7.22619 4
    endloop
  endfacet
  facet normal 0 0 1
    outer loop
      vertex 1.39593 7.22619 4
      vertex 0 16 4
      vertex 1.16512 6.96984 4
    endloop
  endfacet
  facet normal 0 0 1
    outer loop
      vertex 0.886056 6.34305 4
      vertex 0 16 4
      vertex 0.849999 6 4
    endloop
  endfacet
  facet normal 0 0 1
    outer loop
      vertex 0.992649 6.67111 4
      vertex 0 16 4
      vertex 0.886056 6.34305 4
    endloop
  endfacet
  facet normal 0 0 1
    outer loop
      vertex 1.16512 6.96984 4
      vertex 0 16 4
      vertex 0.992649 6.67111 4
    endloop
  endfacet
  facet normal 0 0 1
    outer loop
      vertex 34 16 4
      vertex 33.15 6 4
      vertex 34 0 4
    endloop
  endfacet
  facet normal 0 0 1
    outer loop
      vertex 34 16 4
      vertex 33.1139 6.34305 4
      vertex 33.15 6 4
    endloop
  endfacet
  facet normal 0 0 1
    outer loop
      vertex 34 16 4
      vertex 33.0074 6.67111 4
      vertex 33.1139 6.34305 4
    endloop
  endfacet
  facet normal 0 0 1
    outer loop
      vertex 34 16 4
      vertex 32.8349 6.96984 4
      vertex 33.0074 6.67111 4
    endloop
  endfacet
  facet normal 0 0 1
    outer loop
      vertex 34 16 4
      vertex 32.6041 7.22619 4
      vertex 32.8349 6.96984 4
    endloop
  endfacet
  facet normal 0 0 1
    outer loop
      vertex 34 16 4
      vertex 32.325 7.42894 4
      vertex 32.6041 7.22619 4
    endloop
  endfacet
  facet normal 0 0 1
    outer loop
      vertex 34 16 4
      vertex 32.0099 7.56924 4
      vertex 32.325 7.42894 4
    endloop
  endfacet
  facet normal -0 0 1
    outer loop
      vertex 29.5 12 4
      vertex 32.0099 7.56924 4
      vertex 34 16 4
    endloop
  endfacet
  facet normal 0 0 1
    outer loop
      vertex 32.0099 7.56924 4
      vertex 29.5 12 4
      vertex 31.6725 7.64096 4
    endloop
  endfacet
  facet normal 0 0 1
    outer loop
      vertex 31.6725 7.64096 4
      vertex 29.5 12 4
      vertex 31.3275 7.64096 4
    endloop
  endfacet
  facet normal 0 0 1
    outer loop
      vertex 31.3275 7.64096 4
      vertex 29.5 12 4
      vertex 30.9901 7.56924 4
    endloop
  endfacet
  facet normal 0 0 1
    outer loop
      vertex 30.9901 7.56924 4
      vertex 29.5 12 4
      vertex 30.675 7.42894 4
    endloop
  endfacet
  facet normal 0 0 1
    outer loop
      vertex 30.675 7.42894 4
      vertex 29.5 12 4
      vertex 30.3959 7.22619 4
    endloop
  endfacet
  facet normal 0 0 1
    outer loop
      vertex 30.3959 7.22619 4
      vertex 29.5 12 4
      vertex 30.1651 6.96984 4
    endloop
  endfacet
  facet normal 0 0 1
    outer loop
      vertex 29.9926 6.67111 4
      vertex 29.5 12 4
      vertex 29.8861 6.34305 4
    endloop
  endfacet
  facet normal 0 0 1
    outer loop
      vertex 30.1651 6.96984 4
      vertex 29.5 12 4
      vertex 29.9926 6.67111 4
    endloop
  endfacet
  facet normal 0 0 1
    outer loop
      vertex 29.5 12 4
      vertex 34 16 4
      vertex 29.5 16 4
    endloop
  endfacet
  facet normal -0 0 1
    outer loop
      vertex 33.1139 5.65695 4
      vertex 34 0 4
      vertex 33.15 6 4
    endloop
  endfacet
  facet normal -0 0 1
    outer loop
      vertex 33.0074 5.32888 4
      vertex 34 0 4
      vertex 33.1139 5.65695 4
    endloop
  endfacet
  facet normal -0 0 1
    outer loop
      vertex 32.8349 5.03015 4
      vertex 34 0 4
      vertex 33.0074 5.32888 4
    endloop
  endfacet
  facet normal -0 0 1
    outer loop
      vertex 32.6041 4.77381 4
      vertex 34 0 4
      vertex 32.8349 5.03015 4
    endloop
  endfacet
  facet normal -0 0 1
    outer loop
      vertex 32.325 4.57106 4
      vertex 34 0 4
      vertex 32.6041 4.77381 4
    endloop
  endfacet
  facet normal -0 0 1
    outer loop
      vertex 32.0099 4.43076 4
      vertex 34 0 4
      vertex 32.325 4.57106 4
    endloop
  endfacet
  facet normal -0 0 1
    outer loop
      vertex 31.6725 4.35904 4
      vertex 34 0 4
      vertex 32.0099 4.43076 4
    endloop
  endfacet
  facet normal -0 0 1
    outer loop
      vertex 31.3275 4.35904 4
      vertex 34 0 4
      vertex 31.6725 4.35904 4
    endloop
  endfacet
  facet normal 0 0 1
    outer loop
      vertex 30.9901 4.43076 4
      vertex 34 0 4
      vertex 31.3275 4.35904 4
    endloop
  endfacet
  facet normal 0 0 1
    outer loop
      vertex 30.675 4.57106 4
      vertex 34 0 4
      vertex 30.9901 4.43076 4
    endloop
  endfacet
  facet normal 0 0 1
    outer loop
      vertex 30.3959 4.77381 4
      vertex 34 0 4
      vertex 30.675 4.57106 4
    endloop
  endfacet
  facet normal 0 0 1
    outer loop
      vertex 3.60406 4.77381 4
      vertex 30.3959 4.77381 4
      vertex 30.1651 5.03015 4
    endloop
  endfacet
  facet normal -0 0 1
    outer loop
      vertex 4.5 12 4
      vertex 29.8861 6.34305 4
      vertex 29.5 12 4
    endloop
  endfacet
  facet normal 0 0 1
    outer loop
      vertex 4.15 6 4
      vertex 29.8861 6.34305 4
      vertex 4.5 12 4
    endloop
  endfacet
  facet normal 0 0 1
    outer loop
      vertex 29.8861 6.34305 4
      vertex 4.15 6 4
      vertex 29.85 6 4
    endloop
  endfacet
  facet normal 0 0 1
    outer loop
      vertex 29.85 6 4
      vertex 4.15 6 4
      vertex 29.8861 5.65695 4
    endloop
  endfacet
  facet normal 0 0 1
    outer loop
      vertex 4.11394 5.65695 4
      vertex 29.8861 5.65695 4
      vertex 4.15 6 4
    endloop
  endfacet
  facet normal 0 0 1
    outer loop
      vertex 29.8861 5.65695 4
      vertex 4.11394 5.65695 4
      vertex 29.9926 5.32888 4
    endloop
  endfacet
  facet normal 0 0 1
    outer loop
      vertex 4.00735 5.32888 4
      vertex 29.9926 5.32888 4
      vertex 4.11394 5.65695 4
    endloop
  endfacet
  facet normal 0 0 1
    outer loop
      vertex 29.9926 5.32888 4
      vertex 4.00735 5.32888 4
      vertex 30.1651 5.03015 4
    endloop
  endfacet
  facet normal 0 0 1
    outer loop
      vertex 3.83488 5.03015 4
      vertex 30.1651 5.03015 4
      vertex 4.00735 5.32888 4
    endloop
  endfacet
  facet normal 0 0 1
    outer loop
      vertex 3.60406 4.77381 4
      vertex 30.1651 5.03015 4
      vertex 3.83488 5.03015 4
    endloop
  endfacet
  facet normal 0 0 1
    outer loop
      vertex 30.3959 4.77381 4
      vertex 3.60406 4.77381 4
      vertex 34 0 4
    endloop
  endfacet
  facet normal 0 0 1
    outer loop
      vertex 0 0 4
      vertex 3.60406 4.77381 4
      vertex 3.325 4.57106 4
    endloop
  endfacet
  facet normal 0 0 1
    outer loop
      vertex 0 0 4
      vertex 3.325 4.57106 4
      vertex 3.00988 4.43076 4
    endloop
  endfacet
  facet normal 0 0 1
    outer loop
      vertex 0 0 4
      vertex 3.00988 4.43076 4
      vertex 2.67247 4.35904 4
    endloop
  endfacet
  facet normal 0 0 1
    outer loop
      vertex 0 0 4
      vertex 2.67247 4.35904 4
      vertex 2.32753 4.35904 4
    endloop
  endfacet
  facet normal 0 0 1
    outer loop
      vertex 3.60406 4.77381 4
      vertex 0 0 4
      vertex 34 0 4
    endloop
  endfacet
  facet normal 0 0 1
    outer loop
      vertex 1.99012 4.43076 4
      vertex 0 0 4
      vertex 2.32753 4.35904 4
    endloop
  endfacet
  facet normal 0 0 1
    outer loop
      vertex 1.675 4.57106 4
      vertex 0 0 4
      vertex 1.99012 4.43076 4
    endloop
  endfacet
  facet normal 0 0 1
    outer loop
      vertex 1.39593 4.77381 4
      vertex 0 0 4
      vertex 1.675 4.57106 4
    endloop
  endfacet
  facet normal 0 0 1
    outer loop
      vertex 1.16512 5.03015 4
      vertex 0 0 4
      vertex 1.39593 4.77381 4
    endloop
  endfacet
  facet normal 0 0 1
    outer loop
      vertex 0.992649 5.32888 4
      vertex 0 0 4
      vertex 1.16512 5.03015 4
    endloop
  endfacet
  facet normal 0 0 1
    outer loop
      vertex 0.886056 5.65695 4
      vertex 0 0 4
      vertex 0.992649 5.32888 4
    endloop
  endfacet
  facet normal 0 0 1
    outer loop
      vertex 0.849999 6 4
      vertex 0 0 4
      vertex 0.886056 5.65695 4
    endloop
  endfacet
  facet normal 0 0 1
    outer loop
      vertex 0 0 4
      vertex 0.849999 6 4
      vertex 0 16 4
    endloop
  endfacet
  facet normal 1 -0 0
    outer loop
      vertex 34 0 4
      vertex 34 16 0
      vertex 34 16 4
    endloop
  endfacet
  facet normal 1 0 0
    outer loop
      vertex 34 16 0
      vertex 34 0 4
      vertex 34 0 0
    endloop
  endfacet
  facet normal 0 0 -1
    outer loop
      vertex 34 0 0
      vertex 33.15 6 0
      vertex 34 16 0
    endloop
  endfacet
  facet normal 0 0 -1
    outer loop
      vertex 34 0 0
      vertex 33.1139 5.65695 0
      vertex 33.15 6 0
    endloop
  endfacet
  facet normal 0 0 -1
    outer loop
      vertex 34 0 0
      vertex 33.0074 5.32888 0
      vertex 33.1139 5.65695 0
    endloop
  endfacet
  facet normal 0 0 -1
    outer loop
      vertex 34 0 0
      vertex 32.8349 5.03015 0
      vertex 33.0074 5.32888 0
    endloop
  endfacet
  facet normal 0 0 -1
    outer loop
      vertex 34 0 0
      vertex 32.6041 4.77381 0
      vertex 32.8349 5.03015 0
    endloop
  endfacet
  facet normal 0 0 -1
    outer loop
      vertex 34 0 0
      vertex 32.325 4.57106 0
      vertex 32.6041 4.77381 0
    endloop
  endfacet
  facet normal 0 0 -1
    outer loop
      vertex 34 0 0
      vertex 32.0099 4.43076 0
      vertex 32.325 4.57106 0
    endloop
  endfacet
  facet normal 0 0 -1
    outer loop
      vertex 34 0 0
      vertex 31.6725 4.35904 0
      vertex 32.0099 4.43076 0
    endloop
  endfacet
  facet normal 0 0 -1
    outer loop
      vertex 34 0 0
      vertex 31.3275 4.35904 0
      vertex 31.6725 4.35904 0
    endloop
  endfacet
  facet normal 0 0 -1
    outer loop
      vertex 34 0 0
      vertex 30.9901 4.43076 0
      vertex 31.3275 4.35904 0
    endloop
  endfacet
  facet normal 0 0 -1
    outer loop
      vertex 34 0 0
      vertex 30.675 4.57106 0
      vertex 30.9901 4.43076 0
    endloop
  endfacet
  facet normal 0 0 -1
    outer loop
      vertex 34 0 0
      vertex 30.3959 4.77381 0
      vertex 30.675 4.57106 0
    endloop
  endfacet
  facet normal 0 0 -1
    outer loop
      vertex 3.60406 4.77381 0
      vertex 30.3959 4.77381 0
      vertex 34 0 0
    endloop
  endfacet
  facet normal 0 0 -1
    outer loop
      vertex 29.8861 5.65695 0
      vertex 4.15 6 0
      vertex 29.85 6 0
    endloop
  endfacet
  facet normal 0 0 -1
    outer loop
      vertex 4.11394 5.65695 0
      vertex 29.8861 5.65695 0
      vertex 29.9926 5.32888 0
    endloop
  endfacet
  facet normal 0 0 -1
    outer loop
      vertex 4.00735 5.32888 0
      vertex 29.9926 5.32888 0
      vertex 30.1651 5.03015 0
    endloop
  endfacet
  facet normal 0 0 -1
    outer loop
      vertex 30.3959 4.77381 0
      vertex 3.60406 4.77381 0
      vertex 30.1651 5.03015 0
    endloop
  endfacet
  facet normal 0 0 -1
    outer loop
      vertex 29.8861 5.65695 0
      vertex 4.11394 5.65695 0
      vertex 4.15 6 0
    endloop
  endfacet
  facet normal 0 0 -1
    outer loop
      vertex 29.9926 5.32888 0
      vertex 4.00735 5.32888 0
      vertex 4.11394 5.65695 0
    endloop
  endfacet
  facet normal 0 0 -1
    outer loop
      vertex 30.1651 5.03015 0
      vertex 3.83488 5.03015 0
      vertex 4.00735 5.32888 0
    endloop
  endfacet
  facet normal -0 0 -1
    outer loop
      vertex 30.1651 5.03015 0
      vertex 3.60406 4.77381 0
      vertex 3.83488 5.03015 0
    endloop
  endfacet
  facet normal 0 0 -1
    outer loop
      vertex 0 0 0
      vertex 3.60406 4.77381 0
      vertex 34 0 0
    endloop
  endfacet
  facet normal 0 0 -1
    outer loop
      vertex 3.60406 4.77381 0
      vertex 0 0 0
      vertex 3.325 4.57106 0
    endloop
  endfacet
  facet normal 0 0 -1
    outer loop
      vertex 3.325 4.57106 0
      vertex 0 0 0
      vertex 3.00988 4.43076 0
    endloop
  endfacet
  facet normal 0 0 -1
    outer loop
      vertex 3.00988 4.43076 0
      vertex 0 0 0
      vertex 2.67247 4.35904 0
    endloop
  endfacet
  facet normal -0 0 -1
    outer loop
      vertex 0.886056 5.65695 0
      vertex 0 0 0
      vertex 0.849999 6 0
    endloop
  endfacet
  facet normal -0 0 -1
    outer loop
      vertex 0.992649 5.32888 0
      vertex 0 0 0
      vertex 0.886056 5.65695 0
    endloop
  endfacet
  facet normal -0 0 -1
    outer loop
      vertex 1.16512 5.03015 0
      vertex 0 0 0
      vertex 0.992649 5.32888 0
    endloop
  endfacet
  facet normal -0 0 -1
    outer loop
      vertex 1.39593 4.77381 0
      vertex 0 0 0
      vertex 1.16512 5.03015 0
    endloop
  endfacet
  facet normal -0 0 -1
    outer loop
      vertex 1.675 4.57106 0
      vertex 0 0 0
      vertex 1.39593 4.77381 0
    endloop
  endfacet
  facet normal -0 0 -1
    outer loop
      vertex 1.99012 4.43076 0
      vertex 0 0 0
      vertex 1.675 4.57106 0
    endloop
  endfacet
  facet normal -0 0 -1
    outer loop
      vertex 2.32753 4.35904 0
      vertex 0 0 0
      vertex 1.99012 4.43076 0
    endloop
  endfacet
  facet normal -0 0 -1
    outer loop
      vertex 2.67247 4.35904 0
      vertex 0 0 0
      vertex 2.32753 4.35904 0
    endloop
  endfacet
  facet normal 0 0 -1
    outer loop
      vertex 33.1139 6.34305 0
      vertex 34 16 0
      vertex 33.15 6 0
    endloop
  endfacet
  facet normal 0 0 -1
    outer loop
      vertex 33.0074 6.67111 0
      vertex 34 16 0
      vertex 33.1139 6.34305 0
    endloop
  endfacet
  facet normal 0 0 -1
    outer loop
      vertex 32.8349 6.96984 0
      vertex 34 16 0
      vertex 33.0074 6.67111 0
    endloop
  endfacet
  facet normal 0 0 -1
    outer loop
      vertex 32.6041 7.22619 0
      vertex 34 16 0
      vertex 32.8349 6.96984 0
    endloop
  endfacet
  facet normal 0 0 -1
    outer loop
      vertex 32.325 7.42894 0
      vertex 34 16 0
      vertex 32.6041 7.22619 0
    endloop
  endfacet
  facet normal 0 0 -1
    outer loop
      vertex 32.0099 7.56924 0
      vertex 34 16 0
      vertex 32.325 7.42894 0
    endloop
  endfacet
  facet normal 0 0 -1
    outer loop
      vertex 31.6725 7.64096 0
      vertex 34 16 0
      vertex 32.0099 7.56924 0
    endloop
  endfacet
  facet normal 0 0 -1
    outer loop
      vertex 31.3275 7.64096 0
      vertex 34 16 0
      vertex 31.6725 7.64096 0
    endloop
  endfacet
  facet normal 0 0 -1
    outer loop
      vertex 30.9901 7.56924 0
      vertex 34 16 0
      vertex 31.3275 7.64096 0
    endloop
  endfacet
  facet normal 0 0 -1
    outer loop
      vertex 30.675 7.42894 0
      vertex 34 16 0
      vertex 30.9901 7.56924 0
    endloop
  endfacet
  facet normal 0 0 -1
    outer loop
      vertex 30.3959 7.22619 0
      vertex 34 16 0
      vertex 30.675 7.42894 0
    endloop
  endfacet
  facet normal 0 0 -1
    outer loop
      vertex 30.1651 6.96984 0
      vertex 34 16 0
      vertex 30.3959 7.22619 0
    endloop
  endfacet
  facet normal 0 0 -1
    outer loop
      vertex 3.83488 6.96984 0
      vertex 30.1651 6.96984 0
      vertex 29.9926 6.67111 0
    endloop
  endfacet
  facet normal 0 0 -1
    outer loop
      vertex 4.15 6 0
      vertex 29.8861 6.34305 0
      vertex 29.85 6 0
    endloop
  endfacet
  facet normal 0 0 -1
    outer loop
      vertex 4.11394 6.34305 0
      vertex 29.8861 6.34305 0
      vertex 4.15 6 0
    endloop
  endfacet
  facet normal 0 0 -1
    outer loop
      vertex 29.8861 6.34305 0
      vertex 4.11394 6.34305 0
      vertex 29.9926 6.67111 0
    endloop
  endfacet
  facet normal 0 0 -1
    outer loop
      vertex 4.00735 6.67111 0
      vertex 29.9926 6.67111 0
      vertex 4.11394 6.34305 0
    endloop
  endfacet
  facet normal 0 0 -1
    outer loop
      vertex 3.83488 6.96984 0
      vertex 29.9926 6.67111 0
      vertex 4.00735 6.67111 0
    endloop
  endfacet
  facet normal 0 0 -1
    outer loop
      vertex 30.1651 6.96984 0
      vertex 3.83488 6.96984 0
      vertex 34 16 0
    endloop
  endfacet
  facet normal 0 0 -1
    outer loop
      vertex 0 16 0
      vertex 3.83488 6.96984 0
      vertex 3.60406 7.22619 0
    endloop
  endfacet
  facet normal 0 0 -1
    outer loop
      vertex 0 16 0
      vertex 3.60406 7.22619 0
      vertex 3.325 7.42894 0
    endloop
  endfacet
  facet normal 0 0 -1
    outer loop
      vertex 0 16 0
      vertex 3.325 7.42894 0
      vertex 3.00988 7.56924 0
    endloop
  endfacet
  facet normal 0 0 -1
    outer loop
      vertex 0 16 0
      vertex 3.00988 7.56924 0
      vertex 2.67247 7.64096 0
    endloop
  endfacet
  facet normal 0 0 -1
    outer loop
      vertex 0 16 0
      vertex 2.67247 7.64096 0
      vertex 2.32753 7.64096 0
    endloop
  endfacet
  facet normal 0 0 -1
    outer loop
      vertex 0 16 0
      vertex 2.32753 7.64096 0
      vertex 1.99012 7.56924 0
    endloop
  endfacet
  facet normal 0 0 -1
    outer loop
      vertex 0 16 0
      vertex 0.849999 6 0
      vertex 0 0 0
    endloop
  endfacet
  facet normal 0 0 -1
    outer loop
      vertex 3.83488 6.96984 0
      vertex 0 16 0
      vertex 34 16 0
    endloop
  endfacet
  facet normal 0 0 -1
    outer loop
      vertex 1.675 7.42894 0
      vertex 0 16 0
      vertex 1.99012 7.56924 0
    endloop
  endfacet
  facet normal 0 0 -1
    outer loop
      vertex 1.39593 7.22619 0
      vertex 0 16 0
      vertex 1.675 7.42894 0
    endloop
  endfacet
  facet normal 0 0 -1
    outer loop
      vertex 1.16512 6.96984 0
      vertex 0 16 0
      vertex 1.39593 7.22619 0
    endloop
  endfacet
  facet normal 0 0 -1
    outer loop
      vertex 0.992649 6.67111 0
      vertex 0 16 0
      vertex 1.16512 6.96984 0
    endloop
  endfacet
  facet normal 0 0 -1
    outer loop
      vertex 0.886056 6.34305 0
      vertex 0 16 0
      vertex 0.992649 6.67111 0
    endloop
  endfacet
  facet normal 0 0 -1
    outer loop
      vertex 0.849999 6 0
      vertex 0 16 0
      vertex 0.886056 6.34305 0
    endloop
  endfacet
  facet normal 0 -1 0
    outer loop
      vertex 0 0 0
      vertex 34 0 4
      vertex 0 0 4
    endloop
  endfacet
  facet normal 0 -1 -0
    outer loop
      vertex 34 0 4
      vertex 0 0 0
      vertex 34 0 0
    endloop
  endfacet
  facet normal -0.994521 -0.10454 0
    outer loop
      vertex 4.15 6 0
      vertex 4.11394 6.34305 4
      vertex 4.11394 6.34305 0
    endloop
  endfacet
  facet normal -0.994521 -0.10454 0
    outer loop
      vertex 4.11394 6.34305 4
      vertex 4.15 6 0
      vertex 4.15 6 4
    endloop
  endfacet
  facet normal 0 -1 0
    outer loop
      vertex 2.32753 7.64096 0
      vertex 2.67247 7.64096 4
      vertex 2.32753 7.64096 4
    endloop
  endfacet
  facet normal 0 -1 -0
    outer loop
      vertex 2.67247 7.64096 4
      vertex 2.32753 7.64096 0
      vertex 2.67247 7.64096 0
    endloop
  endfacet
  facet normal -0.587787 -0.809016 0
    outer loop
      vertex 3.325 7.42894 0
      vertex 3.60406 7.22619 4
      vertex 3.325 7.42894 4
    endloop
  endfacet
  facet normal -0.587787 -0.809016 -0
    outer loop
      vertex 3.60406 7.22619 4
      vertex 3.325 7.42894 0
      vertex 3.60406 7.22619 0
    endloop
  endfacet
  facet normal 0.743157 -0.669117 0
    outer loop
      vertex 1.16512 6.96984 4
      vertex 1.39593 7.22619 0
      vertex 1.39593 7.22619 4
    endloop
  endfacet
  facet normal 0.743157 -0.669117 0
    outer loop
      vertex 1.39593 7.22619 0
      vertex 1.16512 6.96984 4
      vertex 1.16512 6.96984 0
    endloop
  endfacet
  facet normal 0.406736 -0.913546 0
    outer loop
      vertex 1.675 7.42894 0
      vertex 1.99012 7.56924 4
      vertex 1.675 7.42894 4
    endloop
  endfacet
  facet normal 0.406736 -0.913546 0
    outer loop
      vertex 1.99012 7.56924 4
      vertex 1.675 7.42894 0
      vertex 1.99012 7.56924 0
    endloop
  endfacet
  facet normal -0.866028 0.499996 0
    outer loop
      vertex 3.83488 5.03015 0
      vertex 4.00735 5.32888 4
      vertex 4.00735 5.32888 0
    endloop
  endfacet
  facet normal -0.866028 0.499996 0
    outer loop
      vertex 4.00735 5.32888 4
      vertex 3.83488 5.03015 0
      vertex 3.83488 5.03015 4
    endloop
  endfacet
  facet normal -0.866028 -0.499996 0
    outer loop
      vertex 4.00735 6.67111 0
      vertex 3.83488 6.96984 4
      vertex 3.83488 6.96984 0
    endloop
  endfacet
  facet normal -0.866028 -0.499996 0
    outer loop
      vertex 3.83488 6.96984 4
      vertex 4.00735 6.67111 0
      vertex 4.00735 6.67111 4
    endloop
  endfacet
  facet normal -0.951059 -0.309009 0
    outer loop
      vertex 4.11394 6.34305 0
      vertex 4.00735 6.67111 4
      vertex 4.00735 6.67111 0
    endloop
  endfacet
  facet normal -0.951059 -0.309009 0
    outer loop
      vertex 4.00735 6.67111 4
      vertex 4.11394 6.34305 0
      vertex 4.11394 6.34305 4
    endloop
  endfacet
  facet normal -0.743143 -0.669133 0
    outer loop
      vertex 3.83488 6.96984 0
      vertex 3.60406 7.22619 4
      vertex 3.60406 7.22619 0
    endloop
  endfacet
  facet normal -0.743143 -0.669133 0
    outer loop
      vertex 3.60406 7.22619 4
      vertex 3.83488 6.96984 0
      vertex 3.83488 6.96984 4
    endloop
  endfacet
  facet normal -0.207915 -0.978147 0
    outer loop
      vertex 2.67247 7.64096 0
      vertex 3.00988 7.56924 4
      vertex 2.67247 7.64096 4
    endloop
  endfacet
  facet normal -0.207915 -0.978147 -0
    outer loop
      vertex 3.00988 7.56924 4
      vertex 2.67247 7.64096 0
      vertex 3.00988 7.56924 0
    endloop
  endfacet
  facet normal -0.406736 -0.913546 0
    outer loop
      vertex 3.00988 7.56924 0
      vertex 3.325 7.42894 4
      vertex 3.00988 7.56924 4
    endloop
  endfacet
  facet normal -0.406736 -0.913546 -0
    outer loop
      vertex 3.325 7.42894 4
      vertex 3.00988 7.56924 0
      vertex 3.325 7.42894 0
    endloop
  endfacet
  facet normal 0.951057 -0.309017 0
    outer loop
      vertex 0.886056 6.34305 4
      vertex 0.992649 6.67111 0
      vertex 0.992649 6.67111 4
    endloop
  endfacet
  facet normal 0.951057 -0.309017 0
    outer loop
      vertex 0.992649 6.67111 0
      vertex 0.886056 6.34305 4
      vertex 0.886056 6.34305 0
    endloop
  endfacet
  facet normal 0.866026 -0.499998 0
    outer loop
      vertex 0.992649 6.67111 4
      vertex 1.16512 6.96984 0
      vertex 1.16512 6.96984 4
    endloop
  endfacet
  facet normal 0.866026 -0.499998 0
    outer loop
      vertex 1.16512 6.96984 0
      vertex 0.992649 6.67111 4
      vertex 0.992649 6.67111 0
    endloop
  endfacet
  facet normal 0.994522 -0.104531 0
    outer loop
      vertex 0.849999 6 4
      vertex 0.886056 6.34305 0
      vertex 0.886056 6.34305 4
    endloop
  endfacet
  facet normal 0.994522 -0.104531 0
    outer loop
      vertex 0.886056 6.34305 0
      vertex 0.849999 6 4
      vertex 0.849999 6 0
    endloop
  endfacet
  facet normal 0.587773 -0.809026 0
    outer loop
      vertex 1.39593 7.22619 0
      vertex 1.675 7.42894 4
      vertex 1.39593 7.22619 4
    endloop
  endfacet
  facet normal 0.587773 -0.809026 0
    outer loop
      vertex 1.675 7.42894 4
      vertex 1.39593 7.22619 0
      vertex 1.675 7.42894 0
    endloop
  endfacet
  facet normal 0.207915 -0.978147 0
    outer loop
      vertex 1.99012 7.56924 0
      vertex 2.32753 7.64096 4
      vertex 1.99012 7.56924 4
    endloop
  endfacet
  facet normal 0.207915 -0.978147 0
    outer loop
      vertex 2.32753 7.64096 4
      vertex 1.99012 7.56924 0
      vertex 2.32753 7.64096 0
    endloop
  endfacet
  facet normal -0.207915 0.978147 0
    outer loop
      vertex 3.00988 4.43076 0
      vertex 2.67247 4.35904 4
      vertex 3.00988 4.43076 4
    endloop
  endfacet
  facet normal -0.207915 0.978147 0
    outer loop
      vertex 2.67247 4.35904 4
      vertex 3.00988 4.43076 0
      vertex 2.67247 4.35904 0
    endloop
  endfacet
  facet normal -0.587787 0.809016 0
    outer loop
      vertex 3.60406 4.77381 0
      vertex 3.325 4.57106 4
      vertex 3.60406 4.77381 4
    endloop
  endfacet
  facet normal -0.587787 0.809016 0
    outer loop
      vertex 3.325 4.57106 4
      vertex 3.60406 4.77381 0
      vertex 3.325 4.57106 0
    endloop
  endfacet
  facet normal 0.406736 0.913546 -0
    outer loop
      vertex 1.99012 4.43076 0
      vertex 1.675 4.57106 4
      vertex 1.99012 4.43076 4
    endloop
  endfacet
  facet normal 0.406736 0.913546 0
    outer loop
      vertex 1.675 4.57106 4
      vertex 1.99012 4.43076 0
      vertex 1.675 4.57106 0
    endloop
  endfacet
  facet normal 0 1 -0
    outer loop
      vertex 2.67247 4.35904 0
      vertex 2.32753 4.35904 4
      vertex 2.67247 4.35904 4
    endloop
  endfacet
  facet normal 0 1 0
    outer loop
      vertex 2.32753 4.35904 4
      vertex 2.67247 4.35904 0
      vertex 2.32753 4.35904 0
    endloop
  endfacet
  facet normal 0.743144 0.669131 0
    outer loop
      vertex 1.39593 4.77381 4
      vertex 1.16512 5.03015 0
      vertex 1.16512 5.03015 4
    endloop
  endfacet
  facet normal 0.743144 0.669131 0
    outer loop
      vertex 1.16512 5.03015 0
      vertex 1.39593 4.77381 4
      vertex 1.39593 4.77381 0
    endloop
  endfacet
  facet normal 0.951059 0.309008 0
    outer loop
      vertex 0.992649 5.32888 4
      vertex 0.886056 5.65695 0
      vertex 0.886056 5.65695 4
    endloop
  endfacet
  facet normal 0.951059 0.309008 0
    outer loop
      vertex 0.886056 5.65695 0
      vertex 0.992649 5.32888 4
      vertex 0.992649 5.32888 0
    endloop
  endfacet
  facet normal 0.994522 0.104531 0
    outer loop
      vertex 0.886056 5.65695 4
      vertex 0.849999 6 0
      vertex 0.849999 6 4
    endloop
  endfacet
  facet normal 0.994522 0.104531 0
    outer loop
      vertex 0.849999 6 0
      vertex 0.886056 5.65695 4
      vertex 0.886056 5.65695 0
    endloop
  endfacet
  facet normal -0.406736 0.913546 0
    outer loop
      vertex 3.325 4.57106 0
      vertex 3.00988 4.43076 4
      vertex 3.325 4.57106 4
    endloop
  endfacet
  facet normal -0.406736 0.913546 0
    outer loop
      vertex 3.00988 4.43076 4
      vertex 3.325 4.57106 0
      vertex 3.00988 4.43076 0
    endloop
  endfacet
  facet normal -0.74313 0.669147 0
    outer loop
      vertex 3.60406 4.77381 0
      vertex 3.83488 5.03015 4
      vertex 3.83488 5.03015 0
    endloop
  endfacet
  facet normal -0.74313 0.669147 0
    outer loop
      vertex 3.83488 5.03015 4
      vertex 3.60406 4.77381 0
      vertex 3.60406 4.77381 4
    endloop
  endfacet
  facet normal -0.951062 0.309 0
    outer loop
      vertex 4.00735 5.32888 0
      vertex 4.11394 5.65695 4
      vertex 4.11394 5.65695 0
    endloop
  endfacet
  facet normal -0.951062 0.309 0
    outer loop
      vertex 4.11394 5.65695 4
      vertex 4.00735 5.32888 0
      vertex 4.00735 5.32888 4
    endloop
  endfacet
  facet normal 0.207915 0.978147 -0
    outer loop
      vertex 2.32753 4.35904 0
      vertex 1.99012 4.43076 4
      vertex 2.32753 4.35904 4
    endloop
  endfacet
  facet normal 0.207915 0.978147 0
    outer loop
      vertex 1.99012 4.43076 4
      vertex 2.32753 4.35904 0
      vertex 1.99012 4.43076 0
    endloop
  endfacet
  facet normal 0.587773 0.809026 -0
    outer loop
      vertex 1.675 4.57106 0
      vertex 1.39593 4.77381 4
      vertex 1.675 4.57106 4
    endloop
  endfacet
  facet normal 0.587773 0.809026 0
    outer loop
      vertex 1.39593 4.77381 4
      vertex 1.675 4.57106 0
      vertex 1.39593 4.77381 0
    endloop
  endfacet
  facet normal 0.866026 0.499998 0
    outer loop
      vertex 1.16512 5.03015 4
      vertex 0.992649 5.32888 0
      vertex 0.992649 5.32888 4
    endloop
  endfacet
  facet normal 0.866026 0.499998 0
    outer loop
      vertex 0.992649 5.32888 0
      vertex 1.16512 5.03015 4
      vertex 1.16512 5.03015 0
    endloop
  endfacet
  facet normal -0.994521 0.10454 0
    outer loop
      vertex 4.11394 5.65695 0
      vertex 4.15 6 4
      vertex 4.15 6 0
    endloop
  endfacet
  facet normal -0.994521 0.10454 0
    outer loop
      vertex 4.15 6 4
      vertex 4.11394 5.65695 0
      vertex 4.11394 5.65695 4
    endloop
  endfacet
  facet normal -0.994509 -0.104655 0
    outer loop
      vertex 33.15 6 0
      vertex 33.1139 6.34305 4
      vertex 33.1139 6.34305 0
    endloop
  endfacet
  facet normal -0.994509 -0.104655 0
    outer loop
      vertex 33.1139 6.34305 4
      vertex 33.15 6 0
      vertex 33.15 6 4
    endloop
  endfacet
  facet normal 0 -1 0
    outer loop
      vertex 31.3275 7.64096 0
      vertex 31.6725 7.64096 4
      vertex 31.3275 7.64096 4
    endloop
  endfacet
  facet normal 0 -1 -0
    outer loop
      vertex 31.6725 7.64096 4
      vertex 31.3275 7.64096 0
      vertex 31.6725 7.64096 0
    endloop
  endfacet
  facet normal -0.587732 -0.809056 0
    outer loop
      vertex 32.325 7.42894 0
      vertex 32.6041 7.22619 4
      vertex 32.325 7.42894 4
    endloop
  endfacet
  facet normal -0.587732 -0.809056 -0
    outer loop
      vertex 32.6041 7.22619 4
      vertex 32.325 7.42894 0
      vertex 32.6041 7.22619 0
    endloop
  endfacet
  facet normal 0.743172 -0.669101 0
    outer loop
      vertex 30.1651 6.96984 4
      vertex 30.3959 7.22619 0
      vertex 30.3959 7.22619 4
    endloop
  endfacet
  facet normal 0.743172 -0.669101 0
    outer loop
      vertex 30.3959 7.22619 0
      vertex 30.1651 6.96984 4
      vertex 30.1651 6.96984 0
    endloop
  endfacet
  facet normal 0.406757 -0.913536 0
    outer loop
      vertex 30.675 7.42894 0
      vertex 30.9901 7.56924 4
      vertex 30.675 7.42894 4
    endloop
  endfacet
  facet normal 0.406757 -0.913536 0
    outer loop
      vertex 30.9901 7.56924 4
      vertex 30.675 7.42894 0
      vertex 30.9901 7.56924 0
    endloop
  endfacet
  facet normal -0.86599 0.500061 0
    outer loop
      vertex 32.8349 5.03015 0
      vertex 33.0074 5.32888 4
      vertex 33.0074 5.32888 0
    endloop
  endfacet
  facet normal -0.86599 0.500061 0
    outer loop
      vertex 33.0074 5.32888 4
      vertex 32.8349 5.03015 0
      vertex 32.8349 5.03015 4
    endloop
  endfacet
  facet normal -0.86599 -0.500061 0
    outer loop
      vertex 33.0074 6.67111 0
      vertex 32.8349 6.96984 4
      vertex 32.8349 6.96984 0
    endloop
  endfacet
  facet normal -0.86599 -0.500061 0
    outer loop
      vertex 32.8349 6.96984 4
      vertex 33.0074 6.67111 0
      vertex 33.0074 6.67111 4
    endloop
  endfacet
  facet normal -0.951136 -0.308773 0
    outer loop
      vertex 33.1139 6.34305 0
      vertex 33.0074 6.67111 4
      vertex 33.0074 6.67111 0
    endloop
  endfacet
  facet normal -0.951136 -0.308773 0
    outer loop
      vertex 33.0074 6.67111 4
      vertex 33.1139 6.34305 0
      vertex 33.1139 6.34305 4
    endloop
  endfacet
  facet normal -0.743172 -0.669101 0
    outer loop
      vertex 32.8349 6.96984 0
      vertex 32.6041 7.22619 4
      vertex 32.6041 7.22619 0
    endloop
  endfacet
  facet normal -0.743172 -0.669101 0
    outer loop
      vertex 32.6041 7.22619 4
      vertex 32.8349 6.96984 0
      vertex 32.8349 6.96984 4
    endloop
  endfacet
  facet normal -0.207921 -0.978146 0
    outer loop
      vertex 31.6725 7.64096 0
      vertex 32.0099 7.56924 4
      vertex 31.6725 7.64096 4
    endloop
  endfacet
  facet normal -0.207921 -0.978146 -0
    outer loop
      vertex 32.0099 7.56924 4
      vertex 31.6725 7.64096 0
      vertex 32.0099 7.56924 0
    endloop
  endfacet
  facet normal -0.406757 -0.913536 0
    outer loop
      vertex 32.0099 7.56924 0
      vertex 32.325 7.42894 4
      vertex 32.0099 7.56924 4
    endloop
  endfacet
  facet normal -0.406757 -0.913536 -0
    outer loop
      vertex 32.325 7.42894 4
      vertex 32.0099 7.56924 0
      vertex 32.325 7.42894 0
    endloop
  endfacet
  facet normal 0.951136 -0.308773 0
    outer loop
      vertex 29.8861 6.34305 4
      vertex 29.9926 6.67111 0
      vertex 29.9926 6.67111 4
    endloop
  endfacet
  facet normal 0.951136 -0.308773 0
    outer loop
      vertex 29.9926 6.67111 0
      vertex 29.8861 6.34305 4
      vertex 29.8861 6.34305 0
    endloop
  endfacet
  facet normal 0.86599 -0.500061 0
    outer loop
      vertex 29.9926 6.67111 4
      vertex 30.1651 6.96984 0
      vertex 30.1651 6.96984 4
    endloop
  endfacet
  facet normal 0.86599 -0.500061 0
    outer loop
      vertex 30.1651 6.96984 0
      vertex 29.9926 6.67111 4
      vertex 29.9926 6.67111 0
    endloop
  endfacet
  facet normal 0.994509 -0.104655 0
    outer loop
      vertex 29.85 6 4
      vertex 29.8861 6.34305 0
      vertex 29.8861 6.34305 4
    endloop
  endfacet
  facet normal 0.994509 -0.104655 0
    outer loop
      vertex 29.8861 6.34305 0
      vertex 29.85 6 4
      vertex 29.85 6 0
    endloop
  endfacet
  facet normal 0.587732 -0.809056 0
    outer loop
      vertex 30.3959 7.22619 0
      vertex 30.675 7.42894 4
      vertex 30.3959 7.22619 4
    endloop
  endfacet
  facet normal 0.587732 -0.809056 0
    outer loop
      vertex 30.675 7.42894 4
      vertex 30.3959 7.22619 0
      vertex 30.675 7.42894 0
    endloop
  endfacet
  facet normal 0.207921 -0.978146 0
    outer loop
      vertex 30.9901 7.56924 0
      vertex 31.3275 7.64096 4
      vertex 30.9901 7.56924 4
    endloop
  endfacet
  facet normal 0.207921 -0.978146 0
    outer loop
      vertex 31.3275 7.64096 4
      vertex 30.9901 7.56924 0
      vertex 31.3275 7.64096 0
    endloop
  endfacet
  facet normal -0.994509 0.104655 0
    outer loop
      vertex 33.1139 5.65695 0
      vertex 33.15 6 4
      vertex 33.15 6 0
    endloop
  endfacet
  facet normal -0.994509 0.104655 0
    outer loop
      vertex 33.15 6 4
      vertex 33.1139 5.65695 0
      vertex 33.1139 5.65695 4
    endloop
  endfacet
  facet normal -0.207921 0.978146 0
    outer loop
      vertex 32.0099 4.43076 0
      vertex 31.6725 4.35904 4
      vertex 32.0099 4.43076 4
    endloop
  endfacet
  facet normal -0.207921 0.978146 0
    outer loop
      vertex 31.6725 4.35904 4
      vertex 32.0099 4.43076 0
      vertex 31.6725 4.35904 0
    endloop
  endfacet
  facet normal -0.587732 0.809056 0
    outer loop
      vertex 32.6041 4.77381 0
      vertex 32.325 4.57106 4
      vertex 32.6041 4.77381 4
    endloop
  endfacet
  facet normal -0.587732 0.809056 0
    outer loop
      vertex 32.325 4.57106 4
      vertex 32.6041 4.77381 0
      vertex 32.325 4.57106 0
    endloop
  endfacet
  facet normal 0.406757 0.913536 -0
    outer loop
      vertex 30.9901 4.43076 0
      vertex 30.675 4.57106 4
      vertex 30.9901 4.43076 4
    endloop
  endfacet
  facet normal 0.406757 0.913536 0
    outer loop
      vertex 30.675 4.57106 4
      vertex 30.9901 4.43076 0
      vertex 30.675 4.57106 0
    endloop
  endfacet
  facet normal 0 1 -0
    outer loop
      vertex 31.6725 4.35904 0
      vertex 31.3275 4.35904 4
      vertex 31.6725 4.35904 4
    endloop
  endfacet
  facet normal 0 1 0
    outer loop
      vertex 31.3275 4.35904 4
      vertex 31.6725 4.35904 0
      vertex 31.3275 4.35904 0
    endloop
  endfacet
  facet normal 0.743159 0.669115 0
    outer loop
      vertex 30.3959 4.77381 4
      vertex 30.1651 5.03015 0
      vertex 30.1651 5.03015 4
    endloop
  endfacet
  facet normal 0.743159 0.669115 0
    outer loop
      vertex 30.1651 5.03015 0
      vertex 30.3959 4.77381 4
      vertex 30.3959 4.77381 0
    endloop
  endfacet
  facet normal 0.951139 0.308764 0
    outer loop
      vertex 29.9926 5.32888 4
      vertex 29.8861 5.65695 0
      vertex 29.8861 5.65695 4
    endloop
  endfacet
  facet normal 0.951139 0.308764 0
    outer loop
      vertex 29.8861 5.65695 0
      vertex 29.9926 5.32888 4
      vertex 29.9926 5.32888 0
    endloop
  endfacet
  facet normal 0.994509 0.104655 0
    outer loop
      vertex 29.8861 5.65695 4
      vertex 29.85 6 0
      vertex 29.85 6 4
    endloop
  endfacet
  facet normal 0.994509 0.104655 0
    outer loop
      vertex 29.85 6 0
      vertex 29.8861 5.65695 4
      vertex 29.8861 5.65695 0
    endloop
  endfacet
  facet normal -0.406757 0.913536 0
    outer loop
      vertex 32.325 4.57106 0
      vertex 32.0099 4.43076 4
      vertex 32.325 4.57106 4
    endloop
  endfacet
  facet normal -0.406757 0.913536 0
    outer loop
      vertex 32.0099 4.43076 4
      vertex 32.325 4.57106 0
      vertex 32.0099 4.43076 0
    endloop
  endfacet
  facet normal -0.743159 0.669115 0
    outer loop
      vertex 32.6041 4.77381 0
      vertex 32.8349 5.03015 4
      vertex 32.8349 5.03015 0
    endloop
  endfacet
  facet normal -0.743159 0.669115 0
    outer loop
      vertex 32.8349 5.03015 4
      vertex 32.6041 4.77381 0
      vertex 32.6041 4.77381 4
    endloop
  endfacet
  facet normal -0.951139 0.308764 0
    outer loop
      vertex 33.0074 5.32888 0
      vertex 33.1139 5.65695 4
      vertex 33.1139 5.65695 0
    endloop
  endfacet
  facet normal -0.951139 0.308764 0
    outer loop
      vertex 33.1139 5.65695 4
      vertex 33.0074 5.32888 0
      vertex 33.0074 5.32888 4
    endloop
  endfacet
  facet normal 0.207921 0.978146 -0
    outer loop
      vertex 31.3275 4.35904 0
      vertex 30.9901 4.43076 4
      vertex 31.3275 4.35904 4
    endloop
  endfacet
  facet normal 0.207921 0.978146 0
    outer loop
      vertex 30.9901 4.43076 4
      vertex 31.3275 4.35904 0
      vertex 30.9901 4.43076 0
    endloop
  endfacet
  facet normal 0.587732 0.809056 -0
    outer loop
      vertex 30.675 4.57106 0
      vertex 30.3959 4.77381 4
      vertex 30.675 4.57106 4
    endloop
  endfacet
  facet normal 0.587732 0.809056 0
    outer loop
      vertex 30.3959 4.77381 4
      vertex 30.675 4.57106 0
      vertex 30.3959 4.77381 0
    endloop
  endfacet
  facet normal 0.86599 0.500061 0
    outer loop
      vertex 30.1651 5.03015 4
      vertex 29.9926 5.32888 0
      vertex 29.9926 5.32888 4
    endloop
  endfacet
  facet normal 0.86599 0.500061 0
    outer loop
      vertex 29.9926 5.32888 0
      vertex 30.1651 5.03015 4
      vertex 30.1651 5.03015 0
    endloop
  endfacet
  facet normal -1 0 0
    outer loop
      vertex 4.5 12 4
      vertex 4.5 16 20
      vertex 4.5 16 4
    endloop
  endfacet
  facet normal -1 -0 0
    outer loop
      vertex 4.5 16 20
      vertex 4.5 12 4
      vertex 4.5 12 20
    endloop
  endfacet
  facet normal -0 0 1
    outer loop
      vertex 4.5 16 20
      vertex 29.5 12 20
      vertex 29.5 16 20
    endloop
  endfacet
  facet normal 0 0 1
    outer loop
      vertex 29.5 12 20
      vertex 4.5 16 20
      vertex 4.5 12 20
    endloop
  endfacet
  facet normal 1 -0 0
    outer loop
      vertex 29.5 12 20
      vertex 29.5 16 4
      vertex 29.5 16 20
    endloop
  endfacet
  facet normal 1 0 0
    outer loop
      vertex 29.5 16 4
      vertex 29.5 12 20
      vertex 29.5 12 4
    endloop
  endfacet
  facet normal 0 1 -0
    outer loop
      vertex 34 16 0
      vertex 29.5 16 4
      vertex 34 16 4
    endloop
  endfacet
  facet normal 0 1 0
    outer loop
      vertex 29.5 16 4
      vertex 34 16 0
      vertex 4.5 16 4
    endloop
  endfacet
  facet normal 0 1 0
    outer loop
      vertex 0 16 0
      vertex 4.5 16 4
      vertex 34 16 0
    endloop
  endfacet
  facet normal 0 1 0
    outer loop
      vertex 4.5 16 4
      vertex 0 16 0
      vertex 0 16 4
    endloop
  endfacet
  facet normal 0 1 0
    outer loop
      vertex 25.2959 16 13.2262
      vertex 29.5 16 20
      vertex 25.575 16 13.4289
    endloop
  endfacet
  facet normal 0 1 0
    outer loop
      vertex 4.5 16 20
      vertex 8.10988 16 13.5692
      vertex 7.77247 16 13.641
    endloop
  endfacet
  facet normal 0 1 0
    outer loop
      vertex 29.5 16 20
      vertex 25.2959 16 13.2262
      vertex 4.5 16 20
    endloop
  endfacet
  facet normal 0 1 0
    outer loop
      vertex 4.5 16 20
      vertex 8.425 16 13.4289
      vertex 8.10988 16 13.5692
    endloop
  endfacet
  facet normal 0 1 -0
    outer loop
      vertex 8.70407 16 13.2262
      vertex 4.5 16 20
      vertex 25.2959 16 13.2262
    endloop
  endfacet
  facet normal 0 1 0
    outer loop
      vertex 4.5 16 20
      vertex 8.70407 16 13.2262
      vertex 8.425 16 13.4289
    endloop
  endfacet
  facet normal 0 1 -0
    outer loop
      vertex 25.0651 16 12.9698
      vertex 8.70407 16 13.2262
      vertex 25.2959 16 13.2262
    endloop
  endfacet
  facet normal 0 1 0
    outer loop
      vertex 25.0651 16 12.9698
      vertex 8.93488 16 12.9698
      vertex 8.70407 16 13.2262
    endloop
  endfacet
  facet normal 0 1 -0
    outer loop
      vertex 24.8927 16 12.6711
      vertex 8.93488 16 12.9698
      vertex 25.0651 16 12.9698
    endloop
  endfacet
  facet normal 0 1 0
    outer loop
      vertex 24.8927 16 12.6711
      vertex 9.10735 16 12.6711
      vertex 8.93488 16 12.9698
    endloop
  endfacet
  facet normal 0 1 -0
    outer loop
      vertex 24.7861 16 12.3431
      vertex 9.10735 16 12.6711
      vertex 24.8927 16 12.6711
    endloop
  endfacet
  facet normal 0 1 0
    outer loop
      vertex 24.7861 16 12.3431
      vertex 9.21394 16 12.3431
      vertex 9.10735 16 12.6711
    endloop
  endfacet
  facet normal 0 1 -0
    outer loop
      vertex 24.75 16 12
      vertex 9.21394 16 12.3431
      vertex 24.7861 16 12.3431
    endloop
  endfacet
  facet normal 0 1 0
    outer loop
      vertex 24.75 16 12
      vertex 9.25 16 12
      vertex 9.21394 16 12.3431
    endloop
  endfacet
  facet normal 0 1 0
    outer loop
      vertex 24.7861 16 11.6569
      vertex 9.25 16 12
      vertex 24.75 16 12
    endloop
  endfacet
  facet normal 0 1 0
    outer loop
      vertex 24.7861 16 11.6569
      vertex 9.21394 16 11.6569
      vertex 9.25 16 12
    endloop
  endfacet
  facet normal 0 1 0
    outer loop
      vertex 24.8927 16 11.3289
      vertex 9.21394 16 11.6569
      vertex 24.7861 16 11.6569
    endloop
  endfacet
  facet normal 0 1 0
    outer loop
      vertex 24.8927 16 11.3289
      vertex 9.10735 16 11.3289
      vertex 9.21394 16 11.6569
    endloop
  endfacet
  facet normal 0 1 0
    outer loop
      vertex 25.0651 16 11.0302
      vertex 9.10735 16 11.3289
      vertex 24.8927 16 11.3289
    endloop
  endfacet
  facet normal 0 1 0
    outer loop
      vertex 25.0651 16 11.0302
      vertex 8.93488 16 11.0302
      vertex 9.10735 16 11.3289
    endloop
  endfacet
  facet normal 0 1 0
    outer loop
      vertex 25.2959 16 10.7738
      vertex 8.93488 16 11.0302
      vertex 25.0651 16 11.0302
    endloop
  endfacet
  facet normal 0 1 0
    outer loop
      vertex 25.2959 16 10.7738
      vertex 8.70407 16 10.7738
      vertex 8.93488 16 11.0302
    endloop
  endfacet
  facet normal 0 1 0
    outer loop
      vertex 29.5 16 4
      vertex 25.2959 16 10.7738
      vertex 25.575 16 10.5711
    endloop
  endfacet
  facet normal 0 1 0
    outer loop
      vertex 25.2959 16 10.7738
      vertex 29.5 16 4
      vertex 8.70407 16 10.7738
    endloop
  endfacet
  facet normal 0 1 0
    outer loop
      vertex 29.5 16 4
      vertex 25.575 16 10.5711
      vertex 25.8901 16 10.4308
    endloop
  endfacet
  facet normal 0 1 0
    outer loop
      vertex 4.5 16 4
      vertex 8.70407 16 10.7738
      vertex 29.5 16 4
    endloop
  endfacet
  facet normal 0 1 0
    outer loop
      vertex 29.5 16 4
      vertex 25.8901 16 10.4308
      vertex 26.2275 16 10.359
    endloop
  endfacet
  facet normal 0 1 0
    outer loop
      vertex 8.70407 16 10.7738
      vertex 4.5 16 4
      vertex 8.425 16 10.5711
    endloop
  endfacet
  facet normal 0 1 0
    outer loop
      vertex 26.2275 16 13.641
      vertex 29.5 16 20
      vertex 26.5725 16 13.641
    endloop
  endfacet
  facet normal 0 1 0
    outer loop
      vertex 29.5 16 20
      vertex 26.9099 16 13.5692
      vertex 26.5725 16 13.641
    endloop
  endfacet
  facet normal 0 1 0
    outer loop
      vertex 29.5 16 20
      vertex 27.225 16 13.4289
      vertex 26.9099 16 13.5692
    endloop
  endfacet
  facet normal 0 1 0
    outer loop
      vertex 29.5 16 20
      vertex 27.5041 16 13.2262
      vertex 27.225 16 13.4289
    endloop
  endfacet
  facet normal 0 1 0
    outer loop
      vertex 29.5 16 20
      vertex 27.7349 16 12.9698
      vertex 27.5041 16 13.2262
    endloop
  endfacet
  facet normal 0 1 0
    outer loop
      vertex 29.5 16 20
      vertex 27.9073 16 12.6711
      vertex 27.7349 16 12.9698
    endloop
  endfacet
  facet normal 0 1 0
    outer loop
      vertex 29.5 16 20
      vertex 28.0139 16 12.3431
      vertex 27.9073 16 12.6711
    endloop
  endfacet
  facet normal 0 1 0
    outer loop
      vertex 29.5 16 20
      vertex 28.05 16 12
      vertex 28.0139 16 12.3431
    endloop
  endfacet
  facet normal 0 1 -0
    outer loop
      vertex 29.5 16 4
      vertex 28.05 16 12
      vertex 29.5 16 20
    endloop
  endfacet
  facet normal 0 1 0
    outer loop
      vertex 29.5 16 4
      vertex 26.2275 16 10.359
      vertex 26.5725 16 10.359
    endloop
  endfacet
  facet normal 0 1 0
    outer loop
      vertex 8.425 16 10.5711
      vertex 4.5 16 4
      vertex 8.10988 16 10.4308
    endloop
  endfacet
  facet normal 0 1 0
    outer loop
      vertex 8.10988 16 10.4308
      vertex 4.5 16 4
      vertex 7.77247 16 10.359
    endloop
  endfacet
  facet normal 0 1 0
    outer loop
      vertex 26.9099 16 10.4308
      vertex 29.5 16 4
      vertex 26.5725 16 10.359
    endloop
  endfacet
  facet normal 0 1 0
    outer loop
      vertex 27.225 16 10.5711
      vertex 29.5 16 4
      vertex 26.9099 16 10.4308
    endloop
  endfacet
  facet normal 0 1 0
    outer loop
      vertex 27.5041 16 10.7738
      vertex 29.5 16 4
      vertex 27.225 16 10.5711
    endloop
  endfacet
  facet normal 0 1 0
    outer loop
      vertex 27.7349 16 11.0302
      vertex 29.5 16 4
      vertex 27.5041 16 10.7738
    endloop
  endfacet
  facet normal 0 1 0
    outer loop
      vertex 27.9073 16 11.3289
      vertex 29.5 16 4
      vertex 27.7349 16 11.0302
    endloop
  endfacet
  facet normal 0 1 0
    outer loop
      vertex 28.0139 16 11.6569
      vertex 29.5 16 4
      vertex 27.9073 16 11.3289
    endloop
  endfacet
  facet normal 0 1 0
    outer loop
      vertex 28.05 16 12
      vertex 29.5 16 4
      vertex 28.0139 16 11.6569
    endloop
  endfacet
  facet normal 0 1 0
    outer loop
      vertex 25.8901 16 13.5692
      vertex 29.5 16 20
      vertex 26.2275 16 13.641
    endloop
  endfacet
  facet normal 0 1 0
    outer loop
      vertex 25.575 16 13.4289
      vertex 29.5 16 20
      vertex 25.8901 16 13.5692
    endloop
  endfacet
  facet normal 0 1 -0
    outer loop
      vertex 7.42753 16 13.641
      vertex 4.5 16 20
      vertex 7.77247 16 13.641
    endloop
  endfacet
  facet normal 0 1 -0
    outer loop
      vertex 7.09012 16 13.5692
      vertex 4.5 16 20
      vertex 7.42753 16 13.641
    endloop
  endfacet
  facet normal 0 1 -0
    outer loop
      vertex 6.775 16 13.4289
      vertex 4.5 16 20
      vertex 7.09012 16 13.5692
    endloop
  endfacet
  facet normal 0 1 -0
    outer loop
      vertex 6.49593 16 13.2262
      vertex 4.5 16 20
      vertex 6.775 16 13.4289
    endloop
  endfacet
  facet normal 0 1 -0
    outer loop
      vertex 6.26512 16 12.9698
      vertex 4.5 16 20
      vertex 6.49593 16 13.2262
    endloop
  endfacet
  facet normal 0 1 -0
    outer loop
      vertex 6.09265 16 12.6711
      vertex 4.5 16 20
      vertex 6.26512 16 12.9698
    endloop
  endfacet
  facet normal 0 1 -0
    outer loop
      vertex 5.98606 16 12.3431
      vertex 4.5 16 20
      vertex 6.09265 16 12.6711
    endloop
  endfacet
  facet normal 0 1 -0
    outer loop
      vertex 5.95 16 12
      vertex 4.5 16 20
      vertex 5.98606 16 12.3431
    endloop
  endfacet
  facet normal 0 1 0
    outer loop
      vertex 4.5 16 4
      vertex 5.95 16 12
      vertex 5.98606 16 11.6569
    endloop
  endfacet
  facet normal 0 1 0
    outer loop
      vertex 7.77247 16 10.359
      vertex 4.5 16 4
      vertex 7.42753 16 10.359
    endloop
  endfacet
  facet normal 0 1 0
    outer loop
      vertex 5.95 16 12
      vertex 4.5 16 4
      vertex 4.5 16 20
    endloop
  endfacet
  facet normal 0 1 0
    outer loop
      vertex 6.09265 16 11.3289
      vertex 4.5 16 4
      vertex 5.98606 16 11.6569
    endloop
  endfacet
  facet normal 0 1 0
    outer loop
      vertex 6.26512 16 11.0302
      vertex 4.5 16 4
      vertex 6.09265 16 11.3289
    endloop
  endfacet
  facet normal 0 1 0
    outer loop
      vertex 6.49593 16 10.7738
      vertex 4.5 16 4
      vertex 6.26512 16 11.0302
    endloop
  endfacet
  facet normal 0 1 0
    outer loop
      vertex 6.775 16 10.5711
      vertex 4.5 16 4
      vertex 6.49593 16 10.7738
    endloop
  endfacet
  facet normal 0 1 0
    outer loop
      vertex 7.09012 16 10.4308
      vertex 4.5 16 4
      vertex 6.775 16 10.5711
    endloop
  endfacet
  facet normal 0 1 0
    outer loop
      vertex 7.42753 16 10.359
      vertex 4.5 16 4
      vertex 7.09012 16 10.4308
    endloop
  endfacet
  facet normal 0 -1 0
    outer loop
      vertex 8.70407 12 13.2262
      vertex 4.5 12 20
      vertex 8.425 12 13.4289
    endloop
  endfacet
  facet normal 0 -1 0
    outer loop
      vertex 29.5 12 20
      vertex 25.8901 12 13.5692
      vertex 26.2275 12 13.641
    endloop
  endfacet
  facet normal 0 -1 0
    outer loop
      vertex 4.5 12 20
      vertex 8.70407 12 13.2262
      vertex 29.5 12 20
    endloop
  endfacet
  facet normal 0 -1 0
    outer loop
      vertex 29.5 12 20
      vertex 25.575 12 13.4289
      vertex 25.8901 12 13.5692
    endloop
  endfacet
  facet normal 0 -1 0
    outer loop
      vertex 25.2959 12 13.2262
      vertex 29.5 12 20
      vertex 8.70407 12 13.2262
    endloop
  endfacet
  facet normal 0 -1 0
    outer loop
      vertex 29.5 12 20
      vertex 25.2959 12 13.2262
      vertex 25.575 12 13.4289
    endloop
  endfacet
  facet normal 0 -1 0
    outer loop
      vertex 8.93488 12 12.9698
      vertex 25.2959 12 13.2262
      vertex 8.70407 12 13.2262
    endloop
  endfacet
  facet normal 0 -1 0
    outer loop
      vertex 8.93488 12 12.9698
      vertex 25.0651 12 12.9698
      vertex 25.2959 12 13.2262
    endloop
  endfacet
  facet normal 0 -1 0
    outer loop
      vertex 9.10735 12 12.6711
      vertex 25.0651 12 12.9698
      vertex 8.93488 12 12.9698
    endloop
  endfacet
  facet normal 0 -1 0
    outer loop
      vertex 9.10735 12 12.6711
      vertex 24.8927 12 12.6711
      vertex 25.0651 12 12.9698
    endloop
  endfacet
  facet normal 0 -1 0
    outer loop
      vertex 9.21394 12 12.3431
      vertex 24.8927 12 12.6711
      vertex 9.10735 12 12.6711
    endloop
  endfacet
  facet normal 0 -1 0
    outer loop
      vertex 9.21394 12 12.3431
      vertex 24.7861 12 12.3431
      vertex 24.8927 12 12.6711
    endloop
  endfacet
  facet normal 0 -1 0
    outer loop
      vertex 9.25 12 12
      vertex 24.7861 12 12.3431
      vertex 9.21394 12 12.3431
    endloop
  endfacet
  facet normal 0 -1 0
    outer loop
      vertex 9.25 12 12
      vertex 24.75 12 12
      vertex 24.7861 12 12.3431
    endloop
  endfacet
  facet normal 0 -1 0
    outer loop
      vertex 9.21394 12 11.6569
      vertex 24.75 12 12
      vertex 9.25 12 12
    endloop
  endfacet
  facet normal 0 -1 0
    outer loop
      vertex 9.21394 12 11.6569
      vertex 24.7861 12 11.6569
      vertex 24.75 12 12
    endloop
  endfacet
  facet normal 0 -1 0
    outer loop
      vertex 9.10735 12 11.3289
      vertex 24.7861 12 11.6569
      vertex 9.21394 12 11.6569
    endloop
  endfacet
  facet normal 0 -1 0
    outer loop
      vertex 9.10735 12 11.3289
      vertex 24.8927 12 11.3289
      vertex 24.7861 12 11.6569
    endloop
  endfacet
  facet normal 0 -1 0
    outer loop
      vertex 8.93488 12 11.0302
      vertex 24.8927 12 11.3289
      vertex 9.10735 12 11.3289
    endloop
  endfacet
  facet normal 0 -1 0
    outer loop
      vertex 8.93488 12 11.0302
      vertex 25.0651 12 11.0302
      vertex 24.8927 12 11.3289
    endloop
  endfacet
  facet normal 0 -1 0
    outer loop
      vertex 8.70407 12 10.7738
      vertex 25.0651 12 11.0302
      vertex 8.93488 12 11.0302
    endloop
  endfacet
  facet normal 0 -1 0
    outer loop
      vertex 8.70407 12 10.7738
      vertex 25.2959 12 10.7738
      vertex 25.0651 12 11.0302
    endloop
  endfacet
  facet normal 0 -1 0
    outer loop
      vertex 4.5 12 4
      vertex 8.70407 12 10.7738
      vertex 8.425 12 10.5711
    endloop
  endfacet
  facet normal 0 -1 -0
    outer loop
      vertex 8.70407 12 10.7738
      vertex 4.5 12 4
      vertex 25.2959 12 10.7738
    endloop
  endfacet
  facet normal 0 -1 0
    outer loop
      vertex 4.5 12 4
      vertex 8.425 12 10.5711
      vertex 8.10988 12 10.4308
    endloop
  endfacet
  facet normal 0 -1 0
    outer loop
      vertex 29.5 12 4
      vertex 25.2959 12 10.7738
      vertex 4.5 12 4
    endloop
  endfacet
  facet normal 0 -1 0
    outer loop
      vertex 4.5 12 4
      vertex 8.10988 12 10.4308
      vertex 7.77247 12 10.359
    endloop
  endfacet
  facet normal 0 -1 0
    outer loop
      vertex 25.2959 12 10.7738
      vertex 29.5 12 4
      vertex 25.575 12 10.5711
    endloop
  endfacet
  facet normal 0 -1 0
    outer loop
      vertex 7.77247 12 13.641
      vertex 4.5 12 20
      vertex 7.42753 12 13.641
    endloop
  endfacet
  facet normal 0 -1 0
    outer loop
      vertex 4.5 12 20
      vertex 7.09012 12 13.5692
      vertex 7.42753 12 13.641
    endloop
  endfacet
  facet normal 0 -1 0
    outer loop
      vertex 4.5 12 20
      vertex 6.775 12 13.4289
      vertex 7.09012 12 13.5692
    endloop
  endfacet
  facet normal 0 -1 0
    outer loop
      vertex 4.5 12 20
      vertex 6.49593 12 13.2262
      vertex 6.775 12 13.4289
    endloop
  endfacet
  facet normal 0 -1 0
    outer loop
      vertex 4.5 12 20
      vertex 6.26512 12 12.9698
      vertex 6.49593 12 13.2262
    endloop
  endfacet
  facet normal 0 -1 0
    outer loop
      vertex 4.5 12 20
      vertex 6.09265 12 12.6711
      vertex 6.26512 12 12.9698
    endloop
  endfacet
  facet normal 0 -1 0
    outer loop
      vertex 4.5 12 20
      vertex 5.98606 12 12.3431
      vertex 6.09265 12 12.6711
    endloop
  endfacet
  facet normal 0 -1 0
    outer loop
      vertex 4.5 12 20
      vertex 5.95 12 12
      vertex 5.98606 12 12.3431
    endloop
  endfacet
  facet normal 0 -1 0
    outer loop
      vertex 4.5 12 4
      vertex 5.95 12 12
      vertex 4.5 12 20
    endloop
  endfacet
  facet normal 0 -1 0
    outer loop
      vertex 4.5 12 4
      vertex 7.77247 12 10.359
      vertex 7.42753 12 10.359
    endloop
  endfacet
  facet normal 0 -1 0
    outer loop
      vertex 25.575 12 10.5711
      vertex 29.5 12 4
      vertex 25.8901 12 10.4308
    endloop
  endfacet
  facet normal 0 -1 0
    outer loop
      vertex 25.8901 12 10.4308
      vertex 29.5 12 4
      vertex 26.2275 12 10.359
    endloop
  endfacet
  facet normal 0 -1 -0
    outer loop
      vertex 7.09012 12 10.4308
      vertex 4.5 12 4
      vertex 7.42753 12 10.359
    endloop
  endfacet
  facet normal 0 -1 -0
    outer loop
      vertex 6.775 12 10.5711
      vertex 4.5 12 4
      vertex 7.09012 12 10.4308
    endloop
  endfacet
  facet normal 0 -1 -0
    outer loop
      vertex 6.49593 12 10.7738
      vertex 4.5 12 4
      vertex 6.775 12 10.5711
    endloop
  endfacet
  facet normal 0 -1 -0
    outer loop
      vertex 6.26512 12 11.0302
      vertex 4.5 12 4
      vertex 6.49593 12 10.7738
    endloop
  endfacet
  facet normal 0 -1 -0
    outer loop
      vertex 6.09265 12 11.3289
      vertex 4.5 12 4
      vertex 6.26512 12 11.0302
    endloop
  endfacet
  facet normal 0 -1 -0
    outer loop
      vertex 5.98606 12 11.6569
      vertex 4.5 12 4
      vertex 6.09265 12 11.3289
    endloop
  endfacet
  facet normal 0 -1 -0
    outer loop
      vertex 5.95 12 12
      vertex 4.5 12 4
      vertex 5.98606 12 11.6569
    endloop
  endfacet
  facet normal 0 -1 0
    outer loop
      vertex 8.10988 12 13.5692
      vertex 4.5 12 20
      vertex 7.77247 12 13.641
    endloop
  endfacet
  facet normal 0 -1 0
    outer loop
      vertex 8.425 12 13.4289
      vertex 4.5 12 20
      vertex 8.10988 12 13.5692
    endloop
  endfacet
  facet normal 0 -1 0
    outer loop
      vertex 26.5725 12 13.641
      vertex 29.5 12 20
      vertex 26.2275 12 13.641
    endloop
  endfacet
  facet normal 0 -1 0
    outer loop
      vertex 26.9099 12 13.5692
      vertex 29.5 12 20
      vertex 26.5725 12 13.641
    endloop
  endfacet
  facet normal 0 -1 0
    outer loop
      vertex 27.225 12 13.4289
      vertex 29.5 12 20
      vertex 26.9099 12 13.5692
    endloop
  endfacet
  facet normal 0 -1 0
    outer loop
      vertex 27.5041 12 13.2262
      vertex 29.5 12 20
      vertex 27.225 12 13.4289
    endloop
  endfacet
  facet normal 0 -1 0
    outer loop
      vertex 27.7349 12 12.9698
      vertex 29.5 12 20
      vertex 27.5041 12 13.2262
    endloop
  endfacet
  facet normal 0 -1 0
    outer loop
      vertex 27.9073 12 12.6711
      vertex 29.5 12 20
      vertex 27.7349 12 12.9698
    endloop
  endfacet
  facet normal 0 -1 0
    outer loop
      vertex 28.0139 12 12.3431
      vertex 29.5 12 20
      vertex 27.9073 12 12.6711
    endloop
  endfacet
  facet normal 0 -1 0
    outer loop
      vertex 28.05 12 12
      vertex 29.5 12 20
      vertex 28.0139 12 12.3431
    endloop
  endfacet
  facet normal 0 -1 0
    outer loop
      vertex 29.5 12 4
      vertex 28.05 12 12
      vertex 28.0139 12 11.6569
    endloop
  endfacet
  facet normal 0 -1 0
    outer loop
      vertex 26.2275 12 10.359
      vertex 29.5 12 4
      vertex 26.5725 12 10.359
    endloop
  endfacet
  facet normal 0 -1 0
    outer loop
      vertex 28.05 12 12
      vertex 29.5 12 4
      vertex 29.5 12 20
    endloop
  endfacet
  facet normal 0 -1 0
    outer loop
      vertex 27.9073 12 11.3289
      vertex 29.5 12 4
      vertex 28.0139 12 11.6569
    endloop
  endfacet
  facet normal 0 -1 0
    outer loop
      vertex 27.7349 12 11.0302
      vertex 29.5 12 4
      vertex 27.9073 12 11.3289
    endloop
  endfacet
  facet normal 0 -1 0
    outer loop
      vertex 27.5041 12 10.7738
      vertex 29.5 12 4
      vertex 27.7349 12 11.0302
    endloop
  endfacet
  facet normal 0 -1 0
    outer loop
      vertex 27.225 12 10.5711
      vertex 29.5 12 4
      vertex 27.5041 12 10.7738
    endloop
  endfacet
  facet normal 0 -1 0
    outer loop
      vertex 26.9099 12 10.4308
      vertex 29.5 12 4
      vertex 27.225 12 10.5711
    endloop
  endfacet
  facet normal 0 -1 0
    outer loop
      vertex 26.5725 12 10.359
      vertex 29.5 12 4
      vertex 26.9099 12 10.4308
    endloop
  endfacet
  facet normal -0.994522 0 -0.104525
    outer loop
      vertex 9.25 12 12
      vertex 9.21394 16 12.3431
      vertex 9.25 16 12
    endloop
  endfacet
  facet normal -0.994522 -0 -0.104525
    outer loop
      vertex 9.21394 16 12.3431
      vertex 9.25 12 12
      vertex 9.21394 12 12.3431
    endloop
  endfacet
  facet normal -0.951043 0 -0.30906
    outer loop
      vertex 9.21394 12 12.3431
      vertex 9.10735 16 12.6711
      vertex 9.21394 16 12.3431
    endloop
  endfacet
  facet normal -0.951043 -0 -0.30906
    outer loop
      vertex 9.10735 16 12.6711
      vertex 9.21394 12 12.3431
      vertex 9.10735 12 12.6711
    endloop
  endfacet
  facet normal 0 0 -1
    outer loop
      vertex 7.42753 12 13.641
      vertex 7.77247 16 13.641
      vertex 7.77247 12 13.641
    endloop
  endfacet
  facet normal -0 0 -1
    outer loop
      vertex 7.77247 16 13.641
      vertex 7.42753 12 13.641
      vertex 7.42753 16 13.641
    endloop
  endfacet
  facet normal -0.743222 0 -0.669045
    outer loop
      vertex 8.93488 12 12.9698
      vertex 8.70407 16 13.2262
      vertex 8.93488 16 12.9698
    endloop
  endfacet
  facet normal -0.743222 -0 -0.669045
    outer loop
      vertex 8.70407 16 13.2262
      vertex 8.93488 12 12.9698
      vertex 8.70407 12 13.2262
    endloop
  endfacet
  facet normal 0.743222 0 -0.669045
    outer loop
      vertex 6.49593 12 13.2262
      vertex 6.26512 16 12.9698
      vertex 6.49593 16 13.2262
    endloop
  endfacet
  facet normal 0.743222 0 -0.669045
    outer loop
      vertex 6.26512 16 12.9698
      vertex 6.49593 12 13.2262
      vertex 6.26512 12 12.9698
    endloop
  endfacet
  facet normal 0.406736 0 -0.913546
    outer loop
      vertex 6.775 12 13.4289
      vertex 7.09012 16 13.5692
      vertex 7.09012 12 13.5692
    endloop
  endfacet
  facet normal 0.406736 0 -0.913546
    outer loop
      vertex 7.09012 16 13.5692
      vertex 6.775 12 13.4289
      vertex 6.775 16 13.4289
    endloop
  endfacet
  facet normal -0.208137 0 0.9781
    outer loop
      vertex 7.77247 16 10.359
      vertex 8.10988 12 10.4308
      vertex 8.10988 16 10.4308
    endloop
  endfacet
  facet normal -0.208137 0 0.9781
    outer loop
      vertex 8.10988 12 10.4308
      vertex 7.77247 16 10.359
      vertex 7.77247 12 10.359
    endloop
  endfacet
  facet normal -0.866006 0 0.500034
    outer loop
      vertex 8.93488 12 11.0302
      vertex 9.10735 16 11.3289
      vertex 8.93488 16 11.0302
    endloop
  endfacet
  facet normal -0.866006 0 0.500034
    outer loop
      vertex 9.10735 16 11.3289
      vertex 8.93488 12 11.0302
      vertex 9.10735 12 11.3289
    endloop
  endfacet
  facet normal -0.406736 0 -0.913546
    outer loop
      vertex 8.10988 12 13.5692
      vertex 8.425 16 13.4289
      vertex 8.425 12 13.4289
    endloop
  endfacet
  facet normal -0.406736 0 -0.913546
    outer loop
      vertex 8.425 16 13.4289
      vertex 8.10988 12 13.5692
      vertex 8.10988 16 13.5692
    endloop
  endfacet
  facet normal -0.587679 0 -0.809095
    outer loop
      vertex 8.425 12 13.4289
      vertex 8.70407 16 13.2262
      vertex 8.70407 12 13.2262
    endloop
  endfacet
  facet normal -0.587679 0 -0.809095
    outer loop
      vertex 8.70407 16 13.2262
      vertex 8.425 12 13.4289
      vertex 8.425 16 13.4289
    endloop
  endfacet
  facet normal 0.951043 0 -0.30906
    outer loop
      vertex 6.09265 12 12.6711
      vertex 5.98606 16 12.3431
      vertex 6.09265 16 12.6711
    endloop
  endfacet
  facet normal 0.951043 0 -0.30906
    outer loop
      vertex 5.98606 16 12.3431
      vertex 6.09265 12 12.6711
      vertex 5.98606 12 12.3431
    endloop
  endfacet
  facet normal 0.866006 0 -0.500034
    outer loop
      vertex 6.26512 12 12.9698
      vertex 6.09265 16 12.6711
      vertex 6.26512 16 12.9698
    endloop
  endfacet
  facet normal 0.866006 0 -0.500034
    outer loop
      vertex 6.09265 16 12.6711
      vertex 6.26512 12 12.9698
      vertex 6.09265 12 12.6711
    endloop
  endfacet
  facet normal 0.208137 0 -0.9781
    outer loop
      vertex 7.09012 12 13.5692
      vertex 7.42753 16 13.641
      vertex 7.42753 12 13.641
    endloop
  endfacet
  facet normal 0.208137 0 -0.9781
    outer loop
      vertex 7.42753 16 13.641
      vertex 7.09012 12 13.5692
      vertex 7.09012 16 13.5692
    endloop
  endfacet
  facet normal 0.406736 0 0.913546
    outer loop
      vertex 6.775 16 10.5711
      vertex 7.09012 12 10.4308
      vertex 7.09012 16 10.4308
    endloop
  endfacet
  facet normal 0.406736 0 0.913546
    outer loop
      vertex 7.09012 12 10.4308
      vertex 6.775 16 10.5711
      vertex 6.775 12 10.5711
    endloop
  endfacet
  facet normal -0 0 1
    outer loop
      vertex 7.42753 16 10.359
      vertex 7.77247 12 10.359
      vertex 7.77247 16 10.359
    endloop
  endfacet
  facet normal 0 0 1
    outer loop
      vertex 7.77247 12 10.359
      vertex 7.42753 16 10.359
      vertex 7.42753 12 10.359
    endloop
  endfacet
  facet normal 0.743222 -0 0.669045
    outer loop
      vertex 6.26512 12 11.0302
      vertex 6.49593 16 10.7738
      vertex 6.26512 16 11.0302
    endloop
  endfacet
  facet normal 0.743222 0 0.669045
    outer loop
      vertex 6.49593 16 10.7738
      vertex 6.26512 12 11.0302
      vertex 6.49593 12 10.7738
    endloop
  endfacet
  facet normal 0.951043 -0 0.30906
    outer loop
      vertex 5.98606 12 11.6569
      vertex 6.09265 16 11.3289
      vertex 5.98606 16 11.6569
    endloop
  endfacet
  facet normal 0.951043 0 0.30906
    outer loop
      vertex 6.09265 16 11.3289
      vertex 5.98606 12 11.6569
      vertex 6.09265 12 11.3289
    endloop
  endfacet
  facet normal -0.866006 0 -0.500034
    outer loop
      vertex 9.10735 12 12.6711
      vertex 8.93488 16 12.9698
      vertex 9.10735 16 12.6711
    endloop
  endfacet
  facet normal -0.866006 -0 -0.500034
    outer loop
      vertex 8.93488 16 12.9698
      vertex 9.10735 12 12.6711
      vertex 8.93488 12 12.9698
    endloop
  endfacet
  facet normal -0.208137 0 -0.9781
    outer loop
      vertex 7.77247 12 13.641
      vertex 8.10988 16 13.5692
      vertex 8.10988 12 13.5692
    endloop
  endfacet
  facet normal -0.208137 0 -0.9781
    outer loop
      vertex 8.10988 16 13.5692
      vertex 7.77247 12 13.641
      vertex 7.77247 16 13.641
    endloop
  endfacet
  facet normal 0.994522 0 -0.104525
    outer loop
      vertex 5.98606 12 12.3431
      vertex 5.95 16 12
      vertex 5.98606 16 12.3431
    endloop
  endfacet
  facet normal 0.994522 0 -0.104525
    outer loop
      vertex 5.95 16 12
      vertex 5.98606 12 12.3431
      vertex 5.95 12 12
    endloop
  endfacet
  facet normal 0.994522 -0 0.104525
    outer loop
      vertex 5.95 12 12
      vertex 5.98606 16 11.6569
      vertex 5.95 16 12
    endloop
  endfacet
  facet normal 0.994522 0 0.104525
    outer loop
      vertex 5.98606 16 11.6569
      vertex 5.95 12 12
      vertex 5.98606 12 11.6569
    endloop
  endfacet
  facet normal 0.587679 0 -0.809095
    outer loop
      vertex 6.49593 12 13.2262
      vertex 6.775 16 13.4289
      vertex 6.775 12 13.4289
    endloop
  endfacet
  facet normal 0.587679 0 -0.809095
    outer loop
      vertex 6.775 16 13.4289
      vertex 6.49593 12 13.2262
      vertex 6.49593 16 13.2262
    endloop
  endfacet
  facet normal -0.406736 0 0.913546
    outer loop
      vertex 8.10988 16 10.4308
      vertex 8.425 12 10.5711
      vertex 8.425 16 10.5711
    endloop
  endfacet
  facet normal -0.406736 0 0.913546
    outer loop
      vertex 8.425 12 10.5711
      vertex 8.10988 16 10.4308
      vertex 8.10988 12 10.4308
    endloop
  endfacet
  facet normal -0.587679 0 0.809095
    outer loop
      vertex 8.425 16 10.5711
      vertex 8.70407 12 10.7738
      vertex 8.70407 16 10.7738
    endloop
  endfacet
  facet normal -0.587679 0 0.809095
    outer loop
      vertex 8.70407 12 10.7738
      vertex 8.425 16 10.5711
      vertex 8.425 12 10.5711
    endloop
  endfacet
  facet normal -0.743222 0 0.669045
    outer loop
      vertex 8.70407 12 10.7738
      vertex 8.93488 16 11.0302
      vertex 8.70407 16 10.7738
    endloop
  endfacet
  facet normal -0.743222 0 0.669045
    outer loop
      vertex 8.93488 16 11.0302
      vertex 8.70407 12 10.7738
      vertex 8.93488 12 11.0302
    endloop
  endfacet
  facet normal -0.951043 0 0.30906
    outer loop
      vertex 9.10735 12 11.3289
      vertex 9.21394 16 11.6569
      vertex 9.10735 16 11.3289
    endloop
  endfacet
  facet normal -0.951043 0 0.30906
    outer loop
      vertex 9.21394 16 11.6569
      vertex 9.10735 12 11.3289
      vertex 9.21394 12 11.6569
    endloop
  endfacet
  facet normal -0.994522 0 0.104525
    outer loop
      vertex 9.21394 12 11.6569
      vertex 9.25 16 12
      vertex 9.21394 16 11.6569
    endloop
  endfacet
  facet normal -0.994522 0 0.104525
    outer loop
      vertex 9.25 16 12
      vertex 9.21394 12 11.6569
      vertex 9.25 12 12
    endloop
  endfacet
  facet normal 0.208137 0 0.9781
    outer loop
      vertex 7.09012 16 10.4308
      vertex 7.42753 12 10.359
      vertex 7.42753 16 10.359
    endloop
  endfacet
  facet normal 0.208137 0 0.9781
    outer loop
      vertex 7.42753 12 10.359
      vertex 7.09012 16 10.4308
      vertex 7.09012 12 10.4308
    endloop
  endfacet
  facet normal 0.587679 0 0.809095
    outer loop
      vertex 6.49593 16 10.7738
      vertex 6.775 12 10.5711
      vertex 6.775 16 10.5711
    endloop
  endfacet
  facet normal 0.587679 0 0.809095
    outer loop
      vertex 6.775 12 10.5711
      vertex 6.49593 16 10.7738
      vertex 6.49593 12 10.7738
    endloop
  endfacet
  facet normal 0.866006 -0 0.500034
    outer loop
      vertex 6.09265 12 11.3289
      vertex 6.26512 16 11.0302
      vertex 6.09265 16 11.3289
    endloop
  endfacet
  facet normal 0.866006 0 0.500034
    outer loop
      vertex 6.26512 16 11.0302
      vertex 6.09265 12 11.3289
      vertex 6.26512 12 11.0302
    endloop
  endfacet
  facet normal -0.99451 0 -0.10464
    outer loop
      vertex 28.05 12 12
      vertex 28.0139 16 12.3431
      vertex 28.05 16 12
    endloop
  endfacet
  facet normal -0.99451 -0 -0.10464
    outer loop
      vertex 28.0139 16 12.3431
      vertex 28.05 12 12
      vertex 28.0139 12 12.3431
    endloop
  endfacet
  facet normal -0.951034 0 -0.309086
    outer loop
      vertex 28.0139 12 12.3431
      vertex 27.9073 16 12.6711
      vertex 28.0139 16 12.3431
    endloop
  endfacet
  facet normal -0.951034 -0 -0.309086
    outer loop
      vertex 27.9073 16 12.6711
      vertex 28.0139 12 12.3431
      vertex 27.9073 12 12.6711
    endloop
  endfacet
  facet normal 0 0 -1
    outer loop
      vertex 26.2275 12 13.641
      vertex 26.5725 16 13.641
      vertex 26.5725 12 13.641
    endloop
  endfacet
  facet normal -0 0 -1
    outer loop
      vertex 26.5725 16 13.641
      vertex 26.2275 12 13.641
      vertex 26.2275 16 13.641
    endloop
  endfacet
  facet normal -0.587637 0 -0.809125
    outer loop
      vertex 27.225 12 13.4289
      vertex 27.5041 16 13.2262
      vertex 27.5041 12 13.2262
    endloop
  endfacet
  facet normal -0.587637 0 -0.809125
    outer loop
      vertex 27.5041 16 13.2262
      vertex 27.225 12 13.4289
      vertex 27.225 16 13.4289
    endloop
  endfacet
  facet normal 0.406757 0 -0.913536
    outer loop
      vertex 25.575 12 13.4289
      vertex 25.8901 16 13.5692
      vertex 25.8901 12 13.5692
    endloop
  endfacet
  facet normal 0.406757 0 -0.913536
    outer loop
      vertex 25.8901 16 13.5692
      vertex 25.575 12 13.4289
      vertex 25.575 16 13.4289
    endloop
  endfacet
  facet normal -0.208143 0 0.978098
    outer loop
      vertex 26.5725 16 10.359
      vertex 26.9099 12 10.4308
      vertex 26.9099 16 10.4308
    endloop
  endfacet
  facet normal -0.208143 0 0.978098
    outer loop
      vertex 26.9099 12 10.4308
      vertex 26.5725 16 10.359
      vertex 26.5725 12 10.359
    endloop
  endfacet
  facet normal 0.951034 -0 0.309086
    outer loop
      vertex 24.7861 12 11.6569
      vertex 24.8927 16 11.3289
      vertex 24.7861 16 11.6569
    endloop
  endfacet
  facet normal 0.951034 0 0.309086
    outer loop
      vertex 24.8927 16 11.3289
      vertex 24.7861 12 11.6569
      vertex 24.8927 12 11.3289
    endloop
  endfacet
  facet normal -0.866094 0 -0.499881
    outer loop
      vertex 27.9073 12 12.6711
      vertex 27.7349 16 12.9698
      vertex 27.9073 16 12.6711
    endloop
  endfacet
  facet normal -0.866094 -0 -0.499881
    outer loop
      vertex 27.7349 16 12.9698
      vertex 27.9073 12 12.6711
      vertex 27.7349 12 12.9698
    endloop
  endfacet
  facet normal -0.208143 0 -0.978098
    outer loop
      vertex 26.5725 12 13.641
      vertex 26.9099 16 13.5692
      vertex 26.9099 12 13.5692
    endloop
  endfacet
  facet normal -0.208143 0 -0.978098
    outer loop
      vertex 26.9099 16 13.5692
      vertex 26.5725 12 13.641
      vertex 26.5725 16 13.641
    endloop
  endfacet
  facet normal -0.406757 0 -0.913536
    outer loop
      vertex 26.9099 12 13.5692
      vertex 27.225 16 13.4289
      vertex 27.225 12 13.4289
    endloop
  endfacet
  facet normal -0.406757 0 -0.913536
    outer loop
      vertex 27.225 16 13.4289
      vertex 26.9099 12 13.5692
      vertex 26.9099 16 13.5692
    endloop
  endfacet
  facet normal 0.951034 0 -0.309086
    outer loop
      vertex 24.8927 12 12.6711
      vertex 24.7861 16 12.3431
      vertex 24.8927 16 12.6711
    endloop
  endfacet
  facet normal 0.951034 0 -0.309086
    outer loop
      vertex 24.7861 16 12.3431
      vertex 24.8927 12 12.6711
      vertex 24.7861 12 12.3431
    endloop
  endfacet
  facet normal 0.866094 0 -0.499881
    outer loop
      vertex 25.0651 12 12.9698
      vertex 24.8927 16 12.6711
      vertex 25.0651 16 12.9698
    endloop
  endfacet
  facet normal 0.866094 0 -0.499881
    outer loop
      vertex 24.8927 16 12.6711
      vertex 25.0651 12 12.9698
      vertex 24.8927 12 12.6711
    endloop
  endfacet
  facet normal 0.208143 0 -0.978098
    outer loop
      vertex 25.8901 12 13.5692
      vertex 26.2275 16 13.641
      vertex 26.2275 12 13.641
    endloop
  endfacet
  facet normal 0.208143 0 -0.978098
    outer loop
      vertex 26.2275 16 13.641
      vertex 25.8901 12 13.5692
      vertex 25.8901 16 13.5692
    endloop
  endfacet
  facet normal -0.866094 0 0.499881
    outer loop
      vertex 27.7349 12 11.0302
      vertex 27.9073 16 11.3289
      vertex 27.7349 16 11.0302
    endloop
  endfacet
  facet normal -0.866094 0 0.499881
    outer loop
      vertex 27.9073 16 11.3289
      vertex 27.7349 12 11.0302
      vertex 27.9073 12 11.3289
    endloop
  endfacet
  facet normal 0.587637 0 0.809125
    outer loop
      vertex 25.2959 16 10.7738
      vertex 25.575 12 10.5711
      vertex 25.575 16 10.5711
    endloop
  endfacet
  facet normal 0.587637 0 0.809125
    outer loop
      vertex 25.575 12 10.5711
      vertex 25.2959 16 10.7738
      vertex 25.2959 12 10.7738
    endloop
  endfacet
  facet normal 0.866094 -0 0.499881
    outer loop
      vertex 24.8927 12 11.3289
      vertex 25.0651 16 11.0302
      vertex 24.8927 16 11.3289
    endloop
  endfacet
  facet normal 0.866094 0 0.499881
    outer loop
      vertex 25.0651 16 11.0302
      vertex 24.8927 12 11.3289
      vertex 25.0651 12 11.0302
    endloop
  endfacet
  facet normal 0.743236 -0 0.669029
    outer loop
      vertex 25.0651 12 11.0302
      vertex 25.2959 16 10.7738
      vertex 25.0651 16 11.0302
    endloop
  endfacet
  facet normal 0.743236 0 0.669029
    outer loop
      vertex 25.2959 16 10.7738
      vertex 25.0651 12 11.0302
      vertex 25.2959 12 10.7738
    endloop
  endfacet
  facet normal -0.743236 0 -0.669029
    outer loop
      vertex 27.7349 12 12.9698
      vertex 27.5041 16 13.2262
      vertex 27.7349 16 12.9698
    endloop
  endfacet
  facet normal -0.743236 -0 -0.669029
    outer loop
      vertex 27.5041 16 13.2262
      vertex 27.7349 12 12.9698
      vertex 27.5041 12 13.2262
    endloop
  endfacet
  facet normal 0.99451 0 -0.10464
    outer loop
      vertex 24.7861 12 12.3431
      vertex 24.75 16 12
      vertex 24.7861 16 12.3431
    endloop
  endfacet
  facet normal 0.99451 0 -0.10464
    outer loop
      vertex 24.75 16 12
      vertex 24.7861 12 12.3431
      vertex 24.75 12 12
    endloop
  endfacet
  facet normal 0.99451 -0 0.10464
    outer loop
      vertex 24.75 12 12
      vertex 24.7861 16 11.6569
      vertex 24.75 16 12
    endloop
  endfacet
  facet normal 0.99451 0 0.10464
    outer loop
      vertex 24.7861 16 11.6569
      vertex 24.75 12 12
      vertex 24.7861 12 11.6569
    endloop
  endfacet
  facet normal 0.587637 0 -0.809125
    outer loop
      vertex 25.2959 12 13.2262
      vertex 25.575 16 13.4289
      vertex 25.575 12 13.4289
    endloop
  endfacet
  facet normal 0.587637 0 -0.809125
    outer loop
      vertex 25.575 16 13.4289
      vertex 25.2959 12 13.2262
      vertex 25.2959 16 13.2262
    endloop
  endfacet
  facet normal 0.743236 0 -0.669029
    outer loop
      vertex 25.2959 12 13.2262
      vertex 25.0651 16 12.9698
      vertex 25.2959 16 13.2262
    endloop
  endfacet
  facet normal 0.743236 0 -0.669029
    outer loop
      vertex 25.0651 16 12.9698
      vertex 25.2959 12 13.2262
      vertex 25.0651 12 12.9698
    endloop
  endfacet
  facet normal -0.406757 0 0.913536
    outer loop
      vertex 26.9099 16 10.4308
      vertex 27.225 12 10.5711
      vertex 27.225 16 10.5711
    endloop
  endfacet
  facet normal -0.406757 0 0.913536
    outer loop
      vertex 27.225 12 10.5711
      vertex 26.9099 16 10.4308
      vertex 26.9099 12 10.4308
    endloop
  endfacet
  facet normal -0.587637 0 0.809125
    outer loop
      vertex 27.225 16 10.5711
      vertex 27.5041 12 10.7738
      vertex 27.5041 16 10.7738
    endloop
  endfacet
  facet normal -0.587637 0 0.809125
    outer loop
      vertex 27.5041 12 10.7738
      vertex 27.225 16 10.5711
      vertex 27.225 12 10.5711
    endloop
  endfacet
  facet normal -0.743236 0 0.669029
    outer loop
      vertex 27.5041 12 10.7738
      vertex 27.7349 16 11.0302
      vertex 27.5041 16 10.7738
    endloop
  endfacet
  facet normal -0.743236 0 0.669029
    outer loop
      vertex 27.7349 16 11.0302
      vertex 27.5041 12 10.7738
      vertex 27.7349 12 11.0302
    endloop
  endfacet
  facet normal 0.406757 0 0.913536
    outer loop
      vertex 25.575 16 10.5711
      vertex 25.8901 12 10.4308
      vertex 25.8901 16 10.4308
    endloop
  endfacet
  facet normal 0.406757 0 0.913536
    outer loop
      vertex 25.8901 12 10.4308
      vertex 25.575 16 10.5711
      vertex 25.575 12 10.5711
    endloop
  endfacet
  facet normal 0.208143 0 0.978098
    outer loop
      vertex 25.8901 16 10.4308
      vertex 26.2275 12 10.359
      vertex 26.2275 16 10.359
    endloop
  endfacet
  facet normal 0.208143 0 0.978098
    outer loop
      vertex 26.2275 12 10.359
      vertex 25.8901 16 10.4308
      vertex 25.8901 12 10.4308
    endloop
  endfacet
  facet normal -0 0 1
    outer loop
      vertex 26.2275 16 10.359
      vertex 26.5725 12 10.359
      vertex 26.5725 16 10.359
    endloop
  endfacet
  facet normal 0 0 1
    outer loop
      vertex 26.5725 12 10.359
      vertex 26.2275 16 10.359
      vertex 26.2275 12 10.359
    endloop
  endfacet
  facet normal -0.951034 0 0.309086
    outer loop
      vertex 27.9073 12 11.3289
      vertex 28.0139 16 11.6569
      vertex 27.9073 16 11.3289
    endloop
  endfacet
  facet normal -0.951034 0 0.309086
    outer loop
      vertex 28.0139 16 11.6569
      vertex 27.9073 12 11.3289
      vertex 28.0139 12 11.6569
    endloop
  endfacet
  facet normal -0.99451 0 0.10464
    outer loop
      vertex 28.0139 12 11.6569
      vertex 28.05 16 12
      vertex 28.0139 16 11.6569
    endloop
  endfacet
  facet normal -0.99451 0 0.10464
    outer loop
      vertex 28.05 16 12
      vertex 28.0139 12 11.6569
      vertex 28.05 12 12
    endloop
  endfacet
endsolid OpenSCAD_Model
