solid OpenSCAD_Model
  facet normal -1 0 0
    outer loop
      vertex 0 0 0
      vertex 0 16 4
      vertex 0 16 0
    endloop
  endfacet
  facet normal -1 -0 0
    outer loop
      vertex 0 16 4
      vertex 0 0 0
      vertex 0 0 4
    endloop
  endfacet
  facet normal 0 0 1
    outer loop
      vertex 25 16 4
      vertex 23.5786 8 4
      vertex 25 0 4
    endloop
  endfacet
  facet normal 0 0 1
    outer loop
      vertex 25 16 4
      vertex 23.3927 8.87448 4
      vertex 23.5786 8 4
    endloop
  endfacet
  facet normal 0 0 1
    outer loop
      vertex 25 16 4
      vertex 22.8672 9.59776 4
      vertex 23.3927 8.87448 4
    endloop
  endfacet
  facet normal 0 0 1
    outer loop
      vertex 25 16 4
      vertex 22.093 10.0448 4
      vertex 22.8672 9.59776 4
    endloop
  endfacet
  facet normal 0 0 1
    outer loop
      vertex 25 16 4
      vertex 21.2038 10.1382 4
      vertex 22.093 10.0448 4
    endloop
  endfacet
  facet normal 0 0 1
    outer loop
      vertex 25 16 4
      vertex 20.3536 9.86195 4
      vertex 21.2038 10.1382 4
    endloop
  endfacet
  facet normal 0 0 1
    outer loop
      vertex 5.01006 9.59776 4
      vertex 20.3536 9.86195 4
      vertex 25 16 4
    endloop
  endfacet
  facet normal 0 0 1
    outer loop
      vertex 19.3256 8.44701 4
      vertex 17.5 4 4
      vertex 19.3256 7.55299 4
    endloop
  endfacet
  facet normal 0 0 1
    outer loop
      vertex 19.3256 8.44701 4
      vertex 7.5 4 4
      vertex 17.5 4 4
    endloop
  endfacet
  facet normal -0 0 1
    outer loop
      vertex 5.53555 8.87448 4
      vertex 19.3256 8.44701 4
      vertex 19.6892 9.26374 4
    endloop
  endfacet
  facet normal 0 0 1
    outer loop
      vertex 20.3536 9.86195 4
      vertex 5.01006 9.59776 4
      vertex 19.6892 9.26374 4
    endloop
  endfacet
  facet normal -0 0 1
    outer loop
      vertex 5.53555 7.12552 4
      vertex 7.5 4 4
      vertex 5.72143 8 4
    endloop
  endfacet
  facet normal 0 0 1
    outer loop
      vertex 19.3256 8.44701 4
      vertex 5.72143 8 4
      vertex 7.5 4 4
    endloop
  endfacet
  facet normal 0 0 1
    outer loop
      vertex 19.3256 8.44701 4
      vertex 5.53555 8.87448 4
      vertex 5.72143 8 4
    endloop
  endfacet
  facet normal 0 0 1
    outer loop
      vertex 19.6892 9.26374 4
      vertex 5.01006 9.59776 4
      vertex 5.53555 8.87448 4
    endloop
  endfacet
  facet normal -0 0 1
    outer loop
      vertex 0 16 4
      vertex 5.01006 9.59776 4
      vertex 25 16 4
    endloop
  endfacet
  facet normal 0 0 1
    outer loop
      vertex 5.01006 9.59776 4
      vertex 0 16 4
      vertex 4.23582 10.0448 4
    endloop
  endfacet
  facet normal 0 0 1
    outer loop
      vertex 1.46841 8.44701 4
      vertex 0 16 4
      vertex 1.46841 7.55299 4
    endloop
  endfacet
  facet normal 0 0 1
    outer loop
      vertex 1.83204 9.26374 4
      vertex 0 16 4
      vertex 1.46841 8.44701 4
    endloop
  endfacet
  facet normal 0 0 1
    outer loop
      vertex 2.49643 9.86195 4
      vertex 0 16 4
      vertex 1.83204 9.26374 4
    endloop
  endfacet
  facet normal 0 0 1
    outer loop
      vertex 3.34669 10.1382 4
      vertex 0 16 4
      vertex 2.49643 9.86195 4
    endloop
  endfacet
  facet normal 0 0 1
    outer loop
      vertex 4.23582 10.0448 4
      vertex 0 16 4
      vertex 3.34669 10.1382 4
    endloop
  endfacet
  facet normal -0 0 1
    outer loop
      vertex 23.3927 7.12552 4
      vertex 25 0 4
      vertex 23.5786 8 4
    endloop
  endfacet
  facet normal -0 0 1
    outer loop
      vertex 22.8672 6.40224 4
      vertex 25 0 4
      vertex 23.3927 7.12552 4
    endloop
  endfacet
  facet normal -0 0 1
    outer loop
      vertex 22.093 5.95523 4
      vertex 25 0 4
      vertex 22.8672 6.40224 4
    endloop
  endfacet
  facet normal -0 0 1
    outer loop
      vertex 21.2038 5.86178 4
      vertex 25 0 4
      vertex 22.093 5.95523 4
    endloop
  endfacet
  facet normal 0 0 1
    outer loop
      vertex 17.5 4 4
      vertex 21.2038 5.86178 4
      vertex 20.3536 6.13805 4
    endloop
  endfacet
  facet normal 0 0 1
    outer loop
      vertex 17.5 4 4
      vertex 20.3536 6.13805 4
      vertex 19.6892 6.73626 4
    endloop
  endfacet
  facet normal 0 0 1
    outer loop
      vertex 17.5 4 4
      vertex 19.6892 6.73626 4
      vertex 19.3256 7.55299 4
    endloop
  endfacet
  facet normal 0 0 1
    outer loop
      vertex 17.5 0 4
      vertex 21.2038 5.86178 4
      vertex 17.5 4 4
    endloop
  endfacet
  facet normal 0 0 1
    outer loop
      vertex 21.2038 5.86178 4
      vertex 17.5 0 4
      vertex 25 0 4
    endloop
  endfacet
  facet normal -0 0 1
    outer loop
      vertex 5.01006 6.40224 4
      vertex 7.5 4 4
      vertex 5.53555 7.12552 4
    endloop
  endfacet
  facet normal -0 0 1
    outer loop
      vertex 4.23582 5.95523 4
      vertex 7.5 4 4
      vertex 5.01006 6.40224 4
    endloop
  endfacet
  facet normal -0 0 1
    outer loop
      vertex 3.34669 5.86178 4
      vertex 7.5 4 4
      vertex 4.23582 5.95523 4
    endloop
  endfacet
  facet normal 0 0 1
    outer loop
      vertex 7.5 4 4
      vertex 3.34669 5.86178 4
      vertex 7.5 0 4
    endloop
  endfacet
  facet normal 0 0 1
    outer loop
      vertex 0 0 4
      vertex 3.34669 5.86178 4
      vertex 2.49643 6.13805 4
    endloop
  endfacet
  facet normal 0 0 1
    outer loop
      vertex 0 0 4
      vertex 2.49643 6.13805 4
      vertex 1.83204 6.73626 4
    endloop
  endfacet
  facet normal 0 0 1
    outer loop
      vertex 3.34669 5.86178 4
      vertex 0 0 4
      vertex 7.5 0 4
    endloop
  endfacet
  facet normal 0 0 1
    outer loop
      vertex 1.46841 7.55299 4
      vertex 0 0 4
      vertex 1.83204 6.73626 4
    endloop
  endfacet
  facet normal 0 0 1
    outer loop
      vertex 0 0 4
      vertex 1.46841 7.55299 4
      vertex 0 16 4
    endloop
  endfacet
  facet normal 1 -0 0
    outer loop
      vertex 25 0 4
      vertex 25 16 0
      vertex 25 16 4
    endloop
  endfacet
  facet normal 1 0 0
    outer loop
      vertex 25 16 0
      vertex 25 0 4
      vertex 25 0 0
    endloop
  endfacet
  facet normal 0 0 -1
    outer loop
      vertex 25 0 0
      vertex 23.5786 8 0
      vertex 25 16 0
    endloop
  endfacet
  facet normal 0 0 -1
    outer loop
      vertex 25 0 0
      vertex 23.3927 7.12552 0
      vertex 23.5786 8 0
    endloop
  endfacet
  facet normal 0 0 -1
    outer loop
      vertex 25 0 0
      vertex 22.8672 6.40224 0
      vertex 23.3927 7.12552 0
    endloop
  endfacet
  facet normal 0 0 -1
    outer loop
      vertex 25 0 0
      vertex 22.093 5.95523 0
      vertex 22.8672 6.40224 0
    endloop
  endfacet
  facet normal 0 0 -1
    outer loop
      vertex 25 0 0
      vertex 21.2038 5.86178 0
      vertex 22.093 5.95523 0
    endloop
  endfacet
  facet normal 0 0 -1
    outer loop
      vertex 25 0 0
      vertex 20.3536 6.13805 0
      vertex 21.2038 5.86178 0
    endloop
  endfacet
  facet normal 0 0 -1
    outer loop
      vertex 5.01006 6.40224 0
      vertex 20.3536 6.13805 0
      vertex 25 0 0
    endloop
  endfacet
  facet normal 0 0 -1
    outer loop
      vertex 19.3256 7.55299 0
      vertex 5.72143 8 0
      vertex 19.3256 8.44701 0
    endloop
  endfacet
  facet normal 0 0 -1
    outer loop
      vertex 5.53555 7.12552 0
      vertex 19.3256 7.55299 0
      vertex 19.6892 6.73626 0
    endloop
  endfacet
  facet normal 0 0 -1
    outer loop
      vertex 20.3536 6.13805 0
      vertex 5.01006 6.40224 0
      vertex 19.6892 6.73626 0
    endloop
  endfacet
  facet normal -0 0 -1
    outer loop
      vertex 19.3256 7.55299 0
      vertex 5.53555 7.12552 0
      vertex 5.72143 8 0
    endloop
  endfacet
  facet normal -0 0 -1
    outer loop
      vertex 19.6892 6.73626 0
      vertex 5.01006 6.40224 0
      vertex 5.53555 7.12552 0
    endloop
  endfacet
  facet normal 0 0 -1
    outer loop
      vertex 0 0 0
      vertex 5.01006 6.40224 0
      vertex 25 0 0
    endloop
  endfacet
  facet normal 0 0 -1
    outer loop
      vertex 5.01006 6.40224 0
      vertex 0 0 0
      vertex 4.23582 5.95523 0
    endloop
  endfacet
  facet normal -0 0 -1
    outer loop
      vertex 1.46841 7.55299 0
      vertex 0 0 0
      vertex 1.46841 8.44701 0
    endloop
  endfacet
  facet normal -0 0 -1
    outer loop
      vertex 1.83204 6.73626 0
      vertex 0 0 0
      vertex 1.46841 7.55299 0
    endloop
  endfacet
  facet normal -0 0 -1
    outer loop
      vertex 2.49643 6.13805 0
      vertex 0 0 0
      vertex 1.83204 6.73626 0
    endloop
  endfacet
  facet normal -0 0 -1
    outer loop
      vertex 3.34669 5.86178 0
      vertex 0 0 0
      vertex 2.49643 6.13805 0
    endloop
  endfacet
  facet normal 0 0 -1
    outer loop
      vertex 4.23582 5.95523 0
      vertex 0 0 0
      vertex 3.34669 5.86178 0
    endloop
  endfacet
  facet normal 0 0 -1
    outer loop
      vertex 23.3927 8.87448 0
      vertex 25 16 0
      vertex 23.5786 8 0
    endloop
  endfacet
  facet normal 0 0 -1
    outer loop
      vertex 22.8672 9.59776 0
      vertex 25 16 0
      vertex 23.3927 8.87448 0
    endloop
  endfacet
  facet normal 0 0 -1
    outer loop
      vertex 22.093 10.0448 0
      vertex 25 16 0
      vertex 22.8672 9.59776 0
    endloop
  endfacet
  facet normal 0 0 -1
    outer loop
      vertex 21.2038 10.1382 0
      vertex 25 16 0
      vertex 22.093 10.0448 0
    endloop
  endfacet
  facet normal 0 0 -1
    outer loop
      vertex 20.3536 9.86195 0
      vertex 25 16 0
      vertex 21.2038 10.1382 0
    endloop
  endfacet
  facet normal 0 0 -1
    outer loop
      vertex 5.01006 9.59776 0
      vertex 20.3536 9.86195 0
      vertex 19.6892 9.26374 0
    endloop
  endfacet
  facet normal 0 0 -1
    outer loop
      vertex 5.53555 8.87448 0
      vertex 19.3256 8.44701 0
      vertex 5.72143 8 0
    endloop
  endfacet
  facet normal 0 0 -1
    outer loop
      vertex 19.3256 8.44701 0
      vertex 5.53555 8.87448 0
      vertex 19.6892 9.26374 0
    endloop
  endfacet
  facet normal 0 0 -1
    outer loop
      vertex 5.01006 9.59776 0
      vertex 19.6892 9.26374 0
      vertex 5.53555 8.87448 0
    endloop
  endfacet
  facet normal -0 0 -1
    outer loop
      vertex 20.3536 9.86195 0
      vertex 5.01006 9.59776 0
      vertex 25 16 0
    endloop
  endfacet
  facet normal 0 0 -1
    outer loop
      vertex 0 16 0
      vertex 5.01006 9.59776 0
      vertex 4.23582 10.0448 0
    endloop
  endfacet
  facet normal 0 0 -1
    outer loop
      vertex 0 16 0
      vertex 4.23582 10.0448 0
      vertex 3.34669 10.1382 0
    endloop
  endfacet
  facet normal 0 0 -1
    outer loop
      vertex 5.01006 9.59776 0
      vertex 0 16 0
      vertex 25 16 0
    endloop
  endfacet
  facet normal 0 0 -1
    outer loop
      vertex 2.49643 9.86195 0
      vertex 0 16 0
      vertex 3.34669 10.1382 0
    endloop
  endfacet
  facet normal 0 0 -1
    outer loop
      vertex 1.83204 9.26374 0
      vertex 0 16 0
      vertex 2.49643 9.86195 0
    endloop
  endfacet
  facet normal 0 0 -1
    outer loop
      vertex 1.46841 8.44701 0
      vertex 0 16 0
      vertex 1.83204 9.26374 0
    endloop
  endfacet
  facet normal 0 0 -1
    outer loop
      vertex 0 16 0
      vertex 1.46841 8.44701 0
      vertex 0 0 0
    endloop
  endfacet
  facet normal 0 -1 0
    outer loop
      vertex 7.5 0 22
      vertex 12.125 0 11
      vertex 12.125 0 22
    endloop
  endfacet
  facet normal 0 -1 -0
    outer loop
      vertex 12.125 0 11
      vertex 7.5 0 4
      vertex 12.875 0 11
    endloop
  endfacet
  facet normal 0 -1 0
    outer loop
      vertex 7.5 0 4
      vertex 12.125 0 11
      vertex 7.5 0 22
    endloop
  endfacet
  facet normal 0 -1 0
    outer loop
      vertex 12.875 0 11
      vertex 17.5 0 22
      vertex 12.875 0 22
    endloop
  endfacet
  facet normal 0 -1 0
    outer loop
      vertex 12.875 0 11
      vertex 17.5 0 4
      vertex 17.5 0 22
    endloop
  endfacet
  facet normal 0 -1 0
    outer loop
      vertex 17.5 0 4
      vertex 12.875 0 11
      vertex 7.5 0 4
    endloop
  endfacet
  facet normal 0 -1 0
    outer loop
      vertex 0 0 0
      vertex 7.5 0 4
      vertex 0 0 4
    endloop
  endfacet
  facet normal 0 -1 -0
    outer loop
      vertex 7.5 0 4
      vertex 0 0 0
      vertex 17.5 0 4
    endloop
  endfacet
  facet normal 0 -1 0
    outer loop
      vertex 25 0 0
      vertex 17.5 0 4
      vertex 0 0 0
    endloop
  endfacet
  facet normal 0 -1 0
    outer loop
      vertex 17.5 0 4
      vertex 25 0 0
      vertex 25 0 4
    endloop
  endfacet
  facet normal 0 1 -0
    outer loop
      vertex 25 16 0
      vertex 0 16 4
      vertex 25 16 4
    endloop
  endfacet
  facet normal 0 1 0
    outer loop
      vertex 0 16 4
      vertex 25 16 0
      vertex 0 16 0
    endloop
  endfacet
  facet normal -0.978147 -0.207915 0
    outer loop
      vertex 5.72143 8 0
      vertex 5.53555 8.87448 4
      vertex 5.53555 8.87448 0
    endloop
  endfacet
  facet normal -0.978147 -0.207915 0
    outer loop
      vertex 5.53555 8.87448 4
      vertex 5.72143 8 0
      vertex 5.72143 8 4
    endloop
  endfacet
  facet normal 1 -0 0
    outer loop
      vertex 1.46841 7.55299 4
      vertex 1.46841 8.44701 0
      vertex 1.46841 8.44701 4
    endloop
  endfacet
  facet normal 1 0 0
    outer loop
      vertex 1.46841 8.44701 0
      vertex 1.46841 7.55299 4
      vertex 1.46841 7.55299 0
    endloop
  endfacet
  facet normal -0.104472 -0.994528 0
    outer loop
      vertex 3.34669 10.1382 0
      vertex 4.23582 10.0448 4
      vertex 3.34669 10.1382 4
    endloop
  endfacet
  facet normal -0.104472 -0.994528 -0
    outer loop
      vertex 4.23582 10.0448 4
      vertex 3.34669 10.1382 0
      vertex 4.23582 10.0448 0
    endloop
  endfacet
  facet normal -0.809019 -0.587783 0
    outer loop
      vertex 5.53555 8.87448 0
      vertex 5.01006 9.59776 4
      vertex 5.01006 9.59776 0
    endloop
  endfacet
  facet normal -0.809019 -0.587783 0
    outer loop
      vertex 5.01006 9.59776 4
      vertex 5.53555 8.87448 0
      vertex 5.53555 8.87448 4
    endloop
  endfacet
  facet normal -0.809019 0.587783 0
    outer loop
      vertex 5.01006 6.40224 0
      vertex 5.53555 7.12552 4
      vertex 5.53555 7.12552 0
    endloop
  endfacet
  facet normal -0.809019 0.587783 0
    outer loop
      vertex 5.53555 7.12552 4
      vertex 5.01006 6.40224 0
      vertex 5.01006 6.40224 4
    endloop
  endfacet
  facet normal -0.500002 0.866024 0
    outer loop
      vertex 5.01006 6.40224 0
      vertex 4.23582 5.95523 4
      vertex 5.01006 6.40224 4
    endloop
  endfacet
  facet normal -0.500002 0.866024 0
    outer loop
      vertex 4.23582 5.95523 4
      vertex 5.01006 6.40224 0
      vertex 4.23582 5.95523 0
    endloop
  endfacet
  facet normal -0.104527 0.994522 0
    outer loop
      vertex 4.23582 5.95523 0
      vertex 3.34669 5.86178 4
      vertex 4.23582 5.95523 4
    endloop
  endfacet
  facet normal -0.104527 0.994522 0
    outer loop
      vertex 3.34669 5.86178 4
      vertex 4.23582 5.95523 0
      vertex 3.34669 5.86178 0
    endloop
  endfacet
  facet normal -0.500027 -0.86601 0
    outer loop
      vertex 4.23582 10.0448 0
      vertex 5.01006 9.59776 4
      vertex 4.23582 10.0448 4
    endloop
  endfacet
  facet normal -0.500027 -0.86601 -0
    outer loop
      vertex 5.01006 9.59776 4
      vertex 4.23582 10.0448 0
      vertex 5.01006 9.59776 0
    endloop
  endfacet
  facet normal 0.309001 -0.951062 0
    outer loop
      vertex 2.49643 9.86195 0
      vertex 3.34669 10.1382 4
      vertex 2.49643 9.86195 4
    endloop
  endfacet
  facet normal 0.309001 -0.951062 0
    outer loop
      vertex 3.34669 10.1382 4
      vertex 2.49643 9.86195 0
      vertex 3.34669 10.1382 0
    endloop
  endfacet
  facet normal 0.913546 -0.406735 0
    outer loop
      vertex 1.46841 8.44701 4
      vertex 1.83204 9.26374 0
      vertex 1.83204 9.26374 4
    endloop
  endfacet
  facet normal 0.913546 -0.406735 0
    outer loop
      vertex 1.83204 9.26374 0
      vertex 1.46841 8.44701 4
      vertex 1.46841 8.44701 0
    endloop
  endfacet
  facet normal 0.669125 -0.74315 0
    outer loop
      vertex 1.83204 9.26374 0
      vertex 2.49643 9.86195 4
      vertex 1.83204 9.26374 4
    endloop
  endfacet
  facet normal 0.669125 -0.74315 0
    outer loop
      vertex 2.49643 9.86195 4
      vertex 1.83204 9.26374 0
      vertex 2.49643 9.86195 0
    endloop
  endfacet
  facet normal 0.913546 0.406735 0
    outer loop
      vertex 1.83204 6.73626 4
      vertex 1.46841 7.55299 0
      vertex 1.46841 7.55299 4
    endloop
  endfacet
  facet normal 0.913546 0.406735 0
    outer loop
      vertex 1.46841 7.55299 0
      vertex 1.83204 6.73626 4
      vertex 1.83204 6.73626 0
    endloop
  endfacet
  facet normal 0.309021 0.951055 -0
    outer loop
      vertex 3.34669 5.86178 0
      vertex 2.49643 6.13805 4
      vertex 3.34669 5.86178 4
    endloop
  endfacet
  facet normal 0.309021 0.951055 0
    outer loop
      vertex 2.49643 6.13805 4
      vertex 3.34669 5.86178 0
      vertex 2.49643 6.13805 0
    endloop
  endfacet
  facet normal 0.669125 0.74315 -0
    outer loop
      vertex 2.49643 6.13805 0
      vertex 1.83204 6.73626 4
      vertex 2.49643 6.13805 4
    endloop
  endfacet
  facet normal 0.669125 0.74315 0
    outer loop
      vertex 1.83204 6.73626 4
      vertex 2.49643 6.13805 0
      vertex 1.83204 6.73626 0
    endloop
  endfacet
  facet normal -0.978147 0.207915 0
    outer loop
      vertex 5.53555 7.12552 0
      vertex 5.72143 8 4
      vertex 5.72143 8 0
    endloop
  endfacet
  facet normal -0.978147 0.207915 0
    outer loop
      vertex 5.72143 8 4
      vertex 5.53555 7.12552 0
      vertex 5.53555 7.12552 4
    endloop
  endfacet
  facet normal -0.978142 -0.207937 0
    outer loop
      vertex 23.5786 8 0
      vertex 23.3927 8.87448 4
      vertex 23.3927 8.87448 0
    endloop
  endfacet
  facet normal -0.978142 -0.207937 0
    outer loop
      vertex 23.3927 8.87448 4
      vertex 23.5786 8 0
      vertex 23.5786 8 4
    endloop
  endfacet
  facet normal 1 -0 0
    outer loop
      vertex 19.3256 7.55299 4
      vertex 19.3256 8.44701 0
      vertex 19.3256 8.44701 4
    endloop
  endfacet
  facet normal 1 0 0
    outer loop
      vertex 19.3256 8.44701 0
      vertex 19.3256 7.55299 4
      vertex 19.3256 7.55299 0
    endloop
  endfacet
  facet normal -0.104464 -0.994529 0
    outer loop
      vertex 21.2038 10.1382 0
      vertex 22.093 10.0448 4
      vertex 21.2038 10.1382 4
    endloop
  endfacet
  facet normal -0.104464 -0.994529 -0
    outer loop
      vertex 22.093 10.0448 4
      vertex 21.2038 10.1382 0
      vertex 22.093 10.0448 0
    endloop
  endfacet
  facet normal -0.809014 -0.58779 0
    outer loop
      vertex 23.3927 8.87448 0
      vertex 22.8672 9.59776 4
      vertex 22.8672 9.59776 0
    endloop
  endfacet
  facet normal -0.809014 -0.58779 0
    outer loop
      vertex 22.8672 9.59776 4
      vertex 23.3927 8.87448 0
      vertex 23.3927 8.87448 4
    endloop
  endfacet
  facet normal -0.500021 0.866013 0
    outer loop
      vertex 22.8672 6.40224 0
      vertex 22.093 5.95523 4
      vertex 22.8672 6.40224 4
    endloop
  endfacet
  facet normal -0.500021 0.866013 0
    outer loop
      vertex 22.093 5.95523 4
      vertex 22.8672 6.40224 0
      vertex 22.093 5.95523 0
    endloop
  endfacet
  facet normal -0.500046 -0.865999 0
    outer loop
      vertex 22.093 10.0448 0
      vertex 22.8672 9.59776 4
      vertex 22.093 10.0448 4
    endloop
  endfacet
  facet normal -0.500046 -0.865999 -0
    outer loop
      vertex 22.8672 9.59776 4
      vertex 22.093 10.0448 0
      vertex 22.8672 9.59776 0
    endloop
  endfacet
  facet normal 0.669119 -0.743155 0
    outer loop
      vertex 19.6892 9.26374 0
      vertex 20.3536 9.86195 4
      vertex 19.6892 9.26374 4
    endloop
  endfacet
  facet normal 0.669119 -0.743155 0
    outer loop
      vertex 20.3536 9.86195 4
      vertex 19.6892 9.26374 0
      vertex 20.3536 9.86195 0
    endloop
  endfacet
  facet normal 0.913559 -0.406707 0
    outer loop
      vertex 19.3256 8.44701 4
      vertex 19.6892 9.26374 0
      vertex 19.6892 9.26374 4
    endloop
  endfacet
  facet normal 0.913559 -0.406707 0
    outer loop
      vertex 19.6892 9.26374 0
      vertex 19.3256 8.44701 4
      vertex 19.3256 8.44701 0
    endloop
  endfacet
  facet normal 0.30902 -0.951055 0
    outer loop
      vertex 20.3536 9.86195 0
      vertex 21.2038 10.1382 4
      vertex 20.3536 9.86195 4
    endloop
  endfacet
  facet normal 0.30902 -0.951055 0
    outer loop
      vertex 21.2038 10.1382 4
      vertex 20.3536 9.86195 0
      vertex 21.2038 10.1382 0
    endloop
  endfacet
  facet normal -0.978142 0.207937 0
    outer loop
      vertex 23.3927 7.12552 0
      vertex 23.5786 8 4
      vertex 23.5786 8 0
    endloop
  endfacet
  facet normal -0.978142 0.207937 0
    outer loop
      vertex 23.5786 8 4
      vertex 23.3927 7.12552 0
      vertex 23.3927 7.12552 4
    endloop
  endfacet
  facet normal 0.309041 0.951049 -0
    outer loop
      vertex 21.2038 5.86178 0
      vertex 20.3536 6.13805 4
      vertex 21.2038 5.86178 4
    endloop
  endfacet
  facet normal 0.309041 0.951049 0
    outer loop
      vertex 20.3536 6.13805 4
      vertex 21.2038 5.86178 0
      vertex 20.3536 6.13805 0
    endloop
  endfacet
  facet normal 0.913559 0.406707 0
    outer loop
      vertex 19.6892 6.73626 4
      vertex 19.3256 7.55299 0
      vertex 19.3256 7.55299 4
    endloop
  endfacet
  facet normal 0.913559 0.406707 0
    outer loop
      vertex 19.3256 7.55299 0
      vertex 19.6892 6.73626 4
      vertex 19.6892 6.73626 0
    endloop
  endfacet
  facet normal -0.809014 0.58779 0
    outer loop
      vertex 22.8672 6.40224 0
      vertex 23.3927 7.12552 4
      vertex 23.3927 7.12552 0
    endloop
  endfacet
  facet normal -0.809014 0.58779 0
    outer loop
      vertex 23.3927 7.12552 4
      vertex 22.8672 6.40224 0
      vertex 22.8672 6.40224 4
    endloop
  endfacet
  facet normal -0.104519 0.994523 0
    outer loop
      vertex 22.093 5.95523 0
      vertex 21.2038 5.86178 4
      vertex 22.093 5.95523 4
    endloop
  endfacet
  facet normal -0.104519 0.994523 0
    outer loop
      vertex 21.2038 5.86178 4
      vertex 22.093 5.95523 0
      vertex 21.2038 5.86178 0
    endloop
  endfacet
  facet normal 0.669119 0.743155 -0
    outer loop
      vertex 20.3536 6.13805 0
      vertex 19.6892 6.73626 4
      vertex 20.3536 6.13805 4
    endloop
  endfacet
  facet normal 0.669119 0.743155 0
    outer loop
      vertex 19.6892 6.73626 4
      vertex 20.3536 6.13805 0
      vertex 19.6892 6.73626 0
    endloop
  endfacet
  facet normal -1 0 0
    outer loop
      vertex 7.5 0 4
      vertex 7.5 4 22
      vertex 7.5 4 4
    endloop
  endfacet
  facet normal -1 -0 0
    outer loop
      vertex 7.5 4 22
      vertex 7.5 0 4
      vertex 7.5 0 22
    endloop
  endfacet
  facet normal -0 0 1
    outer loop
      vertex 12.875 4 22
      vertex 17.5 0 22
      vertex 17.5 4 22
    endloop
  endfacet
  facet normal 0 0 1
    outer loop
      vertex 17.5 0 22
      vertex 12.875 4 22
      vertex 12.875 0 22
    endloop
  endfacet
  facet normal -0 0 1
    outer loop
      vertex 7.5 4 22
      vertex 12.125 0 22
      vertex 12.125 4 22
    endloop
  endfacet
  facet normal 0 0 1
    outer loop
      vertex 12.125 0 22
      vertex 7.5 4 22
      vertex 7.5 0 22
    endloop
  endfacet
  facet normal 1 -0 0
    outer loop
      vertex 17.5 0 22
      vertex 17.5 4 4
      vertex 17.5 4 22
    endloop
  endfacet
  facet normal 1 0 0
    outer loop
      vertex 17.5 4 4
      vertex 17.5 0 22
      vertex 17.5 0 4
    endloop
  endfacet
  facet normal 0 1 0
    outer loop
      vertex 17.5 4 22
      vertex 12.875 4 11
      vertex 12.875 4 22
    endloop
  endfacet
  facet normal 0 1 0
    outer loop
      vertex 12.875 4 11
      vertex 17.5 4 4
      vertex 12.125 4 11
    endloop
  endfacet
  facet normal 0 1 -0
    outer loop
      vertex 17.5 4 4
      vertex 12.875 4 11
      vertex 17.5 4 22
    endloop
  endfacet
  facet normal 0 1 -0
    outer loop
      vertex 12.125 4 11
      vertex 7.5 4 22
      vertex 12.125 4 22
    endloop
  endfacet
  facet normal 0 1 0
    outer loop
      vertex 12.125 4 11
      vertex 7.5 4 4
      vertex 7.5 4 22
    endloop
  endfacet
  facet normal 0 1 0
    outer loop
      vertex 7.5 4 4
      vertex 12.125 4 11
      vertex 17.5 4 4
    endloop
  endfacet
  facet normal 1 -0 0
    outer loop
      vertex 12.125 0 22
      vertex 12.125 4 11
      vertex 12.125 4 22
    endloop
  endfacet
  facet normal 1 0 0
    outer loop
      vertex 12.125 4 11
      vertex 12.125 0 22
      vertex 12.125 0 11
    endloop
  endfacet
  facet normal -1 0 0
    outer loop
      vertex 12.875 0 11
      vertex 12.875 4 22
      vertex 12.875 4 11
    endloop
  endfacet
  facet normal -1 -0 0
    outer loop
      vertex 12.875 4 22
      vertex 12.875 0 11
      vertex 12.875 0 22
    endloop
  endfacet
  facet normal -0 0 1
    outer loop
      vertex 12.125 4 11
      vertex 12.875 0 11
      vertex 12.875 4 11
    endloop
  endfacet
  facet normal 0 0 1
    outer loop
      vertex 12.875 0 11
      vertex 12.125 4 11
      vertex 12.125 0 11
    endloop
  endfacet
endsolid OpenSCAD_Model
