solid OpenSCAD_Model
  facet normal -1 0 0
    outer loop
      vertex 0 64 0
      vertex 0 57 40
      vertex 0 64 60
    endloop
  endfacet
  facet normal -1 0 0
    outer loop
      vertex 0 42 3.8
      vertex 0 57 40
      vertex 0 64 0
    endloop
  endfacet
  facet normal -1 -0 0
    outer loop
      vertex 0 57 40
      vertex 0 42 3.8
      vertex 0 50 40
    endloop
  endfacet
  facet normal -1 0 0
    outer loop
      vertex 0 42 3.8
      vertex 0 64 0
      vertex 0 42 1.8
    endloop
  endfacet
  facet normal -1 0 0
    outer loop
      vertex 0 64 0
      vertex 0 30 1.8
      vertex 0 42 1.8
    endloop
  endfacet
  facet normal -1 0 0
    outer loop
      vertex 0 30 1.8
      vertex 0 19 9
      vertex 0 30 3.8
    endloop
  endfacet
  facet normal -1 0 0
    outer loop
      vertex 0 30 1.8
      vertex 0 12 9
      vertex 0 19 9
    endloop
  endfacet
  facet normal -1 -0 0
    outer loop
      vertex 0 12 9
      vertex 0 0 0
      vertex 0 12 12
    endloop
  endfacet
  facet normal -1 -0 0
    outer loop
      vertex 0 30 1.8
      vertex 0 0 0
      vertex 0 12 9
    endloop
  endfacet
  facet normal -1 0 0
    outer loop
      vertex 0 0 0
      vertex 0 30 1.8
      vertex 0 64 0
    endloop
  endfacet
  facet normal -1 0 0
    outer loop
      vertex 0 57 47
      vertex 0 64 60
      vertex 0 57 40
    endloop
  endfacet
  facet normal -1 0 0
    outer loop
      vertex 0 50 47
      vertex 0 64 60
      vertex 0 57 47
    endloop
  endfacet
  facet normal -1 0 0
    outer loop
      vertex 0 19 12
      vertex 0 50 40
      vertex 0 42 3.8
    endloop
  endfacet
  facet normal -1 0 0
    outer loop
      vertex 0 19 12
      vertex 0 42 3.8
      vertex 0 30 3.8
    endloop
  endfacet
  facet normal -1 0 0
    outer loop
      vertex 0 19 12
      vertex 0 30 3.8
      vertex 0 19 9
    endloop
  endfacet
  facet normal -1 0 0
    outer loop
      vertex 0 0 60
      vertex 0 50 40
      vertex 0 19 12
    endloop
  endfacet
  facet normal -1 0 0
    outer loop
      vertex 0 0 60
      vertex 0 19 12
      vertex 0 12 12
    endloop
  endfacet
  facet normal -1 0 0
    outer loop
      vertex 0 50 40
      vertex 0 0 60
      vertex 0 50 47
    endloop
  endfacet
  facet normal -1 0 0
    outer loop
      vertex 0 50 47
      vertex 0 0 60
      vertex 0 64 60
    endloop
  endfacet
  facet normal -1 0 0
    outer loop
      vertex 0 0 60
      vertex 0 12 12
      vertex 0 0 0
    endloop
  endfacet
  facet normal 1 -0 0
    outer loop
      vertex 110 0 60
      vertex 110 64 0
      vertex 110 64 60
    endloop
  endfacet
  facet normal 1 0 0
    outer loop
      vertex 110 64 0
      vertex 110 0 60
      vertex 110 0 0
    endloop
  endfacet
  facet normal 0 0 -1
    outer loop
      vertex 0 0 0
      vertex 110 64 0
      vertex 110 0 0
    endloop
  endfacet
  facet normal -0 0 -1
    outer loop
      vertex 110 64 0
      vertex 0 0 0
      vertex 0 64 0
    endloop
  endfacet
  facet normal 0 0 1
    outer loop
      vertex 110 64 60
      vertex 108.2 62.2 60
      vertex 110 0 60
    endloop
  endfacet
  facet normal 0 0 1
    outer loop
      vertex 110 64 60
      vertex 1.8 62.2 60
      vertex 108.2 62.2 60
    endloop
  endfacet
  facet normal 0 0 1
    outer loop
      vertex 1.8 62.2 60
      vertex 0 64 60
      vertex 1.8 1.8 60
    endloop
  endfacet
  facet normal -0 0 1
    outer loop
      vertex 0 64 60
      vertex 1.8 62.2 60
      vertex 110 64 60
    endloop
  endfacet
  facet normal -0 0 1
    outer loop
      vertex 108.2 1.8 60
      vertex 110 0 60
      vertex 108.2 62.2 60
    endloop
  endfacet
  facet normal -0 0 1
    outer loop
      vertex 1.8 1.8 60
      vertex 110 0 60
      vertex 108.2 1.8 60
    endloop
  endfacet
  facet normal 0 0 1
    outer loop
      vertex 1.8 1.8 60
      vertex 0 0 60
      vertex 110 0 60
    endloop
  endfacet
  facet normal 0 0 1
    outer loop
      vertex 0 0 60
      vertex 1.8 1.8 60
      vertex 0 64 60
    endloop
  endfacet
  facet normal 0 1 -0
    outer loop
      vertex 110 64 0
      vertex 0 64 60
      vertex 110 64 60
    endloop
  endfacet
  facet normal 0 1 0
    outer loop
      vertex 0 64 60
      vertex 110 64 0
      vertex 0 64 0
    endloop
  endfacet
  facet normal 0 -1 0
    outer loop
      vertex 0 0 0
      vertex 110 0 60
      vertex 0 0 60
    endloop
  endfacet
  facet normal 0 -1 -0
    outer loop
      vertex 110 0 60
      vertex 0 0 0
      vertex 110 0 0
    endloop
  endfacet
  facet normal 1 0 0
    outer loop
      vertex 1.8 57 40
      vertex 1.8 62.2 60
      vertex 1.8 57 47
    endloop
  endfacet
  facet normal 1 0 0
    outer loop
      vertex 1.8 62.2 60
      vertex 1.8 50 47
      vertex 1.8 57 47
    endloop
  endfacet
  facet normal 1 0 0
    outer loop
      vertex 1.8 1.8 60
      vertex 1.8 50 40
      vertex 1.8 50 47
    endloop
  endfacet
  facet normal 1 0 0
    outer loop
      vertex 1.8 50 40
      vertex 1.8 19 12
      vertex 1.8 42 3.8
    endloop
  endfacet
  facet normal 1 -0 0
    outer loop
      vertex 1.8 19 9
      vertex 1.8 30 3.8
      vertex 1.8 19 12
    endloop
  endfacet
  facet normal 1 0 0
    outer loop
      vertex 1.8 42 3.8
      vertex 1.8 19 12
      vertex 1.8 30 3.8
    endloop
  endfacet
  facet normal 1 0 0
    outer loop
      vertex 1.8 50 40
      vertex 1.8 1.8 60
      vertex 1.8 19 12
    endloop
  endfacet
  facet normal 1 -0 0
    outer loop
      vertex 1.8 1.8 60
      vertex 1.8 50 47
      vertex 1.8 62.2 60
    endloop
  endfacet
  facet normal 1 0 0
    outer loop
      vertex 1.8 1.8 1.8
      vertex 1.8 12 12
      vertex 1.8 1.8 60
    endloop
  endfacet
  facet normal 1 0 0
    outer loop
      vertex 1.8 19 12
      vertex 1.8 1.8 60
      vertex 1.8 12 12
    endloop
  endfacet
  facet normal 1 0 0
    outer loop
      vertex 1.8 62.2 60
      vertex 1.8 57 40
      vertex 1.8 62.2 1.8
    endloop
  endfacet
  facet normal 1 0 0
    outer loop
      vertex 1.8 42 3.8
      vertex 1.8 57 40
      vertex 1.8 50 40
    endloop
  endfacet
  facet normal 1 0 0
    outer loop
      vertex 1.8 57 40
      vertex 1.8 42 3.8
      vertex 1.8 62.2 1.8
    endloop
  endfacet
  facet normal 1 0 0
    outer loop
      vertex 1.8 62.2 1.8
      vertex 1.8 42 3.8
      vertex 1.8 42 1.8
    endloop
  endfacet
  facet normal 1 0 0
    outer loop
      vertex 1.8 30 3.8
      vertex 1.8 19 9
      vertex 1.8 30 1.8
    endloop
  endfacet
  facet normal 1 0 0
    outer loop
      vertex 1.8 1.8 1.8
      vertex 1.8 19 9
      vertex 1.8 12 9
    endloop
  endfacet
  facet normal 1 0 0
    outer loop
      vertex 1.8 19 9
      vertex 1.8 1.8 1.8
      vertex 1.8 30 1.8
    endloop
  endfacet
  facet normal 1 0 0
    outer loop
      vertex 1.8 12 12
      vertex 1.8 1.8 1.8
      vertex 1.8 12 9
    endloop
  endfacet
  facet normal -1 0 0
    outer loop
      vertex 108.2 1.8 1.8
      vertex 108.2 62.2 60
      vertex 108.2 62.2 1.8
    endloop
  endfacet
  facet normal -1 -0 0
    outer loop
      vertex 108.2 62.2 60
      vertex 108.2 1.8 1.8
      vertex 108.2 1.8 60
    endloop
  endfacet
  facet normal -0 0 1
    outer loop
      vertex 0 42 1.8
      vertex 1.8 30 1.8
      vertex 1.8 42 1.8
    endloop
  endfacet
  facet normal 0 0 1
    outer loop
      vertex 1.8 30 1.8
      vertex 0 42 1.8
      vertex 0 30 1.8
    endloop
  endfacet
  facet normal 0 0 1
    outer loop
      vertex 1.8 42 1.8
      vertex 108.2 62.2 1.8
      vertex 1.8 62.2 1.8
    endloop
  endfacet
  facet normal 0 0 1
    outer loop
      vertex 1.8 30 1.8
      vertex 108.2 62.2 1.8
      vertex 1.8 42 1.8
    endloop
  endfacet
  facet normal 0 0 1
    outer loop
      vertex 108.2 62.2 1.8
      vertex 1.8 30 1.8
      vertex 108.2 1.8 1.8
    endloop
  endfacet
  facet normal 0 0 1
    outer loop
      vertex 108.2 1.8 1.8
      vertex 1.8 30 1.8
      vertex 1.8 1.8 1.8
    endloop
  endfacet
  facet normal 0 -1 0
    outer loop
      vertex 1.8 62.2 1.8
      vertex 108.2 62.2 60
      vertex 1.8 62.2 60
    endloop
  endfacet
  facet normal 0 -1 -0
    outer loop
      vertex 108.2 62.2 60
      vertex 1.8 62.2 1.8
      vertex 108.2 62.2 1.8
    endloop
  endfacet
  facet normal 0 1 -0
    outer loop
      vertex 108.2 1.8 1.8
      vertex 1.8 1.8 60
      vertex 108.2 1.8 60
    endloop
  endfacet
  facet normal 0 1 0
    outer loop
      vertex 1.8 1.8 60
      vertex 108.2 1.8 1.8
      vertex 1.8 1.8 1.8
    endloop
  endfacet
  facet normal -0 0 1
    outer loop
      vertex 0 19 9
      vertex 1.8 12 9
      vertex 1.8 19 9
    endloop
  endfacet
  facet normal 0 0 1
    outer loop
      vertex 1.8 12 9
      vertex 0 19 9
      vertex 0 12 9
    endloop
  endfacet
  facet normal 0 0 -1
    outer loop
      vertex 0 12 12
      vertex 1.8 19 12
      vertex 1.8 12 12
    endloop
  endfacet
  facet normal -0 0 -1
    outer loop
      vertex 1.8 19 12
      vertex 0 12 12
      vertex 0 19 12
    endloop
  endfacet
  facet normal 0 -1 0
    outer loop
      vertex 0 19 9
      vertex 1.8 19 12
      vertex 0 19 12
    endloop
  endfacet
  facet normal 0 -1 -0
    outer loop
      vertex 1.8 19 12
      vertex 0 19 9
      vertex 1.8 19 9
    endloop
  endfacet
  facet normal 0 1 -0
    outer loop
      vertex 1.8 12 9
      vertex 0 12 12
      vertex 1.8 12 12
    endloop
  endfacet
  facet normal 0 1 0
    outer loop
      vertex 0 12 12
      vertex 1.8 12 9
      vertex 0 12 9
    endloop
  endfacet
  facet normal 0 0 -1
    outer loop
      vertex 0 30 3.8
      vertex 1.8 42 3.8
      vertex 1.8 30 3.8
    endloop
  endfacet
  facet normal -0 0 -1
    outer loop
      vertex 1.8 42 3.8
      vertex 0 30 3.8
      vertex 0 42 3.8
    endloop
  endfacet
  facet normal 0 -1 0
    outer loop
      vertex 0 42 1.8
      vertex 1.8 42 3.8
      vertex 0 42 3.8
    endloop
  endfacet
  facet normal 0 -1 -0
    outer loop
      vertex 1.8 42 3.8
      vertex 0 42 1.8
      vertex 1.8 42 1.8
    endloop
  endfacet
  facet normal 0 1 -0
    outer loop
      vertex 1.8 30 1.8
      vertex 0 30 3.8
      vertex 1.8 30 3.8
    endloop
  endfacet
  facet normal 0 1 0
    outer loop
      vertex 0 30 3.8
      vertex 1.8 30 1.8
      vertex 0 30 1.8
    endloop
  endfacet
  facet normal -0 0 1
    outer loop
      vertex 0 57 40
      vertex 1.8 50 40
      vertex 1.8 57 40
    endloop
  endfacet
  facet normal 0 0 1
    outer loop
      vertex 1.8 50 40
      vertex 0 57 40
      vertex 0 50 40
    endloop
  endfacet
  facet normal 0 0 -1
    outer loop
      vertex 0 50 47
      vertex 1.8 57 47
      vertex 1.8 50 47
    endloop
  endfacet
  facet normal -0 0 -1
    outer loop
      vertex 1.8 57 47
      vertex 0 50 47
      vertex 0 57 47
    endloop
  endfacet
  facet normal 0 -1 0
    outer loop
      vertex 0 57 40
      vertex 1.8 57 47
      vertex 0 57 47
    endloop
  endfacet
  facet normal 0 -1 -0
    outer loop
      vertex 1.8 57 47
      vertex 0 57 40
      vertex 1.8 57 40
    endloop
  endfacet
  facet normal 0 1 -0
    outer loop
      vertex 1.8 50 40
      vertex 0 50 47
      vertex 1.8 50 47
    endloop
  endfacet
  facet normal 0 1 0
    outer loop
      vertex 0 50 47
      vertex 1.8 50 40
      vertex 0 50 40
    endloop
  endfacet
endsolid OpenSCAD_Model
