solid OpenSCAD_Model
  facet normal -1 0 0
    outer loop
      vertex 0 5 58
      vertex 0 9 0
      vertex 0 5 4
    endloop
  endfacet
  facet normal -1 0 0
    outer loop
      vertex 0 0 0
      vertex 0 5 4
      vertex 0 9 0
    endloop
  endfacet
  facet normal -1 -0 0
    outer loop
      vertex 0 5 4
      vertex 0 0 0
      vertex 0 0 4
    endloop
  endfacet
  facet normal -1 0 0
    outer loop
      vertex 0 9 0
      vertex 0 5 58
      vertex 0 9 65
    endloop
  endfacet
  facet normal -1 0 0
    outer loop
      vertex 0 0 65
      vertex 0 5 58
      vertex 0 0 58
    endloop
  endfacet
  facet normal -1 0 0
    outer loop
      vertex 0 5 58
      vertex 0 0 65
      vertex 0 9 65
    endloop
  endfacet
  facet normal -0 0 1
    outer loop
      vertex 0 9 65
      vertex 20 0 65
      vertex 20 9 65
    endloop
  endfacet
  facet normal 0 0 1
    outer loop
      vertex 20 0 65
      vertex 0 9 65
      vertex 0 0 65
    endloop
  endfacet
  facet normal 1 0 0
    outer loop
      vertex 20 9 65
      vertex 20 5 58
      vertex 20 9 0
    endloop
  endfacet
  facet normal 1 -0 0
    outer loop
      vertex 20 0 65
      vertex 20 5 58
      vertex 20 9 65
    endloop
  endfacet
  facet normal 1 0 0
    outer loop
      vertex 20 5 58
      vertex 20 0 65
      vertex 20 0 58
    endloop
  endfacet
  facet normal 1 -0 0
    outer loop
      vertex 20 5 4
      vertex 20 9 0
      vertex 20 5 58
    endloop
  endfacet
  facet normal 1 0 0
    outer loop
      vertex 20 0 0
      vertex 20 5 4
      vertex 20 0 4
    endloop
  endfacet
  facet normal 1 0 0
    outer loop
      vertex 20 5 4
      vertex 20 0 0
      vertex 20 9 0
    endloop
  endfacet
  facet normal 0 0 -1
    outer loop
      vertex 0 0 0
      vertex 20 9 0
      vertex 20 0 0
    endloop
  endfacet
  facet normal -0 0 -1
    outer loop
      vertex 20 9 0
      vertex 0 0 0
      vertex 0 9 0
    endloop
  endfacet
  facet normal 0 -1 0
    outer loop
      vertex 0 0 58
      vertex 20 0 65
      vertex 0 0 65
    endloop
  endfacet
  facet normal 0 -1 -0
    outer loop
      vertex 20 0 65
      vertex 0 0 58
      vertex 20 0 58
    endloop
  endfacet
  facet normal 0 -1 0
    outer loop
      vertex 0 0 0
      vertex 20 0 4
      vertex 0 0 4
    endloop
  endfacet
  facet normal 0 -1 -0
    outer loop
      vertex 20 0 4
      vertex 0 0 0
      vertex 20 0 0
    endloop
  endfacet
  facet normal 0 1 -0
    outer loop
      vertex 20 9 0
      vertex 0 9 65
      vertex 20 9 65
    endloop
  endfacet
  facet normal 0 1 0
    outer loop
      vertex 0 9 65
      vertex 20 9 0
      vertex 0 9 0
    endloop
  endfacet
  facet normal 0 0 -1
    outer loop
      vertex 0 0 58
      vertex 20 5 58
      vertex 20 0 58
    endloop
  endfacet
  facet normal -0 0 -1
    outer loop
      vertex 20 5 58
      vertex 0 0 58
      vertex 0 5 58
    endloop
  endfacet
  facet normal 0 -1 0
    outer loop
      vertex 0 5 4
      vertex 20 5 58
      vertex 0 5 58
    endloop
  endfacet
  facet normal 0 -1 -0
    outer loop
      vertex 20 5 58
      vertex 0 5 4
      vertex 20 5 4
    endloop
  endfacet
  facet normal -0 0 1
    outer loop
      vertex 0 5 4
      vertex 20 0 4
      vertex 20 5 4
    endloop
  endfacet
  facet normal 0 0 1
    outer loop
      vertex 20 0 4
      vertex 0 5 4
      vertex 0 0 4
    endloop
  endfacet
endsolid OpenSCAD_Model
