solid OpenSCAD_Model
  facet normal 0 0 -1
    outer loop
      vertex 65.102 30.8793 0
      vertex 126.883 11.5107 0
      vertex 126.275 4.07481 0
    endloop
  endfacet
  facet normal 0 0 -1
    outer loop
      vertex 126.883 11.5107 0
      vertex 65.102 30.8793 0
      vertex 126.883 13.333 0
    endloop
  endfacet
  facet normal 0 0 -1
    outer loop
      vertex 65.102 30.8793 0
      vertex 126.275 4.07481 0
      vertex 124.691 -2.56093 0
    endloop
  endfacet
  facet normal 0 0 -1
    outer loop
      vertex 126.883 13.333 0
      vertex 65.102 30.8793 0
      vertex 125.953 23.3654 0
    endloop
  endfacet
  facet normal 0 0 -1
    outer loop
      vertex 65.102 30.8793 0
      vertex 124.691 -2.56093 0
      vertex 122.258 -8.48439 0
    endloop
  endfacet
  facet normal 0 0 -1
    outer loop
      vertex 65.102 30.8793 0
      vertex 122.258 -8.48439 0
      vertex 119.106 -13.7871 0
    endloop
  endfacet
  facet normal 0 -0 -1
    outer loop
      vertex 84.9186 47.0528 0
      vertex 125.953 23.3654 0
      vertex 65.102 30.8793 0
    endloop
  endfacet
  facet normal 0 0 -1
    outer loop
      vertex 65.102 30.8793 0
      vertex 119.106 -13.7871 0
      vertex 115.369 -18.5589 0
    endloop
  endfacet
  facet normal -0 -0 -1
    outer loop
      vertex 113.417 42.7379 0
      vertex 125.953 23.3654 0
      vertex 84.9186 47.0528 0
    endloop
  endfacet
  facet normal 0 0 -1
    outer loop
      vertex 125.953 23.3654 0
      vertex 113.417 42.7379 0
      vertex 123.177 31.5667 0
    endloop
  endfacet
  facet normal 0 0 -1
    outer loop
      vertex 65.102 30.8793 0
      vertex 115.369 -18.5589 0
      vertex 111.172 -22.8875 0
    endloop
  endfacet
  facet normal 0 0 -1
    outer loop
      vertex 65.102 30.8793 0
      vertex 111.172 -22.8875 0
      vertex 106.65 -26.8682 0
    endloop
  endfacet
  facet normal 0 0 -1
    outer loop
      vertex 123.177 31.5667 0
      vertex 113.417 42.7379 0
      vertex 118.888 38.0028 0
    endloop
  endfacet
  facet normal 0 0 -1
    outer loop
      vertex 65.102 30.8793 0
      vertex 106.65 -26.8682 0
      vertex 105.225 -28.0044 0
    endloop
  endfacet
  facet normal 0 -0 -1
    outer loop
      vertex 91.8015 48.4957 0
      vertex 113.417 42.7379 0
      vertex 84.9186 47.0528 0
    endloop
  endfacet
  facet normal -0 -0 -1
    outer loop
      vertex 105.67 46.9686 0
      vertex 113.417 42.7379 0
      vertex 98.8291 48.4884 0
    endloop
  endfacet
  facet normal 0 0 -1
    outer loop
      vertex 65.102 30.8793 0
      vertex 105.225 -28.0044 0
      vertex 87.4684 -41.4513 0
    endloop
  endfacet
  facet normal 0 0 -1
    outer loop
      vertex 113.417 42.7379 0
      vertex 105.67 46.9686 0
      vertex 111.993 43.8741 0
    endloop
  endfacet
  facet normal -0 -0 -1
    outer loop
      vertex 98.8291 48.4884 0
      vertex 113.417 42.7379 0
      vertex 91.8015 48.4957 0
    endloop
  endfacet
  facet normal 0 -0 -1
    outer loop
      vertex 76.7351 43.8184 0
      vertex 84.9186 47.0528 0
      vertex 65.102 30.8793 0
    endloop
  endfacet
  facet normal 0 0 -1
    outer loop
      vertex 46.9036 -45.3839 0
      vertex 87.4684 -41.4513 0
      vertex 71.8231 -55.44 0
    endloop
  endfacet
  facet normal 0 0 -1
    outer loop
      vertex 84.9186 47.0528 0
      vertex 76.7351 43.8184 0
      vertex 83.142 46.6473 0
    endloop
  endfacet
  facet normal 0 0 -1
    outer loop
      vertex 58.7596 -56.1707 0
      vertex 71.8231 -55.44 0
      vertex 66.892 -60.9111 0
    endloop
  endfacet
  facet normal 0 0 -1
    outer loop
      vertex 76.7351 43.8184 0
      vertex 65.102 30.8793 0
      vertex 71.1357 39.6674 0
    endloop
  endfacet
  facet normal 0 0 -1
    outer loop
      vertex 71.1357 39.6674 0
      vertex 65.8865 32.6147 0
      vertex 66.6771 34.2566 0
    endloop
  endfacet
  facet normal 0 0 -1
    outer loop
      vertex 63.6907 -61.6418 0
      vertex 66.892 -60.9111 0
      vertex 65.4673 -62.0473 0
    endloop
  endfacet
  facet normal 0 0 -1
    outer loop
      vertex 71.1357 39.6674 0
      vertex 65.102 30.8793 0
      vertex 65.8865 32.6147 0
    endloop
  endfacet
  facet normal 0 0 -1
    outer loop
      vertex 46.9036 -45.3839 0
      vertex 71.8231 -55.44 0
      vertex 58.7596 -56.1707 0
    endloop
  endfacet
  facet normal -0 0 -1
    outer loop
      vertex 66.892 -60.9111 0
      vertex 63.6907 -61.6418 0
      vertex 58.7596 -56.1707 0
    endloop
  endfacet
  facet normal 0 0 -1
    outer loop
      vertex 42.6958 -41.8079 0
      vertex 87.4684 -41.4513 0
      vertex 46.9036 -45.3839 0
    endloop
  endfacet
  facet normal -0 0 -1
    outer loop
      vertex 87.4684 -41.4513 0
      vertex 42.6958 -41.8079 0
      vertex 65.102 30.8793 0
    endloop
  endfacet
  facet normal 0 0 -1
    outer loop
      vertex 23.933 -27.5989 0
      vertex 65.102 30.8793 0
      vertex 42.6958 -41.8079 0
    endloop
  endfacet
  facet normal 0 0 -1
    outer loop
      vertex 19.4103 -23.6182 0
      vertex 65.102 30.8793 0
      vertex 23.933 -27.5989 0
    endloop
  endfacet
  facet normal 0 0 -1
    outer loop
      vertex 15.2135 -19.2896 0
      vertex 65.102 30.8793 0
      vertex 19.4103 -23.6182 0
    endloop
  endfacet
  facet normal 0 0 -1
    outer loop
      vertex 11.4763 -14.5178 0
      vertex 65.102 30.8793 0
      vertex 15.2135 -19.2896 0
    endloop
  endfacet
  facet normal 0 0 -1
    outer loop
      vertex 8.32507 -9.21509 0
      vertex 65.102 30.8793 0
      vertex 11.4763 -14.5178 0
    endloop
  endfacet
  facet normal 0 0 -1
    outer loop
      vertex 7.53441 -7.57324 0
      vertex 65.102 30.8793 0
      vertex 8.32507 -9.21509 0
    endloop
  endfacet
  facet normal 0 0 -1
    outer loop
      vertex 5.10094 -1.64978 0
      vertex 65.102 30.8793 0
      vertex 7.53441 -7.57324 0
    endloop
  endfacet
  facet normal 0 0 -1
    outer loop
      vertex 3.51707 4.98596 0
      vertex 65.102 30.8793 0
      vertex 5.10094 -1.64978 0
    endloop
  endfacet
  facet normal 0 0 -1
    outer loop
      vertex 2.90916 12.4219 0
      vertex 65.102 30.8793 0
      vertex 3.51707 4.98596 0
    endloop
  endfacet
  facet normal 0 -0 -1
    outer loop
      vertex 3.83934 22.4542 0
      vertex 65.102 30.8793 0
      vertex 2.90916 12.4219 0
    endloop
  endfacet
  facet normal -0 -0 -1
    outer loop
      vertex 59.447 38.9367 0
      vertex 65.102 30.8793 0
      vertex 58.0222 40.0729 0
    endloop
  endfacet
  facet normal 0 0 -1
    outer loop
      vertex 65.102 30.8793 0
      vertex 59.447 38.9367 0
      vertex 63.9056 33.5259 0
    endloop
  endfacet
  facet normal -0 0 -1
    outer loop
      vertex 65.102 30.8793 0
      vertex 3.83934 22.4542 0
      vertex 58.0222 40.0729 0
    endloop
  endfacet
  facet normal -0 0 -1
    outer loop
      vertex 58.0222 40.0729 0
      vertex 3.83934 22.4542 0
      vertex 52.4229 44.2239 0
    endloop
  endfacet
  facet normal -0 0 -1
    outer loop
      vertex 46.016 47.0528 0
      vertex 3.83934 22.4542 0
      vertex 39.1331 48.4957 0
    endloop
  endfacet
  facet normal 0 0 -1
    outer loop
      vertex 39.1331 48.4957 0
      vertex 3.83934 22.4542 0
      vertex 32.1055 48.4884 0
    endloop
  endfacet
  facet normal 0 0 -1
    outer loop
      vertex 32.1055 48.4884 0
      vertex 3.83934 22.4542 0
      vertex 25.2646 46.9686 0
    endloop
  endfacet
  facet normal 0 -0 -1
    outer loop
      vertex 6.61522 30.6555 0
      vertex 25.2646 46.9686 0
      vertex 3.83934 22.4542 0
    endloop
  endfacet
  facet normal 0 -0 -1
    outer loop
      vertex 7.40588 32.2974 0
      vertex 25.2646 46.9686 0
      vertex 6.61522 30.6555 0
    endloop
  endfacet
  facet normal -0 0 -1
    outer loop
      vertex 52.4229 44.2239 0
      vertex 3.83934 22.4542 0
      vertex 46.016 47.0528 0
    endloop
  endfacet
  facet normal 0 0 -1
    outer loop
      vertex 25.2646 46.9686 0
      vertex 17.1654 43.4686 0
      vertex 23.488 46.5631 0
    endloop
  endfacet
  facet normal 0 0 -1
    outer loop
      vertex 25.2646 46.9686 0
      vertex 11.6942 38.7335 0
      vertex 17.1654 43.4686 0
    endloop
  endfacet
  facet normal 0 -0 -1
    outer loop
      vertex 11.6942 38.7335 0
      vertex 25.2646 46.9686 0
      vertex 7.40588 32.2974 0
    endloop
  endfacet
  facet normal 0 0 1
    outer loop
      vertex 65 26.0083 2.1
      vertex 124.991 12.4219 2.1
      vertex 124.061 22.4542 2.1
    endloop
  endfacet
  facet normal 0 0 1
    outer loop
      vertex 124.991 12.4219 2.1
      vertex 65 26.0083 2.1
      vertex 124.383 4.98596 2.1
    endloop
  endfacet
  facet normal 0 0 1
    outer loop
      vertex 91.3342 46.4484 2.1
      vertex 124.061 22.4542 2.1
      vertex 121.285 30.6555 2.1
    endloop
  endfacet
  facet normal 0 0 1
    outer loop
      vertex 124.383 4.98596 2.1
      vertex 65 26.0083 2.1
      vertex 122.799 -1.64978 2.1
    endloop
  endfacet
  facet normal 0 0 1
    outer loop
      vertex 122.799 -1.64978 2.1
      vertex 65 26.0083 2.1
      vertex 120.366 -7.57324 2.1
    endloop
  endfacet
  facet normal 0 0 1
    outer loop
      vertex 105.203 44.9213 2.1
      vertex 121.285 30.6555 2.1
      vertex 116.996 37.0917 2.1
    endloop
  endfacet
  facet normal 0 0 1
    outer loop
      vertex 120.366 -7.57324 2.1
      vertex 65 26.0083 2.1
      vertex 117.214 -12.876 2.1
    endloop
  endfacet
  facet normal 0 0 1
    outer loop
      vertex 105.203 44.9213 2.1
      vertex 116.996 37.0917 2.1
      vertex 111.525 41.8268 2.1
    endloop
  endfacet
  facet normal 0 0 1
    outer loop
      vertex 117.214 -12.876 2.1
      vertex 65 26.0083 2.1
      vertex 113.477 -17.6477 2.1
    endloop
  endfacet
  facet normal 0 0 1
    outer loop
      vertex 121.285 30.6555 2.1
      vertex 105.203 44.9213 2.1
      vertex 98.3618 46.441 2.1
    endloop
  endfacet
  facet normal 0 0 1
    outer loop
      vertex 113.477 -17.6477 2.1
      vertex 65 26.0083 2.1
      vertex 109.28 -21.9763 2.1
    endloop
  endfacet
  facet normal 0 0 1
    outer loop
      vertex 121.285 30.6555 2.1
      vertex 98.3618 46.441 2.1
      vertex 91.3342 46.4484 2.1
    endloop
  endfacet
  facet normal 0 0 1
    outer loop
      vertex 124.061 22.4542 2.1
      vertex 91.3342 46.4484 2.1
      vertex 65 26.0083 2.1
    endloop
  endfacet
  facet normal 0 0 1
    outer loop
      vertex 109.28 -21.9763 2.1
      vertex 65 26.0083 2.1
      vertex 104.758 -25.957 2.1
    endloop
  endfacet
  facet normal 0 0 1
    outer loop
      vertex 65 26.0083 2.1
      vertex 91.3342 46.4484 2.1
      vertex 84.4513 45.0055 2.1
    endloop
  endfacet
  facet normal 0 0 1
    outer loop
      vertex 65 26.0083 2.1
      vertex 84.4513 45.0055 2.1
      vertex 78.0444 42.1765 2.1
    endloop
  endfacet
  facet normal 0 0 1
    outer loop
      vertex 65 26.0083 2.1
      vertex 78.0444 42.1765 2.1
      vertex 72.4451 38.0255 2.1
    endloop
  endfacet
  facet normal 0 0 1
    outer loop
      vertex 104.758 -25.957 2.1
      vertex 65 26.0083 2.1
      vertex 85.9949 -40.166 2.1
    endloop
  endfacet
  facet normal 0 0 1
    outer loop
      vertex 65 26.0083 2.1
      vertex 72.4451 38.0255 2.1
      vertex 67.9865 32.6147 2.1
    endloop
  endfacet
  facet normal 0 0 1
    outer loop
      vertex 44.0051 -40.166 2.1
      vertex 85.9949 -40.166 2.1
      vertex 65 26.0083 2.1
    endloop
  endfacet
  facet normal 0 0 1
    outer loop
      vertex 85.9949 -40.166 2.1
      vertex 48.2129 -43.7421 2.1
      vertex 69.931 -54.5288 2.1
    endloop
  endfacet
  facet normal 0 0 1
    outer loop
      vertex 57.5549 38.0255 2.1
      vertex 65 26.0083 2.1
      vertex 62.0135 32.6147 2.1
    endloop
  endfacet
  facet normal 0 0 1
    outer loop
      vertex 69.931 -54.5288 2.1
      vertex 60.069 -54.5288 2.1
      vertex 65 -60 2.1
    endloop
  endfacet
  facet normal 0 0 1
    outer loop
      vertex 65 26.0083 2.1
      vertex 57.5549 38.0255 2.1
      vertex 51.9556 42.1765 2.1
    endloop
  endfacet
  facet normal 0 0 1
    outer loop
      vertex 45.5487 45.0055 2.1
      vertex 65 26.0083 2.1
      vertex 51.9556 42.1765 2.1
    endloop
  endfacet
  facet normal 0 0 1
    outer loop
      vertex 69.931 -54.5288 2.1
      vertex 48.2129 -43.7421 2.1
      vertex 60.069 -54.5288 2.1
    endloop
  endfacet
  facet normal 0 0 1
    outer loop
      vertex 65 26.0083 2.1
      vertex 45.5487 45.0055 2.1
      vertex 5.93933 22.4542 2.1
    endloop
  endfacet
  facet normal 0 0 1
    outer loop
      vertex 85.9949 -40.166 2.1
      vertex 44.0051 -40.166 2.1
      vertex 48.2129 -43.7421 2.1
    endloop
  endfacet
  facet normal 0 0 1
    outer loop
      vertex 5.93933 22.4542 2.1
      vertex 45.5487 45.0055 2.1
      vertex 38.6658 46.4484 2.1
    endloop
  endfacet
  facet normal 0 0 1
    outer loop
      vertex 5.93933 22.4542 2.1
      vertex 38.6658 46.4484 2.1
      vertex 31.6382 46.441 2.1
    endloop
  endfacet
  facet normal 0 0 1
    outer loop
      vertex 65 26.0083 2.1
      vertex 25.2423 -25.957 2.1
      vertex 44.0051 -40.166 2.1
    endloop
  endfacet
  facet normal 0 0 1
    outer loop
      vertex 8.71521 30.6555 2.1
      vertex 31.6382 46.441 2.1
      vertex 24.7974 44.9213 2.1
    endloop
  endfacet
  facet normal 0 0 1
    outer loop
      vertex 65 26.0083 2.1
      vertex 20.7196 -21.9763 2.1
      vertex 25.2423 -25.957 2.1
    endloop
  endfacet
  facet normal 0 0 1
    outer loop
      vertex 8.71521 30.6555 2.1
      vertex 24.7974 44.9213 2.1
      vertex 18.4747 41.8268 2.1
    endloop
  endfacet
  facet normal 0 0 1
    outer loop
      vertex 65 26.0083 2.1
      vertex 16.5228 -17.6477 2.1
      vertex 20.7196 -21.9763 2.1
    endloop
  endfacet
  facet normal 0 0 1
    outer loop
      vertex 8.71521 30.6555 2.1
      vertex 18.4747 41.8268 2.1
      vertex 13.0035 37.0917 2.1
    endloop
  endfacet
  facet normal 0 0 1
    outer loop
      vertex 65 26.0083 2.1
      vertex 12.7856 -12.876 2.1
      vertex 16.5228 -17.6477 2.1
    endloop
  endfacet
  facet normal 0 0 1
    outer loop
      vertex 65 26.0083 2.1
      vertex 9.6344 -7.57324 2.1
      vertex 12.7856 -12.876 2.1
    endloop
  endfacet
  facet normal 0 0 1
    outer loop
      vertex 31.6382 46.441 2.1
      vertex 8.71521 30.6555 2.1
      vertex 5.93933 22.4542 2.1
    endloop
  endfacet
  facet normal 0 0 1
    outer loop
      vertex 65 26.0083 2.1
      vertex 5.61707 4.98596 2.1
      vertex 7.20093 -1.64978 2.1
    endloop
  endfacet
  facet normal 0 0 1
    outer loop
      vertex 65 26.0083 2.1
      vertex 5.93933 22.4542 2.1
      vertex 5.00916 12.4219 2.1
    endloop
  endfacet
  facet normal 0 0 1
    outer loop
      vertex 65 26.0083 2.1
      vertex 7.20093 -1.64978 2.1
      vertex 9.6344 -7.57324 2.1
    endloop
  endfacet
  facet normal 0 0 1
    outer loop
      vertex 65 26.0083 2.1
      vertex 5.00916 12.4219 2.1
      vertex 5.61707 4.98596 2.1
    endloop
  endfacet
  facet normal 0 0 1
    outer loop
      vertex 126.043 13.186 5
      vertex 124.061 22.4542 5
      vertex 124.991 12.4219 5
    endloop
  endfacet
  facet normal -0 0 1
    outer loop
      vertex 121.285 30.6555 5
      vertex 125.112 23.2183 5
      vertex 122.337 31.4196 5
    endloop
  endfacet
  facet normal 0 0 1
    outer loop
      vertex 125.112 23.2183 5
      vertex 121.285 30.6555 5
      vertex 124.061 22.4542 5
    endloop
  endfacet
  facet normal -0 0 1
    outer loop
      vertex 116.996 37.0917 5
      vertex 122.337 31.4196 5
      vertex 118.048 37.8558 5
    endloop
  endfacet
  facet normal 0 0 1
    outer loop
      vertex 122.337 31.4196 5
      vertex 116.996 37.0917 5
      vertex 121.285 30.6555 5
    endloop
  endfacet
  facet normal 0 0 1
    outer loop
      vertex 112.577 42.5909 5
      vertex 116.996 37.0917 5
      vertex 118.048 37.8558 5
    endloop
  endfacet
  facet normal 0 0 1
    outer loop
      vertex 112.577 42.5909 5
      vertex 111.525 41.8268 5
      vertex 116.996 37.0917 5
    endloop
  endfacet
  facet normal 0 0 1
    outer loop
      vertex 106.254 45.6854 5
      vertex 111.525 41.8268 5
      vertex 112.577 42.5909 5
    endloop
  endfacet
  facet normal 0 0 1
    outer loop
      vertex 106.254 45.6854 5
      vertex 105.203 44.9213 5
      vertex 111.525 41.8268 5
    endloop
  endfacet
  facet normal 0 0 1
    outer loop
      vertex 104.801 46.1576 5
      vertex 105.203 44.9213 5
      vertex 106.254 45.6854 5
    endloop
  endfacet
  facet normal 0 0 1
    outer loop
      vertex 104.801 46.1576 5
      vertex 98.3618 46.441 5
      vertex 105.203 44.9213 5
    endloop
  endfacet
  facet normal 0 0 1
    outer loop
      vertex 97.9601 47.6774 5
      vertex 98.3618 46.441 5
      vertex 104.801 46.1576 5
    endloop
  endfacet
  facet normal 0 0 1
    outer loop
      vertex 97.9601 47.6774 5
      vertex 91.3342 46.4484 5
      vertex 98.3618 46.441 5
    endloop
  endfacet
  facet normal 0 0 1
    outer loop
      vertex 90.9325 47.6847 5
      vertex 91.3342 46.4484 5
      vertex 97.9601 47.6774 5
    endloop
  endfacet
  facet normal 0 0 1
    outer loop
      vertex 90.9325 47.6847 5
      vertex 84.4513 45.0055 5
      vertex 91.3342 46.4484 5
    endloop
  endfacet
  facet normal -0 0 1
    outer loop
      vertex 84.0496 46.2419 5
      vertex 84.4513 45.0055 5
      vertex 90.9325 47.6847 5
    endloop
  endfacet
  facet normal 0 0 1
    outer loop
      vertex 77.6427 43.4129 5
      vertex 84.4513 45.0055 5
      vertex 84.0496 46.2419 5
    endloop
  endfacet
  facet normal 0 0 1
    outer loop
      vertex 84.4513 45.0055 5
      vertex 77.6427 43.4129 5
      vertex 78.0444 42.1765 5
    endloop
  endfacet
  facet normal 0 0 1
    outer loop
      vertex 72.0434 39.2619 5
      vertex 78.0444 42.1765 5
      vertex 77.6427 43.4129 5
    endloop
  endfacet
  facet normal 0 0 1
    outer loop
      vertex 78.0444 42.1765 5
      vertex 72.0434 39.2619 5
      vertex 72.4451 38.0255 5
    endloop
  endfacet
  facet normal 0 0 1
    outer loop
      vertex 67.5847 33.8511 5
      vertex 72.4451 38.0255 5
      vertex 72.0434 39.2619 5
    endloop
  endfacet
  facet normal 0 0 1
    outer loop
      vertex 72.4451 38.0255 5
      vertex 67.5847 33.8511 5
      vertex 67.9865 32.6147 5
    endloop
  endfacet
  facet normal 0 0 1
    outer loop
      vertex 66.6865 32.6147 5
      vertex 67.9865 32.6147 5
      vertex 67.5847 33.8511 5
    endloop
  endfacet
  facet normal 0 0 1
    outer loop
      vertex 65.0486 28.9915 5
      vertex 67.9865 32.6147 5
      vertex 66.6865 32.6147 5
    endloop
  endfacet
  facet normal -0 0 1
    outer loop
      vertex 65.0486 28.9915 5
      vertex 65 26.0083 5
      vertex 67.9865 32.6147 5
    endloop
  endfacet
  facet normal -0 0 1
    outer loop
      vertex 62.0135 32.6147 5
      vertex 65.0486 28.9915 5
      vertex 63.0653 33.3789 5
    endloop
  endfacet
  facet normal 0 0 1
    outer loop
      vertex 65.0486 28.9915 5
      vertex 62.0135 32.6147 5
      vertex 65 26.0083 5
    endloop
  endfacet
  facet normal 0 0 1
    outer loop
      vertex 58.6066 38.7896 5
      vertex 62.0135 32.6147 5
      vertex 63.0653 33.3789 5
    endloop
  endfacet
  facet normal 0 0 1
    outer loop
      vertex 58.6066 38.7896 5
      vertex 57.5549 38.0255 5
      vertex 62.0135 32.6147 5
    endloop
  endfacet
  facet normal 0 0 1
    outer loop
      vertex 53.0073 42.9406 5
      vertex 57.5549 38.0255 5
      vertex 58.6066 38.7896 5
    endloop
  endfacet
  facet normal 0 0 1
    outer loop
      vertex 53.0073 42.9406 5
      vertex 51.9556 42.1765 5
      vertex 57.5549 38.0255 5
    endloop
  endfacet
  facet normal 0 0 1
    outer loop
      vertex 46.6004 45.7696 5
      vertex 51.9556 42.1765 5
      vertex 53.0073 42.9406 5
    endloop
  endfacet
  facet normal 0 0 1
    outer loop
      vertex 46.6004 45.7696 5
      vertex 45.5487 45.0055 5
      vertex 51.9556 42.1765 5
    endloop
  endfacet
  facet normal 0 0 1
    outer loop
      vertex 45.147 46.2419 5
      vertex 45.5487 45.0055 5
      vertex 46.6004 45.7696 5
    endloop
  endfacet
  facet normal 0 0 1
    outer loop
      vertex 45.147 46.2419 5
      vertex 38.6658 46.4484 5
      vertex 45.5487 45.0055 5
    endloop
  endfacet
  facet normal 0 0 1
    outer loop
      vertex 38.2641 47.6847 5
      vertex 38.6658 46.4484 5
      vertex 45.147 46.2419 5
    endloop
  endfacet
  facet normal 0 0 1
    outer loop
      vertex 38.2641 47.6847 5
      vertex 31.6382 46.441 5
      vertex 38.6658 46.4484 5
    endloop
  endfacet
  facet normal -0 0 1
    outer loop
      vertex 31.2365 47.6774 5
      vertex 31.6382 46.441 5
      vertex 38.2641 47.6847 5
    endloop
  endfacet
  facet normal 0 0 1
    outer loop
      vertex 31.2365 47.6774 5
      vertex 24.7974 44.9213 5
      vertex 31.6382 46.441 5
    endloop
  endfacet
  facet normal -0 0 1
    outer loop
      vertex 24.3956 46.1576 5
      vertex 24.7974 44.9213 5
      vertex 31.2365 47.6774 5
    endloop
  endfacet
  facet normal 0 0 1
    outer loop
      vertex 18.073 43.0631 5
      vertex 24.7974 44.9213 5
      vertex 24.3956 46.1576 5
    endloop
  endfacet
  facet normal 0 0 1
    outer loop
      vertex 24.7974 44.9213 5
      vertex 18.073 43.0631 5
      vertex 18.4747 41.8268 5
    endloop
  endfacet
  facet normal 0 0 1
    outer loop
      vertex 12.6018 38.328 5
      vertex 18.4747 41.8268 5
      vertex 18.073 43.0631 5
    endloop
  endfacet
  facet normal 0 0 1
    outer loop
      vertex 18.4747 41.8268 5
      vertex 12.6018 38.328 5
      vertex 13.0035 37.0917 5
    endloop
  endfacet
  facet normal 0 0 1
    outer loop
      vertex 11.7036 37.0917 5
      vertex 13.0035 37.0917 5
      vertex 12.6018 38.328 5
    endloop
  endfacet
  facet normal -0 0 1
    outer loop
      vertex 11.7036 37.0917 5
      vertex 8.71521 30.6555 5
      vertex 13.0035 37.0917 5
    endloop
  endfacet
  facet normal 0 0 1
    outer loop
      vertex 7.41522 30.6555 5
      vertex 8.71521 30.6555 5
      vertex 11.7036 37.0917 5
    endloop
  endfacet
  facet normal -0 0 1
    outer loop
      vertex 7.41522 30.6555 5
      vertex 5.93933 22.4542 5
      vertex 8.71521 30.6555 5
    endloop
  endfacet
  facet normal 0 0 1
    outer loop
      vertex 5.93933 22.4542 5
      vertex 4.63934 22.4542 5
      vertex 5.00916 12.4219 5
    endloop
  endfacet
  facet normal 0 0 1
    outer loop
      vertex 4.63934 22.4542 5
      vertex 5.93933 22.4542 5
      vertex 7.41522 30.6555 5
    endloop
  endfacet
  facet normal -0 0 1
    outer loop
      vertex 124.991 12.4219 5
      vertex 126.043 11.6578 5
      vertex 126.043 13.186 5
    endloop
  endfacet
  facet normal -0 0 1
    outer loop
      vertex 124.061 22.4542 5
      vertex 126.043 13.186 5
      vertex 125.112 23.2183 5
    endloop
  endfacet
  facet normal 0 0 1
    outer loop
      vertex 124.383 4.98596 5
      vertex 126.043 11.6578 5
      vertex 124.991 12.4219 5
    endloop
  endfacet
  facet normal 0 0 1
    outer loop
      vertex 126.043 11.6578 5
      vertex 124.383 4.98596 5
      vertex 125.435 4.22185 5
    endloop
  endfacet
  facet normal 0 0 1
    outer loop
      vertex 122.799 -1.64978 5
      vertex 125.435 4.22185 5
      vertex 124.383 4.98596 5
    endloop
  endfacet
  facet normal 0 0 1
    outer loop
      vertex 125.435 4.22185 5
      vertex 122.799 -1.64978 5
      vertex 123.851 -2.41389 5
    endloop
  endfacet
  facet normal 0 0 1
    outer loop
      vertex 120.366 -7.57324 5
      vertex 123.851 -2.41389 5
      vertex 122.799 -1.64978 5
    endloop
  endfacet
  facet normal 0 0 1
    outer loop
      vertex 123.851 -2.41389 5
      vertex 120.366 -7.57324 5
      vertex 121.417 -8.33736 5
    endloop
  endfacet
  facet normal 0 0 1
    outer loop
      vertex 117.214 -12.876 5
      vertex 121.417 -8.33736 5
      vertex 120.366 -7.57324 5
    endloop
  endfacet
  facet normal 0 0 1
    outer loop
      vertex 121.417 -8.33736 5
      vertex 117.214 -12.876 5
      vertex 118.266 -13.6401 5
    endloop
  endfacet
  facet normal 0 0 1
    outer loop
      vertex 117.214 -12.876 5
      vertex 114.529 -18.4118 5
      vertex 118.266 -13.6401 5
    endloop
  endfacet
  facet normal -0 0 1
    outer loop
      vertex 113.477 -17.6477 5
      vertex 114.529 -18.4118 5
      vertex 117.214 -12.876 5
    endloop
  endfacet
  facet normal 0 0 1
    outer loop
      vertex 113.477 -17.6477 5
      vertex 110.332 -22.7404 5
      vertex 114.529 -18.4118 5
    endloop
  endfacet
  facet normal -0 0 1
    outer loop
      vertex 109.28 -21.9763 5
      vertex 110.332 -22.7404 5
      vertex 113.477 -17.6477 5
    endloop
  endfacet
  facet normal 0 0 1
    outer loop
      vertex 109.28 -21.9763 5
      vertex 105.809 -26.7211 5
      vertex 110.332 -22.7404 5
    endloop
  endfacet
  facet normal -0 0 1
    outer loop
      vertex 104.758 -25.957 5
      vertex 105.809 -26.7211 5
      vertex 109.28 -21.9763 5
    endloop
  endfacet
  facet normal 0 0 1
    outer loop
      vertex 104.758 -25.957 5
      vertex 87.0466 -40.9301 5
      vertex 105.809 -26.7211 5
    endloop
  endfacet
  facet normal -0 0 1
    outer loop
      vertex 85.9949 -40.166 5
      vertex 87.0466 -40.9301 5
      vertex 104.758 -25.957 5
    endloop
  endfacet
  facet normal 0 0 1
    outer loop
      vertex 85.9949 -40.166 5
      vertex 70.9827 -55.2929 5
      vertex 87.0466 -40.9301 5
    endloop
  endfacet
  facet normal -0 0 1
    outer loop
      vertex 69.931 -54.5288 5
      vertex 70.9827 -55.2929 5
      vertex 85.9949 -40.166 5
    endloop
  endfacet
  facet normal 0 0 1
    outer loop
      vertex 69.931 -54.5288 5
      vertex 66.0517 -60.7641 5
      vertex 70.9827 -55.2929 5
    endloop
  endfacet
  facet normal -0 0 1
    outer loop
      vertex 65 -60 5
      vertex 66.0517 -60.7641 5
      vertex 69.931 -54.5288 5
    endloop
  endfacet
  facet normal 0 0 1
    outer loop
      vertex 65 -60 5
      vertex 64.5983 -61.2364 5
      vertex 66.0517 -60.7641 5
    endloop
  endfacet
  facet normal -0 0 1
    outer loop
      vertex 59.6673 -55.7652 5
      vertex 65 -60 5
      vertex 60.069 -54.5288 5
    endloop
  endfacet
  facet normal 0 0 1
    outer loop
      vertex 65 -60 5
      vertex 59.6673 -55.7652 5
      vertex 64.5983 -61.2364 5
    endloop
  endfacet
  facet normal -0 0 1
    outer loop
      vertex 47.8112 -44.9784 5
      vertex 60.069 -54.5288 5
      vertex 48.2129 -43.7421 5
    endloop
  endfacet
  facet normal 0 0 1
    outer loop
      vertex 60.069 -54.5288 5
      vertex 47.8112 -44.9784 5
      vertex 59.6673 -55.7652 5
    endloop
  endfacet
  facet normal -0 0 1
    outer loop
      vertex 43.6034 -41.4024 5
      vertex 48.2129 -43.7421 5
      vertex 44.0051 -40.166 5
    endloop
  endfacet
  facet normal 0 0 1
    outer loop
      vertex 48.2129 -43.7421 5
      vertex 43.6034 -41.4024 5
      vertex 47.8112 -44.9784 5
    endloop
  endfacet
  facet normal -0 0 1
    outer loop
      vertex 24.8406 -27.1934 5
      vertex 44.0051 -40.166 5
      vertex 25.2423 -25.957 5
    endloop
  endfacet
  facet normal 0 0 1
    outer loop
      vertex 44.0051 -40.166 5
      vertex 24.8406 -27.1934 5
      vertex 43.6034 -41.4024 5
    endloop
  endfacet
  facet normal -0 0 1
    outer loop
      vertex 20.3179 -23.2127 5
      vertex 25.2423 -25.957 5
      vertex 20.7196 -21.9763 5
    endloop
  endfacet
  facet normal 0 0 1
    outer loop
      vertex 25.2423 -25.957 5
      vertex 20.3179 -23.2127 5
      vertex 24.8406 -27.1934 5
    endloop
  endfacet
  facet normal -0 0 1
    outer loop
      vertex 16.1211 -18.8841 5
      vertex 20.7196 -21.9763 5
      vertex 16.5228 -17.6477 5
    endloop
  endfacet
  facet normal 0 0 1
    outer loop
      vertex 20.7196 -21.9763 5
      vertex 16.1211 -18.8841 5
      vertex 20.3179 -23.2127 5
    endloop
  endfacet
  facet normal -0 0 1
    outer loop
      vertex 12.3839 -14.1123 5
      vertex 16.5228 -17.6477 5
      vertex 12.7856 -12.876 5
    endloop
  endfacet
  facet normal 0 0 1
    outer loop
      vertex 16.5228 -17.6477 5
      vertex 12.3839 -14.1123 5
      vertex 16.1211 -18.8841 5
    endloop
  endfacet
  facet normal 0 0 1
    outer loop
      vertex 12.7856 -12.876 5
      vertex 11.4857 -12.876 5
      vertex 12.3839 -14.1123 5
    endloop
  endfacet
  facet normal 0 0 1
    outer loop
      vertex 9.6344 -7.57324 5
      vertex 11.4857 -12.876 5
      vertex 12.7856 -12.876 5
    endloop
  endfacet
  facet normal 0 0 1
    outer loop
      vertex 9.6344 -7.57324 5
      vertex 8.33441 -7.57324 5
      vertex 11.4857 -12.876 5
    endloop
  endfacet
  facet normal 0 0 1
    outer loop
      vertex 7.20093 -1.64978 5
      vertex 8.33441 -7.57324 5
      vertex 9.6344 -7.57324 5
    endloop
  endfacet
  facet normal 0 0 1
    outer loop
      vertex 7.20093 -1.64978 5
      vertex 5.90094 -1.64978 5
      vertex 8.33441 -7.57324 5
    endloop
  endfacet
  facet normal 0 0 1
    outer loop
      vertex 5.61707 4.98596 5
      vertex 5.90094 -1.64978 5
      vertex 7.20093 -1.64978 5
    endloop
  endfacet
  facet normal 0 0 1
    outer loop
      vertex 4.31708 4.98596 5
      vertex 5.61707 4.98596 5
      vertex 5.00916 12.4219 5
    endloop
  endfacet
  facet normal 0 0 1
    outer loop
      vertex 5.61707 4.98596 5
      vertex 4.31708 4.98596 5
      vertex 5.90094 -1.64978 5
    endloop
  endfacet
  facet normal 0 0 1
    outer loop
      vertex 3.70917 12.4219 5
      vertex 5.00916 12.4219 5
      vertex 4.63934 22.4542 5
    endloop
  endfacet
  facet normal 0 0 1
    outer loop
      vertex 5.00916 12.4219 5
      vertex 3.70917 12.4219 5
      vertex 4.31708 4.98596 5
    endloop
  endfacet
  facet normal -0.742814 -0.669498 0
    outer loop
      vertex 63.6907 -61.6418 0
      vertex 58.7596 -56.1707 10
      vertex 58.7596 -56.1707 0
    endloop
  endfacet
  facet normal -0.742814 -0.669498 0
    outer loop
      vertex 58.7596 -56.1707 10
      vertex 63.6907 -61.6418 0
      vertex 63.6907 -61.6418 10
    endloop
  endfacet
  facet normal -0.672967 -0.739672 0
    outer loop
      vertex 46.9036 -45.3839 0
      vertex 58.7596 -56.1707 10
      vertex 46.9036 -45.3839 10
    endloop
  endfacet
  facet normal -0.672967 -0.739672 -0
    outer loop
      vertex 58.7596 -56.1707 10
      vertex 46.9036 -45.3839 0
      vertex 58.7596 -56.1707 0
    endloop
  endfacet
  facet normal -0.647582 -0.761996 0
    outer loop
      vertex 42.6958 -41.8079 0
      vertex 46.9036 -45.3839 10
      vertex 42.6958 -41.8079 10
    endloop
  endfacet
  facet normal -0.647582 -0.761996 -0
    outer loop
      vertex 46.9036 -45.3839 10
      vertex 42.6958 -41.8079 0
      vertex 46.9036 -45.3839 0
    endloop
  endfacet
  facet normal -0.603716 -0.797199 0
    outer loop
      vertex 23.933 -27.5989 0
      vertex 42.6958 -41.8079 10
      vertex 23.933 -27.5989 10
    endloop
  endfacet
  facet normal -0.603716 -0.797199 -0
    outer loop
      vertex 42.6958 -41.8079 10
      vertex 23.933 -27.5989 0
      vertex 42.6958 -41.8079 0
    endloop
  endfacet
  facet normal -0.660696 -0.750654 0
    outer loop
      vertex 19.4103 -23.6182 0
      vertex 23.933 -27.5989 10
      vertex 19.4103 -23.6182 10
    endloop
  endfacet
  facet normal -0.660696 -0.750654 -0
    outer loop
      vertex 23.933 -27.5989 10
      vertex 19.4103 -23.6182 0
      vertex 23.933 -27.5989 0
    endloop
  endfacet
  facet normal -0.717953 -0.696092 0
    outer loop
      vertex 19.4103 -23.6182 0
      vertex 15.2135 -19.2896 10
      vertex 15.2135 -19.2896 0
    endloop
  endfacet
  facet normal -0.717953 -0.696092 0
    outer loop
      vertex 15.2135 -19.2896 10
      vertex 19.4103 -23.6182 0
      vertex 19.4103 -23.6182 10
    endloop
  endfacet
  facet normal -0.787285 -0.616589 0
    outer loop
      vertex 15.2135 -19.2896 0
      vertex 11.4763 -14.5178 10
      vertex 11.4763 -14.5178 0
    endloop
  endfacet
  facet normal -0.787285 -0.616589 0
    outer loop
      vertex 11.4763 -14.5178 10
      vertex 15.2135 -19.2896 0
      vertex 15.2135 -19.2896 10
    endloop
  endfacet
  facet normal -0.859659 -0.510868 0
    outer loop
      vertex 11.4763 -14.5178 0
      vertex 8.32507 -9.21509 10
      vertex 8.32507 -9.21509 0
    endloop
  endfacet
  facet normal -0.859659 -0.510868 0
    outer loop
      vertex 8.32507 -9.21509 10
      vertex 11.4763 -14.5178 0
      vertex 11.4763 -14.5178 10
    endloop
  endfacet
  facet normal -0.900972 -0.433878 0
    outer loop
      vertex 8.32507 -9.21509 0
      vertex 7.53441 -7.57324 10
      vertex 7.53441 -7.57324 0
    endloop
  endfacet
  facet normal -0.900972 -0.433878 0
    outer loop
      vertex 7.53441 -7.57324 10
      vertex 8.32507 -9.21509 0
      vertex 8.32507 -9.21509 10
    endloop
  endfacet
  facet normal -0.924986 -0.380002 0
    outer loop
      vertex 7.53441 -7.57324 0
      vertex 5.10094 -1.64978 10
      vertex 5.10094 -1.64978 0
    endloop
  endfacet
  facet normal -0.924986 -0.380002 0
    outer loop
      vertex 5.10094 -1.64978 10
      vertex 7.53441 -7.57324 0
      vertex 7.53441 -7.57324 10
    endloop
  endfacet
  facet normal -0.972676 -0.232166 0
    outer loop
      vertex 5.10094 -1.64978 0
      vertex 3.51707 4.98596 10
      vertex 3.51707 4.98596 0
    endloop
  endfacet
  facet normal -0.972676 -0.232166 0
    outer loop
      vertex 3.51707 4.98596 10
      vertex 5.10094 -1.64978 0
      vertex 5.10094 -1.64978 10
    endloop
  endfacet
  facet normal -0.996675 -0.0814811 0
    outer loop
      vertex 3.51707 4.98596 0
      vertex 2.90916 12.4219 10
      vertex 2.90916 12.4219 0
    endloop
  endfacet
  facet normal -0.996675 -0.0814811 0
    outer loop
      vertex 2.90916 12.4219 10
      vertex 3.51707 4.98596 0
      vertex 3.51707 4.98596 10
    endloop
  endfacet
  facet normal -0.995729 0.0923225 0
    outer loop
      vertex 2.90916 12.4219 0
      vertex 3.83934 22.4542 10
      vertex 3.83934 22.4542 0
    endloop
  endfacet
  facet normal -0.995729 0.0923225 0
    outer loop
      vertex 3.83934 22.4542 10
      vertex 2.90916 12.4219 0
      vertex 2.90916 12.4219 10
    endloop
  endfacet
  facet normal -0.947214 0.320602 0
    outer loop
      vertex 3.83934 22.4542 0
      vertex 6.61522 30.6555 10
      vertex 6.61522 30.6555 0
    endloop
  endfacet
  facet normal -0.947214 0.320602 0
    outer loop
      vertex 6.61522 30.6555 10
      vertex 3.83934 22.4542 0
      vertex 3.83934 22.4542 10
    endloop
  endfacet
  facet normal -0.900977 0.433867 0
    outer loop
      vertex 6.61522 30.6555 0
      vertex 7.40588 32.2974 10
      vertex 7.40588 32.2974 0
    endloop
  endfacet
  facet normal -0.900977 0.433867 0
    outer loop
      vertex 7.40588 32.2974 10
      vertex 6.61522 30.6555 0
      vertex 6.61522 30.6555 10
    endloop
  endfacet
  facet normal -0.832194 0.554484 0
    outer loop
      vertex 7.40588 32.2974 0
      vertex 11.6942 38.7335 10
      vertex 11.6942 38.7335 0
    endloop
  endfacet
  facet normal -0.832194 0.554484 0
    outer loop
      vertex 11.6942 38.7335 10
      vertex 7.40588 32.2974 0
      vertex 7.40588 32.2974 10
    endloop
  endfacet
  facet normal -0.654409 0.756141 0
    outer loop
      vertex 17.1654 43.4686 0
      vertex 11.6942 38.7335 10
      vertex 17.1654 43.4686 10
    endloop
  endfacet
  facet normal -0.654409 0.756141 0
    outer loop
      vertex 11.6942 38.7335 10
      vertex 17.1654 43.4686 0
      vertex 11.6942 38.7335 0
    endloop
  endfacet
  facet normal -0.439606 0.898191 0
    outer loop
      vertex 23.488 46.5631 0
      vertex 17.1654 43.4686 10
      vertex 23.488 46.5631 10
    endloop
  endfacet
  facet normal -0.439606 0.898191 0
    outer loop
      vertex 17.1654 43.4686 10
      vertex 23.488 46.5631 0
      vertex 17.1654 43.4686 0
    endloop
  endfacet
  facet normal -0.222522 0.974928 0
    outer loop
      vertex 25.2646 46.9686 0
      vertex 23.488 46.5631 10
      vertex 25.2646 46.9686 10
    endloop
  endfacet
  facet normal -0.222522 0.974928 0
    outer loop
      vertex 23.488 46.5631 10
      vertex 25.2646 46.9686 0
      vertex 23.488 46.5631 0
    endloop
  endfacet
  facet normal -0.216876 0.976199 0
    outer loop
      vertex 32.1055 48.4884 0
      vertex 25.2646 46.9686 10
      vertex 32.1055 48.4884 10
    endloop
  endfacet
  facet normal -0.216876 0.976199 0
    outer loop
      vertex 25.2646 46.9686 10
      vertex 32.1055 48.4884 0
      vertex 25.2646 46.9686 0
    endloop
  endfacet
  facet normal -0.00103876 0.999999 0
    outer loop
      vertex 39.1331 48.4957 0
      vertex 32.1055 48.4884 10
      vertex 39.1331 48.4957 10
    endloop
  endfacet
  facet normal -0.00103876 0.999999 0
    outer loop
      vertex 32.1055 48.4884 10
      vertex 39.1331 48.4957 0
      vertex 32.1055 48.4884 0
    endloop
  endfacet
  facet normal 0.205176 0.978725 -0
    outer loop
      vertex 46.016 47.0528 0
      vertex 39.1331 48.4957 10
      vertex 46.016 47.0528 10
    endloop
  endfacet
  facet normal 0.205176 0.978725 0
    outer loop
      vertex 39.1331 48.4957 10
      vertex 46.016 47.0528 0
      vertex 39.1331 48.4957 0
    endloop
  endfacet
  facet normal 0.403918 0.914795 -0
    outer loop
      vertex 52.4229 44.2239 0
      vertex 46.016 47.0528 10
      vertex 52.4229 44.2239 10
    endloop
  endfacet
  facet normal 0.403918 0.914795 0
    outer loop
      vertex 46.016 47.0528 10
      vertex 52.4229 44.2239 0
      vertex 46.016 47.0528 0
    endloop
  endfacet
  facet normal 0.59554 0.803326 -0
    outer loop
      vertex 58.0222 40.0729 0
      vertex 52.4229 44.2239 10
      vertex 58.0222 40.0729 10
    endloop
  endfacet
  facet normal 0.59554 0.803326 0
    outer loop
      vertex 52.4229 44.2239 10
      vertex 58.0222 40.0729 0
      vertex 52.4229 44.2239 0
    endloop
  endfacet
  facet normal 0.623476 0.781842 -0
    outer loop
      vertex 59.447 38.9367 0
      vertex 58.0222 40.0729 10
      vertex 59.447 38.9367 10
    endloop
  endfacet
  facet normal 0.623476 0.781842 0
    outer loop
      vertex 58.0222 40.0729 10
      vertex 59.447 38.9367 0
      vertex 58.0222 40.0729 0
    endloop
  endfacet
  facet normal 0.771745 0.635932 0
    outer loop
      vertex 63.9056 33.5259 10
      vertex 59.447 38.9367 0
      vertex 59.447 38.9367 10
    endloop
  endfacet
  facet normal 0.771745 0.635932 0
    outer loop
      vertex 59.447 38.9367 0
      vertex 63.9056 33.5259 10
      vertex 63.9056 33.5259 0
    endloop
  endfacet
  facet normal 0.911221 0.411919 0
    outer loop
      vertex 65.102 30.8793 10
      vertex 63.9056 33.5259 0
      vertex 63.9056 33.5259 10
    endloop
  endfacet
  facet normal 0.911221 0.411919 0
    outer loop
      vertex 63.9056 33.5259 0
      vertex 65.102 30.8793 10
      vertex 65.102 30.8793 0
    endloop
  endfacet
  facet normal -0.911219 0.411923 0
    outer loop
      vertex 65.102 30.8793 0
      vertex 65.8865 32.6147 10
      vertex 65.8865 32.6147 0
    endloop
  endfacet
  facet normal -0.911219 0.411923 0
    outer loop
      vertex 65.8865 32.6147 10
      vertex 65.102 30.8793 0
      vertex 65.102 30.8793 10
    endloop
  endfacet
  facet normal -0.90099 0.43384 0
    outer loop
      vertex 65.8865 32.6147 0
      vertex 66.6771 34.2566 10
      vertex 66.6771 34.2566 0
    endloop
  endfacet
  facet normal -0.90099 0.43384 0
    outer loop
      vertex 66.6771 34.2566 10
      vertex 65.8865 32.6147 0
      vertex 65.8865 32.6147 10
    endloop
  endfacet
  facet normal -0.771745 0.635932 0
    outer loop
      vertex 66.6771 34.2566 0
      vertex 71.1357 39.6674 10
      vertex 71.1357 39.6674 0
    endloop
  endfacet
  facet normal -0.771745 0.635932 0
    outer loop
      vertex 71.1357 39.6674 10
      vertex 66.6771 34.2566 0
      vertex 66.6771 34.2566 10
    endloop
  endfacet
  facet normal -0.595533 0.803331 0
    outer loop
      vertex 76.7351 43.8184 0
      vertex 71.1357 39.6674 10
      vertex 76.7351 43.8184 10
    endloop
  endfacet
  facet normal -0.595533 0.803331 0
    outer loop
      vertex 71.1357 39.6674 10
      vertex 76.7351 43.8184 0
      vertex 71.1357 39.6674 0
    endloop
  endfacet
  facet normal -0.403918 0.914795 0
    outer loop
      vertex 83.142 46.6473 0
      vertex 76.7351 43.8184 10
      vertex 83.142 46.6473 10
    endloop
  endfacet
  facet normal -0.403918 0.914795 0
    outer loop
      vertex 76.7351 43.8184 10
      vertex 83.142 46.6473 0
      vertex 76.7351 43.8184 0
    endloop
  endfacet
  facet normal -0.222522 0.974928 0
    outer loop
      vertex 84.9186 47.0528 0
      vertex 83.142 46.6473 10
      vertex 84.9186 47.0528 10
    endloop
  endfacet
  facet normal -0.222522 0.974928 0
    outer loop
      vertex 83.142 46.6473 10
      vertex 84.9186 47.0528 0
      vertex 83.142 46.6473 0
    endloop
  endfacet
  facet normal -0.205176 0.978725 0
    outer loop
      vertex 91.8015 48.4957 0
      vertex 84.9186 47.0528 10
      vertex 91.8015 48.4957 10
    endloop
  endfacet
  facet normal -0.205176 0.978725 0
    outer loop
      vertex 84.9186 47.0528 10
      vertex 91.8015 48.4957 0
      vertex 84.9186 47.0528 0
    endloop
  endfacet
  facet normal 0.00103876 0.999999 -0
    outer loop
      vertex 98.8291 48.4884 0
      vertex 91.8015 48.4957 10
      vertex 98.8291 48.4884 10
    endloop
  endfacet
  facet normal 0.00103876 0.999999 0
    outer loop
      vertex 91.8015 48.4957 10
      vertex 98.8291 48.4884 0
      vertex 91.8015 48.4957 0
    endloop
  endfacet
  facet normal 0.216876 0.976199 -0
    outer loop
      vertex 105.67 46.9686 0
      vertex 98.8291 48.4884 10
      vertex 105.67 46.9686 10
    endloop
  endfacet
  facet normal 0.216876 0.976199 0
    outer loop
      vertex 98.8291 48.4884 10
      vertex 105.67 46.9686 0
      vertex 98.8291 48.4884 0
    endloop
  endfacet
  facet normal 0.439583 0.898202 -0
    outer loop
      vertex 111.993 43.8741 0
      vertex 105.67 46.9686 10
      vertex 111.993 43.8741 10
    endloop
  endfacet
  facet normal 0.439583 0.898202 0
    outer loop
      vertex 105.67 46.9686 10
      vertex 111.993 43.8741 0
      vertex 105.67 46.9686 0
    endloop
  endfacet
  facet normal 0.62369 0.781671 -0
    outer loop
      vertex 113.417 42.7379 0
      vertex 111.993 43.8741 10
      vertex 113.417 42.7379 10
    endloop
  endfacet
  facet normal 0.62369 0.781671 0
    outer loop
      vertex 111.993 43.8741 10
      vertex 113.417 42.7379 0
      vertex 111.993 43.8741 0
    endloop
  endfacet
  facet normal 0.654423 0.756129 -0
    outer loop
      vertex 118.888 38.0028 0
      vertex 113.417 42.7379 10
      vertex 118.888 38.0028 10
    endloop
  endfacet
  facet normal 0.654423 0.756129 0
    outer loop
      vertex 113.417 42.7379 10
      vertex 118.888 38.0028 0
      vertex 113.417 42.7379 0
    endloop
  endfacet
  facet normal 0.832154 0.554545 0
    outer loop
      vertex 123.177 31.5667 10
      vertex 118.888 38.0028 0
      vertex 118.888 38.0028 10
    endloop
  endfacet
  facet normal 0.832154 0.554545 0
    outer loop
      vertex 118.888 38.0028 0
      vertex 123.177 31.5667 10
      vertex 123.177 31.5667 0
    endloop
  endfacet
  facet normal 0.94721 0.320614 0
    outer loop
      vertex 125.953 23.3654 10
      vertex 123.177 31.5667 0
      vertex 123.177 31.5667 10
    endloop
  endfacet
  facet normal 0.94721 0.320614 0
    outer loop
      vertex 123.177 31.5667 0
      vertex 125.953 23.3654 10
      vertex 125.953 23.3654 0
    endloop
  endfacet
  facet normal 0.995731 0.0923039 0
    outer loop
      vertex 126.883 13.333 10
      vertex 125.953 23.3654 0
      vertex 125.953 23.3654 10
    endloop
  endfacet
  facet normal 0.995731 0.0923039 0
    outer loop
      vertex 125.953 23.3654 0
      vertex 126.883 13.333 10
      vertex 126.883 13.333 0
    endloop
  endfacet
  facet normal 1 -0 0
    outer loop
      vertex 126.883 11.5107 10
      vertex 126.883 13.333 0
      vertex 126.883 13.333 10
    endloop
  endfacet
  facet normal 1 0 0
    outer loop
      vertex 126.883 13.333 0
      vertex 126.883 11.5107 10
      vertex 126.883 11.5107 0
    endloop
  endfacet
  facet normal 0.996674 -0.0814936 0
    outer loop
      vertex 126.275 4.07481 10
      vertex 126.883 11.5107 0
      vertex 126.883 11.5107 10
    endloop
  endfacet
  facet normal 0.996674 -0.0814936 0
    outer loop
      vertex 126.883 11.5107 0
      vertex 126.275 4.07481 10
      vertex 126.275 4.07481 0
    endloop
  endfacet
  facet normal 0.972672 -0.232184 0
    outer loop
      vertex 124.691 -2.56093 10
      vertex 126.275 4.07481 0
      vertex 126.275 4.07481 10
    endloop
  endfacet
  facet normal 0.972672 -0.232184 0
    outer loop
      vertex 126.275 4.07481 0
      vertex 124.691 -2.56093 10
      vertex 124.691 -2.56093 0
    endloop
  endfacet
  facet normal 0.925012 -0.379939 0
    outer loop
      vertex 122.258 -8.48439 10
      vertex 124.691 -2.56093 0
      vertex 124.691 -2.56093 10
    endloop
  endfacet
  facet normal 0.925012 -0.379939 0
    outer loop
      vertex 124.691 -2.56093 0
      vertex 122.258 -8.48439 10
      vertex 122.258 -8.48439 0
    endloop
  endfacet
  facet normal 0.859604 -0.51096 0
    outer loop
      vertex 119.106 -13.7871 10
      vertex 122.258 -8.48439 0
      vertex 122.258 -8.48439 10
    endloop
  endfacet
  facet normal 0.859604 -0.51096 0
    outer loop
      vertex 122.258 -8.48439 0
      vertex 119.106 -13.7871 10
      vertex 119.106 -13.7871 0
    endloop
  endfacet
  facet normal 0.787301 -0.616569 0
    outer loop
      vertex 115.369 -18.5589 10
      vertex 119.106 -13.7871 0
      vertex 119.106 -13.7871 10
    endloop
  endfacet
  facet normal 0.787301 -0.616569 0
    outer loop
      vertex 119.106 -13.7871 0
      vertex 115.369 -18.5589 10
      vertex 115.369 -18.5589 0
    endloop
  endfacet
  facet normal 0.717936 -0.696109 0
    outer loop
      vertex 111.172 -22.8875 10
      vertex 115.369 -18.5589 0
      vertex 115.369 -18.5589 10
    endloop
  endfacet
  facet normal 0.717936 -0.696109 0
    outer loop
      vertex 115.369 -18.5589 0
      vertex 111.172 -22.8875 10
      vertex 111.172 -22.8875 0
    endloop
  endfacet
  facet normal 0.660753 -0.750603 0
    outer loop
      vertex 106.65 -26.8682 0
      vertex 111.172 -22.8875 10
      vertex 106.65 -26.8682 10
    endloop
  endfacet
  facet normal 0.660753 -0.750603 0
    outer loop
      vertex 111.172 -22.8875 10
      vertex 106.65 -26.8682 0
      vertex 111.172 -22.8875 0
    endloop
  endfacet
  facet normal 0.623423 -0.781885 0
    outer loop
      vertex 105.225 -28.0044 0
      vertex 106.65 -26.8682 10
      vertex 105.225 -28.0044 10
    endloop
  endfacet
  facet normal 0.623423 -0.781885 0
    outer loop
      vertex 106.65 -26.8682 10
      vertex 105.225 -28.0044 0
      vertex 106.65 -26.8682 0
    endloop
  endfacet
  facet normal 0.603713 -0.797202 0
    outer loop
      vertex 87.4684 -41.4513 0
      vertex 105.225 -28.0044 10
      vertex 87.4684 -41.4513 10
    endloop
  endfacet
  facet normal 0.603713 -0.797202 0
    outer loop
      vertex 105.225 -28.0044 10
      vertex 87.4684 -41.4513 0
      vertex 105.225 -28.0044 0
    endloop
  endfacet
  facet normal 0.666537 -0.745472 0
    outer loop
      vertex 71.8231 -55.44 0
      vertex 87.4684 -41.4513 10
      vertex 71.8231 -55.44 10
    endloop
  endfacet
  facet normal 0.666537 -0.745472 0
    outer loop
      vertex 87.4684 -41.4513 10
      vertex 71.8231 -55.44 0
      vertex 87.4684 -41.4513 0
    endloop
  endfacet
  facet normal 0.742814 -0.669498 0
    outer loop
      vertex 66.892 -60.9111 10
      vertex 71.8231 -55.44 0
      vertex 71.8231 -55.44 10
    endloop
  endfacet
  facet normal 0.742814 -0.669498 0
    outer loop
      vertex 71.8231 -55.44 0
      vertex 66.892 -60.9111 10
      vertex 66.892 -60.9111 0
    endloop
  endfacet
  facet normal 0.623503 -0.781821 0
    outer loop
      vertex 65.4673 -62.0473 0
      vertex 66.892 -60.9111 10
      vertex 65.4673 -62.0473 10
    endloop
  endfacet
  facet normal 0.623503 -0.781821 0
    outer loop
      vertex 66.892 -60.9111 10
      vertex 65.4673 -62.0473 0
      vertex 66.892 -60.9111 0
    endloop
  endfacet
  facet normal -0.222522 -0.974928 0
    outer loop
      vertex 63.6907 -61.6418 0
      vertex 65.4673 -62.0473 10
      vertex 63.6907 -61.6418 10
    endloop
  endfacet
  facet normal -0.222522 -0.974928 -0
    outer loop
      vertex 65.4673 -62.0473 10
      vertex 63.6907 -61.6418 0
      vertex 65.4673 -62.0473 0
    endloop
  endfacet
  facet normal -0.666533 0.745476 0
    outer loop
      vertex 85.9949 -40.166 2.1
      vertex 69.931 -54.5288 5
      vertex 85.9949 -40.166 5
    endloop
  endfacet
  facet normal -0.666533 0.745476 0
    outer loop
      vertex 69.931 -54.5288 5
      vertex 85.9949 -40.166 2.1
      vertex 69.931 -54.5288 2.1
    endloop
  endfacet
  facet normal -0.60371 0.797204 0
    outer loop
      vertex 104.758 -25.957 2.1
      vertex 85.9949 -40.166 5
      vertex 104.758 -25.957 5
    endloop
  endfacet
  facet normal -0.60371 0.797204 0
    outer loop
      vertex 85.9949 -40.166 5
      vertex 104.758 -25.957 2.1
      vertex 85.9949 -40.166 2.1
    endloop
  endfacet
  facet normal -0.660753 0.750603 0
    outer loop
      vertex 109.28 -21.9763 2.1
      vertex 104.758 -25.957 5
      vertex 109.28 -21.9763 5
    endloop
  endfacet
  facet normal -0.660753 0.750603 0
    outer loop
      vertex 104.758 -25.957 5
      vertex 109.28 -21.9763 2.1
      vertex 104.758 -25.957 2.1
    endloop
  endfacet
  facet normal -0.717936 0.696109 0
    outer loop
      vertex 109.28 -21.9763 2.1
      vertex 113.477 -17.6477 5
      vertex 113.477 -17.6477 2.1
    endloop
  endfacet
  facet normal -0.717936 0.696109 0
    outer loop
      vertex 113.477 -17.6477 5
      vertex 109.28 -21.9763 2.1
      vertex 109.28 -21.9763 5
    endloop
  endfacet
  facet normal -0.787295 0.616577 0
    outer loop
      vertex 113.477 -17.6477 2.1
      vertex 117.214 -12.876 5
      vertex 117.214 -12.876 2.1
    endloop
  endfacet
  facet normal -0.787295 0.616577 0
    outer loop
      vertex 117.214 -12.876 5
      vertex 113.477 -17.6477 2.1
      vertex 113.477 -17.6477 5
    endloop
  endfacet
  facet normal -0.859607 0.510957 0
    outer loop
      vertex 117.214 -12.876 2.1
      vertex 120.366 -7.57324 5
      vertex 120.366 -7.57324 2.1
    endloop
  endfacet
  facet normal -0.859607 0.510957 0
    outer loop
      vertex 120.366 -7.57324 5
      vertex 117.214 -12.876 2.1
      vertex 117.214 -12.876 5
    endloop
  endfacet
  facet normal -0.925012 0.379939 0
    outer loop
      vertex 120.366 -7.57324 2.1
      vertex 122.799 -1.64978 5
      vertex 122.799 -1.64978 2.1
    endloop
  endfacet
  facet normal -0.925012 0.379939 0
    outer loop
      vertex 122.799 -1.64978 5
      vertex 120.366 -7.57324 2.1
      vertex 120.366 -7.57324 5
    endloop
  endfacet
  facet normal -0.972672 0.232184 0
    outer loop
      vertex 122.799 -1.64978 2.1
      vertex 124.383 4.98596 5
      vertex 124.383 4.98596 2.1
    endloop
  endfacet
  facet normal -0.972672 0.232184 0
    outer loop
      vertex 124.383 4.98596 5
      vertex 122.799 -1.64978 2.1
      vertex 122.799 -1.64978 5
    endloop
  endfacet
  facet normal -0.996674 0.0814931 0
    outer loop
      vertex 124.383 4.98596 2.1
      vertex 124.991 12.4219 5
      vertex 124.991 12.4219 2.1
    endloop
  endfacet
  facet normal -0.996674 0.0814931 0
    outer loop
      vertex 124.991 12.4219 5
      vertex 124.383 4.98596 2.1
      vertex 124.383 4.98596 5
    endloop
  endfacet
  facet normal -0.995731 -0.0923048 0
    outer loop
      vertex 124.991 12.4219 2.1
      vertex 124.061 22.4542 5
      vertex 124.061 22.4542 2.1
    endloop
  endfacet
  facet normal -0.995731 -0.0923048 0
    outer loop
      vertex 124.061 22.4542 5
      vertex 124.991 12.4219 2.1
      vertex 124.991 12.4219 5
    endloop
  endfacet
  facet normal -0.94721 -0.320614 0
    outer loop
      vertex 124.061 22.4542 2.1
      vertex 121.285 30.6555 5
      vertex 121.285 30.6555 2.1
    endloop
  endfacet
  facet normal -0.94721 -0.320614 0
    outer loop
      vertex 121.285 30.6555 5
      vertex 124.061 22.4542 2.1
      vertex 124.061 22.4542 5
    endloop
  endfacet
  facet normal -0.832158 -0.554539 0
    outer loop
      vertex 121.285 30.6555 2.1
      vertex 116.996 37.0917 5
      vertex 116.996 37.0917 2.1
    endloop
  endfacet
  facet normal -0.832158 -0.554539 0
    outer loop
      vertex 116.996 37.0917 5
      vertex 121.285 30.6555 2.1
      vertex 121.285 30.6555 5
    endloop
  endfacet
  facet normal -0.654423 -0.756129 0
    outer loop
      vertex 111.525 41.8268 2.1
      vertex 116.996 37.0917 5
      vertex 111.525 41.8268 5
    endloop
  endfacet
  facet normal -0.654423 -0.756129 -0
    outer loop
      vertex 116.996 37.0917 5
      vertex 111.525 41.8268 2.1
      vertex 116.996 37.0917 2.1
    endloop
  endfacet
  facet normal -0.439639 -0.898174 0
    outer loop
      vertex 105.203 44.9213 2.1
      vertex 111.525 41.8268 5
      vertex 105.203 44.9213 5
    endloop
  endfacet
  facet normal -0.439639 -0.898174 -0
    outer loop
      vertex 111.525 41.8268 5
      vertex 105.203 44.9213 2.1
      vertex 111.525 41.8268 2.1
    endloop
  endfacet
  facet normal -0.216853 -0.976204 0
    outer loop
      vertex 98.3618 46.441 2.1
      vertex 105.203 44.9213 5
      vertex 98.3618 46.441 5
    endloop
  endfacet
  facet normal -0.216853 -0.976204 -0
    outer loop
      vertex 105.203 44.9213 5
      vertex 98.3618 46.441 2.1
      vertex 105.203 44.9213 2.1
    endloop
  endfacet
  facet normal -0.00105299 -0.999999 0
    outer loop
      vertex 91.3342 46.4484 2.1
      vertex 98.3618 46.441 5
      vertex 91.3342 46.4484 5
    endloop
  endfacet
  facet normal -0.00105299 -0.999999 -0
    outer loop
      vertex 98.3618 46.441 5
      vertex 91.3342 46.4484 2.1
      vertex 98.3618 46.441 2.1
    endloop
  endfacet
  facet normal 0.205176 -0.978725 0
    outer loop
      vertex 84.4513 45.0055 2.1
      vertex 91.3342 46.4484 5
      vertex 84.4513 45.0055 5
    endloop
  endfacet
  facet normal 0.205176 -0.978725 0
    outer loop
      vertex 91.3342 46.4484 5
      vertex 84.4513 45.0055 2.1
      vertex 91.3342 46.4484 2.1
    endloop
  endfacet
  facet normal 0.40393 -0.91479 0
    outer loop
      vertex 78.0444 42.1765 2.1
      vertex 84.4513 45.0055 5
      vertex 78.0444 42.1765 5
    endloop
  endfacet
  facet normal 0.40393 -0.91479 0
    outer loop
      vertex 84.4513 45.0055 5
      vertex 78.0444 42.1765 2.1
      vertex 84.4513 45.0055 2.1
    endloop
  endfacet
  facet normal 0.59554 -0.803326 0
    outer loop
      vertex 72.4451 38.0255 2.1
      vertex 78.0444 42.1765 5
      vertex 72.4451 38.0255 5
    endloop
  endfacet
  facet normal 0.59554 -0.803326 0
    outer loop
      vertex 78.0444 42.1765 5
      vertex 72.4451 38.0255 2.1
      vertex 78.0444 42.1765 2.1
    endloop
  endfacet
  facet normal 0.771745 -0.635932 0
    outer loop
      vertex 67.9865 32.6147 5
      vertex 72.4451 38.0255 2.1
      vertex 72.4451 38.0255 5
    endloop
  endfacet
  facet normal 0.771745 -0.635932 0
    outer loop
      vertex 72.4451 38.0255 2.1
      vertex 67.9865 32.6147 5
      vertex 67.9865 32.6147 2.1
    endloop
  endfacet
  facet normal 0.911217 -0.411926 0
    outer loop
      vertex 65 26.0083 5
      vertex 67.9865 32.6147 2.1
      vertex 67.9865 32.6147 5
    endloop
  endfacet
  facet normal 0.911217 -0.411926 0
    outer loop
      vertex 67.9865 32.6147 2.1
      vertex 65 26.0083 5
      vertex 65 26.0083 2.1
    endloop
  endfacet
  facet normal -0.911217 -0.411926 0
    outer loop
      vertex 65 26.0083 2.1
      vertex 62.0135 32.6147 5
      vertex 62.0135 32.6147 2.1
    endloop
  endfacet
  facet normal -0.911217 -0.411926 0
    outer loop
      vertex 62.0135 32.6147 5
      vertex 65 26.0083 2.1
      vertex 65 26.0083 5
    endloop
  endfacet
  facet normal -0.771745 -0.635932 0
    outer loop
      vertex 62.0135 32.6147 2.1
      vertex 57.5549 38.0255 5
      vertex 57.5549 38.0255 2.1
    endloop
  endfacet
  facet normal -0.771745 -0.635932 0
    outer loop
      vertex 57.5549 38.0255 5
      vertex 62.0135 32.6147 2.1
      vertex 62.0135 32.6147 5
    endloop
  endfacet
  facet normal -0.59554 -0.803326 0
    outer loop
      vertex 51.9556 42.1765 2.1
      vertex 57.5549 38.0255 5
      vertex 51.9556 42.1765 5
    endloop
  endfacet
  facet normal -0.59554 -0.803326 -0
    outer loop
      vertex 57.5549 38.0255 5
      vertex 51.9556 42.1765 2.1
      vertex 57.5549 38.0255 2.1
    endloop
  endfacet
  facet normal -0.40393 -0.91479 0
    outer loop
      vertex 45.5487 45.0055 2.1
      vertex 51.9556 42.1765 5
      vertex 45.5487 45.0055 5
    endloop
  endfacet
  facet normal -0.40393 -0.91479 -0
    outer loop
      vertex 51.9556 42.1765 5
      vertex 45.5487 45.0055 2.1
      vertex 51.9556 42.1765 2.1
    endloop
  endfacet
  facet normal -0.205176 -0.978725 0
    outer loop
      vertex 38.6658 46.4484 2.1
      vertex 45.5487 45.0055 5
      vertex 38.6658 46.4484 5
    endloop
  endfacet
  facet normal -0.205176 -0.978725 -0
    outer loop
      vertex 45.5487 45.0055 5
      vertex 38.6658 46.4484 2.1
      vertex 45.5487 45.0055 2.1
    endloop
  endfacet
  facet normal 0.00105299 -0.999999 0
    outer loop
      vertex 31.6382 46.441 2.1
      vertex 38.6658 46.4484 5
      vertex 31.6382 46.441 5
    endloop
  endfacet
  facet normal 0.00105299 -0.999999 0
    outer loop
      vertex 38.6658 46.4484 5
      vertex 31.6382 46.441 2.1
      vertex 38.6658 46.4484 2.1
    endloop
  endfacet
  facet normal 0.216865 -0.976201 0
    outer loop
      vertex 24.7974 44.9213 2.1
      vertex 31.6382 46.441 5
      vertex 24.7974 44.9213 5
    endloop
  endfacet
  facet normal 0.216865 -0.976201 0
    outer loop
      vertex 31.6382 46.441 5
      vertex 24.7974 44.9213 2.1
      vertex 31.6382 46.441 2.1
    endloop
  endfacet
  facet normal 0.4396 -0.898194 0
    outer loop
      vertex 18.4747 41.8268 2.1
      vertex 24.7974 44.9213 5
      vertex 18.4747 41.8268 5
    endloop
  endfacet
  facet normal 0.4396 -0.898194 0
    outer loop
      vertex 24.7974 44.9213 5
      vertex 18.4747 41.8268 2.1
      vertex 24.7974 44.9213 2.1
    endloop
  endfacet
  facet normal 0.654409 -0.756141 0
    outer loop
      vertex 13.0035 37.0917 2.1
      vertex 18.4747 41.8268 5
      vertex 13.0035 37.0917 5
    endloop
  endfacet
  facet normal 0.654409 -0.756141 0
    outer loop
      vertex 18.4747 41.8268 5
      vertex 13.0035 37.0917 2.1
      vertex 18.4747 41.8268 2.1
    endloop
  endfacet
  facet normal 0.8322 -0.554475 0
    outer loop
      vertex 8.71521 30.6555 5
      vertex 13.0035 37.0917 2.1
      vertex 13.0035 37.0917 5
    endloop
  endfacet
  facet normal 0.8322 -0.554475 0
    outer loop
      vertex 13.0035 37.0917 2.1
      vertex 8.71521 30.6555 5
      vertex 8.71521 30.6555 2.1
    endloop
  endfacet
  facet normal 0.947214 -0.320602 0
    outer loop
      vertex 5.93933 22.4542 5
      vertex 8.71521 30.6555 2.1
      vertex 8.71521 30.6555 5
    endloop
  endfacet
  facet normal 0.947214 -0.320602 0
    outer loop
      vertex 8.71521 30.6555 2.1
      vertex 5.93933 22.4542 5
      vertex 5.93933 22.4542 2.1
    endloop
  endfacet
  facet normal 0.995729 -0.0923215 0
    outer loop
      vertex 5.00916 12.4219 5
      vertex 5.93933 22.4542 2.1
      vertex 5.93933 22.4542 5
    endloop
  endfacet
  facet normal 0.995729 -0.0923215 0
    outer loop
      vertex 5.93933 22.4542 2.1
      vertex 5.00916 12.4219 5
      vertex 5.00916 12.4219 2.1
    endloop
  endfacet
  facet normal 0.996675 0.0814811 0
    outer loop
      vertex 5.61707 4.98596 5
      vertex 5.00916 12.4219 2.1
      vertex 5.00916 12.4219 5
    endloop
  endfacet
  facet normal 0.996675 0.0814811 0
    outer loop
      vertex 5.00916 12.4219 2.1
      vertex 5.61707 4.98596 5
      vertex 5.61707 4.98596 2.1
    endloop
  endfacet
  facet normal 0.972677 0.232165 0
    outer loop
      vertex 7.20093 -1.64978 5
      vertex 5.61707 4.98596 2.1
      vertex 5.61707 4.98596 5
    endloop
  endfacet
  facet normal 0.972677 0.232165 0
    outer loop
      vertex 5.61707 4.98596 2.1
      vertex 7.20093 -1.64978 5
      vertex 7.20093 -1.64978 2.1
    endloop
  endfacet
  facet normal 0.924986 0.380002 0
    outer loop
      vertex 9.6344 -7.57324 5
      vertex 7.20093 -1.64978 2.1
      vertex 7.20093 -1.64978 5
    endloop
  endfacet
  facet normal 0.924986 0.380002 0
    outer loop
      vertex 7.20093 -1.64978 2.1
      vertex 9.6344 -7.57324 5
      vertex 9.6344 -7.57324 2.1
    endloop
  endfacet
  facet normal 0.859664 0.510861 0
    outer loop
      vertex 12.7856 -12.876 5
      vertex 9.6344 -7.57324 2.1
      vertex 9.6344 -7.57324 5
    endloop
  endfacet
  facet normal 0.859664 0.510861 0
    outer loop
      vertex 9.6344 -7.57324 2.1
      vertex 12.7856 -12.876 5
      vertex 12.7856 -12.876 2.1
    endloop
  endfacet
  facet normal 0.787279 0.616597 0
    outer loop
      vertex 16.5228 -17.6477 5
      vertex 12.7856 -12.876 2.1
      vertex 12.7856 -12.876 5
    endloop
  endfacet
  facet normal 0.787279 0.616597 0
    outer loop
      vertex 12.7856 -12.876 2.1
      vertex 16.5228 -17.6477 5
      vertex 16.5228 -17.6477 2.1
    endloop
  endfacet
  facet normal 0.717953 0.696092 0
    outer loop
      vertex 20.7196 -21.9763 5
      vertex 16.5228 -17.6477 2.1
      vertex 16.5228 -17.6477 5
    endloop
  endfacet
  facet normal 0.717953 0.696092 0
    outer loop
      vertex 16.5228 -17.6477 2.1
      vertex 20.7196 -21.9763 5
      vertex 20.7196 -21.9763 2.1
    endloop
  endfacet
  facet normal 0.660696 0.750654 -0
    outer loop
      vertex 25.2423 -25.957 2.1
      vertex 20.7196 -21.9763 5
      vertex 25.2423 -25.957 5
    endloop
  endfacet
  facet normal 0.660696 0.750654 0
    outer loop
      vertex 20.7196 -21.9763 5
      vertex 25.2423 -25.957 2.1
      vertex 20.7196 -21.9763 2.1
    endloop
  endfacet
  facet normal 0.603716 0.797199 -0
    outer loop
      vertex 44.0051 -40.166 2.1
      vertex 25.2423 -25.957 5
      vertex 44.0051 -40.166 5
    endloop
  endfacet
  facet normal 0.603716 0.797199 0
    outer loop
      vertex 25.2423 -25.957 5
      vertex 44.0051 -40.166 2.1
      vertex 25.2423 -25.957 2.1
    endloop
  endfacet
  facet normal 0.647593 0.761987 -0
    outer loop
      vertex 48.2129 -43.7421 2.1
      vertex 44.0051 -40.166 5
      vertex 48.2129 -43.7421 5
    endloop
  endfacet
  facet normal 0.647593 0.761987 0
    outer loop
      vertex 44.0051 -40.166 5
      vertex 48.2129 -43.7421 2.1
      vertex 44.0051 -40.166 2.1
    endloop
  endfacet
  facet normal 0.672961 0.739678 -0
    outer loop
      vertex 60.069 -54.5288 2.1
      vertex 48.2129 -43.7421 5
      vertex 60.069 -54.5288 5
    endloop
  endfacet
  facet normal 0.672961 0.739678 0
    outer loop
      vertex 48.2129 -43.7421 5
      vertex 60.069 -54.5288 2.1
      vertex 48.2129 -43.7421 2.1
    endloop
  endfacet
  facet normal 0.742827 0.669484 0
    outer loop
      vertex 65 -60 5
      vertex 60.069 -54.5288 2.1
      vertex 60.069 -54.5288 5
    endloop
  endfacet
  facet normal 0.742827 0.669484 0
    outer loop
      vertex 60.069 -54.5288 2.1
      vertex 65 -60 5
      vertex 65 -60 2.1
    endloop
  endfacet
  facet normal -0.742827 0.669484 0
    outer loop
      vertex 65 -60 2.1
      vertex 69.931 -54.5288 5
      vertex 69.931 -54.5288 2.1
    endloop
  endfacet
  facet normal -0.742827 0.669484 0
    outer loop
      vertex 69.931 -54.5288 5
      vertex 65 -60 2.1
      vertex 65 -60 5
    endloop
  endfacet
  facet normal -0 0 1
    outer loop
      vertex 126.043 11.6578 10
      vertex 126.883 11.5107 10
      vertex 126.883 13.333 10
    endloop
  endfacet
  facet normal 0 0 1
    outer loop
      vertex 126.043 11.6578 10
      vertex 126.883 13.333 10
      vertex 126.043 13.186 10
    endloop
  endfacet
  facet normal -0 0 1
    outer loop
      vertex 125.112 23.2183 10
      vertex 126.883 13.333 10
      vertex 125.953 23.3654 10
    endloop
  endfacet
  facet normal 0 0 1
    outer loop
      vertex 126.883 13.333 10
      vertex 125.112 23.2183 10
      vertex 126.043 13.186 10
    endloop
  endfacet
  facet normal 0 0 1
    outer loop
      vertex 123.177 31.5667 10
      vertex 125.112 23.2183 10
      vertex 125.953 23.3654 10
    endloop
  endfacet
  facet normal 0 0 1
    outer loop
      vertex 123.177 31.5667 10
      vertex 122.337 31.4196 10
      vertex 125.112 23.2183 10
    endloop
  endfacet
  facet normal 0 0 1
    outer loop
      vertex 118.888 38.0028 10
      vertex 122.337 31.4196 10
      vertex 123.177 31.5667 10
    endloop
  endfacet
  facet normal 0 0 1
    outer loop
      vertex 118.888 38.0028 10
      vertex 118.048 37.8558 10
      vertex 122.337 31.4196 10
    endloop
  endfacet
  facet normal 0 0 1
    outer loop
      vertex 113.417 42.7379 10
      vertex 118.048 37.8558 10
      vertex 118.888 38.0028 10
    endloop
  endfacet
  facet normal 0 0 1
    outer loop
      vertex 113.417 42.7379 10
      vertex 112.577 42.5909 10
      vertex 118.048 37.8558 10
    endloop
  endfacet
  facet normal 0 0 1
    outer loop
      vertex 111.993 43.8741 10
      vertex 112.577 42.5909 10
      vertex 113.417 42.7379 10
    endloop
  endfacet
  facet normal 0 0 1
    outer loop
      vertex 111.993 43.8741 10
      vertex 106.254 45.6854 10
      vertex 112.577 42.5909 10
    endloop
  endfacet
  facet normal 0 0 1
    outer loop
      vertex 105.67 46.9686 10
      vertex 106.254 45.6854 10
      vertex 111.993 43.8741 10
    endloop
  endfacet
  facet normal 0 0 1
    outer loop
      vertex 105.67 46.9686 10
      vertex 104.801 46.1576 10
      vertex 106.254 45.6854 10
    endloop
  endfacet
  facet normal 0 0 1
    outer loop
      vertex 98.8291 48.4884 10
      vertex 104.801 46.1576 10
      vertex 105.67 46.9686 10
    endloop
  endfacet
  facet normal 0 0 1
    outer loop
      vertex 98.8291 48.4884 10
      vertex 97.9601 47.6774 10
      vertex 104.801 46.1576 10
    endloop
  endfacet
  facet normal 0 0 1
    outer loop
      vertex 91.8015 48.4957 10
      vertex 97.9601 47.6774 10
      vertex 98.8291 48.4884 10
    endloop
  endfacet
  facet normal 0 0 1
    outer loop
      vertex 91.8015 48.4957 10
      vertex 90.9325 47.6847 10
      vertex 97.9601 47.6774 10
    endloop
  endfacet
  facet normal 0 0 1
    outer loop
      vertex 84.9186 47.0528 10
      vertex 90.9325 47.6847 10
      vertex 91.8015 48.4957 10
    endloop
  endfacet
  facet normal -0 0 1
    outer loop
      vertex 84.9186 47.0528 10
      vertex 84.0496 46.2419 10
      vertex 90.9325 47.6847 10
    endloop
  endfacet
  facet normal -0 0 1
    outer loop
      vertex 83.142 46.6473 10
      vertex 84.0496 46.2419 10
      vertex 84.9186 47.0528 10
    endloop
  endfacet
  facet normal 0 0 1
    outer loop
      vertex 83.142 46.6473 10
      vertex 77.6427 43.4129 10
      vertex 84.0496 46.2419 10
    endloop
  endfacet
  facet normal -0 0 1
    outer loop
      vertex 76.7351 43.8184 10
      vertex 77.6427 43.4129 10
      vertex 83.142 46.6473 10
    endloop
  endfacet
  facet normal 0 0 1
    outer loop
      vertex 76.7351 43.8184 10
      vertex 72.0434 39.2619 10
      vertex 77.6427 43.4129 10
    endloop
  endfacet
  facet normal -0 0 1
    outer loop
      vertex 71.1357 39.6674 10
      vertex 72.0434 39.2619 10
      vertex 76.7351 43.8184 10
    endloop
  endfacet
  facet normal 0 0 1
    outer loop
      vertex 71.1357 39.6674 10
      vertex 67.5847 33.8511 10
      vertex 72.0434 39.2619 10
    endloop
  endfacet
  facet normal -0 0 1
    outer loop
      vertex 66.6771 34.2566 10
      vertex 67.5847 33.8511 10
      vertex 71.1357 39.6674 10
    endloop
  endfacet
  facet normal 0 0 1
    outer loop
      vertex 67.5847 33.8511 10
      vertex 66.6771 34.2566 10
      vertex 66.6865 32.6147 10
    endloop
  endfacet
  facet normal 0 0 1
    outer loop
      vertex 65.8865 32.6147 10
      vertex 66.6865 32.6147 10
      vertex 66.6771 34.2566 10
    endloop
  endfacet
  facet normal 0 0 1
    outer loop
      vertex 65.102 30.8793 10
      vertex 66.6865 32.6147 10
      vertex 65.8865 32.6147 10
    endloop
  endfacet
  facet normal -0 0 1
    outer loop
      vertex 65.102 30.8793 10
      vertex 65.0486 28.9915 10
      vertex 66.6865 32.6147 10
    endloop
  endfacet
  facet normal -0 0 1
    outer loop
      vertex 63.0653 33.3789 10
      vertex 65.102 30.8793 10
      vertex 63.9056 33.5259 10
    endloop
  endfacet
  facet normal 0 0 1
    outer loop
      vertex 65.102 30.8793 10
      vertex 63.0653 33.3789 10
      vertex 65.0486 28.9915 10
    endloop
  endfacet
  facet normal 0 0 1
    outer loop
      vertex 59.447 38.9367 10
      vertex 63.0653 33.3789 10
      vertex 63.9056 33.5259 10
    endloop
  endfacet
  facet normal 0 0 1
    outer loop
      vertex 59.447 38.9367 10
      vertex 58.6066 38.7896 10
      vertex 63.0653 33.3789 10
    endloop
  endfacet
  facet normal 0 0 1
    outer loop
      vertex 58.0222 40.0729 10
      vertex 58.6066 38.7896 10
      vertex 59.447 38.9367 10
    endloop
  endfacet
  facet normal 0 0 1
    outer loop
      vertex 58.0222 40.0729 10
      vertex 53.0073 42.9406 10
      vertex 58.6066 38.7896 10
    endloop
  endfacet
  facet normal 0 0 1
    outer loop
      vertex 52.4229 44.2239 10
      vertex 53.0073 42.9406 10
      vertex 58.0222 40.0729 10
    endloop
  endfacet
  facet normal 0 0 1
    outer loop
      vertex 52.4229 44.2239 10
      vertex 46.6004 45.7696 10
      vertex 53.0073 42.9406 10
    endloop
  endfacet
  facet normal 0 0 1
    outer loop
      vertex 46.016 47.0528 10
      vertex 46.6004 45.7696 10
      vertex 52.4229 44.2239 10
    endloop
  endfacet
  facet normal 0 0 1
    outer loop
      vertex 46.016 47.0528 10
      vertex 45.147 46.2419 10
      vertex 46.6004 45.7696 10
    endloop
  endfacet
  facet normal 0 0 1
    outer loop
      vertex 39.1331 48.4957 10
      vertex 45.147 46.2419 10
      vertex 46.016 47.0528 10
    endloop
  endfacet
  facet normal 0 0 1
    outer loop
      vertex 39.1331 48.4957 10
      vertex 38.2641 47.6847 10
      vertex 45.147 46.2419 10
    endloop
  endfacet
  facet normal -0 0 1
    outer loop
      vertex 32.1055 48.4884 10
      vertex 38.2641 47.6847 10
      vertex 39.1331 48.4957 10
    endloop
  endfacet
  facet normal 0 0 1
    outer loop
      vertex 32.1055 48.4884 10
      vertex 31.2365 47.6774 10
      vertex 38.2641 47.6847 10
    endloop
  endfacet
  facet normal 0 0 1
    outer loop
      vertex 25.2646 46.9686 10
      vertex 31.2365 47.6774 10
      vertex 32.1055 48.4884 10
    endloop
  endfacet
  facet normal -0 0 1
    outer loop
      vertex 25.2646 46.9686 10
      vertex 24.3956 46.1576 10
      vertex 31.2365 47.6774 10
    endloop
  endfacet
  facet normal -0 0 1
    outer loop
      vertex 23.488 46.5631 10
      vertex 24.3956 46.1576 10
      vertex 25.2646 46.9686 10
    endloop
  endfacet
  facet normal 0 0 1
    outer loop
      vertex 23.488 46.5631 10
      vertex 18.073 43.0631 10
      vertex 24.3956 46.1576 10
    endloop
  endfacet
  facet normal -0 0 1
    outer loop
      vertex 17.1654 43.4686 10
      vertex 18.073 43.0631 10
      vertex 23.488 46.5631 10
    endloop
  endfacet
  facet normal 0 0 1
    outer loop
      vertex 17.1654 43.4686 10
      vertex 12.6018 38.328 10
      vertex 18.073 43.0631 10
    endloop
  endfacet
  facet normal -0 0 1
    outer loop
      vertex 11.6942 38.7335 10
      vertex 12.6018 38.328 10
      vertex 17.1654 43.4686 10
    endloop
  endfacet
  facet normal 0 0 1
    outer loop
      vertex 11.6942 38.7335 10
      vertex 11.7036 37.0917 10
      vertex 12.6018 38.328 10
    endloop
  endfacet
  facet normal 0 0 1
    outer loop
      vertex 7.40588 32.2974 10
      vertex 11.7036 37.0917 10
      vertex 11.6942 38.7335 10
    endloop
  endfacet
  facet normal 0 0 1
    outer loop
      vertex 11.7036 37.0917 10
      vertex 7.40588 32.2974 10
      vertex 7.41522 30.6555 10
    endloop
  endfacet
  facet normal 0 0 1
    outer loop
      vertex 6.61522 30.6555 10
      vertex 7.41522 30.6555 10
      vertex 7.40588 32.2974 10
    endloop
  endfacet
  facet normal -0 0 1
    outer loop
      vertex 6.61522 30.6555 10
      vertex 4.63934 22.4542 10
      vertex 7.41522 30.6555 10
    endloop
  endfacet
  facet normal 0 0 1
    outer loop
      vertex 3.83934 22.4542 10
      vertex 4.63934 22.4542 10
      vertex 6.61522 30.6555 10
    endloop
  endfacet
  facet normal -0 0 1
    outer loop
      vertex 3.83934 22.4542 10
      vertex 3.70917 12.4219 10
      vertex 4.63934 22.4542 10
    endloop
  endfacet
  facet normal 0 0 1
    outer loop
      vertex 2.90916 12.4219 10
      vertex 3.70917 12.4219 10
      vertex 3.83934 22.4542 10
    endloop
  endfacet
  facet normal 0 0 1
    outer loop
      vertex 3.70917 12.4219 10
      vertex 2.90916 12.4219 10
      vertex 3.51707 4.98596 10
    endloop
  endfacet
  facet normal 0 0 1
    outer loop
      vertex 125.435 4.22185 10
      vertex 126.883 11.5107 10
      vertex 126.043 11.6578 10
    endloop
  endfacet
  facet normal 0 0 1
    outer loop
      vertex 126.883 11.5107 10
      vertex 125.435 4.22185 10
      vertex 126.275 4.07481 10
    endloop
  endfacet
  facet normal 0 0 1
    outer loop
      vertex 125.435 4.22185 10
      vertex 124.691 -2.56093 10
      vertex 126.275 4.07481 10
    endloop
  endfacet
  facet normal -0 0 1
    outer loop
      vertex 123.851 -2.41389 10
      vertex 124.691 -2.56093 10
      vertex 125.435 4.22185 10
    endloop
  endfacet
  facet normal 0 0 1
    outer loop
      vertex 123.851 -2.41389 10
      vertex 122.258 -8.48439 10
      vertex 124.691 -2.56093 10
    endloop
  endfacet
  facet normal -0 0 1
    outer loop
      vertex 121.417 -8.33736 10
      vertex 122.258 -8.48439 10
      vertex 123.851 -2.41389 10
    endloop
  endfacet
  facet normal 0 0 1
    outer loop
      vertex 121.417 -8.33736 10
      vertex 119.106 -13.7871 10
      vertex 122.258 -8.48439 10
    endloop
  endfacet
  facet normal -0 0 1
    outer loop
      vertex 118.266 -13.6401 10
      vertex 119.106 -13.7871 10
      vertex 121.417 -8.33736 10
    endloop
  endfacet
  facet normal 0 0 1
    outer loop
      vertex 118.266 -13.6401 10
      vertex 115.369 -18.5589 10
      vertex 119.106 -13.7871 10
    endloop
  endfacet
  facet normal -0 0 1
    outer loop
      vertex 114.529 -18.4118 10
      vertex 115.369 -18.5589 10
      vertex 118.266 -13.6401 10
    endloop
  endfacet
  facet normal 0 0 1
    outer loop
      vertex 114.529 -18.4118 10
      vertex 111.172 -22.8875 10
      vertex 115.369 -18.5589 10
    endloop
  endfacet
  facet normal -0 0 1
    outer loop
      vertex 110.332 -22.7404 10
      vertex 111.172 -22.8875 10
      vertex 114.529 -18.4118 10
    endloop
  endfacet
  facet normal 0 0 1
    outer loop
      vertex 110.332 -22.7404 10
      vertex 106.65 -26.8682 10
      vertex 111.172 -22.8875 10
    endloop
  endfacet
  facet normal -0 0 1
    outer loop
      vertex 105.809 -26.7211 10
      vertex 106.65 -26.8682 10
      vertex 110.332 -22.7404 10
    endloop
  endfacet
  facet normal 0 0 1
    outer loop
      vertex 105.809 -26.7211 10
      vertex 105.225 -28.0044 10
      vertex 106.65 -26.8682 10
    endloop
  endfacet
  facet normal 0 0 1
    outer loop
      vertex 87.0466 -40.9301 10
      vertex 105.225 -28.0044 10
      vertex 105.809 -26.7211 10
    endloop
  endfacet
  facet normal 0 0 1
    outer loop
      vertex 105.225 -28.0044 10
      vertex 87.0466 -40.9301 10
      vertex 87.4684 -41.4513 10
    endloop
  endfacet
  facet normal 0 0 1
    outer loop
      vertex 87.0466 -40.9301 10
      vertex 71.8231 -55.44 10
      vertex 87.4684 -41.4513 10
    endloop
  endfacet
  facet normal -0 0 1
    outer loop
      vertex 70.9827 -55.2929 10
      vertex 71.8231 -55.44 10
      vertex 87.0466 -40.9301 10
    endloop
  endfacet
  facet normal 0 0 1
    outer loop
      vertex 70.9827 -55.2929 10
      vertex 66.892 -60.9111 10
      vertex 71.8231 -55.44 10
    endloop
  endfacet
  facet normal -0 0 1
    outer loop
      vertex 66.0517 -60.7641 10
      vertex 66.892 -60.9111 10
      vertex 70.9827 -55.2929 10
    endloop
  endfacet
  facet normal 0 0 1
    outer loop
      vertex 66.0517 -60.7641 10
      vertex 65.4673 -62.0473 10
      vertex 66.892 -60.9111 10
    endloop
  endfacet
  facet normal -0 0 1
    outer loop
      vertex 64.5983 -61.2364 10
      vertex 65.4673 -62.0473 10
      vertex 66.0517 -60.7641 10
    endloop
  endfacet
  facet normal 0 0 1
    outer loop
      vertex 64.5983 -61.2364 10
      vertex 63.6907 -61.6418 10
      vertex 65.4673 -62.0473 10
    endloop
  endfacet
  facet normal 0 0 1
    outer loop
      vertex 59.6673 -55.7652 10
      vertex 63.6907 -61.6418 10
      vertex 64.5983 -61.2364 10
    endloop
  endfacet
  facet normal 0 0 1
    outer loop
      vertex 59.6673 -55.7652 10
      vertex 58.7596 -56.1707 10
      vertex 63.6907 -61.6418 10
    endloop
  endfacet
  facet normal 0 0 1
    outer loop
      vertex 47.8112 -44.9784 10
      vertex 58.7596 -56.1707 10
      vertex 59.6673 -55.7652 10
    endloop
  endfacet
  facet normal 0 0 1
    outer loop
      vertex 47.8112 -44.9784 10
      vertex 46.9036 -45.3839 10
      vertex 58.7596 -56.1707 10
    endloop
  endfacet
  facet normal 0 0 1
    outer loop
      vertex 43.6034 -41.4024 10
      vertex 46.9036 -45.3839 10
      vertex 47.8112 -44.9784 10
    endloop
  endfacet
  facet normal 0 0 1
    outer loop
      vertex 43.6034 -41.4024 10
      vertex 42.6958 -41.8079 10
      vertex 46.9036 -45.3839 10
    endloop
  endfacet
  facet normal 0 0 1
    outer loop
      vertex 24.8406 -27.1934 10
      vertex 42.6958 -41.8079 10
      vertex 43.6034 -41.4024 10
    endloop
  endfacet
  facet normal 0 0 1
    outer loop
      vertex 24.8406 -27.1934 10
      vertex 23.933 -27.5989 10
      vertex 42.6958 -41.8079 10
    endloop
  endfacet
  facet normal 0 0 1
    outer loop
      vertex 20.3179 -23.2127 10
      vertex 23.933 -27.5989 10
      vertex 24.8406 -27.1934 10
    endloop
  endfacet
  facet normal 0 0 1
    outer loop
      vertex 20.3179 -23.2127 10
      vertex 19.4103 -23.6182 10
      vertex 23.933 -27.5989 10
    endloop
  endfacet
  facet normal 0 0 1
    outer loop
      vertex 16.1211 -18.8841 10
      vertex 19.4103 -23.6182 10
      vertex 20.3179 -23.2127 10
    endloop
  endfacet
  facet normal 0 0 1
    outer loop
      vertex 16.1211 -18.8841 10
      vertex 15.2135 -19.2896 10
      vertex 19.4103 -23.6182 10
    endloop
  endfacet
  facet normal 0 0 1
    outer loop
      vertex 12.3839 -14.1123 10
      vertex 15.2135 -19.2896 10
      vertex 16.1211 -18.8841 10
    endloop
  endfacet
  facet normal 0 0 1
    outer loop
      vertex 11.4763 -14.5178 10
      vertex 12.3839 -14.1123 10
      vertex 11.4857 -12.876 10
    endloop
  endfacet
  facet normal 0 0 1
    outer loop
      vertex 12.3839 -14.1123 10
      vertex 11.4763 -14.5178 10
      vertex 15.2135 -19.2896 10
    endloop
  endfacet
  facet normal -0 0 1
    outer loop
      vertex 8.32507 -9.21509 10
      vertex 11.4857 -12.876 10
      vertex 8.33441 -7.57324 10
    endloop
  endfacet
  facet normal 0 0 1
    outer loop
      vertex 11.4857 -12.876 10
      vertex 8.32507 -9.21509 10
      vertex 11.4763 -14.5178 10
    endloop
  endfacet
  facet normal 0 0 1
    outer loop
      vertex 8.33441 -7.57324 10
      vertex 7.53441 -7.57324 10
      vertex 8.32507 -9.21509 10
    endloop
  endfacet
  facet normal 0 0 1
    outer loop
      vertex 5.90094 -1.64978 10
      vertex 7.53441 -7.57324 10
      vertex 8.33441 -7.57324 10
    endloop
  endfacet
  facet normal 0 0 1
    outer loop
      vertex 5.90094 -1.64978 10
      vertex 5.10094 -1.64978 10
      vertex 7.53441 -7.57324 10
    endloop
  endfacet
  facet normal 0 0 1
    outer loop
      vertex 4.31708 4.98596 10
      vertex 5.10094 -1.64978 10
      vertex 5.90094 -1.64978 10
    endloop
  endfacet
  facet normal 0 0 1
    outer loop
      vertex 4.31708 4.98596 10
      vertex 3.51707 4.98596 10
      vertex 5.10094 -1.64978 10
    endloop
  endfacet
  facet normal 0 0 1
    outer loop
      vertex 3.51707 4.98596 10
      vertex 4.31708 4.98596 10
      vertex 3.70917 12.4219 10
    endloop
  endfacet
  facet normal -0.742827 0.669484 0
    outer loop
      vertex 66.0517 -60.7641 5
      vertex 70.9827 -55.2929 10
      vertex 70.9827 -55.2929 5
    endloop
  endfacet
  facet normal -0.742827 0.669484 0
    outer loop
      vertex 70.9827 -55.2929 10
      vertex 66.0517 -60.7641 5
      vertex 66.0517 -60.7641 10
    endloop
  endfacet
  facet normal -0.666533 0.745476 0
    outer loop
      vertex 87.0466 -40.9301 5
      vertex 70.9827 -55.2929 10
      vertex 87.0466 -40.9301 10
    endloop
  endfacet
  facet normal -0.666533 0.745476 0
    outer loop
      vertex 70.9827 -55.2929 10
      vertex 87.0466 -40.9301 5
      vertex 70.9827 -55.2929 5
    endloop
  endfacet
  facet normal -0.603724 0.797193 0
    outer loop
      vertex 105.809 -26.7211 5
      vertex 87.0466 -40.9301 10
      vertex 105.809 -26.7211 10
    endloop
  endfacet
  facet normal -0.603724 0.797193 0
    outer loop
      vertex 87.0466 -40.9301 10
      vertex 105.809 -26.7211 5
      vertex 87.0466 -40.9301 5
    endloop
  endfacet
  facet normal -0.660671 0.750676 0
    outer loop
      vertex 110.332 -22.7404 5
      vertex 105.809 -26.7211 10
      vertex 110.332 -22.7404 10
    endloop
  endfacet
  facet normal -0.660671 0.750676 0
    outer loop
      vertex 105.809 -26.7211 10
      vertex 110.332 -22.7404 5
      vertex 105.809 -26.7211 5
    endloop
  endfacet
  facet normal -0.717936 0.696109 0
    outer loop
      vertex 110.332 -22.7404 5
      vertex 114.529 -18.4118 10
      vertex 114.529 -18.4118 5
    endloop
  endfacet
  facet normal -0.717936 0.696109 0
    outer loop
      vertex 114.529 -18.4118 10
      vertex 110.332 -22.7404 5
      vertex 110.332 -22.7404 10
    endloop
  endfacet
  facet normal -0.787295 0.616577 0
    outer loop
      vertex 114.529 -18.4118 5
      vertex 118.266 -13.6401 10
      vertex 118.266 -13.6401 5
    endloop
  endfacet
  facet normal -0.787295 0.616577 0
    outer loop
      vertex 118.266 -13.6401 10
      vertex 114.529 -18.4118 5
      vertex 114.529 -18.4118 10
    endloop
  endfacet
  facet normal -0.859677 0.510838 0
    outer loop
      vertex 118.266 -13.6401 5
      vertex 121.417 -8.33736 10
      vertex 121.417 -8.33736 5
    endloop
  endfacet
  facet normal -0.859677 0.510838 0
    outer loop
      vertex 121.417 -8.33736 10
      vertex 118.266 -13.6401 5
      vertex 118.266 -13.6401 10
    endloop
  endfacet
  facet normal -0.924957 0.380072 0
    outer loop
      vertex 121.417 -8.33736 5
      vertex 123.851 -2.41389 10
      vertex 123.851 -2.41389 5
    endloop
  endfacet
  facet normal -0.924957 0.380072 0
    outer loop
      vertex 123.851 -2.41389 10
      vertex 121.417 -8.33736 5
      vertex 121.417 -8.33736 10
    endloop
  endfacet
  facet normal -0.972672 0.232184 0
    outer loop
      vertex 123.851 -2.41389 5
      vertex 125.435 4.22185 10
      vertex 125.435 4.22185 5
    endloop
  endfacet
  facet normal -0.972672 0.232184 0
    outer loop
      vertex 125.435 4.22185 10
      vertex 123.851 -2.41389 5
      vertex 123.851 -2.41389 10
    endloop
  endfacet
  facet normal -0.996674 0.081493 0
    outer loop
      vertex 125.435 4.22185 5
      vertex 126.043 11.6578 10
      vertex 126.043 11.6578 5
    endloop
  endfacet
  facet normal -0.996674 0.081493 0
    outer loop
      vertex 126.043 11.6578 10
      vertex 125.435 4.22185 5
      vertex 125.435 4.22185 10
    endloop
  endfacet
  facet normal -1 0 0
    outer loop
      vertex 126.043 11.6578 5
      vertex 126.043 13.186 10
      vertex 126.043 13.186 5
    endloop
  endfacet
  facet normal -1 -0 0
    outer loop
      vertex 126.043 13.186 10
      vertex 126.043 11.6578 5
      vertex 126.043 11.6578 10
    endloop
  endfacet
  facet normal -0.995722 -0.0924032 0
    outer loop
      vertex 126.043 13.186 5
      vertex 125.112 23.2183 10
      vertex 125.112 23.2183 5
    endloop
  endfacet
  facet normal -0.995722 -0.0924032 0
    outer loop
      vertex 125.112 23.2183 10
      vertex 126.043 13.186 5
      vertex 126.043 13.186 10
    endloop
  endfacet
  facet normal -0.947245 -0.320511 0
    outer loop
      vertex 125.112 23.2183 5
      vertex 122.337 31.4196 10
      vertex 122.337 31.4196 5
    endloop
  endfacet
  facet normal -0.947245 -0.320511 0
    outer loop
      vertex 122.337 31.4196 10
      vertex 125.112 23.2183 5
      vertex 125.112 23.2183 10
    endloop
  endfacet
  facet normal -0.832158 -0.554539 0
    outer loop
      vertex 122.337 31.4196 5
      vertex 118.048 37.8558 10
      vertex 118.048 37.8558 5
    endloop
  endfacet
  facet normal -0.832158 -0.554539 0
    outer loop
      vertex 118.048 37.8558 10
      vertex 122.337 31.4196 5
      vertex 122.337 31.4196 10
    endloop
  endfacet
  facet normal -0.654423 -0.756129 0
    outer loop
      vertex 112.577 42.5909 5
      vertex 118.048 37.8558 10
      vertex 112.577 42.5909 10
    endloop
  endfacet
  facet normal -0.654423 -0.756129 -0
    outer loop
      vertex 118.048 37.8558 10
      vertex 112.577 42.5909 5
      vertex 118.048 37.8558 5
    endloop
  endfacet
  facet normal -0.439583 -0.898202 0
    outer loop
      vertex 106.254 45.6854 5
      vertex 112.577 42.5909 10
      vertex 106.254 45.6854 10
    endloop
  endfacet
  facet normal -0.439583 -0.898202 -0
    outer loop
      vertex 112.577 42.5909 10
      vertex 106.254 45.6854 5
      vertex 112.577 42.5909 5
    endloop
  endfacet
  facet normal -0.309071 -0.951039 0
    outer loop
      vertex 104.801 46.1576 5
      vertex 106.254 45.6854 10
      vertex 104.801 46.1576 10
    endloop
  endfacet
  facet normal -0.309071 -0.951039 -0
    outer loop
      vertex 106.254 45.6854 10
      vertex 104.801 46.1576 5
      vertex 106.254 45.6854 5
    endloop
  endfacet
  facet normal -0.216876 -0.976199 0
    outer loop
      vertex 97.9601 47.6774 5
      vertex 104.801 46.1576 10
      vertex 97.9601 47.6774 10
    endloop
  endfacet
  facet normal -0.216876 -0.976199 -0
    outer loop
      vertex 104.801 46.1576 10
      vertex 97.9601 47.6774 5
      vertex 104.801 46.1576 5
    endloop
  endfacet
  facet normal -0.00103876 -0.999999 0
    outer loop
      vertex 90.9325 47.6847 5
      vertex 97.9601 47.6774 10
      vertex 90.9325 47.6847 10
    endloop
  endfacet
  facet normal -0.00103876 -0.999999 -0
    outer loop
      vertex 97.9601 47.6774 10
      vertex 90.9325 47.6847 5
      vertex 97.9601 47.6774 5
    endloop
  endfacet
  facet normal 0.205162 -0.978728 0
    outer loop
      vertex 84.0496 46.2419 5
      vertex 90.9325 47.6847 10
      vertex 84.0496 46.2419 10
    endloop
  endfacet
  facet normal 0.205162 -0.978728 0
    outer loop
      vertex 90.9325 47.6847 10
      vertex 84.0496 46.2419 5
      vertex 90.9325 47.6847 5
    endloop
  endfacet
  facet normal 0.40393 -0.91479 0
    outer loop
      vertex 77.6427 43.4129 5
      vertex 84.0496 46.2419 10
      vertex 77.6427 43.4129 10
    endloop
  endfacet
  facet normal 0.40393 -0.91479 0
    outer loop
      vertex 84.0496 46.2419 10
      vertex 77.6427 43.4129 5
      vertex 84.0496 46.2419 5
    endloop
  endfacet
  facet normal 0.59554 -0.803326 0
    outer loop
      vertex 72.0434 39.2619 5
      vertex 77.6427 43.4129 10
      vertex 72.0434 39.2619 10
    endloop
  endfacet
  facet normal 0.59554 -0.803326 0
    outer loop
      vertex 77.6427 43.4129 10
      vertex 72.0434 39.2619 5
      vertex 77.6427 43.4129 5
    endloop
  endfacet
  facet normal 0.771738 -0.635941 0
    outer loop
      vertex 67.5847 33.8511 10
      vertex 72.0434 39.2619 5
      vertex 72.0434 39.2619 10
    endloop
  endfacet
  facet normal 0.771738 -0.635941 0
    outer loop
      vertex 72.0434 39.2619 5
      vertex 67.5847 33.8511 10
      vertex 67.5847 33.8511 5
    endloop
  endfacet
  facet normal 0.809047 -0.587744 0
    outer loop
      vertex 66.6865 32.6147 10
      vertex 67.5847 33.8511 5
      vertex 67.5847 33.8511 10
    endloop
  endfacet
  facet normal 0.809047 -0.587744 0
    outer loop
      vertex 67.5847 33.8511 5
      vertex 66.6865 32.6147 10
      vertex 66.6865 32.6147 5
    endloop
  endfacet
  facet normal 0.911218 -0.411924 0
    outer loop
      vertex 65.0486 28.9915 10
      vertex 66.6865 32.6147 5
      vertex 66.6865 32.6147 10
    endloop
  endfacet
  facet normal 0.911218 -0.411924 0
    outer loop
      vertex 66.6865 32.6147 5
      vertex 65.0486 28.9915 10
      vertex 65.0486 28.9915 5
    endloop
  endfacet
  facet normal -0.911223 -0.411913 0
    outer loop
      vertex 65.0486 28.9915 5
      vertex 63.0653 33.3789 10
      vertex 63.0653 33.3789 5
    endloop
  endfacet
  facet normal -0.911223 -0.411913 0
    outer loop
      vertex 63.0653 33.3789 10
      vertex 65.0486 28.9915 5
      vertex 65.0486 28.9915 10
    endloop
  endfacet
  facet normal -0.771732 -0.635948 0
    outer loop
      vertex 63.0653 33.3789 5
      vertex 58.6066 38.7896 10
      vertex 58.6066 38.7896 5
    endloop
  endfacet
  facet normal -0.771732 -0.635948 0
    outer loop
      vertex 58.6066 38.7896 10
      vertex 63.0653 33.3789 5
      vertex 63.0653 33.3789 10
    endloop
  endfacet
  facet normal -0.59554 -0.803326 0
    outer loop
      vertex 53.0073 42.9406 5
      vertex 58.6066 38.7896 10
      vertex 53.0073 42.9406 10
    endloop
  endfacet
  facet normal -0.59554 -0.803326 -0
    outer loop
      vertex 58.6066 38.7896 10
      vertex 53.0073 42.9406 5
      vertex 58.6066 38.7896 5
    endloop
  endfacet
  facet normal -0.40393 -0.91479 0
    outer loop
      vertex 46.6004 45.7696 5
      vertex 53.0073 42.9406 10
      vertex 46.6004 45.7696 10
    endloop
  endfacet
  facet normal -0.40393 -0.91479 -0
    outer loop
      vertex 53.0073 42.9406 10
      vertex 46.6004 45.7696 5
      vertex 53.0073 42.9406 5
    endloop
  endfacet
  facet normal -0.309054 -0.951045 0
    outer loop
      vertex 45.147 46.2419 5
      vertex 46.6004 45.7696 10
      vertex 45.147 46.2419 10
    endloop
  endfacet
  facet normal -0.309054 -0.951045 -0
    outer loop
      vertex 46.6004 45.7696 10
      vertex 45.147 46.2419 5
      vertex 46.6004 45.7696 5
    endloop
  endfacet
  facet normal -0.205162 -0.978728 0
    outer loop
      vertex 38.2641 47.6847 5
      vertex 45.147 46.2419 10
      vertex 38.2641 47.6847 10
    endloop
  endfacet
  facet normal -0.205162 -0.978728 -0
    outer loop
      vertex 45.147 46.2419 10
      vertex 38.2641 47.6847 5
      vertex 45.147 46.2419 5
    endloop
  endfacet
  facet normal 0.00103876 -0.999999 0
    outer loop
      vertex 31.2365 47.6774 5
      vertex 38.2641 47.6847 10
      vertex 31.2365 47.6774 10
    endloop
  endfacet
  facet normal 0.00103876 -0.999999 0
    outer loop
      vertex 38.2641 47.6847 10
      vertex 31.2365 47.6774 5
      vertex 38.2641 47.6847 5
    endloop
  endfacet
  facet normal 0.216876 -0.976199 0
    outer loop
      vertex 24.3956 46.1576 5
      vertex 31.2365 47.6774 10
      vertex 24.3956 46.1576 10
    endloop
  endfacet
  facet normal 0.216876 -0.976199 0
    outer loop
      vertex 31.2365 47.6774 10
      vertex 24.3956 46.1576 5
      vertex 31.2365 47.6774 5
    endloop
  endfacet
  facet normal 0.439606 -0.898191 0
    outer loop
      vertex 18.073 43.0631 5
      vertex 24.3956 46.1576 10
      vertex 18.073 43.0631 10
    endloop
  endfacet
  facet normal 0.439606 -0.898191 0
    outer loop
      vertex 24.3956 46.1576 10
      vertex 18.073 43.0631 5
      vertex 24.3956 46.1576 5
    endloop
  endfacet
  facet normal 0.654409 -0.756141 0
    outer loop
      vertex 12.6018 38.328 5
      vertex 18.073 43.0631 10
      vertex 12.6018 38.328 10
    endloop
  endfacet
  facet normal 0.654409 -0.756141 0
    outer loop
      vertex 18.073 43.0631 10
      vertex 12.6018 38.328 5
      vertex 18.073 43.0631 5
    endloop
  endfacet
  facet normal 0.809025 -0.587775 0
    outer loop
      vertex 11.7036 37.0917 10
      vertex 12.6018 38.328 5
      vertex 12.6018 38.328 10
    endloop
  endfacet
  facet normal 0.809025 -0.587775 0
    outer loop
      vertex 12.6018 38.328 5
      vertex 11.7036 37.0917 10
      vertex 11.7036 37.0917 5
    endloop
  endfacet
  facet normal 0.832195 -0.554484 0
    outer loop
      vertex 7.41522 30.6555 10
      vertex 11.7036 37.0917 5
      vertex 11.7036 37.0917 10
    endloop
  endfacet
  facet normal 0.832195 -0.554484 0
    outer loop
      vertex 11.7036 37.0917 5
      vertex 7.41522 30.6555 10
      vertex 7.41522 30.6555 5
    endloop
  endfacet
  facet normal 0.947214 -0.320602 0
    outer loop
      vertex 4.63934 22.4542 10
      vertex 7.41522 30.6555 5
      vertex 7.41522 30.6555 10
    endloop
  endfacet
  facet normal 0.947214 -0.320602 0
    outer loop
      vertex 7.41522 30.6555 5
      vertex 4.63934 22.4542 10
      vertex 4.63934 22.4542 5
    endloop
  endfacet
  facet normal 0.995729 -0.0923215 0
    outer loop
      vertex 3.70917 12.4219 10
      vertex 4.63934 22.4542 5
      vertex 4.63934 22.4542 10
    endloop
  endfacet
  facet normal 0.995729 -0.0923215 0
    outer loop
      vertex 4.63934 22.4542 5
      vertex 3.70917 12.4219 10
      vertex 3.70917 12.4219 5
    endloop
  endfacet
  facet normal 0.996675 0.0814811 0
    outer loop
      vertex 4.31708 4.98596 10
      vertex 3.70917 12.4219 5
      vertex 3.70917 12.4219 10
    endloop
  endfacet
  facet normal 0.996675 0.0814811 0
    outer loop
      vertex 3.70917 12.4219 5
      vertex 4.31708 4.98596 10
      vertex 4.31708 4.98596 5
    endloop
  endfacet
  facet normal 0.972677 0.232165 0
    outer loop
      vertex 5.90094 -1.64978 10
      vertex 4.31708 4.98596 5
      vertex 4.31708 4.98596 10
    endloop
  endfacet
  facet normal 0.972677 0.232165 0
    outer loop
      vertex 4.31708 4.98596 5
      vertex 5.90094 -1.64978 10
      vertex 5.90094 -1.64978 5
    endloop
  endfacet
  facet normal 0.924986 0.380002 0
    outer loop
      vertex 8.33441 -7.57324 10
      vertex 5.90094 -1.64978 5
      vertex 5.90094 -1.64978 10
    endloop
  endfacet
  facet normal 0.924986 0.380002 0
    outer loop
      vertex 5.90094 -1.64978 5
      vertex 8.33441 -7.57324 10
      vertex 8.33441 -7.57324 5
    endloop
  endfacet
  facet normal 0.859657 0.510871 0
    outer loop
      vertex 11.4857 -12.876 10
      vertex 8.33441 -7.57324 5
      vertex 8.33441 -7.57324 10
    endloop
  endfacet
  facet normal 0.859657 0.510871 0
    outer loop
      vertex 8.33441 -7.57324 5
      vertex 11.4857 -12.876 10
      vertex 11.4857 -12.876 5
    endloop
  endfacet
  facet normal 0.809025 0.587775 0
    outer loop
      vertex 12.3839 -14.1123 10
      vertex 11.4857 -12.876 5
      vertex 11.4857 -12.876 10
    endloop
  endfacet
  facet normal 0.809025 0.587775 0
    outer loop
      vertex 11.4857 -12.876 5
      vertex 12.3839 -14.1123 10
      vertex 12.3839 -14.1123 5
    endloop
  endfacet
  facet normal 0.787285 0.616589 0
    outer loop
      vertex 16.1211 -18.8841 10
      vertex 12.3839 -14.1123 5
      vertex 12.3839 -14.1123 10
    endloop
  endfacet
  facet normal 0.787285 0.616589 0
    outer loop
      vertex 12.3839 -14.1123 5
      vertex 16.1211 -18.8841 10
      vertex 16.1211 -18.8841 5
    endloop
  endfacet
  facet normal 0.717953 0.696092 0
    outer loop
      vertex 20.3179 -23.2127 10
      vertex 16.1211 -18.8841 5
      vertex 16.1211 -18.8841 10
    endloop
  endfacet
  facet normal 0.717953 0.696092 0
    outer loop
      vertex 16.1211 -18.8841 5
      vertex 20.3179 -23.2127 10
      vertex 20.3179 -23.2127 5
    endloop
  endfacet
  facet normal 0.660696 0.750654 -0
    outer loop
      vertex 24.8406 -27.1934 5
      vertex 20.3179 -23.2127 10
      vertex 24.8406 -27.1934 10
    endloop
  endfacet
  facet normal 0.660696 0.750654 0
    outer loop
      vertex 20.3179 -23.2127 10
      vertex 24.8406 -27.1934 5
      vertex 20.3179 -23.2127 5
    endloop
  endfacet
  facet normal 0.603716 0.797199 -0
    outer loop
      vertex 43.6034 -41.4024 5
      vertex 24.8406 -27.1934 10
      vertex 43.6034 -41.4024 10
    endloop
  endfacet
  facet normal 0.603716 0.797199 0
    outer loop
      vertex 24.8406 -27.1934 10
      vertex 43.6034 -41.4024 5
      vertex 24.8406 -27.1934 5
    endloop
  endfacet
  facet normal 0.647582 0.761996 -0
    outer loop
      vertex 47.8112 -44.9784 5
      vertex 43.6034 -41.4024 10
      vertex 47.8112 -44.9784 10
    endloop
  endfacet
  facet normal 0.647582 0.761996 0
    outer loop
      vertex 43.6034 -41.4024 10
      vertex 47.8112 -44.9784 5
      vertex 43.6034 -41.4024 5
    endloop
  endfacet
  facet normal 0.672964 0.739675 -0
    outer loop
      vertex 59.6673 -55.7652 5
      vertex 47.8112 -44.9784 10
      vertex 59.6673 -55.7652 10
    endloop
  endfacet
  facet normal 0.672964 0.739675 0
    outer loop
      vertex 47.8112 -44.9784 10
      vertex 59.6673 -55.7652 5
      vertex 47.8112 -44.9784 5
    endloop
  endfacet
  facet normal 0.742827 0.669484 0
    outer loop
      vertex 64.5983 -61.2364 10
      vertex 59.6673 -55.7652 5
      vertex 59.6673 -55.7652 10
    endloop
  endfacet
  facet normal 0.742827 0.669484 0
    outer loop
      vertex 59.6673 -55.7652 5
      vertex 64.5983 -61.2364 10
      vertex 64.5983 -61.2364 5
    endloop
  endfacet
  facet normal -0.309054 0.951045 0
    outer loop
      vertex 66.0517 -60.7641 5
      vertex 64.5983 -61.2364 10
      vertex 66.0517 -60.7641 10
    endloop
  endfacet
  facet normal -0.309054 0.951045 0
    outer loop
      vertex 64.5983 -61.2364 10
      vertex 66.0517 -60.7641 5
      vertex 64.5983 -61.2364 5
    endloop
  endfacet
endsolid OpenSCAD_Model
