solid OpenSCAD_Model
  facet normal 0 0 -1
    outer loop
      vertex 143.147 78.6468 0
      vertex 146 81.5 0
      vertex 145.427 79.7366 0
    endloop
  endfacet
  facet normal 0 0 -1
    outer loop
      vertex 146 81.5 0
      vertex 97.5 96.5 0
      vertex 146 145.5 0
    endloop
  endfacet
  facet normal 0 0 -1
    outer loop
      vertex 143.147 78.6468 0
      vertex 145.427 79.7366 0
      vertex 143.927 78.6468 0
    endloop
  endfacet
  facet normal -0 0 -1
    outer loop
      vertex 146 81.5 0
      vertex 143.147 78.6468 0
      vertex 97.5 96.5 0
    endloop
  endfacet
  facet normal 0 0 -1
    outer loop
      vertex 145.427 147.263 0
      vertex 143.147 148.353 0
      vertex 143.927 148.353 0
    endloop
  endfacet
  facet normal 0 -0 -1
    outer loop
      vertex 143.147 148.353 0
      vertex 146 145.5 0
      vertex 97.5 96.5 0
    endloop
  endfacet
  facet normal 0 0 -1
    outer loop
      vertex 97.5 96.5 0
      vertex 143.147 78.6468 0
      vertex 143 78.5 0
    endloop
  endfacet
  facet normal 0 0 -1
    outer loop
      vertex 146 145.5 0
      vertex 143.147 148.353 0
      vertex 145.427 147.263 0
    endloop
  endfacet
  facet normal 0 0 -1
    outer loop
      vertex 97.5 96.5 0
      vertex 143 78.5 0
      vertex 97.5 86.5 0
    endloop
  endfacet
  facet normal 0 0 -1
    outer loop
      vertex 3 78.5 0
      vertex 97.5 86.5 0
      vertex 143 78.5 0
    endloop
  endfacet
  facet normal 0 0 -1
    outer loop
      vertex 2.85318 78.6468 0
      vertex 12.5 86.5 0
      vertex 3 78.5 0
    endloop
  endfacet
  facet normal -0 0 -1
    outer loop
      vertex 97.5 86.5 0
      vertex 3 78.5 0
      vertex 12.5 86.5 0
    endloop
  endfacet
  facet normal -0 0 -1
    outer loop
      vertex 143.147 148.353 0
      vertex 97.5 96.5 0
      vertex 143 148.5 0
    endloop
  endfacet
  facet normal 0 0 -1
    outer loop
      vertex 3 148.5 0
      vertex 97.5 96.5 0
      vertex 12.5 96.5 0
    endloop
  endfacet
  facet normal 0 0 -1
    outer loop
      vertex 97.5 96.5 0
      vertex 3 148.5 0
      vertex 143 148.5 0
    endloop
  endfacet
  facet normal 0 0 -1
    outer loop
      vertex 0 81.5 0
      vertex 12.5 86.5 0
      vertex 2.85318 78.6468 0
    endloop
  endfacet
  facet normal -0 0 -1
    outer loop
      vertex 12.5 86.5 0
      vertex 0 81.5 0
      vertex 12.5 96.5 0
    endloop
  endfacet
  facet normal 0 0 -1
    outer loop
      vertex 12.5 96.5 0
      vertex 2.85316 148.353 0
      vertex 3 148.5 0
    endloop
  endfacet
  facet normal 0 0 -1
    outer loop
      vertex 0.572937 79.7366 0
      vertex 2.85318 78.6468 0
      vertex 2.07294 78.6468 0
    endloop
  endfacet
  facet normal 0 0 -1
    outer loop
      vertex 0 145.5 0
      vertex 12.5 96.5 0
      vertex 0 81.5 0
    endloop
  endfacet
  facet normal 0 0 -1
    outer loop
      vertex 2.85318 78.6468 0
      vertex 0.572937 79.7366 0
      vertex 0 81.5 0
    endloop
  endfacet
  facet normal 0 0 -1
    outer loop
      vertex 12.5 96.5 0
      vertex 0 145.5 0
      vertex 2.85316 148.353 0
    endloop
  endfacet
  facet normal 0 -0 -1
    outer loop
      vertex 0.572937 147.263 0
      vertex 2.85316 148.353 0
      vertex 0 145.5 0
    endloop
  endfacet
  facet normal -0 0 -1
    outer loop
      vertex 2.85316 148.353 0
      vertex 0.572937 147.263 0
      vertex 2.07294 148.353 0
    endloop
  endfacet
  facet normal 0 0 1
    outer loop
      vertex 143.147 148.353 1.5
      vertex 146 145.5 1.5
      vertex 145.427 147.263 1.5
    endloop
  endfacet
  facet normal 0 0 1
    outer loop
      vertex 146 145.5 1.5
      vertex 97.5 96.5 1.5
      vertex 146 81.5 1.5
    endloop
  endfacet
  facet normal -0 0 1
    outer loop
      vertex 143.147 148.353 1.5
      vertex 145.427 147.263 1.5
      vertex 143.927 148.353 1.5
    endloop
  endfacet
  facet normal 0 0 1
    outer loop
      vertex 146 145.5 1.5
      vertex 143.147 148.353 1.5
      vertex 97.5 96.5 1.5
    endloop
  endfacet
  facet normal 0 -0 1
    outer loop
      vertex 143.147 78.6468 1.5
      vertex 146 81.5 1.5
      vertex 97.5 96.5 1.5
    endloop
  endfacet
  facet normal 0 0 1
    outer loop
      vertex 145.427 79.7366 1.5
      vertex 143.147 78.6468 1.5
      vertex 143.927 78.6468 1.5
    endloop
  endfacet
  facet normal 0 0 1
    outer loop
      vertex 97.5 96.5 1.5
      vertex 143.147 148.353 1.5
      vertex 143 148.5 1.5
    endloop
  endfacet
  facet normal 0 0 1
    outer loop
      vertex 146 81.5 1.5
      vertex 143.147 78.6468 1.5
      vertex 145.427 79.7366 1.5
    endloop
  endfacet
  facet normal 0 0 1
    outer loop
      vertex 143.147 78.6468 1.5
      vertex 97.5 96.5 1.5
      vertex 143 78.5 1.5
    endloop
  endfacet
  facet normal -0 0 1
    outer loop
      vertex 3 148.5 1.5
      vertex 97.5 96.5 1.5
      vertex 143 148.5 1.5
    endloop
  endfacet
  facet normal -0 0 1
    outer loop
      vertex 2.85316 148.353 1.5
      vertex 12.5 96.5 1.5
      vertex 3 148.5 1.5
    endloop
  endfacet
  facet normal 0 0 1
    outer loop
      vertex 97.5 96.5 1.5
      vertex 3 148.5 1.5
      vertex 12.5 96.5 1.5
    endloop
  endfacet
  facet normal -0 0 1
    outer loop
      vertex 97.5 86.5 1.5
      vertex 143 78.5 1.5
      vertex 97.5 96.5 1.5
    endloop
  endfacet
  facet normal 0 0 1
    outer loop
      vertex 3 78.5 1.5
      vertex 97.5 86.5 1.5
      vertex 12.5 86.5 1.5
    endloop
  endfacet
  facet normal 0 0 1
    outer loop
      vertex 97.5 86.5 1.5
      vertex 3 78.5 1.5
      vertex 143 78.5 1.5
    endloop
  endfacet
  facet normal -0 0 1
    outer loop
      vertex 0 145.5 1.5
      vertex 12.5 96.5 1.5
      vertex 2.85316 148.353 1.5
    endloop
  endfacet
  facet normal 0 0 1
    outer loop
      vertex 12.5 86.5 1.5
      vertex 2.85318 78.6468 1.5
      vertex 3 78.5 1.5
    endloop
  endfacet
  facet normal 0 0 1
    outer loop
      vertex 0 81.5 1.5
      vertex 12.5 96.5 1.5
      vertex 0 145.5 1.5
    endloop
  endfacet
  facet normal 0 0 1
    outer loop
      vertex 0.572937 147.263 1.5
      vertex 2.85316 148.353 1.5
      vertex 2.07294 148.353 1.5
    endloop
  endfacet
  facet normal 0 0 1
    outer loop
      vertex 12.5 96.5 1.5
      vertex 0 81.5 1.5
      vertex 12.5 86.5 1.5
    endloop
  endfacet
  facet normal 0 0 1
    outer loop
      vertex 2.85316 148.353 1.5
      vertex 0.572937 147.263 1.5
      vertex 0 145.5 1.5
    endloop
  endfacet
  facet normal 0 0 1
    outer loop
      vertex 12.5 86.5 1.5
      vertex 0 81.5 1.5
      vertex 2.85318 78.6468 1.5
    endloop
  endfacet
  facet normal -0 -0 1
    outer loop
      vertex 0.572937 79.7366 1.5
      vertex 2.85318 78.6468 1.5
      vertex 0 81.5 1.5
    endloop
  endfacet
  facet normal 0 0 1
    outer loop
      vertex 2.85318 78.6468 1.5
      vertex 0.572937 79.7366 1.5
      vertex 2.07294 78.6468 1.5
    endloop
  endfacet
  facet normal 0 -1 0
    outer loop
      vertex 143.147 78.6468 0
      vertex 143.927 78.6468 1.5
      vertex 143.147 78.6468 1.5
    endloop
  endfacet
  facet normal 0 -1 -0
    outer loop
      vertex 143.927 78.6468 1.5
      vertex 143.147 78.6468 0
      vertex 143.927 78.6468 0
    endloop
  endfacet
  facet normal 0.587785 -0.809017 0
    outer loop
      vertex 143.927 78.6468 0
      vertex 145.427 79.7366 1.5
      vertex 143.927 78.6468 1.5
    endloop
  endfacet
  facet normal 0.587785 -0.809017 0
    outer loop
      vertex 145.427 79.7366 1.5
      vertex 143.927 78.6468 0
      vertex 145.427 79.7366 0
    endloop
  endfacet
  facet normal 0.951057 -0.309017 0
    outer loop
      vertex 145.427 79.7366 1.5
      vertex 146 81.5 0
      vertex 146 81.5 1.5
    endloop
  endfacet
  facet normal 0.951057 -0.309017 0
    outer loop
      vertex 146 81.5 0
      vertex 145.427 79.7366 1.5
      vertex 145.427 79.7366 0
    endloop
  endfacet
  facet normal 1 -0 0
    outer loop
      vertex 146 81.5 1.5
      vertex 146 145.5 0
      vertex 146 145.5 1.5
    endloop
  endfacet
  facet normal 1 0 0
    outer loop
      vertex 146 145.5 0
      vertex 146 81.5 1.5
      vertex 146 81.5 0
    endloop
  endfacet
  facet normal 0.951056 0.309019 0
    outer loop
      vertex 146 145.5 1.5
      vertex 145.427 147.263 0
      vertex 145.427 147.263 1.5
    endloop
  endfacet
  facet normal 0.951056 0.309019 0
    outer loop
      vertex 145.427 147.263 0
      vertex 146 145.5 1.5
      vertex 146 145.5 0
    endloop
  endfacet
  facet normal 0.587785 0.809017 -0
    outer loop
      vertex 145.427 147.263 0
      vertex 143.927 148.353 1.5
      vertex 145.427 147.263 1.5
    endloop
  endfacet
  facet normal 0.587785 0.809017 0
    outer loop
      vertex 143.927 148.353 1.5
      vertex 145.427 147.263 0
      vertex 143.927 148.353 0
    endloop
  endfacet
  facet normal 0 1 -0
    outer loop
      vertex 143.927 148.353 0
      vertex 143.147 148.353 1.5
      vertex 143.927 148.353 1.5
    endloop
  endfacet
  facet normal 0 1 0
    outer loop
      vertex 143.147 148.353 1.5
      vertex 143.927 148.353 0
      vertex 143.147 148.353 0
    endloop
  endfacet
  facet normal 0.707107 0.707107 0
    outer loop
      vertex 143.147 148.353 1.5
      vertex 143 148.5 0
      vertex 143 148.5 1.5
    endloop
  endfacet
  facet normal 0.707107 0.707107 0
    outer loop
      vertex 143 148.5 0
      vertex 143.147 148.353 1.5
      vertex 143.147 148.353 0
    endloop
  endfacet
  facet normal 0 1 -0
    outer loop
      vertex 143 148.5 0
      vertex 3 148.5 1.5
      vertex 143 148.5 1.5
    endloop
  endfacet
  facet normal 0 1 0
    outer loop
      vertex 3 148.5 1.5
      vertex 143 148.5 0
      vertex 3 148.5 0
    endloop
  endfacet
  facet normal -0.707107 0.707107 0
    outer loop
      vertex 2.85316 148.353 0
      vertex 3 148.5 1.5
      vertex 3 148.5 0
    endloop
  endfacet
  facet normal -0.707107 0.707107 0
    outer loop
      vertex 3 148.5 1.5
      vertex 2.85316 148.353 0
      vertex 2.85316 148.353 1.5
    endloop
  endfacet
  facet normal 0 1 -0
    outer loop
      vertex 2.85316 148.353 0
      vertex 2.07294 148.353 1.5
      vertex 2.85316 148.353 1.5
    endloop
  endfacet
  facet normal 0 1 0
    outer loop
      vertex 2.07294 148.353 1.5
      vertex 2.85316 148.353 0
      vertex 2.07294 148.353 0
    endloop
  endfacet
  facet normal -0.587785 0.809017 0
    outer loop
      vertex 2.07294 148.353 0
      vertex 0.572937 147.263 1.5
      vertex 2.07294 148.353 1.5
    endloop
  endfacet
  facet normal -0.587785 0.809017 0
    outer loop
      vertex 0.572937 147.263 1.5
      vertex 2.07294 148.353 0
      vertex 0.572937 147.263 0
    endloop
  endfacet
  facet normal -0.951058 0.309012 0
    outer loop
      vertex 0 145.5 0
      vertex 0.572937 147.263 1.5
      vertex 0.572937 147.263 0
    endloop
  endfacet
  facet normal -0.951058 0.309012 0
    outer loop
      vertex 0.572937 147.263 1.5
      vertex 0 145.5 0
      vertex 0 145.5 1.5
    endloop
  endfacet
  facet normal -1 0 0
    outer loop
      vertex 0 81.5 0
      vertex 0 145.5 1.5
      vertex 0 145.5 0
    endloop
  endfacet
  facet normal -1 -0 0
    outer loop
      vertex 0 145.5 1.5
      vertex 0 81.5 0
      vertex 0 81.5 1.5
    endloop
  endfacet
  facet normal -0.951059 -0.309009 0
    outer loop
      vertex 0.572937 79.7366 0
      vertex 0 81.5 1.5
      vertex 0 81.5 0
    endloop
  endfacet
  facet normal -0.951059 -0.309009 0
    outer loop
      vertex 0 81.5 1.5
      vertex 0.572937 79.7366 0
      vertex 0.572937 79.7366 1.5
    endloop
  endfacet
  facet normal -0.587785 -0.809017 0
    outer loop
      vertex 0.572937 79.7366 0
      vertex 2.07294 78.6468 1.5
      vertex 0.572937 79.7366 1.5
    endloop
  endfacet
  facet normal -0.587785 -0.809017 -0
    outer loop
      vertex 2.07294 78.6468 1.5
      vertex 0.572937 79.7366 0
      vertex 2.07294 78.6468 0
    endloop
  endfacet
  facet normal 0 -1 0
    outer loop
      vertex 2.07294 78.6468 0
      vertex 2.85318 78.6468 1.5
      vertex 2.07294 78.6468 1.5
    endloop
  endfacet
  facet normal 0 -1 -0
    outer loop
      vertex 2.85318 78.6468 1.5
      vertex 2.07294 78.6468 0
      vertex 2.85318 78.6468 0
    endloop
  endfacet
  facet normal -0.707107 -0.707107 0
    outer loop
      vertex 3 78.5 0
      vertex 2.85318 78.6468 1.5
      vertex 2.85318 78.6468 0
    endloop
  endfacet
  facet normal -0.707107 -0.707107 0
    outer loop
      vertex 2.85318 78.6468 1.5
      vertex 3 78.5 0
      vertex 3 78.5 1.5
    endloop
  endfacet
  facet normal 0 -1 0
    outer loop
      vertex 3 78.5 0
      vertex 143 78.5 1.5
      vertex 3 78.5 1.5
    endloop
  endfacet
  facet normal 0 -1 -0
    outer loop
      vertex 143 78.5 1.5
      vertex 3 78.5 0
      vertex 143 78.5 0
    endloop
  endfacet
  facet normal 0.707107 -0.707107 0
    outer loop
      vertex 143 78.5 1.5
      vertex 143.147 78.6468 0
      vertex 143.147 78.6468 1.5
    endloop
  endfacet
  facet normal 0.707107 -0.707107 0
    outer loop
      vertex 143.147 78.6468 0
      vertex 143 78.5 1.5
      vertex 143 78.5 0
    endloop
  endfacet
  facet normal 1 -0 0
    outer loop
      vertex 12.5 86.5 1.5
      vertex 12.5 96.5 0
      vertex 12.5 96.5 1.5
    endloop
  endfacet
  facet normal 1 0 0
    outer loop
      vertex 12.5 96.5 0
      vertex 12.5 86.5 1.5
      vertex 12.5 86.5 0
    endloop
  endfacet
  facet normal -1 0 0
    outer loop
      vertex 97.5 86.5 0
      vertex 97.5 96.5 1.5
      vertex 97.5 96.5 0
    endloop
  endfacet
  facet normal -1 -0 0
    outer loop
      vertex 97.5 96.5 1.5
      vertex 97.5 86.5 0
      vertex 97.5 86.5 1.5
    endloop
  endfacet
  facet normal 0 -1 0
    outer loop
      vertex 12.5 96.5 0
      vertex 97.5 96.5 1.5
      vertex 12.5 96.5 1.5
    endloop
  endfacet
  facet normal 0 -1 -0
    outer loop
      vertex 97.5 96.5 1.5
      vertex 12.5 96.5 0
      vertex 97.5 96.5 0
    endloop
  endfacet
  facet normal 0 1 -0
    outer loop
      vertex 97.5 86.5 0
      vertex 12.5 86.5 1.5
      vertex 97.5 86.5 1.5
    endloop
  endfacet
  facet normal 0 1 0
    outer loop
      vertex 12.5 86.5 1.5
      vertex 97.5 86.5 0
      vertex 12.5 86.5 0
    endloop
  endfacet
endsolid OpenSCAD_Model
