solid OpenSCAD_Model
  facet normal 0 0 -1
    outer loop
      vertex 144.147 0.14682 0
      vertex 147 3 0
      vertex 146.427 1.23663 0
    endloop
  endfacet
  facet normal 0 0 -1
    outer loop
      vertex 147 3 0
      vertex 142 42.5 0
      vertex 147 82 0
    endloop
  endfacet
  facet normal 0 0 -1
    outer loop
      vertex 144.147 0.14682 0
      vertex 146.427 1.23663 0
      vertex 144.927 0.14682 0
    endloop
  endfacet
  facet normal 0 0 -1
    outer loop
      vertex 141.786 44.5375 0
      vertex 147 82 0
      vertex 142 42.5 0
    endloop
  endfacet
  facet normal 0 0 -1
    outer loop
      vertex 141.153 46.486 0
      vertex 147 82 0
      vertex 141.786 44.5375 0
    endloop
  endfacet
  facet normal 0 0 -1
    outer loop
      vertex 133.224 32.7537 0
      vertex 147 3 0
      vertex 144.147 0.14682 0
    endloop
  endfacet
  facet normal 0 0 -1
    outer loop
      vertex 131.176 32.7537 0
      vertex 144.147 0.14682 0
      vertex 144 0 0
    endloop
  endfacet
  facet normal 0 0 -1
    outer loop
      vertex 140.128 48.2603 0
      vertex 147 82 0
      vertex 141.153 46.486 0
    endloop
  endfacet
  facet normal 0 0 -1
    outer loop
      vertex 138.757 49.7828 0
      vertex 147 82 0
      vertex 140.128 48.2603 0
    endloop
  endfacet
  facet normal 0 0 -1
    outer loop
      vertex 147 3 0
      vertex 141.786 40.4625 0
      vertex 142 42.5 0
    endloop
  endfacet
  facet normal 0 0 -1
    outer loop
      vertex 147 3 0
      vertex 141.153 38.514 0
      vertex 141.786 40.4625 0
    endloop
  endfacet
  facet normal 0 0 -1
    outer loop
      vertex 147 3 0
      vertex 140.128 36.7397 0
      vertex 141.153 38.514 0
    endloop
  endfacet
  facet normal 0 0 -1
    outer loop
      vertex 147 3 0
      vertex 138.757 35.2172 0
      vertex 140.128 36.7397 0
    endloop
  endfacet
  facet normal 0 0 -1
    outer loop
      vertex 147 3 0
      vertex 137.1 34.013 0
      vertex 138.757 35.2172 0
    endloop
  endfacet
  facet normal 0 0 -1
    outer loop
      vertex 147 3 0
      vertex 135.228 33.1796 0
      vertex 137.1 34.013 0
    endloop
  endfacet
  facet normal 0 0 -1
    outer loop
      vertex 147 3 0
      vertex 133.224 32.7537 0
      vertex 135.228 33.1796 0
    endloop
  endfacet
  facet normal 0 0 -1
    outer loop
      vertex 144.147 0.14682 0
      vertex 131.176 32.7537 0
      vertex 133.224 32.7537 0
    endloop
  endfacet
  facet normal 0 0 -1
    outer loop
      vertex 144 0 0
      vertex 129.172 33.1796 0
      vertex 131.176 32.7537 0
    endloop
  endfacet
  facet normal 0 0 -1
    outer loop
      vertex 105.5 20 0
      vertex 129.172 33.1796 0
      vertex 144 0 0
    endloop
  endfacet
  facet normal -0 0 -1
    outer loop
      vertex 129.172 33.1796 0
      vertex 105.5 20 0
      vertex 127.3 34.013 0
    endloop
  endfacet
  facet normal -0 0 -1
    outer loop
      vertex 127.3 34.013 0
      vertex 105.5 20 0
      vertex 125.643 35.2172 0
    endloop
  endfacet
  facet normal -0 0 -1
    outer loop
      vertex 125.643 35.2172 0
      vertex 105.5 20 0
      vertex 124.272 36.7397 0
    endloop
  endfacet
  facet normal -0 0 -1
    outer loop
      vertex 122.614 40.4625 0
      vertex 105.5 20 0
      vertex 122.4 42.5 0
    endloop
  endfacet
  facet normal -0 0 -1
    outer loop
      vertex 123.247 38.514 0
      vertex 105.5 20 0
      vertex 122.614 40.4625 0
    endloop
  endfacet
  facet normal -0 0 -1
    outer loop
      vertex 124.272 36.7397 0
      vertex 105.5 20 0
      vertex 123.247 38.514 0
    endloop
  endfacet
  facet normal 0 0 -1
    outer loop
      vertex 3 0 0
      vertex 105.5 20 0
      vertex 144 0 0
    endloop
  endfacet
  facet normal 0 0 -1
    outer loop
      vertex 2.85318 0.14682 0
      vertex 21.5 20 0
      vertex 3 0 0
    endloop
  endfacet
  facet normal -0 0 -1
    outer loop
      vertex 105.5 20 0
      vertex 3 0 0
      vertex 21.5 20 0
    endloop
  endfacet
  facet normal 0 0 -1
    outer loop
      vertex 137.1 50.987 0
      vertex 147 82 0
      vertex 138.757 49.7828 0
    endloop
  endfacet
  facet normal 0 0 -1
    outer loop
      vertex 135.228 51.8204 0
      vertex 147 82 0
      vertex 137.1 50.987 0
    endloop
  endfacet
  facet normal 0 0 -1
    outer loop
      vertex 133.224 52.2463 0
      vertex 147 82 0
      vertex 135.228 51.8204 0
    endloop
  endfacet
  facet normal 0 0 -1
    outer loop
      vertex 146.427 83.7634 0
      vertex 144.147 84.8532 0
      vertex 144.927 84.8532 0
    endloop
  endfacet
  facet normal 0 0 -1
    outer loop
      vertex 147 82 0
      vertex 144.147 84.8532 0
      vertex 146.427 83.7634 0
    endloop
  endfacet
  facet normal -0 0 -1
    outer loop
      vertex 147 82 0
      vertex 133.224 52.2463 0
      vertex 144.147 84.8532 0
    endloop
  endfacet
  facet normal 0 0 -1
    outer loop
      vertex 131.176 52.2463 0
      vertex 144.147 84.8532 0
      vertex 133.224 52.2463 0
    endloop
  endfacet
  facet normal -0 0 -1
    outer loop
      vertex 144.147 84.8532 0
      vertex 131.176 52.2463 0
      vertex 144 85 0
    endloop
  endfacet
  facet normal 0 0 -1
    outer loop
      vertex 105.5 70 0
      vertex 131.176 52.2463 0
      vertex 129.172 51.8204 0
    endloop
  endfacet
  facet normal 0 0 -1
    outer loop
      vertex 105.5 70 0
      vertex 129.172 51.8204 0
      vertex 127.3 50.987 0
    endloop
  endfacet
  facet normal 0 0 -1
    outer loop
      vertex 105.5 70 0
      vertex 127.3 50.987 0
      vertex 125.643 49.7828 0
    endloop
  endfacet
  facet normal 0 0 -1
    outer loop
      vertex 105.5 70 0
      vertex 125.643 49.7828 0
      vertex 124.272 48.2603 0
    endloop
  endfacet
  facet normal 0 0 -1
    outer loop
      vertex 105.5 70 0
      vertex 124.272 48.2603 0
      vertex 123.247 46.486 0
    endloop
  endfacet
  facet normal 0 0 -1
    outer loop
      vertex 105.5 70 0
      vertex 122.4 42.5 0
      vertex 105.5 20 0
    endloop
  endfacet
  facet normal 0 0 -1
    outer loop
      vertex 122.4 42.5 0
      vertex 105.5 70 0
      vertex 122.614 44.5375 0
    endloop
  endfacet
  facet normal 0 0 -1
    outer loop
      vertex 122.614 44.5375 0
      vertex 105.5 70 0
      vertex 123.247 46.486 0
    endloop
  endfacet
  facet normal 0 0 -1
    outer loop
      vertex 131.176 52.2463 0
      vertex 105.5 70 0
      vertex 144 85 0
    endloop
  endfacet
  facet normal 0 0 -1
    outer loop
      vertex 3 85 0
      vertex 105.5 70 0
      vertex 21.5 70 0
    endloop
  endfacet
  facet normal 0 0 -1
    outer loop
      vertex 105.5 70 0
      vertex 3 85 0
      vertex 144 85 0
    endloop
  endfacet
  facet normal 0 0 -1
    outer loop
      vertex 0 3 0
      vertex 21.5 20 0
      vertex 2.85318 0.14682 0
    endloop
  endfacet
  facet normal 0 0 -1
    outer loop
      vertex 0 82 0
      vertex 21.5 20 0
      vertex 0 3 0
    endloop
  endfacet
  facet normal 0 0 -1
    outer loop
      vertex 21.5 70 0
      vertex 2.85316 84.8532 0
      vertex 3 85 0
    endloop
  endfacet
  facet normal 0 0 -1
    outer loop
      vertex 0.572937 1.23663 0
      vertex 2.85318 0.14682 0
      vertex 2.07294 0.14682 0
    endloop
  endfacet
  facet normal 0 0 -1
    outer loop
      vertex 21.5 20 0
      vertex 0 82 0
      vertex 21.5 70 0
    endloop
  endfacet
  facet normal 0 0 -1
    outer loop
      vertex 2.85318 0.14682 0
      vertex 0.572937 1.23663 0
      vertex 0 3 0
    endloop
  endfacet
  facet normal 0 0 -1
    outer loop
      vertex 21.5 70 0
      vertex 0 82 0
      vertex 2.85316 84.8532 0
    endloop
  endfacet
  facet normal 0 -0 -1
    outer loop
      vertex 0.572937 83.7634 0
      vertex 2.85316 84.8532 0
      vertex 0 82 0
    endloop
  endfacet
  facet normal -0 0 -1
    outer loop
      vertex 2.85316 84.8532 0
      vertex 0.572937 83.7634 0
      vertex 2.07294 84.8532 0
    endloop
  endfacet
  facet normal -0 0 1
    outer loop
      vertex 0 27.1573 90
      vertex 2 5 90
      vertex 2 27.1573 90
    endloop
  endfacet
  facet normal 0 0 1
    outer loop
      vertex 2 5 90
      vertex 0 27.1573 90
      vertex 0 3 90
    endloop
  endfacet
  facet normal 0 0 1
    outer loop
      vertex 2 5 90
      vertex 0 3 90
      vertex 0.572937 1.23663 90
    endloop
  endfacet
  facet normal -0 0 1
    outer loop
      vertex 145 5 90
      vertex 147 3 90
      vertex 147 27.1573 90
    endloop
  endfacet
  facet normal 0 0 1
    outer loop
      vertex 145 5 90
      vertex 147 27.1573 90
      vertex 145 27.1573 90
    endloop
  endfacet
  facet normal -0 0 1
    outer loop
      vertex 144.427 3.23663 90
      vertex 147 3 90
      vertex 145 5 90
    endloop
  endfacet
  facet normal 0 0 1
    outer loop
      vertex 147 3 90
      vertex 144.427 3.23663 90
      vertex 146.427 1.23663 90
    endloop
  endfacet
  facet normal 0 0 1
    outer loop
      vertex 146.427 1.23663 90
      vertex 144.427 3.23663 90
      vertex 144.927 0.14682 90
    endloop
  endfacet
  facet normal 0 0 1
    outer loop
      vertex 144.427 3.23663 90
      vertex 144.147 0.14682 90
      vertex 144.927 0.14682 90
    endloop
  endfacet
  facet normal -0 0 1
    outer loop
      vertex 142.927 2.14682 90
      vertex 144.147 0.14682 90
      vertex 144.427 3.23663 90
    endloop
  endfacet
  facet normal 0 0 1
    outer loop
      vertex 144.147 0.14682 90
      vertex 142.927 2.14682 90
      vertex 144 0 90
    endloop
  endfacet
  facet normal 0 0 1
    outer loop
      vertex 142 2 90
      vertex 142.927 2.14682 90
      vertex 142.147 2.14682 90
    endloop
  endfacet
  facet normal 0 0 1
    outer loop
      vertex 142.927 2.14682 90
      vertex 142 2 90
      vertex 144 0 90
    endloop
  endfacet
  facet normal -0 0 1
    outer loop
      vertex 5 2 90
      vertex 144 0 90
      vertex 142 2 90
    endloop
  endfacet
  facet normal -0 0 1
    outer loop
      vertex 4.07294 2.14682 90
      vertex 5 2 90
      vertex 4.85318 2.14682 90
    endloop
  endfacet
  facet normal 0 0 1
    outer loop
      vertex 5 2 90
      vertex 3 0 90
      vertex 144 0 90
    endloop
  endfacet
  facet normal 0 0 1
    outer loop
      vertex 4.07294 2.14682 90
      vertex 3 0 90
      vertex 5 2 90
    endloop
  endfacet
  facet normal 0 0 1
    outer loop
      vertex 4.07294 2.14682 90
      vertex 2.85318 0.14682 90
      vertex 3 0 90
    endloop
  endfacet
  facet normal 0 0 1
    outer loop
      vertex 2.57294 3.23663 90
      vertex 2.85318 0.14682 90
      vertex 4.07294 2.14682 90
    endloop
  endfacet
  facet normal 0 0 1
    outer loop
      vertex 2.57294 3.23663 90
      vertex 2.07294 0.14682 90
      vertex 2.85318 0.14682 90
    endloop
  endfacet
  facet normal 0 0 1
    outer loop
      vertex 0.572937 1.23663 90
      vertex 2.57294 3.23663 90
      vertex 2 5 90
    endloop
  endfacet
  facet normal 0 0 1
    outer loop
      vertex 2.57294 3.23663 90
      vertex 0.572937 1.23663 90
      vertex 2.07294 0.14682 90
    endloop
  endfacet
  facet normal 0 -1 0
    outer loop
      vertex 144.147 0.14682 0
      vertex 144.927 0.14682 90
      vertex 144.147 0.14682 90
    endloop
  endfacet
  facet normal 0 -1 -0
    outer loop
      vertex 144.927 0.14682 90
      vertex 144.147 0.14682 0
      vertex 144.927 0.14682 0
    endloop
  endfacet
  facet normal 0.587785 -0.809017 0
    outer loop
      vertex 144.927 0.14682 0
      vertex 146.427 1.23663 90
      vertex 144.927 0.14682 90
    endloop
  endfacet
  facet normal 0.587785 -0.809017 0
    outer loop
      vertex 146.427 1.23663 90
      vertex 144.927 0.14682 0
      vertex 146.427 1.23663 0
    endloop
  endfacet
  facet normal 0.951057 -0.309017 0
    outer loop
      vertex 146.427 1.23663 90
      vertex 147 3 0
      vertex 147 3 90
    endloop
  endfacet
  facet normal 0.951057 -0.309017 0
    outer loop
      vertex 147 3 0
      vertex 146.427 1.23663 90
      vertex 146.427 1.23663 0
    endloop
  endfacet
  facet normal 1 0 0
    outer loop
      vertex 147 3 0
      vertex 147 82 35.1573
      vertex 147 27.1573 90
    endloop
  endfacet
  facet normal 1 0 0
    outer loop
      vertex 147 3 0
      vertex 147 27.1573 90
      vertex 147 3 90
    endloop
  endfacet
  facet normal 1 0 0
    outer loop
      vertex 147 82 35.1573
      vertex 147 3 0
      vertex 147 82 0
    endloop
  endfacet
  facet normal 0.951056 0.309019 -0
    outer loop
      vertex 147 82 0
      vertex 146.427 83.7634 33.3939
      vertex 147 82 35.1573
    endloop
  endfacet
  facet normal 0.951056 0.309019 0
    outer loop
      vertex 146.427 83.7634 33.3939
      vertex 147 82 0
      vertex 146.427 83.7634 0
    endloop
  endfacet
  facet normal 0.587785 0.809017 -0
    outer loop
      vertex 146.427 83.7634 0
      vertex 144.927 84.8532 32.3041
      vertex 146.427 83.7634 33.3939
    endloop
  endfacet
  facet normal 0.587785 0.809017 0
    outer loop
      vertex 144.927 84.8532 32.3041
      vertex 146.427 83.7634 0
      vertex 144.927 84.8532 0
    endloop
  endfacet
  facet normal 0 1 -0
    outer loop
      vertex 144.927 84.8532 0
      vertex 144.147 84.8532 32.3041
      vertex 144.927 84.8532 32.3041
    endloop
  endfacet
  facet normal 0 1 0
    outer loop
      vertex 144.147 84.8532 32.3041
      vertex 144.927 84.8532 0
      vertex 144.147 84.8532 0
    endloop
  endfacet
  facet normal 0.707107 0.707107 -0
    outer loop
      vertex 144.147 84.8532 0
      vertex 144 85 32.1573
      vertex 144.147 84.8532 32.3041
    endloop
  endfacet
  facet normal 0.707107 0.707107 0
    outer loop
      vertex 144 85 32.1573
      vertex 144.147 84.8532 0
      vertex 144 85 0
    endloop
  endfacet
  facet normal 0 1 -0
    outer loop
      vertex 144 85 0
      vertex 3 85 32.1573
      vertex 144 85 32.1573
    endloop
  endfacet
  facet normal 0 1 0
    outer loop
      vertex 3 85 32.1573
      vertex 144 85 0
      vertex 3 85 0
    endloop
  endfacet
  facet normal -0.707107 0.707107 0
    outer loop
      vertex 2.85316 84.8532 0
      vertex 3 85 32.1573
      vertex 3 85 0
    endloop
  endfacet
  facet normal -0.707107 0.707107 0
    outer loop
      vertex 3 85 32.1573
      vertex 2.85316 84.8532 0
      vertex 2.85316 84.8532 32.3041
    endloop
  endfacet
  facet normal 0 1 -0
    outer loop
      vertex 2.85316 84.8532 0
      vertex 2.07294 84.8532 32.3041
      vertex 2.85316 84.8532 32.3041
    endloop
  endfacet
  facet normal 0 1 0
    outer loop
      vertex 2.07294 84.8532 32.3041
      vertex 2.85316 84.8532 0
      vertex 2.07294 84.8532 0
    endloop
  endfacet
  facet normal -0.587785 0.809017 0
    outer loop
      vertex 0.572937 83.7634 0
      vertex 2.07294 84.8532 32.3041
      vertex 2.07294 84.8532 0
    endloop
  endfacet
  facet normal -0.587785 0.809017 0
    outer loop
      vertex 2.07294 84.8532 32.3041
      vertex 0.572937 83.7634 0
      vertex 0.572937 83.7634 33.3939
    endloop
  endfacet
  facet normal -0.951058 0.309012 0
    outer loop
      vertex 0 82 0
      vertex 0.572937 83.7634 33.3939
      vertex 0.572937 83.7634 0
    endloop
  endfacet
  facet normal -0.951058 0.309012 0
    outer loop
      vertex 0.572937 83.7634 33.3939
      vertex 0 82 0
      vertex 0 82 35.1573
    endloop
  endfacet
  facet normal -1 0 0
    outer loop
      vertex 0 3 0
      vertex 0 82 35.1573
      vertex 0 82 0
    endloop
  endfacet
  facet normal -1 -0 0
    outer loop
      vertex 0 82 35.1573
      vertex 0 3 0
      vertex 0 27.1573 90
    endloop
  endfacet
  facet normal -1 -0 0
    outer loop
      vertex 0 27.1573 90
      vertex 0 3 0
      vertex 0 3 90
    endloop
  endfacet
  facet normal -0.951059 -0.309009 0
    outer loop
      vertex 0.572937 1.23663 0
      vertex 0 3 90
      vertex 0 3 0
    endloop
  endfacet
  facet normal -0.951059 -0.309009 0
    outer loop
      vertex 0 3 90
      vertex 0.572937 1.23663 0
      vertex 0.572937 1.23663 90
    endloop
  endfacet
  facet normal -0.587785 -0.809017 0
    outer loop
      vertex 0.572937 1.23663 0
      vertex 2.07294 0.14682 90
      vertex 0.572937 1.23663 90
    endloop
  endfacet
  facet normal -0.587785 -0.809017 -0
    outer loop
      vertex 2.07294 0.14682 90
      vertex 0.572937 1.23663 0
      vertex 2.07294 0.14682 0
    endloop
  endfacet
  facet normal 0 -1 0
    outer loop
      vertex 2.07294 0.14682 0
      vertex 2.85318 0.14682 90
      vertex 2.07294 0.14682 90
    endloop
  endfacet
  facet normal 0 -1 -0
    outer loop
      vertex 2.85318 0.14682 90
      vertex 2.07294 0.14682 0
      vertex 2.85318 0.14682 0
    endloop
  endfacet
  facet normal -0.707107 -0.707107 0
    outer loop
      vertex 3 0 0
      vertex 2.85318 0.14682 90
      vertex 2.85318 0.14682 0
    endloop
  endfacet
  facet normal -0.707107 -0.707107 0
    outer loop
      vertex 2.85318 0.14682 90
      vertex 3 0 0
      vertex 3 0 90
    endloop
  endfacet
  facet normal 0 -1 0
    outer loop
      vertex 3 0 0
      vertex 144 0 90
      vertex 3 0 90
    endloop
  endfacet
  facet normal 0 -1 -0
    outer loop
      vertex 144 0 90
      vertex 3 0 0
      vertex 144 0 0
    endloop
  endfacet
  facet normal 0.707107 -0.707107 0
    outer loop
      vertex 144 0 90
      vertex 144.147 0.14682 0
      vertex 144.147 0.14682 90
    endloop
  endfacet
  facet normal 0.707107 -0.707107 0
    outer loop
      vertex 144.147 0.14682 0
      vertex 144 0 90
      vertex 144 0 0
    endloop
  endfacet
  facet normal 0 0 1
    outer loop
      vertex 145 80 2
      vertex 141.786 44.5375 2
      vertex 142 42.5 2
    endloop
  endfacet
  facet normal 0 0 1
    outer loop
      vertex 142.147 82.8532 2
      vertex 141.153 46.486 2
      vertex 141.786 44.5375 2
    endloop
  endfacet
  facet normal 0 0 1
    outer loop
      vertex 142.147 82.8532 2
      vertex 140.128 48.2603 2
      vertex 141.153 46.486 2
    endloop
  endfacet
  facet normal 0 0 1
    outer loop
      vertex 142.147 82.8532 2
      vertex 138.757 49.7828 2
      vertex 140.128 48.2603 2
    endloop
  endfacet
  facet normal 0 0 1
    outer loop
      vertex 142.147 82.8532 2
      vertex 137.1 50.987 2
      vertex 138.757 49.7828 2
    endloop
  endfacet
  facet normal 0 0 1
    outer loop
      vertex 142.147 82.8532 2
      vertex 135.228 51.8204 2
      vertex 137.1 50.987 2
    endloop
  endfacet
  facet normal 0 0 1
    outer loop
      vertex 142.147 82.8532 2
      vertex 133.224 52.2463 2
      vertex 135.228 51.8204 2
    endloop
  endfacet
  facet normal 0 0 1
    outer loop
      vertex 142.147 82.8532 2
      vertex 131.176 52.2463 2
      vertex 133.224 52.2463 2
    endloop
  endfacet
  facet normal 0 0 1
    outer loop
      vertex 142 83 2
      vertex 129.172 51.8204 2
      vertex 131.176 52.2463 2
    endloop
  endfacet
  facet normal -0 0 1
    outer loop
      vertex 105.5 70 2
      vertex 129.172 51.8204 2
      vertex 142 83 2
    endloop
  endfacet
  facet normal 0 0 1
    outer loop
      vertex 129.172 51.8204 2
      vertex 105.5 70 2
      vertex 127.3 50.987 2
    endloop
  endfacet
  facet normal 0 0 1
    outer loop
      vertex 127.3 50.987 2
      vertex 105.5 70 2
      vertex 125.643 49.7828 2
    endloop
  endfacet
  facet normal 0 0 1
    outer loop
      vertex 125.643 49.7828 2
      vertex 105.5 70 2
      vertex 124.272 48.2603 2
    endloop
  endfacet
  facet normal 0 0 1
    outer loop
      vertex 122.614 44.5375 2
      vertex 105.5 70 2
      vertex 122.4 42.5 2
    endloop
  endfacet
  facet normal 0 0 1
    outer loop
      vertex 123.247 46.486 2
      vertex 105.5 70 2
      vertex 122.614 44.5375 2
    endloop
  endfacet
  facet normal 0 0 1
    outer loop
      vertex 124.272 48.2603 2
      vertex 105.5 70 2
      vertex 123.247 46.486 2
    endloop
  endfacet
  facet normal -0 0 1
    outer loop
      vertex 5 83 2
      vertex 105.5 70 2
      vertex 142 83 2
    endloop
  endfacet
  facet normal -0 0 1
    outer loop
      vertex 4.85316 82.8532 2
      vertex 21.5 70 2
      vertex 5 83 2
    endloop
  endfacet
  facet normal 0 0 1
    outer loop
      vertex 105.5 70 2
      vertex 5 83 2
      vertex 21.5 70 2
    endloop
  endfacet
  facet normal 0 0 1
    outer loop
      vertex 142.147 82.8532 2
      vertex 145 80 2
      vertex 144.427 81.7634 2
    endloop
  endfacet
  facet normal 0 0 1
    outer loop
      vertex 145 80 2
      vertex 142 42.5 2
      vertex 145 5 2
    endloop
  endfacet
  facet normal -0 0 1
    outer loop
      vertex 142.147 82.8532 2
      vertex 144.427 81.7634 2
      vertex 142.927 82.8532 2
    endloop
  endfacet
  facet normal -0 0 1
    outer loop
      vertex 141.786 40.4625 2
      vertex 145 5 2
      vertex 142 42.5 2
    endloop
  endfacet
  facet normal 0 0 1
    outer loop
      vertex 141.786 44.5375 2
      vertex 145 80 2
      vertex 142.147 82.8532 2
    endloop
  endfacet
  facet normal -0 0 1
    outer loop
      vertex 141.153 38.514 2
      vertex 145 5 2
      vertex 141.786 40.4625 2
    endloop
  endfacet
  facet normal 0 0 1
    outer loop
      vertex 131.176 52.2463 2
      vertex 142.147 82.8532 2
      vertex 142 83 2
    endloop
  endfacet
  facet normal -0 0 1
    outer loop
      vertex 140.128 36.7397 2
      vertex 145 5 2
      vertex 141.153 38.514 2
    endloop
  endfacet
  facet normal -0 0 1
    outer loop
      vertex 138.757 35.2172 2
      vertex 145 5 2
      vertex 140.128 36.7397 2
    endloop
  endfacet
  facet normal -0 0 1
    outer loop
      vertex 137.1 34.013 2
      vertex 145 5 2
      vertex 138.757 35.2172 2
    endloop
  endfacet
  facet normal -0 0 1
    outer loop
      vertex 135.228 33.1796 2
      vertex 145 5 2
      vertex 137.1 34.013 2
    endloop
  endfacet
  facet normal -0 0 1
    outer loop
      vertex 133.224 32.7537 2
      vertex 145 5 2
      vertex 135.228 33.1796 2
    endloop
  endfacet
  facet normal -0 0 1
    outer loop
      vertex 131.176 32.7537 2
      vertex 145 5 2
      vertex 133.224 32.7537 2
    endloop
  endfacet
  facet normal 0 0 1
    outer loop
      vertex 144.427 3.23663 2
      vertex 142.147 2.14682 2
      vertex 142.927 2.14682 2
    endloop
  endfacet
  facet normal 0 0 1
    outer loop
      vertex 145 5 2
      vertex 142.147 2.14682 2
      vertex 144.427 3.23663 2
    endloop
  endfacet
  facet normal 0 0 1
    outer loop
      vertex 145 5 2
      vertex 131.176 32.7537 2
      vertex 142.147 2.14682 2
    endloop
  endfacet
  facet normal 0 0 1
    outer loop
      vertex 142.147 2.14682 2
      vertex 131.176 32.7537 2
      vertex 142 2 2
    endloop
  endfacet
  facet normal 0 0 1
    outer loop
      vertex 129.172 33.1796 2
      vertex 142 2 2
      vertex 131.176 32.7537 2
    endloop
  endfacet
  facet normal 0 0 1
    outer loop
      vertex 105.5 20 2
      vertex 129.172 33.1796 2
      vertex 127.3 34.013 2
    endloop
  endfacet
  facet normal 0 0 1
    outer loop
      vertex 105.5 20 2
      vertex 127.3 34.013 2
      vertex 125.643 35.2172 2
    endloop
  endfacet
  facet normal 0 0 1
    outer loop
      vertex 105.5 20 2
      vertex 125.643 35.2172 2
      vertex 124.272 36.7397 2
    endloop
  endfacet
  facet normal 0 0 1
    outer loop
      vertex 105.5 20 2
      vertex 124.272 36.7397 2
      vertex 123.247 38.514 2
    endloop
  endfacet
  facet normal 0 0 1
    outer loop
      vertex 105.5 20 2
      vertex 122.4 42.5 2
      vertex 105.5 70 2
    endloop
  endfacet
  facet normal 0 0 1
    outer loop
      vertex 122.4 42.5 2
      vertex 105.5 20 2
      vertex 122.614 40.4625 2
    endloop
  endfacet
  facet normal 0 0 1
    outer loop
      vertex 122.614 40.4625 2
      vertex 105.5 20 2
      vertex 123.247 38.514 2
    endloop
  endfacet
  facet normal 0 0 1
    outer loop
      vertex 129.172 33.1796 2
      vertex 105.5 20 2
      vertex 142 2 2
    endloop
  endfacet
  facet normal 0 0 1
    outer loop
      vertex 5 2 2
      vertex 105.5 20 2
      vertex 21.5 20 2
    endloop
  endfacet
  facet normal 0 0 1
    outer loop
      vertex 105.5 20 2
      vertex 5 2 2
      vertex 142 2 2
    endloop
  endfacet
  facet normal -0 0 1
    outer loop
      vertex 2 80 2
      vertex 21.5 70 2
      vertex 4.85316 82.8532 2
    endloop
  endfacet
  facet normal 0 0 1
    outer loop
      vertex 21.5 20 2
      vertex 4.85318 2.14682 2
      vertex 5 2 2
    endloop
  endfacet
  facet normal 0 0 1
    outer loop
      vertex 21.5 70 2
      vertex 2 80 2
      vertex 21.5 20 2
    endloop
  endfacet
  facet normal 0 0 1
    outer loop
      vertex 2.57294 81.7634 2
      vertex 4.85316 82.8532 2
      vertex 4.07294 82.8532 2
    endloop
  endfacet
  facet normal 0 0 1
    outer loop
      vertex 2 5 2
      vertex 21.5 20 2
      vertex 2 80 2
    endloop
  endfacet
  facet normal 0 0 1
    outer loop
      vertex 4.85316 82.8532 2
      vertex 2.57294 81.7634 2
      vertex 2 80 2
    endloop
  endfacet
  facet normal 0 0 1
    outer loop
      vertex 21.5 20 2
      vertex 2 5 2
      vertex 4.85318 2.14682 2
    endloop
  endfacet
  facet normal -0 -0 1
    outer loop
      vertex 2.57294 3.23663 2
      vertex 4.85318 2.14682 2
      vertex 2 5 2
    endloop
  endfacet
  facet normal 0 0 1
    outer loop
      vertex 4.85318 2.14682 2
      vertex 2.57294 3.23663 2
      vertex 4.07294 2.14682 2
    endloop
  endfacet
  facet normal 0 1 -0
    outer loop
      vertex 142.927 2.14682 2
      vertex 142.147 2.14682 90
      vertex 142.927 2.14682 90
    endloop
  endfacet
  facet normal 0 1 0
    outer loop
      vertex 142.147 2.14682 90
      vertex 142.927 2.14682 2
      vertex 142.147 2.14682 2
    endloop
  endfacet
  facet normal -0.587785 0.809017 0
    outer loop
      vertex 144.427 3.23663 2
      vertex 142.927 2.14682 90
      vertex 144.427 3.23663 90
    endloop
  endfacet
  facet normal -0.587785 0.809017 0
    outer loop
      vertex 142.927 2.14682 90
      vertex 144.427 3.23663 2
      vertex 142.927 2.14682 2
    endloop
  endfacet
  facet normal -0.951057 0.309017 0
    outer loop
      vertex 144.427 3.23663 2
      vertex 145 5 90
      vertex 145 5 2
    endloop
  endfacet
  facet normal -0.951057 0.309017 0
    outer loop
      vertex 145 5 90
      vertex 144.427 3.23663 2
      vertex 144.427 3.23663 90
    endloop
  endfacet
  facet normal -1 0 0
    outer loop
      vertex 145 5 2
      vertex 145 80 37.1573
      vertex 145 80 2
    endloop
  endfacet
  facet normal -1 -0 0
    outer loop
      vertex 145 80 37.1573
      vertex 145 5 2
      vertex 145 27.1573 90
    endloop
  endfacet
  facet normal -1 -0 0
    outer loop
      vertex 145 27.1573 90
      vertex 145 5 2
      vertex 145 5 90
    endloop
  endfacet
  facet normal -0.951056 -0.309019 0
    outer loop
      vertex 145 80 2
      vertex 144.427 81.7634 35.3939
      vertex 144.427 81.7634 2
    endloop
  endfacet
  facet normal -0.951056 -0.309019 0
    outer loop
      vertex 144.427 81.7634 35.3939
      vertex 145 80 2
      vertex 145 80 37.1573
    endloop
  endfacet
  facet normal -0.587785 -0.809017 0
    outer loop
      vertex 144.427 81.7634 2
      vertex 142.927 82.8532 34.3041
      vertex 142.927 82.8532 2
    endloop
  endfacet
  facet normal -0.587785 -0.809017 0
    outer loop
      vertex 142.927 82.8532 34.3041
      vertex 144.427 81.7634 2
      vertex 144.427 81.7634 35.3939
    endloop
  endfacet
  facet normal 0 -1 0
    outer loop
      vertex 142.147 82.8532 2
      vertex 142.927 82.8532 34.3041
      vertex 142.147 82.8532 34.3041
    endloop
  endfacet
  facet normal 0 -1 -0
    outer loop
      vertex 142.927 82.8532 34.3041
      vertex 142.147 82.8532 2
      vertex 142.927 82.8532 2
    endloop
  endfacet
  facet normal -0.707107 -0.707107 0
    outer loop
      vertex 142.147 82.8532 2
      vertex 142 83 34.1573
      vertex 142 83 2
    endloop
  endfacet
  facet normal -0.707107 -0.707107 0
    outer loop
      vertex 142 83 34.1573
      vertex 142.147 82.8532 2
      vertex 142.147 82.8532 34.3041
    endloop
  endfacet
  facet normal 0 -1 0
    outer loop
      vertex 5 83 2
      vertex 142 83 34.1573
      vertex 5 83 34.1573
    endloop
  endfacet
  facet normal 0 -1 -0
    outer loop
      vertex 142 83 34.1573
      vertex 5 83 2
      vertex 142 83 2
    endloop
  endfacet
  facet normal 0.707107 -0.707107 0
    outer loop
      vertex 4.85316 82.8532 2
      vertex 5 83 34.1573
      vertex 4.85316 82.8532 34.3041
    endloop
  endfacet
  facet normal 0.707107 -0.707107 0
    outer loop
      vertex 5 83 34.1573
      vertex 4.85316 82.8532 2
      vertex 5 83 2
    endloop
  endfacet
  facet normal 0 -1 0
    outer loop
      vertex 4.07294 82.8532 2
      vertex 4.85316 82.8532 34.3041
      vertex 4.07294 82.8532 34.3041
    endloop
  endfacet
  facet normal 0 -1 -0
    outer loop
      vertex 4.85316 82.8532 34.3041
      vertex 4.07294 82.8532 2
      vertex 4.85316 82.8532 2
    endloop
  endfacet
  facet normal 0.587785 -0.809017 0
    outer loop
      vertex 2.57294 81.7634 2
      vertex 4.07294 82.8532 34.3041
      vertex 2.57294 81.7634 35.3939
    endloop
  endfacet
  facet normal 0.587785 -0.809017 0
    outer loop
      vertex 4.07294 82.8532 34.3041
      vertex 2.57294 81.7634 2
      vertex 4.07294 82.8532 2
    endloop
  endfacet
  facet normal 0.951058 -0.309012 0
    outer loop
      vertex 2 80 2
      vertex 2.57294 81.7634 35.3939
      vertex 2 80 37.1573
    endloop
  endfacet
  facet normal 0.951058 -0.309012 0
    outer loop
      vertex 2.57294 81.7634 35.3939
      vertex 2 80 2
      vertex 2.57294 81.7634 2
    endloop
  endfacet
  facet normal 1 0 0
    outer loop
      vertex 2 5 2
      vertex 2 80 37.1573
      vertex 2 27.1573 90
    endloop
  endfacet
  facet normal 1 0 0
    outer loop
      vertex 2 5 2
      vertex 2 27.1573 90
      vertex 2 5 90
    endloop
  endfacet
  facet normal 1 0 0
    outer loop
      vertex 2 80 37.1573
      vertex 2 5 2
      vertex 2 80 2
    endloop
  endfacet
  facet normal 0.951059 0.309009 0
    outer loop
      vertex 2.57294 3.23663 90
      vertex 2 5 2
      vertex 2 5 90
    endloop
  endfacet
  facet normal 0.951059 0.309009 0
    outer loop
      vertex 2 5 2
      vertex 2.57294 3.23663 90
      vertex 2.57294 3.23663 2
    endloop
  endfacet
  facet normal 0.587785 0.809017 -0
    outer loop
      vertex 4.07294 2.14682 2
      vertex 2.57294 3.23663 90
      vertex 4.07294 2.14682 90
    endloop
  endfacet
  facet normal 0.587785 0.809017 0
    outer loop
      vertex 2.57294 3.23663 90
      vertex 4.07294 2.14682 2
      vertex 2.57294 3.23663 2
    endloop
  endfacet
  facet normal 0 1 -0
    outer loop
      vertex 4.85318 2.14682 2
      vertex 4.07294 2.14682 90
      vertex 4.85318 2.14682 90
    endloop
  endfacet
  facet normal 0 1 0
    outer loop
      vertex 4.07294 2.14682 90
      vertex 4.85318 2.14682 2
      vertex 4.07294 2.14682 2
    endloop
  endfacet
  facet normal 0.707107 0.707107 0
    outer loop
      vertex 5 2 90
      vertex 4.85318 2.14682 2
      vertex 4.85318 2.14682 90
    endloop
  endfacet
  facet normal 0.707107 0.707107 0
    outer loop
      vertex 4.85318 2.14682 2
      vertex 5 2 90
      vertex 5 2 2
    endloop
  endfacet
  facet normal 0 1 -0
    outer loop
      vertex 142 2 2
      vertex 5 2 90
      vertex 142 2 90
    endloop
  endfacet
  facet normal 0 1 0
    outer loop
      vertex 5 2 90
      vertex 142 2 2
      vertex 5 2 2
    endloop
  endfacet
  facet normal -0.707107 0.707107 0
    outer loop
      vertex 142 2 2
      vertex 142.147 2.14682 90
      vertex 142.147 2.14682 2
    endloop
  endfacet
  facet normal -0.707107 0.707107 0
    outer loop
      vertex 142.147 2.14682 90
      vertex 142 2 2
      vertex 142 2 90
    endloop
  endfacet
  facet normal 1 -0 0
    outer loop
      vertex 21.5 20 2
      vertex 21.5 70 0
      vertex 21.5 70 2
    endloop
  endfacet
  facet normal 1 0 0
    outer loop
      vertex 21.5 70 0
      vertex 21.5 20 2
      vertex 21.5 20 0
    endloop
  endfacet
  facet normal -1 0 0
    outer loop
      vertex 105.5 20 0
      vertex 105.5 70 2
      vertex 105.5 70 0
    endloop
  endfacet
  facet normal -1 -0 0
    outer loop
      vertex 105.5 70 2
      vertex 105.5 20 0
      vertex 105.5 20 2
    endloop
  endfacet
  facet normal 0 -1 0
    outer loop
      vertex 21.5 70 0
      vertex 105.5 70 2
      vertex 21.5 70 2
    endloop
  endfacet
  facet normal 0 -1 -0
    outer loop
      vertex 105.5 70 2
      vertex 21.5 70 0
      vertex 105.5 70 0
    endloop
  endfacet
  facet normal 0 1 -0
    outer loop
      vertex 105.5 20 0
      vertex 21.5 20 2
      vertex 105.5 20 2
    endloop
  endfacet
  facet normal 0 1 0
    outer loop
      vertex 21.5 20 2
      vertex 105.5 20 0
      vertex 21.5 20 0
    endloop
  endfacet
  facet normal -0.866028 -0.499996 0
    outer loop
      vertex 141.153 46.486 0
      vertex 140.128 48.2603 2
      vertex 140.128 48.2603 0
    endloop
  endfacet
  facet normal -0.866028 -0.499996 0
    outer loop
      vertex 140.128 48.2603 2
      vertex 141.153 46.486 0
      vertex 141.153 46.486 2
    endloop
  endfacet
  facet normal -0.743142 -0.669133 0
    outer loop
      vertex 140.128 48.2603 0
      vertex 138.757 49.7828 2
      vertex 138.757 49.7828 0
    endloop
  endfacet
  facet normal -0.743142 -0.669133 0
    outer loop
      vertex 138.757 49.7828 2
      vertex 140.128 48.2603 0
      vertex 140.128 48.2603 2
    endloop
  endfacet
  facet normal -0.207912 -0.978148 0
    outer loop
      vertex 133.224 52.2463 0
      vertex 135.228 51.8204 2
      vertex 133.224 52.2463 2
    endloop
  endfacet
  facet normal -0.207912 -0.978148 -0
    outer loop
      vertex 135.228 51.8204 2
      vertex 133.224 52.2463 0
      vertex 135.228 51.8204 0
    endloop
  endfacet
  facet normal 0.406738 -0.913545 0
    outer loop
      vertex 127.3 50.987 0
      vertex 129.172 51.8204 2
      vertex 127.3 50.987 2
    endloop
  endfacet
  facet normal 0.406738 -0.913545 0
    outer loop
      vertex 129.172 51.8204 2
      vertex 127.3 50.987 0
      vertex 129.172 51.8204 0
    endloop
  endfacet
  facet normal 0.951056 -0.309017 0
    outer loop
      vertex 122.614 44.5375 2
      vertex 123.247 46.486 0
      vertex 123.247 46.486 2
    endloop
  endfacet
  facet normal 0.951056 -0.309017 0
    outer loop
      vertex 123.247 46.486 0
      vertex 122.614 44.5375 2
      vertex 122.614 44.5375 0
    endloop
  endfacet
  facet normal -0.994522 0.10453 0
    outer loop
      vertex 141.786 40.4625 0
      vertex 142 42.5 2
      vertex 142 42.5 0
    endloop
  endfacet
  facet normal -0.994522 0.10453 0
    outer loop
      vertex 142 42.5 2
      vertex 141.786 40.4625 0
      vertex 141.786 40.4625 2
    endloop
  endfacet
  facet normal -0.406735 0.913546 0
    outer loop
      vertex 137.1 34.013 0
      vertex 135.228 33.1796 2
      vertex 137.1 34.013 2
    endloop
  endfacet
  facet normal -0.406735 0.913546 0
    outer loop
      vertex 135.228 33.1796 2
      vertex 137.1 34.013 0
      vertex 135.228 33.1796 0
    endloop
  endfacet
  facet normal -0.951056 -0.309017 0
    outer loop
      vertex 141.786 44.5375 0
      vertex 141.153 46.486 2
      vertex 141.153 46.486 0
    endloop
  endfacet
  facet normal -0.951056 -0.309017 0
    outer loop
      vertex 141.153 46.486 2
      vertex 141.786 44.5375 0
      vertex 141.786 44.5375 2
    endloop
  endfacet
  facet normal -0.587788 -0.809015 0
    outer loop
      vertex 137.1 50.987 0
      vertex 138.757 49.7828 2
      vertex 137.1 50.987 2
    endloop
  endfacet
  facet normal -0.587788 -0.809015 -0
    outer loop
      vertex 138.757 49.7828 2
      vertex 137.1 50.987 0
      vertex 138.757 49.7828 0
    endloop
  endfacet
  facet normal 0.207911 -0.978148 0
    outer loop
      vertex 129.172 51.8204 0
      vertex 131.176 52.2463 2
      vertex 129.172 51.8204 2
    endloop
  endfacet
  facet normal 0.207911 -0.978148 0
    outer loop
      vertex 131.176 52.2463 2
      vertex 129.172 51.8204 0
      vertex 131.176 52.2463 0
    endloop
  endfacet
  facet normal -0.406735 -0.913546 0
    outer loop
      vertex 135.228 51.8204 0
      vertex 137.1 50.987 2
      vertex 135.228 51.8204 2
    endloop
  endfacet
  facet normal -0.406735 -0.913546 -0
    outer loop
      vertex 137.1 50.987 2
      vertex 135.228 51.8204 0
      vertex 137.1 50.987 0
    endloop
  endfacet
  facet normal 0.994522 0.104526 0
    outer loop
      vertex 122.614 40.4625 2
      vertex 122.4 42.5 0
      vertex 122.4 42.5 2
    endloop
  endfacet
  facet normal 0.994522 0.104526 0
    outer loop
      vertex 122.4 42.5 0
      vertex 122.614 40.4625 2
      vertex 122.614 40.4625 0
    endloop
  endfacet
  facet normal 0.866024 -0.500002 0
    outer loop
      vertex 123.247 46.486 2
      vertex 124.272 48.2603 0
      vertex 124.272 48.2603 2
    endloop
  endfacet
  facet normal 0.866024 -0.500002 0
    outer loop
      vertex 124.272 48.2603 0
      vertex 123.247 46.486 2
      vertex 123.247 46.486 0
    endloop
  endfacet
  facet normal 0.587784 -0.809018 0
    outer loop
      vertex 125.643 49.7828 0
      vertex 127.3 50.987 2
      vertex 125.643 49.7828 2
    endloop
  endfacet
  facet normal 0.587784 -0.809018 0
    outer loop
      vertex 127.3 50.987 2
      vertex 125.643 49.7828 0
      vertex 127.3 50.987 0
    endloop
  endfacet
  facet normal 0.743146 -0.669129 0
    outer loop
      vertex 124.272 48.2603 2
      vertex 125.643 49.7828 0
      vertex 125.643 49.7828 2
    endloop
  endfacet
  facet normal 0.743146 -0.669129 0
    outer loop
      vertex 125.643 49.7828 0
      vertex 124.272 48.2603 2
      vertex 124.272 48.2603 0
    endloop
  endfacet
  facet normal -0.994522 -0.10453 0
    outer loop
      vertex 142 42.5 0
      vertex 141.786 44.5375 2
      vertex 141.786 44.5375 0
    endloop
  endfacet
  facet normal -0.994522 -0.10453 0
    outer loop
      vertex 141.786 44.5375 2
      vertex 142 42.5 0
      vertex 142 42.5 2
    endloop
  endfacet
  facet normal -0.951056 0.309018 0
    outer loop
      vertex 141.153 38.514 0
      vertex 141.786 40.4625 2
      vertex 141.786 40.4625 0
    endloop
  endfacet
  facet normal -0.951056 0.309018 0
    outer loop
      vertex 141.786 40.4625 2
      vertex 141.153 38.514 0
      vertex 141.153 38.514 2
    endloop
  endfacet
  facet normal 0.406738 0.913545 -0
    outer loop
      vertex 129.172 33.1796 0
      vertex 127.3 34.013 2
      vertex 129.172 33.1796 2
    endloop
  endfacet
  facet normal 0.406738 0.913545 0
    outer loop
      vertex 127.3 34.013 2
      vertex 129.172 33.1796 0
      vertex 127.3 34.013 0
    endloop
  endfacet
  facet normal 0.743147 0.669128 0
    outer loop
      vertex 125.643 35.2172 2
      vertex 124.272 36.7397 0
      vertex 124.272 36.7397 2
    endloop
  endfacet
  facet normal 0.743147 0.669128 0
    outer loop
      vertex 124.272 36.7397 0
      vertex 125.643 35.2172 2
      vertex 125.643 35.2172 0
    endloop
  endfacet
  facet normal -0.743143 0.669132 0
    outer loop
      vertex 138.757 35.2172 0
      vertex 140.128 36.7397 2
      vertex 140.128 36.7397 0
    endloop
  endfacet
  facet normal -0.743143 0.669132 0
    outer loop
      vertex 140.128 36.7397 2
      vertex 138.757 35.2172 0
      vertex 138.757 35.2172 2
    endloop
  endfacet
  facet normal 0 -1 0
    outer loop
      vertex 131.176 52.2463 0
      vertex 133.224 52.2463 2
      vertex 131.176 52.2463 2
    endloop
  endfacet
  facet normal 0 -1 -0
    outer loop
      vertex 133.224 52.2463 2
      vertex 131.176 52.2463 0
      vertex 133.224 52.2463 0
    endloop
  endfacet
  facet normal 0.994522 -0.104527 0
    outer loop
      vertex 122.4 42.5 2
      vertex 122.614 44.5375 0
      vertex 122.614 44.5375 2
    endloop
  endfacet
  facet normal 0.994522 -0.104527 0
    outer loop
      vertex 122.614 44.5375 0
      vertex 122.4 42.5 2
      vertex 122.4 42.5 0
    endloop
  endfacet
  facet normal -0.866028 0.499996 0
    outer loop
      vertex 140.128 36.7397 0
      vertex 141.153 38.514 2
      vertex 141.153 38.514 0
    endloop
  endfacet
  facet normal -0.866028 0.499996 0
    outer loop
      vertex 141.153 38.514 2
      vertex 140.128 36.7397 0
      vertex 140.128 36.7397 2
    endloop
  endfacet
  facet normal -0.207912 0.978148 0
    outer loop
      vertex 135.228 33.1796 0
      vertex 133.224 32.7537 2
      vertex 135.228 33.1796 2
    endloop
  endfacet
  facet normal -0.207912 0.978148 0
    outer loop
      vertex 133.224 32.7537 2
      vertex 135.228 33.1796 0
      vertex 133.224 32.7537 0
    endloop
  endfacet
  facet normal 0.587783 0.809019 -0
    outer loop
      vertex 127.3 34.013 0
      vertex 125.643 35.2172 2
      vertex 127.3 34.013 2
    endloop
  endfacet
  facet normal 0.587783 0.809019 0
    outer loop
      vertex 125.643 35.2172 2
      vertex 127.3 34.013 0
      vertex 125.643 35.2172 0
    endloop
  endfacet
  facet normal -0.587787 0.809016 0
    outer loop
      vertex 138.757 35.2172 0
      vertex 137.1 34.013 2
      vertex 138.757 35.2172 2
    endloop
  endfacet
  facet normal -0.587787 0.809016 0
    outer loop
      vertex 137.1 34.013 2
      vertex 138.757 35.2172 0
      vertex 137.1 34.013 0
    endloop
  endfacet
  facet normal 0.207911 0.978148 -0
    outer loop
      vertex 131.176 32.7537 0
      vertex 129.172 33.1796 2
      vertex 131.176 32.7537 2
    endloop
  endfacet
  facet normal 0.207911 0.978148 0
    outer loop
      vertex 129.172 33.1796 2
      vertex 131.176 32.7537 0
      vertex 129.172 33.1796 0
    endloop
  endfacet
  facet normal 0.866024 0.500002 0
    outer loop
      vertex 124.272 36.7397 2
      vertex 123.247 38.514 0
      vertex 123.247 38.514 2
    endloop
  endfacet
  facet normal 0.866024 0.500002 0
    outer loop
      vertex 123.247 38.514 0
      vertex 124.272 36.7397 2
      vertex 124.272 36.7397 0
    endloop
  endfacet
  facet normal 0.951056 0.309018 0
    outer loop
      vertex 123.247 38.514 2
      vertex 122.614 40.4625 0
      vertex 122.614 40.4625 2
    endloop
  endfacet
  facet normal 0.951056 0.309018 0
    outer loop
      vertex 122.614 40.4625 0
      vertex 123.247 38.514 2
      vertex 123.247 38.514 0
    endloop
  endfacet
  facet normal 0 1 -0
    outer loop
      vertex 133.224 32.7537 0
      vertex 131.176 32.7537 2
      vertex 133.224 32.7537 2
    endloop
  endfacet
  facet normal 0 1 0
    outer loop
      vertex 131.176 32.7537 2
      vertex 133.224 32.7537 0
      vertex 131.176 32.7537 0
    endloop
  endfacet
  facet normal 0 0.707107 0.707107
    outer loop
      vertex 147 27.1573 90
      vertex 145 80 37.1573
      vertex 145 27.1573 90
    endloop
  endfacet
  facet normal 2.45921e-008 0.707107 0.707107
    outer loop
      vertex 147 82 35.1573
      vertex 145 80 37.1573
      vertex 147 27.1573 90
    endloop
  endfacet
  facet normal 0 0.707107 0.707107
    outer loop
      vertex 147 82 35.1573
      vertex 144.427 81.7634 35.3939
      vertex 145 80 37.1573
    endloop
  endfacet
  facet normal 0 0.707107 0.707107
    outer loop
      vertex 146.427 83.7634 33.3939
      vertex 144.427 81.7634 35.3939
      vertex 147 82 35.1573
    endloop
  endfacet
  facet normal 0 0.707107 0.707107
    outer loop
      vertex 142.927 82.8532 34.3041
      vertex 142 83 34.1573
      vertex 142.147 82.8532 34.3041
    endloop
  endfacet
  facet normal 0 0.707107 0.707107
    outer loop
      vertex 144 85 32.1573
      vertex 142.927 82.8532 34.3041
      vertex 144.147 84.8532 32.3041
    endloop
  endfacet
  facet normal 0 0.707107 0.707107
    outer loop
      vertex 144.427 81.7634 35.3939
      vertex 144.147 84.8532 32.3041
      vertex 142.927 82.8532 34.3041
    endloop
  endfacet
  facet normal 0 0.707107 0.707107
    outer loop
      vertex 144.927 84.8532 32.3041
      vertex 144.427 81.7634 35.3939
      vertex 146.427 83.7634 33.3939
    endloop
  endfacet
  facet normal 0 0.707107 0.707107
    outer loop
      vertex 4.85316 82.8532 34.3041
      vertex 5 83 34.1573
      vertex 4.07294 82.8532 34.3041
    endloop
  endfacet
  facet normal 0 0.707107 0.707107
    outer loop
      vertex 2 80 37.1573
      vertex 0 27.1573 90
      vertex 2 27.1573 90
    endloop
  endfacet
  facet normal -2.45921e-008 0.707107 0.707107
    outer loop
      vertex 2 80 37.1573
      vertex 0 82 35.1573
      vertex 0 27.1573 90
    endloop
  endfacet
  facet normal 0 0.707107 0.707107
    outer loop
      vertex 2.57294 81.7634 35.3939
      vertex 0 82 35.1573
      vertex 2 80 37.1573
    endloop
  endfacet
  facet normal 0 0.707107 0.707107
    outer loop
      vertex 2.85316 84.8532 32.3041
      vertex 2.57294 81.7634 35.3939
      vertex 4.07294 82.8532 34.3041
    endloop
  endfacet
  facet normal 0 0.707107 0.707107
    outer loop
      vertex 2.57294 81.7634 35.3939
      vertex 0.572937 83.7634 33.3939
      vertex 0 82 35.1573
    endloop
  endfacet
  facet normal 0 0.707107 0.707107
    outer loop
      vertex 3 85 32.1573
      vertex 4.07294 82.8532 34.3041
      vertex 5 83 34.1573
    endloop
  endfacet
  facet normal 0 0.707107 0.707107
    outer loop
      vertex 142.927 82.8532 34.3041
      vertex 144 85 32.1573
      vertex 142 83 34.1573
    endloop
  endfacet
  facet normal 0 0.707107 0.707107
    outer loop
      vertex 144.427 81.7634 35.3939
      vertex 144.927 84.8532 32.3041
      vertex 144.147 84.8532 32.3041
    endloop
  endfacet
  facet normal 0 0.707107 0.707107
    outer loop
      vertex 142 83 34.1573
      vertex 144 85 32.1573
      vertex 5 83 34.1573
    endloop
  endfacet
  facet normal 0 0.707107 0.707107
    outer loop
      vertex 2.57294 81.7634 35.3939
      vertex 2.85316 84.8532 32.3041
      vertex 2.07294 84.8532 32.3041
    endloop
  endfacet
  facet normal 0 0.707107 0.707107
    outer loop
      vertex 2.57294 81.7634 35.3939
      vertex 2.07294 84.8532 32.3041
      vertex 0.572937 83.7634 33.3939
    endloop
  endfacet
  facet normal -0 0.707107 0.707107
    outer loop
      vertex 3 85 32.1573
      vertex 5 83 34.1573
      vertex 144 85 32.1573
    endloop
  endfacet
  facet normal 0 0.707107 0.707107
    outer loop
      vertex 4.07294 82.8532 34.3041
      vertex 3 85 32.1573
      vertex 2.85316 84.8532 32.3041
    endloop
  endfacet
endsolid OpenSCAD_Model
