solid OpenSCAD_Model
  facet normal -0.195096 0.980784 0
    outer loop
      vertex 3.08658 84.6194 0
      vertex 5 85 32.1573
      vertex 5 85 0
    endloop
  endfacet
  facet normal -0.195096 0.980784 0
    outer loop
      vertex 5 85 32.1573
      vertex 3.08658 84.6194 0
      vertex 3.08658 84.6194 32.5379
    endloop
  endfacet
  facet normal -0.83147 0.55557 0
    outer loop
      vertex 0.3806 81.9134 0
      vertex 1.46446 83.5355 33.6218
      vertex 1.46446 83.5355 0
    endloop
  endfacet
  facet normal -0.83147 0.55557 0
    outer loop
      vertex 1.46446 83.5355 33.6218
      vertex 0.3806 81.9134 0
      vertex 0.3806 81.9134 35.2439
    endloop
  endfacet
  facet normal -0.55557 0.83147 0
    outer loop
      vertex 1.46446 83.5355 0
      vertex 3.08658 84.6194 32.5379
      vertex 3.08658 84.6194 0
    endloop
  endfacet
  facet normal -0.55557 0.83147 0
    outer loop
      vertex 3.08658 84.6194 32.5379
      vertex 1.46446 83.5355 0
      vertex 1.46446 83.5355 33.6218
    endloop
  endfacet
  facet normal -0.55557 -0.83147 0
    outer loop
      vertex 1.46446 1.46446 0
      vertex 3.08658 0.3806 90
      vertex 1.46446 1.46446 90
    endloop
  endfacet
  facet normal -0.55557 -0.83147 -0
    outer loop
      vertex 3.08658 0.3806 90
      vertex 1.46446 1.46446 0
      vertex 3.08658 0.3806 0
    endloop
  endfacet
  facet normal 0.55557 0.83147 -0
    outer loop
      vertex 143.536 83.5355 0
      vertex 141.913 84.6194 32.5379
      vertex 143.536 83.5355 33.6218
    endloop
  endfacet
  facet normal 0.55557 0.83147 0
    outer loop
      vertex 141.913 84.6194 32.5379
      vertex 143.536 83.5355 0
      vertex 141.913 84.6194 0
    endloop
  endfacet
  facet normal -1 0 0
    outer loop
      vertex 0 5 0
      vertex 0 80 37.1573
      vertex 0 80 0
    endloop
  endfacet
  facet normal -1 -0 0
    outer loop
      vertex 0 80 37.1573
      vertex 0 5 0
      vertex 0 27.1573 90
    endloop
  endfacet
  facet normal -1 -0 0
    outer loop
      vertex 0 27.1573 90
      vertex 0 5 0
      vertex 0 5 90
    endloop
  endfacet
  facet normal 0.195098 0.980784 -0
    outer loop
      vertex 141.913 84.6194 0
      vertex 140 85 32.1573
      vertex 141.913 84.6194 32.5379
    endloop
  endfacet
  facet normal 0.195098 0.980784 0
    outer loop
      vertex 140 85 32.1573
      vertex 141.913 84.6194 0
      vertex 140 85 0
    endloop
  endfacet
  facet normal 0 1 -0
    outer loop
      vertex 140 85 0
      vertex 5 85 32.1573
      vertex 140 85 32.1573
    endloop
  endfacet
  facet normal 0 1 0
    outer loop
      vertex 5 85 32.1573
      vertex 140 85 0
      vertex 5 85 0
    endloop
  endfacet
  facet normal -0.19509 -0.980785 0
    outer loop
      vertex 3.08658 0.3806 0
      vertex 4.99998 0 90
      vertex 3.08658 0.3806 90
    endloop
  endfacet
  facet normal -0.19509 -0.980785 -0
    outer loop
      vertex 4.99998 0 90
      vertex 3.08658 0.3806 0
      vertex 4.99998 0 0
    endloop
  endfacet
  facet normal 0.19509 -0.980785 0
    outer loop
      vertex 140 0 0
      vertex 141.913 0.3806 90
      vertex 140 0 90
    endloop
  endfacet
  facet normal 0.19509 -0.980785 0
    outer loop
      vertex 141.913 0.3806 90
      vertex 140 0 0
      vertex 141.913 0.3806 0
    endloop
  endfacet
  facet normal -0.980786 -0.195089 0
    outer loop
      vertex 0.3806 3.08658 0
      vertex 0 5 90
      vertex 0 5 0
    endloop
  endfacet
  facet normal -0.980786 -0.195089 0
    outer loop
      vertex 0 5 90
      vertex 0.3806 3.08658 0
      vertex 0.3806 3.08658 90
    endloop
  endfacet
  facet normal 0 0 -1
    outer loop
      vertex 131 76.1144 0
      vertex 133.228 51.8204 0
      vertex 131.224 52.2463 0
    endloop
  endfacet
  facet normal 0 0 -1
    outer loop
      vertex 133.228 51.8204 0
      vertex 131 76.1144 0
      vertex 131.8 77.5 0
    endloop
  endfacet
  facet normal 0 0 -1
    outer loop
      vertex 131.224 52.2463 0
      vertex 129.4 76.1144 0
      vertex 131 76.1144 0
    endloop
  endfacet
  facet normal 0 0 -1
    outer loop
      vertex 129.176 52.2463 0
      vertex 129.4 76.1144 0
      vertex 131.224 52.2463 0
    endloop
  endfacet
  facet normal 0 0 -1
    outer loop
      vertex 127.172 51.8204 0
      vertex 129.4 76.1144 0
      vertex 129.176 52.2463 0
    endloop
  endfacet
  facet normal 0 0 -1
    outer loop
      vertex 125.3 50.987 0
      vertex 129.4 76.1144 0
      vertex 127.172 51.8204 0
    endloop
  endfacet
  facet normal 0 0 -1
    outer loop
      vertex 145 5 0
      vertex 139.786 40.4625 0
      vertex 140 42.5 0
    endloop
  endfacet
  facet normal 0 0 -1
    outer loop
      vertex 145 5 0
      vertex 139.153 38.514 0
      vertex 139.786 40.4625 0
    endloop
  endfacet
  facet normal 0 0 -1
    outer loop
      vertex 145 5 0
      vertex 138.128 36.7397 0
      vertex 139.153 38.514 0
    endloop
  endfacet
  facet normal 0 0 -1
    outer loop
      vertex 145 5 0
      vertex 136.757 35.2172 0
      vertex 138.128 36.7397 0
    endloop
  endfacet
  facet normal 0 0 -1
    outer loop
      vertex 145 5 0
      vertex 135.1 34.013 0
      vertex 136.757 35.2172 0
    endloop
  endfacet
  facet normal 0 0 -1
    outer loop
      vertex 145 5 0
      vertex 133.228 33.1796 0
      vertex 135.1 34.013 0
    endloop
  endfacet
  facet normal 0 0 -1
    outer loop
      vertex 145 5 0
      vertex 131.224 32.7537 0
      vertex 133.228 33.1796 0
    endloop
  endfacet
  facet normal 0 0 -1
    outer loop
      vertex 140 0 0
      vertex 129.176 32.7537 0
      vertex 131.224 32.7537 0
    endloop
  endfacet
  facet normal 0 0 -1
    outer loop
      vertex 140 0 0
      vertex 127.172 33.1796 0
      vertex 129.176 32.7537 0
    endloop
  endfacet
  facet normal 0 0 -1
    outer loop
      vertex 104 20 0
      vertex 127.172 33.1796 0
      vertex 140 0 0
    endloop
  endfacet
  facet normal -0 0 -1
    outer loop
      vertex 127.172 33.1796 0
      vertex 104 20 0
      vertex 125.3 34.013 0
    endloop
  endfacet
  facet normal -0 0 -1
    outer loop
      vertex 125.3 34.013 0
      vertex 104 20 0
      vertex 123.643 35.2172 0
    endloop
  endfacet
  facet normal -0 0 -1
    outer loop
      vertex 123.643 35.2172 0
      vertex 104 20 0
      vertex 122.272 36.7397 0
    endloop
  endfacet
  facet normal -0 0 -1
    outer loop
      vertex 120.614 40.4625 0
      vertex 104 20 0
      vertex 120.4 42.5 0
    endloop
  endfacet
  facet normal -0 0 -1
    outer loop
      vertex 121.247 38.514 0
      vertex 104 20 0
      vertex 120.614 40.4625 0
    endloop
  endfacet
  facet normal -0 0 -1
    outer loop
      vertex 122.272 36.7397 0
      vertex 104 20 0
      vertex 121.247 38.514 0
    endloop
  endfacet
  facet normal 0 0 -1
    outer loop
      vertex 4.99998 0 0
      vertex 104 20 0
      vertex 140 0 0
    endloop
  endfacet
  facet normal 0 0 -1
    outer loop
      vertex 0 80 0
      vertex 20 70 0
      vertex 20 20 0
    endloop
  endfacet
  facet normal -0 0 -1
    outer loop
      vertex 104 20 0
      vertex 4.99998 0 0
      vertex 20 20 0
    endloop
  endfacet
  facet normal 0 0 -1
    outer loop
      vertex 0 5 0
      vertex 20 20 0
      vertex 4.99998 0 0
    endloop
  endfacet
  facet normal 0 0 -1
    outer loop
      vertex 0 5 0
      vertex 4.99998 0 0
      vertex 3.08658 0.3806 0
    endloop
  endfacet
  facet normal 0 0 -1
    outer loop
      vertex 0 80 0
      vertex 20 20 0
      vertex 0 5 0
    endloop
  endfacet
  facet normal 0 0 -1
    outer loop
      vertex 0 5 0
      vertex 3.08658 0.3806 0
      vertex 1.46446 1.46446 0
    endloop
  endfacet
  facet normal 0 0 -1
    outer loop
      vertex 20 70 0
      vertex 0 80 0
      vertex 5 85 0
    endloop
  endfacet
  facet normal 0 0 -1
    outer loop
      vertex 0 5 0
      vertex 1.46446 1.46446 0
      vertex 0.3806 3.08658 0
    endloop
  endfacet
  facet normal 0 0 -1
    outer loop
      vertex 5 85 0
      vertex 0 80 0
      vertex 3.08658 84.6194 0
    endloop
  endfacet
  facet normal 0 0 -1
    outer loop
      vertex 3.08658 84.6194 0
      vertex 0 80 0
      vertex 1.46446 83.5355 0
    endloop
  endfacet
  facet normal 0 0 -1
    outer loop
      vertex 1.46446 83.5355 0
      vertex 0 80 0
      vertex 0.3806 81.9134 0
    endloop
  endfacet
  facet normal 0 0 -1
    outer loop
      vertex 140 0 0
      vertex 145 5 0
      vertex 144.619 3.08658 0
    endloop
  endfacet
  facet normal 0 0 -1
    outer loop
      vertex 145 5 0
      vertex 140 42.5 0
      vertex 145 80 0
    endloop
  endfacet
  facet normal 0 0 -1
    outer loop
      vertex 140 0 0
      vertex 144.619 3.08658 0
      vertex 143.536 1.46446 0
    endloop
  endfacet
  facet normal 0 0 -1
    outer loop
      vertex 139.786 44.5375 0
      vertex 145 80 0
      vertex 140 42.5 0
    endloop
  endfacet
  facet normal 0 0 -1
    outer loop
      vertex 140 0 0
      vertex 143.536 1.46446 0
      vertex 141.913 0.3806 0
    endloop
  endfacet
  facet normal 0 0 -1
    outer loop
      vertex 139.153 46.486 0
      vertex 145 80 0
      vertex 139.786 44.5375 0
    endloop
  endfacet
  facet normal 0 0 -1
    outer loop
      vertex 131.224 32.7537 0
      vertex 145 5 0
      vertex 140 0 0
    endloop
  endfacet
  facet normal 0 0 -1
    outer loop
      vertex 138.128 48.2603 0
      vertex 145 80 0
      vertex 139.153 46.486 0
    endloop
  endfacet
  facet normal 0 0 -1
    outer loop
      vertex 136.757 49.7828 0
      vertex 145 80 0
      vertex 138.128 48.2603 0
    endloop
  endfacet
  facet normal 0 0 -1
    outer loop
      vertex 135.1 50.987 0
      vertex 145 80 0
      vertex 136.757 49.7828 0
    endloop
  endfacet
  facet normal 0 0 -1
    outer loop
      vertex 131.8 77.5 0
      vertex 145 80 0
      vertex 135.1 50.987 0
    endloop
  endfacet
  facet normal 0 -0 -1
    outer loop
      vertex 140 85 0
      vertex 145 80 0
      vertex 131.8 77.5 0
    endloop
  endfacet
  facet normal 0 0 -1
    outer loop
      vertex 144.619 81.9134 0
      vertex 140 85 0
      vertex 143.536 83.5355 0
    endloop
  endfacet
  facet normal 0 0 -1
    outer loop
      vertex 145 80 0
      vertex 140 85 0
      vertex 144.619 81.9134 0
    endloop
  endfacet
  facet normal 0 0 -1
    outer loop
      vertex 131.8 77.5 0
      vertex 135.1 50.987 0
      vertex 133.228 51.8204 0
    endloop
  endfacet
  facet normal 0 0 -1
    outer loop
      vertex 143.536 83.5355 0
      vertex 140 85 0
      vertex 141.913 84.6194 0
    endloop
  endfacet
  facet normal 0 0 -1
    outer loop
      vertex 131 78.8856 0
      vertex 140 85 0
      vertex 131.8 77.5 0
    endloop
  endfacet
  facet normal 0 0 -1
    outer loop
      vertex 129.4 78.8856 0
      vertex 140 85 0
      vertex 131 78.8856 0
    endloop
  endfacet
  facet normal 0 0 -1
    outer loop
      vertex 104 70 0
      vertex 129.4 76.1144 0
      vertex 125.3 50.987 0
    endloop
  endfacet
  facet normal 0 0 -1
    outer loop
      vertex 104 70 0
      vertex 125.3 50.987 0
      vertex 123.643 49.7828 0
    endloop
  endfacet
  facet normal 0 0 -1
    outer loop
      vertex 104 70 0
      vertex 123.643 49.7828 0
      vertex 122.272 48.2603 0
    endloop
  endfacet
  facet normal 0 0 -1
    outer loop
      vertex 104 70 0
      vertex 122.272 48.2603 0
      vertex 121.247 46.486 0
    endloop
  endfacet
  facet normal 0 0 -1
    outer loop
      vertex 104 70 0
      vertex 121.247 46.486 0
      vertex 120.614 44.5375 0
    endloop
  endfacet
  facet normal 0 0 -1
    outer loop
      vertex 104 70 0
      vertex 120.4 42.5 0
      vertex 104 20 0
    endloop
  endfacet
  facet normal 0 0 -1
    outer loop
      vertex 120.4 42.5 0
      vertex 104 70 0
      vertex 120.614 44.5375 0
    endloop
  endfacet
  facet normal -0 0 -1
    outer loop
      vertex 129.4 76.1144 0
      vertex 104 70 0
      vertex 128.6 77.5 0
    endloop
  endfacet
  facet normal 0 0 -1
    outer loop
      vertex 104 70 0
      vertex 129.4 78.8856 0
      vertex 128.6 77.5 0
    endloop
  endfacet
  facet normal 0 0 -1
    outer loop
      vertex 104 70 0
      vertex 140 85 0
      vertex 129.4 78.8856 0
    endloop
  endfacet
  facet normal 0 0 -1
    outer loop
      vertex 5 85 0
      vertex 104 70 0
      vertex 20 70 0
    endloop
  endfacet
  facet normal 0 0 -1
    outer loop
      vertex 104 70 0
      vertex 5 85 0
      vertex 140 85 0
    endloop
  endfacet
  facet normal -0 0 1
    outer loop
      vertex 0 27.1573 90
      vertex 2 7 90
      vertex 2 27.1573 90
    endloop
  endfacet
  facet normal 0 -0 1
    outer loop
      vertex 0.3806 3.08658 90
      vertex 2 7 90
      vertex 0 5 90
    endloop
  endfacet
  facet normal 0 0 1
    outer loop
      vertex 2 7 90
      vertex 0 27.1573 90
      vertex 0 5 90
    endloop
  endfacet
  facet normal 0 0 1
    outer loop
      vertex 2 7 90
      vertex 0.3806 3.08658 90
      vertex 1.46446 1.46446 90
    endloop
  endfacet
  facet normal -0 0 1
    outer loop
      vertex 143 7 90
      vertex 145 5 90
      vertex 145 27.1573 90
    endloop
  endfacet
  facet normal -0 0 1
    outer loop
      vertex 142.619 5.08658 90
      vertex 145 5 90
      vertex 143 7 90
    endloop
  endfacet
  facet normal 0 0 1
    outer loop
      vertex 143 7 90
      vertex 145 27.1573 90
      vertex 143 27.1573 90
    endloop
  endfacet
  facet normal 0 0 1
    outer loop
      vertex 145 5 90
      vertex 142.619 5.08658 90
      vertex 144.619 3.08658 90
    endloop
  endfacet
  facet normal -0 0 1
    outer loop
      vertex 141.536 3.46446 90
      vertex 144.619 3.08658 90
      vertex 142.619 5.08658 90
    endloop
  endfacet
  facet normal 0 0 1
    outer loop
      vertex 144.619 3.08658 90
      vertex 141.536 3.46446 90
      vertex 143.536 1.46446 90
    endloop
  endfacet
  facet normal 0 0 1
    outer loop
      vertex 143.536 1.46446 90
      vertex 141.536 3.46446 90
      vertex 141.913 0.3806 90
    endloop
  endfacet
  facet normal -0 0 1
    outer loop
      vertex 139.913 2.3806 90
      vertex 141.913 0.3806 90
      vertex 141.536 3.46446 90
    endloop
  endfacet
  facet normal 0 0 1
    outer loop
      vertex 141.913 0.3806 90
      vertex 139.913 2.3806 90
      vertex 140 0 90
    endloop
  endfacet
  facet normal -0 0 1
    outer loop
      vertex 138 2 90
      vertex 140 0 90
      vertex 139.913 2.3806 90
    endloop
  endfacet
  facet normal -0 0 1
    outer loop
      vertex 6.99998 2 90
      vertex 140 0 90
      vertex 138 2 90
    endloop
  endfacet
  facet normal 0 0 1
    outer loop
      vertex 6.99998 2 90
      vertex 4.99998 0 90
      vertex 140 0 90
    endloop
  endfacet
  facet normal 0 0 1
    outer loop
      vertex 5.08658 2.3806 90
      vertex 4.99998 0 90
      vertex 6.99998 2 90
    endloop
  endfacet
  facet normal 0 0 1
    outer loop
      vertex 3.08658 0.3806 90
      vertex 5.08658 2.3806 90
      vertex 3.46446 3.46446 90
    endloop
  endfacet
  facet normal 0 0 1
    outer loop
      vertex 5.08658 2.3806 90
      vertex 3.08658 0.3806 90
      vertex 4.99998 0 90
    endloop
  endfacet
  facet normal 0 0 1
    outer loop
      vertex 1.46446 1.46446 90
      vertex 3.46446 3.46446 90
      vertex 2.3806 5.08658 90
    endloop
  endfacet
  facet normal 0 0 1
    outer loop
      vertex 1.46446 1.46446 90
      vertex 2.3806 5.08658 90
      vertex 2 7 90
    endloop
  endfacet
  facet normal 0 0 1
    outer loop
      vertex 3.46446 3.46446 90
      vertex 1.46446 1.46446 90
      vertex 3.08658 0.3806 90
    endloop
  endfacet
  facet normal -0.980785 0.19509 0
    outer loop
      vertex 0 80 0
      vertex 0.3806 81.9134 35.2439
      vertex 0.3806 81.9134 0
    endloop
  endfacet
  facet normal -0.980785 0.19509 0
    outer loop
      vertex 0.3806 81.9134 35.2439
      vertex 0 80 0
      vertex 0 80 37.1573
    endloop
  endfacet
  facet normal 0.83147 -0.55557 0
    outer loop
      vertex 143.536 1.46446 90
      vertex 144.619 3.08658 0
      vertex 144.619 3.08658 90
    endloop
  endfacet
  facet normal 0.83147 -0.55557 0
    outer loop
      vertex 144.619 3.08658 0
      vertex 143.536 1.46446 90
      vertex 143.536 1.46446 0
    endloop
  endfacet
  facet normal 1 0 0
    outer loop
      vertex 145 5 0
      vertex 145 80 37.1573
      vertex 145 27.1573 90
    endloop
  endfacet
  facet normal 1 0 0
    outer loop
      vertex 145 5 0
      vertex 145 27.1573 90
      vertex 145 5 90
    endloop
  endfacet
  facet normal 1 0 0
    outer loop
      vertex 145 80 37.1573
      vertex 145 5 0
      vertex 145 80 0
    endloop
  endfacet
  facet normal 0.83147 0.55557 -0
    outer loop
      vertex 144.619 81.9134 0
      vertex 143.536 83.5355 33.6218
      vertex 144.619 81.9134 35.2439
    endloop
  endfacet
  facet normal 0.83147 0.55557 0
    outer loop
      vertex 143.536 83.5355 33.6218
      vertex 144.619 81.9134 0
      vertex 143.536 83.5355 0
    endloop
  endfacet
  facet normal 0.980784 0.195098 -0
    outer loop
      vertex 145 80 0
      vertex 144.619 81.9134 35.2439
      vertex 145 80 37.1573
    endloop
  endfacet
  facet normal 0.980784 0.195098 0
    outer loop
      vertex 144.619 81.9134 35.2439
      vertex 145 80 0
      vertex 144.619 81.9134 0
    endloop
  endfacet
  facet normal 0 -1 0
    outer loop
      vertex 4.99998 0 0
      vertex 140 0 90
      vertex 4.99998 0 90
    endloop
  endfacet
  facet normal 0 -1 -0
    outer loop
      vertex 140 0 90
      vertex 4.99998 0 0
      vertex 140 0 0
    endloop
  endfacet
  facet normal 0.55557 -0.83147 0
    outer loop
      vertex 141.913 0.3806 0
      vertex 143.536 1.46446 90
      vertex 141.913 0.3806 90
    endloop
  endfacet
  facet normal 0.55557 -0.83147 0
    outer loop
      vertex 143.536 1.46446 90
      vertex 141.913 0.3806 0
      vertex 143.536 1.46446 0
    endloop
  endfacet
  facet normal -0.83147 -0.55557 0
    outer loop
      vertex 1.46446 1.46446 0
      vertex 0.3806 3.08658 90
      vertex 0.3806 3.08658 0
    endloop
  endfacet
  facet normal -0.83147 -0.55557 0
    outer loop
      vertex 0.3806 3.08658 90
      vertex 1.46446 1.46446 0
      vertex 1.46446 1.46446 90
    endloop
  endfacet
  facet normal 0.980784 -0.195096 0
    outer loop
      vertex 144.619 3.08658 90
      vertex 145 5 0
      vertex 145 5 90
    endloop
  endfacet
  facet normal 0.980784 -0.195096 0
    outer loop
      vertex 145 5 0
      vertex 144.619 3.08658 90
      vertex 144.619 3.08658 0
    endloop
  endfacet
  facet normal 0.195096 -0.980784 0
    outer loop
      vertex 5.08658 82.6194 2
      vertex 7 83 34.1573
      vertex 5.08658 82.6194 34.5379
    endloop
  endfacet
  facet normal 0.195096 -0.980784 0
    outer loop
      vertex 7 83 34.1573
      vertex 5.08658 82.6194 2
      vertex 7 83 2
    endloop
  endfacet
  facet normal 0.83147 -0.55557 0
    outer loop
      vertex 2.3806 79.9134 2
      vertex 3.46446 81.5355 35.6218
      vertex 2.3806 79.9134 37.2439
    endloop
  endfacet
  facet normal 0.83147 -0.55557 0
    outer loop
      vertex 3.46446 81.5355 35.6218
      vertex 2.3806 79.9134 2
      vertex 3.46446 81.5355 2
    endloop
  endfacet
  facet normal 0.55557 -0.83147 0
    outer loop
      vertex 3.46446 81.5355 2
      vertex 5.08658 82.6194 34.5379
      vertex 3.46446 81.5355 35.6218
    endloop
  endfacet
  facet normal 0.55557 -0.83147 0
    outer loop
      vertex 5.08658 82.6194 34.5379
      vertex 3.46446 81.5355 2
      vertex 5.08658 82.6194 2
    endloop
  endfacet
  facet normal -0.55557 -0.83147 0
    outer loop
      vertex 141.536 81.5355 2
      vertex 139.913 82.6194 34.5379
      vertex 139.913 82.6194 2
    endloop
  endfacet
  facet normal -0.55557 -0.83147 0
    outer loop
      vertex 139.913 82.6194 34.5379
      vertex 141.536 81.5355 2
      vertex 141.536 81.5355 35.6218
    endloop
  endfacet
  facet normal 1 0 0
    outer loop
      vertex 2 7 2
      vertex 2 78 39.1573
      vertex 2 27.1573 90
    endloop
  endfacet
  facet normal 1 0 0
    outer loop
      vertex 2 7 2
      vertex 2 27.1573 90
      vertex 2 7 90
    endloop
  endfacet
  facet normal 1 0 0
    outer loop
      vertex 2 78 39.1573
      vertex 2 7 2
      vertex 2 78 2
    endloop
  endfacet
  facet normal -0.195098 -0.980784 0
    outer loop
      vertex 139.913 82.6194 2
      vertex 138 83 34.1573
      vertex 138 83 2
    endloop
  endfacet
  facet normal -0.195098 -0.980784 0
    outer loop
      vertex 138 83 34.1573
      vertex 139.913 82.6194 2
      vertex 139.913 82.6194 34.5379
    endloop
  endfacet
  facet normal 0 -1 0
    outer loop
      vertex 7 83 2
      vertex 138 83 34.1573
      vertex 7 83 34.1573
    endloop
  endfacet
  facet normal 0 -1 -0
    outer loop
      vertex 138 83 34.1573
      vertex 7 83 2
      vertex 138 83 2
    endloop
  endfacet
  facet normal 0.19509 0.980785 -0
    outer loop
      vertex 6.99998 2 2
      vertex 5.08658 2.3806 90
      vertex 6.99998 2 90
    endloop
  endfacet
  facet normal 0.19509 0.980785 0
    outer loop
      vertex 5.08658 2.3806 90
      vertex 6.99998 2 2
      vertex 5.08658 2.3806 2
    endloop
  endfacet
  facet normal -0.19509 0.980785 0
    outer loop
      vertex 139.913 2.3806 2
      vertex 138 2 90
      vertex 139.913 2.3806 90
    endloop
  endfacet
  facet normal -0.19509 0.980785 0
    outer loop
      vertex 138 2 90
      vertex 139.913 2.3806 2
      vertex 138 2 2
    endloop
  endfacet
  facet normal 0.980786 0.195089 0
    outer loop
      vertex 2.3806 5.08658 90
      vertex 2 7 2
      vertex 2 7 90
    endloop
  endfacet
  facet normal 0.980786 0.195089 0
    outer loop
      vertex 2 7 2
      vertex 2.3806 5.08658 90
      vertex 2.3806 5.08658 2
    endloop
  endfacet
  facet normal 0 0 1
    outer loop
      vertex 138 83 2
      vertex 143 78 2
      vertex 142.619 79.9134 2
    endloop
  endfacet
  facet normal 0 0 1
    outer loop
      vertex 143 78 2
      vertex 140 42.5 2
      vertex 143 7 2
    endloop
  endfacet
  facet normal 0 0 1
    outer loop
      vertex 138 83 2
      vertex 142.619 79.9134 2
      vertex 141.536 81.5355 2
    endloop
  endfacet
  facet normal -0 0 1
    outer loop
      vertex 139.786 40.4625 2
      vertex 143 7 2
      vertex 140 42.5 2
    endloop
  endfacet
  facet normal -0 0 1
    outer loop
      vertex 139.153 38.514 2
      vertex 143 7 2
      vertex 139.786 40.4625 2
    endloop
  endfacet
  facet normal 0 0 1
    outer loop
      vertex 138 83 2
      vertex 141.536 81.5355 2
      vertex 139.913 82.6194 2
    endloop
  endfacet
  facet normal 0 0 1
    outer loop
      vertex 143 78 2
      vertex 139.786 44.5375 2
      vertex 140 42.5 2
    endloop
  endfacet
  facet normal 0 0 1
    outer loop
      vertex 143 78 2
      vertex 139.153 46.486 2
      vertex 139.786 44.5375 2
    endloop
  endfacet
  facet normal 0 0 1
    outer loop
      vertex 143 78 2
      vertex 138.128 48.2603 2
      vertex 139.153 46.486 2
    endloop
  endfacet
  facet normal 0 0 1
    outer loop
      vertex 143 78 2
      vertex 138 83 2
      vertex 131.8 77.5 2
    endloop
  endfacet
  facet normal 0 0 1
    outer loop
      vertex 143 78 2
      vertex 136.757 49.7828 2
      vertex 138.128 48.2603 2
    endloop
  endfacet
  facet normal 0 -0 1
    outer loop
      vertex 133.228 51.8204 2
      vertex 143 78 2
      vertex 131 76.1144 2
    endloop
  endfacet
  facet normal 0 0 1
    outer loop
      vertex 143 78 2
      vertex 135.1 50.987 2
      vertex 136.757 49.7828 2
    endloop
  endfacet
  facet normal 0 0 1
    outer loop
      vertex 143 78 2
      vertex 131.8 77.5 2
      vertex 131 76.1144 2
    endloop
  endfacet
  facet normal 0 0 1
    outer loop
      vertex 138 83 2
      vertex 131 78.8856 2
      vertex 131.8 77.5 2
    endloop
  endfacet
  facet normal 0 0 1
    outer loop
      vertex 138 83 2
      vertex 129.4 78.8856 2
      vertex 131 78.8856 2
    endloop
  endfacet
  facet normal 0 0 1
    outer loop
      vertex 129.4 76.1144 2
      vertex 125.3 50.987 2
      vertex 127.172 51.8204 2
    endloop
  endfacet
  facet normal 0 0 1
    outer loop
      vertex 129.4 76.1144 2
      vertex 104 70 2
      vertex 125.3 50.987 2
    endloop
  endfacet
  facet normal 0 0 1
    outer loop
      vertex 125.3 50.987 2
      vertex 104 70 2
      vertex 123.643 49.7828 2
    endloop
  endfacet
  facet normal 0 0 1
    outer loop
      vertex 123.643 49.7828 2
      vertex 104 70 2
      vertex 122.272 48.2603 2
    endloop
  endfacet
  facet normal 0 0 1
    outer loop
      vertex 122.272 48.2603 2
      vertex 104 70 2
      vertex 121.247 46.486 2
    endloop
  endfacet
  facet normal 0 0 1
    outer loop
      vertex 120.614 44.5375 2
      vertex 104 70 2
      vertex 120.4 42.5 2
    endloop
  endfacet
  facet normal 0 0 1
    outer loop
      vertex 121.247 46.486 2
      vertex 104 70 2
      vertex 120.614 44.5375 2
    endloop
  endfacet
  facet normal 0 0 1
    outer loop
      vertex 129.4 78.8856 2
      vertex 104 70 2
      vertex 128.6 77.5 2
    endloop
  endfacet
  facet normal -0 0 1
    outer loop
      vertex 7 83 2
      vertex 129.4 78.8856 2
      vertex 138 83 2
    endloop
  endfacet
  facet normal 0 0 1
    outer loop
      vertex 129.4 78.8856 2
      vertex 7 83 2
      vertex 104 70 2
    endloop
  endfacet
  facet normal -0 0 1
    outer loop
      vertex 2 78 2
      vertex 20 70 2
      vertex 7 83 2
    endloop
  endfacet
  facet normal 0 0 1
    outer loop
      vertex 104 70 2
      vertex 7 83 2
      vertex 20 70 2
    endloop
  endfacet
  facet normal -0 0 1
    outer loop
      vertex 138.128 36.7397 2
      vertex 143 7 2
      vertex 139.153 38.514 2
    endloop
  endfacet
  facet normal -0 0 1
    outer loop
      vertex 136.757 35.2172 2
      vertex 143 7 2
      vertex 138.128 36.7397 2
    endloop
  endfacet
  facet normal -0 0 1
    outer loop
      vertex 135.1 34.013 2
      vertex 143 7 2
      vertex 136.757 35.2172 2
    endloop
  endfacet
  facet normal -0 0 1
    outer loop
      vertex 133.228 33.1796 2
      vertex 143 7 2
      vertex 135.1 34.013 2
    endloop
  endfacet
  facet normal -0 0 1
    outer loop
      vertex 131.224 32.7537 2
      vertex 143 7 2
      vertex 133.228 33.1796 2
    endloop
  endfacet
  facet normal -0 0 1
    outer loop
      vertex 129.176 32.7537 2
      vertex 143 7 2
      vertex 131.224 32.7537 2
    endloop
  endfacet
  facet normal 0 0 1
    outer loop
      vertex 143 7 2
      vertex 138 2 2
      vertex 142.619 5.08658 2
    endloop
  endfacet
  facet normal 0 0 1
    outer loop
      vertex 141.536 3.46446 2
      vertex 138 2 2
      vertex 139.913 2.3806 2
    endloop
  endfacet
  facet normal 0 0 1
    outer loop
      vertex 142.619 5.08658 2
      vertex 138 2 2
      vertex 141.536 3.46446 2
    endloop
  endfacet
  facet normal 0 0 1
    outer loop
      vertex 143 7 2
      vertex 129.176 32.7537 2
      vertex 138 2 2
    endloop
  endfacet
  facet normal 0 0 1
    outer loop
      vertex 127.172 33.1796 2
      vertex 138 2 2
      vertex 129.176 32.7537 2
    endloop
  endfacet
  facet normal 0 0 1
    outer loop
      vertex 104 20 2
      vertex 127.172 33.1796 2
      vertex 125.3 34.013 2
    endloop
  endfacet
  facet normal 0 0 1
    outer loop
      vertex 104 20 2
      vertex 125.3 34.013 2
      vertex 123.643 35.2172 2
    endloop
  endfacet
  facet normal 0 0 1
    outer loop
      vertex 104 20 2
      vertex 123.643 35.2172 2
      vertex 122.272 36.7397 2
    endloop
  endfacet
  facet normal 0 0 1
    outer loop
      vertex 104 20 2
      vertex 122.272 36.7397 2
      vertex 121.247 38.514 2
    endloop
  endfacet
  facet normal 0 0 1
    outer loop
      vertex 104 20 2
      vertex 120.4 42.5 2
      vertex 104 70 2
    endloop
  endfacet
  facet normal 0 0 1
    outer loop
      vertex 120.4 42.5 2
      vertex 104 20 2
      vertex 120.614 40.4625 2
    endloop
  endfacet
  facet normal 0 0 1
    outer loop
      vertex 120.614 40.4625 2
      vertex 104 20 2
      vertex 121.247 38.514 2
    endloop
  endfacet
  facet normal 0 0 1
    outer loop
      vertex 127.172 33.1796 2
      vertex 104 20 2
      vertex 138 2 2
    endloop
  endfacet
  facet normal 0 0 1
    outer loop
      vertex 6.99998 2 2
      vertex 104 20 2
      vertex 20 20 2
    endloop
  endfacet
  facet normal 0 0 1
    outer loop
      vertex 104 20 2
      vertex 6.99998 2 2
      vertex 138 2 2
    endloop
  endfacet
  facet normal 0 0 1
    outer loop
      vertex 20 70 2
      vertex 2 78 2
      vertex 20 20 2
    endloop
  endfacet
  facet normal 0 0 1
    outer loop
      vertex 2 78 2
      vertex 7 83 2
      vertex 5.08658 82.6194 2
    endloop
  endfacet
  facet normal 0 0 1
    outer loop
      vertex 2 7 2
      vertex 20 20 2
      vertex 2 78 2
    endloop
  endfacet
  facet normal 0 0 1
    outer loop
      vertex 2 78 2
      vertex 5.08658 82.6194 2
      vertex 3.46446 81.5355 2
    endloop
  endfacet
  facet normal 0 0 1
    outer loop
      vertex 20 20 2
      vertex 2 7 2
      vertex 6.99998 2 2
    endloop
  endfacet
  facet normal 0 0 1
    outer loop
      vertex 2 78 2
      vertex 3.46446 81.5355 2
      vertex 2.3806 79.9134 2
    endloop
  endfacet
  facet normal 0 0 1
    outer loop
      vertex 6.99998 2 2
      vertex 2 7 2
      vertex 5.08658 2.3806 2
    endloop
  endfacet
  facet normal 0 0 1
    outer loop
      vertex 5.08658 2.3806 2
      vertex 2 7 2
      vertex 3.46446 3.46446 2
    endloop
  endfacet
  facet normal 0 0 1
    outer loop
      vertex 3.46446 3.46446 2
      vertex 2 7 2
      vertex 2.3806 5.08658 2
    endloop
  endfacet
  facet normal 0 0 1
    outer loop
      vertex 143 78 2
      vertex 133.228 51.8204 2
      vertex 135.1 50.987 2
    endloop
  endfacet
  facet normal 0 0 1
    outer loop
      vertex 133.228 51.8204 2
      vertex 131 76.1144 2
      vertex 131.224 52.2463 2
    endloop
  endfacet
  facet normal -0 0 1
    outer loop
      vertex 129.4 76.1144 2
      vertex 131.224 52.2463 2
      vertex 131 76.1144 2
    endloop
  endfacet
  facet normal 0 0 1
    outer loop
      vertex 129.4 76.1144 2
      vertex 129.176 52.2463 2
      vertex 131.224 52.2463 2
    endloop
  endfacet
  facet normal 0 0 1
    outer loop
      vertex 104 70 2
      vertex 129.4 76.1144 2
      vertex 128.6 77.5 2
    endloop
  endfacet
  facet normal 0 0 1
    outer loop
      vertex 129.4 76.1144 2
      vertex 127.172 51.8204 2
      vertex 129.176 52.2463 2
    endloop
  endfacet
  facet normal 0.980785 -0.19509 0
    outer loop
      vertex 2 78 2
      vertex 2.3806 79.9134 37.2439
      vertex 2 78 39.1573
    endloop
  endfacet
  facet normal 0.980785 -0.19509 0
    outer loop
      vertex 2.3806 79.9134 37.2439
      vertex 2 78 2
      vertex 2.3806 79.9134 2
    endloop
  endfacet
  facet normal -0.83147 0.55557 0
    outer loop
      vertex 141.536 3.46446 2
      vertex 142.619 5.08658 90
      vertex 142.619 5.08658 2
    endloop
  endfacet
  facet normal -0.83147 0.55557 0
    outer loop
      vertex 142.619 5.08658 90
      vertex 141.536 3.46446 2
      vertex 141.536 3.46446 90
    endloop
  endfacet
  facet normal -1 0 0
    outer loop
      vertex 143 7 2
      vertex 143 78 39.1573
      vertex 143 78 2
    endloop
  endfacet
  facet normal -1 -0 0
    outer loop
      vertex 143 78 39.1573
      vertex 143 7 2
      vertex 143 27.1573 90
    endloop
  endfacet
  facet normal -1 -0 0
    outer loop
      vertex 143 27.1573 90
      vertex 143 7 2
      vertex 143 7 90
    endloop
  endfacet
  facet normal -0.83147 -0.55557 0
    outer loop
      vertex 142.619 79.9134 2
      vertex 141.536 81.5355 35.6218
      vertex 141.536 81.5355 2
    endloop
  endfacet
  facet normal -0.83147 -0.55557 0
    outer loop
      vertex 141.536 81.5355 35.6218
      vertex 142.619 79.9134 2
      vertex 142.619 79.9134 37.2439
    endloop
  endfacet
  facet normal -0.980784 -0.195098 0
    outer loop
      vertex 143 78 2
      vertex 142.619 79.9134 37.2439
      vertex 142.619 79.9134 2
    endloop
  endfacet
  facet normal -0.980784 -0.195098 0
    outer loop
      vertex 142.619 79.9134 37.2439
      vertex 143 78 2
      vertex 143 78 39.1573
    endloop
  endfacet
  facet normal 0 1 -0
    outer loop
      vertex 138 2 2
      vertex 6.99998 2 90
      vertex 138 2 90
    endloop
  endfacet
  facet normal 0 1 0
    outer loop
      vertex 6.99998 2 90
      vertex 138 2 2
      vertex 6.99998 2 2
    endloop
  endfacet
  facet normal -0.55557 0.83147 0
    outer loop
      vertex 141.536 3.46446 2
      vertex 139.913 2.3806 90
      vertex 141.536 3.46446 90
    endloop
  endfacet
  facet normal -0.55557 0.83147 0
    outer loop
      vertex 139.913 2.3806 90
      vertex 141.536 3.46446 2
      vertex 139.913 2.3806 2
    endloop
  endfacet
  facet normal 0.83147 0.55557 0
    outer loop
      vertex 3.46446 3.46446 90
      vertex 2.3806 5.08658 2
      vertex 2.3806 5.08658 90
    endloop
  endfacet
  facet normal 0.83147 0.55557 0
    outer loop
      vertex 2.3806 5.08658 2
      vertex 3.46446 3.46446 90
      vertex 3.46446 3.46446 2
    endloop
  endfacet
  facet normal -0.980784 0.195096 0
    outer loop
      vertex 142.619 5.08658 2
      vertex 143 7 90
      vertex 143 7 2
    endloop
  endfacet
  facet normal -0.980784 0.195096 0
    outer loop
      vertex 143 7 90
      vertex 142.619 5.08658 2
      vertex 142.619 5.08658 90
    endloop
  endfacet
  facet normal 0.55557 0.83147 -0
    outer loop
      vertex 5.08658 2.3806 2
      vertex 3.46446 3.46446 90
      vertex 5.08658 2.3806 90
    endloop
  endfacet
  facet normal 0.55557 0.83147 0
    outer loop
      vertex 3.46446 3.46446 90
      vertex 5.08658 2.3806 2
      vertex 3.46446 3.46446 2
    endloop
  endfacet
  facet normal 1 -0 0
    outer loop
      vertex 20 20 2
      vertex 20 70 0
      vertex 20 70 2
    endloop
  endfacet
  facet normal 1 0 0
    outer loop
      vertex 20 70 0
      vertex 20 20 2
      vertex 20 20 0
    endloop
  endfacet
  facet normal -1 0 0
    outer loop
      vertex 104 20 0
      vertex 104 70 2
      vertex 104 70 0
    endloop
  endfacet
  facet normal -1 -0 0
    outer loop
      vertex 104 70 2
      vertex 104 20 0
      vertex 104 20 2
    endloop
  endfacet
  facet normal 0 -1 0
    outer loop
      vertex 20 70 0
      vertex 104 70 2
      vertex 20 70 2
    endloop
  endfacet
  facet normal 0 -1 -0
    outer loop
      vertex 104 70 2
      vertex 20 70 0
      vertex 104 70 0
    endloop
  endfacet
  facet normal 0 1 -0
    outer loop
      vertex 104 20 0
      vertex 20 20 2
      vertex 104 20 2
    endloop
  endfacet
  facet normal 0 1 0
    outer loop
      vertex 20 20 2
      vertex 104 20 0
      vertex 20 20 0
    endloop
  endfacet
  facet normal -0.994522 -0.10453 0
    outer loop
      vertex 140 42.5 0
      vertex 139.786 44.5375 2
      vertex 139.786 44.5375 0
    endloop
  endfacet
  facet normal -0.994522 -0.10453 0
    outer loop
      vertex 139.786 44.5375 2
      vertex 140 42.5 0
      vertex 140 42.5 2
    endloop
  endfacet
  facet normal 0.207911 -0.978148 0
    outer loop
      vertex 127.172 51.8204 0
      vertex 129.176 52.2463 2
      vertex 127.172 51.8204 2
    endloop
  endfacet
  facet normal 0.207911 -0.978148 0
    outer loop
      vertex 129.176 52.2463 2
      vertex 127.172 51.8204 0
      vertex 129.176 52.2463 0
    endloop
  endfacet
  facet normal -0.207912 0.978148 0
    outer loop
      vertex 133.228 33.1796 0
      vertex 131.224 32.7537 2
      vertex 133.228 33.1796 2
    endloop
  endfacet
  facet normal -0.207912 0.978148 0
    outer loop
      vertex 131.224 32.7537 2
      vertex 133.228 33.1796 0
      vertex 131.224 32.7537 0
    endloop
  endfacet
  facet normal -0.587788 -0.809015 0
    outer loop
      vertex 135.1 50.987 0
      vertex 136.757 49.7828 2
      vertex 135.1 50.987 2
    endloop
  endfacet
  facet normal -0.587788 -0.809015 -0
    outer loop
      vertex 136.757 49.7828 2
      vertex 135.1 50.987 0
      vertex 136.757 49.7828 0
    endloop
  endfacet
  facet normal 0.743146 -0.669129 0
    outer loop
      vertex 122.272 48.2603 2
      vertex 123.643 49.7828 0
      vertex 123.643 49.7828 2
    endloop
  endfacet
  facet normal 0.743146 -0.669129 0
    outer loop
      vertex 123.643 49.7828 0
      vertex 122.272 48.2603 2
      vertex 122.272 48.2603 0
    endloop
  endfacet
  facet normal 0.406738 -0.913545 0
    outer loop
      vertex 125.3 50.987 0
      vertex 127.172 51.8204 2
      vertex 125.3 50.987 2
    endloop
  endfacet
  facet normal 0.406738 -0.913545 0
    outer loop
      vertex 127.172 51.8204 2
      vertex 125.3 50.987 0
      vertex 127.172 51.8204 0
    endloop
  endfacet
  facet normal -0.866028 -0.499996 0
    outer loop
      vertex 139.153 46.486 0
      vertex 138.128 48.2603 2
      vertex 138.128 48.2603 0
    endloop
  endfacet
  facet normal -0.866028 -0.499996 0
    outer loop
      vertex 138.128 48.2603 2
      vertex 139.153 46.486 0
      vertex 139.153 46.486 2
    endloop
  endfacet
  facet normal -0.951056 -0.309017 0
    outer loop
      vertex 139.786 44.5375 0
      vertex 139.153 46.486 2
      vertex 139.153 46.486 0
    endloop
  endfacet
  facet normal -0.951056 -0.309017 0
    outer loop
      vertex 139.153 46.486 2
      vertex 139.786 44.5375 0
      vertex 139.786 44.5375 2
    endloop
  endfacet
  facet normal -0.743142 -0.669133 0
    outer loop
      vertex 138.128 48.2603 0
      vertex 136.757 49.7828 2
      vertex 136.757 49.7828 0
    endloop
  endfacet
  facet normal -0.743142 -0.669133 0
    outer loop
      vertex 136.757 49.7828 2
      vertex 138.128 48.2603 0
      vertex 138.128 48.2603 2
    endloop
  endfacet
  facet normal -0.207912 -0.978148 0
    outer loop
      vertex 131.224 52.2463 0
      vertex 133.228 51.8204 2
      vertex 131.224 52.2463 2
    endloop
  endfacet
  facet normal -0.207912 -0.978148 -0
    outer loop
      vertex 133.228 51.8204 2
      vertex 131.224 52.2463 0
      vertex 133.228 51.8204 0
    endloop
  endfacet
  facet normal 0 -1 0
    outer loop
      vertex 129.176 52.2463 0
      vertex 131.224 52.2463 2
      vertex 129.176 52.2463 2
    endloop
  endfacet
  facet normal 0 -1 -0
    outer loop
      vertex 131.224 52.2463 2
      vertex 129.176 52.2463 0
      vertex 131.224 52.2463 0
    endloop
  endfacet
  facet normal -0.406735 -0.913546 0
    outer loop
      vertex 133.228 51.8204 0
      vertex 135.1 50.987 2
      vertex 133.228 51.8204 2
    endloop
  endfacet
  facet normal -0.406735 -0.913546 -0
    outer loop
      vertex 135.1 50.987 2
      vertex 133.228 51.8204 0
      vertex 135.1 50.987 0
    endloop
  endfacet
  facet normal 0.951056 -0.309017 0
    outer loop
      vertex 120.614 44.5375 2
      vertex 121.247 46.486 0
      vertex 121.247 46.486 2
    endloop
  endfacet
  facet normal 0.951056 -0.309017 0
    outer loop
      vertex 121.247 46.486 0
      vertex 120.614 44.5375 2
      vertex 120.614 44.5375 0
    endloop
  endfacet
  facet normal 0.866024 -0.500002 0
    outer loop
      vertex 121.247 46.486 2
      vertex 122.272 48.2603 0
      vertex 122.272 48.2603 2
    endloop
  endfacet
  facet normal 0.866024 -0.500002 0
    outer loop
      vertex 122.272 48.2603 0
      vertex 121.247 46.486 2
      vertex 121.247 46.486 0
    endloop
  endfacet
  facet normal 0.994522 -0.104527 0
    outer loop
      vertex 120.4 42.5 2
      vertex 120.614 44.5375 0
      vertex 120.614 44.5375 2
    endloop
  endfacet
  facet normal 0.994522 -0.104527 0
    outer loop
      vertex 120.614 44.5375 0
      vertex 120.4 42.5 2
      vertex 120.4 42.5 0
    endloop
  endfacet
  facet normal 0.587784 -0.809018 0
    outer loop
      vertex 123.643 49.7828 0
      vertex 125.3 50.987 2
      vertex 123.643 49.7828 2
    endloop
  endfacet
  facet normal 0.587784 -0.809018 0
    outer loop
      vertex 125.3 50.987 2
      vertex 123.643 49.7828 0
      vertex 125.3 50.987 0
    endloop
  endfacet
  facet normal -0.994522 0.10453 0
    outer loop
      vertex 139.786 40.4625 0
      vertex 140 42.5 2
      vertex 140 42.5 0
    endloop
  endfacet
  facet normal -0.994522 0.10453 0
    outer loop
      vertex 140 42.5 2
      vertex 139.786 40.4625 0
      vertex 139.786 40.4625 2
    endloop
  endfacet
  facet normal -0.743143 0.669132 0
    outer loop
      vertex 136.757 35.2172 0
      vertex 138.128 36.7397 2
      vertex 138.128 36.7397 0
    endloop
  endfacet
  facet normal -0.743143 0.669132 0
    outer loop
      vertex 138.128 36.7397 2
      vertex 136.757 35.2172 0
      vertex 136.757 35.2172 2
    endloop
  endfacet
  facet normal 0.994522 0.104526 0
    outer loop
      vertex 120.614 40.4625 2
      vertex 120.4 42.5 0
      vertex 120.4 42.5 2
    endloop
  endfacet
  facet normal 0.994522 0.104526 0
    outer loop
      vertex 120.4 42.5 0
      vertex 120.614 40.4625 2
      vertex 120.614 40.4625 0
    endloop
  endfacet
  facet normal -0.866028 0.499996 0
    outer loop
      vertex 138.128 36.7397 0
      vertex 139.153 38.514 2
      vertex 139.153 38.514 0
    endloop
  endfacet
  facet normal -0.866028 0.499996 0
    outer loop
      vertex 139.153 38.514 2
      vertex 138.128 36.7397 0
      vertex 138.128 36.7397 2
    endloop
  endfacet
  facet normal 0.406738 0.913545 -0
    outer loop
      vertex 127.172 33.1796 0
      vertex 125.3 34.013 2
      vertex 127.172 33.1796 2
    endloop
  endfacet
  facet normal 0.406738 0.913545 0
    outer loop
      vertex 125.3 34.013 2
      vertex 127.172 33.1796 0
      vertex 125.3 34.013 0
    endloop
  endfacet
  facet normal 0.743147 0.669128 0
    outer loop
      vertex 123.643 35.2172 2
      vertex 122.272 36.7397 0
      vertex 122.272 36.7397 2
    endloop
  endfacet
  facet normal 0.743147 0.669128 0
    outer loop
      vertex 122.272 36.7397 0
      vertex 123.643 35.2172 2
      vertex 123.643 35.2172 0
    endloop
  endfacet
  facet normal 0.951056 0.309018 0
    outer loop
      vertex 121.247 38.514 2
      vertex 120.614 40.4625 0
      vertex 120.614 40.4625 2
    endloop
  endfacet
  facet normal 0.951056 0.309018 0
    outer loop
      vertex 120.614 40.4625 0
      vertex 121.247 38.514 2
      vertex 121.247 38.514 0
    endloop
  endfacet
  facet normal -0.406735 0.913546 0
    outer loop
      vertex 135.1 34.013 0
      vertex 133.228 33.1796 2
      vertex 135.1 34.013 2
    endloop
  endfacet
  facet normal -0.406735 0.913546 0
    outer loop
      vertex 133.228 33.1796 2
      vertex 135.1 34.013 0
      vertex 133.228 33.1796 0
    endloop
  endfacet
  facet normal -0.951056 0.309018 0
    outer loop
      vertex 139.153 38.514 0
      vertex 139.786 40.4625 2
      vertex 139.786 40.4625 0
    endloop
  endfacet
  facet normal -0.951056 0.309018 0
    outer loop
      vertex 139.786 40.4625 2
      vertex 139.153 38.514 0
      vertex 139.153 38.514 2
    endloop
  endfacet
  facet normal 0.207911 0.978148 -0
    outer loop
      vertex 129.176 32.7537 0
      vertex 127.172 33.1796 2
      vertex 129.176 32.7537 2
    endloop
  endfacet
  facet normal 0.207911 0.978148 0
    outer loop
      vertex 127.172 33.1796 2
      vertex 129.176 32.7537 0
      vertex 127.172 33.1796 0
    endloop
  endfacet
  facet normal 0.587783 0.809019 -0
    outer loop
      vertex 125.3 34.013 0
      vertex 123.643 35.2172 2
      vertex 125.3 34.013 2
    endloop
  endfacet
  facet normal 0.587783 0.809019 0
    outer loop
      vertex 123.643 35.2172 2
      vertex 125.3 34.013 0
      vertex 123.643 35.2172 0
    endloop
  endfacet
  facet normal 0.866024 0.500002 0
    outer loop
      vertex 122.272 36.7397 2
      vertex 121.247 38.514 0
      vertex 121.247 38.514 2
    endloop
  endfacet
  facet normal 0.866024 0.500002 0
    outer loop
      vertex 121.247 38.514 0
      vertex 122.272 36.7397 2
      vertex 122.272 36.7397 0
    endloop
  endfacet
  facet normal -0.587787 0.809016 0
    outer loop
      vertex 136.757 35.2172 0
      vertex 135.1 34.013 2
      vertex 136.757 35.2172 2
    endloop
  endfacet
  facet normal -0.587787 0.809016 0
    outer loop
      vertex 135.1 34.013 2
      vertex 136.757 35.2172 0
      vertex 135.1 34.013 0
    endloop
  endfacet
  facet normal 0 1 -0
    outer loop
      vertex 131.224 32.7537 0
      vertex 129.176 32.7537 2
      vertex 131.224 32.7537 2
    endloop
  endfacet
  facet normal 0 1 0
    outer loop
      vertex 129.176 32.7537 2
      vertex 131.224 32.7537 0
      vertex 129.176 32.7537 0
    endloop
  endfacet
  facet normal -0.866025 -0.500001 0
    outer loop
      vertex 131.8 77.5 0
      vertex 131 78.8856 2
      vertex 131 78.8856 0
    endloop
  endfacet
  facet normal -0.866025 -0.500001 0
    outer loop
      vertex 131 78.8856 2
      vertex 131.8 77.5 0
      vertex 131.8 77.5 2
    endloop
  endfacet
  facet normal 0.866029 -0.499994 0
    outer loop
      vertex 128.6 77.5 2
      vertex 129.4 78.8856 0
      vertex 129.4 78.8856 2
    endloop
  endfacet
  facet normal 0.866029 -0.499994 0
    outer loop
      vertex 129.4 78.8856 0
      vertex 128.6 77.5 2
      vertex 128.6 77.5 0
    endloop
  endfacet
  facet normal 0 -1 0
    outer loop
      vertex 129.4 78.8856 0
      vertex 131 78.8856 2
      vertex 129.4 78.8856 2
    endloop
  endfacet
  facet normal 0 -1 -0
    outer loop
      vertex 131 78.8856 2
      vertex 129.4 78.8856 0
      vertex 131 78.8856 0
    endloop
  endfacet
  facet normal -0.866025 0.500001 0
    outer loop
      vertex 131 76.1144 0
      vertex 131.8 77.5 2
      vertex 131.8 77.5 0
    endloop
  endfacet
  facet normal -0.866025 0.500001 0
    outer loop
      vertex 131.8 77.5 2
      vertex 131 76.1144 0
      vertex 131 76.1144 2
    endloop
  endfacet
  facet normal 0 1 -0
    outer loop
      vertex 131 76.1144 0
      vertex 129.4 76.1144 2
      vertex 131 76.1144 2
    endloop
  endfacet
  facet normal 0 1 0
    outer loop
      vertex 129.4 76.1144 2
      vertex 131 76.1144 0
      vertex 129.4 76.1144 0
    endloop
  endfacet
  facet normal 0.866029 0.499994 0
    outer loop
      vertex 129.4 76.1144 2
      vertex 128.6 77.5 0
      vertex 128.6 77.5 2
    endloop
  endfacet
  facet normal 0.866029 0.499994 0
    outer loop
      vertex 128.6 77.5 0
      vertex 129.4 76.1144 2
      vertex 129.4 76.1144 0
    endloop
  endfacet
  facet normal 0 0.707107 0.707107
    outer loop
      vertex 145 80 37.1573
      vertex 142.619 79.9134 37.2439
      vertex 143 78 39.1573
    endloop
  endfacet
  facet normal 0 0.707107 0.707107
    outer loop
      vertex 141.536 81.5355 35.6218
      vertex 143.536 83.5355 33.6218
      vertex 141.913 84.6194 32.5379
    endloop
  endfacet
  facet normal 0 0.707107 0.707107
    outer loop
      vertex 144.619 81.9134 35.2439
      vertex 141.536 81.5355 35.6218
      vertex 142.619 79.9134 37.2439
    endloop
  endfacet
  facet normal 0 0.707107 0.707107
    outer loop
      vertex 139.913 82.6194 34.5379
      vertex 141.913 84.6194 32.5379
      vertex 140 85 32.1573
    endloop
  endfacet
  facet normal 0 0.707107 0.707107
    outer loop
      vertex 141.913 84.6194 32.5379
      vertex 139.913 82.6194 34.5379
      vertex 141.536 81.5355 35.6218
    endloop
  endfacet
  facet normal 0 0.707107 0.707107
    outer loop
      vertex 140 85 32.1573
      vertex 138 83 34.1573
      vertex 139.913 82.6194 34.5379
    endloop
  endfacet
  facet normal 0 0.707107 0.707107
    outer loop
      vertex 140 85 32.1573
      vertex 7 83 34.1573
      vertex 138 83 34.1573
    endloop
  endfacet
  facet normal -0 0.707107 0.707107
    outer loop
      vertex 5 85 32.1573
      vertex 7 83 34.1573
      vertex 140 85 32.1573
    endloop
  endfacet
  facet normal 0 0.707107 0.707107
    outer loop
      vertex 5 85 32.1573
      vertex 5.08658 82.6194 34.5379
      vertex 7 83 34.1573
    endloop
  endfacet
  facet normal 0 0.707107 0.707107
    outer loop
      vertex 3.08658 84.6194 32.5379
      vertex 5.08658 82.6194 34.5379
      vertex 5 85 32.1573
    endloop
  endfacet
  facet normal 0 0.707107 0.707107
    outer loop
      vertex 5.08658 82.6194 34.5379
      vertex 3.08658 84.6194 32.5379
      vertex 3.46446 81.5355 35.6218
    endloop
  endfacet
  facet normal 0 0.707107 0.707107
    outer loop
      vertex 1.46446 83.5355 33.6218
      vertex 3.46446 81.5355 35.6218
      vertex 3.08658 84.6194 32.5379
    endloop
  endfacet
  facet normal 0 0.707107 0.707107
    outer loop
      vertex 0.3806 81.9134 35.2439
      vertex 3.46446 81.5355 35.6218
      vertex 1.46446 83.5355 33.6218
    endloop
  endfacet
  facet normal 0 0.707107 0.707107
    outer loop
      vertex 3.46446 81.5355 35.6218
      vertex 0.3806 81.9134 35.2439
      vertex 2.3806 79.9134 37.2439
    endloop
  endfacet
  facet normal 0 0.707107 0.707107
    outer loop
      vertex 0 80 37.1573
      vertex 2.3806 79.9134 37.2439
      vertex 0.3806 81.9134 35.2439
    endloop
  endfacet
  facet normal 0 0.707107 0.707107
    outer loop
      vertex 2.3806 79.9134 37.2439
      vertex 0 80 37.1573
      vertex 2 78 39.1573
    endloop
  endfacet
  facet normal -2.55229e-008 0.707107 0.707107
    outer loop
      vertex 0 27.1573 90
      vertex 2 78 39.1573
      vertex 0 80 37.1573
    endloop
  endfacet
  facet normal 0 0.707107 0.707107
    outer loop
      vertex 2 78 39.1573
      vertex 0 27.1573 90
      vertex 2 27.1573 90
    endloop
  endfacet
  facet normal 0 0.707107 0.707107
    outer loop
      vertex 142.619 79.9134 37.2439
      vertex 145 80 37.1573
      vertex 144.619 81.9134 35.2439
    endloop
  endfacet
  facet normal 0 0.707107 0.707107
    outer loop
      vertex 141.536 81.5355 35.6218
      vertex 144.619 81.9134 35.2439
      vertex 143.536 83.5355 33.6218
    endloop
  endfacet
  facet normal 2.55229e-008 0.707107 0.707107
    outer loop
      vertex 145 80 37.1573
      vertex 143 78 39.1573
      vertex 145 27.1573 90
    endloop
  endfacet
  facet normal 0 0.707107 0.707107
    outer loop
      vertex 145 27.1573 90
      vertex 143 78 39.1573
      vertex 143 27.1573 90
    endloop
  endfacet
endsolid OpenSCAD_Model
