solid OpenSCAD_Model
  facet normal -1 0 0
    outer loop
      vertex 0 20 40
      vertex 0 26 0
      vertex 0 20 0
    endloop
  endfacet
  facet normal -1 0 0
    outer loop
      vertex 0 26 0
      vertex 0 20 40
      vertex 0 26 46
    endloop
  endfacet
  facet normal -1 0 0
    outer loop
      vertex 0 0 46
      vertex 0 20 40
      vertex 0 0 40
    endloop
  endfacet
  facet normal -1 0 0
    outer loop
      vertex 0 20 40
      vertex 0 0 46
      vertex 0 26 46
    endloop
  endfacet
  facet normal -0 0 1
    outer loop
      vertex 0 26 46
      vertex 40 0 46
      vertex 40 26 46
    endloop
  endfacet
  facet normal 0 0 1
    outer loop
      vertex 40 0 46
      vertex 0 26 46
      vertex 0 0 46
    endloop
  endfacet
  facet normal 1 0 0
    outer loop
      vertex 40 26 46
      vertex 40 20 40
      vertex 40 26 0
    endloop
  endfacet
  facet normal 1 -0 0
    outer loop
      vertex 40 0 46
      vertex 40 20 40
      vertex 40 26 46
    endloop
  endfacet
  facet normal 1 0 0
    outer loop
      vertex 40 20 40
      vertex 40 0 46
      vertex 40 0 40
    endloop
  endfacet
  facet normal 1 0 0
    outer loop
      vertex 40 26 0
      vertex 40 20 40
      vertex 40 20 0
    endloop
  endfacet
  facet normal 0 1 -0
    outer loop
      vertex 40 26 0
      vertex 0 26 46
      vertex 40 26 46
    endloop
  endfacet
  facet normal 0 1 0
    outer loop
      vertex 0 26 46
      vertex 40 26 0
      vertex 0 26 0
    endloop
  endfacet
  facet normal 0 0 -1
    outer loop
      vertex 0 20 0
      vertex 40 26 0
      vertex 40 20 0
    endloop
  endfacet
  facet normal -0 0 -1
    outer loop
      vertex 40 26 0
      vertex 0 20 0
      vertex 0 26 0
    endloop
  endfacet
  facet normal 0 -1 0
    outer loop
      vertex 0 0 40
      vertex 40 0 46
      vertex 0 0 46
    endloop
  endfacet
  facet normal 0 -1 -0
    outer loop
      vertex 40 0 46
      vertex 0 0 40
      vertex 40 0 40
    endloop
  endfacet
  facet normal 0 0 -1
    outer loop
      vertex 0 0 40
      vertex 40 20 40
      vertex 40 0 40
    endloop
  endfacet
  facet normal -0 0 -1
    outer loop
      vertex 40 20 40
      vertex 0 0 40
      vertex 0 20 40
    endloop
  endfacet
  facet normal 0 -1 0
    outer loop
      vertex 0 20 0
      vertex 40 20 40
      vertex 0 20 40
    endloop
  endfacet
  facet normal 0 -1 -0
    outer loop
      vertex 40 20 40
      vertex 0 20 0
      vertex 40 20 0
    endloop
  endfacet
endsolid OpenSCAD_Model
