solid OpenSCAD_Model
  facet normal -1 0 0
    outer loop
      vertex 0 0 0
      vertex 0 74 30
      vertex 0 74 0
    endloop
  endfacet
  facet normal -1 -0 0
    outer loop
      vertex 0 74 30
      vertex 0 0 0
      vertex 0 0 30
    endloop
  endfacet
  facet normal 0 0 1
    outer loop
      vertex 7.5 20.28 30
      vertex 15.12 27.9 30
      vertex 7.5 49.84 30
    endloop
  endfacet
  facet normal 0 0 1
    outer loop
      vertex 15.12 27.9 30
      vertex 7.5 20.28 30
      vertex 13.5 20.28 30
    endloop
  endfacet
  facet normal -0 0 1
    outer loop
      vertex 7.5 60 30
      vertex 13.5 55.84 30
      vertex 13.5 60 30
    endloop
  endfacet
  facet normal 0 0 1
    outer loop
      vertex 13.5 55.84 30
      vertex 7.5 60 30
      vertex 7.5 55.84 30
    endloop
  endfacet
  facet normal -0 0 1
    outer loop
      vertex 15.12 21.9 30
      vertex 21.12 12.66 30
      vertex 21.12 21.9 30
    endloop
  endfacet
  facet normal 0 0 1
    outer loop
      vertex 21.12 12.66 30
      vertex 15.12 21.9 30
      vertex 15.12 12.66 30
    endloop
  endfacet
  facet normal -0 0 1
    outer loop
      vertex 15.12 42.22 30
      vertex 21.12 27.9 30
      vertex 21.12 42.22 30
    endloop
  endfacet
  facet normal 0 0 1
    outer loop
      vertex 21.12 27.9 30
      vertex 15.12 42.22 30
      vertex 15.12 27.9 30
    endloop
  endfacet
  facet normal 0 0 1
    outer loop
      vertex 21.12 42.22 30
      vertex 28.74 49.84 30
      vertex 22.74 49.84 30
    endloop
  endfacet
  facet normal 0 0 1
    outer loop
      vertex 28.74 49.84 30
      vertex 21.12 42.22 30
      vertex 28.74 20.28 30
    endloop
  endfacet
  facet normal -0 0 1
    outer loop
      vertex 22.74 60 30
      vertex 28.74 55.84 30
      vertex 28.74 60 30
    endloop
  endfacet
  facet normal 0 0 1
    outer loop
      vertex 28.74 55.84 30
      vertex 22.74 60 30
      vertex 22.74 55.84 30
    endloop
  endfacet
  facet normal 0 0 1
    outer loop
      vertex 98 28 30
      vertex 115 74 30
      vertex 98 62 30
    endloop
  endfacet
  facet normal 0 0 1
    outer loop
      vertex 115 74 30
      vertex 64 62 30
      vertex 98 62 30
    endloop
  endfacet
  facet normal 0 0 1
    outer loop
      vertex 28.74 60 30
      vertex 64 62 30
      vertex 28.74 66 30
    endloop
  endfacet
  facet normal 0 0 1
    outer loop
      vertex 115 74 30
      vertex 28.74 66 30
      vertex 64 62 30
    endloop
  endfacet
  facet normal -0 0 1
    outer loop
      vertex 0 74 30
      vertex 28.74 66 30
      vertex 115 74 30
    endloop
  endfacet
  facet normal 0 0 1
    outer loop
      vertex 13.5 60 30
      vertex 22.74 60 30
      vertex 22.74 66 30
    endloop
  endfacet
  facet normal 0 0 1
    outer loop
      vertex 22.74 60 30
      vertex 13.5 60 30
      vertex 22.74 55.84 30
    endloop
  endfacet
  facet normal 0 0 1
    outer loop
      vertex 22.74 55.84 30
      vertex 13.5 55.84 30
      vertex 22.74 49.84 30
    endloop
  endfacet
  facet normal -0 0 1
    outer loop
      vertex 21.12 27.9 30
      vertex 28.74 20.28 30
      vertex 21.12 42.22 30
    endloop
  endfacet
  facet normal 0 0 1
    outer loop
      vertex 22.74 49.84 30
      vertex 21.12 48.22 30
      vertex 21.12 42.22 30
    endloop
  endfacet
  facet normal 0 0 1
    outer loop
      vertex 22.74 49.84 30
      vertex 13.5 55.84 30
      vertex 21.12 48.22 30
    endloop
  endfacet
  facet normal 0 0 1
    outer loop
      vertex 13.5 49.84 30
      vertex 15.12 42.22 30
      vertex 15.12 48.22 30
    endloop
  endfacet
  facet normal -0 0 1
    outer loop
      vertex 7.5 49.84 30
      vertex 15.12 42.22 30
      vertex 13.5 49.84 30
    endloop
  endfacet
  facet normal 0 0 1
    outer loop
      vertex 15.12 27.9 30
      vertex 13.5 20.28 30
      vertex 15.12 21.9 30
    endloop
  endfacet
  facet normal 0 0 1
    outer loop
      vertex 15.12 21.9 30
      vertex 13.5 20.28 30
      vertex 15.12 12.66 30
    endloop
  endfacet
  facet normal 0 0 1
    outer loop
      vertex 22.74 55.84 30
      vertex 13.5 60 30
      vertex 13.5 55.84 30
    endloop
  endfacet
  facet normal 0 0 1
    outer loop
      vertex 13.5 60 30
      vertex 22.74 66 30
      vertex 13.5 66 30
    endloop
  endfacet
  facet normal 0 0 1
    outer loop
      vertex 28.74 66 30
      vertex 0 74 30
      vertex 22.74 66 30
    endloop
  endfacet
  facet normal 0 0 1
    outer loop
      vertex 22.74 66 30
      vertex 0 74 30
      vertex 13.5 66 30
    endloop
  endfacet
  facet normal 0 0 1
    outer loop
      vertex 0 74 30
      vertex 7.5 60 30
      vertex 7.5 66 30
    endloop
  endfacet
  facet normal 0 0 1
    outer loop
      vertex 7.5 60 30
      vertex 0 74 30
      vertex 7.5 55.84 30
    endloop
  endfacet
  facet normal 0 0 1
    outer loop
      vertex 7.5 55.84 30
      vertex 0 74 30
      vertex 7.5 49.84 30
    endloop
  endfacet
  facet normal 0 0 1
    outer loop
      vertex 0 0 30
      vertex 7.5 49.84 30
      vertex 0 74 30
    endloop
  endfacet
  facet normal 0 0 1
    outer loop
      vertex 7.5 49.84 30
      vertex 0 0 30
      vertex 7.5 20.28 30
    endloop
  endfacet
  facet normal 0 0 1
    outer loop
      vertex 13.5 66 30
      vertex 0 74 30
      vertex 7.5 66 30
    endloop
  endfacet
  facet normal 0 0 1
    outer loop
      vertex 115 74 30
      vertex 98 28 30
      vertex 115 0 30
    endloop
  endfacet
  facet normal -0 0 1
    outer loop
      vertex 64 28 30
      vertex 115 0 30
      vertex 98 28 30
    endloop
  endfacet
  facet normal 0 0 1
    outer loop
      vertex 28.74 55.84 30
      vertex 64 62 30
      vertex 28.74 60 30
    endloop
  endfacet
  facet normal 0 0 1
    outer loop
      vertex 28.74 49.84 30
      vertex 64 62 30
      vertex 28.74 55.84 30
    endloop
  endfacet
  facet normal 0 0 1
    outer loop
      vertex 64 62 30
      vertex 28.74 49.84 30
      vertex 64 28 30
    endloop
  endfacet
  facet normal 0 0 1
    outer loop
      vertex 28.74 20.28 30
      vertex 64 28 30
      vertex 28.74 49.84 30
    endloop
  endfacet
  facet normal 0 0 1
    outer loop
      vertex 28.74 14.28 30
      vertex 64 28 30
      vertex 28.74 20.28 30
    endloop
  endfacet
  facet normal 0 0 1
    outer loop
      vertex 64 28 30
      vertex 28.74 14.28 30
      vertex 115 0 30
    endloop
  endfacet
  facet normal 0 0 1
    outer loop
      vertex 21.12 6.66 30
      vertex 28.74 14.28 30
      vertex 22.74 14.28 30
    endloop
  endfacet
  facet normal 0 0 1
    outer loop
      vertex 28.74 20.28 30
      vertex 21.12 27.9 30
      vertex 22.74 20.28 30
    endloop
  endfacet
  facet normal -0 0 1
    outer loop
      vertex 21.12 21.9 30
      vertex 22.74 20.28 30
      vertex 21.12 27.9 30
    endloop
  endfacet
  facet normal 0 0 1
    outer loop
      vertex 22.74 20.28 30
      vertex 21.12 21.9 30
      vertex 22.74 14.28 30
    endloop
  endfacet
  facet normal 0 0 1
    outer loop
      vertex 21.12 12.66 30
      vertex 22.74 14.28 30
      vertex 21.12 21.9 30
    endloop
  endfacet
  facet normal 0 0 1
    outer loop
      vertex 21.12 6.66 30
      vertex 22.74 14.28 30
      vertex 21.12 12.66 30
    endloop
  endfacet
  facet normal 0 0 1
    outer loop
      vertex 28.74 14.28 30
      vertex 21.12 6.66 30
      vertex 115 0 30
    endloop
  endfacet
  facet normal 0 0 1
    outer loop
      vertex 0 0 30
      vertex 21.12 6.66 30
      vertex 15.12 6.66 30
    endloop
  endfacet
  facet normal 0 0 1
    outer loop
      vertex 21.12 48.22 30
      vertex 13.5 55.84 30
      vertex 15.12 48.22 30
    endloop
  endfacet
  facet normal -0 0 1
    outer loop
      vertex 13.5 49.84 30
      vertex 15.12 48.22 30
      vertex 13.5 55.84 30
    endloop
  endfacet
  facet normal 0 0 1
    outer loop
      vertex 15.12 42.22 30
      vertex 7.5 49.84 30
      vertex 15.12 27.9 30
    endloop
  endfacet
  facet normal -0 0 1
    outer loop
      vertex 13.5 14.28 30
      vertex 15.12 12.66 30
      vertex 13.5 20.28 30
    endloop
  endfacet
  facet normal 0 0 1
    outer loop
      vertex 15.12 12.66 30
      vertex 13.5 14.28 30
      vertex 15.12 6.66 30
    endloop
  endfacet
  facet normal -0 0 1
    outer loop
      vertex 7.5 14.28 30
      vertex 15.12 6.66 30
      vertex 13.5 14.28 30
    endloop
  endfacet
  facet normal 0 0 1
    outer loop
      vertex 21.12 6.66 30
      vertex 0 0 30
      vertex 115 0 30
    endloop
  endfacet
  facet normal 0 0 1
    outer loop
      vertex 7.5 14.28 30
      vertex 0 0 30
      vertex 15.12 6.66 30
    endloop
  endfacet
  facet normal 0 0 1
    outer loop
      vertex 7.5 20.28 30
      vertex 0 0 30
      vertex 7.5 14.28 30
    endloop
  endfacet
  facet normal 1 0 0
    outer loop
      vertex 115 64 0
      vertex 115 74 30
      vertex 115 64 4
    endloop
  endfacet
  facet normal 1 0 0
    outer loop
      vertex 115 74 30
      vertex 115 54 4
      vertex 115 64 4
    endloop
  endfacet
  facet normal 1 0 0
    outer loop
      vertex 115 54 4
      vertex 115 0 30
      vertex 115 54 0
    endloop
  endfacet
  facet normal 1 -0 0
    outer loop
      vertex 115 0 30
      vertex 115 54 4
      vertex 115 74 30
    endloop
  endfacet
  facet normal 1 0 0
    outer loop
      vertex 115 74 30
      vertex 115 64 0
      vertex 115 74 -60
    endloop
  endfacet
  facet normal 1 -0 0
    outer loop
      vertex 115 54 0
      vertex 115 74 -60
      vertex 115 64 0
    endloop
  endfacet
  facet normal 1 0 0
    outer loop
      vertex 115 0 -60
      vertex 115 54 0
      vertex 115 0 30
    endloop
  endfacet
  facet normal 1 0 0
    outer loop
      vertex 115 54 0
      vertex 115 0 -60
      vertex 115 74 -60
    endloop
  endfacet
  facet normal -0 0 1
    outer loop
      vertex 113.5 64 0
      vertex 115 54 0
      vertex 115 64 0
    endloop
  endfacet
  facet normal 0 0 1
    outer loop
      vertex 115 54 0
      vertex 113.5 64 0
      vertex 113.5 54 0
    endloop
  endfacet
  facet normal 0 -1 0
    outer loop
      vertex 0 0 0
      vertex 115 0 30
      vertex 0 0 30
    endloop
  endfacet
  facet normal 0 -1 -0
    outer loop
      vertex 115 0 30
      vertex 0 0 0
      vertex 115 0 -60
    endloop
  endfacet
  facet normal 0 1 0
    outer loop
      vertex 115 74 30
      vertex 0 74 0
      vertex 0 74 30
    endloop
  endfacet
  facet normal -0 1 0
    outer loop
      vertex 0 74 0
      vertex 115 74 30
      vertex 115 74 -60
    endloop
  endfacet
  facet normal 1 -0 0
    outer loop
      vertex 1.5 1.5 28.5
      vertex 1.5 72.5 -0.782609
      vertex 1.5 72.5 28.5
    endloop
  endfacet
  facet normal 1 0 0
    outer loop
      vertex 1.5 72.5 -0.782609
      vertex 1.5 1.5 28.5
      vertex 1.5 1.5 -0.782609
    endloop
  endfacet
  facet normal 0 0 -1
    outer loop
      vertex 7.5 55.84 28.5
      vertex 13.5 60 28.5
      vertex 13.5 55.84 28.5
    endloop
  endfacet
  facet normal -0 0 -1
    outer loop
      vertex 13.5 60 28.5
      vertex 7.5 55.84 28.5
      vertex 7.5 60 28.5
    endloop
  endfacet
  facet normal 0 0 -1
    outer loop
      vertex 7.5 49.84 28.5
      vertex 15.12 42.22 28.5
      vertex 7.5 20.28 28.5
    endloop
  endfacet
  facet normal 0 0 -1
    outer loop
      vertex 15.12 42.22 28.5
      vertex 7.5 49.84 28.5
      vertex 13.5 49.84 28.5
    endloop
  endfacet
  facet normal 0 0 -1
    outer loop
      vertex 15.12 27.9 28.5
      vertex 21.12 42.22 28.5
      vertex 21.12 27.9 28.5
    endloop
  endfacet
  facet normal -0 0 -1
    outer loop
      vertex 21.12 42.22 28.5
      vertex 15.12 27.9 28.5
      vertex 15.12 42.22 28.5
    endloop
  endfacet
  facet normal 0 0 -1
    outer loop
      vertex 15.12 12.66 28.5
      vertex 21.12 21.9 28.5
      vertex 21.12 12.66 28.5
    endloop
  endfacet
  facet normal -0 0 -1
    outer loop
      vertex 21.12 21.9 28.5
      vertex 15.12 12.66 28.5
      vertex 15.12 21.9 28.5
    endloop
  endfacet
  facet normal 0 0 -1
    outer loop
      vertex 22.74 55.84 28.5
      vertex 28.74 60 28.5
      vertex 28.74 55.84 28.5
    endloop
  endfacet
  facet normal -0 0 -1
    outer loop
      vertex 28.74 60 28.5
      vertex 22.74 55.84 28.5
      vertex 22.74 60 28.5
    endloop
  endfacet
  facet normal 0 0 -1
    outer loop
      vertex 21.12 27.9 28.5
      vertex 28.74 20.28 28.5
      vertex 22.74 20.28 28.5
    endloop
  endfacet
  facet normal 0 0 -1
    outer loop
      vertex 28.74 20.28 28.5
      vertex 21.12 27.9 28.5
      vertex 28.74 49.84 28.5
    endloop
  endfacet
  facet normal 0 0 -1
    outer loop
      vertex 113.5 1.5 28.5
      vertex 98 28 28.5
      vertex 113.5 72.5 28.5
    endloop
  endfacet
  facet normal 0 0 -1
    outer loop
      vertex 113.5 1.5 28.5
      vertex 64 28 28.5
      vertex 98 28 28.5
    endloop
  endfacet
  facet normal 0 0 -1
    outer loop
      vertex 28.74 20.28 28.5
      vertex 64 28 28.5
      vertex 28.74 14.28 28.5
    endloop
  endfacet
  facet normal 0 0 -1
    outer loop
      vertex 113.5 1.5 28.5
      vertex 28.74 14.28 28.5
      vertex 64 28 28.5
    endloop
  endfacet
  facet normal 0 0 -1
    outer loop
      vertex 21.12 6.66 28.5
      vertex 28.74 14.28 28.5
      vertex 113.5 1.5 28.5
    endloop
  endfacet
  facet normal 0 0 -1
    outer loop
      vertex 21.12 21.9 28.5
      vertex 22.74 20.28 28.5
      vertex 22.74 14.28 28.5
    endloop
  endfacet
  facet normal 0 0 -1
    outer loop
      vertex 21.12 42.22 28.5
      vertex 28.74 49.84 28.5
      vertex 21.12 27.9 28.5
    endloop
  endfacet
  facet normal 0 0 -1
    outer loop
      vertex 21.12 48.22 28.5
      vertex 22.74 49.84 28.5
      vertex 21.12 42.22 28.5
    endloop
  endfacet
  facet normal -0 0 -1
    outer loop
      vertex 22.74 49.84 28.5
      vertex 21.12 48.22 28.5
      vertex 22.74 55.84 28.5
    endloop
  endfacet
  facet normal 0 0 -1
    outer loop
      vertex 21.12 12.66 28.5
      vertex 22.74 14.28 28.5
      vertex 21.12 6.66 28.5
    endloop
  endfacet
  facet normal -0 0 -1
    outer loop
      vertex 28.74 14.28 28.5
      vertex 21.12 6.66 28.5
      vertex 22.74 14.28 28.5
    endloop
  endfacet
  facet normal 0 0 -1
    outer loop
      vertex 1.5 1.5 28.5
      vertex 21.12 6.66 28.5
      vertex 113.5 1.5 28.5
    endloop
  endfacet
  facet normal 0 0 -1
    outer loop
      vertex 13.5 14.28 28.5
      vertex 15.12 12.66 28.5
      vertex 15.12 6.66 28.5
    endloop
  endfacet
  facet normal 0 0 -1
    outer loop
      vertex 15.12 12.66 28.5
      vertex 13.5 14.28 28.5
      vertex 15.12 21.9 28.5
    endloop
  endfacet
  facet normal -0 0 -1
    outer loop
      vertex 15.12 21.9 28.5
      vertex 13.5 20.28 28.5
      vertex 15.12 27.9 28.5
    endloop
  endfacet
  facet normal 0 0 -1
    outer loop
      vertex 7.5 20.28 28.5
      vertex 15.12 27.9 28.5
      vertex 13.5 20.28 28.5
    endloop
  endfacet
  facet normal 0 0 -1
    outer loop
      vertex 15.12 21.9 28.5
      vertex 13.5 14.28 28.5
      vertex 13.5 20.28 28.5
    endloop
  endfacet
  facet normal 0 0 -1
    outer loop
      vertex 15.12 6.66 28.5
      vertex 7.5 14.28 28.5
      vertex 13.5 14.28 28.5
    endloop
  endfacet
  facet normal 0 0 -1
    outer loop
      vertex 1.5 1.5 28.5
      vertex 7.5 20.28 28.5
      vertex 7.5 14.28 28.5
    endloop
  endfacet
  facet normal -0 0 -1
    outer loop
      vertex 7.5 20.28 28.5
      vertex 1.5 1.5 28.5
      vertex 7.5 49.84 28.5
    endloop
  endfacet
  facet normal 0 0 -1
    outer loop
      vertex 1.5 72.5 28.5
      vertex 7.5 49.84 28.5
      vertex 1.5 1.5 28.5
    endloop
  endfacet
  facet normal 0 0 -1
    outer loop
      vertex 7.5 55.84 28.5
      vertex 1.5 72.5 28.5
      vertex 7.5 60 28.5
    endloop
  endfacet
  facet normal 0 0 -1
    outer loop
      vertex 7.5 49.84 28.5
      vertex 1.5 72.5 28.5
      vertex 7.5 55.84 28.5
    endloop
  endfacet
  facet normal -0 0 -1
    outer loop
      vertex 15.12 6.66 28.5
      vertex 1.5 1.5 28.5
      vertex 7.5 14.28 28.5
    endloop
  endfacet
  facet normal -0 0 -1
    outer loop
      vertex 21.12 6.66 28.5
      vertex 1.5 1.5 28.5
      vertex 15.12 6.66 28.5
    endloop
  endfacet
  facet normal 0 0 -1
    outer loop
      vertex 98 62 28.5
      vertex 113.5 72.5 28.5
      vertex 98 28 28.5
    endloop
  endfacet
  facet normal 0 0 -1
    outer loop
      vertex 64 62 28.5
      vertex 113.5 72.5 28.5
      vertex 98 62 28.5
    endloop
  endfacet
  facet normal 0 0 -1
    outer loop
      vertex 28.74 49.84 28.5
      vertex 64 28 28.5
      vertex 28.74 20.28 28.5
    endloop
  endfacet
  facet normal 0 0 -1
    outer loop
      vertex 64 28 28.5
      vertex 28.74 49.84 28.5
      vertex 64 62 28.5
    endloop
  endfacet
  facet normal 0 0 -1
    outer loop
      vertex 28.74 55.84 28.5
      vertex 64 62 28.5
      vertex 28.74 49.84 28.5
    endloop
  endfacet
  facet normal 0 0 -1
    outer loop
      vertex 28.74 60 28.5
      vertex 64 62 28.5
      vertex 28.74 55.84 28.5
    endloop
  endfacet
  facet normal 0 0 -1
    outer loop
      vertex 28.74 66 28.5
      vertex 64 62 28.5
      vertex 28.74 60 28.5
    endloop
  endfacet
  facet normal 0 0 -1
    outer loop
      vertex 64 62 28.5
      vertex 28.74 66 28.5
      vertex 113.5 72.5 28.5
    endloop
  endfacet
  facet normal 0 0 -1
    outer loop
      vertex 1.5 72.5 28.5
      vertex 28.74 66 28.5
      vertex 22.74 66 28.5
    endloop
  endfacet
  facet normal 0 0 -1
    outer loop
      vertex 21.12 21.9 28.5
      vertex 22.74 14.28 28.5
      vertex 21.12 12.66 28.5
    endloop
  endfacet
  facet normal 0 0 -1
    outer loop
      vertex 22.74 20.28 28.5
      vertex 21.12 21.9 28.5
      vertex 21.12 27.9 28.5
    endloop
  endfacet
  facet normal -0 0 -1
    outer loop
      vertex 28.74 49.84 28.5
      vertex 21.12 42.22 28.5
      vertex 22.74 49.84 28.5
    endloop
  endfacet
  facet normal 0 0 -1
    outer loop
      vertex 13.5 55.84 28.5
      vertex 22.74 55.84 28.5
      vertex 21.12 48.22 28.5
    endloop
  endfacet
  facet normal 0 0 -1
    outer loop
      vertex 22.74 55.84 28.5
      vertex 13.5 55.84 28.5
      vertex 22.74 60 28.5
    endloop
  endfacet
  facet normal 0 0 -1
    outer loop
      vertex 13.5 55.84 28.5
      vertex 21.12 48.22 28.5
      vertex 15.12 48.22 28.5
    endloop
  endfacet
  facet normal -0 0 -1
    outer loop
      vertex 15.12 27.9 28.5
      vertex 7.5 20.28 28.5
      vertex 15.12 42.22 28.5
    endloop
  endfacet
  facet normal 0 0 -1
    outer loop
      vertex 15.12 42.22 28.5
      vertex 13.5 49.84 28.5
      vertex 15.12 48.22 28.5
    endloop
  endfacet
  facet normal 0 0 -1
    outer loop
      vertex 13.5 55.84 28.5
      vertex 15.12 48.22 28.5
      vertex 13.5 49.84 28.5
    endloop
  endfacet
  facet normal 0 0 -1
    outer loop
      vertex 13.5 60 28.5
      vertex 22.74 60 28.5
      vertex 13.5 55.84 28.5
    endloop
  endfacet
  facet normal 0 0 -1
    outer loop
      vertex 22.74 60 28.5
      vertex 13.5 60 28.5
      vertex 22.74 66 28.5
    endloop
  endfacet
  facet normal 0 0 -1
    outer loop
      vertex 13.5 66 28.5
      vertex 22.74 66 28.5
      vertex 13.5 60 28.5
    endloop
  endfacet
  facet normal 0 0 -1
    outer loop
      vertex 1.5 72.5 28.5
      vertex 22.74 66 28.5
      vertex 13.5 66 28.5
    endloop
  endfacet
  facet normal 0 0 -1
    outer loop
      vertex 1.5 72.5 28.5
      vertex 13.5 66 28.5
      vertex 7.5 66 28.5
    endloop
  endfacet
  facet normal 0 0 -1
    outer loop
      vertex 28.74 66 28.5
      vertex 1.5 72.5 28.5
      vertex 113.5 72.5 28.5
    endloop
  endfacet
  facet normal 0 0 -1
    outer loop
      vertex 7.5 60 28.5
      vertex 1.5 72.5 28.5
      vertex 7.5 66 28.5
    endloop
  endfacet
  facet normal -1 0 0
    outer loop
      vertex 113.5 72.5 -59.2174
      vertex 113.5 64 0
      vertex 113.5 72.5 28.5
    endloop
  endfacet
  facet normal -1 0 0
    outer loop
      vertex 113.5 72.5 -59.2174
      vertex 113.5 54 0
      vertex 113.5 64 0
    endloop
  endfacet
  facet normal -1 0 0
    outer loop
      vertex 113.5 1.5 28.5
      vertex 113.5 54 0
      vertex 113.5 1.5 -59.2174
    endloop
  endfacet
  facet normal -1 0 0
    outer loop
      vertex 113.5 1.5 -59.2174
      vertex 113.5 54 0
      vertex 113.5 72.5 -59.2174
    endloop
  endfacet
  facet normal -1 0 0
    outer loop
      vertex 113.5 64 4
      vertex 113.5 72.5 28.5
      vertex 113.5 64 0
    endloop
  endfacet
  facet normal -1 0 0
    outer loop
      vertex 113.5 54 4
      vertex 113.5 72.5 28.5
      vertex 113.5 64 4
    endloop
  endfacet
  facet normal -1 0 0
    outer loop
      vertex 113.5 54 0
      vertex 113.5 1.5 28.5
      vertex 113.5 54 4
    endloop
  endfacet
  facet normal -1 0 0
    outer loop
      vertex 113.5 54 4
      vertex 113.5 1.5 28.5
      vertex 113.5 72.5 28.5
    endloop
  endfacet
  facet normal 0 -1 0
    outer loop
      vertex 1.5 72.5 -0.782609
      vertex 113.5 72.5 28.5
      vertex 1.5 72.5 28.5
    endloop
  endfacet
  facet normal 0 -1 -0
    outer loop
      vertex 113.5 72.5 28.5
      vertex 1.5 72.5 -0.782609
      vertex 113.5 72.5 -59.2174
    endloop
  endfacet
  facet normal 0 1 0
    outer loop
      vertex 113.5 1.5 28.5
      vertex 1.5 1.5 -0.782609
      vertex 1.5 1.5 28.5
    endloop
  endfacet
  facet normal -0 1 0
    outer loop
      vertex 1.5 1.5 -0.782609
      vertex 113.5 1.5 28.5
      vertex 113.5 1.5 -59.2174
    endloop
  endfacet
  facet normal 1 -0 0
    outer loop
      vertex 64 28 30
      vertex 64 62 28.5
      vertex 64 62 30
    endloop
  endfacet
  facet normal 1 0 0
    outer loop
      vertex 64 62 28.5
      vertex 64 28 30
      vertex 64 28 28.5
    endloop
  endfacet
  facet normal -1 0 0
    outer loop
      vertex 98 28 28.5
      vertex 98 62 30
      vertex 98 62 28.5
    endloop
  endfacet
  facet normal -1 -0 0
    outer loop
      vertex 98 62 30
      vertex 98 28 28.5
      vertex 98 28 30
    endloop
  endfacet
  facet normal 0 1 -0
    outer loop
      vertex 98 28 28.5
      vertex 64 28 30
      vertex 98 28 30
    endloop
  endfacet
  facet normal 0 1 0
    outer loop
      vertex 64 28 30
      vertex 98 28 28.5
      vertex 64 28 28.5
    endloop
  endfacet
  facet normal 0 -1 0
    outer loop
      vertex 64 62 28.5
      vertex 98 62 30
      vertex 64 62 30
    endloop
  endfacet
  facet normal 0 -1 -0
    outer loop
      vertex 98 62 30
      vertex 64 62 28.5
      vertex 98 62 28.5
    endloop
  endfacet
  facet normal 1 -0 0
    outer loop
      vertex 7.5 60 30
      vertex 7.5 66 28.5
      vertex 7.5 66 30
    endloop
  endfacet
  facet normal 1 0 0
    outer loop
      vertex 7.5 66 28.5
      vertex 7.5 60 30
      vertex 7.5 60 28.5
    endloop
  endfacet
  facet normal -1 0 0
    outer loop
      vertex 13.5 60 28.5
      vertex 13.5 66 30
      vertex 13.5 66 28.5
    endloop
  endfacet
  facet normal -1 -0 0
    outer loop
      vertex 13.5 66 30
      vertex 13.5 60 28.5
      vertex 13.5 60 30
    endloop
  endfacet
  facet normal 0 1 -0
    outer loop
      vertex 13.5 60 28.5
      vertex 7.5 60 30
      vertex 13.5 60 30
    endloop
  endfacet
  facet normal 0 1 0
    outer loop
      vertex 7.5 60 30
      vertex 13.5 60 28.5
      vertex 7.5 60 28.5
    endloop
  endfacet
  facet normal 0 -1 0
    outer loop
      vertex 7.5 66 28.5
      vertex 13.5 66 30
      vertex 7.5 66 30
    endloop
  endfacet
  facet normal 0 -1 -0
    outer loop
      vertex 13.5 66 30
      vertex 7.5 66 28.5
      vertex 13.5 66 28.5
    endloop
  endfacet
  facet normal 1 -0 0
    outer loop
      vertex 22.74 60 30
      vertex 22.74 66 28.5
      vertex 22.74 66 30
    endloop
  endfacet
  facet normal 1 0 0
    outer loop
      vertex 22.74 66 28.5
      vertex 22.74 60 30
      vertex 22.74 60 28.5
    endloop
  endfacet
  facet normal -1 0 0
    outer loop
      vertex 28.74 60 28.5
      vertex 28.74 66 30
      vertex 28.74 66 28.5
    endloop
  endfacet
  facet normal -1 -0 0
    outer loop
      vertex 28.74 66 30
      vertex 28.74 60 28.5
      vertex 28.74 60 30
    endloop
  endfacet
  facet normal 0 -1 0
    outer loop
      vertex 22.74 66 28.5
      vertex 28.74 66 30
      vertex 22.74 66 30
    endloop
  endfacet
  facet normal 0 -1 -0
    outer loop
      vertex 28.74 66 30
      vertex 22.74 66 28.5
      vertex 28.74 66 28.5
    endloop
  endfacet
  facet normal 0 1 -0
    outer loop
      vertex 28.74 60 28.5
      vertex 22.74 60 30
      vertex 28.74 60 30
    endloop
  endfacet
  facet normal 0 1 0
    outer loop
      vertex 22.74 60 30
      vertex 28.74 60 28.5
      vertex 22.74 60 28.5
    endloop
  endfacet
  facet normal 1 -0 0
    outer loop
      vertex 7.5 49.84 30
      vertex 7.5 55.84 28.5
      vertex 7.5 55.84 30
    endloop
  endfacet
  facet normal 1 0 0
    outer loop
      vertex 7.5 55.84 28.5
      vertex 7.5 49.84 30
      vertex 7.5 49.84 28.5
    endloop
  endfacet
  facet normal -1 0 0
    outer loop
      vertex 13.5 49.84 28.5
      vertex 13.5 55.84 30
      vertex 13.5 55.84 28.5
    endloop
  endfacet
  facet normal -1 -0 0
    outer loop
      vertex 13.5 55.84 30
      vertex 13.5 49.84 28.5
      vertex 13.5 49.84 30
    endloop
  endfacet
  facet normal 0 -1 0
    outer loop
      vertex 7.5 55.84 28.5
      vertex 13.5 55.84 30
      vertex 7.5 55.84 30
    endloop
  endfacet
  facet normal 0 -1 -0
    outer loop
      vertex 13.5 55.84 30
      vertex 7.5 55.84 28.5
      vertex 13.5 55.84 28.5
    endloop
  endfacet
  facet normal 0 1 -0
    outer loop
      vertex 13.5 49.84 28.5
      vertex 7.5 49.84 30
      vertex 13.5 49.84 30
    endloop
  endfacet
  facet normal 0 1 0
    outer loop
      vertex 7.5 49.84 30
      vertex 13.5 49.84 28.5
      vertex 7.5 49.84 28.5
    endloop
  endfacet
  facet normal 1 -0 0
    outer loop
      vertex 15.12 42.22 30
      vertex 15.12 48.22 28.5
      vertex 15.12 48.22 30
    endloop
  endfacet
  facet normal 1 0 0
    outer loop
      vertex 15.12 48.22 28.5
      vertex 15.12 42.22 30
      vertex 15.12 42.22 28.5
    endloop
  endfacet
  facet normal -1 0 0
    outer loop
      vertex 21.12 42.22 28.5
      vertex 21.12 48.22 30
      vertex 21.12 48.22 28.5
    endloop
  endfacet
  facet normal -1 -0 0
    outer loop
      vertex 21.12 48.22 30
      vertex 21.12 42.22 28.5
      vertex 21.12 42.22 30
    endloop
  endfacet
  facet normal 0 -1 0
    outer loop
      vertex 15.12 48.22 28.5
      vertex 21.12 48.22 30
      vertex 15.12 48.22 30
    endloop
  endfacet
  facet normal 0 -1 -0
    outer loop
      vertex 21.12 48.22 30
      vertex 15.12 48.22 28.5
      vertex 21.12 48.22 28.5
    endloop
  endfacet
  facet normal 0 1 -0
    outer loop
      vertex 21.12 42.22 28.5
      vertex 15.12 42.22 30
      vertex 21.12 42.22 30
    endloop
  endfacet
  facet normal 0 1 0
    outer loop
      vertex 15.12 42.22 30
      vertex 21.12 42.22 28.5
      vertex 15.12 42.22 28.5
    endloop
  endfacet
  facet normal 1 -0 0
    outer loop
      vertex 22.74 49.84 30
      vertex 22.74 55.84 28.5
      vertex 22.74 55.84 30
    endloop
  endfacet
  facet normal 1 0 0
    outer loop
      vertex 22.74 55.84 28.5
      vertex 22.74 49.84 30
      vertex 22.74 49.84 28.5
    endloop
  endfacet
  facet normal -1 0 0
    outer loop
      vertex 28.74 49.84 28.5
      vertex 28.74 55.84 30
      vertex 28.74 55.84 28.5
    endloop
  endfacet
  facet normal -1 -0 0
    outer loop
      vertex 28.74 55.84 30
      vertex 28.74 49.84 28.5
      vertex 28.74 49.84 30
    endloop
  endfacet
  facet normal 0 1 -0
    outer loop
      vertex 28.74 49.84 28.5
      vertex 22.74 49.84 30
      vertex 28.74 49.84 30
    endloop
  endfacet
  facet normal 0 1 0
    outer loop
      vertex 22.74 49.84 30
      vertex 28.74 49.84 28.5
      vertex 22.74 49.84 28.5
    endloop
  endfacet
  facet normal 0 -1 0
    outer loop
      vertex 22.74 55.84 28.5
      vertex 28.74 55.84 30
      vertex 22.74 55.84 30
    endloop
  endfacet
  facet normal 0 -1 -0
    outer loop
      vertex 28.74 55.84 30
      vertex 22.74 55.84 28.5
      vertex 28.74 55.84 28.5
    endloop
  endfacet
  facet normal 1 -0 0
    outer loop
      vertex 7.5 14.28 30
      vertex 7.5 20.28 28.5
      vertex 7.5 20.28 30
    endloop
  endfacet
  facet normal 1 0 0
    outer loop
      vertex 7.5 20.28 28.5
      vertex 7.5 14.28 30
      vertex 7.5 14.28 28.5
    endloop
  endfacet
  facet normal -1 0 0
    outer loop
      vertex 13.5 14.28 28.5
      vertex 13.5 20.28 30
      vertex 13.5 20.28 28.5
    endloop
  endfacet
  facet normal -1 -0 0
    outer loop
      vertex 13.5 20.28 30
      vertex 13.5 14.28 28.5
      vertex 13.5 14.28 30
    endloop
  endfacet
  facet normal 0 1 -0
    outer loop
      vertex 13.5 14.28 28.5
      vertex 7.5 14.28 30
      vertex 13.5 14.28 30
    endloop
  endfacet
  facet normal 0 1 0
    outer loop
      vertex 7.5 14.28 30
      vertex 13.5 14.28 28.5
      vertex 7.5 14.28 28.5
    endloop
  endfacet
  facet normal 0 -1 0
    outer loop
      vertex 7.5 20.28 28.5
      vertex 13.5 20.28 30
      vertex 7.5 20.28 30
    endloop
  endfacet
  facet normal 0 -1 -0
    outer loop
      vertex 13.5 20.28 30
      vertex 7.5 20.28 28.5
      vertex 13.5 20.28 28.5
    endloop
  endfacet
  facet normal 1 -0 0
    outer loop
      vertex 15.12 21.9 30
      vertex 15.12 27.9 28.5
      vertex 15.12 27.9 30
    endloop
  endfacet
  facet normal 1 0 0
    outer loop
      vertex 15.12 27.9 28.5
      vertex 15.12 21.9 30
      vertex 15.12 21.9 28.5
    endloop
  endfacet
  facet normal -1 0 0
    outer loop
      vertex 21.12 21.9 28.5
      vertex 21.12 27.9 30
      vertex 21.12 27.9 28.5
    endloop
  endfacet
  facet normal -1 -0 0
    outer loop
      vertex 21.12 27.9 30
      vertex 21.12 21.9 28.5
      vertex 21.12 21.9 30
    endloop
  endfacet
  facet normal 0 -1 0
    outer loop
      vertex 15.12 27.9 28.5
      vertex 21.12 27.9 30
      vertex 15.12 27.9 30
    endloop
  endfacet
  facet normal 0 -1 -0
    outer loop
      vertex 21.12 27.9 30
      vertex 15.12 27.9 28.5
      vertex 21.12 27.9 28.5
    endloop
  endfacet
  facet normal 0 1 -0
    outer loop
      vertex 21.12 21.9 28.5
      vertex 15.12 21.9 30
      vertex 21.12 21.9 30
    endloop
  endfacet
  facet normal 0 1 0
    outer loop
      vertex 15.12 21.9 30
      vertex 21.12 21.9 28.5
      vertex 15.12 21.9 28.5
    endloop
  endfacet
  facet normal 1 -0 0
    outer loop
      vertex 15.12 6.66 30
      vertex 15.12 12.66 28.5
      vertex 15.12 12.66 30
    endloop
  endfacet
  facet normal 1 0 0
    outer loop
      vertex 15.12 12.66 28.5
      vertex 15.12 6.66 30
      vertex 15.12 6.66 28.5
    endloop
  endfacet
  facet normal -1 0 0
    outer loop
      vertex 21.12 6.66 28.5
      vertex 21.12 12.66 30
      vertex 21.12 12.66 28.5
    endloop
  endfacet
  facet normal -1 -0 0
    outer loop
      vertex 21.12 12.66 30
      vertex 21.12 6.66 28.5
      vertex 21.12 6.66 30
    endloop
  endfacet
  facet normal 0 -1 0
    outer loop
      vertex 15.12 12.66 28.5
      vertex 21.12 12.66 30
      vertex 15.12 12.66 30
    endloop
  endfacet
  facet normal 0 -1 -0
    outer loop
      vertex 21.12 12.66 30
      vertex 15.12 12.66 28.5
      vertex 21.12 12.66 28.5
    endloop
  endfacet
  facet normal 0 1 -0
    outer loop
      vertex 21.12 6.66 28.5
      vertex 15.12 6.66 30
      vertex 21.12 6.66 30
    endloop
  endfacet
  facet normal 0 1 0
    outer loop
      vertex 15.12 6.66 30
      vertex 21.12 6.66 28.5
      vertex 15.12 6.66 28.5
    endloop
  endfacet
  facet normal 1 -0 0
    outer loop
      vertex 22.74 14.28 30
      vertex 22.74 20.28 28.5
      vertex 22.74 20.28 30
    endloop
  endfacet
  facet normal 1 0 0
    outer loop
      vertex 22.74 20.28 28.5
      vertex 22.74 14.28 30
      vertex 22.74 14.28 28.5
    endloop
  endfacet
  facet normal -1 0 0
    outer loop
      vertex 28.74 14.28 28.5
      vertex 28.74 20.28 30
      vertex 28.74 20.28 28.5
    endloop
  endfacet
  facet normal -1 -0 0
    outer loop
      vertex 28.74 20.28 30
      vertex 28.74 14.28 28.5
      vertex 28.74 14.28 30
    endloop
  endfacet
  facet normal 0 1 -0
    outer loop
      vertex 28.74 14.28 28.5
      vertex 22.74 14.28 30
      vertex 28.74 14.28 30
    endloop
  endfacet
  facet normal 0 1 0
    outer loop
      vertex 22.74 14.28 30
      vertex 28.74 14.28 28.5
      vertex 22.74 14.28 28.5
    endloop
  endfacet
  facet normal 0 -1 0
    outer loop
      vertex 22.74 20.28 28.5
      vertex 28.74 20.28 30
      vertex 22.74 20.28 30
    endloop
  endfacet
  facet normal 0 -1 -0
    outer loop
      vertex 28.74 20.28 30
      vertex 22.74 20.28 28.5
      vertex 28.74 20.28 28.5
    endloop
  endfacet
  facet normal 0 0 -1
    outer loop
      vertex 113.5 54 4
      vertex 115 64 4
      vertex 115 54 4
    endloop
  endfacet
  facet normal -0 0 -1
    outer loop
      vertex 115 64 4
      vertex 113.5 54 4
      vertex 113.5 64 4
    endloop
  endfacet
  facet normal 0 -1 0
    outer loop
      vertex 113.5 64 0
      vertex 115 64 4
      vertex 113.5 64 4
    endloop
  endfacet
  facet normal 0 -1 -0
    outer loop
      vertex 115 64 4
      vertex 113.5 64 0
      vertex 115 64 0
    endloop
  endfacet
  facet normal 0 1 -0
    outer loop
      vertex 115 54 0
      vertex 113.5 54 4
      vertex 115 54 4
    endloop
  endfacet
  facet normal 0 1 0
    outer loop
      vertex 113.5 54 4
      vertex 115 54 0
      vertex 113.5 54 0
    endloop
  endfacet
  facet normal -0.462566 0 -0.886585
    outer loop
      vertex 115 0 -60
      vertex 113.5 1.5 -59.2174
      vertex 115 74 -60
    endloop
  endfacet
  facet normal -0.462566 -3.97435e-007 -0.886585
    outer loop
      vertex 115 0 -60
      vertex 1.5 1.5 -0.782609
      vertex 113.5 1.5 -59.2174
    endloop
  endfacet
  facet normal -0.462566 0 -0.886585
    outer loop
      vertex 1.5 1.5 -0.782609
      vertex 0 0 0
      vertex 1.5 72.5 -0.782609
    endloop
  endfacet
  facet normal -0.462566 4.59518e-009 -0.886585
    outer loop
      vertex 0 0 0
      vertex 1.5 1.5 -0.782609
      vertex 115 0 -60
    endloop
  endfacet
  facet normal -0.462566 -0 -0.886585
    outer loop
      vertex 113.5 72.5 -59.2174
      vertex 115 74 -60
      vertex 113.5 1.5 -59.2174
    endloop
  endfacet
  facet normal -0.462566 3.97435e-007 -0.886585
    outer loop
      vertex 1.5 72.5 -0.782609
      vertex 115 74 -60
      vertex 113.5 72.5 -59.2174
    endloop
  endfacet
  facet normal -0.462566 -4.59518e-009 -0.886585
    outer loop
      vertex 1.5 72.5 -0.782609
      vertex 0 74 0
      vertex 115 74 -60
    endloop
  endfacet
  facet normal -0.462566 -0 -0.886585
    outer loop
      vertex 0 74 0
      vertex 1.5 72.5 -0.782609
      vertex 0 0 0
    endloop
  endfacet
endsolid OpenSCAD_Model
