solid OpenSCAD_Model
  facet normal 0 0 -1
    outer loop
      vertex -140 0 0
      vertex 0 1.5 0
      vertex 0 0 0
    endloop
  endfacet
  facet normal -0 0 -1
    outer loop
      vertex 0 1.5 0
      vertex -140 0 0
      vertex -140 1.5 0
    endloop
  endfacet
  facet normal -1 0 0
    outer loop
      vertex -140 0 0
      vertex -140 1.5 1.75
      vertex -140 1.5 0
    endloop
  endfacet
  facet normal -1 -0 0
    outer loop
      vertex -140 1.5 1.75
      vertex -140 0 0
      vertex -140 0 1.75
    endloop
  endfacet
  facet normal -0 0 1
    outer loop
      vertex -140 1.5 1.75
      vertex 0 0 1.75
      vertex 0 1.5 1.75
    endloop
  endfacet
  facet normal 0 0 1
    outer loop
      vertex 0 0 1.75
      vertex -140 1.5 1.75
      vertex -140 0 1.75
    endloop
  endfacet
  facet normal 0 -1 0
    outer loop
      vertex -140 0 0
      vertex 0 0 1.75
      vertex -140 0 1.75
    endloop
  endfacet
  facet normal 0 -1 -0
    outer loop
      vertex 0 0 1.75
      vertex -140 0 0
      vertex 0 0 0
    endloop
  endfacet
  facet normal 0 1 -0
    outer loop
      vertex 0 1.5 0
      vertex -140 1.5 1.75
      vertex 0 1.5 1.75
    endloop
  endfacet
  facet normal 0 1 0
    outer loop
      vertex -140 1.5 1.75
      vertex 0 1.5 0
      vertex -140 1.5 0
    endloop
  endfacet
  facet normal 1 -0 0
    outer loop
      vertex 0 0 1.75
      vertex 0 1.5 0
      vertex 0 1.5 1.75
    endloop
  endfacet
  facet normal 1 0 0
    outer loop
      vertex 0 1.5 0
      vertex 0 0 1.75
      vertex 0 0 0
    endloop
  endfacet
  facet normal 0 0 -1
    outer loop
      vertex -140 6 0
      vertex 0 7.5 0
      vertex 0 6 0
    endloop
  endfacet
  facet normal -0 0 -1
    outer loop
      vertex 0 7.5 0
      vertex -140 6 0
      vertex -140 7.5 0
    endloop
  endfacet
  facet normal -1 0 0
    outer loop
      vertex -140 6 0
      vertex -140 7.5 1.75
      vertex -140 7.5 0
    endloop
  endfacet
  facet normal -1 -0 0
    outer loop
      vertex -140 7.5 1.75
      vertex -140 6 0
      vertex -140 6 1.75
    endloop
  endfacet
  facet normal -0 0 1
    outer loop
      vertex -140 7.5 1.75
      vertex 0 6 1.75
      vertex 0 7.5 1.75
    endloop
  endfacet
  facet normal 0 0 1
    outer loop
      vertex 0 6 1.75
      vertex -140 7.5 1.75
      vertex -140 6 1.75
    endloop
  endfacet
  facet normal 0 -1 0
    outer loop
      vertex -140 6 0
      vertex 0 6 1.75
      vertex -140 6 1.75
    endloop
  endfacet
  facet normal 0 -1 -0
    outer loop
      vertex 0 6 1.75
      vertex -140 6 0
      vertex 0 6 0
    endloop
  endfacet
  facet normal 0 1 -0
    outer loop
      vertex 0 7.5 0
      vertex -140 7.5 1.75
      vertex 0 7.5 1.75
    endloop
  endfacet
  facet normal 0 1 0
    outer loop
      vertex -140 7.5 1.75
      vertex 0 7.5 0
      vertex -140 7.5 0
    endloop
  endfacet
  facet normal 1 -0 0
    outer loop
      vertex 0 6 1.75
      vertex 0 7.5 0
      vertex 0 7.5 1.75
    endloop
  endfacet
  facet normal 1 0 0
    outer loop
      vertex 0 7.5 0
      vertex 0 6 1.75
      vertex 0 6 0
    endloop
  endfacet
endsolid OpenSCAD_Model
