solid OpenSCAD_Model
  facet normal -0 0 1
    outer loop
      vertex 0 237.6 2
      vertex 135.6 122 2
      vertex 135.6 237.6 2
    endloop
  endfacet
  facet normal 0 0 1
    outer loop
      vertex 135.6 122 2
      vertex 0 237.6 2
      vertex 0 122 2
    endloop
  endfacet
  facet normal 0 0 -1
    outer loop
      vertex 0 122 0
      vertex 135.6 237.6 0
      vertex 135.6 122 0
    endloop
  endfacet
  facet normal -0 0 -1
    outer loop
      vertex 135.6 237.6 0
      vertex 0 122 0
      vertex 0 237.6 0
    endloop
  endfacet
  facet normal 0 -1 0
    outer loop
      vertex 0 122 0
      vertex 135.6 122 2
      vertex 0 122 2
    endloop
  endfacet
  facet normal 0 -1 -0
    outer loop
      vertex 135.6 122 2
      vertex 0 122 0
      vertex 135.6 122 0
    endloop
  endfacet
  facet normal 1 -0 0
    outer loop
      vertex 135.6 122 2
      vertex 135.6 237.6 0
      vertex 135.6 237.6 2
    endloop
  endfacet
  facet normal 1 0 0
    outer loop
      vertex 135.6 237.6 0
      vertex 135.6 122 2
      vertex 135.6 122 0
    endloop
  endfacet
  facet normal 0 1 -0
    outer loop
      vertex 135.6 237.6 0
      vertex 0 237.6 2
      vertex 135.6 237.6 2
    endloop
  endfacet
  facet normal 0 1 0
    outer loop
      vertex 0 237.6 2
      vertex 135.6 237.6 0
      vertex 0 237.6 0
    endloop
  endfacet
  facet normal -1 0 0
    outer loop
      vertex 0 122 0
      vertex 0 237.6 2
      vertex 0 237.6 0
    endloop
  endfacet
  facet normal -1 -0 0
    outer loop
      vertex 0 237.6 2
      vertex 0 122 0
      vertex 0 122 2
    endloop
  endfacet
endsolid OpenSCAD_Model
