solid OpenSCAD_Model
  facet normal 1 -0 0
    outer loop
      vertex 120 0 21
      vertex 120 2 20
      vertex 120 2 21
    endloop
  endfacet
  facet normal 1 0 0
    outer loop
      vertex 120 2 20
      vertex 120 0 21
      vertex 120 0 20
    endloop
  endfacet
  facet normal 1 -0 0
    outer loop
      vertex 120 0 42
      vertex 120 2 41
      vertex 120 2 42
    endloop
  endfacet
  facet normal 1 0 0
    outer loop
      vertex 120 2 41
      vertex 120 0 42
      vertex 120 0 41
    endloop
  endfacet
  facet normal 1 0 0
    outer loop
      vertex 120 2 42
      vertex 120 55 62
      vertex 120 2 62
    endloop
  endfacet
  facet normal 1 0 0
    outer loop
      vertex 120 2 41
      vertex 120 55 62
      vertex 120 2 42
    endloop
  endfacet
  facet normal 1 0 0
    outer loop
      vertex 120 55 62
      vertex 120 2 41
      vertex 120 55 0
    endloop
  endfacet
  facet normal 1 -0 0
    outer loop
      vertex 120 2 21
      vertex 120 55 0
      vertex 120 2 41
    endloop
  endfacet
  facet normal 1 -0 0
    outer loop
      vertex 120 2 20
      vertex 120 55 0
      vertex 120 2 21
    endloop
  endfacet
  facet normal 1 0 0
    outer loop
      vertex 120 55 0
      vertex 120 2 20
      vertex 120 2 0
    endloop
  endfacet
  facet normal -0 0 1
    outer loop
      vertex 120 2 20
      vertex 140 0 20
      vertex 140 2 20
    endloop
  endfacet
  facet normal 0 0 1
    outer loop
      vertex 140 0 20
      vertex 120 2 20
      vertex 120 0 20
    endloop
  endfacet
  facet normal 1 -0 0
    outer loop
      vertex 140 0 20
      vertex 140 2 0
      vertex 140 2 20
    endloop
  endfacet
  facet normal 1 0 0
    outer loop
      vertex 140 2 0
      vertex 140 0 20
      vertex 140 0 0
    endloop
  endfacet
  facet normal 0 1 0
    outer loop
      vertex 140 2 20
      vertex 130 2 12.75
      vertex 120 2 20
    endloop
  endfacet
  facet normal 0 1 0
    outer loop
      vertex 140 2 20
      vertex 130.85 2 12.6154
      vertex 130 2 12.75
    endloop
  endfacet
  facet normal 0 1 0
    outer loop
      vertex 140 2 20
      vertex 131.616 2 12.2248
      vertex 130.85 2 12.6154
    endloop
  endfacet
  facet normal 0 1 0
    outer loop
      vertex 140 2 20
      vertex 132.225 2 11.6164
      vertex 131.616 2 12.2248
    endloop
  endfacet
  facet normal 0 1 0
    outer loop
      vertex 140 2 20
      vertex 132.615 2 10.8498
      vertex 132.225 2 11.6164
    endloop
  endfacet
  facet normal 0 1 0
    outer loop
      vertex 140 2 20
      vertex 132.75 2 10
      vertex 132.615 2 10.8498
    endloop
  endfacet
  facet normal 0 1 -0
    outer loop
      vertex 140 2 0
      vertex 132.75 2 10
      vertex 140 2 20
    endloop
  endfacet
  facet normal 0 1 0
    outer loop
      vertex 132.75 2 10
      vertex 140 2 0
      vertex 132.615 2 9.1502
    endloop
  endfacet
  facet normal 0 1 0
    outer loop
      vertex 130.85 2 7.38459
      vertex 140 2 0
      vertex 130 2 7.25
    endloop
  endfacet
  facet normal 0 1 0
    outer loop
      vertex 131.616 2 7.7752
      vertex 140 2 0
      vertex 130.85 2 7.38459
    endloop
  endfacet
  facet normal 0 1 0
    outer loop
      vertex 132.225 2 8.38359
      vertex 140 2 0
      vertex 131.616 2 7.7752
    endloop
  endfacet
  facet normal 0 1 0
    outer loop
      vertex 132.615 2 9.1502
      vertex 140 2 0
      vertex 132.225 2 8.38359
    endloop
  endfacet
  facet normal 0 1 -0
    outer loop
      vertex 129.15 2 12.6154
      vertex 120 2 20
      vertex 130 2 12.75
    endloop
  endfacet
  facet normal 0 1 -0
    outer loop
      vertex 128.384 2 12.2248
      vertex 120 2 20
      vertex 129.15 2 12.6154
    endloop
  endfacet
  facet normal 0 1 -0
    outer loop
      vertex 127.775 2 11.6164
      vertex 120 2 20
      vertex 128.384 2 12.2248
    endloop
  endfacet
  facet normal 0 1 -0
    outer loop
      vertex 127.385 2 10.8498
      vertex 120 2 20
      vertex 127.775 2 11.6164
    endloop
  endfacet
  facet normal 0 1 -0
    outer loop
      vertex 127.25 2 10
      vertex 120 2 20
      vertex 127.385 2 10.8498
    endloop
  endfacet
  facet normal 0 1 0
    outer loop
      vertex 120 2 0
      vertex 127.25 2 10
      vertex 127.385 2 9.1502
    endloop
  endfacet
  facet normal 0 1 0
    outer loop
      vertex 120 2 0
      vertex 127.385 2 9.1502
      vertex 127.775 2 8.38359
    endloop
  endfacet
  facet normal 0 1 0
    outer loop
      vertex 120 2 0
      vertex 130 2 7.25
      vertex 140 2 0
    endloop
  endfacet
  facet normal 0 1 0
    outer loop
      vertex 130 2 7.25
      vertex 120 2 0
      vertex 129.15 2 7.38459
    endloop
  endfacet
  facet normal 0 1 0
    outer loop
      vertex 127.25 2 10
      vertex 120 2 0
      vertex 120 2 20
    endloop
  endfacet
  facet normal 0 1 0
    outer loop
      vertex 128.384 2 7.7752
      vertex 120 2 0
      vertex 127.775 2 8.38359
    endloop
  endfacet
  facet normal 0 1 0
    outer loop
      vertex 129.15 2 7.38459
      vertex 120 2 0
      vertex 128.384 2 7.7752
    endloop
  endfacet
  facet normal 0 0 -1
    outer loop
      vertex 140 0 0
      vertex 120 2 0
      vertex 140 2 0
    endloop
  endfacet
  facet normal 0 0 -1
    outer loop
      vertex 118 53 0
      vertex 120 2 0
      vertex 118 2 0
    endloop
  endfacet
  facet normal 0 0 -1
    outer loop
      vertex 140 0 0
      vertex 118 2 0
      vertex 120 2 0
    endloop
  endfacet
  facet normal 0 0 -1
    outer loop
      vertex 0 0 0
      vertex 118 2 0
      vertex 140 0 0
    endloop
  endfacet
  facet normal -0 0 -1
    outer loop
      vertex 2 2 0
      vertex 0 0 0
      vertex 2 53 0
    endloop
  endfacet
  facet normal -0 0 -1
    outer loop
      vertex 118 2 0
      vertex 0 0 0
      vertex 2 2 0
    endloop
  endfacet
  facet normal 0 0 -1
    outer loop
      vertex 120 2 0
      vertex 118 53 0
      vertex 120 55 0
    endloop
  endfacet
  facet normal 0 0 -1
    outer loop
      vertex 2 53 0
      vertex 120 55 0
      vertex 118 53 0
    endloop
  endfacet
  facet normal 0 0 -1
    outer loop
      vertex 2 53 0
      vertex 0 55 0
      vertex 120 55 0
    endloop
  endfacet
  facet normal 0 0 -1
    outer loop
      vertex 0 55 0
      vertex 2 53 0
      vertex 0 0 0
    endloop
  endfacet
  facet normal 0 -1 0
    outer loop
      vertex 128.384 0 54.2248
      vertex 140 0 62
      vertex 0 0 62
    endloop
  endfacet
  facet normal 0 -1 0
    outer loop
      vertex 140 0 62
      vertex 129.15 0 54.6154
      vertex 130 0 54.75
    endloop
  endfacet
  facet normal 0 -1 0
    outer loop
      vertex 140 0 62
      vertex 128.384 0 54.2248
      vertex 129.15 0 54.6154
    endloop
  endfacet
  facet normal 0 -1 0
    outer loop
      vertex 0 0 62
      vertex 127.775 0 53.6164
      vertex 128.384 0 54.2248
    endloop
  endfacet
  facet normal 0 -1 0
    outer loop
      vertex 120 0 42
      vertex 127.775 0 53.6164
      vertex 0 0 62
    endloop
  endfacet
  facet normal 0 -1 0
    outer loop
      vertex 127.775 0 53.6164
      vertex 120 0 42
      vertex 127.385 0 52.8498
    endloop
  endfacet
  facet normal 0 -1 0
    outer loop
      vertex 127.385 0 52.8498
      vertex 120 0 42
      vertex 127.25 0 52
    endloop
  endfacet
  facet normal 0 -1 -0
    outer loop
      vertex 127.25 0 52
      vertex 120 0 42
      vertex 127.385 0 51.1502
    endloop
  endfacet
  facet normal 0 -1 -0
    outer loop
      vertex 127.385 0 51.1502
      vertex 120 0 42
      vertex 127.775 0 50.3836
    endloop
  endfacet
  facet normal 0 -1 -0
    outer loop
      vertex 127.775 0 50.3836
      vertex 120 0 42
      vertex 128.384 0 49.7752
    endloop
  endfacet
  facet normal 0 -1 -0
    outer loop
      vertex 128.384 0 49.7752
      vertex 120 0 42
      vertex 129.15 0 49.3846
    endloop
  endfacet
  facet normal 0 -1 -0
    outer loop
      vertex 129.15 0 49.3846
      vertex 120 0 42
      vertex 130 0 49.25
    endloop
  endfacet
  facet normal 0 -1 0
    outer loop
      vertex 0 0 62
      vertex 120 0 41
      vertex 120 0 42
    endloop
  endfacet
  facet normal 0 -1 0
    outer loop
      vertex 120 0 41
      vertex 130 0 33.75
      vertex 140 0 41
    endloop
  endfacet
  facet normal 0 -1 0
    outer loop
      vertex 120 0 21
      vertex 120 0 41
      vertex 0 0 62
    endloop
  endfacet
  facet normal 0 -1 0
    outer loop
      vertex 120 0 41
      vertex 129.15 0 33.6154
      vertex 130 0 33.75
    endloop
  endfacet
  facet normal 0 -1 0
    outer loop
      vertex 120 0 41
      vertex 128.384 0 33.2248
      vertex 129.15 0 33.6154
    endloop
  endfacet
  facet normal 0 -1 0
    outer loop
      vertex 120 0 41
      vertex 127.775 0 32.6164
      vertex 128.384 0 33.2248
    endloop
  endfacet
  facet normal -0 -1 0
    outer loop
      vertex 127.25 0 31
      vertex 120 0 41
      vertex 120 0 21
    endloop
  endfacet
  facet normal 0 -1 0
    outer loop
      vertex 120 0 41
      vertex 127.385 0 31.8498
      vertex 127.775 0 32.6164
    endloop
  endfacet
  facet normal 0 -1 0
    outer loop
      vertex 120 0 41
      vertex 127.25 0 31
      vertex 127.385 0 31.8498
    endloop
  endfacet
  facet normal 0 -1 -0
    outer loop
      vertex 127.25 0 31
      vertex 120 0 21
      vertex 127.385 0 30.1502
    endloop
  endfacet
  facet normal 0 -1 -0
    outer loop
      vertex 127.385 0 30.1502
      vertex 120 0 21
      vertex 127.775 0 29.3836
    endloop
  endfacet
  facet normal 0 -1 -0
    outer loop
      vertex 127.775 0 29.3836
      vertex 120 0 21
      vertex 128.384 0 28.7752
    endloop
  endfacet
  facet normal 0 -1 -0
    outer loop
      vertex 129.15 0 28.3846
      vertex 120 0 21
      vertex 130 0 28.25
    endloop
  endfacet
  facet normal 0 -1 -0
    outer loop
      vertex 128.384 0 28.7752
      vertex 120 0 21
      vertex 129.15 0 28.3846
    endloop
  endfacet
  facet normal 0 -1 0
    outer loop
      vertex 0 0 0
      vertex 120 0 21
      vertex 0 0 62
    endloop
  endfacet
  facet normal 0 -1 0
    outer loop
      vertex 120 0 20
      vertex 130 0 12.75
      vertex 140 0 20
    endloop
  endfacet
  facet normal 0 -1 -0
    outer loop
      vertex 120 0 21
      vertex 0 0 0
      vertex 120 0 20
    endloop
  endfacet
  facet normal 0 -1 0
    outer loop
      vertex 120 0 20
      vertex 129.15 0 12.6154
      vertex 130 0 12.75
    endloop
  endfacet
  facet normal 0 -1 0
    outer loop
      vertex 120 0 20
      vertex 128.384 0 12.2248
      vertex 129.15 0 12.6154
    endloop
  endfacet
  facet normal 0 -1 0
    outer loop
      vertex 120 0 20
      vertex 127.775 0 11.6164
      vertex 128.384 0 12.2248
    endloop
  endfacet
  facet normal 0 -1 0
    outer loop
      vertex 120 0 20
      vertex 127.385 0 10.8498
      vertex 127.775 0 11.6164
    endloop
  endfacet
  facet normal -0 -1 0
    outer loop
      vertex 127.775 0 8.38359
      vertex 120 0 20
      vertex 0 0 0
    endloop
  endfacet
  facet normal 0 -1 0
    outer loop
      vertex 120 0 20
      vertex 127.25 0 10
      vertex 127.385 0 10.8498
    endloop
  endfacet
  facet normal 0 -1 0
    outer loop
      vertex 120 0 20
      vertex 127.385 0 9.1502
      vertex 127.25 0 10
    endloop
  endfacet
  facet normal 0 -1 0
    outer loop
      vertex 120 0 20
      vertex 127.775 0 8.38359
      vertex 127.385 0 9.1502
    endloop
  endfacet
  facet normal 0 -1 -0
    outer loop
      vertex 127.775 0 8.38359
      vertex 0 0 0
      vertex 128.384 0 7.7752
    endloop
  endfacet
  facet normal 0 -1 0
    outer loop
      vertex 128.384 0 7.7752
      vertex 140 0 0
      vertex 129.15 0 7.38459
    endloop
  endfacet
  facet normal 0 -1 0
    outer loop
      vertex 140 0 0
      vertex 128.384 0 7.7752
      vertex 0 0 0
    endloop
  endfacet
  facet normal 0 -1 0
    outer loop
      vertex 130.85 0 54.6154
      vertex 140 0 62
      vertex 130 0 54.75
    endloop
  endfacet
  facet normal 0 -1 0
    outer loop
      vertex 131.616 0 54.2248
      vertex 140 0 62
      vertex 130.85 0 54.6154
    endloop
  endfacet
  facet normal 0 -1 0
    outer loop
      vertex 132.225 0 53.6164
      vertex 140 0 62
      vertex 131.616 0 54.2248
    endloop
  endfacet
  facet normal 0 -1 0
    outer loop
      vertex 132.615 0 52.8498
      vertex 140 0 62
      vertex 132.225 0 53.6164
    endloop
  endfacet
  facet normal 0 -1 0
    outer loop
      vertex 132.75 0 52
      vertex 140 0 62
      vertex 132.615 0 52.8498
    endloop
  endfacet
  facet normal 0 -1 0
    outer loop
      vertex 140 0 42
      vertex 132.75 0 52
      vertex 132.615 0 51.1502
    endloop
  endfacet
  facet normal 0 -1 0
    outer loop
      vertex 140 0 42
      vertex 132.615 0 51.1502
      vertex 132.225 0 50.3836
    endloop
  endfacet
  facet normal 0 -1 0
    outer loop
      vertex 140 0 42
      vertex 130 0 49.25
      vertex 120 0 42
    endloop
  endfacet
  facet normal 0 -1 0
    outer loop
      vertex 130 0 49.25
      vertex 140 0 42
      vertex 130.85 0 49.3846
    endloop
  endfacet
  facet normal 0 -1 0
    outer loop
      vertex 132.75 0 52
      vertex 140 0 42
      vertex 140 0 62
    endloop
  endfacet
  facet normal 0 -1 0
    outer loop
      vertex 131.616 0 49.7752
      vertex 140 0 42
      vertex 132.225 0 50.3836
    endloop
  endfacet
  facet normal 0 -1 0
    outer loop
      vertex 130.85 0 49.3846
      vertex 140 0 42
      vertex 131.616 0 49.7752
    endloop
  endfacet
  facet normal 0 -1 0
    outer loop
      vertex 130.85 0 33.6154
      vertex 140 0 41
      vertex 130 0 33.75
    endloop
  endfacet
  facet normal 0 -1 0
    outer loop
      vertex 131.616 0 33.2248
      vertex 140 0 41
      vertex 130.85 0 33.6154
    endloop
  endfacet
  facet normal 0 -1 0
    outer loop
      vertex 132.225 0 32.6164
      vertex 140 0 41
      vertex 131.616 0 33.2248
    endloop
  endfacet
  facet normal 0 -1 0
    outer loop
      vertex 132.615 0 31.8498
      vertex 140 0 41
      vertex 132.225 0 32.6164
    endloop
  endfacet
  facet normal 0 -1 0
    outer loop
      vertex 132.75 0 31
      vertex 140 0 41
      vertex 132.615 0 31.8498
    endloop
  endfacet
  facet normal 0 -1 0
    outer loop
      vertex 140 0 21
      vertex 132.75 0 31
      vertex 132.615 0 30.1502
    endloop
  endfacet
  facet normal 0 -1 0
    outer loop
      vertex 140 0 21
      vertex 132.615 0 30.1502
      vertex 132.225 0 29.3836
    endloop
  endfacet
  facet normal 0 -1 0
    outer loop
      vertex 140 0 21
      vertex 130 0 28.25
      vertex 120 0 21
    endloop
  endfacet
  facet normal 0 -1 0
    outer loop
      vertex 130 0 28.25
      vertex 140 0 21
      vertex 130.85 0 28.3846
    endloop
  endfacet
  facet normal 0 -1 0
    outer loop
      vertex 132.75 0 31
      vertex 140 0 21
      vertex 140 0 41
    endloop
  endfacet
  facet normal 0 -1 0
    outer loop
      vertex 131.616 0 28.7752
      vertex 140 0 21
      vertex 132.225 0 29.3836
    endloop
  endfacet
  facet normal 0 -1 0
    outer loop
      vertex 130.85 0 28.3846
      vertex 140 0 21
      vertex 131.616 0 28.7752
    endloop
  endfacet
  facet normal 0 -1 0
    outer loop
      vertex 130.85 0 12.6154
      vertex 140 0 20
      vertex 130 0 12.75
    endloop
  endfacet
  facet normal 0 -1 0
    outer loop
      vertex 131.616 0 12.2248
      vertex 140 0 20
      vertex 130.85 0 12.6154
    endloop
  endfacet
  facet normal 0 -1 0
    outer loop
      vertex 132.225 0 11.6164
      vertex 140 0 20
      vertex 131.616 0 12.2248
    endloop
  endfacet
  facet normal 0 -1 0
    outer loop
      vertex 132.615 0 10.8498
      vertex 140 0 20
      vertex 132.225 0 11.6164
    endloop
  endfacet
  facet normal 0 -1 0
    outer loop
      vertex 132.75 0 10
      vertex 140 0 20
      vertex 132.615 0 10.8498
    endloop
  endfacet
  facet normal 0 -1 0
    outer loop
      vertex 140 0 0
      vertex 132.75 0 10
      vertex 132.615 0 9.1502
    endloop
  endfacet
  facet normal 0 -1 0
    outer loop
      vertex 140 0 0
      vertex 132.615 0 9.1502
      vertex 132.225 0 8.38359
    endloop
  endfacet
  facet normal 0 -1 0
    outer loop
      vertex 132.75 0 10
      vertex 140 0 0
      vertex 140 0 20
    endloop
  endfacet
  facet normal 0 -1 0
    outer loop
      vertex 131.616 0 7.7752
      vertex 140 0 0
      vertex 132.225 0 8.38359
    endloop
  endfacet
  facet normal 0 -1 0
    outer loop
      vertex 130.85 0 7.38459
      vertex 140 0 0
      vertex 131.616 0 7.7752
    endloop
  endfacet
  facet normal 0 -1 0
    outer loop
      vertex 130 0 7.25
      vertex 140 0 0
      vertex 130.85 0 7.38459
    endloop
  endfacet
  facet normal 0 -1 0
    outer loop
      vertex 129.15 0 7.38459
      vertex 140 0 0
      vertex 130 0 7.25
    endloop
  endfacet
  facet normal -0.987616 0 0.156893
    outer loop
      vertex 132.615 0 9.1502
      vertex 132.75 2 10
      vertex 132.615 2 9.1502
    endloop
  endfacet
  facet normal -0.987616 0 0.156893
    outer loop
      vertex 132.75 2 10
      vertex 132.615 0 9.1502
      vertex 132.75 0 10
    endloop
  endfacet
  facet normal 0.156393 0 0.987695
    outer loop
      vertex 129.15 2 7.38459
      vertex 130 0 7.25
      vertex 130 2 7.25
    endloop
  endfacet
  facet normal 0.156393 0 0.987695
    outer loop
      vertex 130 0 7.25
      vertex 129.15 2 7.38459
      vertex 129.15 0 7.38459
    endloop
  endfacet
  facet normal -0.156404 0 -0.987693
    outer loop
      vertex 130 0 12.75
      vertex 130.85 2 12.6154
      vertex 130.85 0 12.6154
    endloop
  endfacet
  facet normal -0.156404 0 -0.987693
    outer loop
      vertex 130.85 2 12.6154
      vertex 130 0 12.75
      vertex 130 2 12.75
    endloop
  endfacet
  facet normal -0.454271 0 -0.890864
    outer loop
      vertex 130.85 0 12.6154
      vertex 131.616 2 12.2248
      vertex 131.616 0 12.2248
    endloop
  endfacet
  facet normal -0.454271 0 -0.890864
    outer loop
      vertex 131.616 2 12.2248
      vertex 130.85 0 12.6154
      vertex 130.85 2 12.6154
    endloop
  endfacet
  facet normal -0.706752 0 0.707461
    outer loop
      vertex 131.616 0 7.7752
      vertex 132.225 2 8.38359
      vertex 131.616 2 7.7752
    endloop
  endfacet
  facet normal -0.706752 0 0.707461
    outer loop
      vertex 132.225 2 8.38359
      vertex 131.616 0 7.7752
      vertex 132.225 0 8.38359
    endloop
  endfacet
  facet normal -0.891292 0 0.45343
    outer loop
      vertex 132.225 0 8.38359
      vertex 132.615 2 9.1502
      vertex 132.225 2 8.38359
    endloop
  endfacet
  facet normal -0.891292 0 0.45343
    outer loop
      vertex 132.615 2 9.1502
      vertex 132.225 0 8.38359
      vertex 132.615 0 9.1502
    endloop
  endfacet
  facet normal -0.45428 0 0.890859
    outer loop
      vertex 130.85 2 7.38459
      vertex 131.616 0 7.7752
      vertex 131.616 2 7.7752
    endloop
  endfacet
  facet normal -0.45428 0 0.890859
    outer loop
      vertex 131.616 0 7.7752
      vertex 130.85 2 7.38459
      vertex 130.85 0 7.38459
    endloop
  endfacet
  facet normal 0.706752 0 0.707461
    outer loop
      vertex 127.775 2 8.38359
      vertex 128.384 0 7.7752
      vertex 128.384 2 7.7752
    endloop
  endfacet
  facet normal 0.706752 0 0.707461
    outer loop
      vertex 128.384 0 7.7752
      vertex 127.775 2 8.38359
      vertex 127.775 0 8.38359
    endloop
  endfacet
  facet normal 0.891292 -0 0.45343
    outer loop
      vertex 127.385 0 9.1502
      vertex 127.775 2 8.38359
      vertex 127.385 2 9.1502
    endloop
  endfacet
  facet normal 0.891292 0 0.45343
    outer loop
      vertex 127.775 2 8.38359
      vertex 127.385 0 9.1502
      vertex 127.775 0 8.38359
    endloop
  endfacet
  facet normal 0.45428 0 0.890859
    outer loop
      vertex 128.384 2 7.7752
      vertex 129.15 0 7.38459
      vertex 129.15 2 7.38459
    endloop
  endfacet
  facet normal 0.45428 0 0.890859
    outer loop
      vertex 129.15 0 7.38459
      vertex 128.384 2 7.7752
      vertex 128.384 0 7.7752
    endloop
  endfacet
  facet normal -0.156393 0 0.987695
    outer loop
      vertex 130 2 7.25
      vertex 130.85 0 7.38459
      vertex 130.85 2 7.38459
    endloop
  endfacet
  facet normal -0.156393 0 0.987695
    outer loop
      vertex 130.85 0 7.38459
      vertex 130 2 7.25
      vertex 130 0 7.25
    endloop
  endfacet
  facet normal 0.987616 -0 0.156893
    outer loop
      vertex 127.25 0 10
      vertex 127.385 2 9.1502
      vertex 127.25 2 10
    endloop
  endfacet
  facet normal 0.987616 0 0.156893
    outer loop
      vertex 127.385 2 9.1502
      vertex 127.25 0 10
      vertex 127.385 0 9.1502
    endloop
  endfacet
  facet normal -0.706758 0 -0.707455
    outer loop
      vertex 132.225 0 11.6164
      vertex 131.616 2 12.2248
      vertex 132.225 2 11.6164
    endloop
  endfacet
  facet normal -0.706758 -0 -0.707455
    outer loop
      vertex 131.616 2 12.2248
      vertex 132.225 0 11.6164
      vertex 131.616 0 12.2248
    endloop
  endfacet
  facet normal -0.89129 0 -0.453435
    outer loop
      vertex 132.615 0 10.8498
      vertex 132.225 2 11.6164
      vertex 132.615 2 10.8498
    endloop
  endfacet
  facet normal -0.89129 -0 -0.453435
    outer loop
      vertex 132.225 2 11.6164
      vertex 132.615 0 10.8498
      vertex 132.225 0 11.6164
    endloop
  endfacet
  facet normal 0.987616 0 -0.156893
    outer loop
      vertex 127.385 0 10.8498
      vertex 127.25 2 10
      vertex 127.385 2 10.8498
    endloop
  endfacet
  facet normal 0.987616 0 -0.156893
    outer loop
      vertex 127.25 2 10
      vertex 127.385 0 10.8498
      vertex 127.25 0 10
    endloop
  endfacet
  facet normal 0.706758 0 -0.707455
    outer loop
      vertex 127.775 0 11.6164
      vertex 128.384 2 12.2248
      vertex 128.384 0 12.2248
    endloop
  endfacet
  facet normal 0.706758 0 -0.707455
    outer loop
      vertex 128.384 2 12.2248
      vertex 127.775 0 11.6164
      vertex 127.775 2 11.6164
    endloop
  endfacet
  facet normal 0.89129 0 -0.453435
    outer loop
      vertex 127.775 0 11.6164
      vertex 127.385 2 10.8498
      vertex 127.775 2 11.6164
    endloop
  endfacet
  facet normal 0.89129 0 -0.453435
    outer loop
      vertex 127.385 2 10.8498
      vertex 127.775 0 11.6164
      vertex 127.385 0 10.8498
    endloop
  endfacet
  facet normal -0.987616 0 -0.156893
    outer loop
      vertex 132.75 0 10
      vertex 132.615 2 10.8498
      vertex 132.75 2 10
    endloop
  endfacet
  facet normal -0.987616 -0 -0.156893
    outer loop
      vertex 132.615 2 10.8498
      vertex 132.75 0 10
      vertex 132.615 0 10.8498
    endloop
  endfacet
  facet normal 0.156404 0 -0.987693
    outer loop
      vertex 129.15 0 12.6154
      vertex 130 2 12.75
      vertex 130 0 12.75
    endloop
  endfacet
  facet normal 0.156404 0 -0.987693
    outer loop
      vertex 130 2 12.75
      vertex 129.15 0 12.6154
      vertex 129.15 2 12.6154
    endloop
  endfacet
  facet normal 0.454271 0 -0.890864
    outer loop
      vertex 128.384 0 12.2248
      vertex 129.15 2 12.6154
      vertex 129.15 0 12.6154
    endloop
  endfacet
  facet normal 0.454271 0 -0.890864
    outer loop
      vertex 129.15 2 12.6154
      vertex 128.384 0 12.2248
      vertex 128.384 2 12.2248
    endloop
  endfacet
  facet normal -0 0 1
    outer loop
      vertex 106 30.4 62
      vertex 115 20 62
      vertex 115.6 30.4 62
    endloop
  endfacet
  facet normal -0 0 1
    outer loop
      vertex 98.5806 35.8887 62
      vertex 106 30.4 62
      vertex 98.75 37.5 62
    endloop
  endfacet
  facet normal -0 0 1
    outer loop
      vertex 98.08 34.3478 62
      vertex 106 30.4 62
      vertex 98.5806 35.8887 62
    endloop
  endfacet
  facet normal -0 0 1
    outer loop
      vertex 97.2699 32.9447 62
      vertex 106 30.4 62
      vertex 98.08 34.3478 62
    endloop
  endfacet
  facet normal -0 0 1
    outer loop
      vertex 96.1858 31.7406 62
      vertex 106 30.4 62
      vertex 97.2699 32.9447 62
    endloop
  endfacet
  facet normal -0 0 1
    outer loop
      vertex 94.875 30.7883 62
      vertex 106 30.4 62
      vertex 96.1858 31.7406 62
    endloop
  endfacet
  facet normal 0 0 1
    outer loop
      vertex 93.3949 30.1293 62
      vertex 106 30.4 62
      vertex 94.875 30.7883 62
    endloop
  endfacet
  facet normal 0 0 1
    outer loop
      vertex 106 30.4 62
      vertex 93.3949 30.1293 62
      vertex 115 20 62
    endloop
  endfacet
  facet normal -0 0 1
    outer loop
      vertex 91.8101 29.7925 62
      vertex 115 20 62
      vertex 93.3949 30.1293 62
    endloop
  endfacet
  facet normal -0 0 1
    outer loop
      vertex 90.1899 29.7925 62
      vertex 115 20 62
      vertex 91.8101 29.7925 62
    endloop
  endfacet
  facet normal 0 0 1
    outer loop
      vertex 88.6051 30.1293 62
      vertex 115 20 62
      vertex 90.1899 29.7925 62
    endloop
  endfacet
  facet normal 0 0 1
    outer loop
      vertex 88.6051 30.1293 62
      vertex 5 20 62
      vertex 115 20 62
    endloop
  endfacet
  facet normal 0 0 1
    outer loop
      vertex 87.125 30.7883 62
      vertex 5 20 62
      vertex 88.6051 30.1293 62
    endloop
  endfacet
  facet normal 0 0 1
    outer loop
      vertex 85.8142 31.7406 62
      vertex 5 20 62
      vertex 87.125 30.7883 62
    endloop
  endfacet
  facet normal 0 0 1
    outer loop
      vertex 84.7301 32.9447 62
      vertex 5 20 62
      vertex 85.8142 31.7406 62
    endloop
  endfacet
  facet normal 0 0 1
    outer loop
      vertex 83.92 34.3478 62
      vertex 5 20 62
      vertex 84.7301 32.9447 62
    endloop
  endfacet
  facet normal 0 0 1
    outer loop
      vertex 83.4194 35.8887 62
      vertex 5 20 62
      vertex 83.92 34.3478 62
    endloop
  endfacet
  facet normal 0 0 1
    outer loop
      vertex 5 20 62
      vertex 83.4194 35.8887 62
      vertex 83.25 37.5 62
    endloop
  endfacet
  facet normal 0 0 1
    outer loop
      vertex 115.6 30.4 62
      vertex 120 55 62
      vertex 115.6 44.6 62
    endloop
  endfacet
  facet normal 0 0 1
    outer loop
      vertex 120 55 62
      vertex 106 44.6 62
      vertex 115.6 44.6 62
    endloop
  endfacet
  facet normal 0 0 1
    outer loop
      vertex 106 44.6 62
      vertex 98.75 37.5 62
      vertex 106 30.4 62
    endloop
  endfacet
  facet normal 0 0 1
    outer loop
      vertex 106 44.6 62
      vertex 98.5806 39.1113 62
      vertex 98.75 37.5 62
    endloop
  endfacet
  facet normal -0 0 1
    outer loop
      vertex 93.3949 44.8707 62
      vertex 106 44.6 62
      vertex 120 55 62
    endloop
  endfacet
  facet normal 0 0 1
    outer loop
      vertex 106 44.6 62
      vertex 98.08 40.6522 62
      vertex 98.5806 39.1113 62
    endloop
  endfacet
  facet normal 0 0 1
    outer loop
      vertex 106 44.6 62
      vertex 97.2699 42.0553 62
      vertex 98.08 40.6522 62
    endloop
  endfacet
  facet normal 0 0 1
    outer loop
      vertex 106 44.6 62
      vertex 96.1858 43.2594 62
      vertex 97.2699 42.0553 62
    endloop
  endfacet
  facet normal 0 0 1
    outer loop
      vertex 106 44.6 62
      vertex 94.875 44.2117 62
      vertex 96.1858 43.2594 62
    endloop
  endfacet
  facet normal 0 0 1
    outer loop
      vertex 106 44.6 62
      vertex 93.3949 44.8707 62
      vertex 94.875 44.2117 62
    endloop
  endfacet
  facet normal 0 0 1
    outer loop
      vertex 120 55 62
      vertex 91.8101 45.2075 62
      vertex 93.3949 44.8707 62
    endloop
  endfacet
  facet normal 0 0 1
    outer loop
      vertex 120 55 62
      vertex 90.1899 45.2075 62
      vertex 91.8101 45.2075 62
    endloop
  endfacet
  facet normal 0 0 1
    outer loop
      vertex 120 55 62
      vertex 88.6051 44.8707 62
      vertex 90.1899 45.2075 62
    endloop
  endfacet
  facet normal 0 0 1
    outer loop
      vertex 83.4194 39.1113 62
      vertex 5 20 62
      vertex 83.25 37.5 62
    endloop
  endfacet
  facet normal 0 0 1
    outer loop
      vertex 0 55 62
      vertex 83.4194 39.1113 62
      vertex 83.92 40.6522 62
    endloop
  endfacet
  facet normal 0 0 1
    outer loop
      vertex 0 55 62
      vertex 83.92 40.6522 62
      vertex 84.7301 42.0553 62
    endloop
  endfacet
  facet normal 0 0 1
    outer loop
      vertex 0 55 62
      vertex 84.7301 42.0553 62
      vertex 85.8142 43.2594 62
    endloop
  endfacet
  facet normal 0 0 1
    outer loop
      vertex 0 55 62
      vertex 85.8142 43.2594 62
      vertex 87.125 44.2117 62
    endloop
  endfacet
  facet normal 0 0 1
    outer loop
      vertex 0 55 62
      vertex 87.125 44.2117 62
      vertex 88.6051 44.8707 62
    endloop
  endfacet
  facet normal -0 0 1
    outer loop
      vertex 0 55 62
      vertex 88.6051 44.8707 62
      vertex 120 55 62
    endloop
  endfacet
  facet normal 0 0 1
    outer loop
      vertex 0 0 62
      vertex 5 20 62
      vertex 0 55 62
    endloop
  endfacet
  facet normal 0 0 1
    outer loop
      vertex 83.4194 39.1113 62
      vertex 0 55 62
      vertex 5 20 62
    endloop
  endfacet
  facet normal -0 0 1
    outer loop
      vertex 120 2 62
      vertex 140 0 62
      vertex 140 2 62
    endloop
  endfacet
  facet normal 0 0 1
    outer loop
      vertex 120 55 62
      vertex 115.6 30.4 62
      vertex 120 2 62
    endloop
  endfacet
  facet normal -0 0 1
    outer loop
      vertex 115 20 62
      vertex 120 2 62
      vertex 115.6 30.4 62
    endloop
  endfacet
  facet normal -0 0 1
    outer loop
      vertex 115 5 62
      vertex 120 2 62
      vertex 115 20 62
    endloop
  endfacet
  facet normal 0 0 1
    outer loop
      vertex 0 0 62
      vertex 115 5 62
      vertex 5 5 62
    endloop
  endfacet
  facet normal 0 0 1
    outer loop
      vertex 115 5 62
      vertex 0 0 62
      vertex 120 2 62
    endloop
  endfacet
  facet normal 0 0 1
    outer loop
      vertex 120 2 62
      vertex 0 0 62
      vertex 140 0 62
    endloop
  endfacet
  facet normal 0 0 1
    outer loop
      vertex 5 20 62
      vertex 0 0 62
      vertex 5 5 62
    endloop
  endfacet
  facet normal 1 -0 0
    outer loop
      vertex 140 0 62
      vertex 140 2 42
      vertex 140 2 62
    endloop
  endfacet
  facet normal 1 0 0
    outer loop
      vertex 140 2 42
      vertex 140 0 62
      vertex 140 0 42
    endloop
  endfacet
  facet normal 0 1 0
    outer loop
      vertex 140 2 62
      vertex 130 2 54.75
      vertex 120 2 62
    endloop
  endfacet
  facet normal 0 1 0
    outer loop
      vertex 140 2 62
      vertex 130.85 2 54.6154
      vertex 130 2 54.75
    endloop
  endfacet
  facet normal 0 1 0
    outer loop
      vertex 140 2 62
      vertex 131.616 2 54.2248
      vertex 130.85 2 54.6154
    endloop
  endfacet
  facet normal 0 1 0
    outer loop
      vertex 140 2 62
      vertex 132.225 2 53.6164
      vertex 131.616 2 54.2248
    endloop
  endfacet
  facet normal 0 1 0
    outer loop
      vertex 140 2 62
      vertex 132.615 2 52.8498
      vertex 132.225 2 53.6164
    endloop
  endfacet
  facet normal 0 1 0
    outer loop
      vertex 140 2 62
      vertex 132.75 2 52
      vertex 132.615 2 52.8498
    endloop
  endfacet
  facet normal 0 1 -0
    outer loop
      vertex 140 2 42
      vertex 132.75 2 52
      vertex 140 2 62
    endloop
  endfacet
  facet normal 0 1 0
    outer loop
      vertex 132.75 2 52
      vertex 140 2 42
      vertex 132.615 2 51.1502
    endloop
  endfacet
  facet normal 0 1 0
    outer loop
      vertex 130.85 2 49.3846
      vertex 140 2 42
      vertex 130 2 49.25
    endloop
  endfacet
  facet normal 0 1 0
    outer loop
      vertex 131.616 2 49.7752
      vertex 140 2 42
      vertex 130.85 2 49.3846
    endloop
  endfacet
  facet normal 0 1 0
    outer loop
      vertex 132.225 2 50.3836
      vertex 140 2 42
      vertex 131.616 2 49.7752
    endloop
  endfacet
  facet normal 0 1 0
    outer loop
      vertex 132.615 2 51.1502
      vertex 140 2 42
      vertex 132.225 2 50.3836
    endloop
  endfacet
  facet normal 0 1 -0
    outer loop
      vertex 129.15 2 54.6154
      vertex 120 2 62
      vertex 130 2 54.75
    endloop
  endfacet
  facet normal 0 1 -0
    outer loop
      vertex 128.384 2 54.2248
      vertex 120 2 62
      vertex 129.15 2 54.6154
    endloop
  endfacet
  facet normal 0 1 -0
    outer loop
      vertex 127.775 2 53.6164
      vertex 120 2 62
      vertex 128.384 2 54.2248
    endloop
  endfacet
  facet normal 0 1 -0
    outer loop
      vertex 127.385 2 52.8498
      vertex 120 2 62
      vertex 127.775 2 53.6164
    endloop
  endfacet
  facet normal 0 1 -0
    outer loop
      vertex 127.25 2 52
      vertex 120 2 62
      vertex 127.385 2 52.8498
    endloop
  endfacet
  facet normal 0 1 0
    outer loop
      vertex 120 2 42
      vertex 127.25 2 52
      vertex 127.385 2 51.1502
    endloop
  endfacet
  facet normal 0 1 0
    outer loop
      vertex 120 2 42
      vertex 127.385 2 51.1502
      vertex 127.775 2 50.3836
    endloop
  endfacet
  facet normal 0 1 0
    outer loop
      vertex 120 2 42
      vertex 130 2 49.25
      vertex 140 2 42
    endloop
  endfacet
  facet normal 0 1 0
    outer loop
      vertex 130 2 49.25
      vertex 120 2 42
      vertex 129.15 2 49.3846
    endloop
  endfacet
  facet normal 0 1 0
    outer loop
      vertex 127.25 2 52
      vertex 120 2 42
      vertex 120 2 62
    endloop
  endfacet
  facet normal 0 1 0
    outer loop
      vertex 128.384 2 49.7752
      vertex 120 2 42
      vertex 127.775 2 50.3836
    endloop
  endfacet
  facet normal 0 1 0
    outer loop
      vertex 129.15 2 49.3846
      vertex 120 2 42
      vertex 128.384 2 49.7752
    endloop
  endfacet
  facet normal 0 0 -1
    outer loop
      vertex 120 0 42
      vertex 140 2 42
      vertex 140 0 42
    endloop
  endfacet
  facet normal -0 0 -1
    outer loop
      vertex 140 2 42
      vertex 120 0 42
      vertex 120 2 42
    endloop
  endfacet
  facet normal -0.987616 0 0.156893
    outer loop
      vertex 132.615 0 51.1502
      vertex 132.75 2 52
      vertex 132.615 2 51.1502
    endloop
  endfacet
  facet normal -0.987616 0 0.156893
    outer loop
      vertex 132.75 2 52
      vertex 132.615 0 51.1502
      vertex 132.75 0 52
    endloop
  endfacet
  facet normal 0.156404 0 0.987693
    outer loop
      vertex 129.15 2 49.3846
      vertex 130 0 49.25
      vertex 130 2 49.25
    endloop
  endfacet
  facet normal 0.156404 0 0.987693
    outer loop
      vertex 130 0 49.25
      vertex 129.15 2 49.3846
      vertex 129.15 0 49.3846
    endloop
  endfacet
  facet normal -0.156404 0 -0.987693
    outer loop
      vertex 130 0 54.75
      vertex 130.85 2 54.6154
      vertex 130.85 0 54.6154
    endloop
  endfacet
  facet normal -0.156404 0 -0.987693
    outer loop
      vertex 130.85 2 54.6154
      vertex 130 0 54.75
      vertex 130 2 54.75
    endloop
  endfacet
  facet normal -0.454271 0 -0.890864
    outer loop
      vertex 130.85 0 54.6154
      vertex 131.616 2 54.2248
      vertex 131.616 0 54.2248
    endloop
  endfacet
  facet normal -0.454271 0 -0.890864
    outer loop
      vertex 131.616 2 54.2248
      vertex 130.85 0 54.6154
      vertex 130.85 2 54.6154
    endloop
  endfacet
  facet normal -0.706758 0 0.707455
    outer loop
      vertex 131.616 0 49.7752
      vertex 132.225 2 50.3836
      vertex 131.616 2 49.7752
    endloop
  endfacet
  facet normal -0.706758 0 0.707455
    outer loop
      vertex 132.225 2 50.3836
      vertex 131.616 0 49.7752
      vertex 132.225 0 50.3836
    endloop
  endfacet
  facet normal -0.89129 0 0.453435
    outer loop
      vertex 132.225 0 50.3836
      vertex 132.615 2 51.1502
      vertex 132.225 2 50.3836
    endloop
  endfacet
  facet normal -0.89129 0 0.453435
    outer loop
      vertex 132.615 2 51.1502
      vertex 132.225 0 50.3836
      vertex 132.615 0 51.1502
    endloop
  endfacet
  facet normal -0.454271 0 0.890864
    outer loop
      vertex 130.85 2 49.3846
      vertex 131.616 0 49.7752
      vertex 131.616 2 49.7752
    endloop
  endfacet
  facet normal -0.454271 0 0.890864
    outer loop
      vertex 131.616 0 49.7752
      vertex 130.85 2 49.3846
      vertex 130.85 0 49.3846
    endloop
  endfacet
  facet normal 0.706758 0 0.707455
    outer loop
      vertex 127.775 2 50.3836
      vertex 128.384 0 49.7752
      vertex 128.384 2 49.7752
    endloop
  endfacet
  facet normal 0.706758 0 0.707455
    outer loop
      vertex 128.384 0 49.7752
      vertex 127.775 2 50.3836
      vertex 127.775 0 50.3836
    endloop
  endfacet
  facet normal 0.89129 -0 0.453435
    outer loop
      vertex 127.385 0 51.1502
      vertex 127.775 2 50.3836
      vertex 127.385 2 51.1502
    endloop
  endfacet
  facet normal 0.89129 0 0.453435
    outer loop
      vertex 127.775 2 50.3836
      vertex 127.385 0 51.1502
      vertex 127.775 0 50.3836
    endloop
  endfacet
  facet normal 0.454271 0 0.890864
    outer loop
      vertex 128.384 2 49.7752
      vertex 129.15 0 49.3846
      vertex 129.15 2 49.3846
    endloop
  endfacet
  facet normal 0.454271 0 0.890864
    outer loop
      vertex 129.15 0 49.3846
      vertex 128.384 2 49.7752
      vertex 128.384 0 49.7752
    endloop
  endfacet
  facet normal -0.156404 0 0.987693
    outer loop
      vertex 130 2 49.25
      vertex 130.85 0 49.3846
      vertex 130.85 2 49.3846
    endloop
  endfacet
  facet normal -0.156404 0 0.987693
    outer loop
      vertex 130.85 0 49.3846
      vertex 130 2 49.25
      vertex 130 0 49.25
    endloop
  endfacet
  facet normal 0.987616 -0 0.156893
    outer loop
      vertex 127.25 0 52
      vertex 127.385 2 51.1502
      vertex 127.25 2 52
    endloop
  endfacet
  facet normal 0.987616 0 0.156893
    outer loop
      vertex 127.385 2 51.1502
      vertex 127.25 0 52
      vertex 127.385 0 51.1502
    endloop
  endfacet
  facet normal -0.706758 0 -0.707455
    outer loop
      vertex 132.225 0 53.6164
      vertex 131.616 2 54.2248
      vertex 132.225 2 53.6164
    endloop
  endfacet
  facet normal -0.706758 -0 -0.707455
    outer loop
      vertex 131.616 2 54.2248
      vertex 132.225 0 53.6164
      vertex 131.616 0 54.2248
    endloop
  endfacet
  facet normal -0.89129 0 -0.453435
    outer loop
      vertex 132.615 0 52.8498
      vertex 132.225 2 53.6164
      vertex 132.615 2 52.8498
    endloop
  endfacet
  facet normal -0.89129 -0 -0.453435
    outer loop
      vertex 132.225 2 53.6164
      vertex 132.615 0 52.8498
      vertex 132.225 0 53.6164
    endloop
  endfacet
  facet normal 0.987616 0 -0.156893
    outer loop
      vertex 127.385 0 52.8498
      vertex 127.25 2 52
      vertex 127.385 2 52.8498
    endloop
  endfacet
  facet normal 0.987616 0 -0.156893
    outer loop
      vertex 127.25 2 52
      vertex 127.385 0 52.8498
      vertex 127.25 0 52
    endloop
  endfacet
  facet normal 0.706758 0 -0.707455
    outer loop
      vertex 127.775 0 53.6164
      vertex 128.384 2 54.2248
      vertex 128.384 0 54.2248
    endloop
  endfacet
  facet normal 0.706758 0 -0.707455
    outer loop
      vertex 128.384 2 54.2248
      vertex 127.775 0 53.6164
      vertex 127.775 2 53.6164
    endloop
  endfacet
  facet normal 0.89129 0 -0.453435
    outer loop
      vertex 127.775 0 53.6164
      vertex 127.385 2 52.8498
      vertex 127.775 2 53.6164
    endloop
  endfacet
  facet normal 0.89129 0 -0.453435
    outer loop
      vertex 127.385 2 52.8498
      vertex 127.775 0 53.6164
      vertex 127.385 0 52.8498
    endloop
  endfacet
  facet normal -0.987616 0 -0.156893
    outer loop
      vertex 132.75 0 52
      vertex 132.615 2 52.8498
      vertex 132.75 2 52
    endloop
  endfacet
  facet normal -0.987616 -0 -0.156893
    outer loop
      vertex 132.615 2 52.8498
      vertex 132.75 0 52
      vertex 132.615 0 52.8498
    endloop
  endfacet
  facet normal 0.156404 0 -0.987693
    outer loop
      vertex 129.15 0 54.6154
      vertex 130 2 54.75
      vertex 130 0 54.75
    endloop
  endfacet
  facet normal 0.156404 0 -0.987693
    outer loop
      vertex 130 2 54.75
      vertex 129.15 0 54.6154
      vertex 129.15 2 54.6154
    endloop
  endfacet
  facet normal 0.454271 0 -0.890864
    outer loop
      vertex 128.384 0 54.2248
      vertex 129.15 2 54.6154
      vertex 129.15 0 54.6154
    endloop
  endfacet
  facet normal 0.454271 0 -0.890864
    outer loop
      vertex 129.15 2 54.6154
      vertex 128.384 0 54.2248
      vertex 128.384 2 54.2248
    endloop
  endfacet
  facet normal -0 0 1
    outer loop
      vertex 120 2 41
      vertex 140 0 41
      vertex 140 2 41
    endloop
  endfacet
  facet normal 0 0 1
    outer loop
      vertex 140 0 41
      vertex 120 2 41
      vertex 120 0 41
    endloop
  endfacet
  facet normal 1 -0 0
    outer loop
      vertex 140 0 41
      vertex 140 2 21
      vertex 140 2 41
    endloop
  endfacet
  facet normal 1 0 0
    outer loop
      vertex 140 2 21
      vertex 140 0 41
      vertex 140 0 21
    endloop
  endfacet
  facet normal 0 1 0
    outer loop
      vertex 140 2 41
      vertex 130 2 33.75
      vertex 120 2 41
    endloop
  endfacet
  facet normal 0 1 0
    outer loop
      vertex 140 2 41
      vertex 130.85 2 33.6154
      vertex 130 2 33.75
    endloop
  endfacet
  facet normal 0 1 0
    outer loop
      vertex 140 2 41
      vertex 131.616 2 33.2248
      vertex 130.85 2 33.6154
    endloop
  endfacet
  facet normal 0 1 0
    outer loop
      vertex 140 2 41
      vertex 132.225 2 32.6164
      vertex 131.616 2 33.2248
    endloop
  endfacet
  facet normal 0 1 0
    outer loop
      vertex 140 2 41
      vertex 132.615 2 31.8498
      vertex 132.225 2 32.6164
    endloop
  endfacet
  facet normal 0 1 0
    outer loop
      vertex 140 2 41
      vertex 132.75 2 31
      vertex 132.615 2 31.8498
    endloop
  endfacet
  facet normal 0 1 -0
    outer loop
      vertex 140 2 21
      vertex 132.75 2 31
      vertex 140 2 41
    endloop
  endfacet
  facet normal 0 1 0
    outer loop
      vertex 132.75 2 31
      vertex 140 2 21
      vertex 132.615 2 30.1502
    endloop
  endfacet
  facet normal 0 1 0
    outer loop
      vertex 130.85 2 28.3846
      vertex 140 2 21
      vertex 130 2 28.25
    endloop
  endfacet
  facet normal 0 1 0
    outer loop
      vertex 131.616 2 28.7752
      vertex 140 2 21
      vertex 130.85 2 28.3846
    endloop
  endfacet
  facet normal 0 1 0
    outer loop
      vertex 132.225 2 29.3836
      vertex 140 2 21
      vertex 131.616 2 28.7752
    endloop
  endfacet
  facet normal 0 1 0
    outer loop
      vertex 132.615 2 30.1502
      vertex 140 2 21
      vertex 132.225 2 29.3836
    endloop
  endfacet
  facet normal 0 1 -0
    outer loop
      vertex 129.15 2 33.6154
      vertex 120 2 41
      vertex 130 2 33.75
    endloop
  endfacet
  facet normal 0 1 -0
    outer loop
      vertex 128.384 2 33.2248
      vertex 120 2 41
      vertex 129.15 2 33.6154
    endloop
  endfacet
  facet normal 0 1 -0
    outer loop
      vertex 127.775 2 32.6164
      vertex 120 2 41
      vertex 128.384 2 33.2248
    endloop
  endfacet
  facet normal 0 1 -0
    outer loop
      vertex 127.385 2 31.8498
      vertex 120 2 41
      vertex 127.775 2 32.6164
    endloop
  endfacet
  facet normal 0 1 -0
    outer loop
      vertex 127.25 2 31
      vertex 120 2 41
      vertex 127.385 2 31.8498
    endloop
  endfacet
  facet normal 0 1 0
    outer loop
      vertex 120 2 21
      vertex 127.25 2 31
      vertex 127.385 2 30.1502
    endloop
  endfacet
  facet normal 0 1 0
    outer loop
      vertex 120 2 21
      vertex 127.385 2 30.1502
      vertex 127.775 2 29.3836
    endloop
  endfacet
  facet normal 0 1 0
    outer loop
      vertex 120 2 21
      vertex 130 2 28.25
      vertex 140 2 21
    endloop
  endfacet
  facet normal 0 1 0
    outer loop
      vertex 130 2 28.25
      vertex 120 2 21
      vertex 129.15 2 28.3846
    endloop
  endfacet
  facet normal 0 1 0
    outer loop
      vertex 127.25 2 31
      vertex 120 2 21
      vertex 120 2 41
    endloop
  endfacet
  facet normal 0 1 0
    outer loop
      vertex 128.384 2 28.7752
      vertex 120 2 21
      vertex 127.775 2 29.3836
    endloop
  endfacet
  facet normal 0 1 0
    outer loop
      vertex 129.15 2 28.3846
      vertex 120 2 21
      vertex 128.384 2 28.7752
    endloop
  endfacet
  facet normal 0 0 -1
    outer loop
      vertex 120 0 21
      vertex 140 2 21
      vertex 140 0 21
    endloop
  endfacet
  facet normal -0 0 -1
    outer loop
      vertex 140 2 21
      vertex 120 0 21
      vertex 120 2 21
    endloop
  endfacet
  facet normal -0.987616 0 0.156893
    outer loop
      vertex 132.615 0 30.1502
      vertex 132.75 2 31
      vertex 132.615 2 30.1502
    endloop
  endfacet
  facet normal -0.987616 0 0.156893
    outer loop
      vertex 132.75 2 31
      vertex 132.615 0 30.1502
      vertex 132.75 0 31
    endloop
  endfacet
  facet normal 0.156404 0 0.987693
    outer loop
      vertex 129.15 2 28.3846
      vertex 130 0 28.25
      vertex 130 2 28.25
    endloop
  endfacet
  facet normal 0.156404 0 0.987693
    outer loop
      vertex 130 0 28.25
      vertex 129.15 2 28.3846
      vertex 129.15 0 28.3846
    endloop
  endfacet
  facet normal -0.156404 0 -0.987693
    outer loop
      vertex 130 0 33.75
      vertex 130.85 2 33.6154
      vertex 130.85 0 33.6154
    endloop
  endfacet
  facet normal -0.156404 0 -0.987693
    outer loop
      vertex 130.85 2 33.6154
      vertex 130 0 33.75
      vertex 130 2 33.75
    endloop
  endfacet
  facet normal -0.454271 0 -0.890864
    outer loop
      vertex 130.85 0 33.6154
      vertex 131.616 2 33.2248
      vertex 131.616 0 33.2248
    endloop
  endfacet
  facet normal -0.454271 0 -0.890864
    outer loop
      vertex 131.616 2 33.2248
      vertex 130.85 0 33.6154
      vertex 130.85 2 33.6154
    endloop
  endfacet
  facet normal -0.706758 0 0.707455
    outer loop
      vertex 131.616 0 28.7752
      vertex 132.225 2 29.3836
      vertex 131.616 2 28.7752
    endloop
  endfacet
  facet normal -0.706758 0 0.707455
    outer loop
      vertex 132.225 2 29.3836
      vertex 131.616 0 28.7752
      vertex 132.225 0 29.3836
    endloop
  endfacet
  facet normal -0.89129 0 0.453435
    outer loop
      vertex 132.225 0 29.3836
      vertex 132.615 2 30.1502
      vertex 132.225 2 29.3836
    endloop
  endfacet
  facet normal -0.89129 0 0.453435
    outer loop
      vertex 132.615 2 30.1502
      vertex 132.225 0 29.3836
      vertex 132.615 0 30.1502
    endloop
  endfacet
  facet normal -0.454271 0 0.890864
    outer loop
      vertex 130.85 2 28.3846
      vertex 131.616 0 28.7752
      vertex 131.616 2 28.7752
    endloop
  endfacet
  facet normal -0.454271 0 0.890864
    outer loop
      vertex 131.616 0 28.7752
      vertex 130.85 2 28.3846
      vertex 130.85 0 28.3846
    endloop
  endfacet
  facet normal 0.706758 0 0.707455
    outer loop
      vertex 127.775 2 29.3836
      vertex 128.384 0 28.7752
      vertex 128.384 2 28.7752
    endloop
  endfacet
  facet normal 0.706758 0 0.707455
    outer loop
      vertex 128.384 0 28.7752
      vertex 127.775 2 29.3836
      vertex 127.775 0 29.3836
    endloop
  endfacet
  facet normal 0.89129 -0 0.453435
    outer loop
      vertex 127.385 0 30.1502
      vertex 127.775 2 29.3836
      vertex 127.385 2 30.1502
    endloop
  endfacet
  facet normal 0.89129 0 0.453435
    outer loop
      vertex 127.775 2 29.3836
      vertex 127.385 0 30.1502
      vertex 127.775 0 29.3836
    endloop
  endfacet
  facet normal 0.454271 0 0.890864
    outer loop
      vertex 128.384 2 28.7752
      vertex 129.15 0 28.3846
      vertex 129.15 2 28.3846
    endloop
  endfacet
  facet normal 0.454271 0 0.890864
    outer loop
      vertex 129.15 0 28.3846
      vertex 128.384 2 28.7752
      vertex 128.384 0 28.7752
    endloop
  endfacet
  facet normal -0.156404 0 0.987693
    outer loop
      vertex 130 2 28.25
      vertex 130.85 0 28.3846
      vertex 130.85 2 28.3846
    endloop
  endfacet
  facet normal -0.156404 0 0.987693
    outer loop
      vertex 130.85 0 28.3846
      vertex 130 2 28.25
      vertex 130 0 28.25
    endloop
  endfacet
  facet normal 0.987616 -0 0.156893
    outer loop
      vertex 127.25 0 31
      vertex 127.385 2 30.1502
      vertex 127.25 2 31
    endloop
  endfacet
  facet normal 0.987616 0 0.156893
    outer loop
      vertex 127.385 2 30.1502
      vertex 127.25 0 31
      vertex 127.385 0 30.1502
    endloop
  endfacet
  facet normal -0.706758 0 -0.707455
    outer loop
      vertex 132.225 0 32.6164
      vertex 131.616 2 33.2248
      vertex 132.225 2 32.6164
    endloop
  endfacet
  facet normal -0.706758 -0 -0.707455
    outer loop
      vertex 131.616 2 33.2248
      vertex 132.225 0 32.6164
      vertex 131.616 0 33.2248
    endloop
  endfacet
  facet normal -0.89129 0 -0.453435
    outer loop
      vertex 132.615 0 31.8498
      vertex 132.225 2 32.6164
      vertex 132.615 2 31.8498
    endloop
  endfacet
  facet normal -0.89129 -0 -0.453435
    outer loop
      vertex 132.225 2 32.6164
      vertex 132.615 0 31.8498
      vertex 132.225 0 32.6164
    endloop
  endfacet
  facet normal 0.987616 0 -0.156893
    outer loop
      vertex 127.385 0 31.8498
      vertex 127.25 2 31
      vertex 127.385 2 31.8498
    endloop
  endfacet
  facet normal 0.987616 0 -0.156893
    outer loop
      vertex 127.25 2 31
      vertex 127.385 0 31.8498
      vertex 127.25 0 31
    endloop
  endfacet
  facet normal 0.706758 0 -0.707455
    outer loop
      vertex 127.775 0 32.6164
      vertex 128.384 2 33.2248
      vertex 128.384 0 33.2248
    endloop
  endfacet
  facet normal 0.706758 0 -0.707455
    outer loop
      vertex 128.384 2 33.2248
      vertex 127.775 0 32.6164
      vertex 127.775 2 32.6164
    endloop
  endfacet
  facet normal 0.89129 0 -0.453435
    outer loop
      vertex 127.775 0 32.6164
      vertex 127.385 2 31.8498
      vertex 127.775 2 32.6164
    endloop
  endfacet
  facet normal 0.89129 0 -0.453435
    outer loop
      vertex 127.385 2 31.8498
      vertex 127.775 0 32.6164
      vertex 127.385 0 31.8498
    endloop
  endfacet
  facet normal -0.987616 0 -0.156893
    outer loop
      vertex 132.75 0 31
      vertex 132.615 2 31.8498
      vertex 132.75 2 31
    endloop
  endfacet
  facet normal -0.987616 -0 -0.156893
    outer loop
      vertex 132.615 2 31.8498
      vertex 132.75 0 31
      vertex 132.615 0 31.8498
    endloop
  endfacet
  facet normal 0.156404 0 -0.987693
    outer loop
      vertex 129.15 0 33.6154
      vertex 130 2 33.75
      vertex 130 0 33.75
    endloop
  endfacet
  facet normal 0.156404 0 -0.987693
    outer loop
      vertex 130 2 33.75
      vertex 129.15 0 33.6154
      vertex 129.15 2 33.6154
    endloop
  endfacet
  facet normal 0.454271 0 -0.890864
    outer loop
      vertex 128.384 0 33.2248
      vertex 129.15 2 33.6154
      vertex 129.15 0 33.6154
    endloop
  endfacet
  facet normal 0.454271 0 -0.890864
    outer loop
      vertex 129.15 2 33.6154
      vertex 128.384 0 33.2248
      vertex 128.384 2 33.2248
    endloop
  endfacet
  facet normal -1 0 0
    outer loop
      vertex 0 55 0
      vertex 0 41.65 37.5
      vertex 0 55 62
    endloop
  endfacet
  facet normal -1 0 0
    outer loop
      vertex 0 55 0
      vertex 0 13.35 37.5
      vertex 0 41.65 37.5
    endloop
  endfacet
  facet normal -1 0 0
    outer loop
      vertex 0 0 62
      vertex 0 13.35 37.5
      vertex 0 0 0
    endloop
  endfacet
  facet normal -1 0 0
    outer loop
      vertex 0 0 0
      vertex 0 13.35 37.5
      vertex 0 55 0
    endloop
  endfacet
  facet normal -1 0 0
    outer loop
      vertex 0 41.65 56
      vertex 0 55 62
      vertex 0 41.65 37.5
    endloop
  endfacet
  facet normal -1 0 0
    outer loop
      vertex 0 13.35 56
      vertex 0 55 62
      vertex 0 41.65 56
    endloop
  endfacet
  facet normal -1 0 0
    outer loop
      vertex 0 13.35 56
      vertex 0 0 62
      vertex 0 55 62
    endloop
  endfacet
  facet normal -1 0 0
    outer loop
      vertex 0 13.35 37.5
      vertex 0 0 62
      vertex 0 13.35 56
    endloop
  endfacet
  facet normal 0 1 0
    outer loop
      vertex 120 55 62
      vertex 45 55 58
      vertex 0 55 62
    endloop
  endfacet
  facet normal 0 1 0
    outer loop
      vertex 120 55 62
      vertex 45 55 43
      vertex 45 55 58
    endloop
  endfacet
  facet normal 0 1 0
    outer loop
      vertex 0 55 0
      vertex 45 55 43
      vertex 120 55 0
    endloop
  endfacet
  facet normal 0 1 -0
    outer loop
      vertex 120 55 0
      vertex 45 55 43
      vertex 120 55 62
    endloop
  endfacet
  facet normal 0 1 -0
    outer loop
      vertex 30 55 58
      vertex 0 55 62
      vertex 45 55 58
    endloop
  endfacet
  facet normal 0 1 -0
    outer loop
      vertex 30 55 43
      vertex 0 55 62
      vertex 30 55 58
    endloop
  endfacet
  facet normal 0 1 0
    outer loop
      vertex 30 55 43
      vertex 0 55 0
      vertex 0 55 62
    endloop
  endfacet
  facet normal 0 1 0
    outer loop
      vertex 45 55 43
      vertex 0 55 0
      vertex 30 55 43
    endloop
  endfacet
  facet normal 1 -0 0
    outer loop
      vertex 2 13.35 37.5
      vertex 2 24.5 17
      vertex 2 41.65 37.5
    endloop
  endfacet
  facet normal 1 0 0
    outer loop
      vertex 2 24.5 17
      vertex 2 13.35 37.5
      vertex 2 4.5 17
    endloop
  endfacet
  facet normal 1 0 0
    outer loop
      vertex 2 41.65 37.5
      vertex 2 53 60
      vertex 2 41.65 56
    endloop
  endfacet
  facet normal 1 0 0
    outer loop
      vertex 2 53 60
      vertex 2 13.35 56
      vertex 2 41.65 56
    endloop
  endfacet
  facet normal 1 0 0
    outer loop
      vertex 2 2 60
      vertex 2 13.35 37.5
      vertex 2 13.35 56
    endloop
  endfacet
  facet normal 1 0 0
    outer loop
      vertex 2 2 0
      vertex 2 4.5 17
      vertex 2 2 60
    endloop
  endfacet
  facet normal 1 0 0
    outer loop
      vertex 2 13.35 37.5
      vertex 2 2 60
      vertex 2 4.5 17
    endloop
  endfacet
  facet normal 1 -0 0
    outer loop
      vertex 2 2 60
      vertex 2 13.35 56
      vertex 2 53 60
    endloop
  endfacet
  facet normal 1 0 0
    outer loop
      vertex 2 53 60
      vertex 2 41.65 37.5
      vertex 2 53 0
    endloop
  endfacet
  facet normal 1 -0 0
    outer loop
      vertex 2 24.5 17
      vertex 2 53 0
      vertex 2 41.65 37.5
    endloop
  endfacet
  facet normal 1 -0 0
    outer loop
      vertex 2 24.5 15
      vertex 2 53 0
      vertex 2 24.5 17
    endloop
  endfacet
  facet normal 1 0 0
    outer loop
      vertex 2 2 0
      vertex 2 24.5 15
      vertex 2 4.5 15
    endloop
  endfacet
  facet normal 1 0 0
    outer loop
      vertex 2 24.5 15
      vertex 2 2 0
      vertex 2 53 0
    endloop
  endfacet
  facet normal 1 0 0
    outer loop
      vertex 2 4.5 17
      vertex 2 2 0
      vertex 2 4.5 15
    endloop
  endfacet
  facet normal 0 0 -1
    outer loop
      vertex 118 2 60
      vertex 115.6 30.4 60
      vertex 118 53 60
    endloop
  endfacet
  facet normal 0 0 -1
    outer loop
      vertex 115 20 60
      vertex 118 2 60
      vertex 115 5 60
    endloop
  endfacet
  facet normal 0 0 -1
    outer loop
      vertex 118 2 60
      vertex 5 5 60
      vertex 115 5 60
    endloop
  endfacet
  facet normal -0 0 -1
    outer loop
      vertex 5 5 60
      vertex 2 2 60
      vertex 5 20 60
    endloop
  endfacet
  facet normal 0 0 -1
    outer loop
      vertex 2 2 60
      vertex 5 5 60
      vertex 118 2 60
    endloop
  endfacet
  facet normal 0 0 -1
    outer loop
      vertex 115.6 44.6 60
      vertex 118 53 60
      vertex 115.6 30.4 60
    endloop
  endfacet
  facet normal 0 0 -1
    outer loop
      vertex 106 44.6 60
      vertex 118 53 60
      vertex 115.6 44.6 60
    endloop
  endfacet
  facet normal 0 0 -1
    outer loop
      vertex 98.5806 39.1113 60
      vertex 106 44.6 60
      vertex 98.75 37.5 60
    endloop
  endfacet
  facet normal 0 0 -1
    outer loop
      vertex 98.08 40.6522 60
      vertex 106 44.6 60
      vertex 98.5806 39.1113 60
    endloop
  endfacet
  facet normal 0 0 -1
    outer loop
      vertex 97.2699 42.0553 60
      vertex 106 44.6 60
      vertex 98.08 40.6522 60
    endloop
  endfacet
  facet normal 0 0 -1
    outer loop
      vertex 96.1858 43.2594 60
      vertex 106 44.6 60
      vertex 97.2699 42.0553 60
    endloop
  endfacet
  facet normal 0 0 -1
    outer loop
      vertex 94.875 44.2117 60
      vertex 106 44.6 60
      vertex 96.1858 43.2594 60
    endloop
  endfacet
  facet normal 0 0 -1
    outer loop
      vertex 93.3949 44.8707 60
      vertex 106 44.6 60
      vertex 94.875 44.2117 60
    endloop
  endfacet
  facet normal 0 0 -1
    outer loop
      vertex 106 44.6 60
      vertex 93.3949 44.8707 60
      vertex 118 53 60
    endloop
  endfacet
  facet normal 0 0 -1
    outer loop
      vertex 91.8101 45.2075 60
      vertex 118 53 60
      vertex 93.3949 44.8707 60
    endloop
  endfacet
  facet normal 0 0 -1
    outer loop
      vertex 90.1899 45.2075 60
      vertex 118 53 60
      vertex 91.8101 45.2075 60
    endloop
  endfacet
  facet normal 0 0 -1
    outer loop
      vertex 2 53 60
      vertex 90.1899 45.2075 60
      vertex 88.6051 44.8707 60
    endloop
  endfacet
  facet normal 0 0 -1
    outer loop
      vertex 2 53 60
      vertex 83.25 37.5 60
      vertex 5 20 60
    endloop
  endfacet
  facet normal 0 0 -1
    outer loop
      vertex 83.25 37.5 60
      vertex 2 53 60
      vertex 83.4194 39.1113 60
    endloop
  endfacet
  facet normal 0 0 -1
    outer loop
      vertex 83.4194 39.1113 60
      vertex 2 53 60
      vertex 83.92 40.6522 60
    endloop
  endfacet
  facet normal 0 0 -1
    outer loop
      vertex 83.92 40.6522 60
      vertex 2 53 60
      vertex 84.7301 42.0553 60
    endloop
  endfacet
  facet normal 0 0 -1
    outer loop
      vertex 84.7301 42.0553 60
      vertex 2 53 60
      vertex 85.8142 43.2594 60
    endloop
  endfacet
  facet normal 0 0 -1
    outer loop
      vertex 85.8142 43.2594 60
      vertex 2 53 60
      vertex 87.125 44.2117 60
    endloop
  endfacet
  facet normal 0 0 -1
    outer loop
      vertex 90.1899 45.2075 60
      vertex 2 53 60
      vertex 118 53 60
    endloop
  endfacet
  facet normal 0 0 -1
    outer loop
      vertex 87.125 44.2117 60
      vertex 2 53 60
      vertex 88.6051 44.8707 60
    endloop
  endfacet
  facet normal 0 0 -1
    outer loop
      vertex 2 53 60
      vertex 5 20 60
      vertex 2 2 60
    endloop
  endfacet
  facet normal 0 0 -1
    outer loop
      vertex 118 2 60
      vertex 115 20 60
      vertex 115.6 30.4 60
    endloop
  endfacet
  facet normal 0 0 -1
    outer loop
      vertex 115 20 60
      vertex 106 30.4 60
      vertex 115.6 30.4 60
    endloop
  endfacet
  facet normal 0 0 -1
    outer loop
      vertex 106 30.4 60
      vertex 98.75 37.5 60
      vertex 106 44.6 60
    endloop
  endfacet
  facet normal 0 0 -1
    outer loop
      vertex 93.3949 30.1293 60
      vertex 106 30.4 60
      vertex 115 20 60
    endloop
  endfacet
  facet normal 0 0 -1
    outer loop
      vertex 106 30.4 60
      vertex 98.5806 35.8887 60
      vertex 98.75 37.5 60
    endloop
  endfacet
  facet normal 0 0 -1
    outer loop
      vertex 106 30.4 60
      vertex 98.08 34.3478 60
      vertex 98.5806 35.8887 60
    endloop
  endfacet
  facet normal 0 0 -1
    outer loop
      vertex 106 30.4 60
      vertex 97.2699 32.9447 60
      vertex 98.08 34.3478 60
    endloop
  endfacet
  facet normal 0 0 -1
    outer loop
      vertex 106 30.4 60
      vertex 96.1858 31.7406 60
      vertex 97.2699 32.9447 60
    endloop
  endfacet
  facet normal 0 0 -1
    outer loop
      vertex 106 30.4 60
      vertex 94.875 30.7883 60
      vertex 96.1858 31.7406 60
    endloop
  endfacet
  facet normal -0 0 -1
    outer loop
      vertex 106 30.4 60
      vertex 93.3949 30.1293 60
      vertex 94.875 30.7883 60
    endloop
  endfacet
  facet normal 0 0 -1
    outer loop
      vertex 115 20 60
      vertex 91.8101 29.7925 60
      vertex 93.3949 30.1293 60
    endloop
  endfacet
  facet normal 0 0 -1
    outer loop
      vertex 115 20 60
      vertex 90.1899 29.7925 60
      vertex 91.8101 29.7925 60
    endloop
  endfacet
  facet normal 0 0 -1
    outer loop
      vertex 115 20 60
      vertex 88.6051 30.1293 60
      vertex 90.1899 29.7925 60
    endloop
  endfacet
  facet normal -0 0 -1
    outer loop
      vertex 83.4194 35.8887 60
      vertex 5 20 60
      vertex 83.25 37.5 60
    endloop
  endfacet
  facet normal -0 0 -1
    outer loop
      vertex 83.92 34.3478 60
      vertex 5 20 60
      vertex 83.4194 35.8887 60
    endloop
  endfacet
  facet normal -0 0 -1
    outer loop
      vertex 84.7301 32.9447 60
      vertex 5 20 60
      vertex 83.92 34.3478 60
    endloop
  endfacet
  facet normal -0 0 -1
    outer loop
      vertex 85.8142 31.7406 60
      vertex 5 20 60
      vertex 84.7301 32.9447 60
    endloop
  endfacet
  facet normal -0 0 -1
    outer loop
      vertex 87.125 30.7883 60
      vertex 5 20 60
      vertex 85.8142 31.7406 60
    endloop
  endfacet
  facet normal -0 0 -1
    outer loop
      vertex 88.6051 30.1293 60
      vertex 5 20 60
      vertex 87.125 30.7883 60
    endloop
  endfacet
  facet normal 0 0 -1
    outer loop
      vertex 5 20 60
      vertex 88.6051 30.1293 60
      vertex 115 20 60
    endloop
  endfacet
  facet normal -1 0 0
    outer loop
      vertex 118 50.5 17
      vertex 118 53 0
      vertex 118 50.5 15
    endloop
  endfacet
  facet normal -1 0 0
    outer loop
      vertex 118 53 0
      vertex 118 30.5 15
      vertex 118 50.5 15
    endloop
  endfacet
  facet normal -1 -0 0
    outer loop
      vertex 118 30.5 15
      vertex 118 2 0
      vertex 118 30.5 17
    endloop
  endfacet
  facet normal -1 0 0
    outer loop
      vertex 118 2 0
      vertex 118 30.5 15
      vertex 118 53 0
    endloop
  endfacet
  facet normal -1 0 0
    outer loop
      vertex 118 53 0
      vertex 118 50.5 17
      vertex 118 53 60
    endloop
  endfacet
  facet normal -1 0 0
    outer loop
      vertex 118 30.5 17
      vertex 118 53 60
      vertex 118 50.5 17
    endloop
  endfacet
  facet normal -1 0 0
    outer loop
      vertex 118 2 60
      vertex 118 30.5 17
      vertex 118 2 0
    endloop
  endfacet
  facet normal -1 0 0
    outer loop
      vertex 118 30.5 17
      vertex 118 2 60
      vertex 118 53 60
    endloop
  endfacet
  facet normal 0 -1 0
    outer loop
      vertex 45 53 58
      vertex 2 53 60
      vertex 30 53 58
    endloop
  endfacet
  facet normal 0 -1 0
    outer loop
      vertex 2 53 60
      vertex 30 53 43
      vertex 30 53 58
    endloop
  endfacet
  facet normal 0 -1 -0
    outer loop
      vertex 30 53 43
      vertex 2 53 0
      vertex 45 53 43
    endloop
  endfacet
  facet normal 0 -1 0
    outer loop
      vertex 2 53 0
      vertex 30 53 43
      vertex 2 53 60
    endloop
  endfacet
  facet normal 0 -1 0
    outer loop
      vertex 2 53 60
      vertex 45 53 58
      vertex 118 53 60
    endloop
  endfacet
  facet normal 0 -1 0
    outer loop
      vertex 45 53 43
      vertex 118 53 60
      vertex 45 53 58
    endloop
  endfacet
  facet normal 0 -1 0
    outer loop
      vertex 118 53 0
      vertex 45 53 43
      vertex 2 53 0
    endloop
  endfacet
  facet normal 0 -1 0
    outer loop
      vertex 45 53 43
      vertex 118 53 0
      vertex 118 53 60
    endloop
  endfacet
  facet normal 0 1 -0
    outer loop
      vertex 118 2 0
      vertex 2 2 60
      vertex 118 2 60
    endloop
  endfacet
  facet normal 0 1 0
    outer loop
      vertex 2 2 60
      vertex 118 2 0
      vertex 2 2 0
    endloop
  endfacet
  facet normal 0 0 -1
    outer loop
      vertex 0 13.35 56
      vertex 2 41.65 56
      vertex 2 13.35 56
    endloop
  endfacet
  facet normal -0 0 -1
    outer loop
      vertex 2 41.65 56
      vertex 0 13.35 56
      vertex 0 41.65 56
    endloop
  endfacet
  facet normal 0 -1 0
    outer loop
      vertex 0 41.65 37.5
      vertex 2 41.65 56
      vertex 0 41.65 56
    endloop
  endfacet
  facet normal 0 -1 -0
    outer loop
      vertex 2 41.65 56
      vertex 0 41.65 37.5
      vertex 2 41.65 37.5
    endloop
  endfacet
  facet normal -0 0 1
    outer loop
      vertex 0 41.65 37.5
      vertex 2 13.35 37.5
      vertex 2 41.65 37.5
    endloop
  endfacet
  facet normal 0 0 1
    outer loop
      vertex 2 13.35 37.5
      vertex 0 41.65 37.5
      vertex 0 13.35 37.5
    endloop
  endfacet
  facet normal 0 1 -0
    outer loop
      vertex 2 13.35 37.5
      vertex 0 13.35 56
      vertex 2 13.35 56
    endloop
  endfacet
  facet normal 0 1 0
    outer loop
      vertex 0 13.35 56
      vertex 2 13.35 37.5
      vertex 0 13.35 37.5
    endloop
  endfacet
  facet normal -0.994519 -0.104556 0
    outer loop
      vertex 98.75 37.5 60
      vertex 98.5806 39.1113 62
      vertex 98.5806 39.1113 60
    endloop
  endfacet
  facet normal -0.994519 -0.104556 0
    outer loop
      vertex 98.5806 39.1113 62
      vertex 98.75 37.5 60
      vertex 98.75 37.5 62
    endloop
  endfacet
  facet normal 0 -1 0
    outer loop
      vertex 90.1899 45.2075 60
      vertex 91.8101 45.2075 62
      vertex 90.1899 45.2075 62
    endloop
  endfacet
  facet normal 0 -1 -0
    outer loop
      vertex 91.8101 45.2075 62
      vertex 90.1899 45.2075 60
      vertex 91.8101 45.2075 60
    endloop
  endfacet
  facet normal -0.587764 -0.809032 0
    outer loop
      vertex 94.875 44.2117 60
      vertex 96.1858 43.2594 62
      vertex 94.875 44.2117 62
    endloop
  endfacet
  facet normal -0.587764 -0.809032 -0
    outer loop
      vertex 96.1858 43.2594 62
      vertex 94.875 44.2117 60
      vertex 96.1858 43.2594 60
    endloop
  endfacet
  facet normal 0.743168 -0.669105 0
    outer loop
      vertex 84.7301 42.0553 62
      vertex 85.8142 43.2594 60
      vertex 85.8142 43.2594 62
    endloop
  endfacet
  facet normal 0.743168 -0.669105 0
    outer loop
      vertex 85.8142 43.2594 60
      vertex 84.7301 42.0553 62
      vertex 84.7301 42.0553 60
    endloop
  endfacet
  facet normal 0.406745 -0.913542 0
    outer loop
      vertex 87.125 44.2117 60
      vertex 88.6051 44.8707 62
      vertex 87.125 44.2117 62
    endloop
  endfacet
  facet normal 0.406745 -0.913542 0
    outer loop
      vertex 88.6051 44.8707 62
      vertex 87.125 44.2117 60
      vertex 88.6051 44.8707 60
    endloop
  endfacet
  facet normal -0.86602 -0.500009 0
    outer loop
      vertex 98.08 40.6522 60
      vertex 97.2699 42.0553 62
      vertex 97.2699 42.0553 60
    endloop
  endfacet
  facet normal -0.86602 -0.500009 0
    outer loop
      vertex 97.2699 42.0553 62
      vertex 98.08 40.6522 60
      vertex 98.08 40.6522 62
    endloop
  endfacet
  facet normal -0.951069 -0.308979 0
    outer loop
      vertex 98.5806 39.1113 60
      vertex 98.08 40.6522 62
      vertex 98.08 40.6522 60
    endloop
  endfacet
  facet normal -0.951069 -0.308979 0
    outer loop
      vertex 98.08 40.6522 62
      vertex 98.5806 39.1113 60
      vertex 98.5806 39.1113 62
    endloop
  endfacet
  facet normal -0.743168 -0.669105 0
    outer loop
      vertex 97.2699 42.0553 60
      vertex 96.1858 43.2594 62
      vertex 96.1858 43.2594 60
    endloop
  endfacet
  facet normal -0.743168 -0.669105 0
    outer loop
      vertex 96.1858 43.2594 62
      vertex 97.2699 42.0553 60
      vertex 97.2699 42.0553 62
    endloop
  endfacet
  facet normal -0.207876 -0.978155 0
    outer loop
      vertex 91.8101 45.2075 60
      vertex 93.3949 44.8707 62
      vertex 91.8101 45.2075 62
    endloop
  endfacet
  facet normal -0.207876 -0.978155 -0
    outer loop
      vertex 93.3949 44.8707 62
      vertex 91.8101 45.2075 60
      vertex 93.3949 44.8707 60
    endloop
  endfacet
  facet normal -0.406745 -0.913542 0
    outer loop
      vertex 93.3949 44.8707 60
      vertex 94.875 44.2117 62
      vertex 93.3949 44.8707 62
    endloop
  endfacet
  facet normal -0.406745 -0.913542 -0
    outer loop
      vertex 94.875 44.2117 62
      vertex 93.3949 44.8707 60
      vertex 94.875 44.2117 60
    endloop
  endfacet
  facet normal 0.951069 -0.308979 0
    outer loop
      vertex 83.4194 39.1113 62
      vertex 83.92 40.6522 60
      vertex 83.92 40.6522 62
    endloop
  endfacet
  facet normal 0.951069 -0.308979 0
    outer loop
      vertex 83.92 40.6522 60
      vertex 83.4194 39.1113 62
      vertex 83.4194 39.1113 60
    endloop
  endfacet
  facet normal 0.86602 -0.500009 0
    outer loop
      vertex 83.92 40.6522 62
      vertex 84.7301 42.0553 60
      vertex 84.7301 42.0553 62
    endloop
  endfacet
  facet normal 0.86602 -0.500009 0
    outer loop
      vertex 84.7301 42.0553 60
      vertex 83.92 40.6522 62
      vertex 83.92 40.6522 60
    endloop
  endfacet
  facet normal 0.994519 -0.104556 0
    outer loop
      vertex 83.25 37.5 62
      vertex 83.4194 39.1113 60
      vertex 83.4194 39.1113 62
    endloop
  endfacet
  facet normal 0.994519 -0.104556 0
    outer loop
      vertex 83.4194 39.1113 60
      vertex 83.25 37.5 62
      vertex 83.25 37.5 60
    endloop
  endfacet
  facet normal 0.587764 -0.809032 0
    outer loop
      vertex 85.8142 43.2594 60
      vertex 87.125 44.2117 62
      vertex 85.8142 43.2594 62
    endloop
  endfacet
  facet normal 0.587764 -0.809032 0
    outer loop
      vertex 87.125 44.2117 62
      vertex 85.8142 43.2594 60
      vertex 87.125 44.2117 60
    endloop
  endfacet
  facet normal 0.207876 -0.978155 0
    outer loop
      vertex 88.6051 44.8707 60
      vertex 90.1899 45.2075 62
      vertex 88.6051 44.8707 62
    endloop
  endfacet
  facet normal 0.207876 -0.978155 0
    outer loop
      vertex 90.1899 45.2075 62
      vertex 88.6051 44.8707 60
      vertex 90.1899 45.2075 60
    endloop
  endfacet
  facet normal -0.207876 0.978155 0
    outer loop
      vertex 93.3949 30.1293 60
      vertex 91.8101 29.7925 62
      vertex 93.3949 30.1293 62
    endloop
  endfacet
  facet normal -0.207876 0.978155 0
    outer loop
      vertex 91.8101 29.7925 62
      vertex 93.3949 30.1293 60
      vertex 91.8101 29.7925 60
    endloop
  endfacet
  facet normal -0.587764 0.809032 0
    outer loop
      vertex 96.1858 31.7406 60
      vertex 94.875 30.7883 62
      vertex 96.1858 31.7406 62
    endloop
  endfacet
  facet normal -0.587764 0.809032 0
    outer loop
      vertex 94.875 30.7883 62
      vertex 96.1858 31.7406 60
      vertex 94.875 30.7883 60
    endloop
  endfacet
  facet normal 0.406745 0.913542 -0
    outer loop
      vertex 88.6051 30.1293 60
      vertex 87.125 30.7883 62
      vertex 88.6051 30.1293 62
    endloop
  endfacet
  facet normal 0.406745 0.913542 0
    outer loop
      vertex 87.125 30.7883 62
      vertex 88.6051 30.1293 60
      vertex 87.125 30.7883 60
    endloop
  endfacet
  facet normal 0 1 -0
    outer loop
      vertex 91.8101 29.7925 60
      vertex 90.1899 29.7925 62
      vertex 91.8101 29.7925 62
    endloop
  endfacet
  facet normal 0 1 0
    outer loop
      vertex 90.1899 29.7925 62
      vertex 91.8101 29.7925 60
      vertex 90.1899 29.7925 60
    endloop
  endfacet
  facet normal 0.743168 0.669105 0
    outer loop
      vertex 85.8142 31.7406 62
      vertex 84.7301 32.9447 60
      vertex 84.7301 32.9447 62
    endloop
  endfacet
  facet normal 0.743168 0.669105 0
    outer loop
      vertex 84.7301 32.9447 60
      vertex 85.8142 31.7406 62
      vertex 85.8142 31.7406 60
    endloop
  endfacet
  facet normal 0.951069 0.308979 0
    outer loop
      vertex 83.92 34.3478 62
      vertex 83.4194 35.8887 60
      vertex 83.4194 35.8887 62
    endloop
  endfacet
  facet normal 0.951069 0.308979 0
    outer loop
      vertex 83.4194 35.8887 60
      vertex 83.92 34.3478 62
      vertex 83.92 34.3478 60
    endloop
  endfacet
  facet normal 0.994519 0.104556 0
    outer loop
      vertex 83.4194 35.8887 62
      vertex 83.25 37.5 60
      vertex 83.25 37.5 62
    endloop
  endfacet
  facet normal 0.994519 0.104556 0
    outer loop
      vertex 83.25 37.5 60
      vertex 83.4194 35.8887 62
      vertex 83.4194 35.8887 60
    endloop
  endfacet
  facet normal -0.406745 0.913542 0
    outer loop
      vertex 94.875 30.7883 60
      vertex 93.3949 30.1293 62
      vertex 94.875 30.7883 62
    endloop
  endfacet
  facet normal -0.406745 0.913542 0
    outer loop
      vertex 93.3949 30.1293 62
      vertex 94.875 30.7883 60
      vertex 93.3949 30.1293 60
    endloop
  endfacet
  facet normal -0.743168 0.669105 0
    outer loop
      vertex 96.1858 31.7406 60
      vertex 97.2699 32.9447 62
      vertex 97.2699 32.9447 60
    endloop
  endfacet
  facet normal -0.743168 0.669105 0
    outer loop
      vertex 97.2699 32.9447 62
      vertex 96.1858 31.7406 60
      vertex 96.1858 31.7406 62
    endloop
  endfacet
  facet normal -0.951069 0.308979 0
    outer loop
      vertex 98.08 34.3478 60
      vertex 98.5806 35.8887 62
      vertex 98.5806 35.8887 60
    endloop
  endfacet
  facet normal -0.951069 0.308979 0
    outer loop
      vertex 98.5806 35.8887 62
      vertex 98.08 34.3478 60
      vertex 98.08 34.3478 62
    endloop
  endfacet
  facet normal -0.86602 0.500009 0
    outer loop
      vertex 97.2699 32.9447 60
      vertex 98.08 34.3478 62
      vertex 98.08 34.3478 60
    endloop
  endfacet
  facet normal -0.86602 0.500009 0
    outer loop
      vertex 98.08 34.3478 62
      vertex 97.2699 32.9447 60
      vertex 97.2699 32.9447 62
    endloop
  endfacet
  facet normal -0.994519 0.104556 0
    outer loop
      vertex 98.5806 35.8887 60
      vertex 98.75 37.5 62
      vertex 98.75 37.5 60
    endloop
  endfacet
  facet normal -0.994519 0.104556 0
    outer loop
      vertex 98.75 37.5 62
      vertex 98.5806 35.8887 60
      vertex 98.5806 35.8887 62
    endloop
  endfacet
  facet normal 0.207876 0.978155 -0
    outer loop
      vertex 90.1899 29.7925 60
      vertex 88.6051 30.1293 62
      vertex 90.1899 29.7925 62
    endloop
  endfacet
  facet normal 0.207876 0.978155 0
    outer loop
      vertex 88.6051 30.1293 62
      vertex 90.1899 29.7925 60
      vertex 88.6051 30.1293 60
    endloop
  endfacet
  facet normal 0.587764 0.809032 -0
    outer loop
      vertex 87.125 30.7883 60
      vertex 85.8142 31.7406 62
      vertex 87.125 30.7883 62
    endloop
  endfacet
  facet normal 0.587764 0.809032 0
    outer loop
      vertex 85.8142 31.7406 62
      vertex 87.125 30.7883 60
      vertex 85.8142 31.7406 60
    endloop
  endfacet
  facet normal 0.86602 0.500009 0
    outer loop
      vertex 84.7301 32.9447 62
      vertex 83.92 34.3478 60
      vertex 83.92 34.3478 62
    endloop
  endfacet
  facet normal 0.86602 0.500009 0
    outer loop
      vertex 83.92 34.3478 60
      vertex 84.7301 32.9447 62
      vertex 84.7301 32.9447 60
    endloop
  endfacet
  facet normal 1 -0 0
    outer loop
      vertex 106 30.4 62
      vertex 106 44.6 60
      vertex 106 44.6 62
    endloop
  endfacet
  facet normal 1 0 0
    outer loop
      vertex 106 44.6 60
      vertex 106 30.4 62
      vertex 106 30.4 60
    endloop
  endfacet
  facet normal -1 0 0
    outer loop
      vertex 115.6 30.4 60
      vertex 115.6 44.6 62
      vertex 115.6 44.6 60
    endloop
  endfacet
  facet normal -1 -0 0
    outer loop
      vertex 115.6 44.6 62
      vertex 115.6 30.4 60
      vertex 115.6 30.4 62
    endloop
  endfacet
  facet normal 0 1 -0
    outer loop
      vertex 115.6 30.4 60
      vertex 106 30.4 62
      vertex 115.6 30.4 62
    endloop
  endfacet
  facet normal 0 1 0
    outer loop
      vertex 106 30.4 62
      vertex 115.6 30.4 60
      vertex 106 30.4 60
    endloop
  endfacet
  facet normal 0 -1 0
    outer loop
      vertex 106 44.6 60
      vertex 115.6 44.6 62
      vertex 106 44.6 62
    endloop
  endfacet
  facet normal 0 -1 -0
    outer loop
      vertex 115.6 44.6 62
      vertex 106 44.6 60
      vertex 115.6 44.6 60
    endloop
  endfacet
  facet normal 1 -0 0
    outer loop
      vertex 30 53 58
      vertex 30 55 43
      vertex 30 55 58
    endloop
  endfacet
  facet normal 1 0 0
    outer loop
      vertex 30 55 43
      vertex 30 53 58
      vertex 30 53 43
    endloop
  endfacet
  facet normal 0 0 -1
    outer loop
      vertex 30 53 58
      vertex 45 55 58
      vertex 45 53 58
    endloop
  endfacet
  facet normal -0 0 -1
    outer loop
      vertex 45 55 58
      vertex 30 53 58
      vertex 30 55 58
    endloop
  endfacet
  facet normal -1 0 0
    outer loop
      vertex 45 53 43
      vertex 45 55 58
      vertex 45 55 43
    endloop
  endfacet
  facet normal -1 -0 0
    outer loop
      vertex 45 55 58
      vertex 45 53 43
      vertex 45 53 58
    endloop
  endfacet
  facet normal -0 0 1
    outer loop
      vertex 30 55 43
      vertex 45 53 43
      vertex 45 55 43
    endloop
  endfacet
  facet normal 0 0 1
    outer loop
      vertex 45 53 43
      vertex 30 55 43
      vertex 30 53 43
    endloop
  endfacet
  facet normal 1 -0 0
    outer loop
      vertex 5 5 62
      vertex 5 20 60
      vertex 5 20 62
    endloop
  endfacet
  facet normal 1 0 0
    outer loop
      vertex 5 20 60
      vertex 5 5 62
      vertex 5 5 60
    endloop
  endfacet
  facet normal -1 0 0
    outer loop
      vertex 115 5 60
      vertex 115 20 62
      vertex 115 20 60
    endloop
  endfacet
  facet normal -1 -0 0
    outer loop
      vertex 115 20 62
      vertex 115 5 60
      vertex 115 5 62
    endloop
  endfacet
  facet normal 0 -1 0
    outer loop
      vertex 5 20 60
      vertex 115 20 62
      vertex 5 20 62
    endloop
  endfacet
  facet normal 0 -1 -0
    outer loop
      vertex 115 20 62
      vertex 5 20 60
      vertex 115 20 60
    endloop
  endfacet
  facet normal 0 1 -0
    outer loop
      vertex 115 5 60
      vertex 5 5 62
      vertex 115 5 62
    endloop
  endfacet
  facet normal 0 1 0
    outer loop
      vertex 5 5 62
      vertex 115 5 60
      vertex 5 5 60
    endloop
  endfacet
  facet normal -0 0 1
    outer loop
      vertex 2 24.5 17
      vertex 12 4.5 17
      vertex 12 24.5 17
    endloop
  endfacet
  facet normal 0 0 1
    outer loop
      vertex 12 4.5 17
      vertex 2 24.5 17
      vertex 2 4.5 17
    endloop
  endfacet
  facet normal 1 -0 0
    outer loop
      vertex 12 4.5 17
      vertex 12 24.5 15
      vertex 12 24.5 17
    endloop
  endfacet
  facet normal 1 0 0
    outer loop
      vertex 12 24.5 15
      vertex 12 4.5 17
      vertex 12 4.5 15
    endloop
  endfacet
  facet normal 0 0 -1
    outer loop
      vertex 2 4.5 15
      vertex 12 24.5 15
      vertex 12 4.5 15
    endloop
  endfacet
  facet normal -0 0 -1
    outer loop
      vertex 12 24.5 15
      vertex 2 4.5 15
      vertex 2 24.5 15
    endloop
  endfacet
  facet normal 0 -1 0
    outer loop
      vertex 2 4.5 15
      vertex 12 4.5 17
      vertex 2 4.5 17
    endloop
  endfacet
  facet normal 0 -1 -0
    outer loop
      vertex 12 4.5 17
      vertex 2 4.5 15
      vertex 12 4.5 15
    endloop
  endfacet
  facet normal 0 1 -0
    outer loop
      vertex 12 24.5 15
      vertex 2 24.5 17
      vertex 12 24.5 17
    endloop
  endfacet
  facet normal 0 1 0
    outer loop
      vertex 2 24.5 17
      vertex 12 24.5 15
      vertex 2 24.5 15
    endloop
  endfacet
  facet normal -1 0 0
    outer loop
      vertex 108 30.5 15
      vertex 108 50.5 17
      vertex 108 50.5 15
    endloop
  endfacet
  facet normal -1 -0 0
    outer loop
      vertex 108 50.5 17
      vertex 108 30.5 15
      vertex 108 30.5 17
    endloop
  endfacet
  facet normal -0 0 1
    outer loop
      vertex 108 50.5 17
      vertex 118 30.5 17
      vertex 118 50.5 17
    endloop
  endfacet
  facet normal 0 0 1
    outer loop
      vertex 118 30.5 17
      vertex 108 50.5 17
      vertex 108 30.5 17
    endloop
  endfacet
  facet normal 0 1 -0
    outer loop
      vertex 118 50.5 15
      vertex 108 50.5 17
      vertex 118 50.5 17
    endloop
  endfacet
  facet normal 0 1 0
    outer loop
      vertex 108 50.5 17
      vertex 118 50.5 15
      vertex 108 50.5 15
    endloop
  endfacet
  facet normal 0 0 -1
    outer loop
      vertex 108 30.5 15
      vertex 118 50.5 15
      vertex 118 30.5 15
    endloop
  endfacet
  facet normal -0 0 -1
    outer loop
      vertex 118 50.5 15
      vertex 108 30.5 15
      vertex 108 50.5 15
    endloop
  endfacet
  facet normal 0 -1 0
    outer loop
      vertex 108 30.5 15
      vertex 118 30.5 17
      vertex 108 30.5 17
    endloop
  endfacet
  facet normal 0 -1 -0
    outer loop
      vertex 118 30.5 17
      vertex 108 30.5 15
      vertex 118 30.5 15
    endloop
  endfacet
endsolid OpenSCAD_Model
