solid OpenSCAD_Model
  facet normal -1 0 0
    outer loop
      vertex 0 0 0
      vertex 0 16 4
      vertex 0 16 0
    endloop
  endfacet
  facet normal -1 -0 0
    outer loop
      vertex 0 16 4
      vertex 0 0 0
      vertex 0 0 4
    endloop
  endfacet
  facet normal -0 0 1
    outer loop
      vertex 6.91439 5.95523 4
      vertex 7 0 4
      vertex 7.325 6.13805 4
    endloop
  endfacet
  facet normal -0 0 1
    outer loop
      vertex 6.47474 5.86178 4
      vertex 7 0 4
      vertex 6.91439 5.95523 4
    endloop
  endfacet
  facet normal -0 0 1
    outer loop
      vertex 6.02526 5.86178 4
      vertex 7 0 4
      vertex 6.47474 5.86178 4
    endloop
  endfacet
  facet normal 0 0 1
    outer loop
      vertex 5.58561 5.95523 4
      vertex 7 0 4
      vertex 6.02526 5.86178 4
    endloop
  endfacet
  facet normal 0 0 1
    outer loop
      vertex 5.175 6.13805 4
      vertex 7 0 4
      vertex 5.58561 5.95523 4
    endloop
  endfacet
  facet normal 0 0 1
    outer loop
      vertex 0 0 4
      vertex 5.175 6.13805 4
      vertex 4.81137 6.40224 4
    endloop
  endfacet
  facet normal 0 0 1
    outer loop
      vertex 0 0 4
      vertex 4.81137 6.40224 4
      vertex 4.51061 6.73626 4
    endloop
  endfacet
  facet normal 0 0 1
    outer loop
      vertex 0 0 4
      vertex 4.51061 6.73626 4
      vertex 4.28588 7.12552 4
    endloop
  endfacet
  facet normal 0 0 1
    outer loop
      vertex 0 0 4
      vertex 4.1 8 4
      vertex 0 16 4
    endloop
  endfacet
  facet normal 0 0 1
    outer loop
      vertex 4.1 8 4
      vertex 0 0 4
      vertex 4.14698 7.55299 4
    endloop
  endfacet
  facet normal 0 0 1
    outer loop
      vertex 4.14698 7.55299 4
      vertex 0 0 4
      vertex 4.28588 7.12552 4
    endloop
  endfacet
  facet normal 0 0 1
    outer loop
      vertex 5.175 6.13805 4
      vertex 0 0 4
      vertex 7 0 4
    endloop
  endfacet
  facet normal -0 0 1
    outer loop
      vertex 13.9289 -7.925 4
      vertex 18 -29 4
      vertex 14.0692 -7.60988 4
    endloop
  endfacet
  facet normal 0 0 1
    outer loop
      vertex 18 -29 4
      vertex 14.0692 -25.3901 4
      vertex 14.141 -25.7275 4
    endloop
  endfacet
  facet normal -0 0 1
    outer loop
      vertex 13.9289 -25.075 4
      vertex 18 -29 4
      vertex 13.9289 -7.925 4
    endloop
  endfacet
  facet normal 0 0 1
    outer loop
      vertex 18 -29 4
      vertex 13.9289 -25.075 4
      vertex 14.0692 -25.3901 4
    endloop
  endfacet
  facet normal -0 0 1
    outer loop
      vertex 13.7262 -8.20407 4
      vertex 13.9289 -25.075 4
      vertex 13.9289 -7.925 4
    endloop
  endfacet
  facet normal 0 0 1
    outer loop
      vertex 13.7262 -8.20407 4
      vertex 13.7262 -24.7959 4
      vertex 13.9289 -25.075 4
    endloop
  endfacet
  facet normal -0 0 1
    outer loop
      vertex 13.4698 -8.43488 4
      vertex 13.7262 -24.7959 4
      vertex 13.7262 -8.20407 4
    endloop
  endfacet
  facet normal 0 0 1
    outer loop
      vertex 13.4698 -8.43488 4
      vertex 13.4698 -24.5651 4
      vertex 13.7262 -24.7959 4
    endloop
  endfacet
  facet normal -0 0 1
    outer loop
      vertex 13.1711 -8.60735 4
      vertex 13.4698 -24.5651 4
      vertex 13.4698 -8.43488 4
    endloop
  endfacet
  facet normal 0 0 1
    outer loop
      vertex 13.1711 -8.60735 4
      vertex 13.1711 -24.3927 4
      vertex 13.4698 -24.5651 4
    endloop
  endfacet
  facet normal -0 0 1
    outer loop
      vertex 12.8431 -8.71394 4
      vertex 13.1711 -24.3927 4
      vertex 13.1711 -8.60735 4
    endloop
  endfacet
  facet normal 0 0 1
    outer loop
      vertex 12.8431 -8.71394 4
      vertex 12.8431 -24.2861 4
      vertex 13.1711 -24.3927 4
    endloop
  endfacet
  facet normal -0 0 1
    outer loop
      vertex 12.5 -8.75 4
      vertex 12.8431 -24.2861 4
      vertex 12.8431 -8.71394 4
    endloop
  endfacet
  facet normal 0 0 1
    outer loop
      vertex 12.5 -8.75 4
      vertex 12.5 -24.25 4
      vertex 12.8431 -24.2861 4
    endloop
  endfacet
  facet normal 0 0 1
    outer loop
      vertex 12.1569 -8.71394 4
      vertex 12.5 -24.25 4
      vertex 12.5 -8.75 4
    endloop
  endfacet
  facet normal 0 0 1
    outer loop
      vertex 12.1569 -8.71394 4
      vertex 12.1569 -24.2861 4
      vertex 12.5 -24.25 4
    endloop
  endfacet
  facet normal 0 0 1
    outer loop
      vertex 11.8289 -8.60735 4
      vertex 12.1569 -24.2861 4
      vertex 12.1569 -8.71394 4
    endloop
  endfacet
  facet normal 0 0 1
    outer loop
      vertex 11.8289 -8.60735 4
      vertex 11.8289 -24.3927 4
      vertex 12.1569 -24.2861 4
    endloop
  endfacet
  facet normal 0 0 1
    outer loop
      vertex 11.5302 -8.43488 4
      vertex 11.8289 -24.3927 4
      vertex 11.8289 -8.60735 4
    endloop
  endfacet
  facet normal 0 0 1
    outer loop
      vertex 11.5302 -8.43488 4
      vertex 11.5302 -24.5651 4
      vertex 11.8289 -24.3927 4
    endloop
  endfacet
  facet normal 0 0 1
    outer loop
      vertex 11.2738 -8.20407 4
      vertex 11.5302 -24.5651 4
      vertex 11.5302 -8.43488 4
    endloop
  endfacet
  facet normal 0 0 1
    outer loop
      vertex 11.2738 -8.20407 4
      vertex 11.2738 -24.7959 4
      vertex 11.5302 -24.5651 4
    endloop
  endfacet
  facet normal 0 0 1
    outer loop
      vertex 11.0711 -7.925 4
      vertex 11.2738 -24.7959 4
      vertex 11.2738 -8.20407 4
    endloop
  endfacet
  facet normal 0 0 1
    outer loop
      vertex 11.0711 -7.925 4
      vertex 11.0711 -25.075 4
      vertex 11.2738 -24.7959 4
    endloop
  endfacet
  facet normal 0 0 1
    outer loop
      vertex 7 -29 4
      vertex 11.0711 -7.925 4
      vertex 10.9308 -7.60988 4
    endloop
  endfacet
  facet normal 0 0 1
    outer loop
      vertex 11.0711 -7.925 4
      vertex 7 -29 4
      vertex 11.0711 -25.075 4
    endloop
  endfacet
  facet normal 0 0 1
    outer loop
      vertex 7 0 4
      vertex 10.9308 -7.60988 4
      vertex 10.859 -7.27247 4
    endloop
  endfacet
  facet normal 0 0 1
    outer loop
      vertex 11.0711 -25.075 4
      vertex 7 -29 4
      vertex 10.9308 -25.3901 4
    endloop
  endfacet
  facet normal 0 0 1
    outer loop
      vertex 25 16 4
      vertex 20.9 8 4
      vertex 25 0 4
    endloop
  endfacet
  facet normal 0 0 1
    outer loop
      vertex 25 16 4
      vertex 20.853 8.44701 4
      vertex 20.9 8 4
    endloop
  endfacet
  facet normal 0 0 1
    outer loop
      vertex 25 16 4
      vertex 20.7141 8.87448 4
      vertex 20.853 8.44701 4
    endloop
  endfacet
  facet normal 0 0 1
    outer loop
      vertex 25 16 4
      vertex 20.4894 9.26374 4
      vertex 20.7141 8.87448 4
    endloop
  endfacet
  facet normal 0 0 1
    outer loop
      vertex 25 16 4
      vertex 20.1886 9.59776 4
      vertex 20.4894 9.26374 4
    endloop
  endfacet
  facet normal 0 0 1
    outer loop
      vertex 25 16 4
      vertex 19.825 9.86195 4
      vertex 20.1886 9.59776 4
    endloop
  endfacet
  facet normal 0 0 1
    outer loop
      vertex 25 16 4
      vertex 19.4144 10.0448 4
      vertex 19.825 9.86195 4
    endloop
  endfacet
  facet normal 0 0 1
    outer loop
      vertex 25 16 4
      vertex 18.9747 10.1382 4
      vertex 19.4144 10.0448 4
    endloop
  endfacet
  facet normal 0 0 1
    outer loop
      vertex 25 16 4
      vertex 18.5253 10.1382 4
      vertex 18.9747 10.1382 4
    endloop
  endfacet
  facet normal 0 0 1
    outer loop
      vertex 25 16 4
      vertex 18.0856 10.0448 4
      vertex 18.5253 10.1382 4
    endloop
  endfacet
  facet normal 0 0 1
    outer loop
      vertex 6.91439 10.0448 4
      vertex 18.0856 10.0448 4
      vertex 25 16 4
    endloop
  endfacet
  facet normal 0 0 1
    outer loop
      vertex 18.0856 10.0448 4
      vertex 6.91439 10.0448 4
      vertex 17.675 9.86195 4
    endloop
  endfacet
  facet normal 0 0 1
    outer loop
      vertex 8.4 8 4
      vertex 16.6 8 4
      vertex 16.647 8.44701 4
    endloop
  endfacet
  facet normal 0 0 1
    outer loop
      vertex 16.6 8 4
      vertex 14.0692 -6.59012 4
      vertex 14.141 -6.92753 4
    endloop
  endfacet
  facet normal 0 0 1
    outer loop
      vertex 16.6 8 4
      vertex 13.9289 -6.275 4
      vertex 14.0692 -6.59012 4
    endloop
  endfacet
  facet normal 0 0 1
    outer loop
      vertex 16.6 8 4
      vertex 13.7262 -5.99594 4
      vertex 13.9289 -6.275 4
    endloop
  endfacet
  facet normal 0 0 1
    outer loop
      vertex 16.6 8 4
      vertex 13.4698 -5.76512 4
      vertex 13.7262 -5.99594 4
    endloop
  endfacet
  facet normal 0 0 1
    outer loop
      vertex 16.6 8 4
      vertex 13.1711 -5.59265 4
      vertex 13.4698 -5.76512 4
    endloop
  endfacet
  facet normal 0 0 1
    outer loop
      vertex 16.6 8 4
      vertex 12.8431 -5.48606 4
      vertex 13.1711 -5.59265 4
    endloop
  endfacet
  facet normal 0 0 1
    outer loop
      vertex 16.6 8 4
      vertex 7 0 4
      vertex 12.8431 -5.48606 4
    endloop
  endfacet
  facet normal 0 0 1
    outer loop
      vertex 12.8431 -5.48606 4
      vertex 7 0 4
      vertex 12.5 -5.45 4
    endloop
  endfacet
  facet normal 0 0 1
    outer loop
      vertex 12.5 -5.45 4
      vertex 7 0 4
      vertex 12.1569 -5.48606 4
    endloop
  endfacet
  facet normal 0 0 1
    outer loop
      vertex 8.35302 8.44701 4
      vertex 16.647 8.44701 4
      vertex 16.7859 8.87448 4
    endloop
  endfacet
  facet normal 0 0 1
    outer loop
      vertex 12.1569 -5.48606 4
      vertex 7 0 4
      vertex 11.8289 -5.59265 4
    endloop
  endfacet
  facet normal 0 0 1
    outer loop
      vertex 11.8289 -5.59265 4
      vertex 7 0 4
      vertex 11.5302 -5.76512 4
    endloop
  endfacet
  facet normal 0 0 1
    outer loop
      vertex 11.5302 -5.76512 4
      vertex 7 0 4
      vertex 11.2738 -5.99594 4
    endloop
  endfacet
  facet normal 0 0 1
    outer loop
      vertex 11.2738 -5.99594 4
      vertex 7 0 4
      vertex 11.0711 -6.275 4
    endloop
  endfacet
  facet normal 0 0 1
    outer loop
      vertex 7 0 4
      vertex 10.859 -7.27247 4
      vertex 10.859 -6.92753 4
    endloop
  endfacet
  facet normal 0 0 1
    outer loop
      vertex 10.9308 -25.3901 4
      vertex 7 -29 4
      vertex 10.859 -25.7275 4
    endloop
  endfacet
  facet normal 0 0 1
    outer loop
      vertex 16.6 8 4
      vertex 8.21412 7.12552 4
      vertex 7.98939 6.73626 4
    endloop
  endfacet
  facet normal 0 0 1
    outer loop
      vertex 16.6 8 4
      vertex 8.35302 7.55299 4
      vertex 8.21412 7.12552 4
    endloop
  endfacet
  facet normal 0 0 1
    outer loop
      vertex 16.6 8 4
      vertex 8.4 8 4
      vertex 8.35302 7.55299 4
    endloop
  endfacet
  facet normal 0 0 1
    outer loop
      vertex 8.21412 8.87448 4
      vertex 16.7859 8.87448 4
      vertex 17.0106 9.26374 4
    endloop
  endfacet
  facet normal 0 0 1
    outer loop
      vertex 7.98939 9.26374 4
      vertex 17.0106 9.26374 4
      vertex 17.3114 9.59776 4
    endloop
  endfacet
  facet normal 0 -0 1
    outer loop
      vertex 7.325 9.86195 4
      vertex 17.675 9.86195 4
      vertex 6.91439 10.0448 4
    endloop
  endfacet
  facet normal 0 0 1
    outer loop
      vertex 16.647 8.44701 4
      vertex 8.35302 8.44701 4
      vertex 8.4 8 4
    endloop
  endfacet
  facet normal 0 0 1
    outer loop
      vertex 16.7859 8.87448 4
      vertex 8.21412 8.87448 4
      vertex 8.35302 8.44701 4
    endloop
  endfacet
  facet normal 0 0 1
    outer loop
      vertex 17.0106 9.26374 4
      vertex 7.98939 9.26374 4
      vertex 8.21412 8.87448 4
    endloop
  endfacet
  facet normal 0 0 1
    outer loop
      vertex 17.3114 9.59776 4
      vertex 7.68863 9.59776 4
      vertex 7.98939 9.26374 4
    endloop
  endfacet
  facet normal 0 0 1
    outer loop
      vertex 17.3114 9.59776 4
      vertex 7.325 9.86195 4
      vertex 7.68863 9.59776 4
    endloop
  endfacet
  facet normal 0 0 1
    outer loop
      vertex 17.675 9.86195 4
      vertex 7.325 9.86195 4
      vertex 17.3114 9.59776 4
    endloop
  endfacet
  facet normal -0 0 1
    outer loop
      vertex 0 16 4
      vertex 6.91439 10.0448 4
      vertex 25 16 4
    endloop
  endfacet
  facet normal 0 0 1
    outer loop
      vertex 6.91439 10.0448 4
      vertex 0 16 4
      vertex 6.47474 10.1382 4
    endloop
  endfacet
  facet normal 0 0 1
    outer loop
      vertex 6.47474 10.1382 4
      vertex 0 16 4
      vertex 6.02526 10.1382 4
    endloop
  endfacet
  facet normal 0 0 1
    outer loop
      vertex 4.14698 8.44701 4
      vertex 0 16 4
      vertex 4.1 8 4
    endloop
  endfacet
  facet normal 0 0 1
    outer loop
      vertex 4.28588 8.87448 4
      vertex 0 16 4
      vertex 4.14698 8.44701 4
    endloop
  endfacet
  facet normal 0 0 1
    outer loop
      vertex 4.51061 9.26374 4
      vertex 0 16 4
      vertex 4.28588 8.87448 4
    endloop
  endfacet
  facet normal 0 0 1
    outer loop
      vertex 4.81137 9.59776 4
      vertex 0 16 4
      vertex 4.51061 9.26374 4
    endloop
  endfacet
  facet normal 0 0 1
    outer loop
      vertex 5.175 9.86195 4
      vertex 0 16 4
      vertex 4.81137 9.59776 4
    endloop
  endfacet
  facet normal 0 0 1
    outer loop
      vertex 5.58561 10.0448 4
      vertex 0 16 4
      vertex 5.175 9.86195 4
    endloop
  endfacet
  facet normal 0 0 1
    outer loop
      vertex 6.02526 10.1382 4
      vertex 0 16 4
      vertex 5.58561 10.0448 4
    endloop
  endfacet
  facet normal -0 0 1
    outer loop
      vertex 20.853 7.55299 4
      vertex 25 0 4
      vertex 20.9 8 4
    endloop
  endfacet
  facet normal -0 0 1
    outer loop
      vertex 20.7141 7.12552 4
      vertex 25 0 4
      vertex 20.853 7.55299 4
    endloop
  endfacet
  facet normal -0 0 1
    outer loop
      vertex 20.4894 6.73626 4
      vertex 25 0 4
      vertex 20.7141 7.12552 4
    endloop
  endfacet
  facet normal -0 0 1
    outer loop
      vertex 20.1886 6.40224 4
      vertex 25 0 4
      vertex 20.4894 6.73626 4
    endloop
  endfacet
  facet normal -0 0 1
    outer loop
      vertex 19.825 6.13805 4
      vertex 25 0 4
      vertex 20.1886 6.40224 4
    endloop
  endfacet
  facet normal 0 0 1
    outer loop
      vertex 18 0 4
      vertex 19.825 6.13805 4
      vertex 19.4144 5.95523 4
    endloop
  endfacet
  facet normal 0 0 1
    outer loop
      vertex 18 0 4
      vertex 19.4144 5.95523 4
      vertex 18.9747 5.86178 4
    endloop
  endfacet
  facet normal 0 0 1
    outer loop
      vertex 18 0 4
      vertex 18.9747 5.86178 4
      vertex 18.5253 5.86178 4
    endloop
  endfacet
  facet normal 0 0 1
    outer loop
      vertex 18 0 4
      vertex 18.5253 5.86178 4
      vertex 18.0856 5.95523 4
    endloop
  endfacet
  facet normal 0 0 1
    outer loop
      vertex 19.825 6.13805 4
      vertex 18 0 4
      vertex 25 0 4
    endloop
  endfacet
  facet normal 0 0 1
    outer loop
      vertex 17.675 6.13805 4
      vertex 18 0 4
      vertex 18.0856 5.95523 4
    endloop
  endfacet
  facet normal 0 0 1
    outer loop
      vertex 17.3114 6.40224 4
      vertex 18 0 4
      vertex 17.675 6.13805 4
    endloop
  endfacet
  facet normal 0 0 1
    outer loop
      vertex 17.0106 6.73626 4
      vertex 18 0 4
      vertex 17.3114 6.40224 4
    endloop
  endfacet
  facet normal 0 0 1
    outer loop
      vertex 16.7859 7.12552 4
      vertex 18 0 4
      vertex 17.0106 6.73626 4
    endloop
  endfacet
  facet normal 0 0 1
    outer loop
      vertex 18 0 4
      vertex 16.7859 7.12552 4
      vertex 14.141 -6.92753 4
    endloop
  endfacet
  facet normal 0 0 1
    outer loop
      vertex 14.141 -6.92753 4
      vertex 16.7859 7.12552 4
      vertex 16.647 7.55299 4
    endloop
  endfacet
  facet normal 0 0 1
    outer loop
      vertex 14.141 -6.92753 4
      vertex 16.647 7.55299 4
      vertex 16.6 8 4
    endloop
  endfacet
  facet normal 0 0 1
    outer loop
      vertex 18 0 4
      vertex 14.141 -6.92753 4
      vertex 14.141 -7.27247 4
    endloop
  endfacet
  facet normal 0 0 1
    outer loop
      vertex 14.0692 -7.60988 4
      vertex 18 0 4
      vertex 14.141 -7.27247 4
    endloop
  endfacet
  facet normal 0 0 1
    outer loop
      vertex 18 0 4
      vertex 14.0692 -7.60988 4
      vertex 18 -29 4
    endloop
  endfacet
  facet normal -0 0 1
    outer loop
      vertex 14.141 -26.0725 4
      vertex 18 -29 4
      vertex 14.141 -25.7275 4
    endloop
  endfacet
  facet normal -0 0 1
    outer loop
      vertex 14.0692 -26.4099 4
      vertex 18 -29 4
      vertex 14.141 -26.0725 4
    endloop
  endfacet
  facet normal -0 0 1
    outer loop
      vertex 13.9289 -26.725 4
      vertex 18 -29 4
      vertex 14.0692 -26.4099 4
    endloop
  endfacet
  facet normal -0 0 1
    outer loop
      vertex 13.7262 -27.0041 4
      vertex 18 -29 4
      vertex 13.9289 -26.725 4
    endloop
  endfacet
  facet normal -0 0 1
    outer loop
      vertex 13.4698 -27.2349 4
      vertex 18 -29 4
      vertex 13.7262 -27.0041 4
    endloop
  endfacet
  facet normal -0 0 1
    outer loop
      vertex 13.1711 -27.4074 4
      vertex 18 -29 4
      vertex 13.4698 -27.2349 4
    endloop
  endfacet
  facet normal -0 0 1
    outer loop
      vertex 12.8431 -27.5139 4
      vertex 18 -29 4
      vertex 13.1711 -27.4074 4
    endloop
  endfacet
  facet normal -0 0 1
    outer loop
      vertex 12.5 -27.55 4
      vertex 18 -29 4
      vertex 12.8431 -27.5139 4
    endloop
  endfacet
  facet normal 0 0 1
    outer loop
      vertex 7 -29 4
      vertex 12.5 -27.55 4
      vertex 12.1569 -27.5139 4
    endloop
  endfacet
  facet normal 0 0 1
    outer loop
      vertex 11.0711 -6.275 4
      vertex 7 0 4
      vertex 10.9308 -6.59012 4
    endloop
  endfacet
  facet normal 0 0 1
    outer loop
      vertex 10.9308 -6.59012 4
      vertex 7 0 4
      vertex 10.859 -6.92753 4
    endloop
  endfacet
  facet normal 0 0 1
    outer loop
      vertex 16.6 8 4
      vertex 7.98939 6.73626 4
      vertex 7 0 4
    endloop
  endfacet
  facet normal 0 0 1
    outer loop
      vertex 7 0 4
      vertex 7.98939 6.73626 4
      vertex 7.68863 6.40224 4
    endloop
  endfacet
  facet normal 0 0 1
    outer loop
      vertex 7 0 4
      vertex 7.68863 6.40224 4
      vertex 7.325 6.13805 4
    endloop
  endfacet
  facet normal 0 0 1
    outer loop
      vertex 10.9308 -7.60988 4
      vertex 7 0 4
      vertex 7 -29 4
    endloop
  endfacet
  facet normal 0 0 1
    outer loop
      vertex 12.5 -27.55 4
      vertex 7 -29 4
      vertex 18 -29 4
    endloop
  endfacet
  facet normal 0 0 1
    outer loop
      vertex 11.8289 -27.4074 4
      vertex 7 -29 4
      vertex 12.1569 -27.5139 4
    endloop
  endfacet
  facet normal 0 0 1
    outer loop
      vertex 11.5302 -27.2349 4
      vertex 7 -29 4
      vertex 11.8289 -27.4074 4
    endloop
  endfacet
  facet normal 0 0 1
    outer loop
      vertex 11.2738 -27.0041 4
      vertex 7 -29 4
      vertex 11.5302 -27.2349 4
    endloop
  endfacet
  facet normal 0 0 1
    outer loop
      vertex 11.0711 -26.725 4
      vertex 7 -29 4
      vertex 11.2738 -27.0041 4
    endloop
  endfacet
  facet normal 0 0 1
    outer loop
      vertex 10.9308 -26.4099 4
      vertex 7 -29 4
      vertex 11.0711 -26.725 4
    endloop
  endfacet
  facet normal 0 0 1
    outer loop
      vertex 10.859 -26.0725 4
      vertex 7 -29 4
      vertex 10.9308 -26.4099 4
    endloop
  endfacet
  facet normal 0 0 1
    outer loop
      vertex 10.859 -25.7275 4
      vertex 7 -29 4
      vertex 10.859 -26.0725 4
    endloop
  endfacet
  facet normal 1 -0 0
    outer loop
      vertex 25 0 4
      vertex 25 16 0
      vertex 25 16 4
    endloop
  endfacet
  facet normal 1 0 0
    outer loop
      vertex 25 16 0
      vertex 25 0 4
      vertex 25 0 0
    endloop
  endfacet
  facet normal 0 1 -0
    outer loop
      vertex 25 16 0
      vertex 0 16 4
      vertex 25 16 4
    endloop
  endfacet
  facet normal 0 1 0
    outer loop
      vertex 0 16 4
      vertex 25 16 0
      vertex 0 16 0
    endloop
  endfacet
  facet normal 0 0 -1
    outer loop
      vertex 13.9289 -25.075 0
      vertex 18 -29 0
      vertex 14.0692 -25.3901 0
    endloop
  endfacet
  facet normal 0 0 -1
    outer loop
      vertex 18 -29 0
      vertex 14.0692 -7.60988 0
      vertex 14.141 -7.27247 0
    endloop
  endfacet
  facet normal 0 0 -1
    outer loop
      vertex 13.9289 -7.925 0
      vertex 18 -29 0
      vertex 13.9289 -25.075 0
    endloop
  endfacet
  facet normal 0 0 -1
    outer loop
      vertex 18 -29 0
      vertex 13.9289 -7.925 0
      vertex 14.0692 -7.60988 0
    endloop
  endfacet
  facet normal 0 0 -1
    outer loop
      vertex 13.7262 -24.7959 0
      vertex 13.9289 -7.925 0
      vertex 13.9289 -25.075 0
    endloop
  endfacet
  facet normal 0 0 -1
    outer loop
      vertex 13.7262 -24.7959 0
      vertex 13.7262 -8.20407 0
      vertex 13.9289 -7.925 0
    endloop
  endfacet
  facet normal 0 0 -1
    outer loop
      vertex 13.4698 -24.5651 0
      vertex 13.7262 -8.20407 0
      vertex 13.7262 -24.7959 0
    endloop
  endfacet
  facet normal 0 0 -1
    outer loop
      vertex 13.4698 -24.5651 0
      vertex 13.4698 -8.43488 0
      vertex 13.7262 -8.20407 0
    endloop
  endfacet
  facet normal 0 0 -1
    outer loop
      vertex 13.1711 -24.3927 0
      vertex 13.4698 -8.43488 0
      vertex 13.4698 -24.5651 0
    endloop
  endfacet
  facet normal 0 0 -1
    outer loop
      vertex 13.1711 -24.3927 0
      vertex 13.1711 -8.60735 0
      vertex 13.4698 -8.43488 0
    endloop
  endfacet
  facet normal 0 0 -1
    outer loop
      vertex 12.8431 -24.2861 0
      vertex 13.1711 -8.60735 0
      vertex 13.1711 -24.3927 0
    endloop
  endfacet
  facet normal 0 0 -1
    outer loop
      vertex 12.8431 -24.2861 0
      vertex 12.8431 -8.71394 0
      vertex 13.1711 -8.60735 0
    endloop
  endfacet
  facet normal 0 0 -1
    outer loop
      vertex 12.5 -24.25 0
      vertex 12.8431 -8.71394 0
      vertex 12.8431 -24.2861 0
    endloop
  endfacet
  facet normal 0 0 -1
    outer loop
      vertex 12.5 -24.25 0
      vertex 12.5 -8.75 0
      vertex 12.8431 -8.71394 0
    endloop
  endfacet
  facet normal 0 0 -1
    outer loop
      vertex 12.1569 -24.2861 0
      vertex 12.5 -8.75 0
      vertex 12.5 -24.25 0
    endloop
  endfacet
  facet normal 0 0 -1
    outer loop
      vertex 12.1569 -24.2861 0
      vertex 12.1569 -8.71394 0
      vertex 12.5 -8.75 0
    endloop
  endfacet
  facet normal 0 0 -1
    outer loop
      vertex 11.8289 -24.3927 0
      vertex 12.1569 -8.71394 0
      vertex 12.1569 -24.2861 0
    endloop
  endfacet
  facet normal 0 0 -1
    outer loop
      vertex 11.8289 -24.3927 0
      vertex 11.8289 -8.60735 0
      vertex 12.1569 -8.71394 0
    endloop
  endfacet
  facet normal 0 0 -1
    outer loop
      vertex 11.5302 -24.5651 0
      vertex 11.8289 -8.60735 0
      vertex 11.8289 -24.3927 0
    endloop
  endfacet
  facet normal 0 0 -1
    outer loop
      vertex 11.5302 -24.5651 0
      vertex 11.5302 -8.43488 0
      vertex 11.8289 -8.60735 0
    endloop
  endfacet
  facet normal 0 0 -1
    outer loop
      vertex 11.2738 -24.7959 0
      vertex 11.5302 -8.43488 0
      vertex 11.5302 -24.5651 0
    endloop
  endfacet
  facet normal 0 0 -1
    outer loop
      vertex 11.2738 -24.7959 0
      vertex 11.2738 -8.20407 0
      vertex 11.5302 -8.43488 0
    endloop
  endfacet
  facet normal 0 0 -1
    outer loop
      vertex 11.0711 -25.075 0
      vertex 11.2738 -8.20407 0
      vertex 11.2738 -24.7959 0
    endloop
  endfacet
  facet normal 0 0 -1
    outer loop
      vertex 11.0711 -25.075 0
      vertex 11.0711 -7.925 0
      vertex 11.2738 -8.20407 0
    endloop
  endfacet
  facet normal 0 0 -1
    outer loop
      vertex 7 -29 0
      vertex 11.0711 -25.075 0
      vertex 10.9308 -25.3901 0
    endloop
  endfacet
  facet normal -0 0 -1
    outer loop
      vertex 11.0711 -25.075 0
      vertex 7 -29 0
      vertex 11.0711 -7.925 0
    endloop
  endfacet
  facet normal 0 0 -1
    outer loop
      vertex 7 -29 0
      vertex 10.9308 -25.3901 0
      vertex 10.859 -25.7275 0
    endloop
  endfacet
  facet normal -0 0 -1
    outer loop
      vertex 11.0711 -7.925 0
      vertex 7 -29 0
      vertex 10.9308 -7.60988 0
    endloop
  endfacet
  facet normal 0 0 -1
    outer loop
      vertex 14.141 -7.27247 0
      vertex 18 0 0
      vertex 18 -29 0
    endloop
  endfacet
  facet normal 0 0 -1
    outer loop
      vertex 14.141 -6.92753 0
      vertex 18 0 0
      vertex 14.141 -7.27247 0
    endloop
  endfacet
  facet normal 0 0 -1
    outer loop
      vertex 14.0692 -6.59012 0
      vertex 18 0 0
      vertex 14.141 -6.92753 0
    endloop
  endfacet
  facet normal 0 0 -1
    outer loop
      vertex 13.9289 -6.275 0
      vertex 18 0 0
      vertex 14.0692 -6.59012 0
    endloop
  endfacet
  facet normal 0 0 -1
    outer loop
      vertex 13.7262 -5.99594 0
      vertex 18 0 0
      vertex 13.9289 -6.275 0
    endloop
  endfacet
  facet normal 0 0 -1
    outer loop
      vertex 13.4698 -5.76512 0
      vertex 18 0 0
      vertex 13.7262 -5.99594 0
    endloop
  endfacet
  facet normal 0 0 -1
    outer loop
      vertex 14.141 -25.7275 0
      vertex 18 -29 0
      vertex 14.141 -26.0725 0
    endloop
  endfacet
  facet normal 0 0 -1
    outer loop
      vertex 18 -29 0
      vertex 14.0692 -26.4099 0
      vertex 14.141 -26.0725 0
    endloop
  endfacet
  facet normal 0 0 -1
    outer loop
      vertex 18 -29 0
      vertex 13.9289 -26.725 0
      vertex 14.0692 -26.4099 0
    endloop
  endfacet
  facet normal 0 0 -1
    outer loop
      vertex 18 -29 0
      vertex 13.7262 -27.0041 0
      vertex 13.9289 -26.725 0
    endloop
  endfacet
  facet normal 0 0 -1
    outer loop
      vertex 18 -29 0
      vertex 13.4698 -27.2349 0
      vertex 13.7262 -27.0041 0
    endloop
  endfacet
  facet normal 0 0 -1
    outer loop
      vertex 18 -29 0
      vertex 13.1711 -27.4074 0
      vertex 13.4698 -27.2349 0
    endloop
  endfacet
  facet normal 0 0 -1
    outer loop
      vertex 18 -29 0
      vertex 12.8431 -27.5139 0
      vertex 13.1711 -27.4074 0
    endloop
  endfacet
  facet normal 0 0 -1
    outer loop
      vertex 18 -29 0
      vertex 12.5 -27.55 0
      vertex 12.8431 -27.5139 0
    endloop
  endfacet
  facet normal 0 0 -1
    outer loop
      vertex 7 -29 0
      vertex 12.5 -27.55 0
      vertex 18 -29 0
    endloop
  endfacet
  facet normal 0 0 -1
    outer loop
      vertex 7 -29 0
      vertex 10.859 -25.7275 0
      vertex 10.859 -26.0725 0
    endloop
  endfacet
  facet normal 0 0 -1
    outer loop
      vertex 7 0 0
      vertex 10.9308 -7.60988 0
      vertex 7 -29 0
    endloop
  endfacet
  facet normal 0 0 -1
    outer loop
      vertex 10.9308 -7.60988 0
      vertex 7 0 0
      vertex 10.859 -7.27247 0
    endloop
  endfacet
  facet normal 0 0 -1
    outer loop
      vertex 10.859 -6.92753 0
      vertex 8.35302 7.55299 0
      vertex 8.4 8 0
    endloop
  endfacet
  facet normal 0 -0 -1
    outer loop
      vertex 8.21412 7.12552 0
      vertex 10.859 -6.92753 0
      vertex 7 0 0
    endloop
  endfacet
  facet normal 0 0 -1
    outer loop
      vertex 10.859 -6.92753 0
      vertex 8.21412 7.12552 0
      vertex 8.35302 7.55299 0
    endloop
  endfacet
  facet normal 0 0 -1
    outer loop
      vertex 8.21412 7.12552 0
      vertex 7 0 0
      vertex 7.98939 6.73626 0
    endloop
  endfacet
  facet normal 0 0 -1
    outer loop
      vertex 7.98939 6.73626 0
      vertex 7 0 0
      vertex 7.68863 6.40224 0
    endloop
  endfacet
  facet normal -0 0 -1
    outer loop
      vertex 12.5 -27.55 0
      vertex 7 -29 0
      vertex 12.1569 -27.5139 0
    endloop
  endfacet
  facet normal 0 0 -1
    outer loop
      vertex 7 -29 0
      vertex 11.8289 -27.4074 0
      vertex 12.1569 -27.5139 0
    endloop
  endfacet
  facet normal 0 0 -1
    outer loop
      vertex 7 -29 0
      vertex 11.5302 -27.2349 0
      vertex 11.8289 -27.4074 0
    endloop
  endfacet
  facet normal 0 0 -1
    outer loop
      vertex 7 -29 0
      vertex 11.2738 -27.0041 0
      vertex 11.5302 -27.2349 0
    endloop
  endfacet
  facet normal 0 0 -1
    outer loop
      vertex 7 -29 0
      vertex 11.0711 -26.725 0
      vertex 11.2738 -27.0041 0
    endloop
  endfacet
  facet normal 0 0 -1
    outer loop
      vertex 7 -29 0
      vertex 10.9308 -26.4099 0
      vertex 11.0711 -26.725 0
    endloop
  endfacet
  facet normal 0 0 -1
    outer loop
      vertex 7 -29 0
      vertex 10.859 -26.0725 0
      vertex 10.9308 -26.4099 0
    endloop
  endfacet
  facet normal 0 0 -1
    outer loop
      vertex 10.859 -7.27247 0
      vertex 7 0 0
      vertex 10.859 -6.92753 0
    endloop
  endfacet
  facet normal 0 0 -1
    outer loop
      vertex 7.68863 6.40224 0
      vertex 7 0 0
      vertex 7.325 6.13805 0
    endloop
  endfacet
  facet normal 0 0 -1
    outer loop
      vertex 7 0 0
      vertex 6.91439 5.95523 0
      vertex 7.325 6.13805 0
    endloop
  endfacet
  facet normal 0 0 -1
    outer loop
      vertex 7 0 0
      vertex 6.47474 5.86178 0
      vertex 6.91439 5.95523 0
    endloop
  endfacet
  facet normal 0 0 -1
    outer loop
      vertex 7 0 0
      vertex 6.02526 5.86178 0
      vertex 6.47474 5.86178 0
    endloop
  endfacet
  facet normal 0 0 -1
    outer loop
      vertex 7 0 0
      vertex 5.58561 5.95523 0
      vertex 6.02526 5.86178 0
    endloop
  endfacet
  facet normal 0 0 -1
    outer loop
      vertex 7 0 0
      vertex 5.175 6.13805 0
      vertex 5.58561 5.95523 0
    endloop
  endfacet
  facet normal 0 0 -1
    outer loop
      vertex 0 0 0
      vertex 5.175 6.13805 0
      vertex 7 0 0
    endloop
  endfacet
  facet normal -0 0 -1
    outer loop
      vertex 5.175 6.13805 0
      vertex 0 0 0
      vertex 4.81137 6.40224 0
    endloop
  endfacet
  facet normal -0 0 -1
    outer loop
      vertex 4.81137 6.40224 0
      vertex 0 0 0
      vertex 4.51061 6.73626 0
    endloop
  endfacet
  facet normal -0 0 -1
    outer loop
      vertex 4.14698 7.55299 0
      vertex 0 0 0
      vertex 4.1 8 0
    endloop
  endfacet
  facet normal -0 0 -1
    outer loop
      vertex 4.28588 7.12552 0
      vertex 0 0 0
      vertex 4.14698 7.55299 0
    endloop
  endfacet
  facet normal -0 0 -1
    outer loop
      vertex 4.51061 6.73626 0
      vertex 0 0 0
      vertex 4.28588 7.12552 0
    endloop
  endfacet
  facet normal 0 0 -1
    outer loop
      vertex 25 0 0
      vertex 20.9 8 0
      vertex 25 16 0
    endloop
  endfacet
  facet normal 0 0 -1
    outer loop
      vertex 25 0 0
      vertex 20.853 7.55299 0
      vertex 20.9 8 0
    endloop
  endfacet
  facet normal 0 0 -1
    outer loop
      vertex 25 0 0
      vertex 20.7141 7.12552 0
      vertex 20.853 7.55299 0
    endloop
  endfacet
  facet normal 0 0 -1
    outer loop
      vertex 25 0 0
      vertex 20.4894 6.73626 0
      vertex 20.7141 7.12552 0
    endloop
  endfacet
  facet normal 0 0 -1
    outer loop
      vertex 25 0 0
      vertex 20.1886 6.40224 0
      vertex 20.4894 6.73626 0
    endloop
  endfacet
  facet normal 0 0 -1
    outer loop
      vertex 25 0 0
      vertex 19.825 6.13805 0
      vertex 20.1886 6.40224 0
    endloop
  endfacet
  facet normal 0 0 -1
    outer loop
      vertex 18 0 0
      vertex 19.825 6.13805 0
      vertex 25 0 0
    endloop
  endfacet
  facet normal 0 0 -1
    outer loop
      vertex 19.825 6.13805 0
      vertex 18 0 0
      vertex 19.4144 5.95523 0
    endloop
  endfacet
  facet normal 0 0 -1
    outer loop
      vertex 19.4144 5.95523 0
      vertex 18 0 0
      vertex 18.9747 5.86178 0
    endloop
  endfacet
  facet normal -0 0 -1
    outer loop
      vertex 18.9747 5.86178 0
      vertex 18 0 0
      vertex 18.5253 5.86178 0
    endloop
  endfacet
  facet normal -0 0 -1
    outer loop
      vertex 18.5253 5.86178 0
      vertex 18 0 0
      vertex 18.0856 5.95523 0
    endloop
  endfacet
  facet normal -0 0 -1
    outer loop
      vertex 18.0856 5.95523 0
      vertex 18 0 0
      vertex 17.675 6.13805 0
    endloop
  endfacet
  facet normal 0 0 -1
    outer loop
      vertex 20.853 8.44701 0
      vertex 25 16 0
      vertex 20.9 8 0
    endloop
  endfacet
  facet normal 0 0 -1
    outer loop
      vertex 20.7141 8.87448 0
      vertex 25 16 0
      vertex 20.853 8.44701 0
    endloop
  endfacet
  facet normal 0 0 -1
    outer loop
      vertex 20.4894 9.26374 0
      vertex 25 16 0
      vertex 20.7141 8.87448 0
    endloop
  endfacet
  facet normal 0 0 -1
    outer loop
      vertex 20.1886 9.59776 0
      vertex 25 16 0
      vertex 20.4894 9.26374 0
    endloop
  endfacet
  facet normal 0 0 -1
    outer loop
      vertex 19.825 9.86195 0
      vertex 25 16 0
      vertex 20.1886 9.59776 0
    endloop
  endfacet
  facet normal 0 0 -1
    outer loop
      vertex 19.4144 10.0448 0
      vertex 25 16 0
      vertex 19.825 9.86195 0
    endloop
  endfacet
  facet normal 0 0 -1
    outer loop
      vertex 18.9747 10.1382 0
      vertex 25 16 0
      vertex 19.4144 10.0448 0
    endloop
  endfacet
  facet normal 0 0 -1
    outer loop
      vertex 18.5253 10.1382 0
      vertex 25 16 0
      vertex 18.9747 10.1382 0
    endloop
  endfacet
  facet normal 0 0 -1
    outer loop
      vertex 18.0856 10.0448 0
      vertex 25 16 0
      vertex 18.5253 10.1382 0
    endloop
  endfacet
  facet normal 0 0 -1
    outer loop
      vertex 6.91439 10.0448 0
      vertex 18.0856 10.0448 0
      vertex 17.675 9.86195 0
    endloop
  endfacet
  facet normal 0 0 -1
    outer loop
      vertex 7.325 9.86195 0
      vertex 17.675 9.86195 0
      vertex 17.3114 9.59776 0
    endloop
  endfacet
  facet normal 0 0 -1
    outer loop
      vertex 14.0692 -25.3901 0
      vertex 18 -29 0
      vertex 14.141 -25.7275 0
    endloop
  endfacet
  facet normal 0 0 -1
    outer loop
      vertex 13.1711 -5.59265 0
      vertex 18 0 0
      vertex 13.4698 -5.76512 0
    endloop
  endfacet
  facet normal 0 0 -1
    outer loop
      vertex 12.8431 -5.48606 0
      vertex 18 0 0
      vertex 13.1711 -5.59265 0
    endloop
  endfacet
  facet normal 0 0 -1
    outer loop
      vertex 12.5 -5.45 0
      vertex 18 0 0
      vertex 12.8431 -5.48606 0
    endloop
  endfacet
  facet normal 0 0 -1
    outer loop
      vertex 18 0 0
      vertex 17.3114 6.40224 0
      vertex 17.675 6.13805 0
    endloop
  endfacet
  facet normal 0 0 -1
    outer loop
      vertex 12.1569 -5.48606 0
      vertex 18 0 0
      vertex 12.5 -5.45 0
    endloop
  endfacet
  facet normal -0 -0 -1
    outer loop
      vertex 17.0106 6.73626 0
      vertex 18 0 0
      vertex 8.4 8 0
    endloop
  endfacet
  facet normal 0 0 -1
    outer loop
      vertex 18 0 0
      vertex 17.0106 6.73626 0
      vertex 17.3114 6.40224 0
    endloop
  endfacet
  facet normal 0 0 -1
    outer loop
      vertex 17.0106 6.73626 0
      vertex 8.4 8 0
      vertex 16.7859 7.12552 0
    endloop
  endfacet
  facet normal 0 0 -1
    outer loop
      vertex 16.7859 7.12552 0
      vertex 8.4 8 0
      vertex 16.647 7.55299 0
    endloop
  endfacet
  facet normal 0 0 -1
    outer loop
      vertex 16.647 7.55299 0
      vertex 8.4 8 0
      vertex 16.6 8 0
    endloop
  endfacet
  facet normal -0 0 -1
    outer loop
      vertex 18 0 0
      vertex 12.1569 -5.48606 0
      vertex 8.4 8 0
    endloop
  endfacet
  facet normal 0 0 -1
    outer loop
      vertex 8.4 8 0
      vertex 12.1569 -5.48606 0
      vertex 11.8289 -5.59265 0
    endloop
  endfacet
  facet normal 0 0 -1
    outer loop
      vertex 16.6 8 0
      vertex 8.4 8 0
      vertex 16.647 8.44701 0
    endloop
  endfacet
  facet normal 0 0 -1
    outer loop
      vertex 8.4 8 0
      vertex 11.8289 -5.59265 0
      vertex 11.5302 -5.76512 0
    endloop
  endfacet
  facet normal 0 0 -1
    outer loop
      vertex 8.4 8 0
      vertex 11.5302 -5.76512 0
      vertex 11.2738 -5.99594 0
    endloop
  endfacet
  facet normal 0 0 -1
    outer loop
      vertex 8.4 8 0
      vertex 11.2738 -5.99594 0
      vertex 11.0711 -6.275 0
    endloop
  endfacet
  facet normal 0 0 -1
    outer loop
      vertex 8.4 8 0
      vertex 11.0711 -6.275 0
      vertex 10.9308 -6.59012 0
    endloop
  endfacet
  facet normal 0 0 -1
    outer loop
      vertex 8.4 8 0
      vertex 10.9308 -6.59012 0
      vertex 10.859 -6.92753 0
    endloop
  endfacet
  facet normal 0 0 -1
    outer loop
      vertex 8.35302 8.44701 0
      vertex 16.647 8.44701 0
      vertex 8.4 8 0
    endloop
  endfacet
  facet normal 0 0 -1
    outer loop
      vertex 16.647 8.44701 0
      vertex 8.35302 8.44701 0
      vertex 16.7859 8.87448 0
    endloop
  endfacet
  facet normal 0 0 -1
    outer loop
      vertex 8.21412 8.87448 0
      vertex 16.7859 8.87448 0
      vertex 8.35302 8.44701 0
    endloop
  endfacet
  facet normal 0 0 -1
    outer loop
      vertex 16.7859 8.87448 0
      vertex 8.21412 8.87448 0
      vertex 17.0106 9.26374 0
    endloop
  endfacet
  facet normal 0 0 -1
    outer loop
      vertex 7.98939 9.26374 0
      vertex 17.0106 9.26374 0
      vertex 8.21412 8.87448 0
    endloop
  endfacet
  facet normal 0 0 -1
    outer loop
      vertex 17.0106 9.26374 0
      vertex 7.98939 9.26374 0
      vertex 17.3114 9.59776 0
    endloop
  endfacet
  facet normal 0 0 -1
    outer loop
      vertex 7.68863 9.59776 0
      vertex 17.3114 9.59776 0
      vertex 7.98939 9.26374 0
    endloop
  endfacet
  facet normal 0 0 -1
    outer loop
      vertex 7.325 9.86195 0
      vertex 17.3114 9.59776 0
      vertex 7.68863 9.59776 0
    endloop
  endfacet
  facet normal 0 0 -1
    outer loop
      vertex 17.675 9.86195 0
      vertex 7.325 9.86195 0
      vertex 6.91439 10.0448 0
    endloop
  endfacet
  facet normal 0 0 -1
    outer loop
      vertex 18.0856 10.0448 0
      vertex 6.91439 10.0448 0
      vertex 25 16 0
    endloop
  endfacet
  facet normal 0 0 -1
    outer loop
      vertex 0 16 0
      vertex 6.91439 10.0448 0
      vertex 6.47474 10.1382 0
    endloop
  endfacet
  facet normal 0 0 -1
    outer loop
      vertex 0 16 0
      vertex 6.47474 10.1382 0
      vertex 6.02526 10.1382 0
    endloop
  endfacet
  facet normal 0 0 -1
    outer loop
      vertex 0 16 0
      vertex 6.02526 10.1382 0
      vertex 5.58561 10.0448 0
    endloop
  endfacet
  facet normal 0 0 -1
    outer loop
      vertex 0 16 0
      vertex 4.1 8 0
      vertex 0 0 0
    endloop
  endfacet
  facet normal 0 0 -1
    outer loop
      vertex 4.1 8 0
      vertex 0 16 0
      vertex 4.14698 8.44701 0
    endloop
  endfacet
  facet normal 0 0 -1
    outer loop
      vertex 6.91439 10.0448 0
      vertex 0 16 0
      vertex 25 16 0
    endloop
  endfacet
  facet normal 0 0 -1
    outer loop
      vertex 5.175 9.86195 0
      vertex 0 16 0
      vertex 5.58561 10.0448 0
    endloop
  endfacet
  facet normal 0 0 -1
    outer loop
      vertex 4.81137 9.59776 0
      vertex 0 16 0
      vertex 5.175 9.86195 0
    endloop
  endfacet
  facet normal 0 0 -1
    outer loop
      vertex 4.51061 9.26374 0
      vertex 0 16 0
      vertex 4.81137 9.59776 0
    endloop
  endfacet
  facet normal 0 0 -1
    outer loop
      vertex 4.28588 8.87448 0
      vertex 0 16 0
      vertex 4.51061 9.26374 0
    endloop
  endfacet
  facet normal 0 0 -1
    outer loop
      vertex 4.14698 8.44701 0
      vertex 0 16 0
      vertex 4.28588 8.87448 0
    endloop
  endfacet
  facet normal 0 -1 0
    outer loop
      vertex 18 0 0
      vertex 25 0 4
      vertex 18 0 4
    endloop
  endfacet
  facet normal 0 -1 -0
    outer loop
      vertex 25 0 4
      vertex 18 0 0
      vertex 25 0 0
    endloop
  endfacet
  facet normal 0 -1 0
    outer loop
      vertex 0 0 0
      vertex 7 0 4
      vertex 0 0 4
    endloop
  endfacet
  facet normal 0 -1 -0
    outer loop
      vertex 7 0 4
      vertex 0 0 0
      vertex 7 0 0
    endloop
  endfacet
  facet normal -0.994523 -0.104523 0
    outer loop
      vertex 8.4 8 0
      vertex 8.35302 8.44701 4
      vertex 8.35302 8.44701 0
    endloop
  endfacet
  facet normal -0.994523 -0.104523 0
    outer loop
      vertex 8.35302 8.44701 4
      vertex 8.4 8 0
      vertex 8.4 8 4
    endloop
  endfacet
  facet normal 0.207804 -0.97817 0
    outer loop
      vertex 5.58561 10.0448 0
      vertex 6.02526 10.1382 4
      vertex 5.58561 10.0448 4
    endloop
  endfacet
  facet normal 0.207804 -0.97817 0
    outer loop
      vertex 6.02526 10.1382 4
      vertex 5.58561 10.0448 0
      vertex 6.02526 10.1382 0
    endloop
  endfacet
  facet normal -0.207911 0.978148 0
    outer loop
      vertex 6.91439 5.95523 0
      vertex 6.47474 5.86178 4
      vertex 6.91439 5.95523 4
    endloop
  endfacet
  facet normal -0.207911 0.978148 0
    outer loop
      vertex 6.47474 5.86178 4
      vertex 6.91439 5.95523 0
      vertex 6.47474 5.86178 0
    endloop
  endfacet
  facet normal -0.587781 -0.80902 0
    outer loop
      vertex 7.325 9.86195 0
      vertex 7.68863 9.59776 4
      vertex 7.325 9.86195 4
    endloop
  endfacet
  facet normal -0.587781 -0.80902 -0
    outer loop
      vertex 7.68863 9.59776 4
      vertex 7.325 9.86195 0
      vertex 7.68863 9.59776 0
    endloop
  endfacet
  facet normal 0.743137 -0.669139 0
    outer loop
      vertex 4.51061 9.26374 4
      vertex 4.81137 9.59776 0
      vertex 4.81137 9.59776 4
    endloop
  endfacet
  facet normal 0.743137 -0.669139 0
    outer loop
      vertex 4.81137 9.59776 0
      vertex 4.51061 9.26374 4
      vertex 4.51061 9.26374 0
    endloop
  endfacet
  facet normal 0.587781 -0.80902 0
    outer loop
      vertex 4.81137 9.59776 0
      vertex 5.175 9.86195 4
      vertex 4.81137 9.59776 4
    endloop
  endfacet
  facet normal 0.587781 -0.80902 0
    outer loop
      vertex 5.175 9.86195 4
      vertex 4.81137 9.59776 0
      vertex 5.175 9.86195 0
    endloop
  endfacet
  facet normal -0.866034 -0.499984 0
    outer loop
      vertex 8.21412 8.87448 0
      vertex 7.98939 9.26374 4
      vertex 7.98939 9.26374 0
    endloop
  endfacet
  facet normal -0.866034 -0.499984 0
    outer loop
      vertex 7.98939 9.26374 4
      vertex 8.21412 8.87448 0
      vertex 8.21412 8.87448 4
    endloop
  endfacet
  facet normal -0.951052 -0.30903 0
    outer loop
      vertex 8.35302 8.44701 0
      vertex 8.21412 8.87448 4
      vertex 8.21412 8.87448 0
    endloop
  endfacet
  facet normal -0.951052 -0.30903 0
    outer loop
      vertex 8.21412 8.87448 4
      vertex 8.35302 8.44701 0
      vertex 8.35302 8.44701 4
    endloop
  endfacet
  facet normal -0.743137 -0.669139 0
    outer loop
      vertex 7.98939 9.26374 0
      vertex 7.68863 9.59776 4
      vertex 7.68863 9.59776 0
    endloop
  endfacet
  facet normal -0.743137 -0.669139 0
    outer loop
      vertex 7.68863 9.59776 4
      vertex 7.98939 9.26374 0
      vertex 7.98939 9.26374 4
    endloop
  endfacet
  facet normal -0.207804 -0.97817 0
    outer loop
      vertex 6.47474 10.1382 0
      vertex 6.91439 10.0448 4
      vertex 6.47474 10.1382 4
    endloop
  endfacet
  facet normal -0.207804 -0.97817 -0
    outer loop
      vertex 6.91439 10.0448 4
      vertex 6.47474 10.1382 0
      vertex 6.91439 10.0448 0
    endloop
  endfacet
  facet normal 0 -1 0
    outer loop
      vertex 6.02526 10.1382 0
      vertex 6.47474 10.1382 4
      vertex 6.02526 10.1382 4
    endloop
  endfacet
  facet normal 0 -1 -0
    outer loop
      vertex 6.47474 10.1382 4
      vertex 6.02526 10.1382 0
      vertex 6.47474 10.1382 0
    endloop
  endfacet
  facet normal -0.406801 -0.913517 0
    outer loop
      vertex 6.91439 10.0448 0
      vertex 7.325 9.86195 4
      vertex 6.91439 10.0448 4
    endloop
  endfacet
  facet normal -0.406801 -0.913517 -0
    outer loop
      vertex 7.325 9.86195 4
      vertex 6.91439 10.0448 0
      vertex 7.325 9.86195 0
    endloop
  endfacet
  facet normal 0.951052 -0.30903 0
    outer loop
      vertex 4.14698 8.44701 4
      vertex 4.28588 8.87448 0
      vertex 4.28588 8.87448 4
    endloop
  endfacet
  facet normal 0.951052 -0.30903 0
    outer loop
      vertex 4.28588 8.87448 0
      vertex 4.14698 8.44701 4
      vertex 4.14698 8.44701 0
    endloop
  endfacet
  facet normal 0.866034 -0.499984 0
    outer loop
      vertex 4.28588 8.87448 4
      vertex 4.51061 9.26374 0
      vertex 4.51061 9.26374 4
    endloop
  endfacet
  facet normal 0.866034 -0.499984 0
    outer loop
      vertex 4.51061 9.26374 0
      vertex 4.28588 8.87448 4
      vertex 4.28588 8.87448 0
    endloop
  endfacet
  facet normal 0.994523 -0.104523 0
    outer loop
      vertex 4.1 8 4
      vertex 4.14698 8.44701 0
      vertex 4.14698 8.44701 4
    endloop
  endfacet
  facet normal 0.994523 -0.104523 0
    outer loop
      vertex 4.14698 8.44701 0
      vertex 4.1 8 4
      vertex 4.1 8 0
    endloop
  endfacet
  facet normal 0.406801 -0.913517 0
    outer loop
      vertex 5.175 9.86195 0
      vertex 5.58561 10.0448 4
      vertex 5.175 9.86195 4
    endloop
  endfacet
  facet normal 0.406801 -0.913517 0
    outer loop
      vertex 5.58561 10.0448 4
      vertex 5.175 9.86195 0
      vertex 5.58561 10.0448 0
    endloop
  endfacet
  facet normal -0.994523 0.104523 0
    outer loop
      vertex 8.35302 7.55299 0
      vertex 8.4 8 4
      vertex 8.4 8 0
    endloop
  endfacet
  facet normal -0.994523 0.104523 0
    outer loop
      vertex 8.4 8 4
      vertex 8.35302 7.55299 0
      vertex 8.35302 7.55299 4
    endloop
  endfacet
  facet normal -0.743137 0.669139 0
    outer loop
      vertex 7.68863 6.40224 0
      vertex 7.98939 6.73626 4
      vertex 7.98939 6.73626 0
    endloop
  endfacet
  facet normal -0.743137 0.669139 0
    outer loop
      vertex 7.98939 6.73626 4
      vertex 7.68863 6.40224 0
      vertex 7.68863 6.40224 4
    endloop
  endfacet
  facet normal 0.994523 0.104523 0
    outer loop
      vertex 4.14698 7.55299 4
      vertex 4.1 8 0
      vertex 4.1 8 4
    endloop
  endfacet
  facet normal 0.994523 0.104523 0
    outer loop
      vertex 4.1 8 0
      vertex 4.14698 7.55299 4
      vertex 4.14698 7.55299 0
    endloop
  endfacet
  facet normal 0.743137 0.669139 0
    outer loop
      vertex 4.81137 6.40224 4
      vertex 4.51061 6.73626 0
      vertex 4.51061 6.73626 4
    endloop
  endfacet
  facet normal 0.743137 0.669139 0
    outer loop
      vertex 4.51061 6.73626 0
      vertex 4.81137 6.40224 4
      vertex 4.81137 6.40224 0
    endloop
  endfacet
  facet normal -0.951052 0.30903 0
    outer loop
      vertex 8.21412 7.12552 0
      vertex 8.35302 7.55299 4
      vertex 8.35302 7.55299 0
    endloop
  endfacet
  facet normal -0.951052 0.30903 0
    outer loop
      vertex 8.35302 7.55299 4
      vertex 8.21412 7.12552 0
      vertex 8.21412 7.12552 4
    endloop
  endfacet
  facet normal -0.866034 0.499984 0
    outer loop
      vertex 7.98939 6.73626 0
      vertex 8.21412 7.12552 4
      vertex 8.21412 7.12552 0
    endloop
  endfacet
  facet normal -0.866034 0.499984 0
    outer loop
      vertex 8.21412 7.12552 4
      vertex 7.98939 6.73626 0
      vertex 7.98939 6.73626 4
    endloop
  endfacet
  facet normal 0.207911 0.978148 -0
    outer loop
      vertex 6.02526 5.86178 0
      vertex 5.58561 5.95523 4
      vertex 6.02526 5.86178 4
    endloop
  endfacet
  facet normal 0.207911 0.978148 0
    outer loop
      vertex 5.58561 5.95523 4
      vertex 6.02526 5.86178 0
      vertex 5.58561 5.95523 0
    endloop
  endfacet
  facet normal 0.587781 0.80902 -0
    outer loop
      vertex 5.175 6.13805 0
      vertex 4.81137 6.40224 4
      vertex 5.175 6.13805 4
    endloop
  endfacet
  facet normal 0.587781 0.80902 0
    outer loop
      vertex 4.81137 6.40224 4
      vertex 5.175 6.13805 0
      vertex 4.81137 6.40224 0
    endloop
  endfacet
  facet normal 0.866034 0.499984 0
    outer loop
      vertex 4.51061 6.73626 4
      vertex 4.28588 7.12552 0
      vertex 4.28588 7.12552 4
    endloop
  endfacet
  facet normal 0.866034 0.499984 0
    outer loop
      vertex 4.28588 7.12552 0
      vertex 4.51061 6.73626 4
      vertex 4.51061 6.73626 0
    endloop
  endfacet
  facet normal 0.951052 0.30903 0
    outer loop
      vertex 4.28588 7.12552 4
      vertex 4.14698 7.55299 0
      vertex 4.14698 7.55299 4
    endloop
  endfacet
  facet normal 0.951052 0.30903 0
    outer loop
      vertex 4.14698 7.55299 0
      vertex 4.28588 7.12552 4
      vertex 4.28588 7.12552 0
    endloop
  endfacet
  facet normal -0.587781 0.80902 0
    outer loop
      vertex 7.68863 6.40224 0
      vertex 7.325 6.13805 4
      vertex 7.68863 6.40224 4
    endloop
  endfacet
  facet normal -0.587781 0.80902 0
    outer loop
      vertex 7.325 6.13805 4
      vertex 7.68863 6.40224 0
      vertex 7.325 6.13805 0
    endloop
  endfacet
  facet normal -0.406745 0.913542 0
    outer loop
      vertex 7.325 6.13805 0
      vertex 6.91439 5.95523 4
      vertex 7.325 6.13805 4
    endloop
  endfacet
  facet normal -0.406745 0.913542 0
    outer loop
      vertex 6.91439 5.95523 4
      vertex 7.325 6.13805 0
      vertex 6.91439 5.95523 0
    endloop
  endfacet
  facet normal 0.406745 0.913542 -0
    outer loop
      vertex 5.58561 5.95523 0
      vertex 5.175 6.13805 4
      vertex 5.58561 5.95523 4
    endloop
  endfacet
  facet normal 0.406745 0.913542 0
    outer loop
      vertex 5.175 6.13805 4
      vertex 5.58561 5.95523 0
      vertex 5.175 6.13805 0
    endloop
  endfacet
  facet normal 0 1 -0
    outer loop
      vertex 6.47474 5.86178 0
      vertex 6.02526 5.86178 4
      vertex 6.47474 5.86178 4
    endloop
  endfacet
  facet normal 0 1 0
    outer loop
      vertex 6.02526 5.86178 4
      vertex 6.47474 5.86178 0
      vertex 6.02526 5.86178 0
    endloop
  endfacet
  facet normal -0.994518 -0.104567 0
    outer loop
      vertex 20.9 8 0
      vertex 20.853 8.44701 4
      vertex 20.853 8.44701 0
    endloop
  endfacet
  facet normal -0.994518 -0.104567 0
    outer loop
      vertex 20.853 8.44701 4
      vertex 20.9 8 0
      vertex 20.9 8 4
    endloop
  endfacet
  facet normal 0.207782 -0.978175 0
    outer loop
      vertex 18.0856 10.0448 0
      vertex 18.5253 10.1382 4
      vertex 18.0856 10.0448 4
    endloop
  endfacet
  facet normal 0.207782 -0.978175 0
    outer loop
      vertex 18.5253 10.1382 4
      vertex 18.0856 10.0448 0
      vertex 18.5253 10.1382 0
    endloop
  endfacet
  facet normal -0.207888 0.978153 0
    outer loop
      vertex 19.4144 5.95523 0
      vertex 18.9747 5.86178 4
      vertex 19.4144 5.95523 4
    endloop
  endfacet
  facet normal -0.207888 0.978153 0
    outer loop
      vertex 18.9747 5.86178 4
      vertex 19.4144 5.95523 0
      vertex 18.9747 5.86178 0
    endloop
  endfacet
  facet normal -0.587813 -0.808997 0
    outer loop
      vertex 19.825 9.86195 0
      vertex 20.1886 9.59776 4
      vertex 19.825 9.86195 4
    endloop
  endfacet
  facet normal -0.587813 -0.808997 -0
    outer loop
      vertex 20.1886 9.59776 4
      vertex 19.825 9.86195 0
      vertex 20.1886 9.59776 0
    endloop
  endfacet
  facet normal 0.743093 -0.669188 0
    outer loop
      vertex 17.0106 9.26374 4
      vertex 17.3114 9.59776 0
      vertex 17.3114 9.59776 4
    endloop
  endfacet
  facet normal 0.743093 -0.669188 0
    outer loop
      vertex 17.3114 9.59776 0
      vertex 17.0106 9.26374 4
      vertex 17.0106 9.26374 0
    endloop
  endfacet
  facet normal 0.587813 -0.808997 0
    outer loop
      vertex 17.3114 9.59776 0
      vertex 17.675 9.86195 4
      vertex 17.3114 9.59776 4
    endloop
  endfacet
  facet normal 0.587813 -0.808997 0
    outer loop
      vertex 17.675 9.86195 4
      vertex 17.3114 9.59776 0
      vertex 17.675 9.86195 0
    endloop
  endfacet
  facet normal -0.866063 -0.499934 0
    outer loop
      vertex 20.7141 8.87448 0
      vertex 20.4894 9.26374 4
      vertex 20.4894 9.26374 0
    endloop
  endfacet
  facet normal -0.866063 -0.499934 0
    outer loop
      vertex 20.4894 9.26374 4
      vertex 20.7141 8.87448 0
      vertex 20.7141 8.87448 4
    endloop
  endfacet
  facet normal -0.951052 -0.30903 0
    outer loop
      vertex 20.853 8.44701 0
      vertex 20.7141 8.87448 4
      vertex 20.7141 8.87448 0
    endloop
  endfacet
  facet normal -0.951052 -0.30903 0
    outer loop
      vertex 20.7141 8.87448 4
      vertex 20.853 8.44701 0
      vertex 20.853 8.44701 4
    endloop
  endfacet
  facet normal -0.743093 -0.669188 0
    outer loop
      vertex 20.4894 9.26374 0
      vertex 20.1886 9.59776 4
      vertex 20.1886 9.59776 0
    endloop
  endfacet
  facet normal -0.743093 -0.669188 0
    outer loop
      vertex 20.1886 9.59776 4
      vertex 20.4894 9.26374 0
      vertex 20.4894 9.26374 4
    endloop
  endfacet
  facet normal -0.207782 -0.978175 0
    outer loop
      vertex 18.9747 10.1382 0
      vertex 19.4144 10.0448 4
      vertex 18.9747 10.1382 4
    endloop
  endfacet
  facet normal -0.207782 -0.978175 -0
    outer loop
      vertex 19.4144 10.0448 4
      vertex 18.9747 10.1382 0
      vertex 19.4144 10.0448 0
    endloop
  endfacet
  facet normal 0 -1 0
    outer loop
      vertex 18.5253 10.1382 0
      vertex 18.9747 10.1382 4
      vertex 18.5253 10.1382 4
    endloop
  endfacet
  facet normal 0 -1 -0
    outer loop
      vertex 18.9747 10.1382 4
      vertex 18.5253 10.1382 0
      vertex 18.9747 10.1382 0
    endloop
  endfacet
  facet normal -0.406809 -0.913513 0
    outer loop
      vertex 19.4144 10.0448 0
      vertex 19.825 9.86195 4
      vertex 19.4144 10.0448 4
    endloop
  endfacet
  facet normal -0.406809 -0.913513 -0
    outer loop
      vertex 19.825 9.86195 4
      vertex 19.4144 10.0448 0
      vertex 19.825 9.86195 0
    endloop
  endfacet
  facet normal 0.951052 -0.30903 0
    outer loop
      vertex 16.647 8.44701 4
      vertex 16.7859 8.87448 0
      vertex 16.7859 8.87448 4
    endloop
  endfacet
  facet normal 0.951052 -0.30903 0
    outer loop
      vertex 16.7859 8.87448 0
      vertex 16.647 8.44701 4
      vertex 16.647 8.44701 0
    endloop
  endfacet
  facet normal 0.866063 -0.499934 0
    outer loop
      vertex 16.7859 8.87448 4
      vertex 17.0106 9.26374 0
      vertex 17.0106 9.26374 4
    endloop
  endfacet
  facet normal 0.866063 -0.499934 0
    outer loop
      vertex 17.0106 9.26374 0
      vertex 16.7859 8.87448 4
      vertex 16.7859 8.87448 0
    endloop
  endfacet
  facet normal 0.994518 -0.104567 0
    outer loop
      vertex 16.6 8 4
      vertex 16.647 8.44701 0
      vertex 16.647 8.44701 4
    endloop
  endfacet
  facet normal 0.994518 -0.104567 0
    outer loop
      vertex 16.647 8.44701 0
      vertex 16.6 8 4
      vertex 16.6 8 0
    endloop
  endfacet
  facet normal 0.406809 -0.913513 0
    outer loop
      vertex 17.675 9.86195 0
      vertex 18.0856 10.0448 4
      vertex 17.675 9.86195 4
    endloop
  endfacet
  facet normal 0.406809 -0.913513 0
    outer loop
      vertex 18.0856 10.0448 4
      vertex 17.675 9.86195 0
      vertex 18.0856 10.0448 0
    endloop
  endfacet
  facet normal -0.994518 0.104567 0
    outer loop
      vertex 20.853 7.55299 0
      vertex 20.9 8 4
      vertex 20.9 8 0
    endloop
  endfacet
  facet normal -0.994518 0.104567 0
    outer loop
      vertex 20.9 8 4
      vertex 20.853 7.55299 0
      vertex 20.853 7.55299 4
    endloop
  endfacet
  facet normal -0.743093 0.669188 0
    outer loop
      vertex 20.1886 6.40224 0
      vertex 20.4894 6.73626 4
      vertex 20.4894 6.73626 0
    endloop
  endfacet
  facet normal -0.743093 0.669188 0
    outer loop
      vertex 20.4894 6.73626 4
      vertex 20.1886 6.40224 0
      vertex 20.1886 6.40224 4
    endloop
  endfacet
  facet normal 0.994518 0.104567 0
    outer loop
      vertex 16.647 7.55299 4
      vertex 16.6 8 0
      vertex 16.6 8 4
    endloop
  endfacet
  facet normal 0.994518 0.104567 0
    outer loop
      vertex 16.6 8 0
      vertex 16.647 7.55299 4
      vertex 16.647 7.55299 0
    endloop
  endfacet
  facet normal 0.743093 0.669188 0
    outer loop
      vertex 17.3114 6.40224 4
      vertex 17.0106 6.73626 0
      vertex 17.0106 6.73626 4
    endloop
  endfacet
  facet normal 0.743093 0.669188 0
    outer loop
      vertex 17.0106 6.73626 0
      vertex 17.3114 6.40224 4
      vertex 17.3114 6.40224 0
    endloop
  endfacet
  facet normal -0.951052 0.30903 0
    outer loop
      vertex 20.7141 7.12552 0
      vertex 20.853 7.55299 4
      vertex 20.853 7.55299 0
    endloop
  endfacet
  facet normal -0.951052 0.30903 0
    outer loop
      vertex 20.853 7.55299 4
      vertex 20.7141 7.12552 0
      vertex 20.7141 7.12552 4
    endloop
  endfacet
  facet normal -0.866063 0.499934 0
    outer loop
      vertex 20.4894 6.73626 0
      vertex 20.7141 7.12552 4
      vertex 20.7141 7.12552 0
    endloop
  endfacet
  facet normal -0.866063 0.499934 0
    outer loop
      vertex 20.7141 7.12552 4
      vertex 20.4894 6.73626 0
      vertex 20.4894 6.73626 4
    endloop
  endfacet
  facet normal 0.207888 0.978153 -0
    outer loop
      vertex 18.5253 5.86178 0
      vertex 18.0856 5.95523 4
      vertex 18.5253 5.86178 4
    endloop
  endfacet
  facet normal 0.207888 0.978153 0
    outer loop
      vertex 18.0856 5.95523 4
      vertex 18.5253 5.86178 0
      vertex 18.0856 5.95523 0
    endloop
  endfacet
  facet normal 0.587813 0.808997 -0
    outer loop
      vertex 17.675 6.13805 0
      vertex 17.3114 6.40224 4
      vertex 17.675 6.13805 4
    endloop
  endfacet
  facet normal 0.587813 0.808997 0
    outer loop
      vertex 17.3114 6.40224 4
      vertex 17.675 6.13805 0
      vertex 17.3114 6.40224 0
    endloop
  endfacet
  facet normal 0.866063 0.499934 0
    outer loop
      vertex 17.0106 6.73626 4
      vertex 16.7859 7.12552 0
      vertex 16.7859 7.12552 4
    endloop
  endfacet
  facet normal 0.866063 0.499934 0
    outer loop
      vertex 16.7859 7.12552 0
      vertex 17.0106 6.73626 4
      vertex 17.0106 6.73626 0
    endloop
  endfacet
  facet normal 0.951052 0.30903 0
    outer loop
      vertex 16.7859 7.12552 4
      vertex 16.647 7.55299 0
      vertex 16.647 7.55299 4
    endloop
  endfacet
  facet normal 0.951052 0.30903 0
    outer loop
      vertex 16.647 7.55299 0
      vertex 16.7859 7.12552 4
      vertex 16.7859 7.12552 0
    endloop
  endfacet
  facet normal -0.587813 0.808997 0
    outer loop
      vertex 20.1886 6.40224 0
      vertex 19.825 6.13805 4
      vertex 20.1886 6.40224 4
    endloop
  endfacet
  facet normal -0.587813 0.808997 0
    outer loop
      vertex 19.825 6.13805 4
      vertex 20.1886 6.40224 0
      vertex 19.825 6.13805 0
    endloop
  endfacet
  facet normal -0.406754 0.913538 0
    outer loop
      vertex 19.825 6.13805 0
      vertex 19.4144 5.95523 4
      vertex 19.825 6.13805 4
    endloop
  endfacet
  facet normal -0.406754 0.913538 0
    outer loop
      vertex 19.4144 5.95523 4
      vertex 19.825 6.13805 0
      vertex 19.4144 5.95523 0
    endloop
  endfacet
  facet normal 0.406754 0.913538 -0
    outer loop
      vertex 18.0856 5.95523 0
      vertex 17.675 6.13805 4
      vertex 18.0856 5.95523 4
    endloop
  endfacet
  facet normal 0.406754 0.913538 0
    outer loop
      vertex 17.675 6.13805 4
      vertex 18.0856 5.95523 0
      vertex 17.675 6.13805 0
    endloop
  endfacet
  facet normal 0 1 -0
    outer loop
      vertex 18.9747 5.86178 0
      vertex 18.5253 5.86178 4
      vertex 18.9747 5.86178 4
    endloop
  endfacet
  facet normal 0 1 0
    outer loop
      vertex 18.5253 5.86178 4
      vertex 18.9747 5.86178 0
      vertex 18.5253 5.86178 0
    endloop
  endfacet
  facet normal 0 -1 0
    outer loop
      vertex 7 -29 0
      vertex 18 -29 4
      vertex 7 -29 4
    endloop
  endfacet
  facet normal 0 -1 -0
    outer loop
      vertex 18 -29 4
      vertex 7 -29 0
      vertex 18 -29 0
    endloop
  endfacet
  facet normal 1 -0 0
    outer loop
      vertex 18 -29 4
      vertex 18 0 0
      vertex 18 0 4
    endloop
  endfacet
  facet normal 1 0 0
    outer loop
      vertex 18 0 0
      vertex 18 -29 4
      vertex 18 -29 0
    endloop
  endfacet
  facet normal -1 0 0
    outer loop
      vertex 7 -29 0
      vertex 7 0 4
      vertex 7 0 0
    endloop
  endfacet
  facet normal -1 -0 0
    outer loop
      vertex 7 0 4
      vertex 7 -29 0
      vertex 7 -29 4
    endloop
  endfacet
  facet normal 0.10464 -0.99451 0
    outer loop
      vertex 12.1569 -24.2861 0
      vertex 12.5 -24.25 4
      vertex 12.1569 -24.2861 4
    endloop
  endfacet
  facet normal 0.10464 -0.99451 0
    outer loop
      vertex 12.5 -24.25 4
      vertex 12.1569 -24.2861 0
      vertex 12.5 -24.25 0
    endloop
  endfacet
  facet normal 1 -0 0
    outer loop
      vertex 10.859 -26.0725 4
      vertex 10.859 -25.7275 0
      vertex 10.859 -25.7275 4
    endloop
  endfacet
  facet normal 1 0 0
    outer loop
      vertex 10.859 -25.7275 0
      vertex 10.859 -26.0725 4
      vertex 10.859 -26.0725 0
    endloop
  endfacet
  facet normal 0.669029 -0.743236 0
    outer loop
      vertex 11.2738 -24.7959 0
      vertex 11.5302 -24.5651 4
      vertex 11.2738 -24.7959 4
    endloop
  endfacet
  facet normal 0.669029 -0.743236 0
    outer loop
      vertex 11.5302 -24.5651 4
      vertex 11.2738 -24.7959 0
      vertex 11.5302 -24.5651 0
    endloop
  endfacet
  facet normal 0.309086 -0.951034 0
    outer loop
      vertex 11.8289 -24.3927 0
      vertex 12.1569 -24.2861 4
      vertex 11.8289 -24.3927 4
    endloop
  endfacet
  facet normal 0.309086 -0.951034 0
    outer loop
      vertex 12.1569 -24.2861 4
      vertex 11.8289 -24.3927 0
      vertex 12.1569 -24.2861 0
    endloop
  endfacet
  facet normal 0.669029 0.743236 -0
    outer loop
      vertex 11.5302 -27.2349 0
      vertex 11.2738 -27.0041 4
      vertex 11.5302 -27.2349 4
    endloop
  endfacet
  facet normal 0.669029 0.743236 0
    outer loop
      vertex 11.2738 -27.0041 4
      vertex 11.5302 -27.2349 0
      vertex 11.2738 -27.0041 0
    endloop
  endfacet
  facet normal 0.913536 0.406757 0
    outer loop
      vertex 11.0711 -26.725 4
      vertex 10.9308 -26.4099 0
      vertex 10.9308 -26.4099 4
    endloop
  endfacet
  facet normal 0.913536 0.406757 0
    outer loop
      vertex 10.9308 -26.4099 0
      vertex 11.0711 -26.725 4
      vertex 11.0711 -26.725 0
    endloop
  endfacet
  facet normal -0.669029 -0.743236 0
    outer loop
      vertex 13.4698 -24.5651 0
      vertex 13.7262 -24.7959 4
      vertex 13.4698 -24.5651 4
    endloop
  endfacet
  facet normal -0.669029 -0.743236 -0
    outer loop
      vertex 13.7262 -24.7959 4
      vertex 13.4698 -24.5651 0
      vertex 13.7262 -24.7959 0
    endloop
  endfacet
  facet normal -0.499881 -0.866094 0
    outer loop
      vertex 13.1711 -24.3927 0
      vertex 13.4698 -24.5651 4
      vertex 13.1711 -24.3927 4
    endloop
  endfacet
  facet normal -0.499881 -0.866094 -0
    outer loop
      vertex 13.4698 -24.5651 4
      vertex 13.1711 -24.3927 0
      vertex 13.4698 -24.5651 0
    endloop
  endfacet
  facet normal 0.499881 -0.866094 0
    outer loop
      vertex 11.5302 -24.5651 0
      vertex 11.8289 -24.3927 4
      vertex 11.5302 -24.5651 4
    endloop
  endfacet
  facet normal 0.499881 -0.866094 0
    outer loop
      vertex 11.8289 -24.3927 4
      vertex 11.5302 -24.5651 0
      vertex 11.8289 -24.3927 0
    endloop
  endfacet
  facet normal 0.913536 -0.406757 0
    outer loop
      vertex 10.9308 -25.3901 4
      vertex 11.0711 -25.075 0
      vertex 11.0711 -25.075 4
    endloop
  endfacet
  facet normal 0.913536 -0.406757 0
    outer loop
      vertex 11.0711 -25.075 0
      vertex 10.9308 -25.3901 4
      vertex 10.9308 -25.3901 0
    endloop
  endfacet
  facet normal 0.978098 -0.208143 0
    outer loop
      vertex 10.859 -25.7275 4
      vertex 10.9308 -25.3901 0
      vertex 10.9308 -25.3901 4
    endloop
  endfacet
  facet normal 0.978098 -0.208143 0
    outer loop
      vertex 10.9308 -25.3901 0
      vertex 10.859 -25.7275 4
      vertex 10.859 -25.7275 0
    endloop
  endfacet
  facet normal 0.809125 -0.587637 0
    outer loop
      vertex 11.0711 -25.075 4
      vertex 11.2738 -24.7959 0
      vertex 11.2738 -24.7959 4
    endloop
  endfacet
  facet normal 0.809125 -0.587637 0
    outer loop
      vertex 11.2738 -24.7959 0
      vertex 11.0711 -25.075 4
      vertex 11.0711 -25.075 0
    endloop
  endfacet
  facet normal 0.308824 0.951119 -0
    outer loop
      vertex 12.1569 -27.5139 0
      vertex 11.8289 -27.4074 4
      vertex 12.1569 -27.5139 4
    endloop
  endfacet
  facet normal 0.308824 0.951119 0
    outer loop
      vertex 11.8289 -27.4074 4
      vertex 12.1569 -27.5139 0
      vertex 11.8289 -27.4074 0
    endloop
  endfacet
  facet normal 0.500099 0.865968 -0
    outer loop
      vertex 11.8289 -27.4074 0
      vertex 11.5302 -27.2349 4
      vertex 11.8289 -27.4074 4
    endloop
  endfacet
  facet normal 0.500099 0.865968 0
    outer loop
      vertex 11.5302 -27.2349 4
      vertex 11.8289 -27.4074 0
      vertex 11.5302 -27.2349 0
    endloop
  endfacet
  facet normal 0.10464 0.99451 -0
    outer loop
      vertex 12.5 -27.55 0
      vertex 12.1569 -27.5139 4
      vertex 12.5 -27.55 4
    endloop
  endfacet
  facet normal 0.10464 0.99451 0
    outer loop
      vertex 12.1569 -27.5139 4
      vertex 12.5 -27.55 0
      vertex 12.1569 -27.5139 0
    endloop
  endfacet
  facet normal 0.809125 0.587637 0
    outer loop
      vertex 11.2738 -27.0041 4
      vertex 11.0711 -26.725 0
      vertex 11.0711 -26.725 4
    endloop
  endfacet
  facet normal 0.809125 0.587637 0
    outer loop
      vertex 11.0711 -26.725 0
      vertex 11.2738 -27.0041 4
      vertex 11.2738 -27.0041 0
    endloop
  endfacet
  facet normal 0.978098 0.208143 0
    outer loop
      vertex 10.9308 -26.4099 4
      vertex 10.859 -26.0725 0
      vertex 10.859 -26.0725 4
    endloop
  endfacet
  facet normal 0.978098 0.208143 0
    outer loop
      vertex 10.859 -26.0725 0
      vertex 10.9308 -26.4099 4
      vertex 10.9308 -26.4099 0
    endloop
  endfacet
  facet normal -0.978098 -0.208143 0
    outer loop
      vertex 14.141 -25.7275 0
      vertex 14.0692 -25.3901 4
      vertex 14.0692 -25.3901 0
    endloop
  endfacet
  facet normal -0.978098 -0.208143 0
    outer loop
      vertex 14.0692 -25.3901 4
      vertex 14.141 -25.7275 0
      vertex 14.141 -25.7275 4
    endloop
  endfacet
  facet normal -0.809125 -0.587637 0
    outer loop
      vertex 13.9289 -25.075 0
      vertex 13.7262 -24.7959 4
      vertex 13.7262 -24.7959 0
    endloop
  endfacet
  facet normal -0.809125 -0.587637 0
    outer loop
      vertex 13.7262 -24.7959 4
      vertex 13.9289 -25.075 0
      vertex 13.9289 -25.075 4
    endloop
  endfacet
  facet normal -0.913536 0.406757 0
    outer loop
      vertex 13.9289 -26.725 0
      vertex 14.0692 -26.4099 4
      vertex 14.0692 -26.4099 0
    endloop
  endfacet
  facet normal -0.913536 0.406757 0
    outer loop
      vertex 14.0692 -26.4099 4
      vertex 13.9289 -26.725 0
      vertex 13.9289 -26.725 4
    endloop
  endfacet
  facet normal -1 0 0
    outer loop
      vertex 14.141 -26.0725 0
      vertex 14.141 -25.7275 4
      vertex 14.141 -25.7275 0
    endloop
  endfacet
  facet normal -1 -0 0
    outer loop
      vertex 14.141 -25.7275 4
      vertex 14.141 -26.0725 0
      vertex 14.141 -26.0725 4
    endloop
  endfacet
  facet normal -0.669029 0.743236 0
    outer loop
      vertex 13.7262 -27.0041 0
      vertex 13.4698 -27.2349 4
      vertex 13.7262 -27.0041 4
    endloop
  endfacet
  facet normal -0.669029 0.743236 0
    outer loop
      vertex 13.4698 -27.2349 4
      vertex 13.7262 -27.0041 0
      vertex 13.4698 -27.2349 0
    endloop
  endfacet
  facet normal -0.308824 0.951119 0
    outer loop
      vertex 13.1711 -27.4074 0
      vertex 12.8431 -27.5139 4
      vertex 13.1711 -27.4074 4
    endloop
  endfacet
  facet normal -0.308824 0.951119 0
    outer loop
      vertex 12.8431 -27.5139 4
      vertex 13.1711 -27.4074 0
      vertex 12.8431 -27.5139 0
    endloop
  endfacet
  facet normal -0.10464 0.99451 0
    outer loop
      vertex 12.8431 -27.5139 0
      vertex 12.5 -27.55 4
      vertex 12.8431 -27.5139 4
    endloop
  endfacet
  facet normal -0.10464 0.99451 0
    outer loop
      vertex 12.5 -27.55 4
      vertex 12.8431 -27.5139 0
      vertex 12.5 -27.55 0
    endloop
  endfacet
  facet normal -0.913536 -0.406757 0
    outer loop
      vertex 14.0692 -25.3901 0
      vertex 13.9289 -25.075 4
      vertex 13.9289 -25.075 0
    endloop
  endfacet
  facet normal -0.913536 -0.406757 0
    outer loop
      vertex 13.9289 -25.075 4
      vertex 14.0692 -25.3901 0
      vertex 14.0692 -25.3901 4
    endloop
  endfacet
  facet normal -0.309086 -0.951034 0
    outer loop
      vertex 12.8431 -24.2861 0
      vertex 13.1711 -24.3927 4
      vertex 12.8431 -24.2861 4
    endloop
  endfacet
  facet normal -0.309086 -0.951034 -0
    outer loop
      vertex 13.1711 -24.3927 4
      vertex 12.8431 -24.2861 0
      vertex 13.1711 -24.3927 0
    endloop
  endfacet
  facet normal -0.10464 -0.99451 0
    outer loop
      vertex 12.5 -24.25 0
      vertex 12.8431 -24.2861 4
      vertex 12.5 -24.25 4
    endloop
  endfacet
  facet normal -0.10464 -0.99451 -0
    outer loop
      vertex 12.8431 -24.2861 4
      vertex 12.5 -24.25 0
      vertex 12.8431 -24.2861 0
    endloop
  endfacet
  facet normal -0.978098 0.208143 0
    outer loop
      vertex 14.0692 -26.4099 0
      vertex 14.141 -26.0725 4
      vertex 14.141 -26.0725 0
    endloop
  endfacet
  facet normal -0.978098 0.208143 0
    outer loop
      vertex 14.141 -26.0725 4
      vertex 14.0692 -26.4099 0
      vertex 14.0692 -26.4099 4
    endloop
  endfacet
  facet normal -0.809125 0.587637 0
    outer loop
      vertex 13.7262 -27.0041 0
      vertex 13.9289 -26.725 4
      vertex 13.9289 -26.725 0
    endloop
  endfacet
  facet normal -0.809125 0.587637 0
    outer loop
      vertex 13.9289 -26.725 4
      vertex 13.7262 -27.0041 0
      vertex 13.7262 -27.0041 4
    endloop
  endfacet
  facet normal -0.500099 0.865968 0
    outer loop
      vertex 13.4698 -27.2349 0
      vertex 13.1711 -27.4074 4
      vertex 13.4698 -27.2349 4
    endloop
  endfacet
  facet normal -0.500099 0.865968 0
    outer loop
      vertex 13.1711 -27.4074 4
      vertex 13.4698 -27.2349 0
      vertex 13.1711 -27.4074 0
    endloop
  endfacet
  facet normal 0.104525 -0.994522 0
    outer loop
      vertex 12.1569 -5.48606 0
      vertex 12.5 -5.45 4
      vertex 12.1569 -5.48606 4
    endloop
  endfacet
  facet normal 0.104525 -0.994522 0
    outer loop
      vertex 12.5 -5.45 4
      vertex 12.1569 -5.48606 0
      vertex 12.5 -5.45 0
    endloop
  endfacet
  facet normal 1 -0 0
    outer loop
      vertex 10.859 -7.27247 4
      vertex 10.859 -6.92753 0
      vertex 10.859 -6.92753 4
    endloop
  endfacet
  facet normal 1 0 0
    outer loop
      vertex 10.859 -6.92753 0
      vertex 10.859 -7.27247 4
      vertex 10.859 -7.27247 0
    endloop
  endfacet
  facet normal 0.809084 -0.587692 0
    outer loop
      vertex 11.0711 -6.275 4
      vertex 11.2738 -5.99594 0
      vertex 11.2738 -5.99594 4
    endloop
  endfacet
  facet normal 0.809084 -0.587692 0
    outer loop
      vertex 11.2738 -5.99594 0
      vertex 11.0711 -6.275 4
      vertex 11.0711 -6.275 0
    endloop
  endfacet
  facet normal 0.669045 0.743222 -0
    outer loop
      vertex 11.5302 -8.43488 0
      vertex 11.2738 -8.20407 4
      vertex 11.5302 -8.43488 4
    endloop
  endfacet
  facet normal 0.669045 0.743222 0
    outer loop
      vertex 11.2738 -8.20407 4
      vertex 11.5302 -8.43488 0
      vertex 11.2738 -8.20407 0
    endloop
  endfacet
  facet normal 0.913546 0.406736 0
    outer loop
      vertex 11.0711 -7.925 4
      vertex 10.9308 -7.60988 0
      vertex 10.9308 -7.60988 4
    endloop
  endfacet
  facet normal 0.913546 0.406736 0
    outer loop
      vertex 10.9308 -7.60988 0
      vertex 11.0711 -7.925 4
      vertex 11.0711 -7.925 0
    endloop
  endfacet
  facet normal -0.669061 -0.743208 0
    outer loop
      vertex 13.4698 -5.76512 0
      vertex 13.7262 -5.99594 4
      vertex 13.4698 -5.76512 4
    endloop
  endfacet
  facet normal -0.669061 -0.743208 -0
    outer loop
      vertex 13.7262 -5.99594 4
      vertex 13.4698 -5.76512 0
      vertex 13.7262 -5.99594 0
    endloop
  endfacet
  facet normal -0.500034 -0.866006 0
    outer loop
      vertex 13.1711 -5.59265 0
      vertex 13.4698 -5.76512 4
      vertex 13.1711 -5.59265 4
    endloop
  endfacet
  facet normal -0.500034 -0.866006 -0
    outer loop
      vertex 13.4698 -5.76512 4
      vertex 13.1711 -5.59265 0
      vertex 13.4698 -5.76512 0
    endloop
  endfacet
  facet normal -0.30906 0.951043 0
    outer loop
      vertex 13.1711 -8.60735 0
      vertex 12.8431 -8.71394 4
      vertex 13.1711 -8.60735 4
    endloop
  endfacet
  facet normal -0.30906 0.951043 0
    outer loop
      vertex 12.8431 -8.71394 4
      vertex 13.1711 -8.60735 0
      vertex 12.8431 -8.71394 0
    endloop
  endfacet
  facet normal 0.500034 -0.866006 0
    outer loop
      vertex 11.5302 -5.76512 0
      vertex 11.8289 -5.59265 4
      vertex 11.5302 -5.76512 4
    endloop
  endfacet
  facet normal 0.500034 -0.866006 0
    outer loop
      vertex 11.8289 -5.59265 4
      vertex 11.5302 -5.76512 0
      vertex 11.8289 -5.59265 0
    endloop
  endfacet
  facet normal 0.30906 -0.951043 0
    outer loop
      vertex 11.8289 -5.59265 0
      vertex 12.1569 -5.48606 4
      vertex 11.8289 -5.59265 4
    endloop
  endfacet
  facet normal 0.30906 -0.951043 0
    outer loop
      vertex 12.1569 -5.48606 4
      vertex 11.8289 -5.59265 0
      vertex 12.1569 -5.48606 0
    endloop
  endfacet
  facet normal 0.669061 -0.743208 0
    outer loop
      vertex 11.2738 -5.99594 0
      vertex 11.5302 -5.76512 4
      vertex 11.2738 -5.99594 4
    endloop
  endfacet
  facet normal 0.669061 -0.743208 0
    outer loop
      vertex 11.5302 -5.76512 4
      vertex 11.2738 -5.99594 0
      vertex 11.5302 -5.76512 0
    endloop
  endfacet
  facet normal 0.9781 -0.208137 0
    outer loop
      vertex 10.859 -6.92753 4
      vertex 10.9308 -6.59012 0
      vertex 10.9308 -6.59012 4
    endloop
  endfacet
  facet normal 0.9781 -0.208137 0
    outer loop
      vertex 10.9308 -6.59012 0
      vertex 10.859 -6.92753 4
      vertex 10.859 -6.92753 0
    endloop
  endfacet
  facet normal 0.913546 -0.406736 0
    outer loop
      vertex 10.9308 -6.59012 4
      vertex 11.0711 -6.275 0
      vertex 11.0711 -6.275 4
    endloop
  endfacet
  facet normal 0.913546 -0.406736 0
    outer loop
      vertex 11.0711 -6.275 0
      vertex 10.9308 -6.59012 4
      vertex 10.9308 -6.59012 0
    endloop
  endfacet
  facet normal 0.30906 0.951043 -0
    outer loop
      vertex 12.1569 -8.71394 0
      vertex 11.8289 -8.60735 4
      vertex 12.1569 -8.71394 4
    endloop
  endfacet
  facet normal 0.30906 0.951043 0
    outer loop
      vertex 11.8289 -8.60735 4
      vertex 12.1569 -8.71394 0
      vertex 11.8289 -8.60735 0
    endloop
  endfacet
  facet normal 0.500034 0.866006 -0
    outer loop
      vertex 11.8289 -8.60735 0
      vertex 11.5302 -8.43488 4
      vertex 11.8289 -8.60735 4
    endloop
  endfacet
  facet normal 0.500034 0.866006 0
    outer loop
      vertex 11.5302 -8.43488 4
      vertex 11.8289 -8.60735 0
      vertex 11.5302 -8.43488 0
    endloop
  endfacet
  facet normal 0.104525 0.994522 -0
    outer loop
      vertex 12.5 -8.75 0
      vertex 12.1569 -8.71394 4
      vertex 12.5 -8.75 4
    endloop
  endfacet
  facet normal 0.104525 0.994522 0
    outer loop
      vertex 12.1569 -8.71394 4
      vertex 12.5 -8.75 0
      vertex 12.1569 -8.71394 0
    endloop
  endfacet
  facet normal 0.809095 0.587679 0
    outer loop
      vertex 11.2738 -8.20407 4
      vertex 11.0711 -7.925 0
      vertex 11.0711 -7.925 4
    endloop
  endfacet
  facet normal 0.809095 0.587679 0
    outer loop
      vertex 11.0711 -7.925 0
      vertex 11.2738 -8.20407 4
      vertex 11.2738 -8.20407 0
    endloop
  endfacet
  facet normal 0.9781 0.208137 0
    outer loop
      vertex 10.9308 -7.60988 4
      vertex 10.859 -7.27247 0
      vertex 10.859 -7.27247 4
    endloop
  endfacet
  facet normal 0.9781 0.208137 0
    outer loop
      vertex 10.859 -7.27247 0
      vertex 10.9308 -7.60988 4
      vertex 10.9308 -7.60988 0
    endloop
  endfacet
  facet normal -0.104525 -0.994522 0
    outer loop
      vertex 12.5 -5.45 0
      vertex 12.8431 -5.48606 4
      vertex 12.5 -5.45 4
    endloop
  endfacet
  facet normal -0.104525 -0.994522 -0
    outer loop
      vertex 12.8431 -5.48606 4
      vertex 12.5 -5.45 0
      vertex 12.8431 -5.48606 0
    endloop
  endfacet
  facet normal -0.9781 -0.208137 0
    outer loop
      vertex 14.141 -6.92753 0
      vertex 14.0692 -6.59012 4
      vertex 14.0692 -6.59012 0
    endloop
  endfacet
  facet normal -0.9781 -0.208137 0
    outer loop
      vertex 14.0692 -6.59012 4
      vertex 14.141 -6.92753 0
      vertex 14.141 -6.92753 4
    endloop
  endfacet
  facet normal -0.809084 -0.587692 0
    outer loop
      vertex 13.9289 -6.275 0
      vertex 13.7262 -5.99594 4
      vertex 13.7262 -5.99594 0
    endloop
  endfacet
  facet normal -0.809084 -0.587692 0
    outer loop
      vertex 13.7262 -5.99594 4
      vertex 13.9289 -6.275 0
      vertex 13.9289 -6.275 4
    endloop
  endfacet
  facet normal -0.809095 0.587679 0
    outer loop
      vertex 13.7262 -8.20407 0
      vertex 13.9289 -7.925 4
      vertex 13.9289 -7.925 0
    endloop
  endfacet
  facet normal -0.809095 0.587679 0
    outer loop
      vertex 13.9289 -7.925 4
      vertex 13.7262 -8.20407 0
      vertex 13.7262 -8.20407 4
    endloop
  endfacet
  facet normal -0.9781 0.208137 0
    outer loop
      vertex 14.0692 -7.60988 0
      vertex 14.141 -7.27247 4
      vertex 14.141 -7.27247 0
    endloop
  endfacet
  facet normal -0.9781 0.208137 0
    outer loop
      vertex 14.141 -7.27247 4
      vertex 14.0692 -7.60988 0
      vertex 14.0692 -7.60988 4
    endloop
  endfacet
  facet normal -0.500034 0.866006 0
    outer loop
      vertex 13.4698 -8.43488 0
      vertex 13.1711 -8.60735 4
      vertex 13.4698 -8.43488 4
    endloop
  endfacet
  facet normal -0.500034 0.866006 0
    outer loop
      vertex 13.1711 -8.60735 4
      vertex 13.4698 -8.43488 0
      vertex 13.1711 -8.60735 0
    endloop
  endfacet
  facet normal -0.669045 0.743222 0
    outer loop
      vertex 13.7262 -8.20407 0
      vertex 13.4698 -8.43488 4
      vertex 13.7262 -8.20407 4
    endloop
  endfacet
  facet normal -0.669045 0.743222 0
    outer loop
      vertex 13.4698 -8.43488 4
      vertex 13.7262 -8.20407 0
      vertex 13.4698 -8.43488 0
    endloop
  endfacet
  facet normal -0.104525 0.994522 0
    outer loop
      vertex 12.8431 -8.71394 0
      vertex 12.5 -8.75 4
      vertex 12.8431 -8.71394 4
    endloop
  endfacet
  facet normal -0.104525 0.994522 0
    outer loop
      vertex 12.5 -8.75 4
      vertex 12.8431 -8.71394 0
      vertex 12.5 -8.75 0
    endloop
  endfacet
  facet normal -0.913546 -0.406736 0
    outer loop
      vertex 14.0692 -6.59012 0
      vertex 13.9289 -6.275 4
      vertex 13.9289 -6.275 0
    endloop
  endfacet
  facet normal -0.913546 -0.406736 0
    outer loop
      vertex 13.9289 -6.275 4
      vertex 14.0692 -6.59012 0
      vertex 14.0692 -6.59012 4
    endloop
  endfacet
  facet normal -0.30906 -0.951043 0
    outer loop
      vertex 12.8431 -5.48606 0
      vertex 13.1711 -5.59265 4
      vertex 12.8431 -5.48606 4
    endloop
  endfacet
  facet normal -0.30906 -0.951043 -0
    outer loop
      vertex 13.1711 -5.59265 4
      vertex 12.8431 -5.48606 0
      vertex 13.1711 -5.59265 0
    endloop
  endfacet
  facet normal -0.913546 0.406736 0
    outer loop
      vertex 13.9289 -7.925 0
      vertex 14.0692 -7.60988 4
      vertex 14.0692 -7.60988 0
    endloop
  endfacet
  facet normal -0.913546 0.406736 0
    outer loop
      vertex 14.0692 -7.60988 4
      vertex 13.9289 -7.925 0
      vertex 13.9289 -7.925 4
    endloop
  endfacet
  facet normal -1 0 0
    outer loop
      vertex 14.141 -7.27247 0
      vertex 14.141 -6.92753 4
      vertex 14.141 -6.92753 0
    endloop
  endfacet
  facet normal -1 -0 0
    outer loop
      vertex 14.141 -6.92753 4
      vertex 14.141 -7.27247 0
      vertex 14.141 -7.27247 4
    endloop
  endfacet
endsolid OpenSCAD_Model
