solid OpenSCAD_Model
  facet normal -0 0 1
    outer loop
      vertex 0 238.35 1.25
      vertex 137.1 121.25 1.25
      vertex 137.1 238.35 1.25
    endloop
  endfacet
  facet normal 0 0 1
    outer loop
      vertex 137.1 121.25 1.25
      vertex 0 238.35 1.25
      vertex 0 121.25 1.25
    endloop
  endfacet
  facet normal 0 0 -1
    outer loop
      vertex 0 121.25 0
      vertex 137.1 238.35 0
      vertex 137.1 121.25 0
    endloop
  endfacet
  facet normal -0 0 -1
    outer loop
      vertex 137.1 238.35 0
      vertex 0 121.25 0
      vertex 0 238.35 0
    endloop
  endfacet
  facet normal 0 -1 0
    outer loop
      vertex 0 121.25 0
      vertex 137.1 121.25 1.25
      vertex 0 121.25 1.25
    endloop
  endfacet
  facet normal 0 -1 -0
    outer loop
      vertex 137.1 121.25 1.25
      vertex 0 121.25 0
      vertex 137.1 121.25 0
    endloop
  endfacet
  facet normal 1 -0 0
    outer loop
      vertex 137.1 121.25 1.25
      vertex 137.1 238.35 0
      vertex 137.1 238.35 1.25
    endloop
  endfacet
  facet normal 1 0 0
    outer loop
      vertex 137.1 238.35 0
      vertex 137.1 121.25 1.25
      vertex 137.1 121.25 0
    endloop
  endfacet
  facet normal 0 1 -0
    outer loop
      vertex 137.1 238.35 0
      vertex 0 238.35 1.25
      vertex 137.1 238.35 1.25
    endloop
  endfacet
  facet normal 0 1 0
    outer loop
      vertex 0 238.35 1.25
      vertex 137.1 238.35 0
      vertex 0 238.35 0
    endloop
  endfacet
  facet normal -1 0 0
    outer loop
      vertex 0 121.25 0
      vertex 0 238.35 1.25
      vertex 0 238.35 0
    endloop
  endfacet
  facet normal -1 -0 0
    outer loop
      vertex 0 238.35 1.25
      vertex 0 121.25 0
      vertex 0 121.25 1.25
    endloop
  endfacet
endsolid OpenSCAD_Model
