solid OpenSCAD_Model
  facet normal -0 0 1
    outer loop
      vertex 0 94.2 1.5
      vertex 44.7 49.5 1.5
      vertex 44.7 94.2 1.5
    endloop
  endfacet
  facet normal 0 0 1
    outer loop
      vertex 44.7 49.5 1.5
      vertex 0 94.2 1.5
      vertex 0 49.5 1.5
    endloop
  endfacet
  facet normal 0 0 -1
    outer loop
      vertex 0 49.5 0
      vertex 44.7 94.2 0
      vertex 44.7 49.5 0
    endloop
  endfacet
  facet normal -0 0 -1
    outer loop
      vertex 44.7 94.2 0
      vertex 0 49.5 0
      vertex 0 94.2 0
    endloop
  endfacet
  facet normal 0 -1 0
    outer loop
      vertex 0 49.5 0
      vertex 44.7 49.5 1.5
      vertex 0 49.5 1.5
    endloop
  endfacet
  facet normal 0 -1 -0
    outer loop
      vertex 44.7 49.5 1.5
      vertex 0 49.5 0
      vertex 44.7 49.5 0
    endloop
  endfacet
  facet normal 1 -0 0
    outer loop
      vertex 44.7 49.5 1.5
      vertex 44.7 94.2 0
      vertex 44.7 94.2 1.5
    endloop
  endfacet
  facet normal 1 0 0
    outer loop
      vertex 44.7 94.2 0
      vertex 44.7 49.5 1.5
      vertex 44.7 49.5 0
    endloop
  endfacet
  facet normal 0 1 -0
    outer loop
      vertex 44.7 94.2 0
      vertex 0 94.2 1.5
      vertex 44.7 94.2 1.5
    endloop
  endfacet
  facet normal 0 1 0
    outer loop
      vertex 0 94.2 1.5
      vertex 44.7 94.2 0
      vertex 0 94.2 0
    endloop
  endfacet
  facet normal -1 0 0
    outer loop
      vertex 0 49.5 0
      vertex 0 94.2 1.5
      vertex 0 94.2 0
    endloop
  endfacet
  facet normal -1 -0 0
    outer loop
      vertex 0 94.2 1.5
      vertex 0 49.5 0
      vertex 0 49.5 1.5
    endloop
  endfacet
endsolid OpenSCAD_Model
