solid Hinge_Corners_2_5mm
facet normal 0.0 -1.4988010832439613e-15 1.0
  outer loop
    vertex 5.350000253319739 -2.8199664825478976e-14 3.000000953674313
    vertex 2.6500000149011607 -43.50000000000002 3.0000009536742342
    vertex 5.350000253319739 -43.50000000000002 3.0000009536742342
  endloop
endfacet
facet normal 0.0 -1.4988010832439613e-15 1.0
  outer loop
    vertex 2.6500000149011607 -43.50000000000002 3.0000009536742342
    vertex 5.350000253319739 -2.8199664825478976e-14 3.000000953674313
    vertex 2.6500000149011607 -2.8199664825478976e-14 3.000000953674313
  endloop
endfacet
facet normal 0.0 -1.4988010832439613e-15 1.0
  outer loop
    vertex 8.00000025331974 -1.6919798895287383e-14 13.999999761581416
    vertex 5.350000253319739 -43.50000000000004 13.999999761581352
    vertex 8.00000025331974 -43.50000000000004 13.999999761581352
  endloop
endfacet
facet normal 0.0 -1.4988010832439613e-15 1.0
  outer loop
    vertex 5.350000253319739 -43.50000000000004 13.999999761581352
    vertex 8.00000025331974 -1.6919798895287383e-14 13.999999761581416
    vertex 5.350000253319739 -1.6919798895287383e-14 13.999999761581416
  endloop
endfacet
facet normal 1.0 0.0 0.0
  outer loop
    vertex 8.00000025331974 -47.00000000000002 -7.331912854624534e-14
    vertex 8.00000025331974 -43.50000000000004 15.999999882653272
    vertex 8.00000025331974 -47.00000000000004 15.999999882653281
  endloop
endfacet
facet normal 1.0 0.0 0.0
  outer loop
    vertex 8.00000025331974 -43.50000000000004 15.999999882653272
    vertex 8.00000025331974 -47.00000000000002 -7.331912854624534e-14
    vertex 8.00000025331974 -43.50000000000004 13.999999761581352
  endloop
endfacet
facet normal 1.0 0.0 0.0
  outer loop
    vertex 8.00000025331974 -43.50000000000004 13.999999761581352
    vertex 8.00000025331974 -47.00000000000002 -7.331912854624534e-14
    vertex 8.00000025331974 -1.6919798895287383e-14 13.999999761581416
  endloop
endfacet
facet normal 1.0 0.0 0.0
  outer loop
    vertex 8.00000025331974 -1.6919798895287383e-14 13.999999761581416
    vertex 8.00000025331974 -47.00000000000002 -7.331912854624534e-14
    vertex 8.00000025331974 -2.255973186038318e-14 0.0
  endloop
endfacet
facet normal 0.0 1.0 1.4988010832439613e-15
  outer loop
    vertex 8.00000025331974 -1.6919798895287383e-14 13.999999761581416
    vertex 5.350000253319739 -2.8199664825478976e-14 3.000000953674313
    vertex 5.350000253319739 -1.6919798895287383e-14 13.999999761581416
  endloop
endfacet
facet normal 0.0 1.0 1.4988010832439613e-15
  outer loop
    vertex 2.6500000149011607 -1.6919798895287383e-14 13.999999761581416
    vertex 0.0 -2.255973186038318e-14 0.0
    vertex 0.0 -1.6919798895287383e-14 13.999999761581416
  endloop
endfacet
facet normal 0.0 1.0 1.4988010832439613e-15
  outer loop
    vertex 0.0 -2.255973186038318e-14 0.0
    vertex 2.6500000149011607 -1.6919798895287383e-14 13.999999761581416
    vertex 2.6500000149011607 -2.8199664825478976e-14 3.000000953674313
  endloop
endfacet
facet normal 0.0 1.0 1.4988010832439613e-15
  outer loop
    vertex 0.0 -2.255973186038318e-14 0.0
    vertex 2.6500000149011607 -2.8199664825478976e-14 3.000000953674313
    vertex 8.00000025331974 -2.255973186038318e-14 0.0
  endloop
endfacet
facet normal 0.0 1.0 1.4988010832439613e-15
  outer loop
    vertex 8.00000025331974 -2.255973186038318e-14 0.0
    vertex 2.6500000149011607 -2.8199664825478976e-14 3.000000953674313
    vertex 5.350000253319739 -2.8199664825478976e-14 3.000000953674313
  endloop
endfacet
facet normal 0.0 1.0 1.4988010832439613e-15
  outer loop
    vertex 8.00000025331974 -2.255973186038318e-14 0.0
    vertex 5.350000253319739 -2.8199664825478976e-14 3.000000953674313
    vertex 8.00000025331974 -1.6919798895287383e-14 13.999999761581416
  endloop
endfacet
facet normal -1.0 9.575959561831401e-33 2.241823971271995e-31
  outer loop
    vertex 5.350000253319739 -2.8199664825478976e-14 3.000000953674313
    vertex 5.350000253319739 -43.50000000000004 13.999999761581352
    vertex 5.350000253319739 -1.6919798895287383e-14 13.999999761581416
  endloop
endfacet
facet normal -1.0 9.575959561831401e-33 2.241823971271995e-31
  outer loop
    vertex 5.350000253319739 -43.50000000000004 13.999999761581352
    vertex 5.350000253319739 -2.8199664825478976e-14 3.000000953674313
    vertex 5.350000253319739 -43.50000000000002 3.0000009536742342
  endloop
endfacet
facet normal 1.0 0.0 0.0
  outer loop
    vertex 2.6500000149011607 -43.50000000000002 3.0000009536742342
    vertex 2.6500000149011607 -1.6919798895287383e-14 13.999999761581416
    vertex 2.6500000149011607 -43.50000000000004 13.999999761581352
  endloop
endfacet
facet normal 1.0 0.0 0.0
  outer loop
    vertex 2.6500000149011607 -1.6919798895287383e-14 13.999999761581416
    vertex 2.6500000149011607 -43.50000000000002 3.0000009536742342
    vertex 2.6500000149011607 -2.8199664825478976e-14 3.000000953674313
  endloop
endfacet
facet normal -1.0 0.0 0.0
  outer loop
    vertex 0.0 -43.50000000000004 13.999999761581352
    vertex 0.0 -44.00000000000004 15.999999882653272
    vertex 0.0 -43.50000000000004 15.999999882653272
  endloop
endfacet
facet normal -1.0 0.0 0.0
  outer loop
    vertex 0.0 -2.255973186038318e-14 0.0
    vertex 0.0 -43.50000000000004 13.999999761581352
    vertex 0.0 -1.6919798895287383e-14 13.999999761581416
  endloop
endfacet
facet normal -1.0 0.0 0.0
  outer loop
    vertex 0.0 -44.00000000000004 15.999999882653272
    vertex 0.0 -47.00000000000002 -7.331912854624534e-14
    vertex 0.0 -47.00000000000004 15.999999882653281
  endloop
endfacet
facet normal -1.0 0.0 0.0
  outer loop
    vertex 0.0 -47.00000000000002 -7.331912854624534e-14
    vertex 0.0 -44.00000000000004 15.999999882653272
    vertex 0.0 -43.50000000000004 13.999999761581352
  endloop
endfacet
facet normal -1.0 0.0 0.0
  outer loop
    vertex 0.0 -47.00000000000002 -7.331912854624534e-14
    vertex 0.0 -43.50000000000004 13.999999761581352
    vertex 0.0 -2.255973186038318e-14 0.0
  endloop
endfacet
facet normal -1.0 0.0 0.0
  outer loop
    vertex 0.0 -47.00000000000002 -7.331912854624534e-14
    vertex 0.0 -2.255973186038318e-14 0.0
    vertex 0.0 -44.00000000000002 -8.177902799388902e-14
  endloop
endfacet
facet normal -0.6087614290087209 -0.7933533402912352 -1.1890788458237183e-15
  outer loop
    vertex 1.4999999999999998 -49.59807621135334 -9.023892744153272e-14
    vertex 0.8786796564403572 -49.12132034355969 15.999999882653263
    vertex 0.8786796564403572 -49.12132034355967 -9.023892744153272e-14
  endloop
endfacet
facet normal -0.6087614290087209 -0.7933533402912352 -1.1890788458237183e-15
  outer loop
    vertex 0.8786796564403572 -49.12132034355969 15.999999882653263
    vertex 1.4999999999999998 -49.59807621135334 -9.023892744153272e-14
    vertex 1.4999999999999998 -49.59807621135336 15.999999882653263
  endloop
endfacet
facet normal -0.9914448613738105 -0.13052619222005127 -1.9563279829112235e-16
  outer loop
    vertex 0.0 -47.00000000000002 -7.331912854624534e-14
    vertex 0.10222252113279491 -47.77645713530761 15.999999882653267
    vertex 0.0 -47.00000000000004 15.999999882653281
  endloop
endfacet
facet normal -0.9914448613738105 -0.13052619222005127 -1.9563279829112235e-16
  outer loop
    vertex 0.10222252113279491 -47.77645713530761 15.999999882653267
    vertex 0.0 -47.00000000000002 -7.331912854624534e-14
    vertex 0.10222252113279491 -47.77645713530758 -8.741896095898482e-14
  endloop
endfacet
facet normal -0.13052619222005163 -0.9914448613738105 -1.4859786322037263e-15
  outer loop
    vertex 3.0 -50.00000000000002 -7.895906151134113e-14
    vertex 2.2235428646924373 -49.89777747886725 15.999999882653276
    vertex 2.2235428646924373 -49.897777478867226 -7.895906151134113e-14
  endloop
endfacet
facet normal -0.13052619222005163 -0.9914448613738105 -1.4859786322037263e-15
  outer loop
    vertex 2.2235428646924373 -49.89777747886725 15.999999882653276
    vertex 3.0 -50.00000000000002 -7.895906151134113e-14
    vertex 3.0 -50.00000000000004 15.999999882653276
  endloop
endfacet
facet normal -0.9238795325112867 -0.3826834323650903 -5.735663429683144e-16
  outer loop
    vertex 0.10222252113279491 -47.77645713530761 15.999999882653267
    vertex 0.40192378864668404 -48.50000000000002 -7.613909502879323e-14
    vertex 0.40192378864668404 -48.50000000000005 15.999999882653277
  endloop
endfacet
facet normal -0.9238795325112867 -0.3826834323650903 -5.735663429683144e-16
  outer loop
    vertex 0.40192378864668404 -48.50000000000002 -7.613909502879323e-14
    vertex 0.10222252113279491 -47.77645713530761 15.999999882653267
    vertex 0.10222252113279491 -47.77645713530758 -8.741896095898482e-14
  endloop
endfacet
facet normal -0.7933533402912353 -0.6087614290087205 -9.124122892354123e-16
  outer loop
    vertex 0.40192378864668404 -48.50000000000002 -7.613909502879323e-14
    vertex 0.8786796564403572 -49.12132034355969 15.999999882653263
    vertex 0.40192378864668404 -48.50000000000005 15.999999882653277
  endloop
endfacet
facet normal -0.7933533402912353 -0.6087614290087205 -9.124122892354123e-16
  outer loop
    vertex 0.8786796564403572 -49.12132034355969 15.999999882653263
    vertex 0.40192378864668404 -48.50000000000002 -7.613909502879323e-14
    vertex 0.8786796564403572 -49.12132034355967 -9.023892744153272e-14
  endloop
endfacet
facet normal -0.3826834323650897 -0.9238795325112867 -1.3847116441148411e-15
  outer loop
    vertex 2.2235428646924373 -49.897777478867226 -7.895906151134113e-14
    vertex 1.4999999999999998 -49.59807621135336 15.999999882653263
    vertex 1.4999999999999998 -49.59807621135334 -9.023892744153272e-14
  endloop
endfacet
facet normal -0.3826834323650897 -0.9238795325112867 -1.3847116441148411e-15
  outer loop
    vertex 1.4999999999999998 -49.59807621135336 15.999999882653263
    vertex 2.2235428646924373 -49.897777478867226 -7.895906151134113e-14
    vertex 2.2235428646924373 -49.89777747886725 15.999999882653276
  endloop
endfacet
facet normal 1.4186924536800955e-33 -1.0 -1.4988010832439613e-15
  outer loop
    vertex 5.00000025331974 -50.00000000000002 -7.895906151134113e-14
    vertex 3.0 -50.00000000000004 15.999999882653276
    vertex 3.0 -50.00000000000002 -7.895906151134113e-14
  endloop
endfacet
facet normal 1.4186924536800955e-33 -1.0 -1.4988010832439613e-15
  outer loop
    vertex 3.0 -50.00000000000004 15.999999882653276
    vertex 5.00000025331974 -50.00000000000002 -7.895906151134113e-14
    vertex 5.00000025331974 -50.00000000000004 15.999999882653276
  endloop
endfacet
facet normal 0.3826834323650897 -0.9238795325112867 -1.3847116441148411e-15
  outer loop
    vertex 6.50000025331974 -49.59807621135334 -9.023892744153272e-14
    vertex 5.7764573886273025 -49.89777747886725 15.999999882653276
    vertex 5.7764573886273025 -49.897777478867226 -7.895906151134113e-14
  endloop
endfacet
facet normal 0.3826834323650897 -0.9238795325112867 -1.3847116441148411e-15
  outer loop
    vertex 5.7764573886273025 -49.89777747886725 15.999999882653276
    vertex 6.50000025331974 -49.59807621135334 -9.023892744153272e-14
    vertex 6.50000025331974 -49.59807621135336 15.999999882653263
  endloop
endfacet
facet normal 0.923879532511287 -0.3826834323650898 -5.735663429683137e-16
  outer loop
    vertex 7.598076464673056 -48.50000000000002 -7.613909502879323e-14
    vertex 7.897777732186945 -47.77645713530761 15.999999882653267
    vertex 7.598076464673056 -48.50000000000005 15.999999882653277
  endloop
endfacet
facet normal 0.923879532511287 -0.3826834323650898 -5.735663429683137e-16
  outer loop
    vertex 7.897777732186945 -47.77645713530761 15.999999882653267
    vertex 7.598076464673056 -48.50000000000002 -7.613909502879323e-14
    vertex 7.897777732186945 -47.77645713530758 -8.741896095898482e-14
  endloop
endfacet
facet normal 0.7933533402912348 -0.6087614290087211 -9.12412289235413e-16
  outer loop
    vertex 7.121320596879382 -49.12132034355969 15.999999882653263
    vertex 7.598076464673056 -48.50000000000002 -7.613909502879323e-14
    vertex 7.598076464673056 -48.50000000000005 15.999999882653277
  endloop
endfacet
facet normal 0.7933533402912348 -0.6087614290087211 -9.12412289235413e-16
  outer loop
    vertex 7.598076464673056 -48.50000000000002 -7.613909502879323e-14
    vertex 7.121320596879382 -49.12132034355969 15.999999882653263
    vertex 7.121320596879382 -49.12132034355967 -9.023892744153272e-14
  endloop
endfacet
facet normal 0.13052619222005168 -0.9914448613738105 -1.4859786322037263e-15
  outer loop
    vertex 5.7764573886273025 -49.897777478867226 -7.895906151134113e-14
    vertex 5.00000025331974 -50.00000000000004 15.999999882653276
    vertex 5.00000025331974 -50.00000000000002 -7.895906151134113e-14
  endloop
endfacet
facet normal 0.13052619222005168 -0.9914448613738105 -1.4859786322037263e-15
  outer loop
    vertex 5.00000025331974 -50.00000000000004 15.999999882653276
    vertex 5.7764573886273025 -49.897777478867226 -7.895906151134113e-14
    vertex 5.7764573886273025 -49.89777747886725 15.999999882653276
  endloop
endfacet
facet normal 0.6087614290087211 -0.793353340291235 -1.1890788458237181e-15
  outer loop
    vertex 7.121320596879382 -49.12132034355967 -9.023892744153272e-14
    vertex 6.50000025331974 -49.59807621135336 15.999999882653263
    vertex 6.50000025331974 -49.59807621135334 -9.023892744153272e-14
  endloop
endfacet
facet normal 0.6087614290087211 -0.793353340291235 -1.1890788458237181e-15
  outer loop
    vertex 6.50000025331974 -49.59807621135336 15.999999882653263
    vertex 7.121320596879382 -49.12132034355967 -9.023892744153272e-14
    vertex 7.121320596879382 -49.12132034355969 15.999999882653263
  endloop
endfacet
facet normal 0.9914448613738105 -0.13052619222005168 -1.95632798291123e-16
  outer loop
    vertex 7.897777732186945 -47.77645713530761 15.999999882653267
    vertex 8.00000025331974 -47.00000000000002 -7.331912854624534e-14
    vertex 8.00000025331974 -47.00000000000004 15.999999882653281
  endloop
endfacet
facet normal 0.9914448613738105 -0.13052619222005168 -1.95632798291123e-16
  outer loop
    vertex 8.00000025331974 -47.00000000000002 -7.331912854624534e-14
    vertex 7.897777732186945 -47.77645713530761 15.999999882653267
    vertex 7.897777732186945 -47.77645713530758 -8.741896095898482e-14
  endloop
endfacet
facet normal 0.0 -1.4988010832439613e-15 1.0
  outer loop
    vertex 2.6500000149011607 -1.6919798895287383e-14 13.999999761581416
    vertex 0.0 -43.50000000000004 13.999999761581352
    vertex 2.6500000149011607 -43.50000000000004 13.999999761581352
  endloop
endfacet
facet normal 0.0 -1.4988010832439613e-15 1.0
  outer loop
    vertex 0.0 -43.50000000000004 13.999999761581352
    vertex 2.6500000149011607 -1.6919798895287383e-14 13.999999761581416
    vertex 0.0 -1.6919798895287383e-14 13.999999761581416
  endloop
endfacet
facet normal 0.0 1.0 1.4988010832439613e-15
  outer loop
    vertex 8.00000025331974 -43.50000000000004 15.999999882653272
    vertex 0.0 -43.50000000000004 13.999999761581352
    vertex 0.0 -43.50000000000004 15.999999882653272
  endloop
endfacet
facet normal 0.0 1.0 1.4988010832439613e-15
  outer loop
    vertex 0.0 -43.50000000000004 13.999999761581352
    vertex 8.00000025331974 -43.50000000000004 15.999999882653272
    vertex 2.6500000149011607 -43.50000000000004 13.999999761581352
  endloop
endfacet
facet normal 0.0 1.0 1.4988010832439613e-15
  outer loop
    vertex 2.6500000149011607 -43.50000000000004 13.999999761581352
    vertex 8.00000025331974 -43.50000000000004 15.999999882653272
    vertex 5.350000253319739 -43.50000000000004 13.999999761581352
  endloop
endfacet
facet normal 0.0 1.0 1.4988010832439613e-15
  outer loop
    vertex 2.6500000149011607 -43.50000000000004 13.999999761581352
    vertex 5.350000253319739 -43.50000000000004 13.999999761581352
    vertex 2.6500000149011607 -43.50000000000002 3.0000009536742342
  endloop
endfacet
facet normal 0.0 1.0 1.4988010832439613e-15
  outer loop
    vertex 5.350000253319739 -43.50000000000004 13.999999761581352
    vertex 8.00000025331974 -43.50000000000004 15.999999882653272
    vertex 8.00000025331974 -43.50000000000004 13.999999761581352
  endloop
endfacet
facet normal 0.0 1.0 1.4988010832439613e-15
  outer loop
    vertex 5.350000253319739 -43.50000000000002 3.0000009536742342
    vertex 2.6500000149011607 -43.50000000000002 3.0000009536742342
    vertex 5.350000253319739 -43.50000000000004 13.999999761581352
  endloop
endfacet
facet normal 0.0 -1.4988010832439613e-15 1.0
  outer loop
    vertex 5.7764573886273025 -49.89777747886725 15.999999882653276
    vertex 3.0 -50.00000000000004 15.999999882653276
    vertex 5.00000025331974 -50.00000000000004 15.999999882653276
  endloop
endfacet
facet normal 0.0 -1.4988010832439613e-15 1.0
  outer loop
    vertex 3.0 -50.00000000000004 15.999999882653276
    vertex 5.7764573886273025 -49.89777747886725 15.999999882653276
    vertex 2.2235428646924373 -49.89777747886725 15.999999882653276
  endloop
endfacet
facet normal 0.0 -1.4988010832439613e-15 1.0
  outer loop
    vertex 2.2235428646924373 -49.89777747886725 15.999999882653276
    vertex 5.7764573886273025 -49.89777747886725 15.999999882653276
    vertex 6.50000025331974 -49.59807621135336 15.999999882653263
  endloop
endfacet
facet normal 0.0 -1.4988010832439613e-15 1.0
  outer loop
    vertex 2.2235428646924373 -49.89777747886725 15.999999882653276
    vertex 6.50000025331974 -49.59807621135336 15.999999882653263
    vertex 1.4999999999999998 -49.59807621135336 15.999999882653263
  endloop
endfacet
facet normal 0.0 -1.4988010832439613e-15 1.0
  outer loop
    vertex 1.4999999999999998 -49.59807621135336 15.999999882653263
    vertex 6.50000025331974 -49.59807621135336 15.999999882653263
    vertex 7.121320596879382 -49.12132034355969 15.999999882653263
  endloop
endfacet
facet normal 0.0 -1.4988010832439613e-15 1.0
  outer loop
    vertex 1.4999999999999998 -49.59807621135336 15.999999882653263
    vertex 7.121320596879382 -49.12132034355969 15.999999882653263
    vertex 0.8786796564403572 -49.12132034355969 15.999999882653263
  endloop
endfacet
facet normal 0.0 -1.4988010832439613e-15 1.0
  outer loop
    vertex 0.8786796564403572 -49.12132034355969 15.999999882653263
    vertex 7.121320596879382 -49.12132034355969 15.999999882653263
    vertex 7.598076464673056 -48.50000000000005 15.999999882653277
  endloop
endfacet
facet normal 0.0 -1.4988010832439613e-15 1.0
  outer loop
    vertex 0.8786796564403572 -49.12132034355969 15.999999882653263
    vertex 7.598076464673056 -48.50000000000005 15.999999882653277
    vertex 0.40192378864668404 -48.50000000000005 15.999999882653277
  endloop
endfacet
facet normal 0.0 -1.4988010832439613e-15 1.0
  outer loop
    vertex 0.40192378864668404 -48.50000000000005 15.999999882653277
    vertex 7.598076464673056 -48.50000000000005 15.999999882653277
    vertex 7.897777732186945 -47.77645713530761 15.999999882653267
  endloop
endfacet
facet normal 0.0 -1.4988010832439613e-15 1.0
  outer loop
    vertex 0.40192378864668404 -48.50000000000005 15.999999882653277
    vertex 7.897777732186945 -47.77645713530761 15.999999882653267
    vertex 0.10222252113279491 -47.77645713530761 15.999999882653267
  endloop
endfacet
facet normal 0.0 -1.4988010832439613e-15 1.0
  outer loop
    vertex 0.10222252113279491 -47.77645713530761 15.999999882653267
    vertex 7.897777732186945 -47.77645713530761 15.999999882653267
    vertex 3.9999999999999996 -47.40000000000004 15.999999882653269
  endloop
endfacet
facet normal 0.0 -1.4988010832439613e-15 1.0
  outer loop
    vertex 3.9999999999999996 -47.40000000000004 15.999999882653269
    vertex 7.897777732186945 -47.77645713530761 15.999999882653267
    vertex 8.00000025331974 -47.00000000000004 15.999999882653281
  endloop
endfacet
facet normal 0.0 -1.4988010832439613e-15 1.0
  outer loop
    vertex 3.9999999999999996 -47.40000000000004 15.999999882653269
    vertex 8.00000025331974 -47.00000000000004 15.999999882653281
    vertex 4.362346663143528 -47.35229615680474 15.999999882653269
  endloop
endfacet
facet normal 0.0 -1.4988010832439613e-15 1.0
  outer loop
    vertex 4.362346663143528 -47.35229615680474 15.999999882653269
    vertex 8.00000025331974 -47.00000000000004 15.999999882653281
    vertex 4.699999999999999 -47.21243556529826 15.999999882653269
  endloop
endfacet
facet normal 0.0 -1.4988010832439613e-15 1.0
  outer loop
    vertex 4.699999999999999 -47.21243556529826 15.999999882653269
    vertex 8.00000025331974 -47.00000000000004 15.999999882653281
    vertex 4.989949493661165 -46.989949493661214 15.999999882653281
  endloop
endfacet
facet normal 0.0 -1.4988010832439613e-15 1.0
  outer loop
    vertex 4.989949493661165 -46.989949493661214 15.999999882653281
    vertex 8.00000025331974 -47.00000000000004 15.999999882653281
    vertex 8.00000025331974 -43.50000000000004 15.999999882653272
  endloop
endfacet
facet normal 0.0 -1.4988010832439613e-15 1.0
  outer loop
    vertex 4.989949493661165 -46.989949493661214 15.999999882653281
    vertex 8.00000025331974 -43.50000000000004 15.999999882653272
    vertex 5.212435565298211 -46.700000000000045 15.999999882653281
  endloop
endfacet
facet normal 0.0 -1.4988010832439613e-15 1.0
  outer loop
    vertex 5.212435565298211 -46.700000000000045 15.999999882653281
    vertex 8.00000025331974 -43.50000000000004 15.999999882653272
    vertex 5.352296156804693 -46.362346663143576 15.999999882653281
  endloop
endfacet
facet normal 0.0 -1.4988010832439613e-15 1.0
  outer loop
    vertex 5.352296156804693 -46.362346663143576 15.999999882653281
    vertex 8.00000025331974 -43.50000000000004 15.999999882653272
    vertex 5.399999999999997 -46.00000000000004 15.999999882653269
  endloop
endfacet
facet normal 0.0 -1.4988010832439613e-15 1.0
  outer loop
    vertex 5.399999999999997 -46.00000000000004 15.999999882653269
    vertex 8.00000025331974 -43.50000000000004 15.999999882653272
    vertex 5.352296156804693 -45.637653336856516 15.999999882653269
  endloop
endfacet
facet normal 0.0 -1.4988010832439613e-15 1.0
  outer loop
    vertex 5.352296156804693 -45.637653336856516 15.999999882653269
    vertex 8.00000025331974 -43.50000000000004 15.999999882653272
    vertex 5.212435565298211 -45.30000000000005 15.999999882653269
  endloop
endfacet
facet normal 0.0 -1.4988010832439613e-15 1.0
  outer loop
    vertex 5.212435565298211 -45.30000000000005 15.999999882653269
    vertex 8.00000025331974 -43.50000000000004 15.999999882653272
    vertex 4.989949493661165 -45.01005050633888 15.999999882653281
  endloop
endfacet
facet normal 0.0 -1.4988010832439613e-15 1.0
  outer loop
    vertex 4.989949493661165 -45.01005050633888 15.999999882653281
    vertex 8.00000025331974 -43.50000000000004 15.999999882653272
    vertex 4.699999999999998 -44.787564434701835 15.999999882653281
  endloop
endfacet
facet normal 0.0 -1.4988010832439613e-15 1.0
  outer loop
    vertex 4.699999999999998 -44.787564434701835 15.999999882653281
    vertex 8.00000025331974 -43.50000000000004 15.999999882653272
    vertex 4.362346663143528 -44.64770384319535 15.999999882653281
  endloop
endfacet
facet normal 0.0 -1.4988010832439613e-15 1.0
  outer loop
    vertex 4.362346663143528 -44.64770384319535 15.999999882653281
    vertex 8.00000025331974 -43.50000000000004 15.999999882653272
    vertex 3.9999999999999996 -44.60000000000005 15.999999882653281
  endloop
endfacet
facet normal 0.0 -1.4988010832439613e-15 1.0
  outer loop
    vertex 3.9999999999999996 -44.60000000000005 15.999999882653281
    vertex 8.00000025331974 -43.50000000000004 15.999999882653272
    vertex 0.0 -44.00000000000004 15.999999882653272
  endloop
endfacet
facet normal 0.0 -1.4988010832439613e-15 1.0
  outer loop
    vertex 0.0 -44.00000000000004 15.999999882653272
    vertex 8.00000025331974 -43.50000000000004 15.999999882653272
    vertex 0.0 -43.50000000000004 15.999999882653272
  endloop
endfacet
facet normal 0.0 -1.4988010832439613e-15 1.0
  outer loop
    vertex 3.9999999999999996 -47.40000000000004 15.999999882653269
    vertex 0.0 -47.00000000000004 15.999999882653281
    vertex 0.10222252113279491 -47.77645713530761 15.999999882653267
  endloop
endfacet
facet normal 0.0 -1.4988010832439613e-15 1.0
  outer loop
    vertex 0.0 -47.00000000000004 15.999999882653281
    vertex 3.9999999999999996 -47.40000000000004 15.999999882653269
    vertex 3.637653336856472 -47.35229615680474 15.999999882653269
  endloop
endfacet
facet normal 0.0 -1.4988010832439613e-15 1.0
  outer loop
    vertex 0.0 -47.00000000000004 15.999999882653281
    vertex 3.637653336856472 -47.35229615680474 15.999999882653269
    vertex 3.300000000000001 -47.21243556529826 15.999999882653269
  endloop
endfacet
facet normal 0.0 -1.4988010832439613e-15 1.0
  outer loop
    vertex 0.0 -47.00000000000004 15.999999882653281
    vertex 3.300000000000001 -47.21243556529826 15.999999882653269
    vertex 3.010050506338836 -46.989949493661214 15.999999882653281
  endloop
endfacet
facet normal 0.0 -1.4988010832439613e-15 1.0
  outer loop
    vertex 0.0 -47.00000000000004 15.999999882653281
    vertex 3.010050506338836 -46.989949493661214 15.999999882653281
    vertex 0.0 -44.00000000000004 15.999999882653272
  endloop
endfacet
facet normal 0.0 -1.4988010832439613e-15 1.0
  outer loop
    vertex 0.0 -44.00000000000004 15.999999882653272
    vertex 3.010050506338836 -46.989949493661214 15.999999882653281
    vertex 2.787564434701788 -46.700000000000045 15.999999882653281
  endloop
endfacet
facet normal 0.0 -1.4988010832439613e-15 1.0
  outer loop
    vertex 0.0 -44.00000000000004 15.999999882653272
    vertex 2.787564434701788 -46.700000000000045 15.999999882653281
    vertex 2.647703843195307 -46.362346663143576 15.999999882653281
  endloop
endfacet
facet normal 0.0 -1.4988010832439613e-15 1.0
  outer loop
    vertex 0.0 -44.00000000000004 15.999999882653272
    vertex 2.647703843195307 -46.362346663143576 15.999999882653281
    vertex 2.6000000000000023 -46.00000000000004 15.999999882653269
  endloop
endfacet
facet normal 0.0 -1.4988010832439613e-15 1.0
  outer loop
    vertex 0.0 -44.00000000000004 15.999999882653272
    vertex 2.6000000000000023 -46.00000000000004 15.999999882653269
    vertex 2.6477038431953064 -45.63765333685652 15.999999882653269
  endloop
endfacet
facet normal 0.0 -1.4988010832439613e-15 1.0
  outer loop
    vertex 0.0 -44.00000000000004 15.999999882653272
    vertex 2.6477038431953064 -45.63765333685652 15.999999882653269
    vertex 2.787564434701787 -45.30000000000005 15.999999882653269
  endloop
endfacet
facet normal 0.0 -1.4988010832439613e-15 1.0
  outer loop
    vertex 0.0 -44.00000000000004 15.999999882653272
    vertex 2.787564434701787 -45.30000000000005 15.999999882653269
    vertex 3.0100505063388345 -45.01005050633888 15.999999882653281
  endloop
endfacet
facet normal 0.0 -1.4988010832439613e-15 1.0
  outer loop
    vertex 0.0 -44.00000000000004 15.999999882653272
    vertex 3.0100505063388345 -45.01005050633888 15.999999882653281
    vertex 3.3000000000000003 -44.787564434701835 15.999999882653281
  endloop
endfacet
facet normal 0.0 -1.4988010832439613e-15 1.0
  outer loop
    vertex 0.0 -44.00000000000004 15.999999882653272
    vertex 3.3000000000000003 -44.787564434701835 15.999999882653281
    vertex 3.6376533368564705 -44.64770384319535 15.999999882653281
  endloop
endfacet
facet normal 0.0 -1.4988010832439613e-15 1.0
  outer loop
    vertex 0.0 -44.00000000000004 15.999999882653272
    vertex 3.6376533368564705 -44.64770384319535 15.999999882653281
    vertex 3.9999999999999996 -44.60000000000005 15.999999882653281
  endloop
endfacet
facet normal -0.7933533402912374 -0.6087614290087179 -5.043713482002751e-19
  outer loop
    vertex 4.989949493661165 -45.01005050633888 -1.1734671816476805e-07
    vertex 5.212435565298211 -45.30000000000005 15.999999882653269
    vertex 4.989949493661165 -45.01005050633888 15.999999882653281
  endloop
endfacet
facet normal -0.7933533402912374 -0.6087614290087179 -5.043713482002751e-19
  outer loop
    vertex 5.212435565298211 -45.30000000000005 15.999999882653269
    vertex 4.989949493661165 -45.01005050633888 -1.1734671816476805e-07
    vertex 5.212435565298211 -45.30000000000005 -1.1734672944463398e-07
  endloop
endfacet
facet normal -0.6087614290087147 -0.7933533402912398 0.0
  outer loop
    vertex 4.989949493661165 -45.01005050633888 -1.1734671816476805e-07
    vertex 4.699999999999998 -44.787564434701835 15.999999882653281
    vertex 4.699999999999998 -44.787564434701835 -1.1734671816476805e-07
  endloop
endfacet
facet normal -0.6087614290087147 -0.7933533402912398 0.0
  outer loop
    vertex 4.699999999999998 -44.787564434701835 15.999999882653281
    vertex 4.989949493661165 -45.01005050633888 -1.1734671816476805e-07
    vertex 4.989949493661165 -45.01005050633888 15.999999882653281
  endloop
endfacet
facet normal -0.3826834323650907 -0.9238795325112865 1.9721522630525295e-31
  outer loop
    vertex 4.699999999999998 -44.787564434701835 -1.1734671816476805e-07
    vertex 4.362346663143528 -44.64770384319535 15.999999882653281
    vertex 4.362346663143528 -44.64770384319535 -1.1734671816476805e-07
  endloop
endfacet
facet normal -0.3826834323650907 -0.9238795325112865 1.9721522630525295e-31
  outer loop
    vertex 4.362346663143528 -44.64770384319535 15.999999882653281
    vertex 4.699999999999998 -44.787564434701835 -1.1734671816476805e-07
    vertex 4.699999999999998 -44.787564434701835 15.999999882653281
  endloop
endfacet
facet normal -0.13052619222005493 -0.99144486137381 0.0
  outer loop
    vertex 4.362346663143528 -44.64770384319535 -1.1734671816476805e-07
    vertex 3.9999999999999996 -44.60000000000005 15.999999882653281
    vertex 3.9999999999999996 -44.60000000000005 -1.1734671816476805e-07
  endloop
endfacet
facet normal -0.13052619222005493 -0.99144486137381 0.0
  outer loop
    vertex 3.9999999999999996 -44.60000000000005 15.999999882653281
    vertex 4.362346663143528 -44.64770384319535 -1.1734671816476805e-07
    vertex 4.362346663143528 -44.64770384319535 15.999999882653281
  endloop
endfacet
facet normal 0.13052619222005468 -0.99144486137381 0.0
  outer loop
    vertex 3.9999999999999996 -44.60000000000005 -1.1734671816476805e-07
    vertex 3.6376533368564705 -44.64770384319535 15.999999882653281
    vertex 3.6376533368564705 -44.64770384319535 -1.1734671816476805e-07
  endloop
endfacet
facet normal 0.13052619222005468 -0.99144486137381 0.0
  outer loop
    vertex 3.6376533368564705 -44.64770384319535 15.999999882653281
    vertex 3.9999999999999996 -44.60000000000005 -1.1734671816476805e-07
    vertex 3.9999999999999996 -44.60000000000005 15.999999882653281
  endloop
endfacet
facet normal 0.3826834323650907 -0.9238795325112865 1.9721522630525295e-31
  outer loop
    vertex 3.6376533368564705 -44.64770384319535 -1.1734671816476805e-07
    vertex 3.3000000000000003 -44.787564434701835 15.999999882653281
    vertex 3.3000000000000003 -44.787564434701835 -1.1734671816476805e-07
  endloop
endfacet
facet normal 0.3826834323650907 -0.9238795325112865 1.9721522630525295e-31
  outer loop
    vertex 3.3000000000000003 -44.787564434701835 15.999999882653281
    vertex 3.6376533368564705 -44.64770384319535 -1.1734671816476805e-07
    vertex 3.6376533368564705 -44.64770384319535 15.999999882653281
  endloop
endfacet
facet normal 0.6087614290087151 -0.7933533402912395 0.0
  outer loop
    vertex 3.3000000000000003 -44.787564434701835 -1.1734671816476805e-07
    vertex 3.0100505063388345 -45.01005050633888 15.999999882653281
    vertex 3.0100505063388345 -45.01005050633888 -1.1734671816476805e-07
  endloop
endfacet
facet normal 0.6087614290087151 -0.7933533402912395 0.0
  outer loop
    vertex 3.0100505063388345 -45.01005050633888 15.999999882653281
    vertex 3.3000000000000003 -44.787564434701835 -1.1734671816476805e-07
    vertex 3.3000000000000003 -44.787564434701835 15.999999882653281
  endloop
endfacet
facet normal 0.7933533402912368 -0.6087614290087184 2.6184480028624553e-19
  outer loop
    vertex 2.787564434701787 -45.30000000000005 15.999999882653269
    vertex 3.0100505063388345 -45.01005050633888 -1.1734671816476805e-07
    vertex 3.0100505063388345 -45.01005050633888 15.999999882653281
  endloop
endfacet
facet normal 0.7933533402912368 -0.6087614290087184 2.6184480028624553e-19
  outer loop
    vertex 3.0100505063388345 -45.01005050633888 -1.1734671816476805e-07
    vertex 2.787564434701787 -45.30000000000005 15.999999882653269
    vertex 2.787564434701787 -45.30000000000005 -1.1734672944463398e-07
  endloop
endfacet
facet normal 0.9238795325112886 -0.38268343236508573 -9.860761315262648e-32
  outer loop
    vertex 2.6477038431953064 -45.63765333685652 -1.1734672944463398e-07
    vertex 2.787564434701787 -45.30000000000005 15.999999882653269
    vertex 2.6477038431953064 -45.63765333685652 15.999999882653269
  endloop
endfacet
facet normal 0.9238795325112886 -0.38268343236508573 -9.860761315262648e-32
  outer loop
    vertex 2.787564434701787 -45.30000000000005 15.999999882653269
    vertex 2.6477038431953064 -45.63765333685652 -1.1734672944463398e-07
    vertex 2.787564434701787 -45.30000000000005 -1.1734672944463398e-07
  endloop
endfacet
facet normal 0.9914448613738105 -0.1305261922200524 0.0
  outer loop
    vertex 2.6000000000000023 -46.00000000000004 -1.1734672944463398e-07
    vertex 2.6477038431953064 -45.63765333685652 15.999999882653269
    vertex 2.6000000000000023 -46.00000000000004 15.999999882653269
  endloop
endfacet
facet normal 0.9914448613738105 -0.1305261922200524 0.0
  outer loop
    vertex 2.6477038431953064 -45.63765333685652 15.999999882653269
    vertex 2.6000000000000023 -46.00000000000004 -1.1734672944463398e-07
    vertex 2.6477038431953064 -45.63765333685652 -1.1734672944463398e-07
  endloop
endfacet
facet normal 0.9914448613738105 0.13052619222005135 2.883440642825329e-20
  outer loop
    vertex 2.647703843195307 -46.362346663143576 -1.1734671816476805e-07
    vertex 2.6000000000000023 -46.00000000000004 15.999999882653269
    vertex 2.647703843195307 -46.362346663143576 15.999999882653281
  endloop
endfacet
facet normal 0.9914448613738105 0.13052619222005135 2.883440642825329e-20
  outer loop
    vertex 2.6000000000000023 -46.00000000000004 15.999999882653269
    vertex 2.647703843195307 -46.362346663143576 -1.1734671816476805e-07
    vertex 2.6000000000000023 -46.00000000000004 -1.1734672944463398e-07
  endloop
endfacet
facet normal 0.923879532511286 0.38268343236509195 0.0
  outer loop
    vertex 2.787564434701788 -46.700000000000045 -1.1734671816476805e-07
    vertex 2.647703843195307 -46.362346663143576 15.999999882653281
    vertex 2.787564434701788 -46.700000000000045 15.999999882653281
  endloop
endfacet
facet normal 0.923879532511286 0.38268343236509195 0.0
  outer loop
    vertex 2.647703843195307 -46.362346663143576 15.999999882653281
    vertex 2.787564434701788 -46.700000000000045 -1.1734671816476805e-07
    vertex 2.647703843195307 -46.362346663143576 -1.1734671816476805e-07
  endloop
endfacet
facet normal 0.7933533402912364 0.608761429008719 0.0
  outer loop
    vertex 3.010050506338836 -46.989949493661214 -1.1734671816476805e-07
    vertex 2.787564434701788 -46.700000000000045 15.999999882653281
    vertex 3.010050506338836 -46.989949493661214 15.999999882653281
  endloop
endfacet
facet normal 0.7933533402912364 0.608761429008719 0.0
  outer loop
    vertex 2.787564434701788 -46.700000000000045 15.999999882653281
    vertex 3.010050506338836 -46.989949493661214 -1.1734671816476805e-07
    vertex 2.787564434701788 -46.700000000000045 -1.1734671816476805e-07
  endloop
endfacet
facet normal 0.6087614290087157 0.793353340291239 2.6184480028624553e-19
  outer loop
    vertex 3.300000000000001 -47.21243556529826 15.999999882653269
    vertex 3.010050506338836 -46.989949493661214 -1.1734671816476805e-07
    vertex 3.010050506338836 -46.989949493661214 15.999999882653281
  endloop
endfacet
facet normal 0.6087614290087157 0.793353340291239 2.6184480028624553e-19
  outer loop
    vertex 3.010050506338836 -46.989949493661214 -1.1734671816476805e-07
    vertex 3.300000000000001 -47.21243556529826 15.999999882653269
    vertex 3.300000000000001 -47.21243556529826 -1.1734672944463398e-07
  endloop
endfacet
facet normal 0.38268343236509 0.9238795325112867 0.0
  outer loop
    vertex 3.637653336856472 -47.35229615680474 15.999999882653269
    vertex 3.300000000000001 -47.21243556529826 -1.1734672944463398e-07
    vertex 3.300000000000001 -47.21243556529826 15.999999882653269
  endloop
endfacet
facet normal 0.38268343236509 0.9238795325112867 0.0
  outer loop
    vertex 3.300000000000001 -47.21243556529826 -1.1734672944463398e-07
    vertex 3.637653336856472 -47.35229615680474 15.999999882653269
    vertex 3.637653336856472 -47.35229615680474 -1.1734672944463398e-07
  endloop
endfacet
facet normal 0.13052619222005518 0.99144486137381 0.0
  outer loop
    vertex 3.9999999999999996 -47.40000000000004 15.999999882653269
    vertex 3.637653336856472 -47.35229615680474 -1.1734672944463398e-07
    vertex 3.637653336856472 -47.35229615680474 15.999999882653269
  endloop
endfacet
facet normal 0.13052619222005518 0.99144486137381 0.0
  outer loop
    vertex 3.637653336856472 -47.35229615680474 -1.1734672944463398e-07
    vertex 3.9999999999999996 -47.40000000000004 15.999999882653269
    vertex 3.9999999999999996 -47.40000000000004 -1.1734672944463398e-07
  endloop
endfacet
facet normal -0.13052619222005496 0.99144486137381 0.0
  outer loop
    vertex 4.362346663143528 -47.35229615680474 15.999999882653269
    vertex 3.9999999999999996 -47.40000000000004 -1.1734672944463398e-07
    vertex 3.9999999999999996 -47.40000000000004 15.999999882653269
  endloop
endfacet
facet normal -0.13052619222005496 0.99144486137381 0.0
  outer loop
    vertex 3.9999999999999996 -47.40000000000004 -1.1734672944463398e-07
    vertex 4.362346663143528 -47.35229615680474 15.999999882653269
    vertex 4.362346663143528 -47.35229615680474 -1.1734672944463398e-07
  endloop
endfacet
facet normal -0.38268343236509 0.9238795325112867 0.0
  outer loop
    vertex 4.699999999999999 -47.21243556529826 15.999999882653269
    vertex 4.362346663143528 -47.35229615680474 -1.1734672944463398e-07
    vertex 4.362346663143528 -47.35229615680474 15.999999882653269
  endloop
endfacet
facet normal -0.38268343236509 0.9238795325112867 0.0
  outer loop
    vertex 4.362346663143528 -47.35229615680474 -1.1734672944463398e-07
    vertex 4.699999999999999 -47.21243556529826 15.999999882653269
    vertex 4.699999999999999 -47.21243556529826 -1.1734672944463398e-07
  endloop
endfacet
facet normal -0.6087614290087157 0.793353340291239 -1.7170040877712117e-19
  outer loop
    vertex 4.989949493661165 -46.989949493661214 15.999999882653281
    vertex 4.699999999999999 -47.21243556529826 -1.1734672944463398e-07
    vertex 4.699999999999999 -47.21243556529826 15.999999882653269
  endloop
endfacet
facet normal -0.6087614290087157 0.793353340291239 -1.7170040877712117e-19
  outer loop
    vertex 4.699999999999999 -47.21243556529826 -1.1734672944463398e-07
    vertex 4.989949493661165 -46.989949493661214 15.999999882653281
    vertex 4.989949493661165 -46.989949493661214 -1.1734671816476805e-07
  endloop
endfacet
facet normal -0.7933533402912374 0.6087614290087179 0.0
  outer loop
    vertex 5.212435565298211 -46.700000000000045 -1.1734671816476805e-07
    vertex 4.989949493661165 -46.989949493661214 15.999999882653281
    vertex 5.212435565298211 -46.700000000000045 15.999999882653281
  endloop
endfacet
facet normal -0.7933533402912374 0.6087614290087179 0.0
  outer loop
    vertex 4.989949493661165 -46.989949493661214 15.999999882653281
    vertex 5.212435565298211 -46.700000000000045 -1.1734671816476805e-07
    vertex 4.989949493661165 -46.989949493661214 -1.1734671816476805e-07
  endloop
endfacet
facet normal -0.9238795325112855 0.3826834323650927 0.0
  outer loop
    vertex 5.352296156804693 -46.362346663143576 -1.1734671816476805e-07
    vertex 5.212435565298211 -46.700000000000045 15.999999882653281
    vertex 5.352296156804693 -46.362346663143576 15.999999882653281
  endloop
endfacet
facet normal -0.9238795325112855 0.3826834323650927 0.0
  outer loop
    vertex 5.212435565298211 -46.700000000000045 15.999999882653281
    vertex 5.352296156804693 -46.362346663143576 -1.1734671816476805e-07
    vertex 5.212435565298211 -46.700000000000045 -1.1734671816476805e-07
  endloop
endfacet
facet normal -0.9914448613738107 0.1305261922200504 -1.1382335379115185e-19
  outer loop
    vertex 5.399999999999997 -46.00000000000004 15.999999882653269
    vertex 5.352296156804693 -46.362346663143576 -1.1734671816476805e-07
    vertex 5.352296156804693 -46.362346663143576 15.999999882653281
  endloop
endfacet
facet normal -0.9914448613738107 0.1305261922200504 -1.1382335379115185e-19
  outer loop
    vertex 5.352296156804693 -46.362346663143576 -1.1734671816476805e-07
    vertex 5.399999999999997 -46.00000000000004 15.999999882653269
    vertex 5.399999999999997 -46.00000000000004 -1.1734672944463398e-07
  endloop
endfacet
facet normal -0.9914448613738107 -0.13052619222005044 0.0
  outer loop
    vertex 5.352296156804693 -45.637653336856516 -1.1734672944463398e-07
    vertex 5.399999999999997 -46.00000000000004 15.999999882653269
    vertex 5.352296156804693 -45.637653336856516 15.999999882653269
  endloop
endfacet
facet normal -0.9914448613738107 -0.13052619222005044 0.0
  outer loop
    vertex 5.399999999999997 -46.00000000000004 15.999999882653269
    vertex 5.352296156804693 -45.637653336856516 -1.1734672944463398e-07
    vertex 5.399999999999997 -46.00000000000004 -1.1734672944463398e-07
  endloop
endfacet
facet normal -0.9238795325112855 -0.3826834323650927 0.0
  outer loop
    vertex 5.212435565298211 -45.30000000000005 -1.1734672944463398e-07
    vertex 5.352296156804693 -45.637653336856516 15.999999882653269
    vertex 5.212435565298211 -45.30000000000005 15.999999882653269
  endloop
endfacet
facet normal -0.9238795325112855 -0.3826834323650927 0.0
  outer loop
    vertex 5.352296156804693 -45.637653336856516 15.999999882653269
    vertex 5.212435565298211 -45.30000000000005 -1.1734672944463398e-07
    vertex 5.352296156804693 -45.637653336856516 -1.1734672944463398e-07
  endloop
endfacet
facet normal 9.043513779861026e-17 1.6116744865705024e-15 -1.0
  outer loop
    vertex 2.2235428646924373 -49.897777478867226 -7.895906151134113e-14
    vertex 5.00000025331974 -50.00000000000002 -7.895906151134113e-14
    vertex 3.0 -50.00000000000002 -7.895906151134113e-14
  endloop
endfacet
facet normal 9.043513779861026e-17 1.6116744865705024e-15 -1.0
  outer loop
    vertex 5.00000025331974 -50.00000000000002 -7.895906151134113e-14
    vertex 2.2235428646924373 -49.897777478867226 -7.895906151134113e-14
    vertex 5.7764573886273025 -49.897777478867226 -7.895906151134113e-14
  endloop
endfacet
facet normal 9.043513779861026e-17 1.6116744865705024e-15 -1.0
  outer loop
    vertex 5.7764573886273025 -49.897777478867226 -7.895906151134113e-14
    vertex 2.2235428646924373 -49.897777478867226 -7.895906151134113e-14
    vertex 1.4999999999999998 -49.59807621135334 -9.023892744153272e-14
  endloop
endfacet
facet normal 9.043513779861026e-17 1.6116744865705024e-15 -1.0
  outer loop
    vertex 5.7764573886273025 -49.897777478867226 -7.895906151134113e-14
    vertex 1.4999999999999998 -49.59807621135334 -9.023892744153272e-14
    vertex 6.50000025331974 -49.59807621135334 -9.023892744153272e-14
  endloop
endfacet
facet normal 9.043513779861026e-17 1.6116744865705024e-15 -1.0
  outer loop
    vertex 6.50000025331974 -49.59807621135334 -9.023892744153272e-14
    vertex 1.4999999999999998 -49.59807621135334 -9.023892744153272e-14
    vertex 0.8786796564403572 -49.12132034355967 -9.023892744153272e-14
  endloop
endfacet
facet normal 9.043513779861026e-17 1.6116744865705024e-15 -1.0
  outer loop
    vertex 6.50000025331974 -49.59807621135334 -9.023892744153272e-14
    vertex 0.8786796564403572 -49.12132034355967 -9.023892744153272e-14
    vertex 7.121320596879382 -49.12132034355967 -9.023892744153272e-14
  endloop
endfacet
facet normal 9.043513779861026e-17 1.6116744865705024e-15 -1.0
  outer loop
    vertex 7.121320596879382 -49.12132034355967 -9.023892744153272e-14
    vertex 0.8786796564403572 -49.12132034355967 -9.023892744153272e-14
    vertex 0.40192378864668404 -48.50000000000002 -7.613909502879323e-14
  endloop
endfacet
facet normal 9.043513779861026e-17 1.6116744865705024e-15 -1.0
  outer loop
    vertex 7.121320596879382 -49.12132034355967 -9.023892744153272e-14
    vertex 0.40192378864668404 -48.50000000000002 -7.613909502879323e-14
    vertex 7.598076464673056 -48.50000000000002 -7.613909502879323e-14
  endloop
endfacet
facet normal 9.043513779861026e-17 1.6116744865705024e-15 -1.0
  outer loop
    vertex 7.598076464673056 -48.50000000000002 -7.613909502879323e-14
    vertex 0.40192378864668404 -48.50000000000002 -7.613909502879323e-14
    vertex 0.10222252113279491 -47.77645713530758 -8.741896095898482e-14
  endloop
endfacet
facet normal 9.043513779861026e-17 1.6116744865705024e-15 -1.0
  outer loop
    vertex 7.598076464673056 -48.50000000000002 -7.613909502879323e-14
    vertex 0.10222252113279491 -47.77645713530758 -8.741896095898482e-14
    vertex 7.897777732186945 -47.77645713530758 -8.741896095898482e-14
  endloop
endfacet
facet normal 9.043513779861026e-17 1.6116744865705024e-15 -1.0
  outer loop
    vertex 7.897777732186945 -47.77645713530758 -8.741896095898482e-14
    vertex 0.10222252113279491 -47.77645713530758 -8.741896095898482e-14
    vertex 3.9999999999999996 -47.40000000000004 -1.1734672944463398e-07
  endloop
endfacet
facet normal 9.043513779861026e-17 1.6116744865705024e-15 -1.0
  outer loop
    vertex 3.9999999999999996 -47.40000000000004 -1.1734672944463398e-07
    vertex 0.10222252113279491 -47.77645713530758 -8.741896095898482e-14
    vertex 0.0 -47.00000000000002 -7.331912854624534e-14
  endloop
endfacet
facet normal 9.043513779861026e-17 1.6116744865705024e-15 -1.0
  outer loop
    vertex 3.9999999999999996 -47.40000000000004 -1.1734672944463398e-07
    vertex 0.0 -47.00000000000002 -7.331912854624534e-14
    vertex 3.637653336856472 -47.35229615680474 -1.1734672944463398e-07
  endloop
endfacet
facet normal 9.043513779861026e-17 1.6116744865705024e-15 -1.0
  outer loop
    vertex 3.637653336856472 -47.35229615680474 -1.1734672944463398e-07
    vertex 0.0 -47.00000000000002 -7.331912854624534e-14
    vertex 3.300000000000001 -47.21243556529826 -1.1734672944463398e-07
  endloop
endfacet
facet normal 9.043513779861026e-17 1.6116744865705024e-15 -1.0
  outer loop
    vertex 3.300000000000001 -47.21243556529826 -1.1734672944463398e-07
    vertex 0.0 -47.00000000000002 -7.331912854624534e-14
    vertex 3.010050506338836 -46.989949493661214 -1.1734671816476805e-07
  endloop
endfacet
facet normal 9.043513779861026e-17 1.6116744865705024e-15 -1.0
  outer loop
    vertex 3.010050506338836 -46.989949493661214 -1.1734671816476805e-07
    vertex 0.0 -47.00000000000002 -7.331912854624534e-14
    vertex 0.0 -44.00000000000002 -8.177902799388902e-14
  endloop
endfacet
facet normal 9.043513779861026e-17 1.6116744865705024e-15 -1.0
  outer loop
    vertex 3.010050506338836 -46.989949493661214 -1.1734671816476805e-07
    vertex 0.0 -44.00000000000002 -8.177902799388902e-14
    vertex 2.787564434701788 -46.700000000000045 -1.1734671816476805e-07
  endloop
endfacet
facet normal 9.043513779861026e-17 1.6116744865705024e-15 -1.0
  outer loop
    vertex 2.787564434701788 -46.700000000000045 -1.1734671816476805e-07
    vertex 0.0 -44.00000000000002 -8.177902799388902e-14
    vertex 2.647703843195307 -46.362346663143576 -1.1734671816476805e-07
  endloop
endfacet
facet normal 9.043513779861026e-17 1.6116744865705024e-15 -1.0
  outer loop
    vertex 2.647703843195307 -46.362346663143576 -1.1734671816476805e-07
    vertex 0.0 -44.00000000000002 -8.177902799388902e-14
    vertex 2.6000000000000023 -46.00000000000004 -1.1734672944463398e-07
  endloop
endfacet
facet normal 9.043513779861026e-17 1.6116744865705024e-15 -1.0
  outer loop
    vertex 2.6000000000000023 -46.00000000000004 -1.1734672944463398e-07
    vertex 0.0 -44.00000000000002 -8.177902799388902e-14
    vertex 2.6477038431953064 -45.63765333685652 -1.1734672944463398e-07
  endloop
endfacet
facet normal 9.043513779861026e-17 1.6116744865705024e-15 -1.0
  outer loop
    vertex 2.6477038431953064 -45.63765333685652 -1.1734672944463398e-07
    vertex 0.0 -44.00000000000002 -8.177902799388902e-14
    vertex 2.787564434701787 -45.30000000000005 -1.1734672944463398e-07
  endloop
endfacet
facet normal 9.043513779861026e-17 1.6116744865705024e-15 -1.0
  outer loop
    vertex 2.787564434701787 -45.30000000000005 -1.1734672944463398e-07
    vertex 0.0 -44.00000000000002 -8.177902799388902e-14
    vertex 3.0100505063388345 -45.01005050633888 -1.1734671816476805e-07
  endloop
endfacet
facet normal 9.043513779861026e-17 1.6116744865705024e-15 -1.0
  outer loop
    vertex 3.0100505063388345 -45.01005050633888 -1.1734671816476805e-07
    vertex 0.0 -44.00000000000002 -8.177902799388902e-14
    vertex 3.3000000000000003 -44.787564434701835 -1.1734671816476805e-07
  endloop
endfacet
facet normal 9.043513779861026e-17 1.6116744865705024e-15 -1.0
  outer loop
    vertex 3.3000000000000003 -44.787564434701835 -1.1734671816476805e-07
    vertex 0.0 -44.00000000000002 -8.177902799388902e-14
    vertex 3.6376533368564705 -44.64770384319535 -1.1734671816476805e-07
  endloop
endfacet
facet normal 9.043513779861026e-17 1.6116744865705024e-15 -1.0
  outer loop
    vertex 3.6376533368564705 -44.64770384319535 -1.1734671816476805e-07
    vertex 0.0 -44.00000000000002 -8.177902799388902e-14
    vertex 3.9999999999999996 -44.60000000000005 -1.1734671816476805e-07
  endloop
endfacet
facet normal 9.043513779861026e-17 1.6116744865705024e-15 -1.0
  outer loop
    vertex 3.9999999999999996 -47.40000000000004 -1.1734672944463398e-07
    vertex 8.00000025331974 -47.00000000000002 -7.331912854624534e-14
    vertex 7.897777732186945 -47.77645713530758 -8.741896095898482e-14
  endloop
endfacet
facet normal 9.043513779861026e-17 1.6116744865705024e-15 -1.0
  outer loop
    vertex 8.00000025331974 -47.00000000000002 -7.331912854624534e-14
    vertex 3.9999999999999996 -47.40000000000004 -1.1734672944463398e-07
    vertex 4.362346663143528 -47.35229615680474 -1.1734672944463398e-07
  endloop
endfacet
facet normal 9.043513779861026e-17 1.6116744865705024e-15 -1.0
  outer loop
    vertex 8.00000025331974 -47.00000000000002 -7.331912854624534e-14
    vertex 4.362346663143528 -47.35229615680474 -1.1734672944463398e-07
    vertex 4.699999999999999 -47.21243556529826 -1.1734672944463398e-07
  endloop
endfacet
facet normal 9.043513779861026e-17 1.6116744865705024e-15 -1.0
  outer loop
    vertex 8.00000025331974 -47.00000000000002 -7.331912854624534e-14
    vertex 4.699999999999999 -47.21243556529826 -1.1734672944463398e-07
    vertex 4.989949493661165 -46.989949493661214 -1.1734671816476805e-07
  endloop
endfacet
facet normal 9.043513779861026e-17 1.6116744865705024e-15 -1.0
  outer loop
    vertex 8.00000025331974 -47.00000000000002 -7.331912854624534e-14
    vertex 4.989949493661165 -46.989949493661214 -1.1734671816476805e-07
    vertex 5.212435565298211 -46.700000000000045 -1.1734671816476805e-07
  endloop
endfacet
facet normal 9.043513779861026e-17 1.6116744865705024e-15 -1.0
  outer loop
    vertex 8.00000025331974 -47.00000000000002 -7.331912854624534e-14
    vertex 5.212435565298211 -46.700000000000045 -1.1734671816476805e-07
    vertex 5.352296156804693 -46.362346663143576 -1.1734671816476805e-07
  endloop
endfacet
facet normal 9.043513779861026e-17 1.6116744865705024e-15 -1.0
  outer loop
    vertex 8.00000025331974 -47.00000000000002 -7.331912854624534e-14
    vertex 5.352296156804693 -46.362346663143576 -1.1734671816476805e-07
    vertex 5.399999999999997 -46.00000000000004 -1.1734672944463398e-07
  endloop
endfacet
facet normal 9.043513779861026e-17 1.6116744865705024e-15 -1.0
  outer loop
    vertex 8.00000025331974 -47.00000000000002 -7.331912854624534e-14
    vertex 5.399999999999997 -46.00000000000004 -1.1734672944463398e-07
    vertex 8.00000025331974 -2.255973186038318e-14 0.0
  endloop
endfacet
facet normal 9.043513779861026e-17 1.6116744865705024e-15 -1.0
  outer loop
    vertex 8.00000025331974 -2.255973186038318e-14 0.0
    vertex 5.399999999999997 -46.00000000000004 -1.1734672944463398e-07
    vertex 5.352296156804693 -45.637653336856516 -1.1734672944463398e-07
  endloop
endfacet
facet normal 9.043513779861026e-17 1.6116744865705024e-15 -1.0
  outer loop
    vertex 8.00000025331974 -2.255973186038318e-14 0.0
    vertex 5.352296156804693 -45.637653336856516 -1.1734672944463398e-07
    vertex 5.212435565298211 -45.30000000000005 -1.1734672944463398e-07
  endloop
endfacet
facet normal 9.043513779861026e-17 1.6116744865705024e-15 -1.0
  outer loop
    vertex 8.00000025331974 -2.255973186038318e-14 0.0
    vertex 5.212435565298211 -45.30000000000005 -1.1734672944463398e-07
    vertex 4.989949493661165 -45.01005050633888 -1.1734671816476805e-07
  endloop
endfacet
facet normal 9.043513779861026e-17 1.6116744865705024e-15 -1.0
  outer loop
    vertex 8.00000025331974 -2.255973186038318e-14 0.0
    vertex 4.989949493661165 -45.01005050633888 -1.1734671816476805e-07
    vertex 4.699999999999998 -44.787564434701835 -1.1734671816476805e-07
  endloop
endfacet
facet normal 9.043513779861026e-17 1.6116744865705024e-15 -1.0
  outer loop
    vertex 8.00000025331974 -2.255973186038318e-14 0.0
    vertex 4.699999999999998 -44.787564434701835 -1.1734671816476805e-07
    vertex 4.362346663143528 -44.64770384319535 -1.1734671816476805e-07
  endloop
endfacet
facet normal 9.043513779861026e-17 1.6116744865705024e-15 -1.0
  outer loop
    vertex 8.00000025331974 -2.255973186038318e-14 0.0
    vertex 4.362346663143528 -44.64770384319535 -1.1734671816476805e-07
    vertex 3.9999999999999996 -44.60000000000005 -1.1734671816476805e-07
  endloop
endfacet
facet normal 9.043513779861026e-17 1.6116744865705024e-15 -1.0
  outer loop
    vertex 8.00000025331974 -2.255973186038318e-14 0.0
    vertex 3.9999999999999996 -44.60000000000005 -1.1734671816476805e-07
    vertex 0.0 -44.00000000000002 -8.177902799388902e-14
  endloop
endfacet
facet normal 9.043513779861026e-17 1.6116744865705024e-15 -1.0
  outer loop
    vertex 8.00000025331974 -2.255973186038318e-14 0.0
    vertex 0.0 -44.00000000000002 -8.177902799388902e-14
    vertex 0.0 -2.255973186038318e-14 0.0
  endloop
endfacet
endsolid Hinge_Corners_2_5mm
