solid arc
facet normal -0.7071067811865375 -0.7071067811865577 -5.975657873262347e-15
  outer loop
    vertex 171.20608491302931 227.14546823351844 0.0
    vertex 166.92683464666507 231.42471849988257 -1.9999999999999998
    vertex 171.20608491302931 227.14546823351844 -1.9999999999999998
  endloop
endfacet
facet normal -0.7071067811865375 -0.7071067811865577 -5.975657873262347e-15
  outer loop
    vertex 166.92683464666507 231.42471849988257 -1.9999999999999998
    vertex 171.20608491302931 227.14546823351844 0.0
    vertex 168.35325140211978 229.99830174442783 0.0
  endloop
endfacet
facet normal -0.7071067811865375 -0.7071067811865577 -5.975657873262347e-15
  outer loop
    vertex 166.92683464666507 231.42471849988257 -1.9999999999999998
    vertex 168.35325140211978 229.99830174442783 0.0
    vertex 166.92683464666507 231.42471849988257 2.5000000000000004
  endloop
endfacet
facet normal -0.7071067811865375 -0.7071067811865577 -5.975657873262347e-15
  outer loop
    vertex 166.92683464666507 231.42471849988257 2.5000000000000004
    vertex 168.35325140211978 229.99830174442783 0.0
    vertex 168.35325140211978 229.99830174442783 2.5000000000000004
  endloop
endfacet
facet normal 0.0 0.0 1.0
  outer loop
    vertex 104.77801231804642 247.03323571562086 2.5000000000000004
    vertex 104.77801231804645 266.7034831434124 2.5000000000000004
    vertex 103.48319371703103 256.8683594295166 2.5000000000000004
  endloop
endfacet
facet normal 0.0 0.0 1.0
  outer loop
    vertex 104.77801231804645 266.7034831434124 2.5000000000000004
    vertex 104.77801231804642 247.03323571562086 2.5000000000000004
    vertex 105.50045163819135 256.8683594295166 2.5000000000000004
  endloop
endfacet
facet normal 0.0 0.0 1.0
  outer loop
    vertex 105.50045163819135 256.8683594295166 2.5000000000000004
    vertex 104.77801231804642 247.03323571562086 2.5000000000000004
    vertex 106.72653384238134 247.5553404845011 2.5000000000000004
  endloop
endfacet
facet normal 0.0 0.0 1.0
  outer loop
    vertex 106.72653384238134 247.5553404845011 2.5000000000000004
    vertex 104.77801231804642 247.03323571562086 2.5000000000000004
    vertex 108.57422837322235 237.86835942951663 2.5000000000000004
  endloop
endfacet
facet normal 0.0 0.0 1.0
  outer loop
    vertex 106.72653384238134 247.5553404845011 2.5000000000000004
    vertex 108.57422837322235 237.86835942951663 2.5000000000000004
    vertex 110.3212249789326 238.87698839009676 2.5000000000000004
  endloop
endfacet
facet normal 0.0 0.0 1.0
  outer loop
    vertex 110.3212249789326 238.87698839009676 2.5000000000000004
    vertex 108.57422837322235 237.86835942951663 2.5000000000000004
    vertex 114.61313603194222 229.99830174442783 2.5000000000000004
  endloop
endfacet
facet normal 0.0 0.0 1.0
  outer loop
    vertex 110.3212249789326 238.87698839009676 2.5000000000000004
    vertex 114.61313603194222 229.99830174442783 2.5000000000000004
    vertex 116.03955278739697 231.42471849988254 2.5000000000000004
  endloop
endfacet
facet normal 0.0 0.0 1.0
  outer loop
    vertex 116.03955278739697 231.42471849988254 2.5000000000000004
    vertex 114.61313603194222 229.99830174442783 2.5000000000000004
    vertex 122.483193717031 223.95939408570794 2.5000000000000004
  endloop
endfacet
facet normal 0.0 0.0 1.0
  outer loop
    vertex 116.03955278739697 231.42471849988254 2.5000000000000004
    vertex 122.483193717031 223.95939408570794 2.5000000000000004
    vertex 123.49182267761121 225.7063906914181 2.5000000000000004
  endloop
endfacet
facet normal 0.0 0.0 1.0
  outer loop
    vertex 123.49182267761121 225.7063906914181 2.5000000000000004
    vertex 122.483193717031 223.95939408570794 2.5000000000000004
    vertex 131.6480700031352 220.16317803053204 2.5000000000000004
  endloop
endfacet
facet normal 0.0 0.0 1.0
  outer loop
    vertex 123.49182267761121 225.7063906914181 2.5000000000000004
    vertex 131.6480700031352 220.16317803053204 2.5000000000000004
    vertex 132.17017477201526 222.11169955486702 2.5000000000000004
  endloop
endfacet
facet normal 0.0 0.0 1.0
  outer loop
    vertex 132.17017477201526 222.11169955486702 2.5000000000000004
    vertex 131.6480700031352 220.16317803053204 2.5000000000000004
    vertex 141.483193717031 218.86835942951663 2.5000000000000004
  endloop
endfacet
facet normal 0.0 0.0 1.0
  outer loop
    vertex 132.17017477201526 222.11169955486702 2.5000000000000004
    vertex 141.483193717031 218.86835942951663 2.5000000000000004
    vertex 141.48319371703096 220.88561735067697 2.5000000000000004
  endloop
endfacet
facet normal 0.0 0.0 1.0
  outer loop
    vertex 141.48319371703096 220.88561735067697 2.5000000000000004
    vertex 141.483193717031 218.86835942951663 2.5000000000000004
    vertex 150.79621266204674 222.11169955486702 2.5000000000000004
  endloop
endfacet
facet normal 0.0 0.0 1.0
  outer loop
    vertex 150.79621266204674 222.11169955486702 2.5000000000000004
    vertex 141.483193717031 218.86835942951663 2.5000000000000004
    vertex 151.31831743092678 220.16317803053204 2.5000000000000004
  endloop
endfacet
facet normal 0.0 0.0 1.0
  outer loop
    vertex 150.79621266204674 222.11169955486702 2.5000000000000004
    vertex 151.31831743092678 220.16317803053204 2.5000000000000004
    vertex 159.4745647564508 225.7063906914181 2.5000000000000004
  endloop
endfacet
facet normal 0.0 0.0 1.0
  outer loop
    vertex 159.4745647564508 225.7063906914181 2.5000000000000004
    vertex 151.31831743092678 220.16317803053204 2.5000000000000004
    vertex 160.48319371703099 223.95939408570794 2.5000000000000004
  endloop
endfacet
facet normal 0.0 0.0 1.0
  outer loop
    vertex 159.4745647564508 225.7063906914181 2.5000000000000004
    vertex 160.48319371703099 223.95939408570794 2.5000000000000004
    vertex 166.92683464666507 231.42471849988257 2.5000000000000004
  endloop
endfacet
facet normal 0.0 0.0 1.0
  outer loop
    vertex 166.92683464666507 231.42471849988257 2.5000000000000004
    vertex 160.48319371703099 223.95939408570794 2.5000000000000004
    vertex 168.35325140211978 229.99830174442783 2.5000000000000004
  endloop
endfacet
facet normal 0.0 0.0 1.0
  outer loop
    vertex 104.77801231804645 266.7034831434124 2.5000000000000004
    vertex 106.72653384238137 266.1813783745322 2.5000000000000004
    vertex 108.57422837322237 275.8683594295166 2.5000000000000004
  endloop
endfacet
facet normal 0.0 0.0 1.0
  outer loop
    vertex 106.72653384238137 266.1813783745322 2.5000000000000004
    vertex 104.77801231804645 266.7034831434124 2.5000000000000004
    vertex 105.50045163819135 256.8683594295166 2.5000000000000004
  endloop
endfacet
facet normal 0.0 0.0 1.0
  outer loop
    vertex 108.57422837322237 275.8683594295166 2.5000000000000004
    vertex 106.72653384238137 266.1813783745322 2.5000000000000004
    vertex 110.32122497893259 274.85973046893645 2.5000000000000004
  endloop
endfacet
facet normal 0.0 0.0 1.0
  outer loop
    vertex 108.57422837322237 275.8683594295166 2.5000000000000004
    vertex 110.32122497893259 274.85973046893645 2.5000000000000004
    vertex 114.61313603194222 283.73841711460545 2.5000000000000004
  endloop
endfacet
facet normal 0.0 0.0 1.0
  outer loop
    vertex 114.61313603194222 283.73841711460545 2.5000000000000004
    vertex 110.32122497893259 274.85973046893645 2.5000000000000004
    vertex 116.03955278739704 282.31200035915083 2.5000000000000004
  endloop
endfacet
facet normal -0.7071067811865451 -0.70710678118655 -1.5292966530915083e-14
  outer loop
    vertex 116.03955278739704 282.31200035915083 -1.9999999999999998
    vertex 114.61313603194222 283.73841711460545 0.0
    vertex 111.76030252103286 286.591250625515 -1.9999999999999998
  endloop
endfacet
facet normal -0.7071067811865451 -0.70710678118655 -1.5292966530915083e-14
  outer loop
    vertex 114.61313603194222 283.73841711460545 0.0
    vertex 116.03955278739704 282.31200035915083 -1.9999999999999998
    vertex 116.03955278739704 282.31200035915083 2.5000000000000004
  endloop
endfacet
facet normal -0.7071067811865451 -0.70710678118655 -1.5292966530915083e-14
  outer loop
    vertex 114.61313603194222 283.73841711460545 0.0
    vertex 116.03955278739704 282.31200035915083 2.5000000000000004
    vertex 114.61313603194222 283.73841711460545 2.5000000000000004
  endloop
endfacet
facet normal -0.7071067811865451 -0.70710678118655 -1.5292966530915083e-14
  outer loop
    vertex 111.76030252103286 286.591250625515 0.0
    vertex 111.76030252103286 286.591250625515 -1.9999999999999998
    vertex 114.61313603194222 283.73841711460545 0.0
  endloop
endfacet
facet normal 0.6087614290087232 -0.7933533402912333 0.0
  outer loop
    vertex 171.20608491302931 227.14546823351844 0.0
    vertex 162.5004516381912 220.46540087428747 -1.9999999999999998
    vertex 171.20608491302931 227.14546823351844 -1.9999999999999998
  endloop
endfacet
facet normal 0.6087614290087232 -0.7933533402912333 0.0
  outer loop
    vertex 162.5004516381912 220.46540087428747 -1.9999999999999998
    vertex 171.20608491302931 227.14546823351844 0.0
    vertex 162.5004516381912 220.46540087428747 0.0
  endloop
endfacet
facet normal -0.9238795325112867 -0.3826834323650899 -0.0
  outer loop
    vertex 100.88096926937656 245.9890261778604 0.0
    vertex 105.08023516180197 235.85110150835627 -1.9999999999999998
    vertex 105.08023516180197 235.85110150835627 0.0
  endloop
endfacet
facet normal -0.9238795325112867 -0.3826834323650899 -0.0
  outer loop
    vertex 105.08023516180197 235.85110150835627 -1.9999999999999998
    vertex 100.88096926937656 245.9890261778604 0.0
    vertex 100.88096926937656 245.9890261778604 -1.9999999999999998
  endloop
endfacet
facet normal -0.9914448613738104 0.13052619222005263 0.0
  outer loop
    vertex 100.88096926937656 267.74769268117274 0.0
    vertex 99.44867787471041 256.8683594295166 -1.9999999999999998
    vertex 99.44867787471041 256.8683594295166 0.0
  endloop
endfacet
facet normal -0.9914448613738104 0.13052619222005263 0.0
  outer loop
    vertex 99.44867787471041 256.8683594295166 -1.9999999999999998
    vertex 100.88096926937656 267.74769268117274 0.0
    vertex 100.88096926937656 267.74769268117274 -1.9999999999999998
  endloop
endfacet
facet normal -0.7933533402912356 0.6087614290087203 0.0
  outer loop
    vertex 111.76030252103286 286.591250625515 0.0
    vertex 105.08023516180195 277.8856173506769 -1.9999999999999998
    vertex 105.08023516180195 277.8856173506769 0.0
  endloop
endfacet
facet normal -0.7933533402912356 0.6087614290087203 0.0
  outer loop
    vertex 105.08023516180195 277.8856173506769 -1.9999999999999998
    vertex 111.76030252103286 286.591250625515 0.0
    vertex 111.76030252103286 286.591250625515 -1.9999999999999998
  endloop
endfacet
facet normal -0.38268343236508856 -0.9238795325112873 -0.0
  outer loop
    vertex 130.6038604653747 216.26613498186217 0.0
    vertex 120.46593579587075 220.46540087428747 -1.9999999999999998
    vertex 130.6038604653747 216.26613498186217 -1.9999999999999998
  endloop
endfacet
facet normal -0.38268343236508856 -0.9238795325112873 -0.0
  outer loop
    vertex 120.46593579587075 220.46540087428747 -1.9999999999999998
    vertex 130.6038604653747 216.26613498186217 0.0
    vertex 120.46593579587075 220.46540087428747 0.0
  endloop
endfacet
facet normal 0.3826834323650893 -0.9238795325112871 0.0
  outer loop
    vertex 162.5004516381912 220.46540087428747 0.0
    vertex 152.3625269686873 216.26613498186217 -1.9999999999999998
    vertex 162.5004516381912 220.46540087428747 -1.9999999999999998
  endloop
endfacet
facet normal 0.3826834323650893 -0.9238795325112871 0.0
  outer loop
    vertex 152.3625269686873 216.26613498186217 -1.9999999999999998
    vertex 162.5004516381912 220.46540087428747 0.0
    vertex 152.3625269686873 216.26613498186217 0.0
  endloop
endfacet
facet normal -0.1305261922200543 -0.99144486137381 -0.0
  outer loop
    vertex 141.48319371703096 214.833843587196 0.0
    vertex 130.6038604653747 216.26613498186217 -1.9999999999999998
    vertex 141.48319371703096 214.833843587196 -1.9999999999999998
  endloop
endfacet
facet normal -0.1305261922200543 -0.99144486137381 -0.0
  outer loop
    vertex 130.6038604653747 216.26613498186217 -1.9999999999999998
    vertex 141.48319371703096 214.833843587196 0.0
    vertex 130.6038604653747 216.26613498186217 0.0
  endloop
endfacet
facet normal -0.9914448613738105 -0.1305261922200521 -0.0
  outer loop
    vertex 99.44867787471041 256.8683594295166 0.0
    vertex 100.88096926937656 245.9890261778604 -1.9999999999999998
    vertex 100.88096926937656 245.9890261778604 0.0
  endloop
endfacet
facet normal -0.9914448613738105 -0.1305261922200521 -0.0
  outer loop
    vertex 100.88096926937656 245.9890261778604 -1.9999999999999998
    vertex 99.44867787471041 256.8683594295166 0.0
    vertex 99.44867787471041 256.8683594295166 -1.9999999999999998
  endloop
endfacet
facet normal -0.7933533402912359 -0.6087614290087199 -0.0
  outer loop
    vertex 105.08023516180197 235.85110150835627 0.0
    vertex 111.7603025210327 227.14546823351841 -1.9999999999999998
    vertex 111.7603025210327 227.14546823351841 0.0
  endloop
endfacet
facet normal -0.7933533402912359 -0.6087614290087199 -0.0
  outer loop
    vertex 111.7603025210327 227.14546823351841 -1.9999999999999998
    vertex 105.08023516180197 235.85110150835627 0.0
    vertex 105.08023516180197 235.85110150835627 -1.9999999999999998
  endloop
endfacet
facet normal -0.9238795325112874 0.3826834323650881 0.0
  outer loop
    vertex 105.08023516180195 277.8856173506769 0.0
    vertex 100.88096926937656 267.74769268117274 -1.9999999999999998
    vertex 100.88096926937656 267.74769268117274 0.0
  endloop
endfacet
facet normal -0.9238795325112874 0.3826834323650881 0.0
  outer loop
    vertex 100.88096926937656 267.74769268117274 -1.9999999999999998
    vertex 105.08023516180195 277.8856173506769 0.0
    vertex 105.08023516180195 277.8856173506769 -1.9999999999999998
  endloop
endfacet
facet normal 4.0329040334398115e-33 4.960530539167657e-33 -1.0
  outer loop
    vertex 100.88096926937656 267.74769268117274 -1.9999999999999998
    vertex 100.88096926937656 245.9890261778604 -1.9999999999999998
    vertex 99.44867787471041 256.8683594295166 -1.9999999999999998
  endloop
endfacet
facet normal 4.0329040334398115e-33 4.960530539167657e-33 -1.0
  outer loop
    vertex 100.88096926937656 245.9890261778604 -1.9999999999999998
    vertex 100.88096926937656 267.74769268117274 -1.9999999999999998
    vertex 105.08023516180195 277.8856173506769 -1.9999999999999998
  endloop
endfacet
facet normal 4.0329040334398115e-33 4.960530539167657e-33 -1.0
  outer loop
    vertex 100.88096926937656 245.9890261778604 -1.9999999999999998
    vertex 105.08023516180195 277.8856173506769 -1.9999999999999998
    vertex 105.08023516180197 235.85110150835627 -1.9999999999999998
  endloop
endfacet
facet normal 4.0329040334398115e-33 4.960530539167657e-33 -1.0
  outer loop
    vertex 105.08023516180197 235.85110150835627 -1.9999999999999998
    vertex 105.08023516180195 277.8856173506769 -1.9999999999999998
    vertex 105.50045163819135 256.8683594295166 -1.9999999999999998
  endloop
endfacet
facet normal 4.0329040334398115e-33 4.960530539167657e-33 -1.0
  outer loop
    vertex 105.50045163819135 256.8683594295166 -1.9999999999999998
    vertex 105.08023516180195 277.8856173506769 -1.9999999999999998
    vertex 106.72653384238137 266.1813783745322 -1.9999999999999998
  endloop
endfacet
facet normal 4.0329040334398115e-33 4.960530539167657e-33 -1.0
  outer loop
    vertex 106.72653384238137 266.1813783745322 -1.9999999999999998
    vertex 105.08023516180195 277.8856173506769 -1.9999999999999998
    vertex 111.76030252103286 286.591250625515 -1.9999999999999998
  endloop
endfacet
facet normal 4.0329040334398115e-33 4.960530539167657e-33 -1.0
  outer loop
    vertex 106.72653384238137 266.1813783745322 -1.9999999999999998
    vertex 111.76030252103286 286.591250625515 -1.9999999999999998
    vertex 110.32122497893259 274.85973046893645 -1.9999999999999998
  endloop
endfacet
facet normal 4.0329040334398115e-33 4.960530539167657e-33 -1.0
  outer loop
    vertex 110.32122497893259 274.85973046893645 -1.9999999999999998
    vertex 111.76030252103286 286.591250625515 -1.9999999999999998
    vertex 116.03955278739704 282.31200035915083 -1.9999999999999998
  endloop
endfacet
facet normal 4.0329040334398115e-33 4.960530539167657e-33 -1.0
  outer loop
    vertex 105.08023516180197 235.85110150835627 -1.9999999999999998
    vertex 106.72653384238134 247.5553404845011 -1.9999999999999998
    vertex 111.7603025210327 227.14546823351841 -1.9999999999999998
  endloop
endfacet
facet normal 4.0329040334398115e-33 4.960530539167657e-33 -1.0
  outer loop
    vertex 106.72653384238134 247.5553404845011 -1.9999999999999998
    vertex 105.08023516180197 235.85110150835627 -1.9999999999999998
    vertex 105.50045163819135 256.8683594295166 -1.9999999999999998
  endloop
endfacet
facet normal 4.0329040334398115e-33 4.960530539167657e-33 -1.0
  outer loop
    vertex 111.7603025210327 227.14546823351841 -1.9999999999999998
    vertex 106.72653384238134 247.5553404845011 -1.9999999999999998
    vertex 110.3212249789326 238.87698839009676 -1.9999999999999998
  endloop
endfacet
facet normal 4.0329040334398115e-33 4.960530539167657e-33 -1.0
  outer loop
    vertex 111.7603025210327 227.14546823351841 -1.9999999999999998
    vertex 110.3212249789326 238.87698839009676 -1.9999999999999998
    vertex 116.03955278739697 231.42471849988254 -1.9999999999999998
  endloop
endfacet
facet normal 4.0329040334398115e-33 4.960530539167657e-33 -1.0
  outer loop
    vertex 111.7603025210327 227.14546823351841 -1.9999999999999998
    vertex 116.03955278739697 231.42471849988254 -1.9999999999999998
    vertex 120.46593579587075 220.46540087428747 -1.9999999999999998
  endloop
endfacet
facet normal 4.0329040334398115e-33 4.960530539167657e-33 -1.0
  outer loop
    vertex 120.46593579587075 220.46540087428747 -1.9999999999999998
    vertex 116.03955278739697 231.42471849988254 -1.9999999999999998
    vertex 123.49182267761121 225.7063906914181 -1.9999999999999998
  endloop
endfacet
facet normal 4.0329040334398115e-33 4.960530539167657e-33 -1.0
  outer loop
    vertex 120.46593579587075 220.46540087428747 -1.9999999999999998
    vertex 123.49182267761121 225.7063906914181 -1.9999999999999998
    vertex 130.6038604653747 216.26613498186217 -1.9999999999999998
  endloop
endfacet
facet normal 4.0329040334398115e-33 4.960530539167657e-33 -1.0
  outer loop
    vertex 130.6038604653747 216.26613498186217 -1.9999999999999998
    vertex 123.49182267761121 225.7063906914181 -1.9999999999999998
    vertex 132.17017477201526 222.11169955486702 -1.9999999999999998
  endloop
endfacet
facet normal 4.0329040334398115e-33 4.960530539167657e-33 -1.0
  outer loop
    vertex 130.6038604653747 216.26613498186217 -1.9999999999999998
    vertex 132.17017477201526 222.11169955486702 -1.9999999999999998
    vertex 141.48319371703096 214.833843587196 -1.9999999999999998
  endloop
endfacet
facet normal 4.0329040334398115e-33 4.960530539167657e-33 -1.0
  outer loop
    vertex 141.48319371703096 214.833843587196 -1.9999999999999998
    vertex 132.17017477201526 222.11169955486702 -1.9999999999999998
    vertex 141.48319371703096 220.88561735067697 -1.9999999999999998
  endloop
endfacet
facet normal 4.0329040334398115e-33 4.960530539167657e-33 -1.0
  outer loop
    vertex 141.48319371703096 214.833843587196 -1.9999999999999998
    vertex 141.48319371703096 220.88561735067697 -1.9999999999999998
    vertex 150.79621266204674 222.11169955486702 -1.9999999999999998
  endloop
endfacet
facet normal 4.0329040334398115e-33 4.960530539167657e-33 -1.0
  outer loop
    vertex 141.48319371703096 214.833843587196 -1.9999999999999998
    vertex 150.79621266204674 222.11169955486702 -1.9999999999999998
    vertex 152.3625269686873 216.26613498186217 -1.9999999999999998
  endloop
endfacet
facet normal 4.0329040334398115e-33 4.960530539167657e-33 -1.0
  outer loop
    vertex 152.3625269686873 216.26613498186217 -1.9999999999999998
    vertex 150.79621266204674 222.11169955486702 -1.9999999999999998
    vertex 159.4745647564508 225.7063906914181 -1.9999999999999998
  endloop
endfacet
facet normal 4.0329040334398115e-33 4.960530539167657e-33 -1.0
  outer loop
    vertex 152.3625269686873 216.26613498186217 -1.9999999999999998
    vertex 159.4745647564508 225.7063906914181 -1.9999999999999998
    vertex 162.5004516381912 220.46540087428747 -1.9999999999999998
  endloop
endfacet
facet normal 4.0329040334398115e-33 4.960530539167657e-33 -1.0
  outer loop
    vertex 162.5004516381912 220.46540087428747 -1.9999999999999998
    vertex 159.4745647564508 225.7063906914181 -1.9999999999999998
    vertex 166.92683464666507 231.42471849988257 -1.9999999999999998
  endloop
endfacet
facet normal 4.0329040334398115e-33 4.960530539167657e-33 -1.0
  outer loop
    vertex 162.5004516381912 220.46540087428747 -1.9999999999999998
    vertex 166.92683464666507 231.42471849988257 -1.9999999999999998
    vertex 171.20608491302931 227.14546823351844 -1.9999999999999998
  endloop
endfacet
facet normal 0.13052619222005352 -0.9914448613738103 0.0
  outer loop
    vertex 152.3625269686873 216.26613498186217 0.0
    vertex 141.48319371703096 214.833843587196 -1.9999999999999998
    vertex 152.3625269686873 216.26613498186217 -1.9999999999999998
  endloop
endfacet
facet normal 0.13052619222005352 -0.9914448613738103 0.0
  outer loop
    vertex 141.48319371703096 214.833843587196 -1.9999999999999998
    vertex 152.3625269686873 216.26613498186217 0.0
    vertex 141.48319371703096 214.833843587196 0.0
  endloop
endfacet
facet normal -0.6087614290087225 -0.7933533402912337 -0.0
  outer loop
    vertex 120.46593579587075 220.46540087428747 0.0
    vertex 111.7603025210327 227.14546823351841 -1.9999999999999998
    vertex 120.46593579587075 220.46540087428747 -1.9999999999999998
  endloop
endfacet
facet normal -0.6087614290087225 -0.7933533402912337 -0.0
  outer loop
    vertex 111.7603025210327 227.14546823351841 -1.9999999999999998
    vertex 120.46593579587075 220.46540087428747 0.0
    vertex 111.7603025210327 227.14546823351841 0.0
  endloop
endfacet
facet normal -0.6087614290087238 0.7933533402912327 -1.356842844686421e-16
  outer loop
    vertex 159.4745647564508 225.7063906914181 2.5000000000000004
    vertex 166.92683464666507 231.42471849988257 -1.9999999999999998
    vertex 159.4745647564508 225.7063906914181 -1.9999999999999998
  endloop
endfacet
facet normal -0.6087614290087238 0.7933533402912327 -1.356842844686421e-16
  outer loop
    vertex 166.92683464666507 231.42471849988257 -1.9999999999999998
    vertex 159.4745647564508 225.7063906914181 2.5000000000000004
    vertex 166.92683464666507 231.42471849988257 2.5000000000000004
  endloop
endfacet
facet normal -0.6087614290087229 -0.7933533402912334 0.0
  outer loop
    vertex 122.483193717031 223.95939408570794 2.5000000000000004
    vertex 114.61313603194222 229.99830174442783 0.0
    vertex 122.483193717031 223.95939408570794 0.0
  endloop
endfacet
facet normal -0.6087614290087229 -0.7933533402912334 0.0
  outer loop
    vertex 114.61313603194222 229.99830174442783 0.0
    vertex 122.483193717031 223.95939408570794 2.5000000000000004
    vertex 114.61313603194222 229.99830174442783 2.5000000000000004
  endloop
endfacet
facet normal 0.3826834323650896 -0.9238795325112868 0.0
  outer loop
    vertex 160.48319371703099 223.95939408570794 2.5000000000000004
    vertex 151.31831743092678 220.16317803053204 0.0
    vertex 160.48319371703099 223.95939408570794 0.0
  endloop
endfacet
facet normal 0.3826834323650896 -0.9238795325112868 0.0
  outer loop
    vertex 151.31831743092678 220.16317803053204 0.0
    vertex 160.48319371703099 223.95939408570794 2.5000000000000004
    vertex 151.31831743092678 220.16317803053204 2.5000000000000004
  endloop
endfacet
facet normal 0.9914448613738105 -0.13052619222005082 0.0
  outer loop
    vertex 106.72653384238137 266.1813783745322 -1.9999999999999998
    vertex 105.50045163819135 256.8683594295166 2.5000000000000004
    vertex 105.50045163819135 256.8683594295166 -1.9999999999999998
  endloop
endfacet
facet normal 0.9914448613738105 -0.13052619222005082 0.0
  outer loop
    vertex 105.50045163819135 256.8683594295166 2.5000000000000004
    vertex 106.72653384238137 266.1813783745322 -1.9999999999999998
    vertex 106.72653384238137 266.1813783745322 2.5000000000000004
  endloop
endfacet
facet normal 0.9914448613738107 0.13052619222004908 0.0
  outer loop
    vertex 105.50045163819135 256.8683594295166 -1.9999999999999998
    vertex 106.72653384238134 247.5553404845011 2.5000000000000004
    vertex 106.72653384238134 247.5553404845011 -1.9999999999999998
  endloop
endfacet
facet normal 0.9914448613738107 0.13052619222004908 0.0
  outer loop
    vertex 106.72653384238134 247.5553404845011 2.5000000000000004
    vertex 105.50045163819135 256.8683594295166 -1.9999999999999998
    vertex 105.50045163819135 256.8683594295166 2.5000000000000004
  endloop
endfacet
facet normal -0.9238795325112868 0.3826834323650896 0.0
  outer loop
    vertex 108.57422837322237 275.8683594295166 2.5000000000000004
    vertex 104.77801231804645 266.7034831434124 0.0
    vertex 104.77801231804645 266.7034831434124 2.5000000000000004
  endloop
endfacet
facet normal -0.9238795325112868 0.3826834323650896 0.0
  outer loop
    vertex 104.77801231804645 266.7034831434124 0.0
    vertex 108.57422837322237 275.8683594295166 2.5000000000000004
    vertex 108.57422837322237 275.8683594295166 0.0
  endloop
endfacet
facet normal 0.6087614290087224 0.7933533402912338 0.0
  outer loop
    vertex 116.03955278739697 231.42471849988254 2.5000000000000004
    vertex 123.49182267761121 225.7063906914181 -1.9999999999999998
    vertex 116.03955278739697 231.42471849988254 -1.9999999999999998
  endloop
endfacet
facet normal 0.6087614290087224 0.7933533402912338 0.0
  outer loop
    vertex 123.49182267761121 225.7063906914181 -1.9999999999999998
    vertex 116.03955278739697 231.42471849988254 2.5000000000000004
    vertex 123.49182267761121 225.7063906914181 2.5000000000000004
  endloop
endfacet
facet normal -0.7933533402912352 -0.6087614290087207 0.0
  outer loop
    vertex 108.57422837322235 237.86835942951663 2.5000000000000004
    vertex 114.61313603194222 229.99830174442783 0.0
    vertex 114.61313603194222 229.99830174442783 2.5000000000000004
  endloop
endfacet
facet normal -0.7933533402912352 -0.6087614290087207 0.0
  outer loop
    vertex 114.61313603194222 229.99830174442783 0.0
    vertex 108.57422837322235 237.86835942951663 2.5000000000000004
    vertex 108.57422837322235 237.86835942951663 0.0
  endloop
endfacet
facet normal -0.9238795325112868 -0.3826834323650896 0.0
  outer loop
    vertex 104.77801231804642 247.03323571562086 2.5000000000000004
    vertex 108.57422837322235 237.86835942951663 0.0
    vertex 108.57422837322235 237.86835942951663 2.5000000000000004
  endloop
endfacet
facet normal -0.9238795325112868 -0.3826834323650896 0.0
  outer loop
    vertex 108.57422837322235 237.86835942951663 0.0
    vertex 104.77801231804642 247.03323571562086 2.5000000000000004
    vertex 104.77801231804642 247.03323571562086 0.0
  endloop
endfacet
facet normal 0.923879532511286 0.3826834323650919 0.0
  outer loop
    vertex 106.72653384238134 247.5553404845011 -1.9999999999999998
    vertex 110.3212249789326 238.87698839009676 2.5000000000000004
    vertex 110.3212249789326 238.87698839009676 -1.9999999999999998
  endloop
endfacet
facet normal 0.923879532511286 0.3826834323650919 0.0
  outer loop
    vertex 110.3212249789326 238.87698839009676 2.5000000000000004
    vertex 106.72653384238134 247.5553404845011 -1.9999999999999998
    vertex 106.72653384238134 247.5553404845011 2.5000000000000004
  endloop
endfacet
facet normal 0.9238795325112868 -0.38268343236508945 0.0
  outer loop
    vertex 110.32122497893259 274.85973046893645 -1.9999999999999998
    vertex 106.72653384238137 266.1813783745322 2.5000000000000004
    vertex 106.72653384238137 266.1813783745322 -1.9999999999999998
  endloop
endfacet
facet normal 0.9238795325112868 -0.38268343236508945 0.0
  outer loop
    vertex 106.72653384238137 266.1813783745322 2.5000000000000004
    vertex 110.32122497893259 274.85973046893645 -1.9999999999999998
    vertex 110.32122497893259 274.85973046893645 2.5000000000000004
  endloop
endfacet
facet normal 0.7933533402912353 0.6087614290087205 0.0
  outer loop
    vertex 110.3212249789326 238.87698839009676 -1.9999999999999998
    vertex 116.03955278739697 231.42471849988254 2.5000000000000004
    vertex 116.03955278739697 231.42471849988254 -1.9999999999999998
  endloop
endfacet
facet normal 0.7933533402912353 0.6087614290087205 0.0
  outer loop
    vertex 116.03955278739697 231.42471849988254 2.5000000000000004
    vertex 110.3212249789326 238.87698839009676 -1.9999999999999998
    vertex 110.3212249789326 238.87698839009676 2.5000000000000004
  endloop
endfacet
facet normal 0.3826834323650894 0.9238795325112868 0.0
  outer loop
    vertex 123.49182267761121 225.7063906914181 2.5000000000000004
    vertex 132.17017477201526 222.11169955486702 -1.9999999999999998
    vertex 123.49182267761121 225.7063906914181 -1.9999999999999998
  endloop
endfacet
facet normal 0.3826834323650894 0.9238795325112868 0.0
  outer loop
    vertex 132.17017477201526 222.11169955486702 -1.9999999999999998
    vertex 123.49182267761121 225.7063906914181 2.5000000000000004
    vertex 132.17017477201526 222.11169955486702 2.5000000000000004
  endloop
endfacet
facet normal -0.1305261922200501 0.9914448613738107 0.0
  outer loop
    vertex 141.48319371703096 220.88561735067697 2.5000000000000004
    vertex 150.79621266204674 222.11169955486702 -1.9999999999999998
    vertex 141.48319371703096 220.88561735067697 -1.9999999999999998
  endloop
endfacet
facet normal -0.1305261922200501 0.9914448613738107 0.0
  outer loop
    vertex 150.79621266204674 222.11169955486702 -1.9999999999999998
    vertex 141.48319371703096 220.88561735067697 2.5000000000000004
    vertex 150.79621266204674 222.11169955486702 2.5000000000000004
  endloop
endfacet
facet normal -0.9914448613738105 -0.1305261922200511 0.0
  outer loop
    vertex 103.48319371703103 256.8683594295166 2.5000000000000004
    vertex 104.77801231804642 247.03323571562086 0.0
    vertex 104.77801231804642 247.03323571562086 2.5000000000000004
  endloop
endfacet
facet normal -0.9914448613738105 -0.1305261922200511 0.0
  outer loop
    vertex 104.77801231804642 247.03323571562086 0.0
    vertex 103.48319371703103 256.8683594295166 2.5000000000000004
    vertex 103.48319371703103 256.8683594295166 0.0
  endloop
endfacet
facet normal -0.9914448613738103 0.1305261922200527 0.0
  outer loop
    vertex 104.77801231804645 266.7034831434124 2.5000000000000004
    vertex 103.48319371703103 256.8683594295166 0.0
    vertex 103.48319371703103 256.8683594295166 2.5000000000000004
  endloop
endfacet
facet normal -0.9914448613738103 0.1305261922200527 0.0
  outer loop
    vertex 103.48319371703103 256.8683594295166 0.0
    vertex 104.77801231804645 266.7034831434124 2.5000000000000004
    vertex 104.77801231804645 266.7034831434124 0.0
  endloop
endfacet
facet normal 0.6087614290087218 -0.7933533402912343 0.0
  outer loop
    vertex 168.35325140211978 229.99830174442783 2.5000000000000004
    vertex 160.48319371703099 223.95939408570794 0.0
    vertex 168.35325140211978 229.99830174442783 0.0
  endloop
endfacet
facet normal 0.6087614290087218 -0.7933533402912343 0.0
  outer loop
    vertex 160.48319371703099 223.95939408570794 0.0
    vertex 168.35325140211978 229.99830174442783 2.5000000000000004
    vertex 160.48319371703099 223.95939408570794 2.5000000000000004
  endloop
endfacet
facet normal -0.3826834323650886 0.9238795325112873 0.0
  outer loop
    vertex 150.79621266204674 222.11169955486702 2.5000000000000004
    vertex 159.4745647564508 225.7063906914181 -1.9999999999999998
    vertex 150.79621266204674 222.11169955486702 -1.9999999999999998
  endloop
endfacet
facet normal -0.3826834323650886 0.9238795325112873 0.0
  outer loop
    vertex 159.4745647564508 225.7063906914181 -1.9999999999999998
    vertex 150.79621266204674 222.11169955486702 2.5000000000000004
    vertex 159.4745647564508 225.7063906914181 2.5000000000000004
  endloop
endfacet
facet normal 0.7933533402912363 -0.6087614290087191 -1.58849894012066e-16
  outer loop
    vertex 116.03955278739704 282.31200035915083 -1.9999999999999998
    vertex 110.32122497893259 274.85973046893645 2.5000000000000004
    vertex 110.32122497893259 274.85973046893645 -1.9999999999999998
  endloop
endfacet
facet normal 0.7933533402912363 -0.6087614290087191 -1.58849894012066e-16
  outer loop
    vertex 110.32122497893259 274.85973046893645 2.5000000000000004
    vertex 116.03955278739704 282.31200035915083 -1.9999999999999998
    vertex 116.03955278739704 282.31200035915083 2.5000000000000004
  endloop
endfacet
facet normal -0.7933533402912363 0.6087614290087192 0.0
  outer loop
    vertex 114.61313603194222 283.73841711460545 2.5000000000000004
    vertex 108.57422837322237 275.8683594295166 0.0
    vertex 108.57422837322237 275.8683594295166 2.5000000000000004
  endloop
endfacet
facet normal -0.7933533402912363 0.6087614290087192 0.0
  outer loop
    vertex 108.57422837322237 275.8683594295166 0.0
    vertex 114.61313603194222 283.73841711460545 2.5000000000000004
    vertex 114.61313603194222 283.73841711460545 0.0
  endloop
endfacet
facet normal 0.13052619222005102 0.9914448613738105 0.0
  outer loop
    vertex 132.17017477201526 222.11169955486702 2.5000000000000004
    vertex 141.48319371703096 220.88561735067697 -1.9999999999999998
    vertex 132.17017477201526 222.11169955486702 -1.9999999999999998
  endloop
endfacet
facet normal 0.13052619222005102 0.9914448613738105 0.0
  outer loop
    vertex 141.48319371703096 220.88561735067697 -1.9999999999999998
    vertex 132.17017477201526 222.11169955486702 2.5000000000000004
    vertex 141.48319371703096 220.88561735067697 2.5000000000000004
  endloop
endfacet
facet normal -0.13052619222005024 -0.9914448613738107 0.0
  outer loop
    vertex 141.483193717031 218.86835942951663 2.5000000000000004
    vertex 131.6480700031352 220.16317803053204 0.0
    vertex 141.483193717031 218.86835942951663 0.0
  endloop
endfacet
facet normal -0.13052619222005024 -0.9914448613738107 0.0
  outer loop
    vertex 131.6480700031352 220.16317803053204 0.0
    vertex 141.483193717031 218.86835942951663 2.5000000000000004
    vertex 131.6480700031352 220.16317803053204 2.5000000000000004
  endloop
endfacet
facet normal -0.3826834323650905 -0.9238795325112865 0.0
  outer loop
    vertex 131.6480700031352 220.16317803053204 2.5000000000000004
    vertex 122.483193717031 223.95939408570794 0.0
    vertex 131.6480700031352 220.16317803053204 0.0
  endloop
endfacet
facet normal -0.3826834323650905 -0.9238795325112865 0.0
  outer loop
    vertex 122.483193717031 223.95939408570794 0.0
    vertex 131.6480700031352 220.16317803053204 2.5000000000000004
    vertex 122.483193717031 223.95939408570794 2.5000000000000004
  endloop
endfacet
facet normal 0.13052619222005082 -0.9914448613738105 0.0
  outer loop
    vertex 151.31831743092678 220.16317803053204 2.5000000000000004
    vertex 141.483193717031 218.86835942951663 0.0
    vertex 151.31831743092678 220.16317803053204 0.0
  endloop
endfacet
facet normal 0.13052619222005082 -0.9914448613738105 0.0
  outer loop
    vertex 141.483193717031 218.86835942951663 0.0
    vertex 151.31831743092678 220.16317803053204 2.5000000000000004
    vertex 141.483193717031 218.86835942951663 2.5000000000000004
  endloop
endfacet
facet normal 0.0 0.0 1.0
  outer loop
    vertex 100.88096926937656 245.9890261778604 0.0
    vertex 100.88096926937656 267.74769268117274 0.0
    vertex 99.44867787471041 256.8683594295166 0.0
  endloop
endfacet
facet normal 0.0 0.0 1.0
  outer loop
    vertex 100.88096926937656 267.74769268117274 0.0
    vertex 100.88096926937656 245.9890261778604 0.0
    vertex 105.08023516180197 235.85110150835627 0.0
  endloop
endfacet
facet normal 0.0 0.0 1.0
  outer loop
    vertex 100.88096926937656 267.74769268117274 0.0
    vertex 105.08023516180197 235.85110150835627 0.0
    vertex 103.48319371703103 256.8683594295166 0.0
  endloop
endfacet
facet normal 0.0 0.0 1.0
  outer loop
    vertex 103.48319371703103 256.8683594295166 0.0
    vertex 105.08023516180197 235.85110150835627 0.0
    vertex 104.77801231804642 247.03323571562086 0.0
  endloop
endfacet
facet normal 0.0 0.0 1.0
  outer loop
    vertex 104.77801231804642 247.03323571562086 0.0
    vertex 105.08023516180197 235.85110150835627 0.0
    vertex 108.57422837322235 237.86835942951663 0.0
  endloop
endfacet
facet normal 0.0 0.0 1.0
  outer loop
    vertex 108.57422837322235 237.86835942951663 0.0
    vertex 105.08023516180197 235.85110150835627 0.0
    vertex 111.7603025210327 227.14546823351841 0.0
  endloop
endfacet
facet normal 0.0 0.0 1.0
  outer loop
    vertex 108.57422837322235 237.86835942951663 0.0
    vertex 111.7603025210327 227.14546823351841 0.0
    vertex 114.61313603194222 229.99830174442783 0.0
  endloop
endfacet
facet normal 0.0 0.0 1.0
  outer loop
    vertex 114.61313603194222 229.99830174442783 0.0
    vertex 111.7603025210327 227.14546823351841 0.0
    vertex 120.46593579587075 220.46540087428747 0.0
  endloop
endfacet
facet normal 0.0 0.0 1.0
  outer loop
    vertex 114.61313603194222 229.99830174442783 0.0
    vertex 120.46593579587075 220.46540087428747 0.0
    vertex 122.483193717031 223.95939408570794 0.0
  endloop
endfacet
facet normal 0.0 0.0 1.0
  outer loop
    vertex 122.483193717031 223.95939408570794 0.0
    vertex 120.46593579587075 220.46540087428747 0.0
    vertex 130.6038604653747 216.26613498186217 0.0
  endloop
endfacet
facet normal 0.0 0.0 1.0
  outer loop
    vertex 122.483193717031 223.95939408570794 0.0
    vertex 130.6038604653747 216.26613498186217 0.0
    vertex 131.6480700031352 220.16317803053204 0.0
  endloop
endfacet
facet normal 0.0 0.0 1.0
  outer loop
    vertex 131.6480700031352 220.16317803053204 0.0
    vertex 130.6038604653747 216.26613498186217 0.0
    vertex 141.48319371703096 214.833843587196 0.0
  endloop
endfacet
facet normal 0.0 0.0 1.0
  outer loop
    vertex 131.6480700031352 220.16317803053204 0.0
    vertex 141.48319371703096 214.833843587196 0.0
    vertex 141.483193717031 218.86835942951663 0.0
  endloop
endfacet
facet normal 0.0 0.0 1.0
  outer loop
    vertex 141.483193717031 218.86835942951663 0.0
    vertex 141.48319371703096 214.833843587196 0.0
    vertex 152.3625269686873 216.26613498186217 0.0
  endloop
endfacet
facet normal 0.0 0.0 1.0
  outer loop
    vertex 141.483193717031 218.86835942951663 0.0
    vertex 152.3625269686873 216.26613498186217 0.0
    vertex 151.31831743092678 220.16317803053204 0.0
  endloop
endfacet
facet normal 0.0 0.0 1.0
  outer loop
    vertex 151.31831743092678 220.16317803053204 0.0
    vertex 152.3625269686873 216.26613498186217 0.0
    vertex 160.48319371703099 223.95939408570794 0.0
  endloop
endfacet
facet normal 0.0 0.0 1.0
  outer loop
    vertex 160.48319371703099 223.95939408570794 0.0
    vertex 152.3625269686873 216.26613498186217 0.0
    vertex 162.5004516381912 220.46540087428747 0.0
  endloop
endfacet
facet normal 0.0 0.0 1.0
  outer loop
    vertex 160.48319371703099 223.95939408570794 0.0
    vertex 162.5004516381912 220.46540087428747 0.0
    vertex 168.35325140211978 229.99830174442783 0.0
  endloop
endfacet
facet normal 0.0 0.0 1.0
  outer loop
    vertex 168.35325140211978 229.99830174442783 0.0
    vertex 162.5004516381912 220.46540087428747 0.0
    vertex 171.20608491302931 227.14546823351844 0.0
  endloop
endfacet
facet normal 0.0 0.0 1.0
  outer loop
    vertex 103.48319371703103 256.8683594295166 0.0
    vertex 105.08023516180195 277.8856173506769 0.0
    vertex 100.88096926937656 267.74769268117274 0.0
  endloop
endfacet
facet normal 0.0 0.0 1.0
  outer loop
    vertex 105.08023516180195 277.8856173506769 0.0
    vertex 103.48319371703103 256.8683594295166 0.0
    vertex 104.77801231804645 266.7034831434124 0.0
  endloop
endfacet
facet normal 0.0 0.0 1.0
  outer loop
    vertex 105.08023516180195 277.8856173506769 0.0
    vertex 104.77801231804645 266.7034831434124 0.0
    vertex 108.57422837322237 275.8683594295166 0.0
  endloop
endfacet
facet normal 0.0 0.0 1.0
  outer loop
    vertex 105.08023516180195 277.8856173506769 0.0
    vertex 108.57422837322237 275.8683594295166 0.0
    vertex 111.76030252103286 286.591250625515 0.0
  endloop
endfacet
facet normal 0.0 0.0 1.0
  outer loop
    vertex 111.76030252103286 286.591250625515 0.0
    vertex 108.57422837322237 275.8683594295166 0.0
    vertex 114.61313603194222 283.73841711460545 0.0
  endloop
endfacet
endsolid arc
