solid Side_Edge
facet normal 1.0 0.0 0.0
  outer loop
    vertex -5.921929613350585e-14 -21.349996185302714 44.000000000000036
    vertex -5.921929613350585e-14 -23.999999999999957 17.999999999999982
    vertex -5.921929613350585e-14 -21.349996185302693 17.999999999999986
  endloop
endfacet
facet normal 1.0 0.0 0.0
  outer loop
    vertex -5.921929613350585e-14 -23.999999999999957 17.999999999999982
    vertex -5.921929613350585e-14 -21.349996185302714 44.000000000000036
    vertex -5.921929613350585e-14 -23.999999999999986 43.99999999999998
  endloop
endfacet
facet normal 1.0 0.0 0.0
  outer loop
    vertex -5.921929613350585e-14 -15.999996185302713 43.99999999999999
    vertex -5.921929613350585e-14 -18.64999618530272 17.99999999999999
    vertex -5.921929613350585e-14 -15.999996185302692 17.999999999999993
  endloop
endfacet
facet normal 1.0 0.0 0.0
  outer loop
    vertex -5.921929613350585e-14 -18.64999618530272 17.99999999999999
    vertex -5.921929613350585e-14 -15.999996185302713 43.99999999999999
    vertex -5.921929613350585e-14 -18.649996185302744 43.999999999999986
  endloop
endfacet
facet normal 0.0 1.0 1.084602493287653e-15
  outer loop
    vertex -15.999999046325742 1.127986593019159e-14 44.00000000000001
    vertex -18.649999046325743 3.947953075567056e-14 18.00000000000001
    vertex -18.649999046325743 1.127986593019159e-14 44.00000000000001
  endloop
endfacet
facet normal 0.0 1.0 1.084602493287653e-15
  outer loop
    vertex -18.649999046325743 3.947953075567056e-14 18.00000000000001
    vertex -15.999999046325742 1.127986593019159e-14 44.00000000000001
    vertex -15.999999046325742 3.947953075567056e-14 18.00000000000001
  endloop
endfacet
facet normal 0.0 1.0 1.084602493287653e-15
  outer loop
    vertex -21.3499995231629 1.127986593019159e-14 44.00000000000001
    vertex -23.999999591062135 3.947953075567056e-14 18.00000000000001
    vertex -23.999999591062135 1.127986593019159e-14 44.00000000000001
  endloop
endfacet
facet normal 0.0 1.0 1.084602493287653e-15
  outer loop
    vertex -23.999999591062135 3.947953075567056e-14 18.00000000000001
    vertex -21.3499995231629 1.127986593019159e-14 44.00000000000001
    vertex -21.3499995231629 3.947953075567056e-14 18.00000000000001
  endloop
endfacet
facet normal 2.820541286717589e-31 -1.207367539279858e-15 1.0
  outer loop
    vertex -18.649999046325743 -15.999996185302713 44.000000000000036
    vertex -15.999999046325742 1.127986593019159e-14 44.00000000000001
    vertex -18.649999046325743 1.127986593019159e-14 44.00000000000001
  endloop
endfacet
facet normal 2.820541286717589e-31 -1.207367539279858e-15 1.0
  outer loop
    vertex -15.999999046325742 1.127986593019159e-14 44.00000000000001
    vertex -18.649999046325743 -15.999996185302713 44.000000000000036
    vertex -15.999999046325742 -15.999996185302713 43.99999999999999
  endloop
endfacet
facet normal 2.820541286717589e-31 -1.207367539279858e-15 1.0
  outer loop
    vertex -23.999999591062135 -20.99999999999998 43.999999999999986
    vertex -21.3499995231629 1.127986593019159e-14 44.00000000000001
    vertex -23.999999591062135 1.127986593019159e-14 44.00000000000001
  endloop
endfacet
facet normal 2.820541286717589e-31 -1.207367539279858e-15 1.0
  outer loop
    vertex -21.3499995231629 1.127986593019159e-14 44.00000000000001
    vertex -23.999999591062135 -20.99999999999998 43.999999999999986
    vertex -21.3499995231629 -15.999996185302713 44.000000000000036
  endloop
endfacet
facet normal 2.820541286717589e-31 -1.207367539279858e-15 1.0
  outer loop
    vertex -21.3499995231629 -15.999996185302713 44.000000000000036
    vertex -23.999999591062135 -20.99999999999998 43.999999999999986
    vertex -18.649999046325743 -15.999996185302713 44.000000000000036
  endloop
endfacet
facet normal 2.820541286717589e-31 -1.207367539279858e-15 1.0
  outer loop
    vertex -18.649999046325743 -15.999996185302713 44.000000000000036
    vertex -23.999999591062135 -20.99999999999998 43.999999999999986
    vertex -15.999999046325742 -15.999996185302713 43.99999999999999
  endloop
endfacet
facet normal 2.820541286717589e-31 -1.207367539279858e-15 1.0
  outer loop
    vertex -15.999999046325742 -15.999996185302713 43.99999999999999
    vertex -23.999999591062135 -20.99999999999998 43.999999999999986
    vertex -15.999999046325737 -18.649996185302744 43.999999999999986
  endloop
endfacet
facet normal 2.820541286717589e-31 -1.207367539279858e-15 1.0
  outer loop
    vertex -15.999999046325742 -15.999996185302713 43.99999999999999
    vertex -15.999999046325737 -18.649996185302744 43.999999999999986
    vertex -5.921929613350585e-14 -15.999996185302713 43.99999999999999
  endloop
endfacet
facet normal 2.820541286717589e-31 -1.207367539279858e-15 1.0
  outer loop
    vertex -15.999999046325737 -18.649996185302744 43.999999999999986
    vertex -23.999999591062135 -20.99999999999998 43.999999999999986
    vertex -15.999999046325737 -21.349996185302714 44.000000000000036
  endloop
endfacet
facet normal 2.820541286717589e-31 -1.207367539279858e-15 1.0
  outer loop
    vertex -15.999999046325737 -21.349996185302714 44.000000000000036
    vertex -23.999999591062135 -20.99999999999998 43.999999999999986
    vertex -23.963064610958156 -21.469303131103505 44.000000000000036
  endloop
endfacet
facet normal 2.820541286717589e-31 -1.207367539279858e-15 1.0
  outer loop
    vertex -15.999999046325737 -21.349996185302714 44.000000000000036
    vertex -23.963064610958156 -21.469303131103505 44.000000000000036
    vertex -5.921929613350585e-14 -21.349996185302714 44.000000000000036
  endloop
endfacet
facet normal 2.820541286717589e-31 -1.207367539279858e-15 1.0
  outer loop
    vertex -5.921929613350585e-14 -21.349996185302714 44.000000000000036
    vertex -23.963064610958156 -21.469303131103505 44.000000000000036
    vertex -5.921929613350585e-14 -23.999999999999986 43.99999999999998
  endloop
endfacet
facet normal 2.820541286717589e-31 -1.207367539279858e-15 1.0
  outer loop
    vertex -5.921929613350585e-14 -23.999999999999986 43.99999999999998
    vertex -23.963064610958156 -21.469303131103505 44.000000000000036
    vertex -23.853169143199977 -21.92705154418944 44.000000000000036
  endloop
endfacet
facet normal 2.820541286717589e-31 -1.207367539279858e-15 1.0
  outer loop
    vertex -5.921929613350585e-14 -23.999999999999986 43.99999999999998
    vertex -23.853169143199977 -21.92705154418944 44.000000000000036
    vertex -23.673019170761165 -22.361968994140614 44.000000000000036
  endloop
endfacet
facet normal 2.820541286717589e-31 -1.207367539279858e-15 1.0
  outer loop
    vertex -5.921929613350585e-14 -23.999999999999986 43.99999999999998
    vertex -23.673019170761165 -22.361968994140614 44.000000000000036
    vertex -23.427050590515197 -22.763355255126932 44.000000000000036
  endloop
endfacet
facet normal 2.820541286717589e-31 -1.207367539279858e-15 1.0
  outer loop
    vertex -5.921929613350585e-14 -23.999999999999986 43.99999999999998
    vertex -23.427050590515197 -22.763355255126932 44.000000000000036
    vertex -23.121319890022335 -23.12131881713866 43.99999999999998
  endloop
endfacet
facet normal 2.820541286717589e-31 -1.207367539279858e-15 1.0
  outer loop
    vertex -5.921929613350585e-14 -23.999999999999986 43.99999999999998
    vertex -23.121319890022335 -23.12131881713866 43.99999999999998
    vertex -22.7633553743363 -23.42705154418944 43.99999999999998
  endloop
endfacet
facet normal 2.820541286717589e-31 -1.207367539279858e-15 1.0
  outer loop
    vertex -5.921929613350585e-14 -23.999999999999986 43.99999999999998
    vertex -22.7633553743363 -23.42705154418944 43.99999999999998
    vertex -22.361971139907894 -23.673019409179666 43.99999999999998
  endloop
endfacet
facet normal 2.820541286717589e-31 -1.207367539279858e-15 1.0
  outer loop
    vertex -5.921929613350585e-14 -23.999999999999986 43.99999999999998
    vertex -22.361971139907894 -23.673019409179666 43.99999999999998
    vertex -21.927050590515197 -23.853172302246083 43.99999999999998
  endloop
endfacet
facet normal 2.820541286717589e-31 -1.207367539279858e-15 1.0
  outer loop
    vertex -5.921929613350585e-14 -23.999999999999986 43.99999999999998
    vertex -21.927050590515197 -23.853172302246083 43.99999999999998
    vertex -21.469302892684993 -23.96306228637694 43.99999999999998
  endloop
endfacet
facet normal 2.820541286717589e-31 -1.207367539279858e-15 1.0
  outer loop
    vertex -5.921929613350585e-14 -23.999999999999986 43.99999999999998
    vertex -21.469302892684993 -23.96306228637694 43.99999999999998
    vertex -20.999999523162902 -23.999999999999986 43.99999999999998
  endloop
endfacet
facet normal 2.820541286717589e-31 -1.207367539279858e-15 1.0
  outer loop
    vertex -5.921929613350585e-14 -18.649996185302744 43.999999999999986
    vertex -5.921929613350585e-14 -15.999996185302713 43.99999999999999
    vertex -15.999999046325737 -18.649996185302744 43.999999999999986
  endloop
endfacet
facet normal -0.9961938302295158 -0.08715103151214897 0.0015969718266812271
  outer loop
    vertex -23.853169143199977 -21.92705154418944 44.000000000000036
    vertex -23.92026376022385 -21.6365446598083 17.999999128425387
    vertex -23.91737881318325 -21.669521509231508 17.9999991278791
  endloop
endfacet
facet normal -0.2588248823414124 -0.9659242457451723 -0.00017822057669993763
  outer loop
    vertex -21.669519680593268 -23.91738196732346 17.999999123550047
    vertex -21.927050590515197 -23.853172302246083 43.99999999999998
    vertex -21.989837167151027 -23.831551079305026 17.999999119953365
  endloop
endfacet
facet normal -0.9063089588210524 -0.42261440452342847 0.0010659502840646682
  outer loop
    vertex -23.427050590515197 -22.763355255126932 44.000000000000036
    vertex -23.57751992055555 -22.50624855844353 17.999999118296206
    vertex -23.53550560958887 -22.596349477913478 17.99999911735121
  endloop
endfacet
facet normal -0.9659241842546193 -0.25882180454636766 0.0013205163423013532
  outer loop
    vertex -23.673019170761165 -22.361968994140614 44.000000000000036
    vertex -23.78278632141922 -22.084970232291706 17.999999122573094
    vertex -23.765641495443372 -22.148954802969936 17.999999121698398
  endloop
endfacet
facet normal -0.7604048382166653 -0.649449330107482 0.00022279952925320867
  outer loop
    vertex -23.121319890022335 -23.12131881713866 43.99999999999998
    vertex -23.345297903675885 -22.867994823758995 17.999999115521522
    vertex -23.23344501338212 -22.998956893228662 17.99999911496273
  endloop
endfacet
facet normal -0.7604048382166653 -0.649449330107482 0.00022279952925320867
  outer loop
    vertex -23.345297903675885 -22.867994823758995 17.999999115521522
    vertex -23.121319890022335 -23.12131881713866 43.99999999999998
    vertex -23.427050590515197 -22.763355255126932 44.000000000000036
  endloop
endfacet
facet normal -0.4226166475959053 -0.9063085095472881 -0.00023387383662182802
  outer loop
    vertex -22.14895430284694 -23.765641006260125 17.999999118584935
    vertex -22.361971139907894 -23.673019409179666 43.99999999999998
    vertex -22.449501412738403 -23.62549423428404 17.999999116281458
  endloop
endfacet
facet normal -0.23343420284815627 -0.972372595759747 8.919696069013113e-05
  outer loop
    vertex -21.669519680593268 -23.91738196732346 17.999999123550047
    vertex -21.469302892684993 -23.96306228637694 43.99999999999998
    vertex -21.927050590515197 -23.853172302246083 43.99999999999998
  endloop
endfacet
facet normal -0.23343420284815627 -0.972372595759747 8.919696069013113e-05
  outer loop
    vertex -21.469302892684993 -23.96306228637694 43.99999999999998
    vertex -21.669519680593268 -23.91738196732346 17.999999123550047
    vertex -21.502050988205603 -23.95758549741602 17.999999125514396
  endloop
endfacet
facet normal -0.9659259446799565 -0.25881854195285936 -0.00017814468712822743
  outer loop
    vertex -23.853169143199977 -21.92705154418944 44.000000000000036
    vertex -23.91737881318325 -21.669521509231508 17.9999991278791
    vertex -23.848694844066205 -21.92585410137327 17.999999124374902
  endloop
endfacet
facet normal -0.8191526001361112 -0.5735755802444797 -0.0002672778639025076
  outer loop
    vertex -23.427050590515197 -22.763355255126932 44.000000000000036
    vertex -23.53550560958887 -22.596349477913478 17.99999911735121
    vertex -23.345297903675885 -22.867994823758995 17.999999115521522
  endloop
endfacet
facet normal -0.906306280117421 -0.42262142862459595 -0.00023385257868895846
  outer loop
    vertex -23.673019170761165 -22.361968994140614 44.000000000000036
    vertex -23.765641495443372 -22.148954802969936 17.999999121698398
    vertex -23.667508420234288 -22.35939993500727 17.999999119491243
  endloop
endfacet
facet normal 5.201603430028667e-32 -1.0 -1.0846024932876528e-15
  outer loop
    vertex -5.921929613350585e-14 -23.999999999999957 17.999999999999982
    vertex -20.999999523162902 -23.999999999999986 43.99999999999998
    vertex -20.999999523162902 -23.999999999999957 17.999999999999982
  endloop
endfacet
facet normal 5.201603430028667e-32 -1.0 -1.0846024932876528e-15
  outer loop
    vertex -20.999999523162902 -23.999999999999986 43.99999999999998
    vertex -5.921929613350585e-14 -23.999999999999957 17.999999999999982
    vertex -5.921929613350585e-14 -23.999999999999986 43.99999999999998
  endloop
endfacet
facet normal -1.0 -6.714205910828326e-17 -5.423012466438272e-17
  outer loop
    vertex -23.99999959106213 -20.999999999999957 17.99999999999999
    vertex -23.999999591062135 1.127986593019159e-14 44.00000000000001
    vertex -23.999999591062135 3.947953075567056e-14 18.00000000000001
  endloop
endfacet
facet normal -1.0 -6.714205910828326e-17 -5.423012466438272e-17
  outer loop
    vertex -23.999999591062135 1.127986593019159e-14 44.00000000000001
    vertex -23.99999959106213 -20.999999999999957 17.99999999999999
    vertex -23.999999591062135 -20.99999999999998 43.999999999999986
  endloop
endfacet
facet normal -6.960314190465113e-24 1.0 8.67681970123143e-16
  outer loop
    vertex -18.649999046325743 -15.999996185302713 44.000000000000036
    vertex -21.3499995231629 -15.999996185302692 17.99999924399226
    vertex -21.3499995231629 -15.999996185302713 44.000000000000036
  endloop
endfacet
facet normal -6.960314190465113e-24 1.0 8.67681970123143e-16
  outer loop
    vertex -21.3499995231629 -15.999996185302692 17.99999924399226
    vertex -18.649999046325743 -15.999996185302713 44.000000000000036
    vertex -18.649999046325743 -15.999996185302692 17.99999928730963
  endloop
endfacet
facet normal 1.0 1.9489542931977653e-24 -2.1692049249061728e-16
  outer loop
    vertex -15.999999046325742 -18.649996185302715 17.999999285094912
    vertex -15.999999046325737 -21.349996185302714 44.000000000000036
    vertex -15.999999046325742 -21.349996185302686 17.99999923657777
  endloop
endfacet
facet normal 1.0 1.9489542931977653e-24 -2.1692049249061728e-16
  outer loop
    vertex -15.999999046325737 -21.349996185302714 44.000000000000036
    vertex -15.999999046325742 -18.649996185302715 17.999999285094912
    vertex -15.999999046325737 -18.649996185302744 43.999999999999986
  endloop
endfacet
facet normal -0.03932334648965961 -0.9992262859924024 0.0007097905918498977
  outer loop
    vertex -20.999999523162902 -23.999999999999957 17.999999999999982
    vertex -21.469302892684993 -23.96306228637694 43.99999999999998
    vertex -21.171695738507744 -23.99324310665075 17.999993912580674
  endloop
endfacet
facet normal -0.07846487489694305 -0.9969168788858013 -1.0813463470237274e-15
  outer loop
    vertex -20.999999523162902 -23.999999999999986 43.99999999999998
    vertex -21.469302892684993 -23.96306228637694 43.99999999999998
    vertex -20.999999523162902 -23.999999999999957 17.999999999999982
  endloop
endfacet
facet normal -0.10731385016811089 -0.9942251918187889 -7.42629720879937e-05
  outer loop
    vertex -21.171695738507744 -23.99324310665075 17.999993912580674
    vertex -21.469302892684993 -23.96306228637694 43.99999999999998
    vertex -21.502050988205603 -23.95758549741602 17.999999125514396
  endloop
endfacet
facet normal 1.0 -8.812397249995265e-17 -5.423012466438272e-17
  outer loop
    vertex -15.999999046325742 3.947953075567056e-14 18.00000000000001
    vertex -15.999999046325742 -15.999996185302713 43.99999999999999
    vertex -15.999999046325746 -15.999996185302692 17.99999935677879
  endloop
endfacet
facet normal 1.0 -8.812397249995265e-17 -5.423012466438272e-17
  outer loop
    vertex -15.999999046325742 -15.999996185302713 43.99999999999999
    vertex -15.999999046325742 3.947953075567056e-14 18.00000000000001
    vertex -15.999999046325742 1.127986593019159e-14 44.00000000000001
  endloop
endfacet
facet normal 1.0 0.0 0.0
  outer loop
    vertex -21.3499995231629 3.947953075567056e-14 18.00000000000001
    vertex -21.3499995231629 -15.999996185302713 44.000000000000036
    vertex -21.3499995231629 -15.999996185302692 17.99999924399226
  endloop
endfacet
facet normal 1.0 0.0 0.0
  outer loop
    vertex -21.3499995231629 -15.999996185302713 44.000000000000036
    vertex -21.3499995231629 3.947953075567056e-14 18.00000000000001
    vertex -21.3499995231629 1.127986593019159e-14 44.00000000000001
  endloop
endfacet
facet normal 8.05704552118761e-17 1.0 9.219121065558939e-16
  outer loop
    vertex -15.999999046325737 -21.349996185302714 44.000000000000036
    vertex -5.921929613350585e-14 -21.349996185302693 17.999999999999986
    vertex -15.999999046325742 -21.349996185302686 17.99999923657777
  endloop
endfacet
facet normal 8.05704552118761e-17 1.0 9.219121065558939e-16
  outer loop
    vertex -5.921929613350585e-14 -21.349996185302693 17.999999999999986
    vertex -15.999999046325737 -21.349996185302714 44.000000000000036
    vertex -5.921929613350585e-14 -21.349996185302714 44.000000000000036
  endloop
endfacet
facet normal -3.38387859032887e-08 -4.305031554260997e-08 0.9999999999999984
  outer loop
    vertex -18.649999046325743 -15.999996185302692 17.99999928730963
    vertex -15.999999046325742 3.947953075567056e-14 18.00000000000001
    vertex -18.649999046325743 3.947953075567056e-14 18.00000000000001
  endloop
endfacet
facet normal -3.38387859032887e-08 -4.305031554260997e-08 0.9999999999999984
  outer loop
    vertex -15.999999046325742 3.947953075567056e-14 18.00000000000001
    vertex -18.649999046325743 -15.999996185302692 17.99999928730963
    vertex -15.999999046325746 -15.999996185302692 17.99999935677879
  endloop
endfacet
facet normal -3.38387859032887e-08 -4.305031554260997e-08 0.9999999999999984
  outer loop
    vertex -23.99999959106213 -20.999999999999957 17.99999999999999
    vertex -21.3499995231629 3.947953075567056e-14 18.00000000000001
    vertex -23.999999591062135 3.947953075567056e-14 18.00000000000001
  endloop
endfacet
facet normal -3.38387859032887e-08 -4.305031554260997e-08 0.9999999999999984
  outer loop
    vertex -21.3499995231629 3.947953075567056e-14 18.00000000000001
    vertex -23.99999959106213 -20.999999999999957 17.99999999999999
    vertex -21.3499995231629 -15.999996185302692 17.99999924399226
  endloop
endfacet
facet normal -3.38387859032887e-08 -4.305031554260997e-08 0.9999999999999984
  outer loop
    vertex -21.3499995231629 -15.999996185302692 17.99999924399226
    vertex -23.99999959106213 -20.999999999999957 17.99999999999999
    vertex -18.649999046325743 -15.999996185302692 17.99999928730963
  endloop
endfacet
facet normal -3.38387859032887e-08 -4.305031554260997e-08 0.9999999999999984
  outer loop
    vertex -18.649999046325743 -15.999996185302692 17.99999928730963
    vertex -23.99999959106213 -20.999999999999957 17.99999999999999
    vertex -15.999999046325746 -15.999996185302692 17.99999935677879
  endloop
endfacet
facet normal -3.38387859032887e-08 -4.305031554260997e-08 0.9999999999999984
  outer loop
    vertex -15.999999046325746 -15.999996185302692 17.99999935677879
    vertex -23.99999959106213 -20.999999999999957 17.99999999999999
    vertex -15.999999046325742 -18.649996185302715 17.999999285094912
  endloop
endfacet
facet normal -3.38387859032887e-08 -4.305031554260997e-08 0.9999999999999984
  outer loop
    vertex -15.999999046325746 -15.999996185302692 17.99999935677879
    vertex -15.999999046325742 -18.649996185302715 17.999999285094912
    vertex -5.921929613350585e-14 -15.999996185302692 17.999999999999993
  endloop
endfacet
facet normal -3.38387859032887e-08 -4.305031554260997e-08 0.9999999999999984
  outer loop
    vertex -15.999999046325742 -18.649996185302715 17.999999285094912
    vertex -23.99999959106213 -20.999999999999957 17.99999999999999
    vertex -15.999999046325742 -21.349996185302686 17.99999923657777
  endloop
endfacet
facet normal -3.38387859032887e-08 -4.305031554260997e-08 0.9999999999999984
  outer loop
    vertex -15.999999046325742 -21.349996185302686 17.99999923657777
    vertex -23.99999959106213 -20.999999999999957 17.99999999999999
    vertex -23.973982213642703 -21.297379480361933 17.999999133658118
  endloop
endfacet
facet normal -3.38387859032887e-08 -4.305031554260997e-08 0.9999999999999984
  outer loop
    vertex -15.999999046325742 -21.349996185302686 17.99999923657777
    vertex -23.973982213642703 -21.297379480361933 17.999999133658118
    vertex -23.960469416823855 -21.46907573792229 17.999999130789647
  endloop
endfacet
facet normal -3.38387859032887e-08 -4.305031554260997e-08 0.9999999999999984
  outer loop
    vertex -15.999999046325742 -21.349996185302686 17.99999923657777
    vertex -23.960469416823855 -21.46907573792229 17.999999130789647
    vertex -5.921929613350585e-14 -21.349996185302693 17.999999999999986
  endloop
endfacet
facet normal -3.38387859032887e-08 -4.305031554260997e-08 0.9999999999999984
  outer loop
    vertex -5.921929613350585e-14 -21.349996185302693 17.999999999999986
    vertex -23.960469416823855 -21.46907573792229 17.999999130789647
    vertex -5.921929613350585e-14 -23.999999999999957 17.999999999999982
  endloop
endfacet
facet normal -3.38387859032887e-08 -4.305031554260997e-08 0.9999999999999984
  outer loop
    vertex -5.921929613350585e-14 -23.999999999999957 17.999999999999982
    vertex -23.960469416823855 -21.46907573792229 17.999999130789647
    vertex -23.92026376022385 -21.6365446598083 17.999999128425387
  endloop
endfacet
facet normal -3.38387859032887e-08 -4.305031554260997e-08 0.9999999999999984
  outer loop
    vertex -5.921929613350585e-14 -23.999999999999957 17.999999999999982
    vertex -23.92026376022385 -21.6365446598083 17.999999128425387
    vertex -23.91737881318325 -21.669521509231508 17.9999991278791
  endloop
endfacet
facet normal -3.38387859032887e-08 -4.305031554260997e-08 0.9999999999999984
  outer loop
    vertex -5.921929613350585e-14 -23.999999999999957 17.999999999999982
    vertex -23.91737881318325 -21.669521509231508 17.9999991278791
    vertex -23.848694844066205 -21.92585410137327 17.999999124374902
  endloop
endfacet
facet normal -3.38387859032887e-08 -4.305031554260997e-08 0.9999999999999984
  outer loop
    vertex -5.921929613350585e-14 -23.999999999999957 17.999999999999982
    vertex -23.848694844066205 -21.92585410137327 17.999999124374902
    vertex -23.78278632141922 -22.084970232291706 17.999999122573094
  endloop
endfacet
facet normal -3.38387859032887e-08 -4.305031554260997e-08 0.9999999999999984
  outer loop
    vertex -5.921929613350585e-14 -23.999999999999957 17.999999999999982
    vertex -23.78278632141922 -22.084970232291706 17.999999122573094
    vertex -23.765641495443372 -22.148954802969936 17.999999121698398
  endloop
endfacet
facet normal -3.38387859032887e-08 -4.305031554260997e-08 0.9999999999999984
  outer loop
    vertex -5.921929613350585e-14 -23.999999999999957 17.999999999999982
    vertex -23.765641495443372 -22.148954802969936 17.999999121698398
    vertex -23.667508420234288 -22.35939993500727 17.999999119491243
  endloop
endfacet
facet normal -3.38387859032887e-08 -4.305031554260997e-08 0.9999999999999984
  outer loop
    vertex -5.921929613350585e-14 -23.999999999999957 17.999999999999982
    vertex -23.667508420234288 -22.35939993500727 17.999999119491243
    vertex -23.57751992055555 -22.50624855844353 17.999999118296206
  endloop
endfacet
facet normal -3.38387859032887e-08 -4.305031554260997e-08 0.9999999999999984
  outer loop
    vertex -5.921929613350585e-14 -23.999999999999957 17.999999999999982
    vertex -23.57751992055555 -22.50624855844353 17.999999118296206
    vertex -23.53550560958887 -22.596349477913478 17.99999911735121
  endloop
endfacet
facet normal -3.38387859032887e-08 -4.305031554260997e-08 0.9999999999999984
  outer loop
    vertex -5.921929613350585e-14 -23.999999999999957 17.999999999999982
    vertex -23.53550560958887 -22.596349477913478 17.99999911735121
    vertex -23.345297903675885 -22.867994823758995 17.999999115521522
  endloop
endfacet
facet normal -3.38387859032887e-08 -4.305031554260997e-08 0.9999999999999984
  outer loop
    vertex -5.921929613350585e-14 -23.999999999999957 17.999999999999982
    vertex -23.345297903675885 -22.867994823758995 17.999999115521522
    vertex -23.23344501338212 -22.998956893228662 17.99999911496273
  endloop
endfacet
facet normal -3.38387859032887e-08 -4.305031554260997e-08 0.9999999999999984
  outer loop
    vertex -5.921929613350585e-14 -23.999999999999957 17.999999999999982
    vertex -23.23344501338212 -22.998956893228662 17.99999911496273
    vertex -22.998956454187695 -23.233445225634494 17.999999114511148
  endloop
endfacet
facet normal -3.38387859032887e-08 -4.305031554260997e-08 0.9999999999999984
  outer loop
    vertex -5.921929613350585e-14 -23.999999999999957 17.999999999999982
    vertex -22.998956454187695 -23.233445225634494 17.999999114511148
    vertex -22.867994035818427 -23.345298857347224 17.999999114602307
  endloop
endfacet
facet normal -3.38387859032887e-08 -4.305031554260997e-08 0.9999999999999984
  outer loop
    vertex -5.921929613350585e-14 -23.999999999999957 17.999999999999982
    vertex -22.867994035818427 -23.345298857347224 17.999999114602307
    vertex -22.596349294726714 -23.535505996299634 17.999999115542536
  endloop
endfacet
facet normal -3.38387859032887e-08 -4.305031554260997e-08 0.9999999999999984
  outer loop
    vertex -5.921929613350585e-14 -23.999999999999957 17.999999999999982
    vertex -22.596349294726714 -23.535505996299634 17.999999115542536
    vertex -22.449501412738403 -23.62549423428404 17.999999116281458
  endloop
endfacet
facet normal -3.38387859032887e-08 -4.305031554260997e-08 0.9999999999999984
  outer loop
    vertex -5.921929613350585e-14 -23.999999999999957 17.999999999999982
    vertex -22.449501412738403 -23.62549423428404 17.999999116281458
    vertex -22.14895430284694 -23.765641006260125 17.999999118584935
  endloop
endfacet
facet normal -3.38387859032887e-08 -4.305031554260997e-08 0.9999999999999984
  outer loop
    vertex -5.921929613350585e-14 -23.999999999999957 17.999999999999982
    vertex -22.14895430284694 -23.765641006260125 17.999999118584935
    vertex -21.989837167151027 -23.831551079305026 17.999999119953365
  endloop
endfacet
facet normal -3.38387859032887e-08 -4.305031554260997e-08 0.9999999999999984
  outer loop
    vertex -5.921929613350585e-14 -23.999999999999957 17.999999999999982
    vertex -21.989837167151027 -23.831551079305026 17.999999119953365
    vertex -21.669519680593268 -23.91738196732346 17.999999123550047
  endloop
endfacet
facet normal -3.38387859032887e-08 -4.305031554260997e-08 0.9999999999999984
  outer loop
    vertex -5.921929613350585e-14 -23.999999999999957 17.999999999999982
    vertex -21.669519680593268 -23.91738196732346 17.999999123550047
    vertex -21.502050988205603 -23.95758549741602 17.999999125514396
  endloop
endfacet
facet normal -3.38387859032887e-08 -4.305031554260997e-08 0.9999999999999984
  outer loop
    vertex -5.921929613350585e-14 -23.999999999999957 17.999999999999982
    vertex -21.502050988205603 -23.95758549741602 17.999999125514396
    vertex -21.171695738507744 -23.99324310665075 17.999993912580674
  endloop
endfacet
facet normal -3.38387859032887e-08 -4.305031554260997e-08 0.9999999999999984
  outer loop
    vertex -5.921929613350585e-14 -23.999999999999957 17.999999999999982
    vertex -21.171695738507744 -23.99324310665075 17.999993912580674
    vertex -20.999999523162902 -23.999999999999957 17.999999999999982
  endloop
endfacet
facet normal -3.38387859032887e-08 -4.305031554260997e-08 0.9999999999999984
  outer loop
    vertex -5.921929613350585e-14 -18.64999618530272 17.99999999999999
    vertex -5.921929613350585e-14 -15.999996185302692 17.999999999999993
    vertex -15.999999046325742 -18.649996185302715 17.999999285094912
  endloop
endfacet
facet normal -0.3826890044348009 -0.9238772113196249 0.0001558492036531175
  outer loop
    vertex -22.14895430284694 -23.765641006260125 17.999999118584935
    vertex -21.927050590515197 -23.853172302246083 43.99999999999998
    vertex -22.361971139907894 -23.673019409179666 43.99999999999998
  endloop
endfacet
facet normal -0.3826890044348009 -0.9238772113196249 0.0001558492036531175
  outer loop
    vertex -21.927050590515197 -23.853172302246083 43.99999999999998
    vertex -22.14895430284694 -23.765641006260125 17.999999118584935
    vertex -21.989837167151027 -23.831551079305026 17.999999119953365
  endloop
endfacet
facet normal -0.9238785671654111 -0.3826857221533474 -0.00017661358411436823
  outer loop
    vertex -23.673019170761165 -22.361968994140614 44.000000000000036
    vertex -23.848694844066205 -21.92585410137327 17.999999124374902
    vertex -23.78278632141922 -22.084970232291706 17.999999122573094
  endloop
endfacet
facet normal -0.9238785671654111 -0.3826857221533474 -0.00017661358411436823
  outer loop
    vertex -23.848694844066205 -21.92585410137327 17.999999124374902
    vertex -23.673019170761165 -22.361968994140614 44.000000000000036
    vertex -23.853169143199977 -21.92705154418944 44.000000000000036
  endloop
endfacet
facet normal -0.8526413118238346 -0.5224966405502254 -0.00023234685078176806
  outer loop
    vertex -23.427050590515197 -22.763355255126932 44.000000000000036
    vertex -23.667508420234288 -22.35939993500727 17.999999119491243
    vertex -23.57751992055555 -22.50624855844353 17.999999118296206
  endloop
endfacet
facet normal -0.8526413118238346 -0.5224966405502254 -0.00023234685078176806
  outer loop
    vertex -23.667508420234288 -22.35939993500727 17.999999119491243
    vertex -23.427050590515197 -22.763355255126932 44.000000000000036
    vertex -23.673019170761165 -22.361968994140614 44.000000000000036
  endloop
endfacet
facet normal -0.5224974574168983 -0.852640819337927 0.0002004784908305759
  outer loop
    vertex -22.596349294726714 -23.535505996299634 17.999999115542536
    vertex -22.361971139907894 -23.673019409179666 43.99999999999998
    vertex -22.7633553743363 -23.42705154418944 43.99999999999998
  endloop
endfacet
facet normal -0.5224974574168983 -0.852640819337927 0.0002004784908305759
  outer loop
    vertex -22.361971139907894 -23.673019409179666 43.99999999999998
    vertex -22.596349294726714 -23.535505996299634 17.999999115542536
    vertex -22.449501412738403 -23.62549423428404 17.999999116281458
  endloop
endfacet
facet normal -1.0 0.0 0.0
  outer loop
    vertex -18.649999046325743 -15.999996185302713 44.000000000000036
    vertex -18.649999046325743 3.947953075567056e-14 18.00000000000001
    vertex -18.649999046325743 -15.999996185302692 17.99999928730963
  endloop
endfacet
facet normal -1.0 0.0 0.0
  outer loop
    vertex -18.649999046325743 3.947953075567056e-14 18.00000000000001
    vertex -18.649999046325743 -15.999996185302713 44.000000000000036
    vertex -18.649999046325743 1.127986593019159e-14 44.00000000000001
  endloop
endfacet
facet normal -0.9961946852585686 -0.08715588943141757 -1.83686742589778e-16
  outer loop
    vertex -23.999999591062135 -20.99999999999998 43.999999999999986
    vertex -23.99999959106213 -20.999999999999957 17.99999999999999
    vertex -23.973982213642703 -21.297379480361933 17.999999133658118
  endloop
endfacet
facet normal -0.7071064118387729 -0.7071070957258533 -0.00027840733619653
  outer loop
    vertex -22.998956454187695 -23.233445225634494 17.999999114511148
    vertex -23.121319890022335 -23.12131881713866 43.99999999999998
    vertex -23.23344501338212 -22.998956893228662 17.99999911496273
  endloop
endfacet
facet normal -1.7440983833762086e-23 1.0 8.676819838972096e-16
  outer loop
    vertex -15.999999046325742 -15.999996185302713 43.99999999999999
    vertex -5.921929613350585e-14 -15.999996185302692 17.999999999999993
    vertex -15.999999046325746 -15.999996185302692 17.99999935677879
  endloop
endfacet
facet normal -1.7440983833762086e-23 1.0 8.676819838972096e-16
  outer loop
    vertex -5.921929613350585e-14 -15.999996185302692 17.999999999999993
    vertex -15.999999046325742 -15.999996185302713 43.99999999999999
    vertex -5.921929613350585e-14 -15.999996185302713 43.99999999999999
  endloop
endfacet
facet normal -0.9969173249628616 -0.07845914319009764 -0.00010019365312335395
  outer loop
    vertex -23.963064610958156 -21.469303131103505 44.000000000000036
    vertex -23.973982213642703 -21.297379480361933 17.999999133658118
    vertex -23.960469416823855 -21.46907573792229 17.999999130789647
  endloop
endfacet
facet normal -0.9969173249628616 -0.07845914319009764 -0.00010019365312335395
  outer loop
    vertex -23.973982213642703 -21.297379480361933 17.999999133658118
    vertex -23.963064610958156 -21.469303131103505 44.000000000000036
    vertex -23.999999591062135 -20.99999999999998 43.999999999999986
  endloop
endfacet
facet normal -0.9723700136174322 -0.23344495453325464 -9.909894847780433e-05
  outer loop
    vertex -23.853169143199977 -21.92705154418944 44.000000000000036
    vertex -23.960469416823855 -21.46907573792229 17.999999130789647
    vertex -23.92026376022385 -21.6365446598083 17.999999128425387
  endloop
endfacet
facet normal -0.9723700136174322 -0.23344495453325464 -9.909894847780433e-05
  outer loop
    vertex -23.960469416823855 -21.46907573792229 17.999999130789647
    vertex -23.853169143199977 -21.92705154418944 44.000000000000036
    vertex -23.963064610958156 -21.469303131103505 44.000000000000036
  endloop
endfacet
facet normal -0.5735752898592464 -0.8191528034584025 -0.00026729968424225186
  outer loop
    vertex -22.596349294726714 -23.535505996299634 17.999999115542536
    vertex -22.7633553743363 -23.42705154418944 43.99999999999998
    vertex -22.867994035818427 -23.345298857347224 17.999999114602307
  endloop
endfacet
facet normal -8.057045648983432e-17 -1.0 -9.219121073654614e-16
  outer loop
    vertex -5.921929613350585e-14 -18.64999618530272 17.99999999999999
    vertex -15.999999046325737 -18.649996185302744 43.999999999999986
    vertex -15.999999046325742 -18.649996185302715 17.999999285094912
  endloop
endfacet
facet normal -8.057045648983432e-17 -1.0 -9.219121073654614e-16
  outer loop
    vertex -15.999999046325737 -18.649996185302744 43.999999999999986
    vertex -5.921929613350585e-14 -18.64999618530272 17.99999999999999
    vertex -5.921929613350585e-14 -18.649996185302744 43.999999999999986
  endloop
endfacet
facet normal -0.6494508188213873 -0.7604035667316699 0.00022278685902174216
  outer loop
    vertex -22.998956454187695 -23.233445225634494 17.999999114511148
    vertex -22.7633553743363 -23.42705154418944 43.99999999999998
    vertex -23.121319890022335 -23.12131881713866 43.99999999999998
  endloop
endfacet
facet normal -0.6494508188213873 -0.7604035667316699 0.00022278685902174216
  outer loop
    vertex -22.7633553743363 -23.42705154418944 43.99999999999998
    vertex -22.998956454187695 -23.233445225634494 17.999999114511148
    vertex -22.867994035818427 -23.345298857347224 17.999999114602307
  endloop
endfacet
endsolid Side_Edge
