solid OpenSCAD_Model
  facet normal -0 0 1
    outer loop
      vertex 0 174.8 1.5
      vertex 41.8 90 1.5
      vertex 41.8 174.8 1.5
    endloop
  endfacet
  facet normal 0 0 1
    outer loop
      vertex 41.8 90 1.5
      vertex 0 174.8 1.5
      vertex 0 90 1.5
    endloop
  endfacet
  facet normal 0 0 -1
    outer loop
      vertex 0 90 0
      vertex 41.8 174.8 0
      vertex 41.8 90 0
    endloop
  endfacet
  facet normal -0 0 -1
    outer loop
      vertex 41.8 174.8 0
      vertex 0 90 0
      vertex 0 174.8 0
    endloop
  endfacet
  facet normal 0 -1 0
    outer loop
      vertex 0 90 0
      vertex 41.8 90 1.5
      vertex 0 90 1.5
    endloop
  endfacet
  facet normal 0 -1 -0
    outer loop
      vertex 41.8 90 1.5
      vertex 0 90 0
      vertex 41.8 90 0
    endloop
  endfacet
  facet normal 1 -0 0
    outer loop
      vertex 41.8 90 1.5
      vertex 41.8 174.8 0
      vertex 41.8 174.8 1.5
    endloop
  endfacet
  facet normal 1 0 0
    outer loop
      vertex 41.8 174.8 0
      vertex 41.8 90 1.5
      vertex 41.8 90 0
    endloop
  endfacet
  facet normal 0 1 -0
    outer loop
      vertex 41.8 174.8 0
      vertex 0 174.8 1.5
      vertex 41.8 174.8 1.5
    endloop
  endfacet
  facet normal 0 1 0
    outer loop
      vertex 0 174.8 1.5
      vertex 41.8 174.8 0
      vertex 0 174.8 0
    endloop
  endfacet
  facet normal -1 0 0
    outer loop
      vertex 0 90 0
      vertex 0 174.8 1.5
      vertex 0 174.8 0
    endloop
  endfacet
  facet normal -1 -0 0
    outer loop
      vertex 0 174.8 1.5
      vertex 0 90 0
      vertex 0 90 1.5
    endloop
  endfacet
endsolid OpenSCAD_Model
