solid ascii
  facet normal -4.361939e-02 -9.990482e-01 -0.000000e+00
    outer loop
      vertex   -4.016725e+00 1.078206e+01 5.000000e+00
      vertex   -4.016725e+00 1.078206e+01 3.000000e+00
      vertex   -3.759616e+00 1.077083e+01 5.000000e+00
    endloop
  endfacet
  facet normal -4.361939e-02 -9.990482e-01 0.000000e+00
    outer loop
      vertex   -3.759616e+00 1.077083e+01 5.000000e+00
      vertex   -4.016725e+00 1.078206e+01 3.000000e+00
      vertex   -3.759616e+00 1.077083e+01 3.000000e+00
    endloop
  endfacet
  facet normal -1.305262e-01 -9.914449e-01 -8.796486e-16
    outer loop
      vertex   -3.504463e+00 1.073724e+01 5.000000e+00
      vertex   -3.759616e+00 1.077083e+01 3.000000e+00
      vertex   -3.504463e+00 1.073724e+01 3.000000e+00
    endloop
  endfacet
  facet normal -2.164396e-01 -9.762960e-01 -8.661674e-16
    outer loop
      vertex   -3.253209e+00 1.068154e+01 5.000000e+00
      vertex   -3.504463e+00 1.073724e+01 3.000000e+00
      vertex   -3.253209e+00 1.068154e+01 3.000000e+00
    endloop
  endfacet
  facet normal -3.007058e-01 -9.537170e-01 -8.493158e-16
    outer loop
      vertex   -3.007766e+00 1.060415e+01 5.000000e+00
      vertex   -3.253209e+00 1.068154e+01 3.000000e+00
      vertex   -3.007766e+00 1.060415e+01 3.000000e+00
    endloop
  endfacet
  facet normal -3.826834e-01 -9.238795e-01 -8.223534e-16
    outer loop
      vertex   -2.770001e+00 1.050566e+01 5.000000e+00
      vertex   -3.007766e+00 1.060415e+01 3.000000e+00
      vertex   -2.770001e+00 1.050566e+01 3.000000e+00
    endloop
  endfacet
  facet normal -4.617486e-01 -8.870108e-01 0.000000e+00
    outer loop
      vertex   -2.541725e+00 1.038683e+01 5.000000e+00
      vertex   -2.770001e+00 1.050566e+01 3.000000e+00
      vertex   -2.541725e+00 1.038683e+01 3.000000e+00
    endloop
  endfacet
  facet normal -5.372996e-01 -8.433914e-01 0.000000e+00
    outer loop
      vertex   -2.324674e+00 1.024855e+01 5.000000e+00
      vertex   -2.541725e+00 1.038683e+01 3.000000e+00
      vertex   -2.324674e+00 1.024855e+01 3.000000e+00
    endloop
  endfacet
  facet normal -6.087614e-01 -7.933533e-01 0.000000e+00
    outer loop
      vertex   -2.120501e+00 1.009189e+01 5.000000e+00
      vertex   -2.324674e+00 1.024855e+01 3.000000e+00
      vertex   -2.120501e+00 1.009189e+01 3.000000e+00
    endloop
  endfacet
  facet normal -6.755902e-01 -7.372773e-01 -6.470978e-16
    outer loop
      vertex   -1.930760e+00 9.918020e+00 5.000000e+00
      vertex   -2.120501e+00 1.009189e+01 3.000000e+00
      vertex   -1.930760e+00 9.918020e+00 3.000000e+00
    endloop
  endfacet
  facet normal -7.372773e-01 -6.755902e-01 0.000000e+00
    outer loop
      vertex   -1.756894e+00 9.728279e+00 5.000000e+00
      vertex   -1.930760e+00 9.918020e+00 3.000000e+00
      vertex   -1.756894e+00 9.728279e+00 3.000000e+00
    endloop
  endfacet
  facet normal -7.933533e-01 -6.087614e-01 0.000000e+00
    outer loop
      vertex   -1.600226e+00 9.524106e+00 5.000000e+00
      vertex   -1.756894e+00 9.728279e+00 3.000000e+00
      vertex   -1.600226e+00 9.524106e+00 3.000000e+00
    endloop
  endfacet
  facet normal -8.433914e-01 -5.372996e-01 0.000000e+00
    outer loop
      vertex   -1.461950e+00 9.307055e+00 5.000000e+00
      vertex   -1.600226e+00 9.524106e+00 3.000000e+00
      vertex   -1.461950e+00 9.307055e+00 3.000000e+00
    endloop
  endfacet
  facet normal -8.870108e-01 -4.617486e-01 -4.111767e-16
    outer loop
      vertex   -1.343117e+00 9.078779e+00 5.000000e+00
      vertex   -1.461950e+00 9.307055e+00 3.000000e+00
      vertex   -1.343117e+00 9.078779e+00 3.000000e+00
    endloop
  endfacet
  facet normal -9.238795e-01 -3.826834e-01 -3.370301e-16
    outer loop
      vertex   -1.244632e+00 8.841015e+00 5.000000e+00
      vertex   -1.343117e+00 9.078779e+00 3.000000e+00
      vertex   -1.244632e+00 8.841015e+00 3.000000e+00
    endloop
  endfacet
  facet normal -9.537170e-01 -3.007058e-01 0.000000e+00
    outer loop
      vertex   -1.167244e+00 8.595571e+00 5.000000e+00
      vertex   -1.244632e+00 8.841015e+00 3.000000e+00
      vertex   -1.167244e+00 8.595571e+00 3.000000e+00
    endloop
  endfacet
  facet normal -9.762960e-01 -2.164396e-01 0.000000e+00
    outer loop
      vertex   -1.111542e+00 8.344317e+00 5.000000e+00
      vertex   -1.167244e+00 8.595571e+00 3.000000e+00
      vertex   -1.111542e+00 8.344317e+00 3.000000e+00
    endloop
  endfacet
  facet normal -9.914449e-01 -1.305262e-01 0.000000e+00
    outer loop
      vertex   -1.077951e+00 8.089165e+00 5.000000e+00
      vertex   -1.111542e+00 8.344317e+00 3.000000e+00
      vertex   -1.077951e+00 8.089165e+00 3.000000e+00
    endloop
  endfacet
  facet normal -9.990482e-01 -4.361939e-02 -1.937923e-17
    outer loop
      vertex   -1.066725e+00 7.832055e+00 5.000000e+00
      vertex   -1.077951e+00 8.089165e+00 3.000000e+00
      vertex   -1.066725e+00 7.832055e+00 3.000000e+00
    endloop
  endfacet
  facet normal -9.990482e-01 -4.361939e-02 -0.000000e+00
    outer loop
      vertex   -1.066725e+00 7.832055e+00 5.000000e+00
      vertex   -1.077951e+00 8.089165e+00 5.000000e+00
      vertex   -1.077951e+00 8.089165e+00 3.000000e+00
    endloop
  endfacet
  facet normal -1.305262e-01 -9.914449e-01 -0.000000e+00
    outer loop
      vertex   -3.759616e+00 1.077083e+01 5.000000e+00
      vertex   -3.759616e+00 1.077083e+01 3.000000e+00
      vertex   -3.504463e+00 1.073724e+01 5.000000e+00
    endloop
  endfacet
  facet normal -2.164396e-01 -9.762960e-01 -8.671250e-16
    outer loop
      vertex   -3.504463e+00 1.073724e+01 5.000000e+00
      vertex   -3.504463e+00 1.073724e+01 3.000000e+00
      vertex   -3.253209e+00 1.068154e+01 5.000000e+00
    endloop
  endfacet
  facet normal -3.007058e-01 -9.537170e-01 -8.470708e-16
    outer loop
      vertex   -3.253209e+00 1.068154e+01 5.000000e+00
      vertex   -3.253209e+00 1.068154e+01 3.000000e+00
      vertex   -3.007766e+00 1.060415e+01 5.000000e+00
    endloop
  endfacet
  facet normal -3.826834e-01 -9.238795e-01 -8.205699e-16
    outer loop
      vertex   -3.007766e+00 1.060415e+01 5.000000e+00
      vertex   -3.007766e+00 1.060415e+01 3.000000e+00
      vertex   -2.770001e+00 1.050566e+01 5.000000e+00
    endloop
  endfacet
  facet normal -4.617486e-01 -8.870108e-01 -7.878239e-16
    outer loop
      vertex   -2.770001e+00 1.050566e+01 5.000000e+00
      vertex   -2.770001e+00 1.050566e+01 3.000000e+00
      vertex   -2.541725e+00 1.038683e+01 5.000000e+00
    endloop
  endfacet
  facet normal -5.372996e-01 -8.433914e-01 -0.000000e+00
    outer loop
      vertex   -2.541725e+00 1.038683e+01 5.000000e+00
      vertex   -2.541725e+00 1.038683e+01 3.000000e+00
      vertex   -2.324674e+00 1.024855e+01 5.000000e+00
    endloop
  endfacet
  facet normal -6.087614e-01 -7.933533e-01 -0.000000e+00
    outer loop
      vertex   -2.324674e+00 1.024855e+01 5.000000e+00
      vertex   -2.324674e+00 1.024855e+01 3.000000e+00
      vertex   -2.120501e+00 1.009189e+01 5.000000e+00
    endloop
  endfacet
  facet normal -6.755902e-01 -7.372773e-01 -0.000000e+00
    outer loop
      vertex   -2.120501e+00 1.009189e+01 5.000000e+00
      vertex   -2.120501e+00 1.009189e+01 3.000000e+00
      vertex   -1.930760e+00 9.918020e+00 5.000000e+00
    endloop
  endfacet
  facet normal -7.372773e-01 -6.755902e-01 -6.000446e-16
    outer loop
      vertex   -1.930760e+00 9.918020e+00 5.000000e+00
      vertex   -1.930760e+00 9.918020e+00 3.000000e+00
      vertex   -1.756894e+00 9.728279e+00 5.000000e+00
    endloop
  endfacet
  facet normal -7.933533e-01 -6.087614e-01 -0.000000e+00
    outer loop
      vertex   -1.756894e+00 9.728279e+00 5.000000e+00
      vertex   -1.756894e+00 9.728279e+00 3.000000e+00
      vertex   -1.600226e+00 9.524106e+00 5.000000e+00
    endloop
  endfacet
  facet normal -8.433914e-01 -5.372996e-01 -0.000000e+00
    outer loop
      vertex   -1.600226e+00 9.524106e+00 5.000000e+00
      vertex   -1.600226e+00 9.524106e+00 3.000000e+00
      vertex   -1.461950e+00 9.307055e+00 5.000000e+00
    endloop
  endfacet
  facet normal -8.870108e-01 -4.617486e-01 -0.000000e+00
    outer loop
      vertex   -1.461950e+00 9.307055e+00 5.000000e+00
      vertex   -1.461950e+00 9.307055e+00 3.000000e+00
      vertex   -1.343117e+00 9.078779e+00 5.000000e+00
    endloop
  endfacet
  facet normal -9.238795e-01 -3.826834e-01 -3.398912e-16
    outer loop
      vertex   -1.343117e+00 9.078779e+00 5.000000e+00
      vertex   -1.343117e+00 9.078779e+00 3.000000e+00
      vertex   -1.244632e+00 8.841015e+00 5.000000e+00
    endloop
  endfacet
  facet normal -9.537170e-01 -3.007058e-01 -2.670804e-16
    outer loop
      vertex   -1.244632e+00 8.841015e+00 5.000000e+00
      vertex   -1.244632e+00 8.841015e+00 3.000000e+00
      vertex   -1.167244e+00 8.595571e+00 5.000000e+00
    endloop
  endfacet
  facet normal -9.762960e-01 -2.164396e-01 -0.000000e+00
    outer loop
      vertex   -1.167244e+00 8.595571e+00 5.000000e+00
      vertex   -1.167244e+00 8.595571e+00 3.000000e+00
      vertex   -1.111542e+00 8.344317e+00 5.000000e+00
    endloop
  endfacet
  facet normal -9.914449e-01 -1.305262e-01 -0.000000e+00
    outer loop
      vertex   -1.111542e+00 8.344317e+00 5.000000e+00
      vertex   -1.111542e+00 8.344317e+00 3.000000e+00
      vertex   -1.077951e+00 8.089165e+00 5.000000e+00
    endloop
  endfacet
  facet normal 0.000000e+00 0.000000e+00 1.000000e+00
    outer loop
      vertex   -1.077951e+00 8.089165e+00 3.000000e+00
      vertex   -4.016725e+00 1.078206e+01 3.000000e+00
      vertex   -1.066725e+00 7.832055e+00 3.000000e+00
    endloop
  endfacet
  facet normal 0.000000e+00 0.000000e+00 1.000000e+00
    outer loop
      vertex   -1.077951e+00 8.089165e+00 3.000000e+00
      vertex   -1.111542e+00 8.344317e+00 3.000000e+00
      vertex   -4.016725e+00 1.078206e+01 3.000000e+00
    endloop
  endfacet
  facet normal -0.000000e+00 -0.000000e+00 1.000000e+00
    outer loop
      vertex   -4.016725e+00 1.078206e+01 3.000000e+00
      vertex   -1.111542e+00 8.344317e+00 3.000000e+00
      vertex   -1.167244e+00 8.595571e+00 3.000000e+00
    endloop
  endfacet
  facet normal 0.000000e+00 0.000000e+00 1.000000e+00
    outer loop
      vertex   -1.244632e+00 8.841015e+00 3.000000e+00
      vertex   -4.016725e+00 1.078206e+01 3.000000e+00
      vertex   -1.167244e+00 8.595571e+00 3.000000e+00
    endloop
  endfacet
  facet normal 0.000000e+00 0.000000e+00 1.000000e+00
    outer loop
      vertex   -1.244632e+00 8.841015e+00 3.000000e+00
      vertex   -1.343117e+00 9.078779e+00 3.000000e+00
      vertex   -4.016725e+00 1.078206e+01 3.000000e+00
    endloop
  endfacet
  facet normal -0.000000e+00 -0.000000e+00 1.000000e+00
    outer loop
      vertex   -4.016725e+00 1.078206e+01 3.000000e+00
      vertex   -1.343117e+00 9.078779e+00 3.000000e+00
      vertex   -1.461950e+00 9.307055e+00 3.000000e+00
    endloop
  endfacet
  facet normal 0.000000e+00 0.000000e+00 1.000000e+00
    outer loop
      vertex   -1.600226e+00 9.524106e+00 3.000000e+00
      vertex   -4.016725e+00 1.078206e+01 3.000000e+00
      vertex   -1.461950e+00 9.307055e+00 3.000000e+00
    endloop
  endfacet
  facet normal 0.000000e+00 0.000000e+00 1.000000e+00
    outer loop
      vertex   -1.600226e+00 9.524106e+00 3.000000e+00
      vertex   -1.756894e+00 9.728279e+00 3.000000e+00
      vertex   -4.016725e+00 1.078206e+01 3.000000e+00
    endloop
  endfacet
  facet normal -0.000000e+00 -0.000000e+00 1.000000e+00
    outer loop
      vertex   -4.016725e+00 1.078206e+01 3.000000e+00
      vertex   -1.756894e+00 9.728279e+00 3.000000e+00
      vertex   -1.930760e+00 9.918020e+00 3.000000e+00
    endloop
  endfacet
  facet normal 0.000000e+00 0.000000e+00 1.000000e+00
    outer loop
      vertex   -2.120501e+00 1.009189e+01 3.000000e+00
      vertex   -4.016725e+00 1.078206e+01 3.000000e+00
      vertex   -1.930760e+00 9.918020e+00 3.000000e+00
    endloop
  endfacet
  facet normal 0.000000e+00 0.000000e+00 1.000000e+00
    outer loop
      vertex   -2.120501e+00 1.009189e+01 3.000000e+00
      vertex   -2.324674e+00 1.024855e+01 3.000000e+00
      vertex   -4.016725e+00 1.078206e+01 3.000000e+00
    endloop
  endfacet
  facet normal -0.000000e+00 -0.000000e+00 1.000000e+00
    outer loop
      vertex   -4.016725e+00 1.078206e+01 3.000000e+00
      vertex   -2.324674e+00 1.024855e+01 3.000000e+00
      vertex   -2.541725e+00 1.038683e+01 3.000000e+00
    endloop
  endfacet
  facet normal 0.000000e+00 0.000000e+00 1.000000e+00
    outer loop
      vertex   -2.770001e+00 1.050566e+01 3.000000e+00
      vertex   -4.016725e+00 1.078206e+01 3.000000e+00
      vertex   -2.541725e+00 1.038683e+01 3.000000e+00
    endloop
  endfacet
  facet normal 0.000000e+00 0.000000e+00 1.000000e+00
    outer loop
      vertex   -2.770001e+00 1.050566e+01 3.000000e+00
      vertex   -3.007766e+00 1.060415e+01 3.000000e+00
      vertex   -4.016725e+00 1.078206e+01 3.000000e+00
    endloop
  endfacet
  facet normal -0.000000e+00 -0.000000e+00 1.000000e+00
    outer loop
      vertex   -4.016725e+00 1.078206e+01 3.000000e+00
      vertex   -3.007766e+00 1.060415e+01 3.000000e+00
      vertex   -3.253209e+00 1.068154e+01 3.000000e+00
    endloop
  endfacet
  facet normal 0.000000e+00 0.000000e+00 1.000000e+00
    outer loop
      vertex   -3.504463e+00 1.073724e+01 3.000000e+00
      vertex   -4.016725e+00 1.078206e+01 3.000000e+00
      vertex   -3.253209e+00 1.068154e+01 3.000000e+00
    endloop
  endfacet
  facet normal 0.000000e+00 0.000000e+00 1.000000e+00
    outer loop
      vertex   -3.504463e+00 1.073724e+01 3.000000e+00
      vertex   -3.759616e+00 1.077083e+01 3.000000e+00
      vertex   -4.016725e+00 1.078206e+01 3.000000e+00
    endloop
  endfacet
  facet normal -0.000000e+00 0.000000e+00 1.000000e+00
    outer loop
      vertex   -1.066672e+01 1.078206e+01 3.000000e+00
      vertex   -1.066672e+01 1.182055e+00 3.000000e+00
      vertex   -4.016725e+00 1.078206e+01 3.000000e+00
    endloop
  endfacet
  facet normal -0.000000e+00 0.000000e+00 1.000000e+00
    outer loop
      vertex   -4.016725e+00 1.078206e+01 3.000000e+00
      vertex   -1.066672e+01 1.182055e+00 3.000000e+00
      vertex   -1.066725e+00 7.832055e+00 3.000000e+00
    endloop
  endfacet
  facet normal -0.000000e+00 0.000000e+00 1.000000e+00
    outer loop
      vertex   -1.066725e+00 7.832055e+00 3.000000e+00
      vertex   -1.066672e+01 1.182055e+00 3.000000e+00
      vertex   -1.066725e+00 1.182055e+00 3.000000e+00
    endloop
  endfacet
  facet normal -0.000000e+00 -1.000000e+00 0.000000e+00
    outer loop
      vertex   -4.016725e+00 1.078206e+01 3.000000e+00
      vertex   -4.016725e+00 1.078206e+01 5.000000e+00
      vertex   -1.066672e+01 1.078206e+01 3.000000e+00
    endloop
  endfacet
  facet normal 0.000000e+00 -1.000000e+00 0.000000e+00
    outer loop
      vertex   -1.066672e+01 1.078206e+01 3.000000e+00
      vertex   -4.016725e+00 1.078206e+01 5.000000e+00
      vertex   -1.066672e+01 1.078206e+01 5.000000e+00
    endloop
  endfacet
  facet normal -1.000000e+00 -2.337312e-16 -1.037975e-31
    outer loop
      vertex   -1.066725e+00 7.832055e+00 5.000000e+00
      vertex   -1.066725e+00 7.832055e+00 3.000000e+00
      vertex   -1.066725e+00 1.182055e+00 5.000000e+00
    endloop
  endfacet
  facet normal -1.000000e+00 -2.337312e-16 0.000000e+00
    outer loop
      vertex   -1.066725e+00 1.182055e+00 5.000000e+00
      vertex   -1.066725e+00 7.832055e+00 3.000000e+00
      vertex   -1.066725e+00 1.182055e+00 3.000000e+00
    endloop
  endfacet
  facet normal 1.000000e+00 -0.000000e+00 0.000000e+00
    outer loop
      vertex   -1.066672e+01 1.182055e+00 5.000000e+00
      vertex   -1.066672e+01 1.182055e+00 3.000000e+00
      vertex   -1.066672e+01 1.078206e+01 5.000000e+00
    endloop
  endfacet
  facet normal 1.000000e+00 -0.000000e+00 0.000000e+00
    outer loop
      vertex   -1.066672e+01 1.078206e+01 5.000000e+00
      vertex   -1.066672e+01 1.182055e+00 3.000000e+00
      vertex   -1.066672e+01 1.078206e+01 3.000000e+00
    endloop
  endfacet
  facet normal -2.312965e-16 1.000000e+00 0.000000e+00
    outer loop
      vertex   -1.066725e+00 1.182055e+00 5.000000e+00
      vertex   -1.066725e+00 1.182055e+00 3.000000e+00
      vertex   -1.066672e+01 1.182055e+00 5.000000e+00
    endloop
  endfacet
  facet normal -2.312965e-16 1.000000e+00 0.000000e+00
    outer loop
      vertex   -1.066672e+01 1.182055e+00 5.000000e+00
      vertex   -1.066725e+00 1.182055e+00 3.000000e+00
      vertex   -1.066672e+01 1.182055e+00 3.000000e+00
    endloop
  endfacet
  facet normal 4.132497e-02 9.991458e-01 0.000000e+00
    outer loop
      vertex   -3.100000e+00 1.200000e+01 5.000000e+00
      vertex   -2.852262e+00 1.198975e+01 5.000000e+00
      vertex   -3.100000e+00 1.200000e+01 1.192093e-07
    endloop
  endfacet
  facet normal 4.132497e-02 9.991458e-01 0.000000e+00
    outer loop
      vertex   -3.100000e+00 1.200000e+01 1.192093e-07
      vertex   -2.852262e+00 1.198975e+01 5.000000e+00
      vertex   -2.852262e+00 1.198975e+01 1.192093e-07
    endloop
  endfacet
  facet normal 1.236926e-01 9.923206e-01 -0.000000e+00
    outer loop
      vertex   -2.852262e+00 1.198975e+01 1.192093e-07
      vertex   -2.852262e+00 1.198975e+01 5.000000e+00
      vertex   -2.606216e+00 1.195908e+01 5.000000e+00
    endloop
  endfacet
  facet normal 2.052153e-01 9.787168e-01 -0.000000e+00
    outer loop
      vertex   -2.606216e+00 1.195908e+01 1.192093e-07
      vertex   -2.606216e+00 1.195908e+01 5.000000e+00
      vertex   -2.363544e+00 1.190820e+01 5.000000e+00
    endloop
  endfacet
  facet normal 2.853362e-01 9.584275e-01 -0.000000e+00
    outer loop
      vertex   -2.363544e+00 1.190820e+01 1.192093e-07
      vertex   -2.363544e+00 1.190820e+01 5.000000e+00
      vertex   -2.125902e+00 1.183745e+01 5.000000e+00
    endloop
  endfacet
  facet normal 3.635080e-01 9.315911e-01 -0.000000e+00
    outer loop
      vertex   -2.125902e+00 1.183745e+01 1.192093e-07
      vertex   -2.125902e+00 1.183745e+01 5.000000e+00
      vertex   -1.894914e+00 1.174732e+01 5.000000e+00
    endloop
  endfacet
  facet normal 4.391966e-01 8.983910e-01 1.950425e-17
    outer loop
      vertex   -1.894914e+00 1.174732e+01 1.192093e-07
      vertex   -1.894914e+00 1.174732e+01 5.000000e+00
      vertex   -1.672158e+00 1.163842e+01 5.000000e+00
    endloop
  endfacet
  facet normal 5.118850e-01 8.590540e-01 4.546453e-17
    outer loop
      vertex   -1.672158e+00 1.163842e+01 1.192093e-07
      vertex   -1.672158e+00 1.163842e+01 5.000000e+00
      vertex   -1.459156e+00 1.151150e+01 5.000000e+00
    endloop
  endfacet
  facet normal 5.810768e-01 8.138487e-01 -0.000000e+00
    outer loop
      vertex   -1.459156e+00 1.151150e+01 1.192093e-07
      vertex   -1.459156e+00 1.151150e+01 5.000000e+00
      vertex   -1.257362e+00 1.136742e+01 5.000000e+00
    endloop
  endfacet
  facet normal 6.462992e-01 7.630841e-01 -0.000000e+00
    outer loop
      vertex   -1.257362e+00 1.136742e+01 1.192093e-07
      vertex   -1.257362e+00 1.136742e+01 5.000000e+00
      vertex   -1.068155e+00 1.120717e+01 5.000000e+00
    endloop
  endfacet
  facet normal 7.071068e-01 7.071068e-01 -0.000000e+00
    outer loop
      vertex   -1.068155e+00 1.120717e+01 1.192093e-07
      vertex   -1.068155e+00 1.120717e+01 5.000000e+00
      vertex   -8.928283e-01 1.103184e+01 1.192093e-07
    endloop
  endfacet
  facet normal 6.462992e-01 7.630841e-01 0.000000e+00
    outer loop
      vertex   -1.068155e+00 1.120717e+01 1.192093e-07
      vertex   -1.257362e+00 1.136742e+01 1.192093e-07
      vertex   -1.068155e+00 1.120717e+01 5.000000e+00
    endloop
  endfacet
  facet normal 1.236926e-01 9.923206e-01 0.000000e+00
    outer loop
      vertex   -2.852262e+00 1.198975e+01 1.192093e-07
      vertex   -2.606216e+00 1.195908e+01 5.000000e+00
      vertex   -2.606216e+00 1.195908e+01 1.192093e-07
    endloop
  endfacet
  facet normal 2.052153e-01 9.787168e-01 0.000000e+00
    outer loop
      vertex   -2.606216e+00 1.195908e+01 1.192093e-07
      vertex   -2.363544e+00 1.190820e+01 5.000000e+00
      vertex   -2.363544e+00 1.190820e+01 1.192093e-07
    endloop
  endfacet
  facet normal 2.853362e-01 9.584275e-01 0.000000e+00
    outer loop
      vertex   -2.363544e+00 1.190820e+01 1.192093e-07
      vertex   -2.125902e+00 1.183745e+01 5.000000e+00
      vertex   -2.125902e+00 1.183745e+01 1.192093e-07
    endloop
  endfacet
  facet normal 3.635080e-01 9.315911e-01 1.614300e-17
    outer loop
      vertex   -2.125902e+00 1.183745e+01 1.192093e-07
      vertex   -1.894914e+00 1.174732e+01 5.000000e+00
      vertex   -1.894914e+00 1.174732e+01 1.192093e-07
    endloop
  endfacet
  facet normal 4.391966e-01 8.983910e-01 3.900849e-17
    outer loop
      vertex   -1.894914e+00 1.174732e+01 1.192093e-07
      vertex   -1.672158e+00 1.163842e+01 5.000000e+00
      vertex   -1.672158e+00 1.163842e+01 1.192093e-07
    endloop
  endfacet
  facet normal 5.118850e-01 8.590540e-01 0.000000e+00
    outer loop
      vertex   -1.672158e+00 1.163842e+01 1.192093e-07
      vertex   -1.459156e+00 1.151150e+01 5.000000e+00
      vertex   -1.459156e+00 1.151150e+01 1.192093e-07
    endloop
  endfacet
  facet normal 5.810768e-01 8.138487e-01 0.000000e+00
    outer loop
      vertex   -1.459156e+00 1.151150e+01 1.192093e-07
      vertex   -1.257362e+00 1.136742e+01 5.000000e+00
      vertex   -1.257362e+00 1.136742e+01 1.192093e-07
    endloop
  endfacet
  facet normal 7.071068e-01 7.071068e-01 0.000000e+00
    outer loop
      vertex   -1.068155e+00 1.120717e+01 5.000000e+00
      vertex   -8.928283e-01 1.103184e+01 5.000000e+00
      vertex   -8.928283e-01 1.103184e+01 1.192093e-07
    endloop
  endfacet
  facet normal 7.630841e-01 6.462992e-01 -0.000000e+00
    outer loop
      vertex   -8.928283e-01 1.103184e+01 1.192093e-07
      vertex   -8.928283e-01 1.103184e+01 5.000000e+00
      vertex   -7.325785e-01 1.084264e+01 5.000000e+00
    endloop
  endfacet
  facet normal 8.138487e-01 5.810768e-01 -0.000000e+00
    outer loop
      vertex   -7.325785e-01 1.084264e+01 1.192093e-07
      vertex   -7.325785e-01 1.084264e+01 5.000000e+00
      vertex   -5.885006e-01 1.064084e+01 5.000000e+00
    endloop
  endfacet
  facet normal 8.590540e-01 5.118850e-01 3.814966e-17
    outer loop
      vertex   -5.885006e-01 1.064084e+01 1.192093e-07
      vertex   -5.885006e-01 1.064084e+01 5.000000e+00
      vertex   -4.615787e-01 1.042784e+01 5.000000e+00
    endloop
  endfacet
  facet normal 8.983910e-01 4.391966e-01 3.989657e-17
    outer loop
      vertex   -4.615787e-01 1.042784e+01 1.192093e-07
      vertex   -4.615787e-01 1.042784e+01 5.000000e+00
      vertex   -3.526800e-01 1.020509e+01 5.000000e+00
    endloop
  endfacet
  facet normal 9.315911e-01 3.635080e-01 -1.084585e-16
    outer loop
      vertex   -3.526800e-01 1.020509e+01 1.192093e-07
      vertex   -3.526800e-01 1.020509e+01 5.000000e+00
      vertex   -2.625483e-01 9.974098e+00 5.000000e+00
    endloop
  endfacet
  facet normal 9.584275e-01 2.853362e-01 2.128137e-17
    outer loop
      vertex   -2.625483e-01 9.974098e+00 1.192093e-07
      vertex   -2.625483e-01 9.974098e+00 5.000000e+00
      vertex   -1.917992e-01 9.736456e+00 5.000000e+00
    endloop
  endfacet
  facet normal 9.787168e-01 2.052153e-01 -0.000000e+00
    outer loop
      vertex   -1.917992e-01 9.736456e+00 1.192093e-07
      vertex   -1.917992e-01 9.736456e+00 5.000000e+00
      vertex   -1.409161e-01 9.493784e+00 5.000000e+00
    endloop
  endfacet
  facet normal 9.923206e-01 1.236926e-01 -0.000000e+00
    outer loop
      vertex   -1.409161e-01 9.493784e+00 1.192093e-07
      vertex   -1.409161e-01 9.493784e+00 5.000000e+00
      vertex   -1.102465e-01 9.247738e+00 5.000000e+00
    endloop
  endfacet
  facet normal 9.991458e-01 4.132497e-02 -0.000000e+00
    outer loop
      vertex   -1.102465e-01 9.247738e+00 1.192093e-07
      vertex   -1.102465e-01 9.247738e+00 5.000000e+00
      vertex   -1.000000e-01 9.000000e+00 5.000000e+00
    endloop
  endfacet
  facet normal 9.991458e-01 4.132497e-02 0.000000e+00
    outer loop
      vertex   -1.000000e-01 9.000000e+00 1.192093e-07
      vertex   -1.102465e-01 9.247738e+00 1.192093e-07
      vertex   -1.000000e-01 9.000000e+00 5.000000e+00
    endloop
  endfacet
  facet normal 7.630841e-01 6.462992e-01 0.000000e+00
    outer loop
      vertex   -8.928283e-01 1.103184e+01 1.192093e-07
      vertex   -7.325785e-01 1.084264e+01 5.000000e+00
      vertex   -7.325785e-01 1.084264e+01 1.192093e-07
    endloop
  endfacet
  facet normal 8.138487e-01 5.810768e-01 3.614214e-17
    outer loop
      vertex   -7.325785e-01 1.084264e+01 1.192093e-07
      vertex   -5.885006e-01 1.064084e+01 5.000000e+00
      vertex   -5.885006e-01 1.064084e+01 1.192093e-07
    endloop
  endfacet
  facet normal 8.590540e-01 5.118850e-01 3.814966e-17
    outer loop
      vertex   -5.885006e-01 1.064084e+01 1.192093e-07
      vertex   -4.615787e-01 1.042784e+01 5.000000e+00
      vertex   -4.615787e-01 1.042784e+01 1.192093e-07
    endloop
  endfacet
  facet normal 8.983910e-01 4.391966e-01 -1.360857e-16
    outer loop
      vertex   -4.615787e-01 1.042784e+01 1.192093e-07
      vertex   -3.526800e-01 1.020509e+01 5.000000e+00
      vertex   -3.526800e-01 1.020509e+01 1.192093e-07
    endloop
  endfacet
  facet normal 9.315911e-01 3.635080e-01 2.068548e-17
    outer loop
      vertex   -3.526800e-01 1.020509e+01 1.192093e-07
      vertex   -2.625483e-01 9.974098e+00 5.000000e+00
      vertex   -2.625483e-01 9.974098e+00 1.192093e-07
    endloop
  endfacet
  facet normal 9.584275e-01 2.853362e-01 0.000000e+00
    outer loop
      vertex   -2.625483e-01 9.974098e+00 1.192093e-07
      vertex   -1.917992e-01 9.736456e+00 5.000000e+00
      vertex   -1.917992e-01 9.736456e+00 1.192093e-07
    endloop
  endfacet
  facet normal 9.787168e-01 2.052153e-01 0.000000e+00
    outer loop
      vertex   -1.917992e-01 9.736456e+00 1.192093e-07
      vertex   -1.409161e-01 9.493784e+00 5.000000e+00
      vertex   -1.409161e-01 9.493784e+00 1.192093e-07
    endloop
  endfacet
  facet normal 9.923206e-01 1.236926e-01 0.000000e+00
    outer loop
      vertex   -1.409161e-01 9.493784e+00 1.192093e-07
      vertex   -1.102465e-01 9.247738e+00 5.000000e+00
      vertex   -1.102465e-01 9.247738e+00 1.192093e-07
    endloop
  endfacet
  facet normal 1.000000e+00 0.000000e+00 -0.000000e+00
    outer loop
      vertex   -1.000000e-01 9.000000e+00 1.192093e-07
      vertex   -1.000000e-01 9.000000e+00 5.000000e+00
      vertex   -1.000000e-01 0.000000e+00 1.192093e-07
    endloop
  endfacet
  facet normal 1.000000e+00 0.000000e+00 -0.000000e+00
    outer loop
      vertex   -1.000000e-01 0.000000e+00 1.192093e-07
      vertex   -1.000000e-01 9.000000e+00 5.000000e+00
      vertex   -1.000000e-01 0.000000e+00 5.000000e+00
    endloop
  endfacet
  facet normal -0.000000e+00 0.000000e+00 1.000000e+00
    outer loop
      vertex   -1.102465e-01 9.247738e+00 5.000000e+00
      vertex   -1.244632e+00 8.841015e+00 5.000000e+00
      vertex   -1.000000e-01 9.000000e+00 5.000000e+00
    endloop
  endfacet
  facet normal 0.000000e+00 0.000000e+00 1.000000e+00
    outer loop
      vertex   -1.102465e-01 9.247738e+00 5.000000e+00
      vertex   -1.409161e-01 9.493784e+00 5.000000e+00
      vertex   -1.244632e+00 8.841015e+00 5.000000e+00
    endloop
  endfacet
  facet normal 0.000000e+00 -0.000000e+00 1.000000e+00
    outer loop
      vertex   -1.244632e+00 8.841015e+00 5.000000e+00
      vertex   -1.409161e-01 9.493784e+00 5.000000e+00
      vertex   -1.917992e-01 9.736456e+00 5.000000e+00
    endloop
  endfacet
  facet normal 0.000000e+00 -0.000000e+00 1.000000e+00
    outer loop
      vertex   -1.343117e+00 9.078779e+00 5.000000e+00
      vertex   -1.917992e-01 9.736456e+00 5.000000e+00
      vertex   -2.625483e-01 9.974098e+00 5.000000e+00
    endloop
  endfacet
  facet normal 0.000000e+00 -0.000000e+00 1.000000e+00
    outer loop
      vertex   -1.461950e+00 9.307055e+00 5.000000e+00
      vertex   -2.625483e-01 9.974098e+00 5.000000e+00
      vertex   -1.600226e+00 9.524106e+00 5.000000e+00
    endloop
  endfacet
  facet normal -0.000000e+00 0.000000e+00 1.000000e+00
    outer loop
      vertex   -1.461950e+00 9.307055e+00 5.000000e+00
      vertex   -1.343117e+00 9.078779e+00 5.000000e+00
      vertex   -2.625483e-01 9.974098e+00 5.000000e+00
    endloop
  endfacet
  facet normal 0.000000e+00 -0.000000e+00 1.000000e+00
    outer loop
      vertex   -1.244632e+00 8.841015e+00 5.000000e+00
      vertex   -1.917992e-01 9.736456e+00 5.000000e+00
      vertex   -1.343117e+00 9.078779e+00 5.000000e+00
    endloop
  endfacet
  facet normal 0.000000e+00 0.000000e+00 1.000000e+00
    outer loop
      vertex   -2.625483e-01 9.974098e+00 5.000000e+00
      vertex   -3.526800e-01 1.020509e+01 5.000000e+00
      vertex   -1.600226e+00 9.524106e+00 5.000000e+00
    endloop
  endfacet
  facet normal 0.000000e+00 -0.000000e+00 1.000000e+00
    outer loop
      vertex   -1.600226e+00 9.524106e+00 5.000000e+00
      vertex   -3.526800e-01 1.020509e+01 5.000000e+00
      vertex   -4.615787e-01 1.042784e+01 5.000000e+00
    endloop
  endfacet
  facet normal 0.000000e+00 -0.000000e+00 1.000000e+00
    outer loop
      vertex   -1.756894e+00 9.728279e+00 5.000000e+00
      vertex   -4.615787e-01 1.042784e+01 5.000000e+00
      vertex   -5.885006e-01 1.064084e+01 5.000000e+00
    endloop
  endfacet
  facet normal -0.000000e+00 0.000000e+00 1.000000e+00
    outer loop
      vertex   -7.325785e-01 1.084264e+01 5.000000e+00
      vertex   -1.756894e+00 9.728279e+00 5.000000e+00
      vertex   -5.885006e-01 1.064084e+01 5.000000e+00
    endloop
  endfacet
  facet normal 0.000000e+00 0.000000e+00 1.000000e+00
    outer loop
      vertex   -7.325785e-01 1.084264e+01 5.000000e+00
      vertex   -1.930760e+00 9.918020e+00 5.000000e+00
      vertex   -1.756894e+00 9.728279e+00 5.000000e+00
    endloop
  endfacet
  facet normal 0.000000e+00 0.000000e+00 1.000000e+00
    outer loop
      vertex   -7.325785e-01 1.084264e+01 5.000000e+00
      vertex   -8.928283e-01 1.103184e+01 5.000000e+00
      vertex   -1.930760e+00 9.918020e+00 5.000000e+00
    endloop
  endfacet
  facet normal 0.000000e+00 -0.000000e+00 1.000000e+00
    outer loop
      vertex   -1.930760e+00 9.918020e+00 5.000000e+00
      vertex   -8.928283e-01 1.103184e+01 5.000000e+00
      vertex   -1.068155e+00 1.120717e+01 5.000000e+00
    endloop
  endfacet
  facet normal 0.000000e+00 -0.000000e+00 1.000000e+00
    outer loop
      vertex   -2.120501e+00 1.009189e+01 5.000000e+00
      vertex   -1.068155e+00 1.120717e+01 5.000000e+00
      vertex   -1.257362e+00 1.136742e+01 5.000000e+00
    endloop
  endfacet
  facet normal 0.000000e+00 -0.000000e+00 1.000000e+00
    outer loop
      vertex   -2.324674e+00 1.024855e+01 5.000000e+00
      vertex   -1.257362e+00 1.136742e+01 5.000000e+00
      vertex   -1.459156e+00 1.151150e+01 5.000000e+00
    endloop
  endfacet
  facet normal -0.000000e+00 0.000000e+00 1.000000e+00
    outer loop
      vertex   -1.672158e+00 1.163842e+01 5.000000e+00
      vertex   -2.324674e+00 1.024855e+01 5.000000e+00
      vertex   -1.459156e+00 1.151150e+01 5.000000e+00
    endloop
  endfacet
  facet normal 0.000000e+00 0.000000e+00 1.000000e+00
    outer loop
      vertex   -1.672158e+00 1.163842e+01 5.000000e+00
      vertex   -2.541725e+00 1.038683e+01 5.000000e+00
      vertex   -2.324674e+00 1.024855e+01 5.000000e+00
    endloop
  endfacet
  facet normal 0.000000e+00 0.000000e+00 1.000000e+00
    outer loop
      vertex   -1.672158e+00 1.163842e+01 5.000000e+00
      vertex   -1.894914e+00 1.174732e+01 5.000000e+00
      vertex   -2.541725e+00 1.038683e+01 5.000000e+00
    endloop
  endfacet
  facet normal 0.000000e+00 -0.000000e+00 1.000000e+00
    outer loop
      vertex   -2.541725e+00 1.038683e+01 5.000000e+00
      vertex   -1.894914e+00 1.174732e+01 5.000000e+00
      vertex   -2.125902e+00 1.183745e+01 5.000000e+00
    endloop
  endfacet
  facet normal 0.000000e+00 -0.000000e+00 1.000000e+00
    outer loop
      vertex   -2.770001e+00 1.050566e+01 5.000000e+00
      vertex   -2.125902e+00 1.183745e+01 5.000000e+00
      vertex   -2.363544e+00 1.190820e+01 5.000000e+00
    endloop
  endfacet
  facet normal -0.000000e+00 0.000000e+00 1.000000e+00
    outer loop
      vertex   -2.606216e+00 1.195908e+01 5.000000e+00
      vertex   -2.770001e+00 1.050566e+01 5.000000e+00
      vertex   -2.363544e+00 1.190820e+01 5.000000e+00
    endloop
  endfacet
  facet normal 0.000000e+00 0.000000e+00 1.000000e+00
    outer loop
      vertex   -2.606216e+00 1.195908e+01 5.000000e+00
      vertex   -3.007766e+00 1.060415e+01 5.000000e+00
      vertex   -2.770001e+00 1.050566e+01 5.000000e+00
    endloop
  endfacet
  facet normal 0.000000e+00 0.000000e+00 1.000000e+00
    outer loop
      vertex   -2.606216e+00 1.195908e+01 5.000000e+00
      vertex   -2.852262e+00 1.198975e+01 5.000000e+00
      vertex   -3.007766e+00 1.060415e+01 5.000000e+00
    endloop
  endfacet
  facet normal 0.000000e+00 -0.000000e+00 1.000000e+00
    outer loop
      vertex   -3.007766e+00 1.060415e+01 5.000000e+00
      vertex   -2.852262e+00 1.198975e+01 5.000000e+00
      vertex   -3.253209e+00 1.068154e+01 5.000000e+00
    endloop
  endfacet
  facet normal 0.000000e+00 -0.000000e+00 1.000000e+00
    outer loop
      vertex   -3.253209e+00 1.068154e+01 5.000000e+00
      vertex   -2.852262e+00 1.198975e+01 5.000000e+00
      vertex   -3.100000e+00 1.200000e+01 5.000000e+00
    endloop
  endfacet
  facet normal 0.000000e+00 -0.000000e+00 1.000000e+00
    outer loop
      vertex   -3.504463e+00 1.073724e+01 5.000000e+00
      vertex   -3.100000e+00 1.200000e+01 5.000000e+00
      vertex   -3.759616e+00 1.077083e+01 5.000000e+00
    endloop
  endfacet
  facet normal -0.000000e+00 0.000000e+00 1.000000e+00
    outer loop
      vertex   -3.504463e+00 1.073724e+01 5.000000e+00
      vertex   -3.253209e+00 1.068154e+01 5.000000e+00
      vertex   -3.100000e+00 1.200000e+01 5.000000e+00
    endloop
  endfacet
  facet normal 0.000000e+00 -0.000000e+00 1.000000e+00
    outer loop
      vertex   -1.600226e+00 9.524106e+00 5.000000e+00
      vertex   -4.615787e-01 1.042784e+01 5.000000e+00
      vertex   -1.756894e+00 9.728279e+00 5.000000e+00
    endloop
  endfacet
  facet normal 0.000000e+00 -0.000000e+00 1.000000e+00
    outer loop
      vertex   -1.930760e+00 9.918020e+00 5.000000e+00
      vertex   -1.068155e+00 1.120717e+01 5.000000e+00
      vertex   -2.120501e+00 1.009189e+01 5.000000e+00
    endloop
  endfacet
  facet normal 0.000000e+00 -0.000000e+00 1.000000e+00
    outer loop
      vertex   -2.120501e+00 1.009189e+01 5.000000e+00
      vertex   -1.257362e+00 1.136742e+01 5.000000e+00
      vertex   -2.324674e+00 1.024855e+01 5.000000e+00
    endloop
  endfacet
  facet normal 0.000000e+00 -0.000000e+00 1.000000e+00
    outer loop
      vertex   -2.541725e+00 1.038683e+01 5.000000e+00
      vertex   -2.125902e+00 1.183745e+01 5.000000e+00
      vertex   -2.770001e+00 1.050566e+01 5.000000e+00
    endloop
  endfacet
  facet normal -0.000000e+00 0.000000e+00 1.000000e+00
    outer loop
      vertex   -1.170000e+01 1.200000e+01 5.000000e+00
      vertex   -1.066672e+01 1.078206e+01 5.000000e+00
      vertex   -3.100000e+00 1.200000e+01 5.000000e+00
    endloop
  endfacet
  facet normal -8.724300e-17 -7.401487e-17 1.000000e+00
    outer loop
      vertex   -1.170000e+01 1.200000e+01 5.000000e+00
      vertex   -1.170000e+01 0.000000e+00 5.000000e+00
      vertex   -1.066672e+01 1.078206e+01 5.000000e+00
    endloop
  endfacet
  facet normal -8.595760e-16 0.000000e+00 1.000000e+00
    outer loop
      vertex   -1.066672e+01 1.078206e+01 5.000000e+00
      vertex   -1.170000e+01 0.000000e+00 5.000000e+00
      vertex   -1.066672e+01 1.182055e+00 5.000000e+00
    endloop
  endfacet
  facet normal 0.000000e+00 -7.513848e-16 1.000000e+00
    outer loop
      vertex   -1.066672e+01 1.182055e+00 5.000000e+00
      vertex   -1.170000e+01 0.000000e+00 5.000000e+00
      vertex   -1.000000e-01 0.000000e+00 5.000000e+00
    endloop
  endfacet
  facet normal 7.980817e-16 -9.868649e-17 1.000000e+00
    outer loop
      vertex   -1.066725e+00 1.182055e+00 5.000000e+00
      vertex   -1.000000e-01 0.000000e+00 5.000000e+00
      vertex   -1.000000e-01 9.000000e+00 5.000000e+00
    endloop
  endfacet
  facet normal 0.000000e+00 -0.000000e+00 1.000000e+00
    outer loop
      vertex   -1.066725e+00 7.832055e+00 5.000000e+00
      vertex   -1.000000e-01 9.000000e+00 5.000000e+00
      vertex   -1.077951e+00 8.089165e+00 5.000000e+00
    endloop
  endfacet
  facet normal -0.000000e+00 0.000000e+00 1.000000e+00
    outer loop
      vertex   -1.066725e+00 7.832055e+00 5.000000e+00
      vertex   -1.066725e+00 1.182055e+00 5.000000e+00
      vertex   -1.000000e-01 9.000000e+00 5.000000e+00
    endloop
  endfacet
  facet normal 1.737927e-31 -7.513848e-16 1.000000e+00
    outer loop
      vertex   -1.066672e+01 1.182055e+00 5.000000e+00
      vertex   -1.000000e-01 0.000000e+00 5.000000e+00
      vertex   -1.066725e+00 1.182055e+00 5.000000e+00
    endloop
  endfacet
  facet normal 0.000000e+00 0.000000e+00 1.000000e+00
    outer loop
      vertex   -1.066672e+01 1.078206e+01 5.000000e+00
      vertex   -4.016725e+00 1.078206e+01 5.000000e+00
      vertex   -3.100000e+00 1.200000e+01 5.000000e+00
    endloop
  endfacet
  facet normal 0.000000e+00 0.000000e+00 1.000000e+00
    outer loop
      vertex   -3.100000e+00 1.200000e+01 5.000000e+00
      vertex   -4.016725e+00 1.078206e+01 5.000000e+00
      vertex   -3.759616e+00 1.077083e+01 5.000000e+00
    endloop
  endfacet
  facet normal -0.000000e+00 0.000000e+00 1.000000e+00
    outer loop
      vertex   -1.244632e+00 8.841015e+00 5.000000e+00
      vertex   -1.167244e+00 8.595571e+00 5.000000e+00
      vertex   -1.000000e-01 9.000000e+00 5.000000e+00
    endloop
  endfacet
  facet normal 0.000000e+00 0.000000e+00 1.000000e+00
    outer loop
      vertex   -1.000000e-01 9.000000e+00 5.000000e+00
      vertex   -1.167244e+00 8.595571e+00 5.000000e+00
      vertex   -1.111542e+00 8.344317e+00 5.000000e+00
    endloop
  endfacet
  facet normal 0.000000e+00 -0.000000e+00 1.000000e+00
    outer loop
      vertex   -1.077951e+00 8.089165e+00 5.000000e+00
      vertex   -1.000000e-01 9.000000e+00 5.000000e+00
      vertex   -1.111542e+00 8.344317e+00 5.000000e+00
    endloop
  endfacet
  facet normal 1.583223e-15 2.545767e-15 -1.000000e+00
    outer loop
      vertex   -2.852262e+00 1.198975e+01 1.192093e-07
      vertex   -4.615787e-01 1.042784e+01 1.192093e-07
      vertex   -3.100000e+00 1.200000e+01 1.192093e-07
    endloop
  endfacet
  facet normal 4.777186e-23 1.224648e-16 -1.000000e+00
    outer loop
      vertex   -2.852262e+00 1.198975e+01 1.192093e-07
      vertex   -2.606216e+00 1.195908e+01 1.192093e-07
      vertex   -4.615787e-01 1.042784e+01 1.192093e-07
    endloop
  endfacet
  facet normal 6.752265e-24 1.224647e-16 -1.000000e+00
    outer loop
      vertex   -4.615787e-01 1.042784e+01 1.192093e-07
      vertex   -2.606216e+00 1.195908e+01 1.192093e-07
      vertex   -2.363544e+00 1.190820e+01 1.192093e-07
    endloop
  endfacet
  facet normal -7.223342e-23 1.224646e-16 -1.000000e+00
    outer loop
      vertex   -2.125902e+00 1.183745e+01 1.192093e-07
      vertex   -4.615787e-01 1.042784e+01 1.192093e-07
      vertex   -2.363544e+00 1.190820e+01 1.192093e-07
    endloop
  endfacet
  facet normal 3.308265e-23 1.224647e-16 -1.000000e+00
    outer loop
      vertex   -2.125902e+00 1.183745e+01 1.192093e-07
      vertex   -1.894914e+00 1.174732e+01 1.192093e-07
      vertex   -4.615787e-01 1.042784e+01 1.192093e-07
    endloop
  endfacet
  facet normal -2.034209e-22 1.224645e-16 -1.000000e+00
    outer loop
      vertex   -4.615787e-01 1.042784e+01 1.192093e-07
      vertex   -1.894914e+00 1.174732e+01 1.192093e-07
      vertex   -1.672158e+00 1.163842e+01 1.192093e-07
    endloop
  endfacet
  facet normal 4.549941e-22 1.224651e-16 -1.000000e+00
    outer loop
      vertex   -1.459156e+00 1.151150e+01 1.192093e-07
      vertex   -4.615787e-01 1.042784e+01 1.192093e-07
      vertex   -1.672158e+00 1.163842e+01 1.192093e-07
    endloop
  endfacet
  facet normal -4.743135e-22 1.224643e-16 -1.000000e+00
    outer loop
      vertex   -1.459156e+00 1.151150e+01 1.192093e-07
      vertex   -1.257362e+00 1.136742e+01 1.192093e-07
      vertex   -4.615787e-01 1.042784e+01 1.192093e-07
    endloop
  endfacet
  facet normal 5.839886e-22 1.224652e-16 -1.000000e+00
    outer loop
      vertex   -4.615787e-01 1.042784e+01 1.192093e-07
      vertex   -1.257362e+00 1.136742e+01 1.192093e-07
      vertex   -1.068155e+00 1.120717e+01 1.192093e-07
    endloop
  endfacet
  facet normal -3.553925e-22 1.224644e-16 -1.000000e+00
    outer loop
      vertex   -8.928283e-01 1.103184e+01 1.192093e-07
      vertex   -4.615787e-01 1.042784e+01 1.192093e-07
      vertex   -1.068155e+00 1.120717e+01 1.192093e-07
    endloop
  endfacet
  facet normal 3.026143e-22 1.224649e-16 -1.000000e+00
    outer loop
      vertex   -8.928283e-01 1.103184e+01 1.192093e-07
      vertex   -7.325785e-01 1.084264e+01 1.192093e-07
      vertex   -4.615787e-01 1.042784e+01 1.192093e-07
    endloop
  endfacet
  facet normal -7.494191e-22 1.224642e-16 -1.000000e+00
    outer loop
      vertex   -4.615787e-01 1.042784e+01 1.192093e-07
      vertex   -7.325785e-01 1.084264e+01 1.192093e-07
      vertex   -5.885006e-01 1.064084e+01 1.192093e-07
    endloop
  endfacet
  facet normal 1.426546e-16 1.281822e-16 -1.000000e+00
    outer loop
      vertex   -3.100000e+00 1.200000e+01 1.192093e-07
      vertex   -4.615787e-01 1.042784e+01 1.192093e-07
      vertex   -1.000000e-01 0.000000e+00 1.192093e-07
    endloop
  endfacet
  facet normal 0.000000e+00 9.251859e-17 -1.000000e+00
    outer loop
      vertex   -1.170000e+01 0.000000e+00 1.192093e-07
      vertex   -3.100000e+00 1.200000e+01 1.192093e-07
      vertex   -1.000000e-01 0.000000e+00 1.192093e-07
    endloop
  endfacet
  facet normal 0.000000e+00 9.251859e-17 -1.000000e+00
    outer loop
      vertex   -1.170000e+01 0.000000e+00 1.192093e-07
      vertex   -1.170000e+01 1.200000e+01 1.192093e-07
      vertex   -3.100000e+00 1.200000e+01 1.192093e-07
    endloop
  endfacet
  facet normal 1.697486e-18 1.232946e-16 -1.000000e+00
    outer loop
      vertex   -4.615787e-01 1.042784e+01 1.192093e-07
      vertex   -3.526800e-01 1.020509e+01 1.192093e-07
      vertex   -1.000000e-01 0.000000e+00 1.192093e-07
    endloop
  endfacet
  facet normal 2.156403e-18 1.233060e-16 -1.000000e+00
    outer loop
      vertex   -1.000000e-01 0.000000e+00 1.192093e-07
      vertex   -3.526800e-01 1.020509e+01 1.192093e-07
      vertex   -2.625483e-01 9.974098e+00 1.192093e-07
    endloop
  endfacet
  facet normal 2.864573e-18 1.233175e-16 -1.000000e+00
    outer loop
      vertex   -1.917992e-01 9.736456e+00 1.192093e-07
      vertex   -1.000000e-01 0.000000e+00 1.192093e-07
      vertex   -2.625483e-01 9.974098e+00 1.192093e-07
    endloop
  endfacet
  facet normal 4.124553e-18 1.233294e-16 -1.000000e+00
    outer loop
      vertex   -1.917992e-01 9.736456e+00 1.192093e-07
      vertex   -1.409161e-01 9.493784e+00 1.192093e-07
      vertex   -1.000000e-01 0.000000e+00 1.192093e-07
    endloop
  endfacet
  facet normal 7.038516e-18 1.233420e-16 -1.000000e+00
    outer loop
      vertex   -1.000000e-01 0.000000e+00 1.192093e-07
      vertex   -1.409161e-01 9.493784e+00 1.192093e-07
      vertex   -1.102465e-01 9.247738e+00 1.192093e-07
    endloop
  endfacet
  facet normal 2.159874e-17 1.233581e-16 -1.000000e+00
    outer loop
      vertex   -1.000000e-01 9.000000e+00 1.192093e-07
      vertex   -1.000000e-01 0.000000e+00 1.192093e-07
      vertex   -1.102465e-01 9.247738e+00 1.192093e-07
    endloop
  endfacet
  facet normal 0.000000e+00 1.000000e+00 0.000000e+00
    outer loop
      vertex   -3.100000e+00 1.200000e+01 5.000000e+00
      vertex   -3.100000e+00 1.200000e+01 1.192093e-07
      vertex   -1.170000e+01 1.200000e+01 5.000000e+00
    endloop
  endfacet
  facet normal 0.000000e+00 1.000000e+00 0.000000e+00
    outer loop
      vertex   -1.170000e+01 1.200000e+01 5.000000e+00
      vertex   -3.100000e+00 1.200000e+01 1.192093e-07
      vertex   -1.170000e+01 1.200000e+01 1.192093e-07
    endloop
  endfacet
  facet normal -1.000000e+00 0.000000e+00 0.000000e+00
    outer loop
      vertex   -1.170000e+01 0.000000e+00 1.192093e-07
      vertex   -1.170000e+01 0.000000e+00 5.000000e+00
      vertex   -1.170000e+01 1.200000e+01 1.192093e-07
    endloop
  endfacet
  facet normal -1.000000e+00 0.000000e+00 0.000000e+00
    outer loop
      vertex   -1.170000e+01 1.200000e+01 1.192093e-07
      vertex   -1.170000e+01 0.000000e+00 5.000000e+00
      vertex   -1.170000e+01 1.200000e+01 5.000000e+00
    endloop
  endfacet
  facet normal -0.000000e+00 -1.000000e+00 0.000000e+00
    outer loop
      vertex   -1.000000e-01 0.000000e+00 1.192093e-07
      vertex   -1.000000e-01 0.000000e+00 5.000000e+00
      vertex   -1.170000e+01 0.000000e+00 1.192093e-07
    endloop
  endfacet
  facet normal 0.000000e+00 -1.000000e+00 0.000000e+00
    outer loop
      vertex   -1.170000e+01 0.000000e+00 1.192093e-07
      vertex   -1.000000e-01 0.000000e+00 5.000000e+00
      vertex   -1.170000e+01 0.000000e+00 5.000000e+00
    endloop
  endfacet
endsolid
