solid OpenSCAD_Model
  facet normal 1 -0 0
    outer loop
      vertex 115 0 32
      vertex 115 2 20
      vertex 115 2 32
    endloop
  endfacet
  facet normal 1 0 0
    outer loop
      vertex 115 2 20
      vertex 115 0 32
      vertex 115 0 20
    endloop
  endfacet
  facet normal 1 0 0
    outer loop
      vertex 115 2 32
      vertex 115 54.5 52
      vertex 115 2 52
    endloop
  endfacet
  facet normal 1 0 0
    outer loop
      vertex 115 54.5 52
      vertex 115 2 32
      vertex 115 54.5 0
    endloop
  endfacet
  facet normal 1 -0 0
    outer loop
      vertex 115 2 20
      vertex 115 54.5 0
      vertex 115 2 32
    endloop
  endfacet
  facet normal 1 0 0
    outer loop
      vertex 115 54.5 0
      vertex 115 2 20
      vertex 115 2 0
    endloop
  endfacet
  facet normal -0 0 1
    outer loop
      vertex 115 2 20
      vertex 125 0 20
      vertex 125 2 20
    endloop
  endfacet
  facet normal 0 0 1
    outer loop
      vertex 125 0 20
      vertex 115 2 20
      vertex 115 0 20
    endloop
  endfacet
  facet normal 1 -0 0
    outer loop
      vertex 125 0 20
      vertex 125 2 0
      vertex 125 2 20
    endloop
  endfacet
  facet normal 1 0 0
    outer loop
      vertex 125 2 0
      vertex 125 0 20
      vertex 125 0 0
    endloop
  endfacet
  facet normal 0 1 0
    outer loop
      vertex 125 2 20
      vertex 120 2 12.75
      vertex 115 2 20
    endloop
  endfacet
  facet normal 0 1 0
    outer loop
      vertex 125 2 20
      vertex 120.85 2 12.6154
      vertex 120 2 12.75
    endloop
  endfacet
  facet normal 0 1 0
    outer loop
      vertex 125 2 20
      vertex 121.616 2 12.2248
      vertex 120.85 2 12.6154
    endloop
  endfacet
  facet normal 0 1 0
    outer loop
      vertex 125 2 20
      vertex 122.225 2 11.6164
      vertex 121.616 2 12.2248
    endloop
  endfacet
  facet normal 0 1 0
    outer loop
      vertex 125 2 20
      vertex 122.615 2 10.8498
      vertex 122.225 2 11.6164
    endloop
  endfacet
  facet normal 0 1 0
    outer loop
      vertex 125 2 20
      vertex 122.75 2 10
      vertex 122.615 2 10.8498
    endloop
  endfacet
  facet normal 0 1 -0
    outer loop
      vertex 125 2 0
      vertex 122.75 2 10
      vertex 125 2 20
    endloop
  endfacet
  facet normal 0 1 0
    outer loop
      vertex 120.85 2 7.38459
      vertex 125 2 0
      vertex 120 2 7.25
    endloop
  endfacet
  facet normal 0 1 0
    outer loop
      vertex 121.616 2 7.7752
      vertex 125 2 0
      vertex 120.85 2 7.38459
    endloop
  endfacet
  facet normal 0 1 0
    outer loop
      vertex 122.225 2 8.38359
      vertex 125 2 0
      vertex 121.616 2 7.7752
    endloop
  endfacet
  facet normal 0 1 0
    outer loop
      vertex 122.615 2 9.1502
      vertex 125 2 0
      vertex 122.225 2 8.38359
    endloop
  endfacet
  facet normal 0 1 0
    outer loop
      vertex 122.75 2 10
      vertex 125 2 0
      vertex 122.615 2 9.1502
    endloop
  endfacet
  facet normal 0 1 -0
    outer loop
      vertex 119.15 2 12.6154
      vertex 115 2 20
      vertex 120 2 12.75
    endloop
  endfacet
  facet normal 0 1 -0
    outer loop
      vertex 118.384 2 12.2248
      vertex 115 2 20
      vertex 119.15 2 12.6154
    endloop
  endfacet
  facet normal 0 1 -0
    outer loop
      vertex 117.775 2 11.6164
      vertex 115 2 20
      vertex 118.384 2 12.2248
    endloop
  endfacet
  facet normal 0 1 -0
    outer loop
      vertex 117.385 2 10.8498
      vertex 115 2 20
      vertex 117.775 2 11.6164
    endloop
  endfacet
  facet normal 0 1 -0
    outer loop
      vertex 117.25 2 10
      vertex 115 2 20
      vertex 117.385 2 10.8498
    endloop
  endfacet
  facet normal 0 1 0
    outer loop
      vertex 115 2 0
      vertex 117.25 2 10
      vertex 117.385 2 9.1502
    endloop
  endfacet
  facet normal 0 1 0
    outer loop
      vertex 115 2 0
      vertex 120 2 7.25
      vertex 125 2 0
    endloop
  endfacet
  facet normal 0 1 0
    outer loop
      vertex 120 2 7.25
      vertex 115 2 0
      vertex 119.15 2 7.38459
    endloop
  endfacet
  facet normal 0 1 0
    outer loop
      vertex 119.15 2 7.38459
      vertex 115 2 0
      vertex 118.384 2 7.7752
    endloop
  endfacet
  facet normal 0 1 0
    outer loop
      vertex 117.25 2 10
      vertex 115 2 0
      vertex 115 2 20
    endloop
  endfacet
  facet normal 0 1 0
    outer loop
      vertex 117.775 2 8.38359
      vertex 115 2 0
      vertex 117.385 2 9.1502
    endloop
  endfacet
  facet normal 0 1 0
    outer loop
      vertex 118.384 2 7.7752
      vertex 115 2 0
      vertex 117.775 2 8.38359
    endloop
  endfacet
  facet normal 0 0 -1
    outer loop
      vertex 125 0 0
      vertex 115 2 0
      vertex 125 2 0
    endloop
  endfacet
  facet normal 0 0 -1
    outer loop
      vertex 113 52.5 0
      vertex 115 2 0
      vertex 113 2 0
    endloop
  endfacet
  facet normal 0 0 -1
    outer loop
      vertex 125 0 0
      vertex 113 2 0
      vertex 115 2 0
    endloop
  endfacet
  facet normal 0 0 -1
    outer loop
      vertex 0 0 0
      vertex 113 2 0
      vertex 125 0 0
    endloop
  endfacet
  facet normal -0 0 -1
    outer loop
      vertex 2 2 0
      vertex 0 0 0
      vertex 2 52.5 0
    endloop
  endfacet
  facet normal -0 0 -1
    outer loop
      vertex 113 2 0
      vertex 0 0 0
      vertex 2 2 0
    endloop
  endfacet
  facet normal 0 0 -1
    outer loop
      vertex 115 2 0
      vertex 113 52.5 0
      vertex 115 54.5 0
    endloop
  endfacet
  facet normal 0 0 -1
    outer loop
      vertex 2 52.5 0
      vertex 115 54.5 0
      vertex 113 52.5 0
    endloop
  endfacet
  facet normal 0 0 -1
    outer loop
      vertex 2 52.5 0
      vertex 0 54.5 0
      vertex 115 54.5 0
    endloop
  endfacet
  facet normal 0 0 -1
    outer loop
      vertex 0 54.5 0
      vertex 2 52.5 0
      vertex 0 0 0
    endloop
  endfacet
  facet normal 0 -1 0
    outer loop
      vertex 118.384 0 44.2248
      vertex 125 0 52
      vertex 0 0 52
    endloop
  endfacet
  facet normal 0 -1 0
    outer loop
      vertex 125 0 52
      vertex 119.15 0 44.6154
      vertex 120 0 44.75
    endloop
  endfacet
  facet normal 0 -1 0
    outer loop
      vertex 125 0 52
      vertex 118.384 0 44.2248
      vertex 119.15 0 44.6154
    endloop
  endfacet
  facet normal 0 -1 0
    outer loop
      vertex 0 0 52
      vertex 117.775 0 43.6164
      vertex 118.384 0 44.2248
    endloop
  endfacet
  facet normal 0 -1 0
    outer loop
      vertex 0 0 52
      vertex 117.385 0 42.8498
      vertex 117.775 0 43.6164
    endloop
  endfacet
  facet normal 0 -1 0
    outer loop
      vertex 0 0 52
      vertex 117.25 0 42
      vertex 117.385 0 42.8498
    endloop
  endfacet
  facet normal 0 -1 0
    outer loop
      vertex 115 0 32
      vertex 117.25 0 42
      vertex 0 0 52
    endloop
  endfacet
  facet normal 0 -1 -0
    outer loop
      vertex 117.25 0 42
      vertex 115 0 32
      vertex 117.385 0 41.1502
    endloop
  endfacet
  facet normal 0 -1 -0
    outer loop
      vertex 117.385 0 41.1502
      vertex 115 0 32
      vertex 117.775 0 40.3836
    endloop
  endfacet
  facet normal 0 -1 -0
    outer loop
      vertex 117.775 0 40.3836
      vertex 115 0 32
      vertex 118.384 0 39.7752
    endloop
  endfacet
  facet normal 0 -1 -0
    outer loop
      vertex 118.384 0 39.7752
      vertex 115 0 32
      vertex 119.15 0 39.3846
    endloop
  endfacet
  facet normal 0 -1 -0
    outer loop
      vertex 119.15 0 39.3846
      vertex 115 0 32
      vertex 120 0 39.25
    endloop
  endfacet
  facet normal 0 -1 0
    outer loop
      vertex 0 0 52
      vertex 115 0 20
      vertex 115 0 32
    endloop
  endfacet
  facet normal 0 -1 0
    outer loop
      vertex 115 0 20
      vertex 120 0 12.75
      vertex 125 0 20
    endloop
  endfacet
  facet normal 0 -1 0
    outer loop
      vertex 0 0 0
      vertex 115 0 20
      vertex 0 0 52
    endloop
  endfacet
  facet normal 0 -1 0
    outer loop
      vertex 115 0 20
      vertex 119.15 0 12.6154
      vertex 120 0 12.75
    endloop
  endfacet
  facet normal 0 -1 0
    outer loop
      vertex 115 0 20
      vertex 118.384 0 12.2248
      vertex 119.15 0 12.6154
    endloop
  endfacet
  facet normal 0 -1 0
    outer loop
      vertex 115 0 20
      vertex 117.775 0 11.6164
      vertex 118.384 0 12.2248
    endloop
  endfacet
  facet normal 0 -1 0
    outer loop
      vertex 115 0 20
      vertex 117.385 0 10.8498
      vertex 117.775 0 11.6164
    endloop
  endfacet
  facet normal -0 -1 0
    outer loop
      vertex 117.25 0 10
      vertex 115 0 20
      vertex 0 0 0
    endloop
  endfacet
  facet normal 0 -1 0
    outer loop
      vertex 115 0 20
      vertex 117.25 0 10
      vertex 117.385 0 10.8498
    endloop
  endfacet
  facet normal 0 -1 -0
    outer loop
      vertex 117.25 0 10
      vertex 0 0 0
      vertex 117.385 0 9.1502
    endloop
  endfacet
  facet normal 0 -1 -0
    outer loop
      vertex 117.385 0 9.1502
      vertex 0 0 0
      vertex 117.775 0 8.38359
    endloop
  endfacet
  facet normal 0 -1 -0
    outer loop
      vertex 117.775 0 8.38359
      vertex 0 0 0
      vertex 118.384 0 7.7752
    endloop
  endfacet
  facet normal 0 -1 0
    outer loop
      vertex 118.384 0 7.7752
      vertex 125 0 0
      vertex 119.15 0 7.38459
    endloop
  endfacet
  facet normal 0 -1 0
    outer loop
      vertex 125 0 0
      vertex 118.384 0 7.7752
      vertex 0 0 0
    endloop
  endfacet
  facet normal 0 -1 0
    outer loop
      vertex 120.85 0 44.6154
      vertex 125 0 52
      vertex 120 0 44.75
    endloop
  endfacet
  facet normal 0 -1 0
    outer loop
      vertex 121.616 0 44.2248
      vertex 125 0 52
      vertex 120.85 0 44.6154
    endloop
  endfacet
  facet normal 0 -1 0
    outer loop
      vertex 122.225 0 43.6164
      vertex 125 0 52
      vertex 121.616 0 44.2248
    endloop
  endfacet
  facet normal 0 -1 0
    outer loop
      vertex 122.615 0 42.8498
      vertex 125 0 52
      vertex 122.225 0 43.6164
    endloop
  endfacet
  facet normal 0 -1 0
    outer loop
      vertex 122.75 0 42
      vertex 125 0 52
      vertex 122.615 0 42.8498
    endloop
  endfacet
  facet normal 0 -1 0
    outer loop
      vertex 125 0 32
      vertex 122.75 0 42
      vertex 122.615 0 41.1502
    endloop
  endfacet
  facet normal 0 -1 0
    outer loop
      vertex 125 0 32
      vertex 120 0 39.25
      vertex 115 0 32
    endloop
  endfacet
  facet normal 0 -1 0
    outer loop
      vertex 120 0 39.25
      vertex 125 0 32
      vertex 120.85 0 39.3846
    endloop
  endfacet
  facet normal 0 -1 0
    outer loop
      vertex 120.85 0 39.3846
      vertex 125 0 32
      vertex 121.616 0 39.7752
    endloop
  endfacet
  facet normal 0 -1 0
    outer loop
      vertex 122.75 0 42
      vertex 125 0 32
      vertex 125 0 52
    endloop
  endfacet
  facet normal 0 -1 0
    outer loop
      vertex 122.225 0 40.3836
      vertex 125 0 32
      vertex 122.615 0 41.1502
    endloop
  endfacet
  facet normal 0 -1 0
    outer loop
      vertex 121.616 0 39.7752
      vertex 125 0 32
      vertex 122.225 0 40.3836
    endloop
  endfacet
  facet normal 0 -1 0
    outer loop
      vertex 120.85 0 12.6154
      vertex 125 0 20
      vertex 120 0 12.75
    endloop
  endfacet
  facet normal 0 -1 0
    outer loop
      vertex 121.616 0 12.2248
      vertex 125 0 20
      vertex 120.85 0 12.6154
    endloop
  endfacet
  facet normal 0 -1 0
    outer loop
      vertex 122.225 0 11.6164
      vertex 125 0 20
      vertex 121.616 0 12.2248
    endloop
  endfacet
  facet normal 0 -1 0
    outer loop
      vertex 122.615 0 10.8498
      vertex 125 0 20
      vertex 122.225 0 11.6164
    endloop
  endfacet
  facet normal 0 -1 0
    outer loop
      vertex 122.75 0 10
      vertex 125 0 20
      vertex 122.615 0 10.8498
    endloop
  endfacet
  facet normal 0 -1 0
    outer loop
      vertex 125 0 0
      vertex 122.75 0 10
      vertex 122.615 0 9.1502
    endloop
  endfacet
  facet normal 0 -1 0
    outer loop
      vertex 122.75 0 10
      vertex 125 0 0
      vertex 125 0 20
    endloop
  endfacet
  facet normal 0 -1 0
    outer loop
      vertex 122.225 0 8.38359
      vertex 125 0 0
      vertex 122.615 0 9.1502
    endloop
  endfacet
  facet normal 0 -1 0
    outer loop
      vertex 121.616 0 7.7752
      vertex 125 0 0
      vertex 122.225 0 8.38359
    endloop
  endfacet
  facet normal 0 -1 0
    outer loop
      vertex 120.85 0 7.38459
      vertex 125 0 0
      vertex 121.616 0 7.7752
    endloop
  endfacet
  facet normal 0 -1 0
    outer loop
      vertex 120 0 7.25
      vertex 125 0 0
      vertex 120.85 0 7.38459
    endloop
  endfacet
  facet normal 0 -1 0
    outer loop
      vertex 119.15 0 7.38459
      vertex 125 0 0
      vertex 120 0 7.25
    endloop
  endfacet
  facet normal -0.987616 0 0.156893
    outer loop
      vertex 122.615 0 9.1502
      vertex 122.75 2 10
      vertex 122.615 2 9.1502
    endloop
  endfacet
  facet normal -0.987616 0 0.156893
    outer loop
      vertex 122.75 2 10
      vertex 122.615 0 9.1502
      vertex 122.75 0 10
    endloop
  endfacet
  facet normal 0.89129 0 -0.453435
    outer loop
      vertex 117.775 0 11.6164
      vertex 117.385 2 10.8498
      vertex 117.775 2 11.6164
    endloop
  endfacet
  facet normal 0.89129 0 -0.453435
    outer loop
      vertex 117.385 2 10.8498
      vertex 117.775 0 11.6164
      vertex 117.385 0 10.8498
    endloop
  endfacet
  facet normal 0.987616 -0 0.156893
    outer loop
      vertex 117.25 0 10
      vertex 117.385 2 9.1502
      vertex 117.25 2 10
    endloop
  endfacet
  facet normal 0.987616 0 0.156893
    outer loop
      vertex 117.385 2 9.1502
      vertex 117.25 0 10
      vertex 117.385 0 9.1502
    endloop
  endfacet
  facet normal -0.706752 0 0.707461
    outer loop
      vertex 121.616 0 7.7752
      vertex 122.225 2 8.38359
      vertex 121.616 2 7.7752
    endloop
  endfacet
  facet normal -0.706752 0 0.707461
    outer loop
      vertex 122.225 2 8.38359
      vertex 121.616 0 7.7752
      vertex 122.225 0 8.38359
    endloop
  endfacet
  facet normal -0.891292 0 0.45343
    outer loop
      vertex 122.225 0 8.38359
      vertex 122.615 2 9.1502
      vertex 122.225 2 8.38359
    endloop
  endfacet
  facet normal -0.891292 0 0.45343
    outer loop
      vertex 122.615 2 9.1502
      vertex 122.225 0 8.38359
      vertex 122.615 0 9.1502
    endloop
  endfacet
  facet normal -0.156393 0 0.987695
    outer loop
      vertex 120 2 7.25
      vertex 120.85 0 7.38459
      vertex 120.85 2 7.38459
    endloop
  endfacet
  facet normal -0.156393 0 0.987695
    outer loop
      vertex 120.85 0 7.38459
      vertex 120 2 7.25
      vertex 120 0 7.25
    endloop
  endfacet
  facet normal 0.45428 0 0.890859
    outer loop
      vertex 118.384 2 7.7752
      vertex 119.15 0 7.38459
      vertex 119.15 2 7.38459
    endloop
  endfacet
  facet normal 0.45428 0 0.890859
    outer loop
      vertex 119.15 0 7.38459
      vertex 118.384 2 7.7752
      vertex 118.384 0 7.7752
    endloop
  endfacet
  facet normal 0.706752 0 0.707461
    outer loop
      vertex 117.775 2 8.38359
      vertex 118.384 0 7.7752
      vertex 118.384 2 7.7752
    endloop
  endfacet
  facet normal 0.706752 0 0.707461
    outer loop
      vertex 118.384 0 7.7752
      vertex 117.775 2 8.38359
      vertex 117.775 0 8.38359
    endloop
  endfacet
  facet normal 0.156393 0 0.987695
    outer loop
      vertex 119.15 2 7.38459
      vertex 120 0 7.25
      vertex 120 2 7.25
    endloop
  endfacet
  facet normal 0.156393 0 0.987695
    outer loop
      vertex 120 0 7.25
      vertex 119.15 2 7.38459
      vertex 119.15 0 7.38459
    endloop
  endfacet
  facet normal -0.45428 0 0.890859
    outer loop
      vertex 120.85 2 7.38459
      vertex 121.616 0 7.7752
      vertex 121.616 2 7.7752
    endloop
  endfacet
  facet normal -0.45428 0 0.890859
    outer loop
      vertex 121.616 0 7.7752
      vertex 120.85 2 7.38459
      vertex 120.85 0 7.38459
    endloop
  endfacet
  facet normal 0.987616 0 -0.156893
    outer loop
      vertex 117.385 0 10.8498
      vertex 117.25 2 10
      vertex 117.385 2 10.8498
    endloop
  endfacet
  facet normal 0.987616 0 -0.156893
    outer loop
      vertex 117.25 2 10
      vertex 117.385 0 10.8498
      vertex 117.25 0 10
    endloop
  endfacet
  facet normal 0.891292 -0 0.45343
    outer loop
      vertex 117.385 0 9.1502
      vertex 117.775 2 8.38359
      vertex 117.385 2 9.1502
    endloop
  endfacet
  facet normal 0.891292 0 0.45343
    outer loop
      vertex 117.775 2 8.38359
      vertex 117.385 0 9.1502
      vertex 117.775 0 8.38359
    endloop
  endfacet
  facet normal -0.89129 0 -0.453435
    outer loop
      vertex 122.615 0 10.8498
      vertex 122.225 2 11.6164
      vertex 122.615 2 10.8498
    endloop
  endfacet
  facet normal -0.89129 -0 -0.453435
    outer loop
      vertex 122.225 2 11.6164
      vertex 122.615 0 10.8498
      vertex 122.225 0 11.6164
    endloop
  endfacet
  facet normal 0.706758 0 -0.707455
    outer loop
      vertex 117.775 0 11.6164
      vertex 118.384 2 12.2248
      vertex 118.384 0 12.2248
    endloop
  endfacet
  facet normal 0.706758 0 -0.707455
    outer loop
      vertex 118.384 2 12.2248
      vertex 117.775 0 11.6164
      vertex 117.775 2 11.6164
    endloop
  endfacet
  facet normal -0.454271 0 -0.890864
    outer loop
      vertex 120.85 0 12.6154
      vertex 121.616 2 12.2248
      vertex 121.616 0 12.2248
    endloop
  endfacet
  facet normal -0.454271 0 -0.890864
    outer loop
      vertex 121.616 2 12.2248
      vertex 120.85 0 12.6154
      vertex 120.85 2 12.6154
    endloop
  endfacet
  facet normal -0.706758 0 -0.707455
    outer loop
      vertex 122.225 0 11.6164
      vertex 121.616 2 12.2248
      vertex 122.225 2 11.6164
    endloop
  endfacet
  facet normal -0.706758 -0 -0.707455
    outer loop
      vertex 121.616 2 12.2248
      vertex 122.225 0 11.6164
      vertex 121.616 0 12.2248
    endloop
  endfacet
  facet normal -0.987616 0 -0.156893
    outer loop
      vertex 122.75 0 10
      vertex 122.615 2 10.8498
      vertex 122.75 2 10
    endloop
  endfacet
  facet normal -0.987616 -0 -0.156893
    outer loop
      vertex 122.615 2 10.8498
      vertex 122.75 0 10
      vertex 122.615 0 10.8498
    endloop
  endfacet
  facet normal -0.156404 0 -0.987693
    outer loop
      vertex 120 0 12.75
      vertex 120.85 2 12.6154
      vertex 120.85 0 12.6154
    endloop
  endfacet
  facet normal -0.156404 0 -0.987693
    outer loop
      vertex 120.85 2 12.6154
      vertex 120 0 12.75
      vertex 120 2 12.75
    endloop
  endfacet
  facet normal 0.156404 0 -0.987693
    outer loop
      vertex 119.15 0 12.6154
      vertex 120 2 12.75
      vertex 120 0 12.75
    endloop
  endfacet
  facet normal 0.156404 0 -0.987693
    outer loop
      vertex 120 2 12.75
      vertex 119.15 0 12.6154
      vertex 119.15 2 12.6154
    endloop
  endfacet
  facet normal 0.454271 0 -0.890864
    outer loop
      vertex 118.384 0 12.2248
      vertex 119.15 2 12.6154
      vertex 119.15 0 12.6154
    endloop
  endfacet
  facet normal 0.454271 0 -0.890864
    outer loop
      vertex 119.15 2 12.6154
      vertex 118.384 0 12.2248
      vertex 118.384 2 12.2248
    endloop
  endfacet
  facet normal 0 0 1
    outer loop
      vertex 115 54.5 52
      vertex 90.6 24.35 52
      vertex 115 2 52
    endloop
  endfacet
  facet normal 0 0 1
    outer loop
      vertex 115 54.5 52
      vertex 81 24.35 52
      vertex 90.6 24.35 52
    endloop
  endfacet
  facet normal 0 0 1
    outer loop
      vertex 81 24.35 52
      vertex 61 17.25 52
      vertex 81 10.15 52
    endloop
  endfacet
  facet normal 0 0 1
    outer loop
      vertex 56.0749 22.7199 52
      vertex 81 24.35 52
      vertex 115 54.5 52
    endloop
  endfacet
  facet normal 0 0 1
    outer loop
      vertex 81 24.35 52
      vertex 60.8798 18.3935 52
      vertex 61 17.25 52
    endloop
  endfacet
  facet normal 0 0 1
    outer loop
      vertex 81 24.35 52
      vertex 60.5245 19.4871 52
      vertex 60.8798 18.3935 52
    endloop
  endfacet
  facet normal 0 0 1
    outer loop
      vertex 81 24.35 52
      vertex 59.9496 20.4828 52
      vertex 60.5245 19.4871 52
    endloop
  endfacet
  facet normal 0 0 1
    outer loop
      vertex 81 24.35 52
      vertex 59.1802 21.3373 52
      vertex 59.9496 20.4828 52
    endloop
  endfacet
  facet normal 0 0 1
    outer loop
      vertex 81 24.35 52
      vertex 58.25 22.0131 52
      vertex 59.1802 21.3373 52
    endloop
  endfacet
  facet normal 0 0 1
    outer loop
      vertex 81 24.35 52
      vertex 57.1996 22.4808 52
      vertex 58.25 22.0131 52
    endloop
  endfacet
  facet normal 0 0 1
    outer loop
      vertex 81 24.35 52
      vertex 56.0749 22.7199 52
      vertex 57.1996 22.4808 52
    endloop
  endfacet
  facet normal -0 0 1
    outer loop
      vertex 0 54.5 52
      vertex 56.0749 22.7199 52
      vertex 115 54.5 52
    endloop
  endfacet
  facet normal 0 0 1
    outer loop
      vertex 56.0749 22.7199 52
      vertex 0 54.5 52
      vertex 54.9251 22.7199 52
    endloop
  endfacet
  facet normal 0 0 1
    outer loop
      vertex 54.9251 22.7199 52
      vertex 0 54.5 52
      vertex 53.8004 22.4808 52
    endloop
  endfacet
  facet normal 0 0 1
    outer loop
      vertex 0 0 52
      vertex 50.1202 18.3935 52
      vertex 0 54.5 52
    endloop
  endfacet
  facet normal 0 0 1
    outer loop
      vertex 50.4755 19.4871 52
      vertex 0 54.5 52
      vertex 50.1202 18.3935 52
    endloop
  endfacet
  facet normal 0 0 1
    outer loop
      vertex 51.0504 20.4828 52
      vertex 0 54.5 52
      vertex 50.4755 19.4871 52
    endloop
  endfacet
  facet normal 0 0 1
    outer loop
      vertex 51.8198 21.3373 52
      vertex 0 54.5 52
      vertex 51.0504 20.4828 52
    endloop
  endfacet
  facet normal 0 0 1
    outer loop
      vertex 52.75 22.0131 52
      vertex 0 54.5 52
      vertex 51.8198 21.3373 52
    endloop
  endfacet
  facet normal 0 0 1
    outer loop
      vertex 53.8004 22.4808 52
      vertex 0 54.5 52
      vertex 52.75 22.0131 52
    endloop
  endfacet
  facet normal -0 0 1
    outer loop
      vertex 115 2 52
      vertex 125 0 52
      vertex 125 2 52
    endloop
  endfacet
  facet normal -0 0 1
    outer loop
      vertex 90.6 10.15 52
      vertex 115 2 52
      vertex 90.6 24.35 52
    endloop
  endfacet
  facet normal -0 0 1
    outer loop
      vertex 81 10.15 52
      vertex 115 2 52
      vertex 90.6 10.15 52
    endloop
  endfacet
  facet normal -0 0 1
    outer loop
      vertex 60.8798 16.1065 52
      vertex 81 10.15 52
      vertex 61 17.25 52
    endloop
  endfacet
  facet normal -0 0 1
    outer loop
      vertex 60.5245 15.0129 52
      vertex 81 10.15 52
      vertex 60.8798 16.1065 52
    endloop
  endfacet
  facet normal -0 0 1
    outer loop
      vertex 59.9496 14.0172 52
      vertex 81 10.15 52
      vertex 60.5245 15.0129 52
    endloop
  endfacet
  facet normal -0 0 1
    outer loop
      vertex 59.1802 13.1627 52
      vertex 81 10.15 52
      vertex 59.9496 14.0172 52
    endloop
  endfacet
  facet normal -0 0 1
    outer loop
      vertex 58.25 12.4869 52
      vertex 81 10.15 52
      vertex 59.1802 13.1627 52
    endloop
  endfacet
  facet normal -0 0 1
    outer loop
      vertex 57.1996 12.0192 52
      vertex 81 10.15 52
      vertex 58.25 12.4869 52
    endloop
  endfacet
  facet normal -0 0 1
    outer loop
      vertex 56.0749 11.7801 52
      vertex 81 10.15 52
      vertex 57.1996 12.0192 52
    endloop
  endfacet
  facet normal 0 0 1
    outer loop
      vertex 0 0 52
      vertex 81 10.15 52
      vertex 56.0749 11.7801 52
    endloop
  endfacet
  facet normal 0 0 1
    outer loop
      vertex 81 10.15 52
      vertex 0 0 52
      vertex 115 2 52
    endloop
  endfacet
  facet normal 0 0 1
    outer loop
      vertex 0 0 52
      vertex 56.0749 11.7801 52
      vertex 54.9251 11.7801 52
    endloop
  endfacet
  facet normal 0 0 1
    outer loop
      vertex 50.1202 18.3935 52
      vertex 0 0 52
      vertex 50 17.25 52
    endloop
  endfacet
  facet normal 0 0 1
    outer loop
      vertex 50 17.25 52
      vertex 0 0 52
      vertex 50.1202 16.1065 52
    endloop
  endfacet
  facet normal 0 0 1
    outer loop
      vertex 50.1202 16.1065 52
      vertex 0 0 52
      vertex 50.4755 15.0129 52
    endloop
  endfacet
  facet normal 0 0 1
    outer loop
      vertex 50.4755 15.0129 52
      vertex 0 0 52
      vertex 51.0504 14.0172 52
    endloop
  endfacet
  facet normal 0 0 1
    outer loop
      vertex 115 2 52
      vertex 0 0 52
      vertex 125 0 52
    endloop
  endfacet
  facet normal 0 0 1
    outer loop
      vertex 53.8004 12.0192 52
      vertex 0 0 52
      vertex 54.9251 11.7801 52
    endloop
  endfacet
  facet normal 0 0 1
    outer loop
      vertex 52.75 12.4869 52
      vertex 0 0 52
      vertex 53.8004 12.0192 52
    endloop
  endfacet
  facet normal 0 0 1
    outer loop
      vertex 51.8198 13.1627 52
      vertex 0 0 52
      vertex 52.75 12.4869 52
    endloop
  endfacet
  facet normal 0 0 1
    outer loop
      vertex 51.0504 14.0172 52
      vertex 0 0 52
      vertex 51.8198 13.1627 52
    endloop
  endfacet
  facet normal 1 -0 0
    outer loop
      vertex 125 0 52
      vertex 125 2 32
      vertex 125 2 52
    endloop
  endfacet
  facet normal 1 0 0
    outer loop
      vertex 125 2 32
      vertex 125 0 52
      vertex 125 0 32
    endloop
  endfacet
  facet normal 0 1 0
    outer loop
      vertex 125 2 52
      vertex 120 2 44.75
      vertex 115 2 52
    endloop
  endfacet
  facet normal 0 1 0
    outer loop
      vertex 125 2 52
      vertex 120.85 2 44.6154
      vertex 120 2 44.75
    endloop
  endfacet
  facet normal 0 1 0
    outer loop
      vertex 125 2 52
      vertex 121.616 2 44.2248
      vertex 120.85 2 44.6154
    endloop
  endfacet
  facet normal 0 1 0
    outer loop
      vertex 125 2 52
      vertex 122.225 2 43.6164
      vertex 121.616 2 44.2248
    endloop
  endfacet
  facet normal 0 1 0
    outer loop
      vertex 125 2 52
      vertex 122.615 2 42.8498
      vertex 122.225 2 43.6164
    endloop
  endfacet
  facet normal 0 1 0
    outer loop
      vertex 125 2 52
      vertex 122.75 2 42
      vertex 122.615 2 42.8498
    endloop
  endfacet
  facet normal 0 1 -0
    outer loop
      vertex 125 2 32
      vertex 122.75 2 42
      vertex 125 2 52
    endloop
  endfacet
  facet normal 0 1 0
    outer loop
      vertex 120.85 2 39.3846
      vertex 125 2 32
      vertex 120 2 39.25
    endloop
  endfacet
  facet normal 0 1 0
    outer loop
      vertex 121.616 2 39.7752
      vertex 125 2 32
      vertex 120.85 2 39.3846
    endloop
  endfacet
  facet normal 0 1 0
    outer loop
      vertex 122.225 2 40.3836
      vertex 125 2 32
      vertex 121.616 2 39.7752
    endloop
  endfacet
  facet normal 0 1 0
    outer loop
      vertex 122.615 2 41.1502
      vertex 125 2 32
      vertex 122.225 2 40.3836
    endloop
  endfacet
  facet normal 0 1 0
    outer loop
      vertex 122.75 2 42
      vertex 125 2 32
      vertex 122.615 2 41.1502
    endloop
  endfacet
  facet normal 0 1 -0
    outer loop
      vertex 119.15 2 44.6154
      vertex 115 2 52
      vertex 120 2 44.75
    endloop
  endfacet
  facet normal 0 1 -0
    outer loop
      vertex 118.384 2 44.2248
      vertex 115 2 52
      vertex 119.15 2 44.6154
    endloop
  endfacet
  facet normal 0 1 -0
    outer loop
      vertex 117.775 2 43.6164
      vertex 115 2 52
      vertex 118.384 2 44.2248
    endloop
  endfacet
  facet normal 0 1 -0
    outer loop
      vertex 117.385 2 42.8498
      vertex 115 2 52
      vertex 117.775 2 43.6164
    endloop
  endfacet
  facet normal 0 1 -0
    outer loop
      vertex 117.25 2 42
      vertex 115 2 52
      vertex 117.385 2 42.8498
    endloop
  endfacet
  facet normal 0 1 0
    outer loop
      vertex 115 2 32
      vertex 117.25 2 42
      vertex 117.385 2 41.1502
    endloop
  endfacet
  facet normal 0 1 0
    outer loop
      vertex 115 2 32
      vertex 120 2 39.25
      vertex 125 2 32
    endloop
  endfacet
  facet normal 0 1 0
    outer loop
      vertex 120 2 39.25
      vertex 115 2 32
      vertex 119.15 2 39.3846
    endloop
  endfacet
  facet normal 0 1 0
    outer loop
      vertex 119.15 2 39.3846
      vertex 115 2 32
      vertex 118.384 2 39.7752
    endloop
  endfacet
  facet normal 0 1 0
    outer loop
      vertex 117.25 2 42
      vertex 115 2 32
      vertex 115 2 52
    endloop
  endfacet
  facet normal 0 1 0
    outer loop
      vertex 117.775 2 40.3836
      vertex 115 2 32
      vertex 117.385 2 41.1502
    endloop
  endfacet
  facet normal 0 1 0
    outer loop
      vertex 118.384 2 39.7752
      vertex 115 2 32
      vertex 117.775 2 40.3836
    endloop
  endfacet
  facet normal 0 0 -1
    outer loop
      vertex 115 0 32
      vertex 125 2 32
      vertex 125 0 32
    endloop
  endfacet
  facet normal -0 0 -1
    outer loop
      vertex 125 2 32
      vertex 115 0 32
      vertex 115 2 32
    endloop
  endfacet
  facet normal -0.987616 0 0.156893
    outer loop
      vertex 122.615 0 41.1502
      vertex 122.75 2 42
      vertex 122.615 2 41.1502
    endloop
  endfacet
  facet normal -0.987616 0 0.156893
    outer loop
      vertex 122.75 2 42
      vertex 122.615 0 41.1502
      vertex 122.75 0 42
    endloop
  endfacet
  facet normal 0.89129 0 -0.453435
    outer loop
      vertex 117.775 0 43.6164
      vertex 117.385 2 42.8498
      vertex 117.775 2 43.6164
    endloop
  endfacet
  facet normal 0.89129 0 -0.453435
    outer loop
      vertex 117.385 2 42.8498
      vertex 117.775 0 43.6164
      vertex 117.385 0 42.8498
    endloop
  endfacet
  facet normal 0.987616 -0 0.156893
    outer loop
      vertex 117.25 0 42
      vertex 117.385 2 41.1502
      vertex 117.25 2 42
    endloop
  endfacet
  facet normal 0.987616 0 0.156893
    outer loop
      vertex 117.385 2 41.1502
      vertex 117.25 0 42
      vertex 117.385 0 41.1502
    endloop
  endfacet
  facet normal -0.706758 0 0.707455
    outer loop
      vertex 121.616 0 39.7752
      vertex 122.225 2 40.3836
      vertex 121.616 2 39.7752
    endloop
  endfacet
  facet normal -0.706758 0 0.707455
    outer loop
      vertex 122.225 2 40.3836
      vertex 121.616 0 39.7752
      vertex 122.225 0 40.3836
    endloop
  endfacet
  facet normal -0.89129 0 0.453435
    outer loop
      vertex 122.225 0 40.3836
      vertex 122.615 2 41.1502
      vertex 122.225 2 40.3836
    endloop
  endfacet
  facet normal -0.89129 0 0.453435
    outer loop
      vertex 122.615 2 41.1502
      vertex 122.225 0 40.3836
      vertex 122.615 0 41.1502
    endloop
  endfacet
  facet normal -0.156404 0 0.987693
    outer loop
      vertex 120 2 39.25
      vertex 120.85 0 39.3846
      vertex 120.85 2 39.3846
    endloop
  endfacet
  facet normal -0.156404 0 0.987693
    outer loop
      vertex 120.85 0 39.3846
      vertex 120 2 39.25
      vertex 120 0 39.25
    endloop
  endfacet
  facet normal 0.454271 0 0.890864
    outer loop
      vertex 118.384 2 39.7752
      vertex 119.15 0 39.3846
      vertex 119.15 2 39.3846
    endloop
  endfacet
  facet normal 0.454271 0 0.890864
    outer loop
      vertex 119.15 0 39.3846
      vertex 118.384 2 39.7752
      vertex 118.384 0 39.7752
    endloop
  endfacet
  facet normal 0.706758 0 0.707455
    outer loop
      vertex 117.775 2 40.3836
      vertex 118.384 0 39.7752
      vertex 118.384 2 39.7752
    endloop
  endfacet
  facet normal 0.706758 0 0.707455
    outer loop
      vertex 118.384 0 39.7752
      vertex 117.775 2 40.3836
      vertex 117.775 0 40.3836
    endloop
  endfacet
  facet normal 0.156404 0 0.987693
    outer loop
      vertex 119.15 2 39.3846
      vertex 120 0 39.25
      vertex 120 2 39.25
    endloop
  endfacet
  facet normal 0.156404 0 0.987693
    outer loop
      vertex 120 0 39.25
      vertex 119.15 2 39.3846
      vertex 119.15 0 39.3846
    endloop
  endfacet
  facet normal -0.454271 0 0.890864
    outer loop
      vertex 120.85 2 39.3846
      vertex 121.616 0 39.7752
      vertex 121.616 2 39.7752
    endloop
  endfacet
  facet normal -0.454271 0 0.890864
    outer loop
      vertex 121.616 0 39.7752
      vertex 120.85 2 39.3846
      vertex 120.85 0 39.3846
    endloop
  endfacet
  facet normal 0.987616 0 -0.156893
    outer loop
      vertex 117.385 0 42.8498
      vertex 117.25 2 42
      vertex 117.385 2 42.8498
    endloop
  endfacet
  facet normal 0.987616 0 -0.156893
    outer loop
      vertex 117.25 2 42
      vertex 117.385 0 42.8498
      vertex 117.25 0 42
    endloop
  endfacet
  facet normal 0.89129 -0 0.453435
    outer loop
      vertex 117.385 0 41.1502
      vertex 117.775 2 40.3836
      vertex 117.385 2 41.1502
    endloop
  endfacet
  facet normal 0.89129 0 0.453435
    outer loop
      vertex 117.775 2 40.3836
      vertex 117.385 0 41.1502
      vertex 117.775 0 40.3836
    endloop
  endfacet
  facet normal -0.89129 0 -0.453435
    outer loop
      vertex 122.615 0 42.8498
      vertex 122.225 2 43.6164
      vertex 122.615 2 42.8498
    endloop
  endfacet
  facet normal -0.89129 -0 -0.453435
    outer loop
      vertex 122.225 2 43.6164
      vertex 122.615 0 42.8498
      vertex 122.225 0 43.6164
    endloop
  endfacet
  facet normal 0.706758 0 -0.707455
    outer loop
      vertex 117.775 0 43.6164
      vertex 118.384 2 44.2248
      vertex 118.384 0 44.2248
    endloop
  endfacet
  facet normal 0.706758 0 -0.707455
    outer loop
      vertex 118.384 2 44.2248
      vertex 117.775 0 43.6164
      vertex 117.775 2 43.6164
    endloop
  endfacet
  facet normal -0.454271 0 -0.890864
    outer loop
      vertex 120.85 0 44.6154
      vertex 121.616 2 44.2248
      vertex 121.616 0 44.2248
    endloop
  endfacet
  facet normal -0.454271 0 -0.890864
    outer loop
      vertex 121.616 2 44.2248
      vertex 120.85 0 44.6154
      vertex 120.85 2 44.6154
    endloop
  endfacet
  facet normal -0.706758 0 -0.707455
    outer loop
      vertex 122.225 0 43.6164
      vertex 121.616 2 44.2248
      vertex 122.225 2 43.6164
    endloop
  endfacet
  facet normal -0.706758 -0 -0.707455
    outer loop
      vertex 121.616 2 44.2248
      vertex 122.225 0 43.6164
      vertex 121.616 0 44.2248
    endloop
  endfacet
  facet normal -0.987616 0 -0.156893
    outer loop
      vertex 122.75 0 42
      vertex 122.615 2 42.8498
      vertex 122.75 2 42
    endloop
  endfacet
  facet normal -0.987616 -0 -0.156893
    outer loop
      vertex 122.615 2 42.8498
      vertex 122.75 0 42
      vertex 122.615 0 42.8498
    endloop
  endfacet
  facet normal -0.156404 0 -0.987693
    outer loop
      vertex 120 0 44.75
      vertex 120.85 2 44.6154
      vertex 120.85 0 44.6154
    endloop
  endfacet
  facet normal -0.156404 0 -0.987693
    outer loop
      vertex 120.85 2 44.6154
      vertex 120 0 44.75
      vertex 120 2 44.75
    endloop
  endfacet
  facet normal 0.156404 0 -0.987693
    outer loop
      vertex 119.15 0 44.6154
      vertex 120 2 44.75
      vertex 120 0 44.75
    endloop
  endfacet
  facet normal 0.156404 0 -0.987693
    outer loop
      vertex 120 2 44.75
      vertex 119.15 0 44.6154
      vertex 119.15 2 44.6154
    endloop
  endfacet
  facet normal 0.454271 0 -0.890864
    outer loop
      vertex 118.384 0 44.2248
      vertex 119.15 2 44.6154
      vertex 119.15 0 44.6154
    endloop
  endfacet
  facet normal 0.454271 0 -0.890864
    outer loop
      vertex 119.15 2 44.6154
      vertex 118.384 0 44.2248
      vertex 118.384 2 44.2248
    endloop
  endfacet
  facet normal -1 0 0
    outer loop
      vertex 0 54.5 0
      vertex 0 41.4 29.5
      vertex 0 54.5 52
    endloop
  endfacet
  facet normal -1 0 0
    outer loop
      vertex 0 54.5 0
      vertex 0 13.1 29.5
      vertex 0 41.4 29.5
    endloop
  endfacet
  facet normal -1 0 0
    outer loop
      vertex 0 0 52
      vertex 0 13.1 29.5
      vertex 0 0 0
    endloop
  endfacet
  facet normal -1 0 0
    outer loop
      vertex 0 0 0
      vertex 0 13.1 29.5
      vertex 0 54.5 0
    endloop
  endfacet
  facet normal -1 0 0
    outer loop
      vertex 0 41.4 48
      vertex 0 54.5 52
      vertex 0 41.4 29.5
    endloop
  endfacet
  facet normal -1 0 0
    outer loop
      vertex 0 13.1 48
      vertex 0 54.5 52
      vertex 0 41.4 48
    endloop
  endfacet
  facet normal -1 0 0
    outer loop
      vertex 0 13.1 48
      vertex 0 0 52
      vertex 0 54.5 52
    endloop
  endfacet
  facet normal -1 0 0
    outer loop
      vertex 0 13.1 29.5
      vertex 0 0 52
      vertex 0 13.1 48
    endloop
  endfacet
  facet normal 0 1 0
    outer loop
      vertex 75 54.5 46
      vertex 115 54.5 52
      vertex 85 54.5 46
    endloop
  endfacet
  facet normal 0 1 0
    outer loop
      vertex 115 54.5 52
      vertex 85 54.5 38
      vertex 85 54.5 46
    endloop
  endfacet
  facet normal 0 1 0
    outer loop
      vertex 85 54.5 38
      vertex 102 54.5 22
      vertex 75 54.5 38
    endloop
  endfacet
  facet normal 0 1 0
    outer loop
      vertex 115 54.5 52
      vertex 102 54.5 22
      vertex 85 54.5 38
    endloop
  endfacet
  facet normal 0 1 -0
    outer loop
      vertex 115 54.5 0
      vertex 102 54.5 22
      vertex 115 54.5 52
    endloop
  endfacet
  facet normal 0 1 0
    outer loop
      vertex 0 54.5 0
      vertex 102 54.5 7
      vertex 115 54.5 0
    endloop
  endfacet
  facet normal 0 1 0
    outer loop
      vertex 102 54.5 22
      vertex 115 54.5 0
      vertex 102 54.5 7
    endloop
  endfacet
  facet normal 0 1 0
    outer loop
      vertex 115 54.5 52
      vertex 75 54.5 46
      vertex 0 54.5 52
    endloop
  endfacet
  facet normal 0 1 0
    outer loop
      vertex 12 54.5 22
      vertex 75 54.5 46
      vertex 75 54.5 38
    endloop
  endfacet
  facet normal 0 1 0
    outer loop
      vertex 12 54.5 22
      vertex 75 54.5 38
      vertex 102 54.5 22
    endloop
  endfacet
  facet normal 0 1 0
    outer loop
      vertex 75 54.5 46
      vertex 12 54.5 22
      vertex 0 54.5 52
    endloop
  endfacet
  facet normal 0 1 0
    outer loop
      vertex 0 54.5 0
      vertex 12 54.5 22
      vertex 12 54.5 7
    endloop
  endfacet
  facet normal 0 1 0
    outer loop
      vertex 12 54.5 22
      vertex 0 54.5 0
      vertex 0 54.5 52
    endloop
  endfacet
  facet normal 0 1 0
    outer loop
      vertex 102 54.5 7
      vertex 0 54.5 0
      vertex 12 54.5 7
    endloop
  endfacet
  facet normal 1 0 0
    outer loop
      vertex 2 41.4 29.5
      vertex 2 17.25 15
      vertex 2 37.25 15
    endloop
  endfacet
  facet normal 1 0 0
    outer loop
      vertex 2 2 0
      vertex 2 17.25 15
      vertex 2 13.1 29.5
    endloop
  endfacet
  facet normal 1 -0 0
    outer loop
      vertex 2 13.1 29.5
      vertex 2 17.25 15
      vertex 2 41.4 29.5
    endloop
  endfacet
  facet normal 1 0 0
    outer loop
      vertex 2 41.4 29.5
      vertex 2 52.5 50
      vertex 2 41.4 48
    endloop
  endfacet
  facet normal 1 0 0
    outer loop
      vertex 2 52.5 50
      vertex 2 13.1 48
      vertex 2 41.4 48
    endloop
  endfacet
  facet normal 1 0 0
    outer loop
      vertex 2 13.1 48
      vertex 2 2 50
      vertex 2 13.1 29.5
    endloop
  endfacet
  facet normal 1 -0 0
    outer loop
      vertex 2 2 50
      vertex 2 13.1 48
      vertex 2 52.5 50
    endloop
  endfacet
  facet normal 1 0 0
    outer loop
      vertex 2 52.5 50
      vertex 2 41.4 29.5
      vertex 2 52.5 0
    endloop
  endfacet
  facet normal 1 -0 0
    outer loop
      vertex 2 37.25 15
      vertex 2 52.5 0
      vertex 2 41.4 29.5
    endloop
  endfacet
  facet normal 1 -0 0
    outer loop
      vertex 2 37.25 13
      vertex 2 52.5 0
      vertex 2 37.25 15
    endloop
  endfacet
  facet normal 1 -0 0
    outer loop
      vertex 2 17.25 13
      vertex 2 52.5 0
      vertex 2 37.25 13
    endloop
  endfacet
  facet normal 1 0 0
    outer loop
      vertex 2 2 0
      vertex 2 13.1 29.5
      vertex 2 2 50
    endloop
  endfacet
  facet normal 1 0 0
    outer loop
      vertex 2 17.25 13
      vertex 2 2 0
      vertex 2 52.5 0
    endloop
  endfacet
  facet normal 1 0 0
    outer loop
      vertex 2 17.25 15
      vertex 2 2 0
      vertex 2 17.25 13
    endloop
  endfacet
  facet normal 0 0 -1
    outer loop
      vertex 90.6 24.35 50
      vertex 113 2 50
      vertex 90.6 10.15 50
    endloop
  endfacet
  facet normal 0 0 -1
    outer loop
      vertex 113 2 50
      vertex 81 10.15 50
      vertex 90.6 10.15 50
    endloop
  endfacet
  facet normal 0 0 -1
    outer loop
      vertex 81 10.15 50
      vertex 61 17.25 50
      vertex 81 24.35 50
    endloop
  endfacet
  facet normal 0 0 -1
    outer loop
      vertex 81 10.15 50
      vertex 60.8798 16.1065 50
      vertex 61 17.25 50
    endloop
  endfacet
  facet normal 0 0 -1
    outer loop
      vertex 81 10.15 50
      vertex 60.5245 15.0129 50
      vertex 60.8798 16.1065 50
    endloop
  endfacet
  facet normal 0 0 -1
    outer loop
      vertex 56.0749 11.7801 50
      vertex 81 10.15 50
      vertex 113 2 50
    endloop
  endfacet
  facet normal 0 0 -1
    outer loop
      vertex 81 10.15 50
      vertex 59.9496 14.0172 50
      vertex 60.5245 15.0129 50
    endloop
  endfacet
  facet normal 0 0 -1
    outer loop
      vertex 81 10.15 50
      vertex 59.1802 13.1627 50
      vertex 59.9496 14.0172 50
    endloop
  endfacet
  facet normal 0 0 -1
    outer loop
      vertex 81 10.15 50
      vertex 58.25 12.4869 50
      vertex 59.1802 13.1627 50
    endloop
  endfacet
  facet normal 0 0 -1
    outer loop
      vertex 81 10.15 50
      vertex 57.1996 12.0192 50
      vertex 58.25 12.4869 50
    endloop
  endfacet
  facet normal 0 0 -1
    outer loop
      vertex 81 10.15 50
      vertex 56.0749 11.7801 50
      vertex 57.1996 12.0192 50
    endloop
  endfacet
  facet normal 0 0 -1
    outer loop
      vertex 2 2 50
      vertex 56.0749 11.7801 50
      vertex 113 2 50
    endloop
  endfacet
  facet normal -0 0 -1
    outer loop
      vertex 50.1202 16.1065 50
      vertex 2 2 50
      vertex 50 17.25 50
    endloop
  endfacet
  facet normal -0 0 -1
    outer loop
      vertex 50.4755 15.0129 50
      vertex 2 2 50
      vertex 50.1202 16.1065 50
    endloop
  endfacet
  facet normal -0 0 -1
    outer loop
      vertex 51.0504 14.0172 50
      vertex 2 2 50
      vertex 50.4755 15.0129 50
    endloop
  endfacet
  facet normal -0 0 -1
    outer loop
      vertex 51.8198 13.1627 50
      vertex 2 2 50
      vertex 51.0504 14.0172 50
    endloop
  endfacet
  facet normal -0 0 -1
    outer loop
      vertex 52.75 12.4869 50
      vertex 2 2 50
      vertex 51.8198 13.1627 50
    endloop
  endfacet
  facet normal -0 0 -1
    outer loop
      vertex 53.8004 12.0192 50
      vertex 2 2 50
      vertex 52.75 12.4869 50
    endloop
  endfacet
  facet normal -0 0 -1
    outer loop
      vertex 54.9251 11.7801 50
      vertex 2 2 50
      vertex 53.8004 12.0192 50
    endloop
  endfacet
  facet normal -0 0 -1
    outer loop
      vertex 56.0749 11.7801 50
      vertex 2 2 50
      vertex 54.9251 11.7801 50
    endloop
  endfacet
  facet normal 0 0 -1
    outer loop
      vertex 113 2 50
      vertex 90.6 24.35 50
      vertex 113 52.5 50
    endloop
  endfacet
  facet normal 0 0 -1
    outer loop
      vertex 81 24.35 50
      vertex 113 52.5 50
      vertex 90.6 24.35 50
    endloop
  endfacet
  facet normal 0 0 -1
    outer loop
      vertex 60.8798 18.3935 50
      vertex 81 24.35 50
      vertex 61 17.25 50
    endloop
  endfacet
  facet normal 0 0 -1
    outer loop
      vertex 60.5245 19.4871 50
      vertex 81 24.35 50
      vertex 60.8798 18.3935 50
    endloop
  endfacet
  facet normal 0 0 -1
    outer loop
      vertex 59.9496 20.4828 50
      vertex 81 24.35 50
      vertex 60.5245 19.4871 50
    endloop
  endfacet
  facet normal 0 0 -1
    outer loop
      vertex 59.1802 21.3373 50
      vertex 81 24.35 50
      vertex 59.9496 20.4828 50
    endloop
  endfacet
  facet normal 0 0 -1
    outer loop
      vertex 58.25 22.0131 50
      vertex 81 24.35 50
      vertex 59.1802 21.3373 50
    endloop
  endfacet
  facet normal 0 0 -1
    outer loop
      vertex 57.1996 22.4808 50
      vertex 81 24.35 50
      vertex 58.25 22.0131 50
    endloop
  endfacet
  facet normal 0 0 -1
    outer loop
      vertex 56.0749 22.7199 50
      vertex 81 24.35 50
      vertex 57.1996 22.4808 50
    endloop
  endfacet
  facet normal -0 0 -1
    outer loop
      vertex 81 24.35 50
      vertex 56.0749 22.7199 50
      vertex 113 52.5 50
    endloop
  endfacet
  facet normal 0 0 -1
    outer loop
      vertex 2 52.5 50
      vertex 56.0749 22.7199 50
      vertex 54.9251 22.7199 50
    endloop
  endfacet
  facet normal 0 0 -1
    outer loop
      vertex 2 52.5 50
      vertex 54.9251 22.7199 50
      vertex 53.8004 22.4808 50
    endloop
  endfacet
  facet normal 0 0 -1
    outer loop
      vertex 2 52.5 50
      vertex 53.8004 22.4808 50
      vertex 52.75 22.0131 50
    endloop
  endfacet
  facet normal 0 0 -1
    outer loop
      vertex 2 2 50
      vertex 50.1202 18.3935 50
      vertex 50 17.25 50
    endloop
  endfacet
  facet normal 0 0 -1
    outer loop
      vertex 2 52.5 50
      vertex 50.1202 18.3935 50
      vertex 2 2 50
    endloop
  endfacet
  facet normal 0 0 -1
    outer loop
      vertex 50.1202 18.3935 50
      vertex 2 52.5 50
      vertex 50.4755 19.4871 50
    endloop
  endfacet
  facet normal 0 0 -1
    outer loop
      vertex 50.4755 19.4871 50
      vertex 2 52.5 50
      vertex 51.0504 20.4828 50
    endloop
  endfacet
  facet normal 0 0 -1
    outer loop
      vertex 51.0504 20.4828 50
      vertex 2 52.5 50
      vertex 51.8198 21.3373 50
    endloop
  endfacet
  facet normal 0 0 -1
    outer loop
      vertex 51.8198 21.3373 50
      vertex 2 52.5 50
      vertex 52.75 22.0131 50
    endloop
  endfacet
  facet normal 0 0 -1
    outer loop
      vertex 56.0749 22.7199 50
      vertex 2 52.5 50
      vertex 113 52.5 50
    endloop
  endfacet
  facet normal -1 0 0
    outer loop
      vertex 113 2 0
      vertex 113 52.5 50
      vertex 113 52.5 0
    endloop
  endfacet
  facet normal -1 -0 0
    outer loop
      vertex 113 52.5 50
      vertex 113 2 0
      vertex 113 2 50
    endloop
  endfacet
  facet normal 0 -1 0
    outer loop
      vertex 2 52.5 50
      vertex 75 52.5 46
      vertex 113 52.5 50
    endloop
  endfacet
  facet normal 0 -1 0
    outer loop
      vertex 12 52.5 22
      vertex 75 52.5 46
      vertex 2 52.5 50
    endloop
  endfacet
  facet normal 0 -1 0
    outer loop
      vertex 102 52.5 22
      vertex 75 52.5 38
      vertex 12 52.5 22
    endloop
  endfacet
  facet normal 0 -1 -0
    outer loop
      vertex 75 52.5 46
      vertex 12 52.5 22
      vertex 75 52.5 38
    endloop
  endfacet
  facet normal 0 -1 0
    outer loop
      vertex 2 52.5 0
      vertex 12 52.5 22
      vertex 2 52.5 50
    endloop
  endfacet
  facet normal 0 -1 -0
    outer loop
      vertex 12 52.5 7
      vertex 2 52.5 0
      vertex 102 52.5 7
    endloop
  endfacet
  facet normal 0 -1 -0
    outer loop
      vertex 12 52.5 22
      vertex 2 52.5 0
      vertex 12 52.5 7
    endloop
  endfacet
  facet normal 0 -1 0
    outer loop
      vertex 85 52.5 46
      vertex 113 52.5 50
      vertex 75 52.5 46
    endloop
  endfacet
  facet normal 0 -1 0
    outer loop
      vertex 85 52.5 38
      vertex 113 52.5 50
      vertex 85 52.5 46
    endloop
  endfacet
  facet normal 0 -1 0
    outer loop
      vertex 75 52.5 38
      vertex 102 52.5 22
      vertex 85 52.5 38
    endloop
  endfacet
  facet normal 0 -1 0
    outer loop
      vertex 102 52.5 22
      vertex 113 52.5 50
      vertex 85 52.5 38
    endloop
  endfacet
  facet normal 0 -1 0
    outer loop
      vertex 113 52.5 0
      vertex 102 52.5 22
      vertex 102 52.5 7
    endloop
  endfacet
  facet normal 0 -1 0
    outer loop
      vertex 102 52.5 22
      vertex 113 52.5 0
      vertex 113 52.5 50
    endloop
  endfacet
  facet normal 0 -1 0
    outer loop
      vertex 113 52.5 0
      vertex 102 52.5 7
      vertex 2 52.5 0
    endloop
  endfacet
  facet normal 0 1 -0
    outer loop
      vertex 113 2 0
      vertex 2 2 50
      vertex 113 2 50
    endloop
  endfacet
  facet normal 0 1 0
    outer loop
      vertex 2 2 50
      vertex 113 2 0
      vertex 2 2 0
    endloop
  endfacet
  facet normal 0 0 -1
    outer loop
      vertex 0 13.1 48
      vertex 2 41.4 48
      vertex 2 13.1 48
    endloop
  endfacet
  facet normal -0 0 -1
    outer loop
      vertex 2 41.4 48
      vertex 0 13.1 48
      vertex 0 41.4 48
    endloop
  endfacet
  facet normal 0 -1 0
    outer loop
      vertex 0 41.4 29.5
      vertex 2 41.4 48
      vertex 0 41.4 48
    endloop
  endfacet
  facet normal 0 -1 -0
    outer loop
      vertex 2 41.4 48
      vertex 0 41.4 29.5
      vertex 2 41.4 29.5
    endloop
  endfacet
  facet normal -0 0 1
    outer loop
      vertex 0 41.4 29.5
      vertex 2 13.1 29.5
      vertex 2 41.4 29.5
    endloop
  endfacet
  facet normal 0 0 1
    outer loop
      vertex 2 13.1 29.5
      vertex 0 41.4 29.5
      vertex 0 13.1 29.5
    endloop
  endfacet
  facet normal 0 1 -0
    outer loop
      vertex 2 13.1 29.5
      vertex 0 13.1 48
      vertex 2 13.1 48
    endloop
  endfacet
  facet normal 0 1 0
    outer loop
      vertex 0 13.1 48
      vertex 2 13.1 29.5
      vertex 0 13.1 29.5
    endloop
  endfacet
  facet normal -0.587768 -0.809029 0
    outer loop
      vertex 58.25 22.0131 50
      vertex 59.1802 21.3373 52
      vertex 58.25 22.0131 52
    endloop
  endfacet
  facet normal -0.587768 -0.809029 -0
    outer loop
      vertex 59.1802 21.3373 52
      vertex 58.25 22.0131 50
      vertex 59.1802 21.3373 50
    endloop
  endfacet
  facet normal -0.994521 0.10454 0
    outer loop
      vertex 60.8798 16.1065 50
      vertex 61 17.25 52
      vertex 61 17.25 50
    endloop
  endfacet
  facet normal -0.994521 0.10454 0
    outer loop
      vertex 61 17.25 52
      vertex 60.8798 16.1065 50
      vertex 60.8798 16.1065 52
    endloop
  endfacet
  facet normal 0.207943 0.978141 -0
    outer loop
      vertex 54.9251 11.7801 50
      vertex 53.8004 12.0192 52
      vertex 54.9251 11.7801 52
    endloop
  endfacet
  facet normal 0.207943 0.978141 0
    outer loop
      vertex 53.8004 12.0192 52
      vertex 54.9251 11.7801 50
      vertex 53.8004 12.0192 50
    endloop
  endfacet
  facet normal -0.951065 -0.308992 0
    outer loop
      vertex 60.8798 18.3935 50
      vertex 60.5245 19.4871 52
      vertex 60.5245 19.4871 50
    endloop
  endfacet
  facet normal -0.951065 -0.308992 0
    outer loop
      vertex 60.5245 19.4871 52
      vertex 60.8798 18.3935 50
      vertex 60.8798 18.3935 52
    endloop
  endfacet
  facet normal 0.40676 -0.913535 0
    outer loop
      vertex 52.75 22.0131 50
      vertex 53.8004 22.4808 52
      vertex 52.75 22.0131 52
    endloop
  endfacet
  facet normal 0.40676 -0.913535 0
    outer loop
      vertex 53.8004 22.4808 52
      vertex 52.75 22.0131 50
      vertex 53.8004 22.4808 50
    endloop
  endfacet
  facet normal 0.951065 -0.308992 0
    outer loop
      vertex 50.1202 18.3935 52
      vertex 50.4755 19.4871 50
      vertex 50.4755 19.4871 52
    endloop
  endfacet
  facet normal 0.951065 -0.308992 0
    outer loop
      vertex 50.4755 19.4871 50
      vertex 50.1202 18.3935 52
      vertex 50.1202 18.3935 50
    endloop
  endfacet
  facet normal 0.951065 0.308992 0
    outer loop
      vertex 50.4755 15.0129 52
      vertex 50.1202 16.1065 50
      vertex 50.1202 16.1065 52
    endloop
  endfacet
  facet normal 0.951065 0.308992 0
    outer loop
      vertex 50.1202 16.1065 50
      vertex 50.4755 15.0129 52
      vertex 50.4755 15.0129 50
    endloop
  endfacet
  facet normal 0.866013 0.500021 0
    outer loop
      vertex 51.0504 14.0172 52
      vertex 50.4755 15.0129 50
      vertex 50.4755 15.0129 52
    endloop
  endfacet
  facet normal 0.866013 0.500021 0
    outer loop
      vertex 50.4755 15.0129 50
      vertex 51.0504 14.0172 52
      vertex 51.0504 14.0172 50
    endloop
  endfacet
  facet normal -0.866013 -0.500021 0
    outer loop
      vertex 60.5245 19.4871 50
      vertex 59.9496 20.4828 52
      vertex 59.9496 20.4828 50
    endloop
  endfacet
  facet normal -0.866013 -0.500021 0
    outer loop
      vertex 59.9496 20.4828 52
      vertex 60.5245 19.4871 50
      vertex 60.5245 19.4871 52
    endloop
  endfacet
  facet normal -0.743143 -0.669133 0
    outer loop
      vertex 59.9496 20.4828 50
      vertex 59.1802 21.3373 52
      vertex 59.1802 21.3373 50
    endloop
  endfacet
  facet normal -0.743143 -0.669133 0
    outer loop
      vertex 59.1802 21.3373 52
      vertex 59.9496 20.4828 50
      vertex 59.9496 20.4828 52
    endloop
  endfacet
  facet normal -0.40676 -0.913535 0
    outer loop
      vertex 57.1996 22.4808 50
      vertex 58.25 22.0131 52
      vertex 57.1996 22.4808 52
    endloop
  endfacet
  facet normal -0.40676 -0.913535 -0
    outer loop
      vertex 58.25 22.0131 52
      vertex 57.1996 22.4808 50
      vertex 58.25 22.0131 50
    endloop
  endfacet
  facet normal 0 -1 0
    outer loop
      vertex 54.9251 22.7199 50
      vertex 56.0749 22.7199 52
      vertex 54.9251 22.7199 52
    endloop
  endfacet
  facet normal 0 -1 -0
    outer loop
      vertex 56.0749 22.7199 52
      vertex 54.9251 22.7199 50
      vertex 56.0749 22.7199 50
    endloop
  endfacet
  facet normal 0.994521 0.10454 0
    outer loop
      vertex 50.1202 16.1065 52
      vertex 50 17.25 50
      vertex 50 17.25 52
    endloop
  endfacet
  facet normal 0.994521 0.10454 0
    outer loop
      vertex 50 17.25 50
      vertex 50.1202 16.1065 52
      vertex 50.1202 16.1065 50
    endloop
  endfacet
  facet normal 0.866013 -0.500021 0
    outer loop
      vertex 50.4755 19.4871 52
      vertex 51.0504 20.4828 50
      vertex 51.0504 20.4828 52
    endloop
  endfacet
  facet normal 0.866013 -0.500021 0
    outer loop
      vertex 51.0504 20.4828 50
      vertex 50.4755 19.4871 52
      vertex 50.4755 19.4871 50
    endloop
  endfacet
  facet normal 0.587768 -0.809029 0
    outer loop
      vertex 51.8198 21.3373 50
      vertex 52.75 22.0131 52
      vertex 51.8198 21.3373 52
    endloop
  endfacet
  facet normal 0.587768 -0.809029 0
    outer loop
      vertex 52.75 22.0131 52
      vertex 51.8198 21.3373 50
      vertex 52.75 22.0131 50
    endloop
  endfacet
  facet normal 0.207943 -0.978141 0
    outer loop
      vertex 53.8004 22.4808 50
      vertex 54.9251 22.7199 52
      vertex 53.8004 22.4808 52
    endloop
  endfacet
  facet normal 0.207943 -0.978141 0
    outer loop
      vertex 54.9251 22.7199 52
      vertex 53.8004 22.4808 50
      vertex 54.9251 22.7199 50
    endloop
  endfacet
  facet normal 0.743143 -0.669133 0
    outer loop
      vertex 51.0504 20.4828 52
      vertex 51.8198 21.3373 50
      vertex 51.8198 21.3373 52
    endloop
  endfacet
  facet normal 0.743143 -0.669133 0
    outer loop
      vertex 51.8198 21.3373 50
      vertex 51.0504 20.4828 52
      vertex 51.0504 20.4828 50
    endloop
  endfacet
  facet normal -0.994521 -0.10454 0
    outer loop
      vertex 61 17.25 50
      vertex 60.8798 18.3935 52
      vertex 60.8798 18.3935 50
    endloop
  endfacet
  facet normal -0.994521 -0.10454 0
    outer loop
      vertex 60.8798 18.3935 52
      vertex 61 17.25 50
      vertex 61 17.25 52
    endloop
  endfacet
  facet normal -0.207943 0.978141 0
    outer loop
      vertex 57.1996 12.0192 50
      vertex 56.0749 11.7801 52
      vertex 57.1996 12.0192 52
    endloop
  endfacet
  facet normal -0.207943 0.978141 0
    outer loop
      vertex 56.0749 11.7801 52
      vertex 57.1996 12.0192 50
      vertex 56.0749 11.7801 50
    endloop
  endfacet
  facet normal -0.866013 0.500021 0
    outer loop
      vertex 59.9496 14.0172 50
      vertex 60.5245 15.0129 52
      vertex 60.5245 15.0129 50
    endloop
  endfacet
  facet normal -0.866013 0.500021 0
    outer loop
      vertex 60.5245 15.0129 52
      vertex 59.9496 14.0172 50
      vertex 59.9496 14.0172 52
    endloop
  endfacet
  facet normal -0.951065 0.308992 0
    outer loop
      vertex 60.5245 15.0129 50
      vertex 60.8798 16.1065 52
      vertex 60.8798 16.1065 50
    endloop
  endfacet
  facet normal -0.951065 0.308992 0
    outer loop
      vertex 60.8798 16.1065 52
      vertex 60.5245 15.0129 50
      vertex 60.5245 15.0129 52
    endloop
  endfacet
  facet normal -0.40676 0.913535 0
    outer loop
      vertex 58.25 12.4869 50
      vertex 57.1996 12.0192 52
      vertex 58.25 12.4869 52
    endloop
  endfacet
  facet normal -0.40676 0.913535 0
    outer loop
      vertex 57.1996 12.0192 52
      vertex 58.25 12.4869 50
      vertex 57.1996 12.0192 50
    endloop
  endfacet
  facet normal -0.587768 0.809029 0
    outer loop
      vertex 59.1802 13.1627 50
      vertex 58.25 12.4869 52
      vertex 59.1802 13.1627 52
    endloop
  endfacet
  facet normal -0.587768 0.809029 0
    outer loop
      vertex 58.25 12.4869 52
      vertex 59.1802 13.1627 50
      vertex 58.25 12.4869 50
    endloop
  endfacet
  facet normal 0 1 -0
    outer loop
      vertex 56.0749 11.7801 50
      vertex 54.9251 11.7801 52
      vertex 56.0749 11.7801 52
    endloop
  endfacet
  facet normal 0 1 0
    outer loop
      vertex 54.9251 11.7801 52
      vertex 56.0749 11.7801 50
      vertex 54.9251 11.7801 50
    endloop
  endfacet
  facet normal 0.587768 0.809029 -0
    outer loop
      vertex 52.75 12.4869 50
      vertex 51.8198 13.1627 52
      vertex 52.75 12.4869 52
    endloop
  endfacet
  facet normal 0.587768 0.809029 0
    outer loop
      vertex 51.8198 13.1627 52
      vertex 52.75 12.4869 50
      vertex 51.8198 13.1627 50
    endloop
  endfacet
  facet normal -0.207943 -0.978141 0
    outer loop
      vertex 56.0749 22.7199 50
      vertex 57.1996 22.4808 52
      vertex 56.0749 22.7199 52
    endloop
  endfacet
  facet normal -0.207943 -0.978141 -0
    outer loop
      vertex 57.1996 22.4808 52
      vertex 56.0749 22.7199 50
      vertex 57.1996 22.4808 50
    endloop
  endfacet
  facet normal 0.994521 -0.10454 0
    outer loop
      vertex 50 17.25 52
      vertex 50.1202 18.3935 50
      vertex 50.1202 18.3935 52
    endloop
  endfacet
  facet normal 0.994521 -0.10454 0
    outer loop
      vertex 50.1202 18.3935 50
      vertex 50 17.25 52
      vertex 50 17.25 50
    endloop
  endfacet
  facet normal -0.743143 0.669133 0
    outer loop
      vertex 59.1802 13.1627 50
      vertex 59.9496 14.0172 52
      vertex 59.9496 14.0172 50
    endloop
  endfacet
  facet normal -0.743143 0.669133 0
    outer loop
      vertex 59.9496 14.0172 52
      vertex 59.1802 13.1627 50
      vertex 59.1802 13.1627 52
    endloop
  endfacet
  facet normal 0.40676 0.913535 -0
    outer loop
      vertex 53.8004 12.0192 50
      vertex 52.75 12.4869 52
      vertex 53.8004 12.0192 52
    endloop
  endfacet
  facet normal 0.40676 0.913535 0
    outer loop
      vertex 52.75 12.4869 52
      vertex 53.8004 12.0192 50
      vertex 52.75 12.4869 50
    endloop
  endfacet
  facet normal 0.743143 0.669133 0
    outer loop
      vertex 51.8198 13.1627 52
      vertex 51.0504 14.0172 50
      vertex 51.0504 14.0172 52
    endloop
  endfacet
  facet normal 0.743143 0.669133 0
    outer loop
      vertex 51.0504 14.0172 50
      vertex 51.8198 13.1627 52
      vertex 51.8198 13.1627 50
    endloop
  endfacet
  facet normal 1 -0 0
    outer loop
      vertex 81 10.15 52
      vertex 81 24.35 50
      vertex 81 24.35 52
    endloop
  endfacet
  facet normal 1 0 0
    outer loop
      vertex 81 24.35 50
      vertex 81 10.15 52
      vertex 81 10.15 50
    endloop
  endfacet
  facet normal -1 0 0
    outer loop
      vertex 90.6 10.15 50
      vertex 90.6 24.35 52
      vertex 90.6 24.35 50
    endloop
  endfacet
  facet normal -1 -0 0
    outer loop
      vertex 90.6 24.35 52
      vertex 90.6 10.15 50
      vertex 90.6 10.15 52
    endloop
  endfacet
  facet normal 0 -1 0
    outer loop
      vertex 81 24.35 50
      vertex 90.6 24.35 52
      vertex 81 24.35 52
    endloop
  endfacet
  facet normal 0 -1 -0
    outer loop
      vertex 90.6 24.35 52
      vertex 81 24.35 50
      vertex 90.6 24.35 50
    endloop
  endfacet
  facet normal 0 1 -0
    outer loop
      vertex 90.6 10.15 50
      vertex 81 10.15 52
      vertex 90.6 10.15 52
    endloop
  endfacet
  facet normal 0 1 0
    outer loop
      vertex 81 10.15 52
      vertex 90.6 10.15 50
      vertex 81 10.15 50
    endloop
  endfacet
  facet normal 1 -0 0
    outer loop
      vertex 12 52.5 22
      vertex 12 54.5 7
      vertex 12 54.5 22
    endloop
  endfacet
  facet normal 1 0 0
    outer loop
      vertex 12 54.5 7
      vertex 12 52.5 22
      vertex 12 52.5 7
    endloop
  endfacet
  facet normal 0 0 -1
    outer loop
      vertex 12 52.5 22
      vertex 102 54.5 22
      vertex 102 52.5 22
    endloop
  endfacet
  facet normal -0 0 -1
    outer loop
      vertex 102 54.5 22
      vertex 12 52.5 22
      vertex 12 54.5 22
    endloop
  endfacet
  facet normal -1 0 0
    outer loop
      vertex 102 52.5 7
      vertex 102 54.5 22
      vertex 102 54.5 7
    endloop
  endfacet
  facet normal -1 -0 0
    outer loop
      vertex 102 54.5 22
      vertex 102 52.5 7
      vertex 102 52.5 22
    endloop
  endfacet
  facet normal -0 0 1
    outer loop
      vertex 12 54.5 7
      vertex 102 52.5 7
      vertex 102 54.5 7
    endloop
  endfacet
  facet normal 0 0 1
    outer loop
      vertex 102 52.5 7
      vertex 12 54.5 7
      vertex 12 52.5 7
    endloop
  endfacet
  facet normal 1 -0 0
    outer loop
      vertex 75 52.5 46
      vertex 75 54.5 38
      vertex 75 54.5 46
    endloop
  endfacet
  facet normal 1 0 0
    outer loop
      vertex 75 54.5 38
      vertex 75 52.5 46
      vertex 75 52.5 38
    endloop
  endfacet
  facet normal 0 0 -1
    outer loop
      vertex 75 52.5 46
      vertex 85 54.5 46
      vertex 85 52.5 46
    endloop
  endfacet
  facet normal -0 0 -1
    outer loop
      vertex 85 54.5 46
      vertex 75 52.5 46
      vertex 75 54.5 46
    endloop
  endfacet
  facet normal -1 0 0
    outer loop
      vertex 85 52.5 38
      vertex 85 54.5 46
      vertex 85 54.5 38
    endloop
  endfacet
  facet normal -1 -0 0
    outer loop
      vertex 85 54.5 46
      vertex 85 52.5 38
      vertex 85 52.5 46
    endloop
  endfacet
  facet normal -0 0 1
    outer loop
      vertex 75 54.5 38
      vertex 85 52.5 38
      vertex 85 54.5 38
    endloop
  endfacet
  facet normal 0 0 1
    outer loop
      vertex 85 52.5 38
      vertex 75 54.5 38
      vertex 75 52.5 38
    endloop
  endfacet
  facet normal -0 0 1
    outer loop
      vertex 2 37.25 15
      vertex 5 17.25 15
      vertex 5 37.25 15
    endloop
  endfacet
  facet normal 0 0 1
    outer loop
      vertex 5 17.25 15
      vertex 2 37.25 15
      vertex 2 17.25 15
    endloop
  endfacet
  facet normal 1 -0 0
    outer loop
      vertex 5 17.25 15
      vertex 5 37.25 13
      vertex 5 37.25 15
    endloop
  endfacet
  facet normal 1 0 0
    outer loop
      vertex 5 37.25 13
      vertex 5 17.25 15
      vertex 5 17.25 13
    endloop
  endfacet
  facet normal 0 0 -1
    outer loop
      vertex 2 17.25 13
      vertex 5 37.25 13
      vertex 5 17.25 13
    endloop
  endfacet
  facet normal -0 0 -1
    outer loop
      vertex 5 37.25 13
      vertex 2 17.25 13
      vertex 2 37.25 13
    endloop
  endfacet
  facet normal 0 -1 0
    outer loop
      vertex 2 17.25 13
      vertex 5 17.25 15
      vertex 2 17.25 15
    endloop
  endfacet
  facet normal 0 -1 -0
    outer loop
      vertex 5 17.25 15
      vertex 2 17.25 13
      vertex 5 17.25 13
    endloop
  endfacet
  facet normal 0 1 -0
    outer loop
      vertex 5 37.25 13
      vertex 2 37.25 15
      vertex 5 37.25 15
    endloop
  endfacet
  facet normal 0 1 0
    outer loop
      vertex 2 37.25 15
      vertex 5 37.25 13
      vertex 2 37.25 13
    endloop
  endfacet
  facet normal -1 0 0
    outer loop
      vertex 104 17.25 25
      vertex 104 37.25 27
      vertex 104 37.25 25
    endloop
  endfacet
  facet normal -1 -0 0
    outer loop
      vertex 104 37.25 27
      vertex 104 17.25 25
      vertex 104 17.25 27
    endloop
  endfacet
  facet normal -0 0 1
    outer loop
      vertex 104 37.25 27
      vertex 109 17.25 27
      vertex 109 37.25 27
    endloop
  endfacet
  facet normal 0 0 1
    outer loop
      vertex 109 17.25 27
      vertex 104 37.25 27
      vertex 104 17.25 27
    endloop
  endfacet
  facet normal 1 -0 0
    outer loop
      vertex 109 17.25 27
      vertex 109 37.25 25
      vertex 109 37.25 27
    endloop
  endfacet
  facet normal 1 0 0
    outer loop
      vertex 109 37.25 25
      vertex 109 17.25 27
      vertex 109 17.25 25
    endloop
  endfacet
  facet normal 0 0 -1
    outer loop
      vertex 104 17.25 25
      vertex 109 37.25 25
      vertex 109 17.25 25
    endloop
  endfacet
  facet normal -0 0 -1
    outer loop
      vertex 109 37.25 25
      vertex 104 17.25 25
      vertex 104 37.25 25
    endloop
  endfacet
  facet normal 0 -1 0
    outer loop
      vertex 104 17.25 25
      vertex 109 17.25 27
      vertex 104 17.25 27
    endloop
  endfacet
  facet normal 0 -1 -0
    outer loop
      vertex 109 17.25 27
      vertex 104 17.25 25
      vertex 109 17.25 25
    endloop
  endfacet
  facet normal 0 1 -0
    outer loop
      vertex 109 37.25 25
      vertex 104 37.25 27
      vertex 109 37.25 27
    endloop
  endfacet
  facet normal 0 1 0
    outer loop
      vertex 104 37.25 27
      vertex 109 37.25 25
      vertex 104 37.25 25
    endloop
  endfacet
endsolid OpenSCAD_Model
