solid OpenSCAD_Model
  facet normal 1 0 0
    outer loop
      vertex 120 49.65 29.5
      vertex 120 55 52
      vertex 120 49.65 48
    endloop
  endfacet
  facet normal 1 0 0
    outer loop
      vertex 120 55 52
      vertex 120 21.35 48
      vertex 120 49.65 48
    endloop
  endfacet
  facet normal 1 0 0
    outer loop
      vertex 120 21.35 48
      vertex 120 2 52
      vertex 120 21.35 29.5
    endloop
  endfacet
  facet normal 1 -0 0
    outer loop
      vertex 120 2 52
      vertex 120 21.35 48
      vertex 120 55 52
    endloop
  endfacet
  facet normal 1 0 0
    outer loop
      vertex 120 55 52
      vertex 120 49.65 29.5
      vertex 120 55 0
    endloop
  endfacet
  facet normal 1 -0 0
    outer loop
      vertex 120 21.35 29.5
      vertex 120 55 0
      vertex 120 49.65 29.5
    endloop
  endfacet
  facet normal 1 0 0
    outer loop
      vertex 120 21.35 29.5
      vertex 120 2 0
      vertex 120 55 0
    endloop
  endfacet
  facet normal 1 0 0
    outer loop
      vertex 120 2 0
      vertex 120 21.35 29.5
      vertex 120 2 52
    endloop
  endfacet
  facet normal 1 -0 0
    outer loop
      vertex 140 0 52
      vertex 140 2 0
      vertex 140 2 52
    endloop
  endfacet
  facet normal 1 0 0
    outer loop
      vertex 140 2 0
      vertex 140 0 52
      vertex 140 0 0
    endloop
  endfacet
  facet normal 0 1 0
    outer loop
      vertex 140 2 52
      vertex 130 2 44.75
      vertex 120 2 52
    endloop
  endfacet
  facet normal 0 1 0
    outer loop
      vertex 140 2 52
      vertex 130.85 2 44.6154
      vertex 130 2 44.75
    endloop
  endfacet
  facet normal 0 1 0
    outer loop
      vertex 140 2 52
      vertex 131.616 2 44.2248
      vertex 130.85 2 44.6154
    endloop
  endfacet
  facet normal 0 1 0
    outer loop
      vertex 140 2 52
      vertex 132.225 2 43.6164
      vertex 131.616 2 44.2248
    endloop
  endfacet
  facet normal 0 1 0
    outer loop
      vertex 140 2 52
      vertex 132.615 2 42.8498
      vertex 132.225 2 43.6164
    endloop
  endfacet
  facet normal 0 1 0
    outer loop
      vertex 140 2 52
      vertex 132.75 2 42
      vertex 132.615 2 42.8498
    endloop
  endfacet
  facet normal 0 1 0
    outer loop
      vertex 140 2 52
      vertex 132.615 2 41.1502
      vertex 132.75 2 42
    endloop
  endfacet
  facet normal 0 1 0
    outer loop
      vertex 132.615 2 26.8498
      vertex 132.615 2 41.1502
      vertex 140 2 52
    endloop
  endfacet
  facet normal 0 1 0
    outer loop
      vertex 130.85 2 39.3846
      vertex 130 2 28.75
      vertex 130 2 39.25
    endloop
  endfacet
  facet normal 0 1 0
    outer loop
      vertex 130.85 2 28.6154
      vertex 130.85 2 39.3846
      vertex 131.616 2 39.7752
    endloop
  endfacet
  facet normal 0 1 0
    outer loop
      vertex 131.616 2 28.2248
      vertex 131.616 2 39.7752
      vertex 132.225 2 40.3836
    endloop
  endfacet
  facet normal 0 1 0
    outer loop
      vertex 132.615 2 41.1502
      vertex 132.615 2 26.8498
      vertex 132.225 2 40.3836
    endloop
  endfacet
  facet normal 0 1 0
    outer loop
      vertex 130.85 2 39.3846
      vertex 130.85 2 28.6154
      vertex 130 2 28.75
    endloop
  endfacet
  facet normal 0 1 0
    outer loop
      vertex 131.616 2 39.7752
      vertex 131.616 2 28.2248
      vertex 130.85 2 28.6154
    endloop
  endfacet
  facet normal 0 1 0
    outer loop
      vertex 132.225 2 40.3836
      vertex 132.225 2 27.6164
      vertex 131.616 2 28.2248
    endloop
  endfacet
  facet normal 0 1 0
    outer loop
      vertex 132.225 2 40.3836
      vertex 132.615 2 26.8498
      vertex 132.225 2 27.6164
    endloop
  endfacet
  facet normal 0 1 0
    outer loop
      vertex 140 2 52
      vertex 132.75 2 26
      vertex 132.615 2 26.8498
    endloop
  endfacet
  facet normal 0 1 -0
    outer loop
      vertex 140 2 0
      vertex 132.75 2 26
      vertex 140 2 52
    endloop
  endfacet
  facet normal 0 1 0
    outer loop
      vertex 130.85 2 23.3846
      vertex 130 2 12.75
      vertex 130 2 23.25
    endloop
  endfacet
  facet normal 0 1 0
    outer loop
      vertex 130.85 2 12.6154
      vertex 130.85 2 23.3846
      vertex 131.616 2 23.7752
    endloop
  endfacet
  facet normal 0 1 0
    outer loop
      vertex 131.616 2 12.2248
      vertex 131.616 2 23.7752
      vertex 132.225 2 24.3836
    endloop
  endfacet
  facet normal 0 1 0
    outer loop
      vertex 132.225 2 11.6164
      vertex 132.225 2 24.3836
      vertex 132.615 2 25.1502
    endloop
  endfacet
  facet normal 0 1 0
    outer loop
      vertex 132.75 2 26
      vertex 140 2 0
      vertex 132.615 2 25.1502
    endloop
  endfacet
  facet normal 0 1 0
    outer loop
      vertex 130.85 2 23.3846
      vertex 130.85 2 12.6154
      vertex 130 2 12.75
    endloop
  endfacet
  facet normal 0 1 0
    outer loop
      vertex 131.616 2 23.7752
      vertex 131.616 2 12.2248
      vertex 130.85 2 12.6154
    endloop
  endfacet
  facet normal 0 1 0
    outer loop
      vertex 132.225 2 24.3836
      vertex 132.225 2 11.6164
      vertex 131.616 2 12.2248
    endloop
  endfacet
  facet normal 0 1 0
    outer loop
      vertex 132.615 2 25.1502
      vertex 132.615 2 10.8498
      vertex 132.225 2 11.6164
    endloop
  endfacet
  facet normal 0 1 0
    outer loop
      vertex 132.615 2 25.1502
      vertex 140 2 0
      vertex 132.615 2 10.8498
    endloop
  endfacet
  facet normal 0 1 0
    outer loop
      vertex 132.615 2 10.8498
      vertex 140 2 0
      vertex 132.75 2 10
    endloop
  endfacet
  facet normal 0 1 0
    outer loop
      vertex 130.85 2 7.38459
      vertex 140 2 0
      vertex 130 2 7.25
    endloop
  endfacet
  facet normal 0 1 0
    outer loop
      vertex 131.616 2 7.7752
      vertex 140 2 0
      vertex 130.85 2 7.38459
    endloop
  endfacet
  facet normal 0 1 0
    outer loop
      vertex 132.225 2 8.38359
      vertex 140 2 0
      vertex 131.616 2 7.7752
    endloop
  endfacet
  facet normal 0 1 0
    outer loop
      vertex 132.615 2 9.1502
      vertex 140 2 0
      vertex 132.225 2 8.38359
    endloop
  endfacet
  facet normal 0 1 0
    outer loop
      vertex 132.75 2 10
      vertex 140 2 0
      vertex 132.615 2 9.1502
    endloop
  endfacet
  facet normal 0 1 -0
    outer loop
      vertex 129.15 2 44.6154
      vertex 120 2 52
      vertex 130 2 44.75
    endloop
  endfacet
  facet normal 0 1 -0
    outer loop
      vertex 128.384 2 44.2248
      vertex 120 2 52
      vertex 129.15 2 44.6154
    endloop
  endfacet
  facet normal 0 1 -0
    outer loop
      vertex 127.775 2 43.6164
      vertex 120 2 52
      vertex 128.384 2 44.2248
    endloop
  endfacet
  facet normal 0 1 -0
    outer loop
      vertex 127.385 2 42.8498
      vertex 120 2 52
      vertex 127.775 2 43.6164
    endloop
  endfacet
  facet normal 0 1 -0
    outer loop
      vertex 127.25 2 42
      vertex 120 2 52
      vertex 127.385 2 42.8498
    endloop
  endfacet
  facet normal 0 1 0
    outer loop
      vertex 127.385 2 41.1502
      vertex 120 2 52
      vertex 127.25 2 42
    endloop
  endfacet
  facet normal 0 1 0
    outer loop
      vertex 127.385 2 26.8498
      vertex 127.385 2 41.1502
      vertex 127.775 2 40.3836
    endloop
  endfacet
  facet normal 0 1 -0
    outer loop
      vertex 130 2 28.75
      vertex 129.15 2 39.3846
      vertex 130 2 39.25
    endloop
  endfacet
  facet normal 0 1 0
    outer loop
      vertex 129.15 2 28.6154
      vertex 129.15 2 39.3846
      vertex 130 2 28.75
    endloop
  endfacet
  facet normal 0 1 0
    outer loop
      vertex 129.15 2 39.3846
      vertex 129.15 2 28.6154
      vertex 128.384 2 39.7752
    endloop
  endfacet
  facet normal 0 1 0
    outer loop
      vertex 128.384 2 28.2248
      vertex 128.384 2 39.7752
      vertex 129.15 2 28.6154
    endloop
  endfacet
  facet normal 0 1 0
    outer loop
      vertex 128.384 2 39.7752
      vertex 128.384 2 28.2248
      vertex 127.775 2 40.3836
    endloop
  endfacet
  facet normal 0 1 0
    outer loop
      vertex 127.775 2 27.6164
      vertex 127.775 2 40.3836
      vertex 128.384 2 28.2248
    endloop
  endfacet
  facet normal 0 1 0
    outer loop
      vertex 127.385 2 26.8498
      vertex 127.775 2 40.3836
      vertex 127.775 2 27.6164
    endloop
  endfacet
  facet normal 0 1 0
    outer loop
      vertex 127.385 2 41.1502
      vertex 127.385 2 26.8498
      vertex 120 2 52
    endloop
  endfacet
  facet normal 0 1 -0
    outer loop
      vertex 127.25 2 26
      vertex 120 2 52
      vertex 127.385 2 26.8498
    endloop
  endfacet
  facet normal 0 1 0
    outer loop
      vertex 120 2 0
      vertex 127.25 2 26
      vertex 127.385 2 25.1502
    endloop
  endfacet
  facet normal 0 1 -0
    outer loop
      vertex 130 2 12.75
      vertex 129.15 2 23.3846
      vertex 130 2 23.25
    endloop
  endfacet
  facet normal 0 1 0
    outer loop
      vertex 129.15 2 12.6154
      vertex 129.15 2 23.3846
      vertex 130 2 12.75
    endloop
  endfacet
  facet normal 0 1 0
    outer loop
      vertex 129.15 2 23.3846
      vertex 129.15 2 12.6154
      vertex 128.384 2 23.7752
    endloop
  endfacet
  facet normal 0 1 0
    outer loop
      vertex 128.384 2 12.2248
      vertex 128.384 2 23.7752
      vertex 129.15 2 12.6154
    endloop
  endfacet
  facet normal 0 1 0
    outer loop
      vertex 128.384 2 23.7752
      vertex 128.384 2 12.2248
      vertex 127.775 2 24.3836
    endloop
  endfacet
  facet normal 0 1 0
    outer loop
      vertex 127.775 2 11.6164
      vertex 127.775 2 24.3836
      vertex 128.384 2 12.2248
    endloop
  endfacet
  facet normal 0 1 0
    outer loop
      vertex 127.775 2 24.3836
      vertex 127.775 2 11.6164
      vertex 127.385 2 25.1502
    endloop
  endfacet
  facet normal 0 1 0
    outer loop
      vertex 127.385 2 10.8498
      vertex 127.385 2 25.1502
      vertex 127.775 2 11.6164
    endloop
  endfacet
  facet normal 0 1 0
    outer loop
      vertex 120 2 0
      vertex 127.385 2 25.1502
      vertex 127.385 2 10.8498
    endloop
  endfacet
  facet normal 0 1 0
    outer loop
      vertex 120 2 0
      vertex 127.385 2 10.8498
      vertex 127.25 2 10
    endloop
  endfacet
  facet normal 0 1 0
    outer loop
      vertex 120 2 0
      vertex 127.25 2 10
      vertex 127.385 2 9.1502
    endloop
  endfacet
  facet normal 0 1 0
    outer loop
      vertex 120 2 0
      vertex 130 2 7.25
      vertex 140 2 0
    endloop
  endfacet
  facet normal 0 1 0
    outer loop
      vertex 130 2 7.25
      vertex 120 2 0
      vertex 129.15 2 7.38459
    endloop
  endfacet
  facet normal 0 1 0
    outer loop
      vertex 127.25 2 26
      vertex 120 2 0
      vertex 120 2 52
    endloop
  endfacet
  facet normal 0 1 0
    outer loop
      vertex 127.775 2 8.38359
      vertex 120 2 0
      vertex 127.385 2 9.1502
    endloop
  endfacet
  facet normal 0 1 0
    outer loop
      vertex 128.384 2 7.7752
      vertex 120 2 0
      vertex 127.775 2 8.38359
    endloop
  endfacet
  facet normal 0 1 0
    outer loop
      vertex 129.15 2 7.38459
      vertex 120 2 0
      vertex 128.384 2 7.7752
    endloop
  endfacet
  facet normal 0 0 -1
    outer loop
      vertex 140 0 0
      vertex 120 2 0
      vertex 140 2 0
    endloop
  endfacet
  facet normal 0 0 -1
    outer loop
      vertex 118 53 0
      vertex 120 2 0
      vertex 118 2 0
    endloop
  endfacet
  facet normal 0 0 -1
    outer loop
      vertex 140 0 0
      vertex 118 2 0
      vertex 120 2 0
    endloop
  endfacet
  facet normal 0 0 -1
    outer loop
      vertex 0 0 0
      vertex 118 2 0
      vertex 140 0 0
    endloop
  endfacet
  facet normal -0 0 -1
    outer loop
      vertex 2 2 0
      vertex 0 0 0
      vertex 2 53 0
    endloop
  endfacet
  facet normal -0 0 -1
    outer loop
      vertex 118 2 0
      vertex 0 0 0
      vertex 2 2 0
    endloop
  endfacet
  facet normal 0 0 -1
    outer loop
      vertex 120 2 0
      vertex 118 53 0
      vertex 120 55 0
    endloop
  endfacet
  facet normal 0 0 -1
    outer loop
      vertex 2 53 0
      vertex 120 55 0
      vertex 118 53 0
    endloop
  endfacet
  facet normal 0 0 -1
    outer loop
      vertex 2 53 0
      vertex 0 55 0
      vertex 120 55 0
    endloop
  endfacet
  facet normal 0 0 -1
    outer loop
      vertex 0 55 0
      vertex 2 53 0
      vertex 0 0 0
    endloop
  endfacet
  facet normal 0 -1 0
    outer loop
      vertex 128.384 0 44.2248
      vertex 140 0 52
      vertex 0 0 52
    endloop
  endfacet
  facet normal 0 -1 0
    outer loop
      vertex 140 0 52
      vertex 129.15 0 44.6154
      vertex 130 0 44.75
    endloop
  endfacet
  facet normal 0 -1 0
    outer loop
      vertex 140 0 52
      vertex 128.384 0 44.2248
      vertex 129.15 0 44.6154
    endloop
  endfacet
  facet normal 0 -1 0
    outer loop
      vertex 0 0 52
      vertex 127.775 0 43.6164
      vertex 128.384 0 44.2248
    endloop
  endfacet
  facet normal 0 -1 0
    outer loop
      vertex 0 0 52
      vertex 127.385 0 42.8498
      vertex 127.775 0 43.6164
    endloop
  endfacet
  facet normal 0 -1 0
    outer loop
      vertex 0 0 52
      vertex 127.25 0 42
      vertex 127.385 0 42.8498
    endloop
  endfacet
  facet normal 0 -1 0
    outer loop
      vertex 127.25 0 26
      vertex 127.25 0 42
      vertex 0 0 52
    endloop
  endfacet
  facet normal 0 -1 0
    outer loop
      vertex 127.25 0 42
      vertex 127.25 0 26
      vertex 127.385 0 41.1502
    endloop
  endfacet
  facet normal -0 -1 0
    outer loop
      vertex 127.385 0 26.8498
      vertex 127.385 0 41.1502
      vertex 127.25 0 26
    endloop
  endfacet
  facet normal -0 -1 0
    outer loop
      vertex 127.775 0 27.6164
      vertex 127.775 0 40.3836
      vertex 127.385 0 26.8498
    endloop
  endfacet
  facet normal 0 -1 0
    outer loop
      vertex 127.775 0 40.3836
      vertex 127.775 0 27.6164
      vertex 128.384 0 39.7752
    endloop
  endfacet
  facet normal -0 -1 0
    outer loop
      vertex 128.384 0 28.2248
      vertex 128.384 0 39.7752
      vertex 127.775 0 27.6164
    endloop
  endfacet
  facet normal 0 -1 -0
    outer loop
      vertex 130 0 39.25
      vertex 129.15 0 28.6154
      vertex 130 0 28.75
    endloop
  endfacet
  facet normal 0 -1 0
    outer loop
      vertex 129.15 0 39.3846
      vertex 129.15 0 28.6154
      vertex 130 0 39.25
    endloop
  endfacet
  facet normal -0 -1 0
    outer loop
      vertex 129.15 0 28.6154
      vertex 129.15 0 39.3846
      vertex 128.384 0 28.2248
    endloop
  endfacet
  facet normal 0 -1 0
    outer loop
      vertex 128.384 0 39.7752
      vertex 128.384 0 28.2248
      vertex 129.15 0 39.3846
    endloop
  endfacet
  facet normal 0 -1 0
    outer loop
      vertex 127.385 0 41.1502
      vertex 127.385 0 26.8498
      vertex 127.775 0 40.3836
    endloop
  endfacet
  facet normal 0 -1 0
    outer loop
      vertex 0 0 0
      vertex 127.25 0 26
      vertex 0 0 52
    endloop
  endfacet
  facet normal -0 -1 0
    outer loop
      vertex 127.25 0 10
      vertex 127.25 0 26
      vertex 0 0 0
    endloop
  endfacet
  facet normal 0 -1 0
    outer loop
      vertex 127.25 0 26
      vertex 127.25 0 10
      vertex 127.385 0 25.1502
    endloop
  endfacet
  facet normal -0 -1 0
    outer loop
      vertex 127.385 0 10.8498
      vertex 127.385 0 25.1502
      vertex 127.25 0 10
    endloop
  endfacet
  facet normal 0 -1 0
    outer loop
      vertex 129.15 0 23.3846
      vertex 130 0 12.75
      vertex 130 0 23.25
    endloop
  endfacet
  facet normal 0 -1 0
    outer loop
      vertex 127.775 0 24.3836
      vertex 127.775 0 11.6164
      vertex 128.384 0 23.7752
    endloop
  endfacet
  facet normal 0 -1 0
    outer loop
      vertex 129.15 0 23.3846
      vertex 129.15 0 12.6154
      vertex 130 0 12.75
    endloop
  endfacet
  facet normal 0 -1 -0
    outer loop
      vertex 129.15 0 23.3846
      vertex 128.384 0 12.2248
      vertex 129.15 0 12.6154
    endloop
  endfacet
  facet normal 0 -1 0
    outer loop
      vertex 128.384 0 23.7752
      vertex 128.384 0 12.2248
      vertex 129.15 0 23.3846
    endloop
  endfacet
  facet normal -0 -1 0
    outer loop
      vertex 128.384 0 12.2248
      vertex 128.384 0 23.7752
      vertex 127.775 0 11.6164
    endloop
  endfacet
  facet normal -0 -1 0
    outer loop
      vertex 127.775 0 11.6164
      vertex 127.775 0 24.3836
      vertex 127.385 0 10.8498
    endloop
  endfacet
  facet normal 0 -1 0
    outer loop
      vertex 127.385 0 25.1502
      vertex 127.385 0 10.8498
      vertex 127.775 0 24.3836
    endloop
  endfacet
  facet normal 0 -1 -0
    outer loop
      vertex 127.25 0 10
      vertex 0 0 0
      vertex 127.385 0 9.1502
    endloop
  endfacet
  facet normal 0 -1 -0
    outer loop
      vertex 127.385 0 9.1502
      vertex 0 0 0
      vertex 127.775 0 8.38359
    endloop
  endfacet
  facet normal 0 -1 -0
    outer loop
      vertex 127.775 0 8.38359
      vertex 0 0 0
      vertex 128.384 0 7.7752
    endloop
  endfacet
  facet normal 0 -1 0
    outer loop
      vertex 128.384 0 7.7752
      vertex 140 0 0
      vertex 129.15 0 7.38459
    endloop
  endfacet
  facet normal 0 -1 0
    outer loop
      vertex 140 0 0
      vertex 128.384 0 7.7752
      vertex 0 0 0
    endloop
  endfacet
  facet normal 0 -1 0
    outer loop
      vertex 130.85 0 44.6154
      vertex 140 0 52
      vertex 130 0 44.75
    endloop
  endfacet
  facet normal 0 -1 0
    outer loop
      vertex 131.616 0 44.2248
      vertex 140 0 52
      vertex 130.85 0 44.6154
    endloop
  endfacet
  facet normal 0 -1 0
    outer loop
      vertex 132.225 0 43.6164
      vertex 140 0 52
      vertex 131.616 0 44.2248
    endloop
  endfacet
  facet normal 0 -1 0
    outer loop
      vertex 132.615 0 42.8498
      vertex 140 0 52
      vertex 132.225 0 43.6164
    endloop
  endfacet
  facet normal 0 -1 0
    outer loop
      vertex 132.75 0 42
      vertex 140 0 52
      vertex 132.615 0 42.8498
    endloop
  endfacet
  facet normal 0 -1 0
    outer loop
      vertex 132.615 0 41.1502
      vertex 140 0 52
      vertex 132.75 0 42
    endloop
  endfacet
  facet normal 0 -1 0
    outer loop
      vertex 132.615 0 26.8498
      vertex 132.615 0 41.1502
      vertex 132.225 0 40.3836
    endloop
  endfacet
  facet normal 0 -1 0
    outer loop
      vertex 130 0 28.75
      vertex 130.85 0 39.3846
      vertex 130 0 39.25
    endloop
  endfacet
  facet normal 0 -1 0
    outer loop
      vertex 130.85 0 28.6154
      vertex 130.85 0 39.3846
      vertex 130 0 28.75
    endloop
  endfacet
  facet normal 0 -1 0
    outer loop
      vertex 130.85 0 39.3846
      vertex 130.85 0 28.6154
      vertex 131.616 0 39.7752
    endloop
  endfacet
  facet normal 0 -1 0
    outer loop
      vertex 131.616 0 28.2248
      vertex 131.616 0 39.7752
      vertex 130.85 0 28.6154
    endloop
  endfacet
  facet normal 0 -1 0
    outer loop
      vertex 131.616 0 39.7752
      vertex 131.616 0 28.2248
      vertex 132.225 0 40.3836
    endloop
  endfacet
  facet normal 0 -1 0
    outer loop
      vertex 132.225 0 27.6164
      vertex 132.225 0 40.3836
      vertex 131.616 0 28.2248
    endloop
  endfacet
  facet normal 0 -1 0
    outer loop
      vertex 132.615 0 26.8498
      vertex 132.225 0 40.3836
      vertex 132.225 0 27.6164
    endloop
  endfacet
  facet normal 0 -1 0
    outer loop
      vertex 132.615 0 41.1502
      vertex 132.615 0 26.8498
      vertex 140 0 52
    endloop
  endfacet
  facet normal 0 -1 0
    outer loop
      vertex 132.75 0 26
      vertex 140 0 52
      vertex 132.615 0 26.8498
    endloop
  endfacet
  facet normal 0 -1 0
    outer loop
      vertex 140 0 0
      vertex 132.75 0 26
      vertex 132.615 0 25.1502
    endloop
  endfacet
  facet normal 0 -1 0
    outer loop
      vertex 130 0 12.75
      vertex 130.85 0 23.3846
      vertex 130 0 23.25
    endloop
  endfacet
  facet normal 0 -1 0
    outer loop
      vertex 130.85 0 12.6154
      vertex 130.85 0 23.3846
      vertex 130 0 12.75
    endloop
  endfacet
  facet normal 0 -1 0
    outer loop
      vertex 130.85 0 23.3846
      vertex 130.85 0 12.6154
      vertex 131.616 0 23.7752
    endloop
  endfacet
  facet normal 0 -1 0
    outer loop
      vertex 131.616 0 12.2248
      vertex 131.616 0 23.7752
      vertex 130.85 0 12.6154
    endloop
  endfacet
  facet normal 0 -1 0
    outer loop
      vertex 131.616 0 23.7752
      vertex 131.616 0 12.2248
      vertex 132.225 0 24.3836
    endloop
  endfacet
  facet normal 0 -1 0
    outer loop
      vertex 132.225 0 11.6164
      vertex 132.225 0 24.3836
      vertex 131.616 0 12.2248
    endloop
  endfacet
  facet normal 0 -1 0
    outer loop
      vertex 132.225 0 24.3836
      vertex 132.225 0 11.6164
      vertex 132.615 0 25.1502
    endloop
  endfacet
  facet normal 0 -1 0
    outer loop
      vertex 132.615 0 10.8498
      vertex 132.615 0 25.1502
      vertex 132.225 0 11.6164
    endloop
  endfacet
  facet normal 0 -1 0
    outer loop
      vertex 140 0 0
      vertex 132.615 0 25.1502
      vertex 132.615 0 10.8498
    endloop
  endfacet
  facet normal 0 -1 0
    outer loop
      vertex 140 0 0
      vertex 132.615 0 10.8498
      vertex 132.75 0 10
    endloop
  endfacet
  facet normal 0 -1 0
    outer loop
      vertex 140 0 0
      vertex 132.75 0 10
      vertex 132.615 0 9.1502
    endloop
  endfacet
  facet normal 0 -1 0
    outer loop
      vertex 132.75 0 26
      vertex 140 0 0
      vertex 140 0 52
    endloop
  endfacet
  facet normal 0 -1 0
    outer loop
      vertex 132.225 0 8.38359
      vertex 140 0 0
      vertex 132.615 0 9.1502
    endloop
  endfacet
  facet normal 0 -1 0
    outer loop
      vertex 131.616 0 7.7752
      vertex 140 0 0
      vertex 132.225 0 8.38359
    endloop
  endfacet
  facet normal 0 -1 0
    outer loop
      vertex 130.85 0 7.38459
      vertex 140 0 0
      vertex 131.616 0 7.7752
    endloop
  endfacet
  facet normal 0 -1 0
    outer loop
      vertex 130 0 7.25
      vertex 140 0 0
      vertex 130.85 0 7.38459
    endloop
  endfacet
  facet normal 0 -1 0
    outer loop
      vertex 129.15 0 7.38459
      vertex 140 0 0
      vertex 130 0 7.25
    endloop
  endfacet
  facet normal -0.987616 0 0.156893
    outer loop
      vertex 132.615 0 9.1502
      vertex 132.75 2 10
      vertex 132.615 2 9.1502
    endloop
  endfacet
  facet normal -0.987616 0 0.156893
    outer loop
      vertex 132.75 2 10
      vertex 132.615 0 9.1502
      vertex 132.75 0 10
    endloop
  endfacet
  facet normal 0.156393 0 0.987695
    outer loop
      vertex 129.15 2 7.38459
      vertex 130 0 7.25
      vertex 130 2 7.25
    endloop
  endfacet
  facet normal 0.156393 0 0.987695
    outer loop
      vertex 130 0 7.25
      vertex 129.15 2 7.38459
      vertex 129.15 0 7.38459
    endloop
  endfacet
  facet normal -0.156404 0 -0.987693
    outer loop
      vertex 130 0 12.75
      vertex 130.85 2 12.6154
      vertex 130.85 0 12.6154
    endloop
  endfacet
  facet normal -0.156404 0 -0.987693
    outer loop
      vertex 130.85 2 12.6154
      vertex 130 0 12.75
      vertex 130 2 12.75
    endloop
  endfacet
  facet normal -0.454271 0 -0.890864
    outer loop
      vertex 130.85 0 12.6154
      vertex 131.616 2 12.2248
      vertex 131.616 0 12.2248
    endloop
  endfacet
  facet normal -0.454271 0 -0.890864
    outer loop
      vertex 131.616 2 12.2248
      vertex 130.85 0 12.6154
      vertex 130.85 2 12.6154
    endloop
  endfacet
  facet normal -0.706752 0 0.707461
    outer loop
      vertex 131.616 0 7.7752
      vertex 132.225 2 8.38359
      vertex 131.616 2 7.7752
    endloop
  endfacet
  facet normal -0.706752 0 0.707461
    outer loop
      vertex 132.225 2 8.38359
      vertex 131.616 0 7.7752
      vertex 132.225 0 8.38359
    endloop
  endfacet
  facet normal -0.891292 0 0.45343
    outer loop
      vertex 132.225 0 8.38359
      vertex 132.615 2 9.1502
      vertex 132.225 2 8.38359
    endloop
  endfacet
  facet normal -0.891292 0 0.45343
    outer loop
      vertex 132.615 2 9.1502
      vertex 132.225 0 8.38359
      vertex 132.615 0 9.1502
    endloop
  endfacet
  facet normal -0.45428 0 0.890859
    outer loop
      vertex 130.85 2 7.38459
      vertex 131.616 0 7.7752
      vertex 131.616 2 7.7752
    endloop
  endfacet
  facet normal -0.45428 0 0.890859
    outer loop
      vertex 131.616 0 7.7752
      vertex 130.85 2 7.38459
      vertex 130.85 0 7.38459
    endloop
  endfacet
  facet normal 0.706752 0 0.707461
    outer loop
      vertex 127.775 2 8.38359
      vertex 128.384 0 7.7752
      vertex 128.384 2 7.7752
    endloop
  endfacet
  facet normal 0.706752 0 0.707461
    outer loop
      vertex 128.384 0 7.7752
      vertex 127.775 2 8.38359
      vertex 127.775 0 8.38359
    endloop
  endfacet
  facet normal 0.891292 -0 0.45343
    outer loop
      vertex 127.385 0 9.1502
      vertex 127.775 2 8.38359
      vertex 127.385 2 9.1502
    endloop
  endfacet
  facet normal 0.891292 0 0.45343
    outer loop
      vertex 127.775 2 8.38359
      vertex 127.385 0 9.1502
      vertex 127.775 0 8.38359
    endloop
  endfacet
  facet normal 0.45428 0 0.890859
    outer loop
      vertex 128.384 2 7.7752
      vertex 129.15 0 7.38459
      vertex 129.15 2 7.38459
    endloop
  endfacet
  facet normal 0.45428 0 0.890859
    outer loop
      vertex 129.15 0 7.38459
      vertex 128.384 2 7.7752
      vertex 128.384 0 7.7752
    endloop
  endfacet
  facet normal -0.156393 0 0.987695
    outer loop
      vertex 130 2 7.25
      vertex 130.85 0 7.38459
      vertex 130.85 2 7.38459
    endloop
  endfacet
  facet normal -0.156393 0 0.987695
    outer loop
      vertex 130.85 0 7.38459
      vertex 130 2 7.25
      vertex 130 0 7.25
    endloop
  endfacet
  facet normal 0.987616 -0 0.156893
    outer loop
      vertex 127.25 0 10
      vertex 127.385 2 9.1502
      vertex 127.25 2 10
    endloop
  endfacet
  facet normal 0.987616 0 0.156893
    outer loop
      vertex 127.385 2 9.1502
      vertex 127.25 0 10
      vertex 127.385 0 9.1502
    endloop
  endfacet
  facet normal -0.706758 0 -0.707455
    outer loop
      vertex 132.225 0 11.6164
      vertex 131.616 2 12.2248
      vertex 132.225 2 11.6164
    endloop
  endfacet
  facet normal -0.706758 -0 -0.707455
    outer loop
      vertex 131.616 2 12.2248
      vertex 132.225 0 11.6164
      vertex 131.616 0 12.2248
    endloop
  endfacet
  facet normal -0.89129 0 -0.453435
    outer loop
      vertex 132.615 0 10.8498
      vertex 132.225 2 11.6164
      vertex 132.615 2 10.8498
    endloop
  endfacet
  facet normal -0.89129 -0 -0.453435
    outer loop
      vertex 132.225 2 11.6164
      vertex 132.615 0 10.8498
      vertex 132.225 0 11.6164
    endloop
  endfacet
  facet normal 0.987616 0 -0.156893
    outer loop
      vertex 127.385 0 10.8498
      vertex 127.25 2 10
      vertex 127.385 2 10.8498
    endloop
  endfacet
  facet normal 0.987616 0 -0.156893
    outer loop
      vertex 127.25 2 10
      vertex 127.385 0 10.8498
      vertex 127.25 0 10
    endloop
  endfacet
  facet normal 0.454271 0 -0.890864
    outer loop
      vertex 128.384 0 12.2248
      vertex 129.15 2 12.6154
      vertex 129.15 0 12.6154
    endloop
  endfacet
  facet normal 0.454271 0 -0.890864
    outer loop
      vertex 129.15 2 12.6154
      vertex 128.384 0 12.2248
      vertex 128.384 2 12.2248
    endloop
  endfacet
  facet normal 0.706758 0 -0.707455
    outer loop
      vertex 127.775 0 11.6164
      vertex 128.384 2 12.2248
      vertex 128.384 0 12.2248
    endloop
  endfacet
  facet normal 0.706758 0 -0.707455
    outer loop
      vertex 128.384 2 12.2248
      vertex 127.775 0 11.6164
      vertex 127.775 2 11.6164
    endloop
  endfacet
  facet normal 0.89129 0 -0.453435
    outer loop
      vertex 127.775 0 11.6164
      vertex 127.385 2 10.8498
      vertex 127.775 2 11.6164
    endloop
  endfacet
  facet normal 0.89129 0 -0.453435
    outer loop
      vertex 127.385 2 10.8498
      vertex 127.775 0 11.6164
      vertex 127.385 0 10.8498
    endloop
  endfacet
  facet normal -0.987616 0 -0.156893
    outer loop
      vertex 132.75 0 10
      vertex 132.615 2 10.8498
      vertex 132.75 2 10
    endloop
  endfacet
  facet normal -0.987616 -0 -0.156893
    outer loop
      vertex 132.615 2 10.8498
      vertex 132.75 0 10
      vertex 132.615 0 10.8498
    endloop
  endfacet
  facet normal 0.156404 0 -0.987693
    outer loop
      vertex 129.15 0 12.6154
      vertex 130 2 12.75
      vertex 130 0 12.75
    endloop
  endfacet
  facet normal 0.156404 0 -0.987693
    outer loop
      vertex 130 2 12.75
      vertex 129.15 0 12.6154
      vertex 129.15 2 12.6154
    endloop
  endfacet
  facet normal 0 0 1
    outer loop
      vertex 120 55 52
      vertex 115 20 52
      vertex 120 2 52
    endloop
  endfacet
  facet normal 0 0 1
    outer loop
      vertex 120 55 52
      vertex 95.6 44.6 52
      vertex 115 20 52
    endloop
  endfacet
  facet normal 0 0 1
    outer loop
      vertex 120 55 52
      vertex 86 44.6 52
      vertex 95.6 44.6 52
    endloop
  endfacet
  facet normal 0 0 1
    outer loop
      vertex 86 44.6 52
      vertex 73.5 37.5 52
      vertex 86 30.4 52
    endloop
  endfacet
  facet normal 0 0 1
    outer loop
      vertex 86 44.6 52
      vertex 73.3798 38.6435 52
      vertex 73.5 37.5 52
    endloop
  endfacet
  facet normal 0 0 1
    outer loop
      vertex 86 44.6 52
      vertex 73.0245 39.7371 52
      vertex 73.3798 38.6435 52
    endloop
  endfacet
  facet normal 0 0 1
    outer loop
      vertex 86 44.6 52
      vertex 72.4496 40.7328 52
      vertex 73.0245 39.7371 52
    endloop
  endfacet
  facet normal 0 0 1
    outer loop
      vertex 67.4251 42.9699 52
      vertex 86 44.6 52
      vertex 120 55 52
    endloop
  endfacet
  facet normal 0 0 1
    outer loop
      vertex 86 44.6 52
      vertex 71.6802 41.5873 52
      vertex 72.4496 40.7328 52
    endloop
  endfacet
  facet normal 0 0 1
    outer loop
      vertex 86 44.6 52
      vertex 70.75 42.2631 52
      vertex 71.6802 41.5873 52
    endloop
  endfacet
  facet normal 0 0 1
    outer loop
      vertex 86 44.6 52
      vertex 69.6996 42.7308 52
      vertex 70.75 42.2631 52
    endloop
  endfacet
  facet normal 0 0 1
    outer loop
      vertex 86 44.6 52
      vertex 68.5749 42.9699 52
      vertex 69.6996 42.7308 52
    endloop
  endfacet
  facet normal 0 0 1
    outer loop
      vertex 86 44.6 52
      vertex 67.4251 42.9699 52
      vertex 68.5749 42.9699 52
    endloop
  endfacet
  facet normal -0 0 1
    outer loop
      vertex 0 55 52
      vertex 67.4251 42.9699 52
      vertex 120 55 52
    endloop
  endfacet
  facet normal 0 0 1
    outer loop
      vertex 62.6202 38.6435 52
      vertex 5 20 52
      vertex 62.5 37.5 52
    endloop
  endfacet
  facet normal 0 0 1
    outer loop
      vertex 0 55 52
      vertex 62.6202 38.6435 52
      vertex 62.9755 39.7371 52
    endloop
  endfacet
  facet normal 0 0 1
    outer loop
      vertex 0 55 52
      vertex 62.9755 39.7371 52
      vertex 63.5504 40.7328 52
    endloop
  endfacet
  facet normal 0 0 1
    outer loop
      vertex 0 55 52
      vertex 63.5504 40.7328 52
      vertex 64.3198 41.5873 52
    endloop
  endfacet
  facet normal 0 0 1
    outer loop
      vertex 0 55 52
      vertex 64.3198 41.5873 52
      vertex 65.25 42.2631 52
    endloop
  endfacet
  facet normal 0 0 1
    outer loop
      vertex 0 55 52
      vertex 65.25 42.2631 52
      vertex 66.3004 42.7308 52
    endloop
  endfacet
  facet normal 0 0 1
    outer loop
      vertex 0 0 52
      vertex 5 20 52
      vertex 0 55 52
    endloop
  endfacet
  facet normal 0 0 1
    outer loop
      vertex 62.6202 38.6435 52
      vertex 0 55 52
      vertex 5 20 52
    endloop
  endfacet
  facet normal 0 0 1
    outer loop
      vertex 67.4251 42.9699 52
      vertex 0 55 52
      vertex 66.3004 42.7308 52
    endloop
  endfacet
  facet normal -0 0 1
    outer loop
      vertex 120 2 52
      vertex 140 0 52
      vertex 140 2 52
    endloop
  endfacet
  facet normal -0 0 1
    outer loop
      vertex 115 5 52
      vertex 120 2 52
      vertex 115 20 52
    endloop
  endfacet
  facet normal 0 0 1
    outer loop
      vertex 0 0 52
      vertex 115 5 52
      vertex 5 5 52
    endloop
  endfacet
  facet normal 0 0 1
    outer loop
      vertex 115 5 52
      vertex 0 0 52
      vertex 120 2 52
    endloop
  endfacet
  facet normal 0 0 1
    outer loop
      vertex 120 2 52
      vertex 0 0 52
      vertex 140 0 52
    endloop
  endfacet
  facet normal 0 0 1
    outer loop
      vertex 5 20 52
      vertex 0 0 52
      vertex 5 5 52
    endloop
  endfacet
  facet normal -0 0 1
    outer loop
      vertex 95.6 30.4 52
      vertex 115 20 52
      vertex 95.6 44.6 52
    endloop
  endfacet
  facet normal -0 0 1
    outer loop
      vertex 86 30.4 52
      vertex 115 20 52
      vertex 95.6 30.4 52
    endloop
  endfacet
  facet normal -0 0 1
    outer loop
      vertex 73.3798 36.3565 52
      vertex 86 30.4 52
      vertex 73.5 37.5 52
    endloop
  endfacet
  facet normal -0 0 1
    outer loop
      vertex 73.0245 35.2629 52
      vertex 86 30.4 52
      vertex 73.3798 36.3565 52
    endloop
  endfacet
  facet normal -0 0 1
    outer loop
      vertex 72.4496 34.2672 52
      vertex 86 30.4 52
      vertex 73.0245 35.2629 52
    endloop
  endfacet
  facet normal -0 0 1
    outer loop
      vertex 71.6802 33.4127 52
      vertex 86 30.4 52
      vertex 72.4496 34.2672 52
    endloop
  endfacet
  facet normal -0 0 1
    outer loop
      vertex 70.75 32.7369 52
      vertex 86 30.4 52
      vertex 71.6802 33.4127 52
    endloop
  endfacet
  facet normal -0 0 1
    outer loop
      vertex 69.6996 32.2692 52
      vertex 86 30.4 52
      vertex 70.75 32.7369 52
    endloop
  endfacet
  facet normal -0 0 1
    outer loop
      vertex 68.5749 32.0301 52
      vertex 86 30.4 52
      vertex 69.6996 32.2692 52
    endloop
  endfacet
  facet normal 0 0 1
    outer loop
      vertex 86 30.4 52
      vertex 68.5749 32.0301 52
      vertex 115 20 52
    endloop
  endfacet
  facet normal -0 0 1
    outer loop
      vertex 67.4251 32.0301 52
      vertex 115 20 52
      vertex 68.5749 32.0301 52
    endloop
  endfacet
  facet normal 0 0 1
    outer loop
      vertex 5 20 52
      vertex 67.4251 32.0301 52
      vertex 66.3004 32.2692 52
    endloop
  endfacet
  facet normal 0 0 1
    outer loop
      vertex 67.4251 32.0301 52
      vertex 5 20 52
      vertex 115 20 52
    endloop
  endfacet
  facet normal 0 0 1
    outer loop
      vertex 65.25 32.7369 52
      vertex 5 20 52
      vertex 66.3004 32.2692 52
    endloop
  endfacet
  facet normal 0 0 1
    outer loop
      vertex 64.3198 33.4127 52
      vertex 5 20 52
      vertex 65.25 32.7369 52
    endloop
  endfacet
  facet normal 0 0 1
    outer loop
      vertex 63.5504 34.2672 52
      vertex 5 20 52
      vertex 64.3198 33.4127 52
    endloop
  endfacet
  facet normal 0 0 1
    outer loop
      vertex 62.9755 35.2629 52
      vertex 5 20 52
      vertex 63.5504 34.2672 52
    endloop
  endfacet
  facet normal 0 0 1
    outer loop
      vertex 62.6202 36.3565 52
      vertex 5 20 52
      vertex 62.9755 35.2629 52
    endloop
  endfacet
  facet normal 0 0 1
    outer loop
      vertex 5 20 52
      vertex 62.6202 36.3565 52
      vertex 62.5 37.5 52
    endloop
  endfacet
  facet normal -0.987616 0 0.156893
    outer loop
      vertex 132.615 0 41.1502
      vertex 132.75 2 42
      vertex 132.615 2 41.1502
    endloop
  endfacet
  facet normal -0.987616 0 0.156893
    outer loop
      vertex 132.75 2 42
      vertex 132.615 0 41.1502
      vertex 132.75 0 42
    endloop
  endfacet
  facet normal 0.156404 0 0.987693
    outer loop
      vertex 129.15 2 39.3846
      vertex 130 0 39.25
      vertex 130 2 39.25
    endloop
  endfacet
  facet normal 0.156404 0 0.987693
    outer loop
      vertex 130 0 39.25
      vertex 129.15 2 39.3846
      vertex 129.15 0 39.3846
    endloop
  endfacet
  facet normal -0.156404 0 -0.987693
    outer loop
      vertex 130 0 44.75
      vertex 130.85 2 44.6154
      vertex 130.85 0 44.6154
    endloop
  endfacet
  facet normal -0.156404 0 -0.987693
    outer loop
      vertex 130.85 2 44.6154
      vertex 130 0 44.75
      vertex 130 2 44.75
    endloop
  endfacet
  facet normal -0.454271 0 -0.890864
    outer loop
      vertex 130.85 0 44.6154
      vertex 131.616 2 44.2248
      vertex 131.616 0 44.2248
    endloop
  endfacet
  facet normal -0.454271 0 -0.890864
    outer loop
      vertex 131.616 2 44.2248
      vertex 130.85 0 44.6154
      vertex 130.85 2 44.6154
    endloop
  endfacet
  facet normal -0.706758 0 0.707455
    outer loop
      vertex 131.616 0 39.7752
      vertex 132.225 2 40.3836
      vertex 131.616 2 39.7752
    endloop
  endfacet
  facet normal -0.706758 0 0.707455
    outer loop
      vertex 132.225 2 40.3836
      vertex 131.616 0 39.7752
      vertex 132.225 0 40.3836
    endloop
  endfacet
  facet normal -0.89129 0 0.453435
    outer loop
      vertex 132.225 0 40.3836
      vertex 132.615 2 41.1502
      vertex 132.225 2 40.3836
    endloop
  endfacet
  facet normal -0.89129 0 0.453435
    outer loop
      vertex 132.615 2 41.1502
      vertex 132.225 0 40.3836
      vertex 132.615 0 41.1502
    endloop
  endfacet
  facet normal -0.454271 0 0.890864
    outer loop
      vertex 130.85 2 39.3846
      vertex 131.616 0 39.7752
      vertex 131.616 2 39.7752
    endloop
  endfacet
  facet normal -0.454271 0 0.890864
    outer loop
      vertex 131.616 0 39.7752
      vertex 130.85 2 39.3846
      vertex 130.85 0 39.3846
    endloop
  endfacet
  facet normal 0.706758 0 0.707455
    outer loop
      vertex 127.775 2 40.3836
      vertex 128.384 0 39.7752
      vertex 128.384 2 39.7752
    endloop
  endfacet
  facet normal 0.706758 0 0.707455
    outer loop
      vertex 128.384 0 39.7752
      vertex 127.775 2 40.3836
      vertex 127.775 0 40.3836
    endloop
  endfacet
  facet normal 0.89129 -0 0.453435
    outer loop
      vertex 127.385 0 41.1502
      vertex 127.775 2 40.3836
      vertex 127.385 2 41.1502
    endloop
  endfacet
  facet normal 0.89129 0 0.453435
    outer loop
      vertex 127.775 2 40.3836
      vertex 127.385 0 41.1502
      vertex 127.775 0 40.3836
    endloop
  endfacet
  facet normal 0.454271 0 0.890864
    outer loop
      vertex 128.384 2 39.7752
      vertex 129.15 0 39.3846
      vertex 129.15 2 39.3846
    endloop
  endfacet
  facet normal 0.454271 0 0.890864
    outer loop
      vertex 129.15 0 39.3846
      vertex 128.384 2 39.7752
      vertex 128.384 0 39.7752
    endloop
  endfacet
  facet normal -0.156404 0 0.987693
    outer loop
      vertex 130 2 39.25
      vertex 130.85 0 39.3846
      vertex 130.85 2 39.3846
    endloop
  endfacet
  facet normal -0.156404 0 0.987693
    outer loop
      vertex 130.85 0 39.3846
      vertex 130 2 39.25
      vertex 130 0 39.25
    endloop
  endfacet
  facet normal 0.987616 -0 0.156893
    outer loop
      vertex 127.25 0 42
      vertex 127.385 2 41.1502
      vertex 127.25 2 42
    endloop
  endfacet
  facet normal 0.987616 0 0.156893
    outer loop
      vertex 127.385 2 41.1502
      vertex 127.25 0 42
      vertex 127.385 0 41.1502
    endloop
  endfacet
  facet normal -0.706758 0 -0.707455
    outer loop
      vertex 132.225 0 43.6164
      vertex 131.616 2 44.2248
      vertex 132.225 2 43.6164
    endloop
  endfacet
  facet normal -0.706758 -0 -0.707455
    outer loop
      vertex 131.616 2 44.2248
      vertex 132.225 0 43.6164
      vertex 131.616 0 44.2248
    endloop
  endfacet
  facet normal -0.89129 0 -0.453435
    outer loop
      vertex 132.615 0 42.8498
      vertex 132.225 2 43.6164
      vertex 132.615 2 42.8498
    endloop
  endfacet
  facet normal -0.89129 -0 -0.453435
    outer loop
      vertex 132.225 2 43.6164
      vertex 132.615 0 42.8498
      vertex 132.225 0 43.6164
    endloop
  endfacet
  facet normal 0.987616 0 -0.156893
    outer loop
      vertex 127.385 0 42.8498
      vertex 127.25 2 42
      vertex 127.385 2 42.8498
    endloop
  endfacet
  facet normal 0.987616 0 -0.156893
    outer loop
      vertex 127.25 2 42
      vertex 127.385 0 42.8498
      vertex 127.25 0 42
    endloop
  endfacet
  facet normal 0.454271 0 -0.890864
    outer loop
      vertex 128.384 0 44.2248
      vertex 129.15 2 44.6154
      vertex 129.15 0 44.6154
    endloop
  endfacet
  facet normal 0.454271 0 -0.890864
    outer loop
      vertex 129.15 2 44.6154
      vertex 128.384 0 44.2248
      vertex 128.384 2 44.2248
    endloop
  endfacet
  facet normal 0.706758 0 -0.707455
    outer loop
      vertex 127.775 0 43.6164
      vertex 128.384 2 44.2248
      vertex 128.384 0 44.2248
    endloop
  endfacet
  facet normal 0.706758 0 -0.707455
    outer loop
      vertex 128.384 2 44.2248
      vertex 127.775 0 43.6164
      vertex 127.775 2 43.6164
    endloop
  endfacet
  facet normal 0.89129 0 -0.453435
    outer loop
      vertex 127.775 0 43.6164
      vertex 127.385 2 42.8498
      vertex 127.775 2 43.6164
    endloop
  endfacet
  facet normal 0.89129 0 -0.453435
    outer loop
      vertex 127.385 2 42.8498
      vertex 127.775 0 43.6164
      vertex 127.385 0 42.8498
    endloop
  endfacet
  facet normal -0.987616 0 -0.156893
    outer loop
      vertex 132.75 0 42
      vertex 132.615 2 42.8498
      vertex 132.75 2 42
    endloop
  endfacet
  facet normal -0.987616 -0 -0.156893
    outer loop
      vertex 132.615 2 42.8498
      vertex 132.75 0 42
      vertex 132.615 0 42.8498
    endloop
  endfacet
  facet normal 0.156404 0 -0.987693
    outer loop
      vertex 129.15 0 44.6154
      vertex 130 2 44.75
      vertex 130 0 44.75
    endloop
  endfacet
  facet normal 0.156404 0 -0.987693
    outer loop
      vertex 130 2 44.75
      vertex 129.15 0 44.6154
      vertex 129.15 2 44.6154
    endloop
  endfacet
  facet normal -0.987616 0 0.156893
    outer loop
      vertex 132.615 0 25.1502
      vertex 132.75 2 26
      vertex 132.615 2 25.1502
    endloop
  endfacet
  facet normal -0.987616 0 0.156893
    outer loop
      vertex 132.75 2 26
      vertex 132.615 0 25.1502
      vertex 132.75 0 26
    endloop
  endfacet
  facet normal 0.156404 0 0.987693
    outer loop
      vertex 129.15 2 23.3846
      vertex 130 0 23.25
      vertex 130 2 23.25
    endloop
  endfacet
  facet normal 0.156404 0 0.987693
    outer loop
      vertex 130 0 23.25
      vertex 129.15 2 23.3846
      vertex 129.15 0 23.3846
    endloop
  endfacet
  facet normal -0.156404 0 -0.987693
    outer loop
      vertex 130 0 28.75
      vertex 130.85 2 28.6154
      vertex 130.85 0 28.6154
    endloop
  endfacet
  facet normal -0.156404 0 -0.987693
    outer loop
      vertex 130.85 2 28.6154
      vertex 130 0 28.75
      vertex 130 2 28.75
    endloop
  endfacet
  facet normal -0.454271 0 -0.890864
    outer loop
      vertex 130.85 0 28.6154
      vertex 131.616 2 28.2248
      vertex 131.616 0 28.2248
    endloop
  endfacet
  facet normal -0.454271 0 -0.890864
    outer loop
      vertex 131.616 2 28.2248
      vertex 130.85 0 28.6154
      vertex 130.85 2 28.6154
    endloop
  endfacet
  facet normal -0.706758 0 0.707455
    outer loop
      vertex 131.616 0 23.7752
      vertex 132.225 2 24.3836
      vertex 131.616 2 23.7752
    endloop
  endfacet
  facet normal -0.706758 0 0.707455
    outer loop
      vertex 132.225 2 24.3836
      vertex 131.616 0 23.7752
      vertex 132.225 0 24.3836
    endloop
  endfacet
  facet normal -0.89129 0 0.453435
    outer loop
      vertex 132.225 0 24.3836
      vertex 132.615 2 25.1502
      vertex 132.225 2 24.3836
    endloop
  endfacet
  facet normal -0.89129 0 0.453435
    outer loop
      vertex 132.615 2 25.1502
      vertex 132.225 0 24.3836
      vertex 132.615 0 25.1502
    endloop
  endfacet
  facet normal -0.454271 0 0.890864
    outer loop
      vertex 130.85 2 23.3846
      vertex 131.616 0 23.7752
      vertex 131.616 2 23.7752
    endloop
  endfacet
  facet normal -0.454271 0 0.890864
    outer loop
      vertex 131.616 0 23.7752
      vertex 130.85 2 23.3846
      vertex 130.85 0 23.3846
    endloop
  endfacet
  facet normal 0.706758 0 0.707455
    outer loop
      vertex 127.775 2 24.3836
      vertex 128.384 0 23.7752
      vertex 128.384 2 23.7752
    endloop
  endfacet
  facet normal 0.706758 0 0.707455
    outer loop
      vertex 128.384 0 23.7752
      vertex 127.775 2 24.3836
      vertex 127.775 0 24.3836
    endloop
  endfacet
  facet normal 0.89129 -0 0.453435
    outer loop
      vertex 127.385 0 25.1502
      vertex 127.775 2 24.3836
      vertex 127.385 2 25.1502
    endloop
  endfacet
  facet normal 0.89129 0 0.453435
    outer loop
      vertex 127.775 2 24.3836
      vertex 127.385 0 25.1502
      vertex 127.775 0 24.3836
    endloop
  endfacet
  facet normal 0.454271 0 0.890864
    outer loop
      vertex 128.384 2 23.7752
      vertex 129.15 0 23.3846
      vertex 129.15 2 23.3846
    endloop
  endfacet
  facet normal 0.454271 0 0.890864
    outer loop
      vertex 129.15 0 23.3846
      vertex 128.384 2 23.7752
      vertex 128.384 0 23.7752
    endloop
  endfacet
  facet normal -0.156404 0 0.987693
    outer loop
      vertex 130 2 23.25
      vertex 130.85 0 23.3846
      vertex 130.85 2 23.3846
    endloop
  endfacet
  facet normal -0.156404 0 0.987693
    outer loop
      vertex 130.85 0 23.3846
      vertex 130 2 23.25
      vertex 130 0 23.25
    endloop
  endfacet
  facet normal 0.987616 -0 0.156893
    outer loop
      vertex 127.25 0 26
      vertex 127.385 2 25.1502
      vertex 127.25 2 26
    endloop
  endfacet
  facet normal 0.987616 0 0.156893
    outer loop
      vertex 127.385 2 25.1502
      vertex 127.25 0 26
      vertex 127.385 0 25.1502
    endloop
  endfacet
  facet normal -0.706758 0 -0.707455
    outer loop
      vertex 132.225 0 27.6164
      vertex 131.616 2 28.2248
      vertex 132.225 2 27.6164
    endloop
  endfacet
  facet normal -0.706758 -0 -0.707455
    outer loop
      vertex 131.616 2 28.2248
      vertex 132.225 0 27.6164
      vertex 131.616 0 28.2248
    endloop
  endfacet
  facet normal -0.89129 0 -0.453435
    outer loop
      vertex 132.615 0 26.8498
      vertex 132.225 2 27.6164
      vertex 132.615 2 26.8498
    endloop
  endfacet
  facet normal -0.89129 -0 -0.453435
    outer loop
      vertex 132.225 2 27.6164
      vertex 132.615 0 26.8498
      vertex 132.225 0 27.6164
    endloop
  endfacet
  facet normal 0.987616 0 -0.156893
    outer loop
      vertex 127.385 0 26.8498
      vertex 127.25 2 26
      vertex 127.385 2 26.8498
    endloop
  endfacet
  facet normal 0.987616 0 -0.156893
    outer loop
      vertex 127.25 2 26
      vertex 127.385 0 26.8498
      vertex 127.25 0 26
    endloop
  endfacet
  facet normal 0.454271 0 -0.890864
    outer loop
      vertex 128.384 0 28.2248
      vertex 129.15 2 28.6154
      vertex 129.15 0 28.6154
    endloop
  endfacet
  facet normal 0.454271 0 -0.890864
    outer loop
      vertex 129.15 2 28.6154
      vertex 128.384 0 28.2248
      vertex 128.384 2 28.2248
    endloop
  endfacet
  facet normal 0.706758 0 -0.707455
    outer loop
      vertex 127.775 0 27.6164
      vertex 128.384 2 28.2248
      vertex 128.384 0 28.2248
    endloop
  endfacet
  facet normal 0.706758 0 -0.707455
    outer loop
      vertex 128.384 2 28.2248
      vertex 127.775 0 27.6164
      vertex 127.775 2 27.6164
    endloop
  endfacet
  facet normal 0.89129 0 -0.453435
    outer loop
      vertex 127.775 0 27.6164
      vertex 127.385 2 26.8498
      vertex 127.775 2 27.6164
    endloop
  endfacet
  facet normal 0.89129 0 -0.453435
    outer loop
      vertex 127.385 2 26.8498
      vertex 127.775 0 27.6164
      vertex 127.385 0 26.8498
    endloop
  endfacet
  facet normal -0.987616 0 -0.156893
    outer loop
      vertex 132.75 0 26
      vertex 132.615 2 26.8498
      vertex 132.75 2 26
    endloop
  endfacet
  facet normal -0.987616 -0 -0.156893
    outer loop
      vertex 132.615 2 26.8498
      vertex 132.75 0 26
      vertex 132.615 0 26.8498
    endloop
  endfacet
  facet normal 0.156404 0 -0.987693
    outer loop
      vertex 129.15 0 28.6154
      vertex 130 2 28.75
      vertex 130 0 28.75
    endloop
  endfacet
  facet normal 0.156404 0 -0.987693
    outer loop
      vertex 130 2 28.75
      vertex 129.15 0 28.6154
      vertex 129.15 2 28.6154
    endloop
  endfacet
  facet normal -1 0 0
    outer loop
      vertex 0 0 0
      vertex 0 55 52
      vertex 0 55 0
    endloop
  endfacet
  facet normal -1 -0 0
    outer loop
      vertex 0 55 52
      vertex 0 0 0
      vertex 0 0 52
    endloop
  endfacet
  facet normal 0 1 0
    outer loop
      vertex 120 55 52
      vertex 21 55 48
      vertex 0 55 52
    endloop
  endfacet
  facet normal 0 1 0
    outer loop
      vertex 120 55 52
      vertex 21 55 33
      vertex 21 55 48
    endloop
  endfacet
  facet normal 0 1 0
    outer loop
      vertex 0 55 0
      vertex 21 55 33
      vertex 120 55 0
    endloop
  endfacet
  facet normal 0 1 -0
    outer loop
      vertex 120 55 0
      vertex 21 55 33
      vertex 120 55 52
    endloop
  endfacet
  facet normal 0 1 -0
    outer loop
      vertex 6 55 48
      vertex 0 55 52
      vertex 21 55 48
    endloop
  endfacet
  facet normal 0 1 -0
    outer loop
      vertex 6 55 33
      vertex 0 55 52
      vertex 6 55 48
    endloop
  endfacet
  facet normal 0 1 0
    outer loop
      vertex 6 55 33
      vertex 0 55 0
      vertex 0 55 52
    endloop
  endfacet
  facet normal 0 1 0
    outer loop
      vertex 21 55 33
      vertex 0 55 0
      vertex 6 55 33
    endloop
  endfacet
  facet normal 1 0 0
    outer loop
      vertex 2 53 50
      vertex 2 24.5 12
      vertex 2 53 0
    endloop
  endfacet
  facet normal 1 -0 0
    outer loop
      vertex 2 2 50
      vertex 2 24.5 12
      vertex 2 53 50
    endloop
  endfacet
  facet normal 1 0 0
    outer loop
      vertex 2 2 0
      vertex 2 4.5 12
      vertex 2 2 50
    endloop
  endfacet
  facet normal 1 0 0
    outer loop
      vertex 2 24.5 12
      vertex 2 2 50
      vertex 2 4.5 12
    endloop
  endfacet
  facet normal 1 -0 0
    outer loop
      vertex 2 24.5 10
      vertex 2 53 0
      vertex 2 24.5 12
    endloop
  endfacet
  facet normal 1 0 0
    outer loop
      vertex 2 2 0
      vertex 2 24.5 10
      vertex 2 4.5 10
    endloop
  endfacet
  facet normal 1 0 0
    outer loop
      vertex 2 24.5 10
      vertex 2 2 0
      vertex 2 53 0
    endloop
  endfacet
  facet normal 1 0 0
    outer loop
      vertex 2 4.5 12
      vertex 2 2 0
      vertex 2 4.5 10
    endloop
  endfacet
  facet normal 0 0 -1
    outer loop
      vertex 115 20 50
      vertex 86 30.4 50
      vertex 95.6 30.4 50
    endloop
  endfacet
  facet normal 0 0 -1
    outer loop
      vertex 86 30.4 50
      vertex 73.5 37.5 50
      vertex 86 44.6 50
    endloop
  endfacet
  facet normal 0 0 -1
    outer loop
      vertex 86 30.4 50
      vertex 73.3798 36.3565 50
      vertex 73.5 37.5 50
    endloop
  endfacet
  facet normal 0 0 -1
    outer loop
      vertex 86 30.4 50
      vertex 73.0245 35.2629 50
      vertex 73.3798 36.3565 50
    endloop
  endfacet
  facet normal 0 0 -1
    outer loop
      vertex 86 30.4 50
      vertex 72.4496 34.2672 50
      vertex 73.0245 35.2629 50
    endloop
  endfacet
  facet normal 0 0 -1
    outer loop
      vertex 68.5749 32.0301 50
      vertex 86 30.4 50
      vertex 115 20 50
    endloop
  endfacet
  facet normal 0 0 -1
    outer loop
      vertex 86 30.4 50
      vertex 71.6802 33.4127 50
      vertex 72.4496 34.2672 50
    endloop
  endfacet
  facet normal 0 0 -1
    outer loop
      vertex 86 30.4 50
      vertex 70.75 32.7369 50
      vertex 71.6802 33.4127 50
    endloop
  endfacet
  facet normal 0 0 -1
    outer loop
      vertex 86 30.4 50
      vertex 69.6996 32.2692 50
      vertex 70.75 32.7369 50
    endloop
  endfacet
  facet normal 0 0 -1
    outer loop
      vertex 86 30.4 50
      vertex 68.5749 32.0301 50
      vertex 69.6996 32.2692 50
    endloop
  endfacet
  facet normal 0 0 -1
    outer loop
      vertex 115 20 50
      vertex 67.4251 32.0301 50
      vertex 68.5749 32.0301 50
    endloop
  endfacet
  facet normal 0 0 -1
    outer loop
      vertex 5 20 50
      vertex 67.4251 32.0301 50
      vertex 115 20 50
    endloop
  endfacet
  facet normal -0 0 -1
    outer loop
      vertex 62.6202 36.3565 50
      vertex 5 20 50
      vertex 62.5 37.5 50
    endloop
  endfacet
  facet normal -0 0 -1
    outer loop
      vertex 62.9755 35.2629 50
      vertex 5 20 50
      vertex 62.6202 36.3565 50
    endloop
  endfacet
  facet normal -0 0 -1
    outer loop
      vertex 63.5504 34.2672 50
      vertex 5 20 50
      vertex 62.9755 35.2629 50
    endloop
  endfacet
  facet normal -0 0 -1
    outer loop
      vertex 64.3198 33.4127 50
      vertex 5 20 50
      vertex 63.5504 34.2672 50
    endloop
  endfacet
  facet normal -0 0 -1
    outer loop
      vertex 65.25 32.7369 50
      vertex 5 20 50
      vertex 64.3198 33.4127 50
    endloop
  endfacet
  facet normal -0 0 -1
    outer loop
      vertex 66.3004 32.2692 50
      vertex 5 20 50
      vertex 65.25 32.7369 50
    endloop
  endfacet
  facet normal -0 0 -1
    outer loop
      vertex 67.4251 32.0301 50
      vertex 5 20 50
      vertex 66.3004 32.2692 50
    endloop
  endfacet
  facet normal 0 0 -1
    outer loop
      vertex 115 20 50
      vertex 118 2 50
      vertex 115 5 50
    endloop
  endfacet
  facet normal 0 0 -1
    outer loop
      vertex 118 2 50
      vertex 5 5 50
      vertex 115 5 50
    endloop
  endfacet
  facet normal -0 0 -1
    outer loop
      vertex 5 5 50
      vertex 2 2 50
      vertex 5 20 50
    endloop
  endfacet
  facet normal 0 0 -1
    outer loop
      vertex 2 2 50
      vertex 5 5 50
      vertex 118 2 50
    endloop
  endfacet
  facet normal 0 0 -1
    outer loop
      vertex 118 2 50
      vertex 115 20 50
      vertex 118 53 50
    endloop
  endfacet
  facet normal 0 0 -1
    outer loop
      vertex 95.6 30.4 50
      vertex 118 53 50
      vertex 115 20 50
    endloop
  endfacet
  facet normal 0 0 -1
    outer loop
      vertex 95.6 44.6 50
      vertex 118 53 50
      vertex 95.6 30.4 50
    endloop
  endfacet
  facet normal 0 0 -1
    outer loop
      vertex 86 44.6 50
      vertex 118 53 50
      vertex 95.6 44.6 50
    endloop
  endfacet
  facet normal 0 0 -1
    outer loop
      vertex 73.3798 38.6435 50
      vertex 86 44.6 50
      vertex 73.5 37.5 50
    endloop
  endfacet
  facet normal 0 0 -1
    outer loop
      vertex 73.0245 39.7371 50
      vertex 86 44.6 50
      vertex 73.3798 38.6435 50
    endloop
  endfacet
  facet normal 0 0 -1
    outer loop
      vertex 72.4496 40.7328 50
      vertex 86 44.6 50
      vertex 73.0245 39.7371 50
    endloop
  endfacet
  facet normal 0 0 -1
    outer loop
      vertex 71.6802 41.5873 50
      vertex 86 44.6 50
      vertex 72.4496 40.7328 50
    endloop
  endfacet
  facet normal 0 0 -1
    outer loop
      vertex 70.75 42.2631 50
      vertex 86 44.6 50
      vertex 71.6802 41.5873 50
    endloop
  endfacet
  facet normal 0 0 -1
    outer loop
      vertex 69.6996 42.7308 50
      vertex 86 44.6 50
      vertex 70.75 42.2631 50
    endloop
  endfacet
  facet normal 0 0 -1
    outer loop
      vertex 68.5749 42.9699 50
      vertex 86 44.6 50
      vertex 69.6996 42.7308 50
    endloop
  endfacet
  facet normal 0 0 -1
    outer loop
      vertex 67.4251 42.9699 50
      vertex 86 44.6 50
      vertex 68.5749 42.9699 50
    endloop
  endfacet
  facet normal -0 0 -1
    outer loop
      vertex 86 44.6 50
      vertex 67.4251 42.9699 50
      vertex 118 53 50
    endloop
  endfacet
  facet normal 0 0 -1
    outer loop
      vertex 2 53 50
      vertex 62.5 37.5 50
      vertex 5 20 50
    endloop
  endfacet
  facet normal 0 0 -1
    outer loop
      vertex 62.5 37.5 50
      vertex 2 53 50
      vertex 62.6202 38.6435 50
    endloop
  endfacet
  facet normal 0 0 -1
    outer loop
      vertex 62.6202 38.6435 50
      vertex 2 53 50
      vertex 62.9755 39.7371 50
    endloop
  endfacet
  facet normal 0 0 -1
    outer loop
      vertex 62.9755 39.7371 50
      vertex 2 53 50
      vertex 63.5504 40.7328 50
    endloop
  endfacet
  facet normal 0 0 -1
    outer loop
      vertex 63.5504 40.7328 50
      vertex 2 53 50
      vertex 64.3198 41.5873 50
    endloop
  endfacet
  facet normal 0 0 -1
    outer loop
      vertex 64.3198 41.5873 50
      vertex 2 53 50
      vertex 65.25 42.2631 50
    endloop
  endfacet
  facet normal 0 0 -1
    outer loop
      vertex 67.4251 42.9699 50
      vertex 2 53 50
      vertex 118 53 50
    endloop
  endfacet
  facet normal 0 0 -1
    outer loop
      vertex 66.3004 42.7308 50
      vertex 2 53 50
      vertex 67.4251 42.9699 50
    endloop
  endfacet
  facet normal 0 0 -1
    outer loop
      vertex 65.25 42.2631 50
      vertex 2 53 50
      vertex 66.3004 42.7308 50
    endloop
  endfacet
  facet normal 0 0 -1
    outer loop
      vertex 2 53 50
      vertex 5 20 50
      vertex 2 2 50
    endloop
  endfacet
  facet normal -1 0 0
    outer loop
      vertex 118 30.5 12
      vertex 118 49.65 29.5
      vertex 118 50.5 12
    endloop
  endfacet
  facet normal -1 -0 0
    outer loop
      vertex 118 49.65 29.5
      vertex 118 30.5 12
      vertex 118 21.35 29.5
    endloop
  endfacet
  facet normal -1 0 0
    outer loop
      vertex 118 50.5 12
      vertex 118 53 0
      vertex 118 50.5 10
    endloop
  endfacet
  facet normal -1 0 0
    outer loop
      vertex 118 53 0
      vertex 118 30.5 10
      vertex 118 50.5 10
    endloop
  endfacet
  facet normal -1 0 0
    outer loop
      vertex 118 2 0
      vertex 118 30.5 12
      vertex 118 30.5 10
    endloop
  endfacet
  facet normal -1 0 0
    outer loop
      vertex 118 2 50
      vertex 118 21.35 29.5
      vertex 118 2 0
    endloop
  endfacet
  facet normal -1 -0 0
    outer loop
      vertex 118 30.5 12
      vertex 118 2 0
      vertex 118 21.35 29.5
    endloop
  endfacet
  facet normal -1 0 0
    outer loop
      vertex 118 2 0
      vertex 118 30.5 10
      vertex 118 53 0
    endloop
  endfacet
  facet normal -1 0 0
    outer loop
      vertex 118 53 0
      vertex 118 50.5 12
      vertex 118 53 50
    endloop
  endfacet
  facet normal -1 0 0
    outer loop
      vertex 118 49.65 29.5
      vertex 118 53 50
      vertex 118 50.5 12
    endloop
  endfacet
  facet normal -1 0 0
    outer loop
      vertex 118 49.65 48
      vertex 118 53 50
      vertex 118 49.65 29.5
    endloop
  endfacet
  facet normal -1 0 0
    outer loop
      vertex 118 21.35 48
      vertex 118 53 50
      vertex 118 49.65 48
    endloop
  endfacet
  facet normal -1 0 0
    outer loop
      vertex 118 21.35 48
      vertex 118 2 50
      vertex 118 53 50
    endloop
  endfacet
  facet normal -1 0 0
    outer loop
      vertex 118 21.35 29.5
      vertex 118 2 50
      vertex 118 21.35 48
    endloop
  endfacet
  facet normal 0 -1 0
    outer loop
      vertex 21 53 48
      vertex 2 53 50
      vertex 6 53 48
    endloop
  endfacet
  facet normal 0 -1 0
    outer loop
      vertex 2 53 50
      vertex 6 53 33
      vertex 6 53 48
    endloop
  endfacet
  facet normal 0 -1 -0
    outer loop
      vertex 6 53 33
      vertex 2 53 0
      vertex 21 53 33
    endloop
  endfacet
  facet normal 0 -1 0
    outer loop
      vertex 2 53 0
      vertex 6 53 33
      vertex 2 53 50
    endloop
  endfacet
  facet normal 0 -1 0
    outer loop
      vertex 2 53 50
      vertex 21 53 48
      vertex 118 53 50
    endloop
  endfacet
  facet normal 0 -1 0
    outer loop
      vertex 21 53 33
      vertex 118 53 50
      vertex 21 53 48
    endloop
  endfacet
  facet normal 0 -1 0
    outer loop
      vertex 118 53 0
      vertex 21 53 33
      vertex 2 53 0
    endloop
  endfacet
  facet normal 0 -1 0
    outer loop
      vertex 21 53 33
      vertex 118 53 0
      vertex 118 53 50
    endloop
  endfacet
  facet normal 0 1 -0
    outer loop
      vertex 118 2 0
      vertex 2 2 50
      vertex 118 2 50
    endloop
  endfacet
  facet normal 0 1 0
    outer loop
      vertex 2 2 50
      vertex 118 2 0
      vertex 2 2 0
    endloop
  endfacet
  facet normal 0 0 -1
    outer loop
      vertex 118 21.35 48
      vertex 120 49.65 48
      vertex 120 21.35 48
    endloop
  endfacet
  facet normal -0 0 -1
    outer loop
      vertex 120 49.65 48
      vertex 118 21.35 48
      vertex 118 49.65 48
    endloop
  endfacet
  facet normal 0 -1 0
    outer loop
      vertex 118 49.65 29.5
      vertex 120 49.65 48
      vertex 118 49.65 48
    endloop
  endfacet
  facet normal 0 -1 -0
    outer loop
      vertex 120 49.65 48
      vertex 118 49.65 29.5
      vertex 120 49.65 29.5
    endloop
  endfacet
  facet normal -0 0 1
    outer loop
      vertex 118 49.65 29.5
      vertex 120 21.35 29.5
      vertex 120 49.65 29.5
    endloop
  endfacet
  facet normal 0 0 1
    outer loop
      vertex 120 21.35 29.5
      vertex 118 49.65 29.5
      vertex 118 21.35 29.5
    endloop
  endfacet
  facet normal 0 1 -0
    outer loop
      vertex 120 21.35 29.5
      vertex 118 21.35 48
      vertex 120 21.35 48
    endloop
  endfacet
  facet normal 0 1 0
    outer loop
      vertex 118 21.35 48
      vertex 120 21.35 29.5
      vertex 118 21.35 29.5
    endloop
  endfacet
  facet normal -0.587768 -0.809029 0
    outer loop
      vertex 70.75 42.2631 50
      vertex 71.6802 41.5873 52
      vertex 70.75 42.2631 52
    endloop
  endfacet
  facet normal -0.587768 -0.809029 -0
    outer loop
      vertex 71.6802 41.5873 52
      vertex 70.75 42.2631 50
      vertex 71.6802 41.5873 50
    endloop
  endfacet
  facet normal -0.994521 0.10454 0
    outer loop
      vertex 73.3798 36.3565 50
      vertex 73.5 37.5 52
      vertex 73.5 37.5 50
    endloop
  endfacet
  facet normal -0.994521 0.10454 0
    outer loop
      vertex 73.5 37.5 52
      vertex 73.3798 36.3565 50
      vertex 73.3798 36.3565 52
    endloop
  endfacet
  facet normal 0.207943 0.978141 -0
    outer loop
      vertex 67.4251 32.0301 50
      vertex 66.3004 32.2692 52
      vertex 67.4251 32.0301 52
    endloop
  endfacet
  facet normal 0.207943 0.978141 0
    outer loop
      vertex 66.3004 32.2692 52
      vertex 67.4251 32.0301 50
      vertex 66.3004 32.2692 50
    endloop
  endfacet
  facet normal -0.951065 -0.308992 0
    outer loop
      vertex 73.3798 38.6435 50
      vertex 73.0245 39.7371 52
      vertex 73.0245 39.7371 50
    endloop
  endfacet
  facet normal -0.951065 -0.308992 0
    outer loop
      vertex 73.0245 39.7371 52
      vertex 73.3798 38.6435 50
      vertex 73.3798 38.6435 52
    endloop
  endfacet
  facet normal 0.40676 -0.913535 0
    outer loop
      vertex 65.25 42.2631 50
      vertex 66.3004 42.7308 52
      vertex 65.25 42.2631 52
    endloop
  endfacet
  facet normal 0.40676 -0.913535 0
    outer loop
      vertex 66.3004 42.7308 52
      vertex 65.25 42.2631 50
      vertex 66.3004 42.7308 50
    endloop
  endfacet
  facet normal 0.951065 -0.308992 0
    outer loop
      vertex 62.6202 38.6435 52
      vertex 62.9755 39.7371 50
      vertex 62.9755 39.7371 52
    endloop
  endfacet
  facet normal 0.951065 -0.308992 0
    outer loop
      vertex 62.9755 39.7371 50
      vertex 62.6202 38.6435 52
      vertex 62.6202 38.6435 50
    endloop
  endfacet
  facet normal -0.743143 0.669133 0
    outer loop
      vertex 71.6802 33.4127 50
      vertex 72.4496 34.2672 52
      vertex 72.4496 34.2672 50
    endloop
  endfacet
  facet normal -0.743143 0.669133 0
    outer loop
      vertex 72.4496 34.2672 52
      vertex 71.6802 33.4127 50
      vertex 71.6802 33.4127 52
    endloop
  endfacet
  facet normal 0.951065 0.308992 0
    outer loop
      vertex 62.9755 35.2629 52
      vertex 62.6202 36.3565 50
      vertex 62.6202 36.3565 52
    endloop
  endfacet
  facet normal 0.951065 0.308992 0
    outer loop
      vertex 62.6202 36.3565 50
      vertex 62.9755 35.2629 52
      vertex 62.9755 35.2629 50
    endloop
  endfacet
  facet normal -0.866013 -0.500021 0
    outer loop
      vertex 73.0245 39.7371 50
      vertex 72.4496 40.7328 52
      vertex 72.4496 40.7328 50
    endloop
  endfacet
  facet normal -0.866013 -0.500021 0
    outer loop
      vertex 72.4496 40.7328 52
      vertex 73.0245 39.7371 50
      vertex 73.0245 39.7371 52
    endloop
  endfacet
  facet normal -0.743143 -0.669133 0
    outer loop
      vertex 72.4496 40.7328 50
      vertex 71.6802 41.5873 52
      vertex 71.6802 41.5873 50
    endloop
  endfacet
  facet normal -0.743143 -0.669133 0
    outer loop
      vertex 71.6802 41.5873 52
      vertex 72.4496 40.7328 50
      vertex 72.4496 40.7328 52
    endloop
  endfacet
  facet normal -0.40676 -0.913535 0
    outer loop
      vertex 69.6996 42.7308 50
      vertex 70.75 42.2631 52
      vertex 69.6996 42.7308 52
    endloop
  endfacet
  facet normal -0.40676 -0.913535 -0
    outer loop
      vertex 70.75 42.2631 52
      vertex 69.6996 42.7308 50
      vertex 70.75 42.2631 50
    endloop
  endfacet
  facet normal 0 -1 0
    outer loop
      vertex 67.4251 42.9699 50
      vertex 68.5749 42.9699 52
      vertex 67.4251 42.9699 52
    endloop
  endfacet
  facet normal 0 -1 -0
    outer loop
      vertex 68.5749 42.9699 52
      vertex 67.4251 42.9699 50
      vertex 68.5749 42.9699 50
    endloop
  endfacet
  facet normal 0.994521 0.10454 0
    outer loop
      vertex 62.6202 36.3565 52
      vertex 62.5 37.5 50
      vertex 62.5 37.5 52
    endloop
  endfacet
  facet normal 0.994521 0.10454 0
    outer loop
      vertex 62.5 37.5 50
      vertex 62.6202 36.3565 52
      vertex 62.6202 36.3565 50
    endloop
  endfacet
  facet normal 0.866013 -0.500021 0
    outer loop
      vertex 62.9755 39.7371 52
      vertex 63.5504 40.7328 50
      vertex 63.5504 40.7328 52
    endloop
  endfacet
  facet normal 0.866013 -0.500021 0
    outer loop
      vertex 63.5504 40.7328 50
      vertex 62.9755 39.7371 52
      vertex 62.9755 39.7371 50
    endloop
  endfacet
  facet normal 0.587768 -0.809029 0
    outer loop
      vertex 64.3198 41.5873 50
      vertex 65.25 42.2631 52
      vertex 64.3198 41.5873 52
    endloop
  endfacet
  facet normal 0.587768 -0.809029 0
    outer loop
      vertex 65.25 42.2631 52
      vertex 64.3198 41.5873 50
      vertex 65.25 42.2631 50
    endloop
  endfacet
  facet normal 0.207943 -0.978141 0
    outer loop
      vertex 66.3004 42.7308 50
      vertex 67.4251 42.9699 52
      vertex 66.3004 42.7308 52
    endloop
  endfacet
  facet normal 0.207943 -0.978141 0
    outer loop
      vertex 67.4251 42.9699 52
      vertex 66.3004 42.7308 50
      vertex 67.4251 42.9699 50
    endloop
  endfacet
  facet normal 0.743143 -0.669133 0
    outer loop
      vertex 63.5504 40.7328 52
      vertex 64.3198 41.5873 50
      vertex 64.3198 41.5873 52
    endloop
  endfacet
  facet normal 0.743143 -0.669133 0
    outer loop
      vertex 64.3198 41.5873 50
      vertex 63.5504 40.7328 52
      vertex 63.5504 40.7328 50
    endloop
  endfacet
  facet normal -0.994521 -0.10454 0
    outer loop
      vertex 73.5 37.5 50
      vertex 73.3798 38.6435 52
      vertex 73.3798 38.6435 50
    endloop
  endfacet
  facet normal -0.994521 -0.10454 0
    outer loop
      vertex 73.3798 38.6435 52
      vertex 73.5 37.5 50
      vertex 73.5 37.5 52
    endloop
  endfacet
  facet normal -0.207943 0.978141 0
    outer loop
      vertex 69.6996 32.2692 50
      vertex 68.5749 32.0301 52
      vertex 69.6996 32.2692 52
    endloop
  endfacet
  facet normal -0.207943 0.978141 0
    outer loop
      vertex 68.5749 32.0301 52
      vertex 69.6996 32.2692 50
      vertex 68.5749 32.0301 50
    endloop
  endfacet
  facet normal -0.866013 0.500021 0
    outer loop
      vertex 72.4496 34.2672 50
      vertex 73.0245 35.2629 52
      vertex 73.0245 35.2629 50
    endloop
  endfacet
  facet normal -0.866013 0.500021 0
    outer loop
      vertex 73.0245 35.2629 52
      vertex 72.4496 34.2672 50
      vertex 72.4496 34.2672 52
    endloop
  endfacet
  facet normal -0.951065 0.308992 0
    outer loop
      vertex 73.0245 35.2629 50
      vertex 73.3798 36.3565 52
      vertex 73.3798 36.3565 50
    endloop
  endfacet
  facet normal -0.951065 0.308992 0
    outer loop
      vertex 73.3798 36.3565 52
      vertex 73.0245 35.2629 50
      vertex 73.0245 35.2629 52
    endloop
  endfacet
  facet normal -0.40676 0.913535 0
    outer loop
      vertex 70.75 32.7369 50
      vertex 69.6996 32.2692 52
      vertex 70.75 32.7369 52
    endloop
  endfacet
  facet normal -0.40676 0.913535 0
    outer loop
      vertex 69.6996 32.2692 52
      vertex 70.75 32.7369 50
      vertex 69.6996 32.2692 50
    endloop
  endfacet
  facet normal -0.587768 0.809029 0
    outer loop
      vertex 71.6802 33.4127 50
      vertex 70.75 32.7369 52
      vertex 71.6802 33.4127 52
    endloop
  endfacet
  facet normal -0.587768 0.809029 0
    outer loop
      vertex 70.75 32.7369 52
      vertex 71.6802 33.4127 50
      vertex 70.75 32.7369 50
    endloop
  endfacet
  facet normal 0 1 -0
    outer loop
      vertex 68.5749 32.0301 50
      vertex 67.4251 32.0301 52
      vertex 68.5749 32.0301 52
    endloop
  endfacet
  facet normal 0 1 0
    outer loop
      vertex 67.4251 32.0301 52
      vertex 68.5749 32.0301 50
      vertex 67.4251 32.0301 50
    endloop
  endfacet
  facet normal 0.587768 0.809029 -0
    outer loop
      vertex 65.25 32.7369 50
      vertex 64.3198 33.4127 52
      vertex 65.25 32.7369 52
    endloop
  endfacet
  facet normal 0.587768 0.809029 0
    outer loop
      vertex 64.3198 33.4127 52
      vertex 65.25 32.7369 50
      vertex 64.3198 33.4127 50
    endloop
  endfacet
  facet normal 0.866013 0.500021 0
    outer loop
      vertex 63.5504 34.2672 52
      vertex 62.9755 35.2629 50
      vertex 62.9755 35.2629 52
    endloop
  endfacet
  facet normal 0.866013 0.500021 0
    outer loop
      vertex 62.9755 35.2629 50
      vertex 63.5504 34.2672 52
      vertex 63.5504 34.2672 50
    endloop
  endfacet
  facet normal 0.743143 0.669133 0
    outer loop
      vertex 64.3198 33.4127 52
      vertex 63.5504 34.2672 50
      vertex 63.5504 34.2672 52
    endloop
  endfacet
  facet normal 0.743143 0.669133 0
    outer loop
      vertex 63.5504 34.2672 50
      vertex 64.3198 33.4127 52
      vertex 64.3198 33.4127 50
    endloop
  endfacet
  facet normal -0.207943 -0.978141 0
    outer loop
      vertex 68.5749 42.9699 50
      vertex 69.6996 42.7308 52
      vertex 68.5749 42.9699 52
    endloop
  endfacet
  facet normal -0.207943 -0.978141 -0
    outer loop
      vertex 69.6996 42.7308 52
      vertex 68.5749 42.9699 50
      vertex 69.6996 42.7308 50
    endloop
  endfacet
  facet normal 0.994521 -0.10454 0
    outer loop
      vertex 62.5 37.5 52
      vertex 62.6202 38.6435 50
      vertex 62.6202 38.6435 52
    endloop
  endfacet
  facet normal 0.994521 -0.10454 0
    outer loop
      vertex 62.6202 38.6435 50
      vertex 62.5 37.5 52
      vertex 62.5 37.5 50
    endloop
  endfacet
  facet normal 0.40676 0.913535 -0
    outer loop
      vertex 66.3004 32.2692 50
      vertex 65.25 32.7369 52
      vertex 66.3004 32.2692 52
    endloop
  endfacet
  facet normal 0.40676 0.913535 0
    outer loop
      vertex 65.25 32.7369 52
      vertex 66.3004 32.2692 50
      vertex 65.25 32.7369 50
    endloop
  endfacet
  facet normal 1 -0 0
    outer loop
      vertex 86 30.4 52
      vertex 86 44.6 50
      vertex 86 44.6 52
    endloop
  endfacet
  facet normal 1 0 0
    outer loop
      vertex 86 44.6 50
      vertex 86 30.4 52
      vertex 86 30.4 50
    endloop
  endfacet
  facet normal -1 0 0
    outer loop
      vertex 95.6 30.4 50
      vertex 95.6 44.6 52
      vertex 95.6 44.6 50
    endloop
  endfacet
  facet normal -1 -0 0
    outer loop
      vertex 95.6 44.6 52
      vertex 95.6 30.4 50
      vertex 95.6 30.4 52
    endloop
  endfacet
  facet normal 0 1 -0
    outer loop
      vertex 95.6 30.4 50
      vertex 86 30.4 52
      vertex 95.6 30.4 52
    endloop
  endfacet
  facet normal 0 1 0
    outer loop
      vertex 86 30.4 52
      vertex 95.6 30.4 50
      vertex 86 30.4 50
    endloop
  endfacet
  facet normal 0 -1 0
    outer loop
      vertex 86 44.6 50
      vertex 95.6 44.6 52
      vertex 86 44.6 52
    endloop
  endfacet
  facet normal 0 -1 -0
    outer loop
      vertex 95.6 44.6 52
      vertex 86 44.6 50
      vertex 95.6 44.6 50
    endloop
  endfacet
  facet normal 1 -0 0
    outer loop
      vertex 6 53 48
      vertex 6 55 33
      vertex 6 55 48
    endloop
  endfacet
  facet normal 1 0 0
    outer loop
      vertex 6 55 33
      vertex 6 53 48
      vertex 6 53 33
    endloop
  endfacet
  facet normal 0 0 -1
    outer loop
      vertex 6 53 48
      vertex 21 55 48
      vertex 21 53 48
    endloop
  endfacet
  facet normal -0 0 -1
    outer loop
      vertex 21 55 48
      vertex 6 53 48
      vertex 6 55 48
    endloop
  endfacet
  facet normal -1 0 0
    outer loop
      vertex 21 53 33
      vertex 21 55 48
      vertex 21 55 33
    endloop
  endfacet
  facet normal -1 -0 0
    outer loop
      vertex 21 55 48
      vertex 21 53 33
      vertex 21 53 48
    endloop
  endfacet
  facet normal -0 0 1
    outer loop
      vertex 6 55 33
      vertex 21 53 33
      vertex 21 55 33
    endloop
  endfacet
  facet normal 0 0 1
    outer loop
      vertex 21 53 33
      vertex 6 55 33
      vertex 6 53 33
    endloop
  endfacet
  facet normal 1 -0 0
    outer loop
      vertex 5 5 52
      vertex 5 20 50
      vertex 5 20 52
    endloop
  endfacet
  facet normal 1 0 0
    outer loop
      vertex 5 20 50
      vertex 5 5 52
      vertex 5 5 50
    endloop
  endfacet
  facet normal -1 0 0
    outer loop
      vertex 115 5 50
      vertex 115 20 52
      vertex 115 20 50
    endloop
  endfacet
  facet normal -1 -0 0
    outer loop
      vertex 115 20 52
      vertex 115 5 50
      vertex 115 5 52
    endloop
  endfacet
  facet normal 0 1 -0
    outer loop
      vertex 115 5 50
      vertex 5 5 52
      vertex 115 5 52
    endloop
  endfacet
  facet normal 0 1 0
    outer loop
      vertex 5 5 52
      vertex 115 5 50
      vertex 5 5 50
    endloop
  endfacet
  facet normal 0 -1 0
    outer loop
      vertex 5 20 50
      vertex 115 20 52
      vertex 5 20 52
    endloop
  endfacet
  facet normal 0 -1 -0
    outer loop
      vertex 115 20 52
      vertex 5 20 50
      vertex 115 20 50
    endloop
  endfacet
  facet normal -0 0 1
    outer loop
      vertex 2 24.5 12
      vertex 12 4.5 12
      vertex 12 24.5 12
    endloop
  endfacet
  facet normal 0 0 1
    outer loop
      vertex 12 4.5 12
      vertex 2 24.5 12
      vertex 2 4.5 12
    endloop
  endfacet
  facet normal 1 -0 0
    outer loop
      vertex 12 4.5 12
      vertex 12 24.5 10
      vertex 12 24.5 12
    endloop
  endfacet
  facet normal 1 0 0
    outer loop
      vertex 12 24.5 10
      vertex 12 4.5 12
      vertex 12 4.5 10
    endloop
  endfacet
  facet normal 0 0 -1
    outer loop
      vertex 2 4.5 10
      vertex 12 24.5 10
      vertex 12 4.5 10
    endloop
  endfacet
  facet normal -0 0 -1
    outer loop
      vertex 12 24.5 10
      vertex 2 4.5 10
      vertex 2 24.5 10
    endloop
  endfacet
  facet normal 0 -1 0
    outer loop
      vertex 2 4.5 10
      vertex 12 4.5 12
      vertex 2 4.5 12
    endloop
  endfacet
  facet normal 0 -1 -0
    outer loop
      vertex 12 4.5 12
      vertex 2 4.5 10
      vertex 12 4.5 10
    endloop
  endfacet
  facet normal 0 1 -0
    outer loop
      vertex 12 24.5 10
      vertex 2 24.5 12
      vertex 12 24.5 12
    endloop
  endfacet
  facet normal 0 1 0
    outer loop
      vertex 2 24.5 12
      vertex 12 24.5 10
      vertex 2 24.5 10
    endloop
  endfacet
  facet normal -1 0 0
    outer loop
      vertex 108 30.5 10
      vertex 108 50.5 12
      vertex 108 50.5 10
    endloop
  endfacet
  facet normal -1 -0 0
    outer loop
      vertex 108 50.5 12
      vertex 108 30.5 10
      vertex 108 30.5 12
    endloop
  endfacet
  facet normal -0 0 1
    outer loop
      vertex 108 50.5 12
      vertex 118 30.5 12
      vertex 118 50.5 12
    endloop
  endfacet
  facet normal 0 0 1
    outer loop
      vertex 118 30.5 12
      vertex 108 50.5 12
      vertex 108 30.5 12
    endloop
  endfacet
  facet normal 0 1 -0
    outer loop
      vertex 118 50.5 10
      vertex 108 50.5 12
      vertex 118 50.5 12
    endloop
  endfacet
  facet normal 0 1 0
    outer loop
      vertex 108 50.5 12
      vertex 118 50.5 10
      vertex 108 50.5 10
    endloop
  endfacet
  facet normal 0 0 -1
    outer loop
      vertex 108 30.5 10
      vertex 118 50.5 10
      vertex 118 30.5 10
    endloop
  endfacet
  facet normal -0 0 -1
    outer loop
      vertex 118 50.5 10
      vertex 108 30.5 10
      vertex 108 50.5 10
    endloop
  endfacet
  facet normal 0 -1 0
    outer loop
      vertex 108 30.5 10
      vertex 118 30.5 12
      vertex 108 30.5 12
    endloop
  endfacet
  facet normal 0 -1 -0
    outer loop
      vertex 118 30.5 12
      vertex 108 30.5 10
      vertex 118 30.5 10
    endloop
  endfacet
endsolid OpenSCAD_Model
