solid CATIA STL
  facet normal -1.421085e-015 -1.968415e-015 -1.000000e+000
    outer loop
      vertex -5.000000e+000  6.000000e+000  1.776357e-015
      vertex  5.000000e+000  6.000000e+000 -1.243450e-014
      vertex  2.076038e-001  2.240402e+000  1.776357e-015
    endloop
  endfacet
  facet normal  0.000000e+000  0.000000e+000 -1.000000e+000
    outer loop
      vertex -5.000000e+000  6.000000e+000  1.776357e-015
      vertex  2.076038e-001  2.240402e+000  1.776357e-015
      vertex -2.076038e-001  2.240402e+000  1.776357e-015
    endloop
  endfacet
  facet normal  -0.000000e+000  0.000000e+000 -1.000000e+000
    outer loop
      vertex -5.000000e+000  6.000000e+000  1.776357e-015
      vertex -2.076038e-001  2.240402e+000  1.776357e-015
      vertex -6.157417e-001  2.164108e+000  1.776357e-015
    endloop
  endfacet
  facet normal  -0.000000e+000  0.000000e+000 -1.000000e+000
    outer loop
      vertex -5.000000e+000  6.000000e+000  1.776357e-015
      vertex -6.157417e-001  2.164108e+000  1.776357e-015
      vertex -1.002911e+000  2.014117e+000  1.776357e-015
    endloop
  endfacet
  facet normal  -0.000000e+000  0.000000e+000 -1.000000e+000
    outer loop
      vertex -5.000000e+000  6.000000e+000  1.776357e-015
      vertex -1.002911e+000  2.014117e+000  1.776357e-015
      vertex -1.355928e+000  1.795539e+000  1.776357e-015
    endloop
  endfacet
  facet normal  -0.000000e+000  0.000000e+000 -1.000000e+000
    outer loop
      vertex -5.000000e+000  6.000000e+000  1.776357e-015
      vertex -1.355928e+000  1.795539e+000  1.776357e-015
      vertex -1.662770e+000  1.515815e+000  1.776357e-015
    endloop
  endfacet
  facet normal  -0.000000e+000  0.000000e+000 -1.000000e+000
    outer loop
      vertex -5.000000e+000  6.000000e+000  1.776357e-015
      vertex -1.662770e+000  1.515815e+000  1.776357e-015
      vertex -1.912989e+000  1.184472e+000  1.776357e-015
    endloop
  endfacet
  facet normal  -0.000000e+000  0.000000e+000 -1.000000e+000
    outer loop
      vertex -5.000000e+000  6.000000e+000  1.776357e-015
      vertex -1.912989e+000  1.184472e+000  1.776357e-015
      vertex -2.098063e+000  8.127937e-001  1.776357e-015
    endloop
  endfacet
  facet normal  -0.000000e+000  0.000000e+000 -1.000000e+000
    outer loop
      vertex -5.000000e+000  6.000000e+000  1.776357e-015
      vertex -2.098063e+000  8.127937e-001  1.776357e-015
      vertex -5.000000e+000 -6.000000e+000  1.776357e-015
    endloop
  endfacet
  facet normal  0.000000e+000  0.000000e+000 -1.000000e+000
    outer loop
      vertex -5.000000e+000 -6.000000e+000  1.776357e-015
      vertex -2.098063e+000  8.127937e-001  1.776357e-015
      vertex -2.211689e+000  4.134364e-001  1.776357e-015
    endloop
  endfacet
  facet normal  3.139873e-015 -1.365094e-015 -1.000000e+000
    outer loop
      vertex -5.000000e+000 -6.000000e+000  1.776357e-015
      vertex -2.211689e+000  4.134364e-001  1.776357e-015
      vertex -2.250000e+000 -2.755455e-016  2.220446e-015
    endloop
  endfacet
  facet normal -1.815122e-015  9.059457e-016 -1.000000e+000
    outer loop
      vertex -5.000000e+000 -6.000000e+000  1.776357e-015
      vertex -2.250000e+000 -2.755455e-016  2.220446e-015
      vertex -2.211689e+000 -4.134364e-001  1.776357e-015
    endloop
  endfacet
  facet normal  0.000000e+000  -0.000000e+000 -1.000000e+000
    outer loop
      vertex -5.000000e+000 -6.000000e+000  1.776357e-015
      vertex -2.211689e+000 -4.134364e-001  1.776357e-015
      vertex -2.098063e+000 -8.127937e-001  1.776357e-015
    endloop
  endfacet
  facet normal  0.000000e+000  -0.000000e+000 -1.000000e+000
    outer loop
      vertex -5.000000e+000 -6.000000e+000  1.776357e-015
      vertex -2.098063e+000 -8.127937e-001  1.776357e-015
      vertex -1.912989e+000 -1.184472e+000  1.776357e-015
    endloop
  endfacet
  facet normal  0.000000e+000  -0.000000e+000 -1.000000e+000
    outer loop
      vertex -5.000000e+000 -6.000000e+000  1.776357e-015
      vertex -1.912989e+000 -1.184472e+000  1.776357e-015
      vertex -1.662770e+000 -1.515815e+000  1.776357e-015
    endloop
  endfacet
  facet normal  0.000000e+000  -0.000000e+000 -1.000000e+000
    outer loop
      vertex -5.000000e+000 -6.000000e+000  1.776357e-015
      vertex -1.662770e+000 -1.515815e+000  1.776357e-015
      vertex -1.355928e+000 -1.795539e+000  1.776357e-015
    endloop
  endfacet
  facet normal  0.000000e+000  -0.000000e+000 -1.000000e+000
    outer loop
      vertex -5.000000e+000 -6.000000e+000  1.776357e-015
      vertex -1.355928e+000 -1.795539e+000  1.776357e-015
      vertex -1.002911e+000 -2.014117e+000  1.776357e-015
    endloop
  endfacet
  facet normal  0.000000e+000  -0.000000e+000 -1.000000e+000
    outer loop
      vertex -5.000000e+000 -6.000000e+000  1.776357e-015
      vertex -1.002911e+000 -2.014117e+000  1.776357e-015
      vertex -6.157417e-001 -2.164108e+000  1.776357e-015
    endloop
  endfacet
  facet normal  0.000000e+000  -0.000000e+000 -1.000000e+000
    outer loop
      vertex -5.000000e+000 -6.000000e+000  1.776357e-015
      vertex -6.157417e-001 -2.164108e+000  1.776357e-015
      vertex -2.076038e-001 -2.240402e+000  1.776357e-015
    endloop
  endfacet
  facet normal  0.000000e+000  -0.000000e+000 -1.000000e+000
    outer loop
      vertex -5.000000e+000 -6.000000e+000  1.776357e-015
      vertex -2.076038e-001 -2.240402e+000  1.776357e-015
      vertex  2.076038e-001 -2.240402e+000  1.776357e-015
    endloop
  endfacet
  facet normal -1.421085e-015  1.968415e-015 -1.000000e+000
    outer loop
      vertex -5.000000e+000 -6.000000e+000  1.776357e-015
      vertex  2.076038e-001 -2.240402e+000  1.776357e-015
      vertex  5.000000e+000 -6.000000e+000 -1.243450e-014
    endloop
  endfacet
  facet normal -5.706145e-016  3.052519e-015 -1.000000e+000
    outer loop
      vertex  5.000000e+000 -6.000000e+000 -1.243450e-014
      vertex  2.076038e-001 -2.240402e+000  1.776357e-015
      vertex  6.157417e-001 -2.164108e+000  1.776357e-015
    endloop
  endfacet
  facet normal -9.947514e-016  2.567749e-015 -1.000000e+000
    outer loop
      vertex  5.000000e+000 -6.000000e+000 -1.243450e-014
      vertex  6.157417e-001 -2.164108e+000  1.776357e-015
      vertex  1.002911e+000 -2.014117e+000  1.776357e-015
    endloop
  endfacet
  facet normal -1.361909e-015  2.199558e-015 -1.000000e+000
    outer loop
      vertex  5.000000e+000 -6.000000e+000 -1.243450e-014
      vertex  1.002911e+000 -2.014117e+000  1.776357e-015
      vertex  1.355928e+000 -1.795539e+000  1.776357e-015
    endloop
  endfacet
  facet normal -1.721246e-015  1.888116e-015 -1.000000e+000
    outer loop
      vertex  5.000000e+000 -6.000000e+000 -1.243450e-014
      vertex  1.355928e+000 -1.795539e+000  1.776357e-015
      vertex  1.662770e+000 -1.515815e+000  1.776357e-015
    endloop
  endfacet
  facet normal -2.113600e-015  1.596117e-015 -1.000000e+000
    outer loop
      vertex  5.000000e+000 -6.000000e+000 -1.243450e-014
      vertex  1.662770e+000 -1.515815e+000  1.776357e-015
      vertex  1.912989e+000 -1.184472e+000  1.776357e-015
    endloop
  endfacet
  facet normal -2.590924e-015  1.290127e-015 -1.000000e+000
    outer loop
      vertex  5.000000e+000 -6.000000e+000 -1.243450e-014
      vertex  1.912989e+000 -1.184472e+000  1.776357e-015
      vertex  2.098063e+000 -8.127937e-001  1.776357e-015
    endloop
  endfacet
  facet normal -3.246100e-015  9.235950e-016 -1.000000e+000
    outer loop
      vertex  5.000000e+000 -6.000000e+000 -1.243450e-014
      vertex  2.098063e+000 -8.127937e-001  1.776357e-015
      vertex  2.211689e+000 -4.134364e-001  1.776357e-015
    endloop
  endfacet
  facet normal -4.298528e-015  3.983173e-016 -1.000000e+000
    outer loop
      vertex  5.000000e+000 -6.000000e+000 -1.243450e-014
      vertex  2.211689e+000 -4.134364e-001  1.776357e-015
      vertex  2.250000e+000  0.000000e+000  1.776357e-015
    endloop
  endfacet
  facet normal -6.477091e-015 -6.001909e-016 -1.000000e+000
    outer loop
      vertex  5.000000e+000 -6.000000e+000 -1.243450e-014
      vertex  2.250000e+000  0.000000e+000  1.776357e-015
      vertex  2.211689e+000  4.134364e-001  1.776357e-015
    endloop
  endfacet
  facet normal -1.474874e-014 -4.196377e-015 -1.000000e+000
    outer loop
      vertex  5.000000e+000 -6.000000e+000 -1.243450e-014
      vertex  2.211689e+000  4.134364e-001  1.776357e-015
      vertex  2.098063e+000  8.127937e-001  1.776357e-015
    endloop
  endfacet
  facet normal -4.897023e-015  0.000000e+000 -1.000000e+000
    outer loop
      vertex  5.000000e+000  6.000000e+000 -1.243450e-014
      vertex  5.000000e+000 -6.000000e+000 -1.243450e-014
      vertex  2.098063e+000  8.127937e-001  1.776357e-015
    endloop
  endfacet
  facet normal -2.590924e-015 -1.290127e-015 -1.000000e+000
    outer loop
      vertex  5.000000e+000  6.000000e+000 -1.243450e-014
      vertex  2.098063e+000  8.127937e-001  1.776357e-015
      vertex  1.912989e+000  1.184472e+000  1.776357e-015
    endloop
  endfacet
  facet normal -2.113600e-015 -1.596117e-015 -1.000000e+000
    outer loop
      vertex  5.000000e+000  6.000000e+000 -1.243450e-014
      vertex  1.912989e+000  1.184472e+000  1.776357e-015
      vertex  1.662770e+000  1.515815e+000  1.776357e-015
    endloop
  endfacet
  facet normal -1.721246e-015 -1.888116e-015 -1.000000e+000
    outer loop
      vertex  5.000000e+000  6.000000e+000 -1.243450e-014
      vertex  1.662770e+000  1.515815e+000  1.776357e-015
      vertex  1.355928e+000  1.795539e+000  1.776357e-015
    endloop
  endfacet
  facet normal -1.361909e-015 -2.199558e-015 -1.000000e+000
    outer loop
      vertex  5.000000e+000  6.000000e+000 -1.243450e-014
      vertex  1.355928e+000  1.795539e+000  1.776357e-015
      vertex  1.002911e+000  2.014117e+000  1.776357e-015
    endloop
  endfacet
  facet normal -9.947514e-016 -2.567749e-015 -1.000000e+000
    outer loop
      vertex  5.000000e+000  6.000000e+000 -1.243450e-014
      vertex  1.002911e+000  2.014117e+000  1.776357e-015
      vertex  6.157417e-001  2.164108e+000  1.776357e-015
    endloop
  endfacet
  facet normal -5.706145e-016 -3.052519e-015 -1.000000e+000
    outer loop
      vertex  5.000000e+000  6.000000e+000 -1.243450e-014
      vertex  6.157417e-001  2.164108e+000  1.776357e-015
      vertex  2.076038e-001  2.240402e+000  1.776357e-015
    endloop
  endfacet
  facet normal  0.000000e+000  0.000000e+000  1.000000e+000
    outer loop
      vertex  5.551115e-015 -4.214657e+000  6.000000e-001
      vertex  2.076038e-001 -2.240402e+000  6.000000e-001
      vertex -2.076038e-001 -2.240402e+000  6.000000e-001
    endloop
  endfacet
  facet normal  0.000000e+000  0.000000e+000  1.000000e+000
    outer loop
      vertex -3.552714e-015  4.214657e+000  6.000000e-001
      vertex -2.076038e-001  2.240402e+000  6.000000e-001
      vertex  2.076038e-001  2.240402e+000  6.000000e-001
    endloop
  endfacet
  facet normal  0.000000e+000  0.000000e+000  1.000000e+000
    outer loop
      vertex -3.650000e+000 -2.107328e+000  6.000000e-001
      vertex  5.551115e-015 -4.214657e+000  6.000000e-001
      vertex -2.076038e-001 -2.240402e+000  6.000000e-001
    endloop
  endfacet
  facet normal  0.000000e+000  0.000000e+000  1.000000e+000
    outer loop
      vertex -3.650000e+000 -2.107328e+000  6.000000e-001
      vertex -2.076038e-001 -2.240402e+000  6.000000e-001
      vertex -6.157417e-001 -2.164108e+000  6.000000e-001
    endloop
  endfacet
  facet normal  0.000000e+000  0.000000e+000  1.000000e+000
    outer loop
      vertex -3.650000e+000 -2.107328e+000  6.000000e-001
      vertex -6.157417e-001 -2.164108e+000  6.000000e-001
      vertex -1.002911e+000 -2.014117e+000  6.000000e-001
    endloop
  endfacet
  facet normal  0.000000e+000  0.000000e+000  1.000000e+000
    outer loop
      vertex -3.650000e+000 -2.107328e+000  6.000000e-001
      vertex -1.002911e+000 -2.014117e+000  6.000000e-001
      vertex -1.355928e+000 -1.795539e+000  6.000000e-001
    endloop
  endfacet
  facet normal  0.000000e+000  0.000000e+000  9.999999e-001
    outer loop
      vertex -3.650000e+000 -2.107328e+000  6.000000e-001
      vertex -1.355928e+000 -1.795539e+000  6.000000e-001
      vertex -1.662770e+000 -1.515815e+000  6.000000e-001
    endloop
  endfacet
  facet normal  0.000000e+000  0.000000e+000  1.000000e+000
    outer loop
      vertex -3.650000e+000 -2.107328e+000  6.000000e-001
      vertex -1.662770e+000 -1.515815e+000  6.000000e-001
      vertex -1.912989e+000 -1.184472e+000  6.000000e-001
    endloop
  endfacet
  facet normal  0.000000e+000  0.000000e+000  1.000000e+000
    outer loop
      vertex -3.650000e+000 -2.107328e+000  6.000000e-001
      vertex -1.912989e+000 -1.184472e+000  6.000000e-001
      vertex -2.098063e+000 -8.127937e-001  6.000000e-001
    endloop
  endfacet
  facet normal  0.000000e+000  0.000000e+000  9.999999e-001
    outer loop
      vertex -3.650000e+000 -2.107328e+000  6.000000e-001
      vertex -2.098063e+000 -8.127937e-001  6.000000e-001
      vertex -2.211689e+000 -4.134364e-001  6.000000e-001
    endloop
  endfacet
  facet normal  0.000000e+000  0.000000e+000  1.000000e+000
    outer loop
      vertex -3.650000e+000 -2.107328e+000  6.000000e-001
      vertex -2.211689e+000 -4.134364e-001  6.000000e-001
      vertex -2.250000e+000 -2.755455e-016  6.000000e-001
    endloop
  endfacet
  facet normal  0.000000e+000  -0.000000e+000  9.999999e-001
    outer loop
      vertex -3.650000e+000 -2.107328e+000  6.000000e-001
      vertex -2.250000e+000 -2.755455e-016  6.000000e-001
      vertex -2.211689e+000  4.134364e-001  6.000000e-001
    endloop
  endfacet
  facet normal  0.000000e+000  -0.000000e+000  1.000000e+000
    outer loop
      vertex -3.650000e+000 -2.107328e+000  6.000000e-001
      vertex -2.211689e+000  4.134364e-001  6.000000e-001
      vertex -2.098063e+000  8.127937e-001  6.000000e-001
    endloop
  endfacet
  facet normal  0.000000e+000  0.000000e+000  1.000000e+000
    outer loop
      vertex -3.650000e+000  2.107328e+000  6.000000e-001
      vertex -3.650000e+000 -2.107328e+000  6.000000e-001
      vertex -2.098063e+000  8.127937e-001  6.000000e-001
    endloop
  endfacet
  facet normal  0.000000e+000  -0.000000e+000  1.000000e+000
    outer loop
      vertex -3.650000e+000  2.107328e+000  6.000000e-001
      vertex -2.098063e+000  8.127937e-001  6.000000e-001
      vertex -1.912989e+000  1.184472e+000  6.000000e-001
    endloop
  endfacet
  facet normal  0.000000e+000  -0.000000e+000  1.000000e+000
    outer loop
      vertex -3.650000e+000  2.107328e+000  6.000000e-001
      vertex -1.912989e+000  1.184472e+000  6.000000e-001
      vertex -1.662770e+000  1.515815e+000  6.000000e-001
    endloop
  endfacet
  facet normal  0.000000e+000  -0.000000e+000  9.999999e-001
    outer loop
      vertex -3.650000e+000  2.107328e+000  6.000000e-001
      vertex -1.662770e+000  1.515815e+000  6.000000e-001
      vertex -1.355928e+000  1.795539e+000  6.000000e-001
    endloop
  endfacet
  facet normal  0.000000e+000  -0.000000e+000  1.000000e+000
    outer loop
      vertex -3.650000e+000  2.107328e+000  6.000000e-001
      vertex -1.355928e+000  1.795539e+000  6.000000e-001
      vertex -1.002911e+000  2.014117e+000  6.000000e-001
    endloop
  endfacet
  facet normal  0.000000e+000  -0.000000e+000  1.000000e+000
    outer loop
      vertex -3.650000e+000  2.107328e+000  6.000000e-001
      vertex -1.002911e+000  2.014117e+000  6.000000e-001
      vertex -6.157417e-001  2.164108e+000  6.000000e-001
    endloop
  endfacet
  facet normal  0.000000e+000  -0.000000e+000  1.000000e+000
    outer loop
      vertex -3.650000e+000  2.107328e+000  6.000000e-001
      vertex -6.157417e-001  2.164108e+000  6.000000e-001
      vertex -2.076038e-001  2.240402e+000  6.000000e-001
    endloop
  endfacet
  facet normal  0.000000e+000  -0.000000e+000  1.000000e+000
    outer loop
      vertex -3.650000e+000  2.107328e+000  6.000000e-001
      vertex -2.076038e-001  2.240402e+000  6.000000e-001
      vertex -3.552714e-015  4.214657e+000  6.000000e-001
    endloop
  endfacet
  facet normal  0.000000e+000  0.000000e+000  1.000000e+000
    outer loop
      vertex  3.650000e+000 -2.107328e+000  6.000000e-001
      vertex  2.098063e+000  8.127937e-001  6.000000e-001
      vertex  2.211689e+000  4.134364e-001  6.000000e-001
    endloop
  endfacet
  facet normal  0.000000e+000  0.000000e+000  1.000000e+000
    outer loop
      vertex  3.650000e+000 -2.107328e+000  6.000000e-001
      vertex  2.211689e+000  4.134364e-001  6.000000e-001
      vertex  2.250000e+000  0.000000e+000  6.000000e-001
    endloop
  endfacet
  facet normal  0.000000e+000  0.000000e+000  1.000000e+000
    outer loop
      vertex  3.650000e+000 -2.107328e+000  6.000000e-001
      vertex  2.250000e+000  0.000000e+000  6.000000e-001
      vertex  2.211689e+000 -4.134364e-001  6.000000e-001
    endloop
  endfacet
  facet normal  0.000000e+000  0.000000e+000  9.999999e-001
    outer loop
      vertex  3.650000e+000 -2.107328e+000  6.000000e-001
      vertex  2.211689e+000 -4.134364e-001  6.000000e-001
      vertex  2.098063e+000 -8.127937e-001  6.000000e-001
    endloop
  endfacet
  facet normal  0.000000e+000  0.000000e+000  1.000000e+000
    outer loop
      vertex  3.650000e+000 -2.107328e+000  6.000000e-001
      vertex  2.098063e+000 -8.127937e-001  6.000000e-001
      vertex  1.912989e+000 -1.184472e+000  6.000000e-001
    endloop
  endfacet
  facet normal  0.000000e+000  0.000000e+000  1.000000e+000
    outer loop
      vertex  3.650000e+000 -2.107328e+000  6.000000e-001
      vertex  1.912989e+000 -1.184472e+000  6.000000e-001
      vertex  1.662770e+000 -1.515815e+000  6.000000e-001
    endloop
  endfacet
  facet normal  0.000000e+000  0.000000e+000  9.999999e-001
    outer loop
      vertex  3.650000e+000 -2.107328e+000  6.000000e-001
      vertex  1.662770e+000 -1.515815e+000  6.000000e-001
      vertex  1.355928e+000 -1.795539e+000  6.000000e-001
    endloop
  endfacet
  facet normal  0.000000e+000  0.000000e+000  1.000000e+000
    outer loop
      vertex  3.650000e+000 -2.107328e+000  6.000000e-001
      vertex  1.355928e+000 -1.795539e+000  6.000000e-001
      vertex  1.002911e+000 -2.014117e+000  6.000000e-001
    endloop
  endfacet
  facet normal  0.000000e+000  0.000000e+000  1.000000e+000
    outer loop
      vertex  3.650000e+000 -2.107328e+000  6.000000e-001
      vertex  1.002911e+000 -2.014117e+000  6.000000e-001
      vertex  6.157417e-001 -2.164108e+000  6.000000e-001
    endloop
  endfacet
  facet normal  -0.000000e+000  0.000000e+000  1.000000e+000
    outer loop
      vertex  3.650000e+000 -2.107328e+000  6.000000e-001
      vertex  6.157417e-001 -2.164108e+000  6.000000e-001
      vertex  2.076038e-001 -2.240402e+000  6.000000e-001
    endloop
  endfacet
  facet normal  -0.000000e+000  0.000000e+000  1.000000e+000
    outer loop
      vertex  3.650000e+000 -2.107328e+000  6.000000e-001
      vertex  2.076038e-001 -2.240402e+000  6.000000e-001
      vertex  5.551115e-015 -4.214657e+000  6.000000e-001
    endloop
  endfacet
  facet normal  0.000000e+000  0.000000e+000  1.000000e+000
    outer loop
      vertex  3.650000e+000  2.107328e+000  6.000000e-001
      vertex -3.552714e-015  4.214657e+000  6.000000e-001
      vertex  2.076038e-001  2.240402e+000  6.000000e-001
    endloop
  endfacet
  facet normal  0.000000e+000  0.000000e+000  1.000000e+000
    outer loop
      vertex  3.650000e+000  2.107328e+000  6.000000e-001
      vertex  2.076038e-001  2.240402e+000  6.000000e-001
      vertex  6.157417e-001  2.164108e+000  6.000000e-001
    endloop
  endfacet
  facet normal  0.000000e+000  0.000000e+000  1.000000e+000
    outer loop
      vertex  3.650000e+000  2.107328e+000  6.000000e-001
      vertex  6.157417e-001  2.164108e+000  6.000000e-001
      vertex  1.002911e+000  2.014117e+000  6.000000e-001
    endloop
  endfacet
  facet normal  -0.000000e+000  0.000000e+000  1.000000e+000
    outer loop
      vertex  3.650000e+000  2.107328e+000  6.000000e-001
      vertex  1.002911e+000  2.014117e+000  6.000000e-001
      vertex  1.355928e+000  1.795539e+000  6.000000e-001
    endloop
  endfacet
  facet normal  -0.000000e+000  0.000000e+000  9.999999e-001
    outer loop
      vertex  3.650000e+000  2.107328e+000  6.000000e-001
      vertex  1.355928e+000  1.795539e+000  6.000000e-001
      vertex  1.662770e+000  1.515815e+000  6.000000e-001
    endloop
  endfacet
  facet normal  -0.000000e+000  0.000000e+000  1.000000e+000
    outer loop
      vertex  3.650000e+000  2.107328e+000  6.000000e-001
      vertex  1.662770e+000  1.515815e+000  6.000000e-001
      vertex  1.912989e+000  1.184472e+000  6.000000e-001
    endloop
  endfacet
  facet normal  -0.000000e+000  0.000000e+000  1.000000e+000
    outer loop
      vertex  3.650000e+000  2.107328e+000  6.000000e-001
      vertex  1.912989e+000  1.184472e+000  6.000000e-001
      vertex  2.098063e+000  8.127937e-001  6.000000e-001
    endloop
  endfacet
  facet normal  -0.000000e+000  0.000000e+000  1.000000e+000
    outer loop
      vertex  3.650000e+000  2.107328e+000  6.000000e-001
      vertex  2.098063e+000  8.127937e-001  6.000000e-001
      vertex  3.650000e+000 -2.107328e+000  6.000000e-001
    endloop
  endfacet
  facet normal  1.837495e-001  9.829730e-001  -0.000000e+000
    outer loop
      vertex -2.076038e-001 -2.240402e+000  6.000000e-001
      vertex -6.157417e-001 -2.164108e+000  1.776357e-015
      vertex -6.157417e-001 -2.164108e+000  6.000000e-001
    endloop
  endfacet
  facet normal  3.612417e-001  9.324722e-001  0.000000e+000
    outer loop
      vertex -6.157417e-001 -2.164108e+000  6.000000e-001
      vertex -6.157417e-001 -2.164108e+000  1.776357e-015
      vertex -1.002911e+000 -2.014117e+000  1.776357e-015
    endloop
  endfacet
  facet normal  3.612417e-001  9.324722e-001  -0.000000e+000
    outer loop
      vertex -6.157417e-001 -2.164108e+000  6.000000e-001
      vertex -1.002911e+000 -2.014117e+000  1.776357e-015
      vertex -1.002911e+000 -2.014117e+000  6.000000e-001
    endloop
  endfacet
  facet normal  5.264323e-001  8.502170e-001  0.000000e+000
    outer loop
      vertex -1.002911e+000 -2.014117e+000  6.000000e-001
      vertex -1.002911e+000 -2.014117e+000  1.776357e-015
      vertex -1.355928e+000 -1.795539e+000  1.776357e-015
    endloop
  endfacet
  facet normal  5.264323e-001  8.502170e-001  -0.000000e+000
    outer loop
      vertex -1.002911e+000 -2.014117e+000  6.000000e-001
      vertex -1.355928e+000 -1.795539e+000  1.776357e-015
      vertex -1.355928e+000 -1.795539e+000  6.000000e-001
    endloop
  endfacet
  facet normal  6.736958e-001  7.390088e-001  0.000000e+000
    outer loop
      vertex -1.355928e+000 -1.795539e+000  6.000000e-001
      vertex -1.355928e+000 -1.795539e+000  1.776357e-015
      vertex -1.662770e+000 -1.515815e+000  1.776357e-015
    endloop
  endfacet
  facet normal  6.736958e-001  7.390088e-001  -0.000000e+000
    outer loop
      vertex -1.355928e+000 -1.795539e+000  6.000000e-001
      vertex -1.662770e+000 -1.515815e+000  1.776357e-015
      vertex -1.662770e+000 -1.515815e+000  6.000000e-001
    endloop
  endfacet
  facet normal  7.980172e-001  6.026346e-001  0.000000e+000
    outer loop
      vertex -1.662770e+000 -1.515815e+000  6.000000e-001
      vertex -1.662770e+000 -1.515815e+000  1.776357e-015
      vertex -1.912989e+000 -1.184472e+000  1.776357e-015
    endloop
  endfacet
  facet normal  7.980172e-001  6.026346e-001  -0.000000e+000
    outer loop
      vertex -1.662770e+000 -1.515815e+000  6.000000e-001
      vertex -1.912989e+000 -1.184472e+000  1.776357e-015
      vertex -1.912989e+000 -1.184472e+000  6.000000e-001
    endloop
  endfacet
  facet normal  8.951632e-001  4.457384e-001  0.000000e+000
    outer loop
      vertex -1.912989e+000 -1.184472e+000  6.000000e-001
      vertex -1.912989e+000 -1.184472e+000  1.776357e-015
      vertex -2.098063e+000 -8.127937e-001  1.776357e-015
    endloop
  endfacet
  facet normal  8.951632e-001  4.457384e-001  -0.000000e+000
    outer loop
      vertex -1.912989e+000 -1.184472e+000  6.000000e-001
      vertex -2.098063e+000 -8.127937e-001  1.776357e-015
      vertex -2.098063e+000 -8.127937e-001  6.000000e-001
    endloop
  endfacet
  facet normal  9.618257e-001  2.736630e-001  0.000000e+000
    outer loop
      vertex -2.098063e+000 -8.127937e-001  6.000000e-001
      vertex -2.098063e+000 -8.127937e-001  1.776357e-015
      vertex -2.211689e+000 -4.134364e-001  1.776357e-015
    endloop
  endfacet
  facet normal  9.618257e-001  2.736630e-001  -0.000000e+000
    outer loop
      vertex -2.098063e+000 -8.127937e-001  6.000000e-001
      vertex -2.211689e+000 -4.134364e-001  1.776357e-015
      vertex -2.211689e+000 -4.134364e-001  6.000000e-001
    endloop
  endfacet
  facet normal  9.957342e-001  9.226837e-002  0.000000e+000
    outer loop
      vertex -2.211689e+000 -4.134364e-001  6.000000e-001
      vertex -2.211689e+000 -4.134364e-001  1.776357e-015
      vertex -2.250000e+000 -2.755455e-016  2.220446e-015
    endloop
  endfacet
  facet normal  9.957342e-001  9.226837e-002  -0.000000e+000
    outer loop
      vertex -2.211689e+000 -4.134364e-001  6.000000e-001
      vertex -2.250000e+000 -2.755455e-016  2.220446e-015
      vertex -2.250000e+000 -2.755455e-016  6.000000e-001
    endloop
  endfacet
  facet normal  1.837495e-001  9.829730e-001  0.000000e+000
    outer loop
      vertex -6.157417e-001 -2.164108e+000  1.776357e-015
      vertex -2.076038e-001 -2.240402e+000  6.000000e-001
      vertex -2.076038e-001 -2.240402e+000  1.776357e-015
    endloop
  endfacet
  facet normal  0.000000e+000  1.000000e+000  0.000000e+000
    outer loop
      vertex -2.076038e-001 -2.240402e+000  1.776357e-015
      vertex -2.076038e-001 -2.240402e+000  6.000000e-001
      vertex  2.076038e-001 -2.240402e+000  6.000000e-001
    endloop
  endfacet
  facet normal  0.000000e+000  1.000000e+000  0.000000e+000
    outer loop
      vertex -2.076038e-001 -2.240402e+000  1.776357e-015
      vertex  2.076038e-001 -2.240402e+000  6.000000e-001
      vertex  2.076038e-001 -2.240402e+000  1.776357e-015
    endloop
  endfacet
  facet normal -1.837495e-001  9.829730e-001  0.000000e+000
    outer loop
      vertex  2.076038e-001 -2.240402e+000  1.776357e-015
      vertex  2.076038e-001 -2.240402e+000  6.000000e-001
      vertex  6.157417e-001 -2.164108e+000  6.000000e-001
    endloop
  endfacet
  facet normal -1.837495e-001  9.829730e-001  0.000000e+000
    outer loop
      vertex  2.076038e-001 -2.240402e+000  1.776357e-015
      vertex  6.157417e-001 -2.164108e+000  6.000000e-001
      vertex  6.157417e-001 -2.164108e+000  1.776357e-015
    endloop
  endfacet
  facet normal -3.612417e-001  9.324722e-001  0.000000e+000
    outer loop
      vertex  6.157417e-001 -2.164108e+000  1.776357e-015
      vertex  6.157417e-001 -2.164108e+000  6.000000e-001
      vertex  1.002911e+000 -2.014117e+000  6.000000e-001
    endloop
  endfacet
  facet normal -3.612417e-001  9.324722e-001  0.000000e+000
    outer loop
      vertex  6.157417e-001 -2.164108e+000  1.776357e-015
      vertex  1.002911e+000 -2.014117e+000  6.000000e-001
      vertex  1.002911e+000 -2.014117e+000  1.776357e-015
    endloop
  endfacet
  facet normal -5.264323e-001  8.502170e-001  0.000000e+000
    outer loop
      vertex  1.002911e+000 -2.014117e+000  1.776357e-015
      vertex  1.002911e+000 -2.014117e+000  6.000000e-001
      vertex  1.355928e+000 -1.795539e+000  6.000000e-001
    endloop
  endfacet
  facet normal -5.264323e-001  8.502170e-001  0.000000e+000
    outer loop
      vertex  1.002911e+000 -2.014117e+000  1.776357e-015
      vertex  1.355928e+000 -1.795539e+000  6.000000e-001
      vertex  1.355928e+000 -1.795539e+000  1.776357e-015
    endloop
  endfacet
  facet normal -6.736958e-001  7.390088e-001  0.000000e+000
    outer loop
      vertex  1.355928e+000 -1.795539e+000  1.776357e-015
      vertex  1.355928e+000 -1.795539e+000  6.000000e-001
      vertex  1.662770e+000 -1.515815e+000  6.000000e-001
    endloop
  endfacet
  facet normal -6.736958e-001  7.390088e-001  0.000000e+000
    outer loop
      vertex  1.355928e+000 -1.795539e+000  1.776357e-015
      vertex  1.662770e+000 -1.515815e+000  6.000000e-001
      vertex  1.662770e+000 -1.515815e+000  1.776357e-015
    endloop
  endfacet
  facet normal -7.980172e-001  6.026346e-001  0.000000e+000
    outer loop
      vertex  1.662770e+000 -1.515815e+000  1.776357e-015
      vertex  1.662770e+000 -1.515815e+000  6.000000e-001
      vertex  1.912989e+000 -1.184472e+000  6.000000e-001
    endloop
  endfacet
  facet normal -7.980172e-001  6.026346e-001  0.000000e+000
    outer loop
      vertex  1.662770e+000 -1.515815e+000  1.776357e-015
      vertex  1.912989e+000 -1.184472e+000  6.000000e-001
      vertex  1.912989e+000 -1.184472e+000  1.776357e-015
    endloop
  endfacet
  facet normal -8.951632e-001  4.457384e-001  0.000000e+000
    outer loop
      vertex  1.912989e+000 -1.184472e+000  1.776357e-015
      vertex  1.912989e+000 -1.184472e+000  6.000000e-001
      vertex  2.098063e+000 -8.127937e-001  6.000000e-001
    endloop
  endfacet
  facet normal -8.951632e-001  4.457384e-001  0.000000e+000
    outer loop
      vertex  1.912989e+000 -1.184472e+000  1.776357e-015
      vertex  2.098063e+000 -8.127937e-001  6.000000e-001
      vertex  2.098063e+000 -8.127937e-001  1.776357e-015
    endloop
  endfacet
  facet normal -9.618257e-001  2.736630e-001  0.000000e+000
    outer loop
      vertex  2.098063e+000 -8.127937e-001  1.776357e-015
      vertex  2.098063e+000 -8.127937e-001  6.000000e-001
      vertex  2.211689e+000 -4.134364e-001  6.000000e-001
    endloop
  endfacet
  facet normal -9.618257e-001  2.736630e-001  0.000000e+000
    outer loop
      vertex  2.098063e+000 -8.127937e-001  1.776357e-015
      vertex  2.211689e+000 -4.134364e-001  6.000000e-001
      vertex  2.211689e+000 -4.134364e-001  1.776357e-015
    endloop
  endfacet
  facet normal -9.957342e-001  9.226837e-002  0.000000e+000
    outer loop
      vertex  2.211689e+000 -4.134364e-001  1.776357e-015
      vertex  2.211689e+000 -4.134364e-001  6.000000e-001
      vertex  2.250000e+000  0.000000e+000  6.000000e-001
    endloop
  endfacet
  facet normal -9.957342e-001  9.226837e-002  0.000000e+000
    outer loop
      vertex  2.211689e+000 -4.134364e-001  1.776357e-015
      vertex  2.250000e+000  0.000000e+000  6.000000e-001
      vertex  2.250000e+000  0.000000e+000  1.776357e-015
    endloop
  endfacet
  facet normal -1.837495e-001 -9.829730e-001  0.000000e+000
    outer loop
      vertex  2.076038e-001  2.240402e+000  6.000000e-001
      vertex  6.157417e-001  2.164108e+000  1.776357e-015
      vertex  6.157417e-001  2.164108e+000  6.000000e-001
    endloop
  endfacet
  facet normal -3.612417e-001 -9.324722e-001  -0.000000e+000
    outer loop
      vertex  6.157417e-001  2.164108e+000  6.000000e-001
      vertex  6.157417e-001  2.164108e+000  1.776357e-015
      vertex  1.002911e+000  2.014117e+000  1.776357e-015
    endloop
  endfacet
  facet normal -3.612417e-001 -9.324722e-001  0.000000e+000
    outer loop
      vertex  6.157417e-001  2.164108e+000  6.000000e-001
      vertex  1.002911e+000  2.014117e+000  1.776357e-015
      vertex  1.002911e+000  2.014117e+000  6.000000e-001
    endloop
  endfacet
  facet normal -5.264323e-001 -8.502170e-001  -0.000000e+000
    outer loop
      vertex  1.002911e+000  2.014117e+000  6.000000e-001
      vertex  1.002911e+000  2.014117e+000  1.776357e-015
      vertex  1.355928e+000  1.795539e+000  1.776357e-015
    endloop
  endfacet
  facet normal -5.264323e-001 -8.502170e-001  0.000000e+000
    outer loop
      vertex  1.002911e+000  2.014117e+000  6.000000e-001
      vertex  1.355928e+000  1.795539e+000  1.776357e-015
      vertex  1.355928e+000  1.795539e+000  6.000000e-001
    endloop
  endfacet
  facet normal -6.736958e-001 -7.390088e-001  -0.000000e+000
    outer loop
      vertex  1.355928e+000  1.795539e+000  6.000000e-001
      vertex  1.355928e+000  1.795539e+000  1.776357e-015
      vertex  1.662770e+000  1.515815e+000  1.776357e-015
    endloop
  endfacet
  facet normal -6.736958e-001 -7.390088e-001  0.000000e+000
    outer loop
      vertex  1.355928e+000  1.795539e+000  6.000000e-001
      vertex  1.662770e+000  1.515815e+000  1.776357e-015
      vertex  1.662770e+000  1.515815e+000  6.000000e-001
    endloop
  endfacet
  facet normal -7.980172e-001 -6.026346e-001  -0.000000e+000
    outer loop
      vertex  1.662770e+000  1.515815e+000  6.000000e-001
      vertex  1.662770e+000  1.515815e+000  1.776357e-015
      vertex  1.912989e+000  1.184472e+000  1.776357e-015
    endloop
  endfacet
  facet normal -7.980172e-001 -6.026346e-001  0.000000e+000
    outer loop
      vertex  1.662770e+000  1.515815e+000  6.000000e-001
      vertex  1.912989e+000  1.184472e+000  1.776357e-015
      vertex  1.912989e+000  1.184472e+000  6.000000e-001
    endloop
  endfacet
  facet normal -8.951632e-001 -4.457384e-001  -0.000000e+000
    outer loop
      vertex  1.912989e+000  1.184472e+000  6.000000e-001
      vertex  1.912989e+000  1.184472e+000  1.776357e-015
      vertex  2.098063e+000  8.127937e-001  1.776357e-015
    endloop
  endfacet
  facet normal -8.951632e-001 -4.457384e-001  0.000000e+000
    outer loop
      vertex  1.912989e+000  1.184472e+000  6.000000e-001
      vertex  2.098063e+000  8.127937e-001  1.776357e-015
      vertex  2.098063e+000  8.127937e-001  6.000000e-001
    endloop
  endfacet
  facet normal -9.618257e-001 -2.736630e-001  -0.000000e+000
    outer loop
      vertex  2.098063e+000  8.127937e-001  6.000000e-001
      vertex  2.098063e+000  8.127937e-001  1.776357e-015
      vertex  2.211689e+000  4.134364e-001  1.776357e-015
    endloop
  endfacet
  facet normal -9.618257e-001 -2.736630e-001  0.000000e+000
    outer loop
      vertex  2.098063e+000  8.127937e-001  6.000000e-001
      vertex  2.211689e+000  4.134364e-001  1.776357e-015
      vertex  2.211689e+000  4.134364e-001  6.000000e-001
    endloop
  endfacet
  facet normal -9.957342e-001 -9.226837e-002  -0.000000e+000
    outer loop
      vertex  2.211689e+000  4.134364e-001  6.000000e-001
      vertex  2.211689e+000  4.134364e-001  1.776357e-015
      vertex  2.250000e+000  0.000000e+000  1.776357e-015
    endloop
  endfacet
  facet normal -9.957342e-001 -9.226837e-002  0.000000e+000
    outer loop
      vertex  2.211689e+000  4.134364e-001  6.000000e-001
      vertex  2.250000e+000  0.000000e+000  1.776357e-015
      vertex  2.250000e+000  0.000000e+000  6.000000e-001
    endloop
  endfacet
  facet normal -1.837495e-001 -9.829730e-001  -0.000000e+000
    outer loop
      vertex  6.157417e-001  2.164108e+000  1.776357e-015
      vertex  2.076038e-001  2.240402e+000  6.000000e-001
      vertex  2.076038e-001  2.240402e+000  1.776357e-015
    endloop
  endfacet
  facet normal  0.000000e+000 -1.000000e+000  0.000000e+000
    outer loop
      vertex  2.076038e-001  2.240402e+000  1.776357e-015
      vertex  2.076038e-001  2.240402e+000  6.000000e-001
      vertex -2.076038e-001  2.240402e+000  6.000000e-001
    endloop
  endfacet
  facet normal  0.000000e+000 -1.000000e+000  0.000000e+000
    outer loop
      vertex  2.076038e-001  2.240402e+000  1.776357e-015
      vertex -2.076038e-001  2.240402e+000  6.000000e-001
      vertex -2.076038e-001  2.240402e+000  1.776357e-015
    endloop
  endfacet
  facet normal  1.837495e-001 -9.829730e-001  0.000000e+000
    outer loop
      vertex -2.076038e-001  2.240402e+000  1.776357e-015
      vertex -2.076038e-001  2.240402e+000  6.000000e-001
      vertex -6.157417e-001  2.164108e+000  6.000000e-001
    endloop
  endfacet
  facet normal  1.837495e-001 -9.829730e-001  0.000000e+000
    outer loop
      vertex -2.076038e-001  2.240402e+000  1.776357e-015
      vertex -6.157417e-001  2.164108e+000  6.000000e-001
      vertex -6.157417e-001  2.164108e+000  1.776357e-015
    endloop
  endfacet
  facet normal  3.612417e-001 -9.324722e-001  0.000000e+000
    outer loop
      vertex -6.157417e-001  2.164108e+000  1.776357e-015
      vertex -6.157417e-001  2.164108e+000  6.000000e-001
      vertex -1.002911e+000  2.014117e+000  6.000000e-001
    endloop
  endfacet
  facet normal  3.612417e-001 -9.324722e-001  0.000000e+000
    outer loop
      vertex -6.157417e-001  2.164108e+000  1.776357e-015
      vertex -1.002911e+000  2.014117e+000  6.000000e-001
      vertex -1.002911e+000  2.014117e+000  1.776357e-015
    endloop
  endfacet
  facet normal  5.264323e-001 -8.502170e-001  0.000000e+000
    outer loop
      vertex -1.002911e+000  2.014117e+000  1.776357e-015
      vertex -1.002911e+000  2.014117e+000  6.000000e-001
      vertex -1.355928e+000  1.795539e+000  6.000000e-001
    endloop
  endfacet
  facet normal  5.264323e-001 -8.502170e-001  0.000000e+000
    outer loop
      vertex -1.002911e+000  2.014117e+000  1.776357e-015
      vertex -1.355928e+000  1.795539e+000  6.000000e-001
      vertex -1.355928e+000  1.795539e+000  1.776357e-015
    endloop
  endfacet
  facet normal  6.736958e-001 -7.390088e-001  0.000000e+000
    outer loop
      vertex -1.355928e+000  1.795539e+000  1.776357e-015
      vertex -1.355928e+000  1.795539e+000  6.000000e-001
      vertex -1.662770e+000  1.515815e+000  6.000000e-001
    endloop
  endfacet
  facet normal  6.736958e-001 -7.390088e-001  0.000000e+000
    outer loop
      vertex -1.355928e+000  1.795539e+000  1.776357e-015
      vertex -1.662770e+000  1.515815e+000  6.000000e-001
      vertex -1.662770e+000  1.515815e+000  1.776357e-015
    endloop
  endfacet
  facet normal  7.980172e-001 -6.026346e-001  0.000000e+000
    outer loop
      vertex -1.662770e+000  1.515815e+000  1.776357e-015
      vertex -1.662770e+000  1.515815e+000  6.000000e-001
      vertex -1.912989e+000  1.184472e+000  6.000000e-001
    endloop
  endfacet
  facet normal  7.980172e-001 -6.026346e-001  0.000000e+000
    outer loop
      vertex -1.662770e+000  1.515815e+000  1.776357e-015
      vertex -1.912989e+000  1.184472e+000  6.000000e-001
      vertex -1.912989e+000  1.184472e+000  1.776357e-015
    endloop
  endfacet
  facet normal  8.951632e-001 -4.457384e-001  0.000000e+000
    outer loop
      vertex -1.912989e+000  1.184472e+000  1.776357e-015
      vertex -1.912989e+000  1.184472e+000  6.000000e-001
      vertex -2.098063e+000  8.127937e-001  6.000000e-001
    endloop
  endfacet
  facet normal  8.951632e-001 -4.457384e-001  0.000000e+000
    outer loop
      vertex -1.912989e+000  1.184472e+000  1.776357e-015
      vertex -2.098063e+000  8.127937e-001  6.000000e-001
      vertex -2.098063e+000  8.127937e-001  1.776357e-015
    endloop
  endfacet
  facet normal  9.618257e-001 -2.736630e-001  0.000000e+000
    outer loop
      vertex -2.098063e+000  8.127937e-001  1.776357e-015
      vertex -2.098063e+000  8.127937e-001  6.000000e-001
      vertex -2.211689e+000  4.134364e-001  6.000000e-001
    endloop
  endfacet
  facet normal  9.618257e-001 -2.736630e-001  0.000000e+000
    outer loop
      vertex -2.098063e+000  8.127937e-001  1.776357e-015
      vertex -2.211689e+000  4.134364e-001  6.000000e-001
      vertex -2.211689e+000  4.134364e-001  1.776357e-015
    endloop
  endfacet
  facet normal  9.957342e-001 -9.226837e-002  0.000000e+000
    outer loop
      vertex -2.211689e+000  4.134364e-001  1.776357e-015
      vertex -2.211689e+000  4.134364e-001  6.000000e-001
      vertex -2.250000e+000 -2.755455e-016  6.000000e-001
    endloop
  endfacet
  facet normal  9.957342e-001 -9.226837e-002  0.000000e+000
    outer loop
      vertex -2.211689e+000  4.134364e-001  1.776357e-015
      vertex -2.250000e+000 -2.755455e-016  6.000000e-001
      vertex -2.250000e+000 -2.755455e-016  2.220446e-015
    endloop
  endfacet
  facet normal -7.071068e-001  0.000000e+000  7.071067e-001
    outer loop
      vertex -4.707107e+000  6.000000e+000  2.290812e+000
      vertex -3.290812e+000  2.314706e+000  3.707107e+000
      vertex -3.290812e+000  6.000000e+000  3.707107e+000
    endloop
  endfacet
  facet normal -7.071068e-001  0.000000e+000  7.071068e-001
    outer loop
      vertex -3.290812e+000  2.314706e+000  3.707107e+000
      vertex -4.707107e+000  6.000000e+000  2.290812e+000
      vertex -3.650000e+000  2.107328e+000  3.347919e+000
    endloop
  endfacet
  facet normal -7.071068e-001  0.000000e+000  7.071066e-001
    outer loop
      vertex -3.650000e+000  2.107328e+000  3.347919e+000
      vertex -4.707107e+000  6.000000e+000  2.290812e+000
      vertex -4.707107e+000 -6.000000e+000  2.290812e+000
    endloop
  endfacet
  facet normal -7.071068e-001  0.000000e+000  7.071067e-001
    outer loop
      vertex -3.650000e+000  2.107328e+000  3.347919e+000
      vertex -4.707107e+000 -6.000000e+000  2.290812e+000
      vertex -3.650000e+000 -2.107328e+000  3.347919e+000
    endloop
  endfacet
  facet normal -7.071069e-001 -1.146713e-008  7.071067e-001
    outer loop
      vertex -3.650000e+000 -2.107328e+000  3.347919e+000
      vertex -4.707107e+000 -6.000000e+000  2.290812e+000
      vertex -3.290812e+000 -6.000000e+000  3.707107e+000
    endloop
  endfacet
  facet normal -7.071068e-001  0.000000e+000  7.071068e-001
    outer loop
      vertex -3.650000e+000 -2.107328e+000  3.347919e+000
      vertex -3.290812e+000 -6.000000e+000  3.707107e+000
      vertex -3.290812e+000 -2.314706e+000  3.707107e+000
    endloop
  endfacet
  facet normal -2.902846e-001  1.327578e-003  9.569395e-001
    outer loop
      vertex -2.778795e+000  6.000000e+000  3.980785e+000
      vertex -2.966388e+000  6.000000e+000  3.923880e+000
      vertex -2.894298e+000  2.543633e+000  3.950543e+000
    endloop
  endfacet
  facet normal -3.822640e-001 -8.445666e-004  9.240528e-001
    outer loop
      vertex -2.894298e+000  2.543633e+000  3.950543e+000
      vertex -2.966388e+000  6.000000e+000  3.923880e+000
      vertex -3.036207e+000  2.461702e+000  3.891763e+000
    endloop
  endfacet
  facet normal -4.713969e-001  1.296675e-003  8.819202e-001
    outer loop
      vertex -3.036207e+000  2.461702e+000  3.891763e+000
      vertex -2.966388e+000  6.000000e+000  3.923880e+000
      vertex -3.139275e+000  6.000000e+000  3.831470e+000
    endloop
  endfacet
  facet normal -7.863048e-002  0.000000e+000  9.969038e-001
    outer loop
      vertex -2.583705e+000  2.722954e+000  4.000000e+000
      vertex -2.583705e+000  6.000000e+000  4.000000e+000
      vertex -2.740480e+000  2.632440e+000  3.987634e+000
    endloop
  endfacet
  facet normal -9.801666e-002  9.088274e-004  9.951844e-001
    outer loop
      vertex -2.740480e+000  2.632440e+000  3.987634e+000
      vertex -2.583705e+000  6.000000e+000  4.000000e+000
      vertex -2.778795e+000  6.000000e+000  3.980785e+000
    endloop
  endfacet
  facet normal -2.340446e-001 -6.855599e-004  9.722255e-001
    outer loop
      vertex -2.740480e+000  2.632440e+000  3.987634e+000
      vertex -2.778795e+000  6.000000e+000  3.980785e+000
      vertex -2.894298e+000  2.543633e+000  3.950543e+000
    endloop
  endfacet
  facet normal -6.343926e-001  0.000000e+000  7.730111e-001
    outer loop
      vertex -3.290812e+000  6.000000e+000  3.707107e+000
      vertex -3.290812e+000  2.314706e+000  3.707107e+000
      vertex -3.139275e+000  6.000000e+000  3.831470e+000
    endloop
  endfacet
  facet normal -6.488569e-001  1.003129e-003  7.609099e-001
    outer loop
      vertex -3.139275e+000  6.000000e+000  3.831470e+000
      vertex -3.290812e+000  2.314706e+000  3.707107e+000
      vertex -3.169521e+000  2.384733e+000  3.810444e+000
    endloop
  endfacet
  facet normal -5.204905e-001 -6.114070e-004  8.538672e-001
    outer loop
      vertex -3.139275e+000  6.000000e+000  3.831470e+000
      vertex -3.169521e+000  2.384733e+000  3.810444e+000
      vertex -3.036207e+000  2.461702e+000  3.891763e+000
    endloop
  endfacet
  facet normal -2.902846e-001 -1.327578e-003  9.569395e-001
    outer loop
      vertex -2.778795e+000 -6.000000e+000  3.980785e+000
      vertex -2.894298e+000 -2.543633e+000  3.950543e+000
      vertex -2.966388e+000 -6.000000e+000  3.923880e+000
    endloop
  endfacet
  facet normal -3.822640e-001  8.445670e-004  9.240527e-001
    outer loop
      vertex -2.894298e+000 -2.543633e+000  3.950543e+000
      vertex -3.036207e+000 -2.461702e+000  3.891763e+000
      vertex -2.966388e+000 -6.000000e+000  3.923880e+000
    endloop
  endfacet
  facet normal -4.713969e-001 -1.296675e-003  8.819202e-001
    outer loop
      vertex -3.139275e+000 -6.000000e+000  3.831470e+000
      vertex -2.966388e+000 -6.000000e+000  3.923880e+000
      vertex -3.036207e+000 -2.461702e+000  3.891763e+000
    endloop
  endfacet
  facet normal -9.801669e-002  0.000000e+000  9.951848e-001
    outer loop
      vertex -2.583705e+000 -6.000000e+000  4.000000e+000
      vertex -2.583705e+000 -2.722954e+000  4.000000e+000
      vertex -2.778795e+000 -6.000000e+000  3.980785e+000
    endloop
  endfacet
  facet normal -7.927617e-002 -1.125444e-003  9.968520e-001
    outer loop
      vertex -2.778795e+000 -6.000000e+000  3.980785e+000
      vertex -2.583705e+000 -2.722954e+000  4.000000e+000
      vertex -2.740480e+000 -2.632440e+000  3.987634e+000
    endloop
  endfacet
  facet normal -2.340446e-001  6.855599e-004  9.722255e-001
    outer loop
      vertex -2.778795e+000 -6.000000e+000  3.980785e+000
      vertex -2.740480e+000 -2.632440e+000  3.987634e+000
      vertex -2.894298e+000 -2.543633e+000  3.950543e+000
    endloop
  endfacet
  facet normal -6.485217e-001  0.000000e+000  7.611962e-001
    outer loop
      vertex -3.290812e+000 -2.314706e+000  3.707107e+000
      vertex -3.290812e+000 -6.000000e+000  3.707107e+000
      vertex -3.169521e+000 -2.384733e+000  3.810444e+000
    endloop
  endfacet
  facet normal -6.343923e-001 -8.117416e-004  7.730108e-001
    outer loop
      vertex -3.169521e+000 -2.384733e+000  3.810444e+000
      vertex -3.290812e+000 -6.000000e+000  3.707107e+000
      vertex -3.139275e+000 -6.000000e+000  3.831470e+000
    endloop
  endfacet
  facet normal -5.204905e-001  6.114069e-004  8.538672e-001
    outer loop
      vertex -3.169521e+000 -2.384733e+000  3.810444e+000
      vertex -3.139275e+000 -6.000000e+000  3.831470e+000
      vertex -3.036207e+000 -2.461702e+000  3.891763e+000
    endloop
  endfacet
  facet normal  -0.000000e+000  0.000000e+000  1.000000e+000
    outer loop
      vertex  2.583705e+000 -2.722954e+000  4.000000e+000
      vertex  5.551115e-015 -4.214657e+000  4.000000e+000
      vertex  2.583705e+000 -6.000000e+000  4.000000e+000
    endloop
  endfacet
  facet normal  0.000000e+000  0.000000e+000  1.000000e+000
    outer loop
      vertex  2.583705e+000 -6.000000e+000  4.000000e+000
      vertex  5.551115e-015 -4.214657e+000  4.000000e+000
      vertex -2.583705e+000 -2.722954e+000  4.000000e+000
    endloop
  endfacet
  facet normal  0.000000e+000  0.000000e+000  1.000000e+000
    outer loop
      vertex  2.583705e+000 -6.000000e+000  4.000000e+000
      vertex -2.583705e+000 -2.722954e+000  4.000000e+000
      vertex -2.583705e+000 -6.000000e+000  4.000000e+000
    endloop
  endfacet
  facet normal  0.000000e+000  0.000000e+000  1.000000e+000
    outer loop
      vertex  2.583705e+000  2.722954e+000  4.000000e+000
      vertex  2.583705e+000  6.000000e+000  4.000000e+000
      vertex -3.552714e-015  4.214657e+000  4.000000e+000
    endloop
  endfacet
  facet normal  0.000000e+000  -0.000000e+000  1.000000e+000
    outer loop
      vertex -3.552714e-015  4.214657e+000  4.000000e+000
      vertex  2.583705e+000  6.000000e+000  4.000000e+000
      vertex -2.583705e+000  6.000000e+000  4.000000e+000
    endloop
  endfacet
  facet normal  0.000000e+000  0.000000e+000  1.000000e+000
    outer loop
      vertex -3.552714e-015  4.214657e+000  4.000000e+000
      vertex -2.583705e+000  6.000000e+000  4.000000e+000
      vertex -2.583705e+000  2.722954e+000  4.000000e+000
    endloop
  endfacet
  facet normal  4.713969e-001  1.296675e-003  8.819202e-001
    outer loop
      vertex  3.139275e+000  6.000000e+000  3.831470e+000
      vertex  2.966388e+000  6.000000e+000  3.923880e+000
      vertex  3.036207e+000  2.461702e+000  3.891763e+000
    endloop
  endfacet
  facet normal  3.822640e-001 -8.445670e-004  9.240527e-001
    outer loop
      vertex  2.894298e+000  2.543633e+000  3.950543e+000
      vertex  3.036207e+000  2.461702e+000  3.891763e+000
      vertex  2.966388e+000  6.000000e+000  3.923880e+000
    endloop
  endfacet
  facet normal  2.902846e-001  1.327578e-003  9.569395e-001
    outer loop
      vertex  2.966388e+000  6.000000e+000  3.923880e+000
      vertex  2.778795e+000  6.000000e+000  3.980785e+000
      vertex  2.894298e+000  2.543633e+000  3.950543e+000
    endloop
  endfacet
  facet normal  6.485217e-001  0.000000e+000  7.611962e-001
    outer loop
      vertex  3.290812e+000  2.314706e+000  3.707107e+000
      vertex  3.290812e+000  6.000000e+000  3.707107e+000
      vertex  3.169521e+000  2.384733e+000  3.810444e+000
    endloop
  endfacet
  facet normal  6.343923e-001  8.117416e-004  7.730108e-001
    outer loop
      vertex  3.169521e+000  2.384733e+000  3.810444e+000
      vertex  3.290812e+000  6.000000e+000  3.707107e+000
      vertex  3.139275e+000  6.000000e+000  3.831470e+000
    endloop
  endfacet
  facet normal  5.204905e-001 -6.114069e-004  8.538672e-001
    outer loop
      vertex  3.169521e+000  2.384733e+000  3.810444e+000
      vertex  3.139275e+000  6.000000e+000  3.831470e+000
      vertex  3.036207e+000  2.461702e+000  3.891763e+000
    endloop
  endfacet
  facet normal  9.801669e-002  -0.000000e+000  9.951848e-001
    outer loop
      vertex  2.583705e+000  6.000000e+000  4.000000e+000
      vertex  2.583705e+000  2.722954e+000  4.000000e+000
      vertex  2.778795e+000  6.000000e+000  3.980785e+000
    endloop
  endfacet
  facet normal  7.927617e-002  1.125444e-003  9.968520e-001
    outer loop
      vertex  2.778795e+000  6.000000e+000  3.980785e+000
      vertex  2.583705e+000  2.722954e+000  4.000000e+000
      vertex  2.740480e+000  2.632440e+000  3.987634e+000
    endloop
  endfacet
  facet normal  2.340446e-001 -6.855599e-004  9.722255e-001
    outer loop
      vertex  2.778795e+000  6.000000e+000  3.980785e+000
      vertex  2.740480e+000  2.632440e+000  3.987634e+000
      vertex  2.894298e+000  2.543633e+000  3.950543e+000
    endloop
  endfacet
  facet normal  4.713969e-001 -1.296676e-003  8.819202e-001
    outer loop
      vertex  3.139275e+000 -6.000000e+000  3.831470e+000
      vertex  3.036207e+000 -2.461702e+000  3.891763e+000
      vertex  2.966388e+000 -6.000000e+000  3.923880e+000
    endloop
  endfacet
  facet normal  3.822640e-001  8.445670e-004  9.240527e-001
    outer loop
      vertex  2.966388e+000 -6.000000e+000  3.923880e+000
      vertex  3.036207e+000 -2.461702e+000  3.891763e+000
      vertex  2.894298e+000 -2.543633e+000  3.950543e+000
    endloop
  endfacet
  facet normal  2.902846e-001 -1.327578e-003  9.569395e-001
    outer loop
      vertex  2.966388e+000 -6.000000e+000  3.923880e+000
      vertex  2.894298e+000 -2.543633e+000  3.950543e+000
      vertex  2.778795e+000 -6.000000e+000  3.980785e+000
    endloop
  endfacet
  facet normal  6.343926e-001  0.000000e+000  7.730111e-001
    outer loop
      vertex  3.290812e+000 -6.000000e+000  3.707107e+000
      vertex  3.290812e+000 -2.314706e+000  3.707107e+000
      vertex  3.139275e+000 -6.000000e+000  3.831470e+000
    endloop
  endfacet
  facet normal  6.488569e-001 -1.003129e-003  7.609099e-001
    outer loop
      vertex  3.139275e+000 -6.000000e+000  3.831470e+000
      vertex  3.290812e+000 -2.314706e+000  3.707107e+000
      vertex  3.169521e+000 -2.384733e+000  3.810444e+000
    endloop
  endfacet
  facet normal  5.204905e-001  6.114070e-004  8.538672e-001
    outer loop
      vertex  3.139275e+000 -6.000000e+000  3.831470e+000
      vertex  3.169521e+000 -2.384733e+000  3.810444e+000
      vertex  3.036207e+000 -2.461702e+000  3.891763e+000
    endloop
  endfacet
  facet normal  7.863048e-002  -0.000000e+000  9.969038e-001
    outer loop
      vertex  2.583705e+000 -2.722954e+000  4.000000e+000
      vertex  2.583705e+000 -6.000000e+000  4.000000e+000
      vertex  2.740480e+000 -2.632440e+000  3.987634e+000
    endloop
  endfacet
  facet normal  9.801666e-002 -9.088274e-004  9.951844e-001
    outer loop
      vertex  2.740480e+000 -2.632440e+000  3.987634e+000
      vertex  2.583705e+000 -6.000000e+000  4.000000e+000
      vertex  2.778795e+000 -6.000000e+000  3.980785e+000
    endloop
  endfacet
  facet normal  2.340446e-001  6.855599e-004  9.722255e-001
    outer loop
      vertex  2.740480e+000 -2.632440e+000  3.987634e+000
      vertex  2.778795e+000 -6.000000e+000  3.980785e+000
      vertex  2.894298e+000 -2.543633e+000  3.950543e+000
    endloop
  endfacet
  facet normal  7.071068e-001  0.000000e+000  7.071068e-001
    outer loop
      vertex  3.650000e+000  2.107328e+000  3.347919e+000
      vertex  3.290812e+000  6.000000e+000  3.707107e+000
      vertex  3.290812e+000  2.314706e+000  3.707107e+000
    endloop
  endfacet
  facet normal  7.071069e-001  1.146713e-008  7.071067e-001
    outer loop
      vertex  3.290812e+000  6.000000e+000  3.707107e+000
      vertex  3.650000e+000  2.107328e+000  3.347919e+000
      vertex  4.707107e+000  6.000000e+000  2.290812e+000
    endloop
  endfacet
  facet normal  7.071068e-001  0.000000e+000  7.071067e-001
    outer loop
      vertex  4.707107e+000  6.000000e+000  2.290812e+000
      vertex  3.650000e+000  2.107328e+000  3.347919e+000
      vertex  3.650000e+000 -2.107328e+000  3.347919e+000
    endloop
  endfacet
  facet normal  7.071068e-001  0.000000e+000  7.071066e-001
    outer loop
      vertex  4.707107e+000  6.000000e+000  2.290812e+000
      vertex  3.650000e+000 -2.107328e+000  3.347919e+000
      vertex  4.707107e+000 -6.000000e+000  2.290812e+000
    endloop
  endfacet
  facet normal  7.071068e-001  0.000000e+000  7.071068e-001
    outer loop
      vertex  4.707107e+000 -6.000000e+000  2.290812e+000
      vertex  3.650000e+000 -2.107328e+000  3.347919e+000
      vertex  3.290812e+000 -2.314706e+000  3.707107e+000
    endloop
  endfacet
  facet normal  7.071068e-001  0.000000e+000  7.071067e-001
    outer loop
      vertex  4.707107e+000 -6.000000e+000  2.290812e+000
      vertex  3.290812e+000 -2.314706e+000  3.707107e+000
      vertex  3.290812e+000 -6.000000e+000  3.707107e+000
    endloop
  endfacet
  facet normal -5.000000e-001  8.660254e-001  7.270527e-006
    outer loop
      vertex  5.551115e-015 -4.214657e+000  4.000000e+000
      vertex  2.583705e+000 -2.722954e+000  4.000000e+000
      vertex  2.740480e+000 -2.632440e+000  3.987634e+000
    endloop
  endfacet
  facet normal -5.000000e-001  8.660253e-001 -7.762603e-007
    outer loop
      vertex  5.551115e-015 -4.214657e+000  4.000000e+000
      vertex  2.740480e+000 -2.632440e+000  3.987634e+000
      vertex  2.894298e+000 -2.543633e+000  3.950543e+000
    endloop
  endfacet
  facet normal -5.000000e-001  8.660254e-001 -1.265876e-006
    outer loop
      vertex  5.551115e-015 -4.214657e+000  4.000000e+000
      vertex  2.894298e+000 -2.543633e+000  3.950543e+000
      vertex  3.036207e+000 -2.461702e+000  3.891763e+000
    endloop
  endfacet
  facet normal -4.999999e-001  8.660254e-001  4.440915e-007
    outer loop
      vertex  5.551115e-015 -4.214657e+000  4.000000e+000
      vertex  3.036207e+000 -2.461702e+000  3.891763e+000
      vertex  3.169521e+000 -2.384733e+000  3.810444e+000
    endloop
  endfacet
  facet normal -4.999999e-001  8.660255e-001  1.016998e-006
    outer loop
      vertex  5.551115e-015 -4.214657e+000  4.000000e+000
      vertex  3.169521e+000 -2.384733e+000  3.810444e+000
      vertex  3.290812e+000 -2.314706e+000  3.707107e+000
    endloop
  endfacet
  facet normal -5.000000e-001  8.660253e-001 -9.587352e-008
    outer loop
      vertex  5.551115e-015 -4.214657e+000  4.000000e+000
      vertex  3.290812e+000 -2.314706e+000  3.707107e+000
      vertex  3.650000e+000 -2.107328e+000  3.347919e+000
    endloop
  endfacet
  facet normal -5.000000e-001  8.660254e-001  0.000000e+000
    outer loop
      vertex  5.551115e-015 -4.214657e+000  4.000000e+000
      vertex  3.650000e+000 -2.107328e+000  3.347919e+000
      vertex  3.650000e+000 -2.107328e+000  6.000000e-001
    endloop
  endfacet
  facet normal -5.000000e-001  8.660254e-001  0.000000e+000
    outer loop
      vertex  5.551115e-015 -4.214657e+000  4.000000e+000
      vertex  3.650000e+000 -2.107328e+000  6.000000e-001
      vertex  5.551115e-015 -4.214657e+000  6.000000e-001
    endloop
  endfacet
  facet normal -1.000000e+000  -0.000000e+000  0.000000e+000
    outer loop
      vertex  3.650000e+000 -2.107328e+000  3.347919e+000
      vertex  3.650000e+000  2.107328e+000  3.347919e+000
      vertex  3.650000e+000 -2.107328e+000  6.000000e-001
    endloop
  endfacet
  facet normal -1.000000e+000  0.000000e+000  0.000000e+000
    outer loop
      vertex  3.650000e+000 -2.107328e+000  6.000000e-001
      vertex  3.650000e+000  2.107328e+000  3.347919e+000
      vertex  3.650000e+000  2.107328e+000  6.000000e-001
    endloop
  endfacet
  facet normal -5.000000e-001 -8.660254e-001  0.000000e+000
    outer loop
      vertex -3.552714e-015  4.214657e+000  4.000000e+000
      vertex -3.552714e-015  4.214657e+000  6.000000e-001
      vertex  3.650000e+000  2.107328e+000  6.000000e-001
    endloop
  endfacet
  facet normal -5.000000e-001 -8.660254e-001  0.000000e+000
    outer loop
      vertex -3.552714e-015  4.214657e+000  4.000000e+000
      vertex  3.650000e+000  2.107328e+000  6.000000e-001
      vertex  3.650000e+000  2.107328e+000  3.347919e+000
    endloop
  endfacet
  facet normal -5.000000e-001 -8.660254e-001 -4.793676e-008
    outer loop
      vertex -3.552714e-015  4.214657e+000  4.000000e+000
      vertex  3.650000e+000  2.107328e+000  3.347919e+000
      vertex  3.290812e+000  2.314706e+000  3.707107e+000
    endloop
  endfacet
  facet normal -4.999999e-001 -8.660255e-001  1.016998e-006
    outer loop
      vertex -3.552714e-015  4.214657e+000  4.000000e+000
      vertex  3.290812e+000  2.314706e+000  3.707107e+000
      vertex  3.169521e+000  2.384733e+000  3.810444e+000
    endloop
  endfacet
  facet normal -4.999999e-001 -8.660254e-001  4.996029e-007
    outer loop
      vertex -3.552714e-015  4.214657e+000  4.000000e+000
      vertex  3.169521e+000  2.384733e+000  3.810444e+000
      vertex  3.036207e+000  2.461702e+000  3.891763e+000
    endloop
  endfacet
  facet normal -5.000000e-001 -8.660254e-001 -1.265876e-006
    outer loop
      vertex -3.552714e-015  4.214657e+000  4.000000e+000
      vertex  3.036207e+000  2.461702e+000  3.891763e+000
      vertex  2.894298e+000  2.543633e+000  3.950543e+000
    endloop
  endfacet
  facet normal -5.000000e-001 -8.660253e-001 -7.762603e-007
    outer loop
      vertex -3.552714e-015  4.214657e+000  4.000000e+000
      vertex  2.894298e+000  2.543633e+000  3.950543e+000
      vertex  2.740480e+000  2.632440e+000  3.987634e+000
    endloop
  endfacet
  facet normal -5.000000e-001 -8.660254e-001  7.270527e-006
    outer loop
      vertex -3.552714e-015  4.214657e+000  4.000000e+000
      vertex  2.740480e+000  2.632440e+000  3.987634e+000
      vertex  2.583705e+000  2.722954e+000  4.000000e+000
    endloop
  endfacet
  facet normal  5.000000e-001 -8.660254e-001  7.270527e-006
    outer loop
      vertex -3.552714e-015  4.214657e+000  4.000000e+000
      vertex -2.583705e+000  2.722954e+000  4.000000e+000
      vertex -2.740480e+000  2.632440e+000  3.987634e+000
    endloop
  endfacet
  facet normal  5.000000e-001 -8.660253e-001 -7.762603e-007
    outer loop
      vertex -3.552714e-015  4.214657e+000  4.000000e+000
      vertex -2.740480e+000  2.632440e+000  3.987634e+000
      vertex -2.894298e+000  2.543633e+000  3.950543e+000
    endloop
  endfacet
  facet normal  5.000000e-001 -8.660254e-001 -1.265876e-006
    outer loop
      vertex -3.552714e-015  4.214657e+000  4.000000e+000
      vertex -2.894298e+000  2.543633e+000  3.950543e+000
      vertex -3.036207e+000  2.461702e+000  3.891763e+000
    endloop
  endfacet
  facet normal  4.999999e-001 -8.660254e-001  4.440915e-007
    outer loop
      vertex -3.552714e-015  4.214657e+000  4.000000e+000
      vertex -3.036207e+000  2.461702e+000  3.891763e+000
      vertex -3.169521e+000  2.384733e+000  3.810444e+000
    endloop
  endfacet
  facet normal  4.999999e-001 -8.660255e-001  1.016998e-006
    outer loop
      vertex -3.552714e-015  4.214657e+000  4.000000e+000
      vertex -3.169521e+000  2.384733e+000  3.810444e+000
      vertex -3.290812e+000  2.314706e+000  3.707107e+000
    endloop
  endfacet
  facet normal  5.000000e-001 -8.660253e-001 -9.587352e-008
    outer loop
      vertex -3.552714e-015  4.214657e+000  4.000000e+000
      vertex -3.290812e+000  2.314706e+000  3.707107e+000
      vertex -3.650000e+000  2.107328e+000  3.347919e+000
    endloop
  endfacet
  facet normal  5.000000e-001 -8.660254e-001  0.000000e+000
    outer loop
      vertex -3.552714e-015  4.214657e+000  4.000000e+000
      vertex -3.650000e+000  2.107328e+000  3.347919e+000
      vertex -3.650000e+000  2.107328e+000  6.000000e-001
    endloop
  endfacet
  facet normal  5.000000e-001 -8.660254e-001  0.000000e+000
    outer loop
      vertex -3.552714e-015  4.214657e+000  4.000000e+000
      vertex -3.650000e+000  2.107328e+000  6.000000e-001
      vertex -3.552714e-015  4.214657e+000  6.000000e-001
    endloop
  endfacet
  facet normal  1.000000e+000  -0.000000e+000  0.000000e+000
    outer loop
      vertex -3.650000e+000  2.107328e+000  3.347919e+000
      vertex -3.650000e+000 -2.107328e+000  3.347919e+000
      vertex -3.650000e+000  2.107328e+000  6.000000e-001
    endloop
  endfacet
  facet normal  1.000000e+000  0.000000e+000  0.000000e+000
    outer loop
      vertex -3.650000e+000  2.107328e+000  6.000000e-001
      vertex -3.650000e+000 -2.107328e+000  3.347919e+000
      vertex -3.650000e+000 -2.107328e+000  6.000000e-001
    endloop
  endfacet
  facet normal  5.000000e-001  8.660254e-001  -0.000000e+000
    outer loop
      vertex  5.551115e-015 -4.214657e+000  4.000000e+000
      vertex  5.551115e-015 -4.214657e+000  6.000000e-001
      vertex -3.650000e+000 -2.107328e+000  6.000000e-001
    endloop
  endfacet
  facet normal  5.000000e-001  8.660254e-001  -0.000000e+000
    outer loop
      vertex  5.551115e-015 -4.214657e+000  4.000000e+000
      vertex -3.650000e+000 -2.107328e+000  6.000000e-001
      vertex -3.650000e+000 -2.107328e+000  3.347919e+000
    endloop
  endfacet
  facet normal  5.000000e-001  8.660254e-001 -4.793676e-008
    outer loop
      vertex  5.551115e-015 -4.214657e+000  4.000000e+000
      vertex -3.650000e+000 -2.107328e+000  3.347919e+000
      vertex -3.290812e+000 -2.314706e+000  3.707107e+000
    endloop
  endfacet
  facet normal  4.999999e-001  8.660255e-001  1.016998e-006
    outer loop
      vertex  5.551115e-015 -4.214657e+000  4.000000e+000
      vertex -3.290812e+000 -2.314706e+000  3.707107e+000
      vertex -3.169521e+000 -2.384733e+000  3.810444e+000
    endloop
  endfacet
  facet normal  4.999999e-001  8.660254e-001  4.996029e-007
    outer loop
      vertex  5.551115e-015 -4.214657e+000  4.000000e+000
      vertex -3.169521e+000 -2.384733e+000  3.810444e+000
      vertex -3.036207e+000 -2.461702e+000  3.891763e+000
    endloop
  endfacet
  facet normal  5.000000e-001  8.660254e-001 -1.265876e-006
    outer loop
      vertex  5.551115e-015 -4.214657e+000  4.000000e+000
      vertex -3.036207e+000 -2.461702e+000  3.891763e+000
      vertex -2.894298e+000 -2.543633e+000  3.950543e+000
    endloop
  endfacet
  facet normal  5.000000e-001  8.660253e-001 -7.762603e-007
    outer loop
      vertex  5.551115e-015 -4.214657e+000  4.000000e+000
      vertex -2.894298e+000 -2.543633e+000  3.950543e+000
      vertex -2.740480e+000 -2.632440e+000  3.987634e+000
    endloop
  endfacet
  facet normal  5.000000e-001  8.660254e-001  7.270527e-006
    outer loop
      vertex  5.551115e-015 -4.214657e+000  4.000000e+000
      vertex -2.740480e+000 -2.632440e+000  3.987634e+000
      vertex -2.583705e+000 -2.722954e+000  4.000000e+000
    endloop
  endfacet
  facet normal  0.000000e+000  1.000000e+000  0.000000e+000
    outer loop
      vertex  2.583705e+000  6.000000e+000  4.000000e+000
      vertex  2.778795e+000  6.000000e+000  3.980785e+000
      vertex  2.966388e+000  6.000000e+000  3.923880e+000
    endloop
  endfacet
  facet normal  0.000000e+000  1.000000e+000  0.000000e+000
    outer loop
      vertex  2.583705e+000  6.000000e+000  4.000000e+000
      vertex  2.966388e+000  6.000000e+000  3.923880e+000
      vertex  3.139275e+000  6.000000e+000  3.831470e+000
    endloop
  endfacet
  facet normal  0.000000e+000  1.000000e+000  0.000000e+000
    outer loop
      vertex  2.583705e+000  6.000000e+000  4.000000e+000
      vertex  3.139275e+000  6.000000e+000  3.831470e+000
      vertex  3.290812e+000  6.000000e+000  3.707107e+000
    endloop
  endfacet
  facet normal  0.000000e+000  1.000000e+000  0.000000e+000
    outer loop
      vertex  2.583705e+000  6.000000e+000  4.000000e+000
      vertex  3.290812e+000  6.000000e+000  3.707107e+000
      vertex  4.707107e+000  6.000000e+000  2.290812e+000
    endloop
  endfacet
  facet normal  0.000000e+000  1.000000e+000  0.000000e+000
    outer loop
      vertex  2.583705e+000  6.000000e+000  4.000000e+000
      vertex  4.707107e+000  6.000000e+000  2.290812e+000
      vertex  4.831470e+000  6.000000e+000  2.139275e+000
    endloop
  endfacet
  facet normal  0.000000e+000  1.000000e+000  0.000000e+000
    outer loop
      vertex  2.583705e+000  6.000000e+000  4.000000e+000
      vertex  4.831470e+000  6.000000e+000  2.139275e+000
      vertex  4.923880e+000  6.000000e+000  1.966388e+000
    endloop
  endfacet
  facet normal  0.000000e+000  1.000000e+000  0.000000e+000
    outer loop
      vertex  2.583705e+000  6.000000e+000  4.000000e+000
      vertex  4.923880e+000  6.000000e+000  1.966388e+000
      vertex  4.980785e+000  6.000000e+000  1.778795e+000
    endloop
  endfacet
  facet normal  0.000000e+000  9.999999e-001  0.000000e+000
    outer loop
      vertex  2.583705e+000  6.000000e+000  4.000000e+000
      vertex  4.980785e+000  6.000000e+000  1.778795e+000
      vertex  5.000000e+000  6.000000e+000  1.583705e+000
    endloop
  endfacet
  facet normal  0.000000e+000  1.000000e+000  0.000000e+000
    outer loop
      vertex  2.583705e+000  6.000000e+000  4.000000e+000
      vertex  5.000000e+000  6.000000e+000  1.583705e+000
      vertex  5.000000e+000  6.000000e+000 -1.243450e-014
    endloop
  endfacet
  facet normal  0.000000e+000  1.000000e+000  0.000000e+000
    outer loop
      vertex  2.583705e+000  6.000000e+000  4.000000e+000
      vertex  5.000000e+000  6.000000e+000 -1.243450e-014
      vertex -5.000000e+000  6.000000e+000  1.776357e-015
    endloop
  endfacet
  facet normal  0.000000e+000  1.000000e+000  0.000000e+000
    outer loop
      vertex  2.583705e+000  6.000000e+000  4.000000e+000
      vertex -5.000000e+000  6.000000e+000  1.776357e-015
      vertex -2.583705e+000  6.000000e+000  4.000000e+000
    endloop
  endfacet
  facet normal  -0.000000e+000  1.000000e+000  0.000000e+000
    outer loop
      vertex -5.000000e+000  6.000000e+000  1.776357e-015
      vertex -5.000000e+000  6.000000e+000  1.583705e+000
      vertex -4.980785e+000  6.000000e+000  1.778795e+000
    endloop
  endfacet
  facet normal  -0.000000e+000  1.000000e+000  0.000000e+000
    outer loop
      vertex -5.000000e+000  6.000000e+000  1.776357e-015
      vertex -4.980785e+000  6.000000e+000  1.778795e+000
      vertex -4.923880e+000  6.000000e+000  1.966388e+000
    endloop
  endfacet
  facet normal  -0.000000e+000  1.000000e+000  0.000000e+000
    outer loop
      vertex -5.000000e+000  6.000000e+000  1.776357e-015
      vertex -4.923880e+000  6.000000e+000  1.966388e+000
      vertex -4.831470e+000  6.000000e+000  2.139275e+000
    endloop
  endfacet
  facet normal  -0.000000e+000  1.000000e+000  0.000000e+000
    outer loop
      vertex -5.000000e+000  6.000000e+000  1.776357e-015
      vertex -4.831470e+000  6.000000e+000  2.139275e+000
      vertex -4.707107e+000  6.000000e+000  2.290812e+000
    endloop
  endfacet
  facet normal  -0.000000e+000  1.000000e+000  0.000000e+000
    outer loop
      vertex -5.000000e+000  6.000000e+000  1.776357e-015
      vertex -4.707107e+000  6.000000e+000  2.290812e+000
      vertex -3.290812e+000  6.000000e+000  3.707107e+000
    endloop
  endfacet
  facet normal  -0.000000e+000  1.000000e+000  0.000000e+000
    outer loop
      vertex -5.000000e+000  6.000000e+000  1.776357e-015
      vertex -3.290812e+000  6.000000e+000  3.707107e+000
      vertex -3.139275e+000  6.000000e+000  3.831470e+000
    endloop
  endfacet
  facet normal  -0.000000e+000  1.000000e+000  0.000000e+000
    outer loop
      vertex -5.000000e+000  6.000000e+000  1.776357e-015
      vertex -3.139275e+000  6.000000e+000  3.831470e+000
      vertex -2.966388e+000  6.000000e+000  3.923880e+000
    endloop
  endfacet
  facet normal  -0.000000e+000  1.000000e+000  0.000000e+000
    outer loop
      vertex -5.000000e+000  6.000000e+000  1.776357e-015
      vertex -2.966388e+000  6.000000e+000  3.923880e+000
      vertex -2.778795e+000  6.000000e+000  3.980785e+000
    endloop
  endfacet
  facet normal  -0.000000e+000  1.000000e+000  0.000000e+000
    outer loop
      vertex -5.000000e+000  6.000000e+000  1.776357e-015
      vertex -2.778795e+000  6.000000e+000  3.980785e+000
      vertex -2.583705e+000  6.000000e+000  4.000000e+000
    endloop
  endfacet
  facet normal  0.000000e+000 -1.000000e+000  -0.000000e+000
    outer loop
      vertex  2.583705e+000 -6.000000e+000  4.000000e+000
      vertex -2.583705e+000 -6.000000e+000  4.000000e+000
      vertex -5.000000e+000 -6.000000e+000  1.776357e-015
    endloop
  endfacet
  facet normal  0.000000e+000 -1.000000e+000  0.000000e+000
    outer loop
      vertex  2.583705e+000 -6.000000e+000  4.000000e+000
      vertex -5.000000e+000 -6.000000e+000  1.776357e-015
      vertex  5.000000e+000 -6.000000e+000 -1.243450e-014
    endloop
  endfacet
  facet normal  0.000000e+000 -1.000000e+000  0.000000e+000
    outer loop
      vertex  2.583705e+000 -6.000000e+000  4.000000e+000
      vertex  5.000000e+000 -6.000000e+000 -1.243450e-014
      vertex  5.000000e+000 -6.000000e+000  1.583705e+000
    endloop
  endfacet
  facet normal  0.000000e+000 -9.999999e-001  0.000000e+000
    outer loop
      vertex  2.583705e+000 -6.000000e+000  4.000000e+000
      vertex  5.000000e+000 -6.000000e+000  1.583705e+000
      vertex  4.980785e+000 -6.000000e+000  1.778795e+000
    endloop
  endfacet
  facet normal  0.000000e+000 -1.000000e+000  0.000000e+000
    outer loop
      vertex  2.583705e+000 -6.000000e+000  4.000000e+000
      vertex  4.980785e+000 -6.000000e+000  1.778795e+000
      vertex  4.923880e+000 -6.000000e+000  1.966388e+000
    endloop
  endfacet
  facet normal  0.000000e+000 -1.000000e+000  0.000000e+000
    outer loop
      vertex  2.583705e+000 -6.000000e+000  4.000000e+000
      vertex  4.923880e+000 -6.000000e+000  1.966388e+000
      vertex  4.831470e+000 -6.000000e+000  2.139275e+000
    endloop
  endfacet
  facet normal  0.000000e+000 -1.000000e+000  0.000000e+000
    outer loop
      vertex  2.583705e+000 -6.000000e+000  4.000000e+000
      vertex  4.831470e+000 -6.000000e+000  2.139275e+000
      vertex  4.707107e+000 -6.000000e+000  2.290812e+000
    endloop
  endfacet
  facet normal  0.000000e+000 -1.000000e+000  0.000000e+000
    outer loop
      vertex  2.583705e+000 -6.000000e+000  4.000000e+000
      vertex  4.707107e+000 -6.000000e+000  2.290812e+000
      vertex  3.290812e+000 -6.000000e+000  3.707107e+000
    endloop
  endfacet
  facet normal  0.000000e+000 -1.000000e+000  0.000000e+000
    outer loop
      vertex  2.583705e+000 -6.000000e+000  4.000000e+000
      vertex  3.290812e+000 -6.000000e+000  3.707107e+000
      vertex  3.139275e+000 -6.000000e+000  3.831470e+000
    endloop
  endfacet
  facet normal  0.000000e+000 -1.000000e+000  0.000000e+000
    outer loop
      vertex  2.583705e+000 -6.000000e+000  4.000000e+000
      vertex  3.139275e+000 -6.000000e+000  3.831470e+000
      vertex  2.966388e+000 -6.000000e+000  3.923880e+000
    endloop
  endfacet
  facet normal  0.000000e+000 -9.999999e-001  0.000000e+000
    outer loop
      vertex  2.583705e+000 -6.000000e+000  4.000000e+000
      vertex  2.966388e+000 -6.000000e+000  3.923880e+000
      vertex  2.778795e+000 -6.000000e+000  3.980785e+000
    endloop
  endfacet
  facet normal  0.000000e+000 -1.000000e+000  0.000000e+000
    outer loop
      vertex -5.000000e+000 -6.000000e+000  1.776357e-015
      vertex -2.583705e+000 -6.000000e+000  4.000000e+000
      vertex -2.778795e+000 -6.000000e+000  3.980785e+000
    endloop
  endfacet
  facet normal  0.000000e+000 -1.000000e+000  0.000000e+000
    outer loop
      vertex -5.000000e+000 -6.000000e+000  1.776357e-015
      vertex -2.778795e+000 -6.000000e+000  3.980785e+000
      vertex -2.966388e+000 -6.000000e+000  3.923880e+000
    endloop
  endfacet
  facet normal  0.000000e+000 -1.000000e+000  0.000000e+000
    outer loop
      vertex -5.000000e+000 -6.000000e+000  1.776357e-015
      vertex -2.966388e+000 -6.000000e+000  3.923880e+000
      vertex -3.139275e+000 -6.000000e+000  3.831470e+000
    endloop
  endfacet
  facet normal  0.000000e+000 -1.000000e+000  0.000000e+000
    outer loop
      vertex -5.000000e+000 -6.000000e+000  1.776357e-015
      vertex -3.139275e+000 -6.000000e+000  3.831470e+000
      vertex -3.290812e+000 -6.000000e+000  3.707107e+000
    endloop
  endfacet
  facet normal  0.000000e+000 -1.000000e+000  0.000000e+000
    outer loop
      vertex -5.000000e+000 -6.000000e+000  1.776357e-015
      vertex -3.290812e+000 -6.000000e+000  3.707107e+000
      vertex -4.707107e+000 -6.000000e+000  2.290812e+000
    endloop
  endfacet
  facet normal  0.000000e+000 -1.000000e+000  0.000000e+000
    outer loop
      vertex -5.000000e+000 -6.000000e+000  1.776357e-015
      vertex -4.707107e+000 -6.000000e+000  2.290812e+000
      vertex -4.831470e+000 -6.000000e+000  2.139275e+000
    endloop
  endfacet
  facet normal  0.000000e+000 -1.000000e+000  0.000000e+000
    outer loop
      vertex -5.000000e+000 -6.000000e+000  1.776357e-015
      vertex -4.831470e+000 -6.000000e+000  2.139275e+000
      vertex -4.923880e+000 -6.000000e+000  1.966388e+000
    endloop
  endfacet
  facet normal  0.000000e+000 -1.000000e+000  0.000000e+000
    outer loop
      vertex -5.000000e+000 -6.000000e+000  1.776357e-015
      vertex -4.923880e+000 -6.000000e+000  1.966388e+000
      vertex -4.980785e+000 -6.000000e+000  1.778795e+000
    endloop
  endfacet
  facet normal  0.000000e+000 -1.000000e+000  0.000000e+000
    outer loop
      vertex -5.000000e+000 -6.000000e+000  1.776357e-015
      vertex -4.980785e+000 -6.000000e+000  1.778795e+000
      vertex -5.000000e+000 -6.000000e+000  1.583705e+000
    endloop
  endfacet
  facet normal  1.000000e+000  0.000000e+000  0.000000e+000
    outer loop
      vertex  5.000000e+000 -6.000000e+000 -1.243450e-014
      vertex  5.000000e+000  6.000000e+000 -1.243450e-014
      vertex  5.000000e+000 -6.000000e+000  1.583705e+000
    endloop
  endfacet
  facet normal  1.000000e+000  -0.000000e+000  0.000000e+000
    outer loop
      vertex  5.000000e+000 -6.000000e+000  1.583705e+000
      vertex  5.000000e+000  6.000000e+000 -1.243450e-014
      vertex  5.000000e+000  6.000000e+000  1.583705e+000
    endloop
  endfacet
  facet normal  9.951848e-001  0.000000e+000  9.801671e-002
    outer loop
      vertex  5.000000e+000 -6.000000e+000  1.583705e+000
      vertex  5.000000e+000  6.000000e+000  1.583705e+000
      vertex  4.980785e+000 -6.000000e+000  1.778795e+000
    endloop
  endfacet
  facet normal  9.951848e-001  -0.000000e+000  9.801671e-002
    outer loop
      vertex  4.980785e+000 -6.000000e+000  1.778795e+000
      vertex  5.000000e+000  6.000000e+000  1.583705e+000
      vertex  4.980785e+000  6.000000e+000  1.778795e+000
    endloop
  endfacet
  facet normal  9.569404e-001  0.000000e+000  2.902847e-001
    outer loop
      vertex  4.980785e+000 -6.000000e+000  1.778795e+000
      vertex  4.980785e+000  6.000000e+000  1.778795e+000
      vertex  4.923880e+000 -6.000000e+000  1.966388e+000
    endloop
  endfacet
  facet normal  9.569404e-001  -0.000000e+000  2.902847e-001
    outer loop
      vertex  4.923880e+000 -6.000000e+000  1.966388e+000
      vertex  4.980785e+000  6.000000e+000  1.778795e+000
      vertex  4.923880e+000  6.000000e+000  1.966388e+000
    endloop
  endfacet
  facet normal  8.819209e-001  0.000000e+000  4.713976e-001
    outer loop
      vertex  4.923880e+000 -6.000000e+000  1.966388e+000
      vertex  4.923880e+000  6.000000e+000  1.966388e+000
      vertex  4.831470e+000 -6.000000e+000  2.139275e+000
    endloop
  endfacet
  facet normal  8.819209e-001  -0.000000e+000  4.713976e-001
    outer loop
      vertex  4.831470e+000 -6.000000e+000  2.139275e+000
      vertex  4.923880e+000  6.000000e+000  1.966388e+000
      vertex  4.831470e+000  6.000000e+000  2.139275e+000
    endloop
  endfacet
  facet normal  7.730105e-001  0.000000e+000  6.343933e-001
    outer loop
      vertex  4.831470e+000 -6.000000e+000  2.139275e+000
      vertex  4.831470e+000  6.000000e+000  2.139275e+000
      vertex  4.707107e+000 -6.000000e+000  2.290812e+000
    endloop
  endfacet
  facet normal  7.730105e-001  -0.000000e+000  6.343933e-001
    outer loop
      vertex  4.707107e+000 -6.000000e+000  2.290812e+000
      vertex  4.831470e+000  6.000000e+000  2.139275e+000
      vertex  4.707107e+000  6.000000e+000  2.290812e+000
    endloop
  endfacet
  facet normal -1.000000e+000  -0.000000e+000  0.000000e+000
    outer loop
      vertex -5.000000e+000 -6.000000e+000  1.583705e+000
      vertex -5.000000e+000  6.000000e+000  1.583705e+000
      vertex -5.000000e+000 -6.000000e+000  1.776357e-015
    endloop
  endfacet
  facet normal -1.000000e+000  0.000000e+000  0.000000e+000
    outer loop
      vertex -5.000000e+000 -6.000000e+000  1.776357e-015
      vertex -5.000000e+000  6.000000e+000  1.583705e+000
      vertex -5.000000e+000  6.000000e+000  1.776357e-015
    endloop
  endfacet
  facet normal -7.730105e-001  0.000000e+000  6.343933e-001
    outer loop
      vertex -4.707107e+000 -6.000000e+000  2.290812e+000
      vertex -4.707107e+000  6.000000e+000  2.290812e+000
      vertex -4.831470e+000 -6.000000e+000  2.139275e+000
    endloop
  endfacet
  facet normal -7.730105e-001  0.000000e+000  6.343933e-001
    outer loop
      vertex -4.831470e+000 -6.000000e+000  2.139275e+000
      vertex -4.707107e+000  6.000000e+000  2.290812e+000
      vertex -4.831470e+000  6.000000e+000  2.139275e+000
    endloop
  endfacet
  facet normal -8.819209e-001  0.000000e+000  4.713976e-001
    outer loop
      vertex -4.831470e+000 -6.000000e+000  2.139275e+000
      vertex -4.831470e+000  6.000000e+000  2.139275e+000
      vertex -4.923880e+000 -6.000000e+000  1.966388e+000
    endloop
  endfacet
  facet normal -8.819209e-001  0.000000e+000  4.713976e-001
    outer loop
      vertex -4.923880e+000 -6.000000e+000  1.966388e+000
      vertex -4.831470e+000  6.000000e+000  2.139275e+000
      vertex -4.923880e+000  6.000000e+000  1.966388e+000
    endloop
  endfacet
  facet normal -9.569404e-001  0.000000e+000  2.902847e-001
    outer loop
      vertex -4.923880e+000 -6.000000e+000  1.966388e+000
      vertex -4.923880e+000  6.000000e+000  1.966388e+000
      vertex -4.980785e+000 -6.000000e+000  1.778795e+000
    endloop
  endfacet
  facet normal -9.569404e-001  0.000000e+000  2.902847e-001
    outer loop
      vertex -4.980785e+000 -6.000000e+000  1.778795e+000
      vertex -4.923880e+000  6.000000e+000  1.966388e+000
      vertex -4.980785e+000  6.000000e+000  1.778795e+000
    endloop
  endfacet
  facet normal -9.951848e-001  0.000000e+000  9.801671e-002
    outer loop
      vertex -4.980785e+000 -6.000000e+000  1.778795e+000
      vertex -4.980785e+000  6.000000e+000  1.778795e+000
      vertex -5.000000e+000 -6.000000e+000  1.583705e+000
    endloop
  endfacet
  facet normal -9.951848e-001  0.000000e+000  9.801671e-002
    outer loop
      vertex -5.000000e+000 -6.000000e+000  1.583705e+000
      vertex -4.980785e+000  6.000000e+000  1.778795e+000
      vertex -5.000000e+000  6.000000e+000  1.583705e+000
    endloop
  endfacet
endsolid CATIA STL
