solid Door_Stop
facet normal -0.0 -1.0 0.0
  outer loop
    vertex -50.0 -25.0 2.1854740239746206e-14
    vertex -9.999999999999996 -25.0 5.0000000000000036
    vertex -50.0 -25.0 5.00000000000002
  endloop
endfacet
facet normal -0.0 -1.0 0.0
  outer loop
    vertex -9.999999999999996 -25.0 5.0000000000000036
    vertex -50.0 -25.0 2.1854740239746206e-14
    vertex -9.999999999999998 -25.0 4.229949723821846e-15
  endloop
endfacet
facet normal 1.0 0.0 -4.3021142204224806e-16
  outer loop
    vertex 0.0 0.0 0.0
    vertex 2.1510571102112408e-15 -15.0 4.999999999999999
    vertex 0.0 -15.0 0.0
  endloop
endfacet
facet normal 1.0 0.0 -4.3021142204224806e-16
  outer loop
    vertex 2.1510571102112408e-15 -15.0 4.999999999999999
    vertex 0.0 0.0 0.0
    vertex 2.1510571102112408e-15 -12.0 4.999999999999999
  endloop
endfacet
facet normal 1.0 0.0 -4.3021142204224806e-16
  outer loop
    vertex 2.1510571102112408e-15 -12.0 4.999999999999999
    vertex 0.0 0.0 0.0
    vertex 2.581268532253488e-15 -12.0 6.0
  endloop
endfacet
facet normal 1.0 0.0 -4.3021142204224806e-16
  outer loop
    vertex 2.581268532253488e-15 -12.0 6.0
    vertex 0.0 0.0 0.0
    vertex 2.581268532253488e-15 0.0 6.0
  endloop
endfacet
facet normal -1.0 0.0 4.3021142204224806e-16
  outer loop
    vertex -59.99999999999999 0.0 6.000000000000026
    vertex -59.99999999999999 -12.0 5.000000000000025
    vertex -59.99999999999999 -12.0 6.000000000000026
  endloop
endfacet
facet normal -1.0 0.0 4.3021142204224806e-16
  outer loop
    vertex -59.99999999999999 -12.0 5.000000000000025
    vertex -59.99999999999999 -15.0 2.6084689963568052e-14
    vertex -59.99999999999999 -15.0 5.000000000000025
  endloop
endfacet
facet normal -1.0 0.0 4.3021142204224806e-16
  outer loop
    vertex -59.99999999999999 -15.0 2.6084689963568052e-14
    vertex -59.99999999999999 -12.0 5.000000000000025
    vertex -59.99999999999999 0.0 2.6084689963568052e-14
  endloop
endfacet
facet normal -1.0 0.0 4.3021142204224806e-16
  outer loop
    vertex -59.99999999999999 0.0 2.6084689963568052e-14
    vertex -59.99999999999999 -12.0 5.000000000000025
    vertex -59.99999999999999 0.0 6.000000000000026
  endloop
endfacet
facet normal 0.0 1.0 0.0
  outer loop
    vertex 0.0 0.0 0.0
    vertex -59.99999999999999 0.0 6.000000000000026
    vertex 2.581268532253488e-15 0.0 6.0
  endloop
endfacet
facet normal 0.0 1.0 0.0
  outer loop
    vertex -59.99999999999999 0.0 6.000000000000026
    vertex 0.0 0.0 0.0
    vertex -59.99999999999999 0.0 2.6084689963568052e-14
  endloop
endfacet
facet normal -4.302114220422479e-16 -2.9481330319019427e-31 -1.0
  outer loop
    vertex -0.10178558528423308 -16.42314910888672 0.0
    vertex 0.0 0.0 0.0
    vertex 0.0 -15.0 0.0
  endloop
endfacet
facet normal -4.302114220422479e-16 -2.9481330319019427e-31 -1.0
  outer loop
    vertex 0.0 0.0 0.0
    vertex -0.10178558528423308 -16.42314910888672 0.0
    vertex -59.99999999999999 0.0 2.6084689963568052e-14
  endloop
endfacet
facet normal -4.302114220422479e-16 -2.9481330319019427e-31 -1.0
  outer loop
    vertex -59.99999999999999 0.0 2.6084689963568052e-14
    vertex -0.10178558528423308 -16.42314910888672 0.0
    vertex -0.40507024526596064 -17.817325592041016 0.0
  endloop
endfacet
facet normal -4.302114220422479e-16 -2.9481330319019427e-31 -1.0
  outer loop
    vertex -59.99999999999999 0.0 2.6084689963568052e-14
    vertex -0.40507024526596064 -17.817325592041016 0.0
    vertex -0.9036800265312194 -19.154150009155273 7.049916206369744e-16
  endloop
endfacet
facet normal -4.302114220422479e-16 -2.9481330319019427e-31 -1.0
  outer loop
    vertex -59.99999999999999 0.0 2.6084689963568052e-14
    vertex -0.9036800265312194 -19.154150009155273 7.049916206369744e-16
    vertex -1.587464690208435 -20.406408309936523 7.049916206369744e-16
  endloop
endfacet
facet normal -4.302114220422479e-16 -2.9481330319019427e-31 -1.0
  outer loop
    vertex -59.99999999999999 0.0 2.6084689963568052e-14
    vertex -1.587464690208435 -20.406408309936523 7.049916206369744e-16
    vertex -2.4425041675567627 -21.548607349395752 7.049916206369744e-16
  endloop
endfacet
facet normal -4.302114220422479e-16 -2.9481330319019427e-31 -1.0
  outer loop
    vertex -59.99999999999999 0.0 2.6084689963568052e-14
    vertex -2.4425041675567627 -21.548607349395752 7.049916206369744e-16
    vertex -3.451392650604248 -22.557495832443237 1.4099832412739487e-15
  endloop
endfacet
facet normal -4.302114220422479e-16 -2.9481330319019427e-31 -1.0
  outer loop
    vertex -59.99999999999999 0.0 2.6084689963568052e-14
    vertex -3.451392650604248 -22.557495832443237 1.4099832412739487e-15
    vertex -4.593591690063477 -23.412535309791565 2.114974861910923e-15
  endloop
endfacet
facet normal -4.302114220422479e-16 -2.9481330319019427e-31 -1.0
  outer loop
    vertex -59.99999999999999 0.0 2.6084689963568052e-14
    vertex -4.593591690063477 -23.412535309791565 2.114974861910923e-15
    vertex -5.845849990844726 -24.09631997346878 2.8199664825478975e-15
  endloop
endfacet
facet normal -4.302114220422479e-16 -2.9481330319019427e-31 -1.0
  outer loop
    vertex -59.99999999999999 0.0 2.6084689963568052e-14
    vertex -5.845849990844726 -24.09631997346878 2.8199664825478975e-15
    vertex -7.1826744079589835 -24.59492975473404 2.8199664825478975e-15
  endloop
endfacet
facet normal -4.302114220422479e-16 -2.9481330319019427e-31 -1.0
  outer loop
    vertex -59.99999999999999 0.0 2.6084689963568052e-14
    vertex -7.1826744079589835 -24.59492975473404 2.8199664825478975e-15
    vertex -8.576850891113281 -24.898214414715767 3.524958103184872e-15
  endloop
endfacet
facet normal -4.302114220422479e-16 -2.9481330319019427e-31 -1.0
  outer loop
    vertex -59.99999999999999 0.0 2.6084689963568052e-14
    vertex -8.576850891113281 -24.898214414715767 3.524958103184872e-15
    vertex -9.999999999999998 -25.0 4.229949723821846e-15
  endloop
endfacet
facet normal -4.302114220422479e-16 -2.9481330319019427e-31 -1.0
  outer loop
    vertex -59.99999999999999 0.0 2.6084689963568052e-14
    vertex -9.999999999999998 -25.0 4.229949723821846e-15
    vertex -50.0 -25.0 2.1854740239746206e-14
  endloop
endfacet
facet normal -4.302114220422479e-16 -2.9481330319019427e-31 -1.0
  outer loop
    vertex -59.99999999999999 0.0 2.6084689963568052e-14
    vertex -50.0 -25.0 2.1854740239746206e-14
    vertex -51.42314910888671 -24.898214414715767 2.1854740239746206e-14
  endloop
endfacet
facet normal -4.302114220422479e-16 -2.9481330319019427e-31 -1.0
  outer loop
    vertex -59.99999999999999 0.0 2.6084689963568052e-14
    vertex -51.42314910888671 -24.898214414715767 2.1854740239746206e-14
    vertex -52.81732559204101 -24.59492975473404 2.255973186038318e-14
  endloop
endfacet
facet normal -4.302114220422479e-16 -2.9481330319019427e-31 -1.0
  outer loop
    vertex -59.99999999999999 0.0 2.6084689963568052e-14
    vertex -52.81732559204101 -24.59492975473404 2.255973186038318e-14
    vertex -54.154151916503906 -24.09631997346878 2.3264723481020153e-14
  endloop
endfacet
facet normal -4.302114220422479e-16 -2.9481330319019427e-31 -1.0
  outer loop
    vertex -59.99999999999999 0.0 2.6084689963568052e-14
    vertex -54.154151916503906 -24.09631997346878 2.3264723481020153e-14
    vertex -55.40640640258788 -23.412535309791565 2.3969715101657127e-14
  endloop
endfacet
facet normal -4.302114220422479e-16 -2.9481330319019427e-31 -1.0
  outer loop
    vertex -59.99999999999999 0.0 2.6084689963568052e-14
    vertex -55.40640640258788 -23.412535309791565 2.3969715101657127e-14
    vertex -56.548606872558594 -22.557495832443237 2.4674706722294104e-14
  endloop
endfacet
facet normal -4.302114220422479e-16 -2.9481330319019427e-31 -1.0
  outer loop
    vertex -59.99999999999999 0.0 2.6084689963568052e-14
    vertex -56.548606872558594 -22.557495832443237 2.4674706722294104e-14
    vertex -57.557498931884766 -21.548607349395752 2.4674706722294104e-14
  endloop
endfacet
facet normal -4.302114220422479e-16 -2.9481330319019427e-31 -1.0
  outer loop
    vertex -59.99999999999999 0.0 2.6084689963568052e-14
    vertex -57.557498931884766 -21.548607349395752 2.4674706722294104e-14
    vertex -58.41253662109374 -20.406408309936523 2.5379698342931078e-14
  endloop
endfacet
facet normal -4.302114220422479e-16 -2.9481330319019427e-31 -1.0
  outer loop
    vertex -59.99999999999999 0.0 2.6084689963568052e-14
    vertex -58.41253662109374 -20.406408309936523 2.5379698342931078e-14
    vertex -59.096321105957024 -19.154150009155273 2.5379698342931078e-14
  endloop
endfacet
facet normal -4.302114220422479e-16 -2.9481330319019427e-31 -1.0
  outer loop
    vertex -59.99999999999999 0.0 2.6084689963568052e-14
    vertex -59.096321105957024 -19.154150009155273 2.5379698342931078e-14
    vertex -59.59492874145507 -17.817325592041016 2.5379698342931078e-14
  endloop
endfacet
facet normal -4.302114220422479e-16 -2.9481330319019427e-31 -1.0
  outer loop
    vertex -59.99999999999999 0.0 2.6084689963568052e-14
    vertex -59.59492874145507 -17.817325592041016 2.5379698342931078e-14
    vertex -59.89821624755859 -16.42314910888672 2.6084689963568052e-14
  endloop
endfacet
facet normal -4.302114220422479e-16 -2.9481330319019427e-31 -1.0
  outer loop
    vertex -59.99999999999999 0.0 2.6084689963568052e-14
    vertex -59.89821624755859 -16.42314910888672 2.6084689963568052e-14
    vertex -59.99999999999999 -15.0 2.6084689963568052e-14
  endloop
endfacet
facet normal 4.3021142204224806e-16 0.0 1.0
  outer loop
    vertex -59.99999999999999 0.0 6.000000000000026
    vertex 2.581268532253488e-15 -12.0 6.0
    vertex 2.581268532253488e-15 0.0 6.0
  endloop
endfacet
facet normal 4.3021142204224806e-16 0.0 1.0
  outer loop
    vertex 2.581268532253488e-15 -12.0 6.0
    vertex -59.99999999999999 0.0 6.000000000000026
    vertex -59.99999999999999 -12.0 6.000000000000026
  endloop
endfacet
facet normal 4.3021142204224806e-16 -1.7346445480268838e-32 1.0
  outer loop
    vertex -59.99999999999999 -12.0 5.000000000000025
    vertex 2.1510571102112408e-15 -15.0 4.999999999999999
    vertex 2.1510571102112408e-15 -12.0 4.999999999999999
  endloop
endfacet
facet normal 4.3021142204224806e-16 -1.7346445480268838e-32 1.0
  outer loop
    vertex 2.1510571102112408e-15 -15.0 4.999999999999999
    vertex -59.99999999999999 -12.0 5.000000000000025
    vertex -0.10178558528423097 -16.42314910888672 4.999999999999999
  endloop
endfacet
facet normal 4.3021142204224806e-16 -1.7346445480268838e-32 1.0
  outer loop
    vertex -0.10178558528423097 -16.42314910888672 4.999999999999999
    vertex -59.99999999999999 -12.0 5.000000000000025
    vertex -0.40507024526595853 -17.817325592041016 5.0
  endloop
endfacet
facet normal 4.3021142204224806e-16 -1.7346445480268838e-32 1.0
  outer loop
    vertex -0.40507024526595853 -17.817325592041016 5.0
    vertex -59.99999999999999 -12.0 5.000000000000025
    vertex -0.9036800265312169 -19.154150009155273 4.999999999999999
  endloop
endfacet
facet normal 4.3021142204224806e-16 -1.7346445480268838e-32 1.0
  outer loop
    vertex -0.9036800265312169 -19.154150009155273 4.999999999999999
    vertex -59.99999999999999 -12.0 5.000000000000025
    vertex -1.5874646902084326 -20.406408309936523 5.000000000000001
  endloop
endfacet
facet normal 4.3021142204224806e-16 -1.7346445480268838e-32 1.0
  outer loop
    vertex -1.5874646902084326 -20.406408309936523 5.000000000000001
    vertex -59.99999999999999 -12.0 5.000000000000025
    vertex -2.4425041675567605 -21.548607349395752 5.000000000000001
  endloop
endfacet
facet normal 4.3021142204224806e-16 -1.7346445480268838e-32 1.0
  outer loop
    vertex -2.4425041675567605 -21.548607349395752 5.000000000000001
    vertex -59.99999999999999 -12.0 5.000000000000025
    vertex -3.451392650604246 -22.557495832443237 5.000000000000001
  endloop
endfacet
facet normal 4.3021142204224806e-16 -1.7346445480268838e-32 1.0
  outer loop
    vertex -3.451392650604246 -22.557495832443237 5.000000000000001
    vertex -59.99999999999999 -12.0 5.000000000000025
    vertex -4.593591690063474 -23.412535309791565 5.000000000000002
  endloop
endfacet
facet normal 4.3021142204224806e-16 -1.7346445480268838e-32 1.0
  outer loop
    vertex -4.593591690063474 -23.412535309791565 5.000000000000002
    vertex -59.99999999999999 -12.0 5.000000000000025
    vertex -5.845849990844724 -24.09631997346878 5.000000000000002
  endloop
endfacet
facet normal 4.3021142204224806e-16 -1.7346445480268838e-32 1.0
  outer loop
    vertex -5.845849990844724 -24.09631997346878 5.000000000000002
    vertex -59.99999999999999 -12.0 5.000000000000025
    vertex -7.182674407958981 -24.59492975473404 5.0000000000000036
  endloop
endfacet
facet normal 4.3021142204224806e-16 -1.7346445480268838e-32 1.0
  outer loop
    vertex -7.182674407958981 -24.59492975473404 5.0000000000000036
    vertex -59.99999999999999 -12.0 5.000000000000025
    vertex -8.576850891113278 -24.898214414715767 5.0000000000000036
  endloop
endfacet
facet normal 4.3021142204224806e-16 -1.7346445480268838e-32 1.0
  outer loop
    vertex -8.576850891113278 -24.898214414715767 5.0000000000000036
    vertex -59.99999999999999 -12.0 5.000000000000025
    vertex -9.999999999999996 -25.0 5.0000000000000036
  endloop
endfacet
facet normal 4.3021142204224806e-16 -1.7346445480268838e-32 1.0
  outer loop
    vertex -9.999999999999996 -25.0 5.0000000000000036
    vertex -59.99999999999999 -12.0 5.000000000000025
    vertex -50.0 -25.0 5.00000000000002
  endloop
endfacet
facet normal 4.3021142204224806e-16 -1.7346445480268838e-32 1.0
  outer loop
    vertex -50.0 -25.0 5.00000000000002
    vertex -59.99999999999999 -12.0 5.000000000000025
    vertex -51.42314910888671 -24.898214414715767 5.000000000000022
  endloop
endfacet
facet normal 4.3021142204224806e-16 -1.7346445480268838e-32 1.0
  outer loop
    vertex -51.42314910888671 -24.898214414715767 5.000000000000022
    vertex -59.99999999999999 -12.0 5.000000000000025
    vertex -52.81732559204101 -24.59492975473404 5.000000000000022
  endloop
endfacet
facet normal 4.3021142204224806e-16 -1.7346445480268838e-32 1.0
  outer loop
    vertex -52.81732559204101 -24.59492975473404 5.000000000000022
    vertex -59.99999999999999 -12.0 5.000000000000025
    vertex -54.154151916503906 -24.09631997346878 5.000000000000023
  endloop
endfacet
facet normal 4.3021142204224806e-16 -1.7346445480268838e-32 1.0
  outer loop
    vertex -54.154151916503906 -24.09631997346878 5.000000000000023
    vertex -59.99999999999999 -12.0 5.000000000000025
    vertex -55.40640640258788 -23.412535309791565 5.000000000000023
  endloop
endfacet
facet normal 4.3021142204224806e-16 -1.7346445480268838e-32 1.0
  outer loop
    vertex -55.40640640258788 -23.412535309791565 5.000000000000023
    vertex -59.99999999999999 -12.0 5.000000000000025
    vertex -56.548606872558594 -22.557495832443237 5.000000000000023
  endloop
endfacet
facet normal 4.3021142204224806e-16 -1.7346445480268838e-32 1.0
  outer loop
    vertex -56.548606872558594 -22.557495832443237 5.000000000000023
    vertex -59.99999999999999 -12.0 5.000000000000025
    vertex -57.557498931884766 -21.548607349395752 5.000000000000025
  endloop
endfacet
facet normal 4.3021142204224806e-16 -1.7346445480268838e-32 1.0
  outer loop
    vertex -57.557498931884766 -21.548607349395752 5.000000000000025
    vertex -59.99999999999999 -12.0 5.000000000000025
    vertex -58.41253662109374 -20.406408309936523 5.000000000000025
  endloop
endfacet
facet normal 4.3021142204224806e-16 -1.7346445480268838e-32 1.0
  outer loop
    vertex -58.41253662109374 -20.406408309936523 5.000000000000025
    vertex -59.99999999999999 -12.0 5.000000000000025
    vertex -59.096321105957024 -19.154150009155273 5.000000000000025
  endloop
endfacet
facet normal 4.3021142204224806e-16 -1.7346445480268838e-32 1.0
  outer loop
    vertex -59.096321105957024 -19.154150009155273 5.000000000000025
    vertex -59.99999999999999 -12.0 5.000000000000025
    vertex -59.59492874145507 -17.817325592041016 5.000000000000026
  endloop
endfacet
facet normal 4.3021142204224806e-16 -1.7346445480268838e-32 1.0
  outer loop
    vertex -59.59492874145507 -17.817325592041016 5.000000000000026
    vertex -59.99999999999999 -12.0 5.000000000000025
    vertex -59.89821624755859 -16.42314910888672 5.000000000000025
  endloop
endfacet
facet normal 4.3021142204224806e-16 -1.7346445480268838e-32 1.0
  outer loop
    vertex -59.89821624755859 -16.42314910888672 5.000000000000025
    vertex -59.99999999999999 -12.0 5.000000000000025
    vertex -59.99999999999999 -15.0 5.000000000000025
  endloop
endfacet
facet normal -0.7071055279218343 -0.7071080344490395 3.04204874701187e-16
  outer loop
    vertex -57.557498931884766 -21.548607349395752 2.4674706722294104e-14
    vertex -56.548606872558594 -22.557495832443237 5.000000000000023
    vertex -57.557498931884766 -21.548607349395752 5.000000000000025
  endloop
endfacet
facet normal -0.7071055279218343 -0.7071080344490395 3.04204874701187e-16
  outer loop
    vertex -56.548606872558594 -22.557495832443237 5.000000000000023
    vertex -57.557498931884766 -21.548607349395752 2.4674706722294104e-14
    vertex -56.548606872558594 -22.557495832443237 2.4674706722294104e-14
  endloop
endfacet
facet normal 0.21256537664570865 -0.9771468470252914 -9.418204681023242e-17
  outer loop
    vertex -8.576850891113281 -24.898214414715767 3.524958103184872e-15
    vertex -7.182674407958981 -24.59492975473404 5.0000000000000036
    vertex -8.576850891113278 -24.898214414715767 5.0000000000000036
  endloop
endfacet
facet normal 0.21256537664570865 -0.9771468470252914 -9.418204681023242e-17
  outer loop
    vertex -7.182674407958981 -24.59492975473404 5.0000000000000036
    vertex -8.576850891113281 -24.898214414715767 3.524958103184872e-15
    vertex -7.1826744079589835 -24.59492975473404 2.8199664825478975e-15
  endloop
endfacet
facet normal 0.3494642119368444 -0.9369497129384056 -1.4643238227981673e-16
  outer loop
    vertex -7.1826744079589835 -24.59492975473404 2.8199664825478975e-15
    vertex -5.845849990844724 -24.09631997346878 5.000000000000002
    vertex -7.182674407958981 -24.59492975473404 5.0000000000000036
  endloop
endfacet
facet normal 0.3494642119368444 -0.9369497129384056 -1.4643238227981673e-16
  outer loop
    vertex -5.845849990844724 -24.09631997346878 5.000000000000002
    vertex -7.1826744079589835 -24.59492975473404 2.8199664825478975e-15
    vertex -5.845849990844726 -24.09631997346878 2.8199664825478975e-15
  endloop
endfacet
facet normal -0.5992771794391164 -0.8005416055418338 2.5781588756396973e-16
  outer loop
    vertex -56.548606872558594 -22.557495832443237 2.4674706722294104e-14
    vertex -55.40640640258788 -23.412535309791565 5.000000000000023
    vertex -56.548606872558594 -22.557495832443237 5.000000000000023
  endloop
endfacet
facet normal -0.5992771794391164 -0.8005416055418338 2.5781588756396973e-16
  outer loop
    vertex -55.40640640258788 -23.412535309791565 5.000000000000023
    vertex -56.548606872558594 -22.557495832443237 2.4674706722294104e-14
    vertex -55.40640640258788 -23.412535309791565 2.3969715101657127e-14
  endloop
endfacet
facet normal 0.5992776604388328 -0.8005412454701876 -2.578160944955417e-16
  outer loop
    vertex -4.593591690063477 -23.412535309791565 2.114974861910923e-15
    vertex -3.451392650604246 -22.557495832443237 5.000000000000001
    vertex -4.593591690063474 -23.412535309791565 5.000000000000002
  endloop
endfacet
facet normal 0.5992776604388328 -0.8005412454701876 -2.578160944955417e-16
  outer loop
    vertex -3.451392650604246 -22.557495832443237 5.000000000000001
    vertex -4.593591690063477 -23.412535309791565 2.114974861910923e-15
    vertex -3.451392650604248 -22.557495832443237 1.4099832412739487e-15
  endloop
endfacet
facet normal 0.9369497129384056 -0.34946421193684435 -3.991753550949009e-16
  outer loop
    vertex -0.40507024526596064 -17.817325592041016 0.0
    vertex -0.9036800265312169 -19.154150009155273 4.999999999999999
    vertex -0.9036800265312194 -19.154150009155273 7.049916206369744e-16
  endloop
endfacet
facet normal 0.9369497129384056 -0.34946421193684435 -3.991753550949009e-16
  outer loop
    vertex -0.9036800265312169 -19.154150009155273 4.999999999999999
    vertex -0.40507024526596064 -17.817325592041016 0.0
    vertex -0.40507024526595853 -17.817325592041016 5.0
  endloop
endfacet
facet normal -0.07133914983854518 -0.9974521169962566 3.0690917099325535e-17
  outer loop
    vertex -51.42314910888671 -24.898214414715767 2.1854740239746206e-14
    vertex -50.0 -25.0 5.00000000000002
    vertex -51.42314910888671 -24.898214414715767 5.000000000000022
  endloop
endfacet
facet normal -0.07133914983854518 -0.9974521169962566 3.0690917099325535e-17
  outer loop
    vertex -50.0 -25.0 5.00000000000002
    vertex -51.42314910888671 -24.898214414715767 2.1854740239746206e-14
    vertex -50.0 -25.0 2.1854740239746206e-14
  endloop
endfacet
facet normal -0.9771464326921376 -0.2125672812947233 4.2037955635199436e-16
  outer loop
    vertex -59.89821624755859 -16.42314910888672 5.000000000000025
    vertex -59.59492874145507 -17.817325592041016 2.5379698342931078e-14
    vertex -59.59492874145507 -17.817325592041016 5.000000000000026
  endloop
endfacet
facet normal -0.9771464326921376 -0.2125672812947233 4.2037955635199436e-16
  outer loop
    vertex -59.59492874145507 -17.817325592041016 2.5379698342931078e-14
    vertex -59.89821624755859 -16.42314910888672 5.000000000000025
    vertex -59.89821624755859 -16.42314910888672 2.6084689963568052e-14
  endloop
endfacet
facet normal 0.9771468470252914 -0.21256537664570868 -4.2311372844938567e-16
  outer loop
    vertex -0.10178558528423308 -16.42314910888672 0.0
    vertex -0.40507024526595853 -17.817325592041016 5.0
    vertex -0.40507024526596064 -17.817325592041016 0.0
  endloop
endfacet
facet normal 0.9771468470252914 -0.21256537664570868 -4.2311372844938567e-16
  outer loop
    vertex -0.40507024526595853 -17.817325592041016 5.0
    vertex -0.10178558528423308 -16.42314910888672 0.0
    vertex -0.10178558528423097 -16.42314910888672 4.999999999999999
  endloop
endfacet
facet normal -0.21256537664570865 -0.9771468470252914 8.871405911716032e-17
  outer loop
    vertex -52.81732559204101 -24.59492975473404 2.255973186038318e-14
    vertex -51.42314910888671 -24.898214414715767 5.000000000000022
    vertex -52.81732559204101 -24.59492975473404 5.000000000000022
  endloop
endfacet
facet normal -0.21256537664570865 -0.9771468470252914 8.871405911716032e-17
  outer loop
    vertex -51.42314910888671 -24.898214414715767 5.000000000000022
    vertex -52.81732559204101 -24.59492975473404 2.255973186038318e-14
    vertex -51.42314910888671 -24.898214414715767 2.1854740239746206e-14
  endloop
endfacet
facet normal 0.8776790194831642 -0.47924893193315693 -3.77587539068498e-16
  outer loop
    vertex -0.9036800265312194 -19.154150009155273 7.049916206369744e-16
    vertex -1.5874646902084326 -20.406408309936523 5.000000000000001
    vertex -1.587464690208435 -20.406408309936523 7.049916206369744e-16
  endloop
endfacet
facet normal 0.8776790194831642 -0.47924893193315693 -3.77587539068498e-16
  outer loop
    vertex -1.5874646902084326 -20.406408309936523 5.000000000000001
    vertex -0.9036800265312194 -19.154150009155273 7.049916206369744e-16
    vertex -0.9036800265312169 -19.154150009155273 4.999999999999999
  endloop
endfacet
facet normal 0.07133914983854496 -0.9974521169962566 -3.0690917099325436e-17
  outer loop
    vertex -9.999999999999996 -25.0 5.0000000000000036
    vertex -8.576850891113281 -24.898214414715767 3.524958103184872e-15
    vertex -8.576850891113278 -24.898214414715767 5.0000000000000036
  endloop
endfacet
facet normal 0.07133914983854496 -0.9974521169962566 -3.0690917099325436e-17
  outer loop
    vertex -8.576850891113281 -24.898214414715767 3.524958103184872e-15
    vertex -9.999999999999996 -25.0 5.0000000000000036
    vertex -9.999999999999998 -25.0 4.229949723821846e-15
  endloop
endfacet
facet normal -0.9369502053666053 -0.3494628916830455 4.0699777874801046e-16
  outer loop
    vertex -59.59492874145507 -17.817325592041016 5.000000000000026
    vertex -59.096321105957024 -19.154150009155273 2.5379698342931078e-14
    vertex -59.096321105957024 -19.154150009155273 5.000000000000025
  endloop
endfacet
facet normal -0.9369502053666053 -0.3494628916830455 4.0699777874801046e-16
  outer loop
    vertex -59.096321105957024 -19.154150009155273 2.5379698342931078e-14
    vertex -59.59492874145507 -17.817325592041016 5.000000000000026
    vertex -59.59492874145507 -17.817325592041016 2.5379698342931078e-14
  endloop
endfacet
facet normal -0.0 -1.0 0.0
  outer loop
    vertex -59.99999999999999 -12.0 5.000000000000025
    vertex 2.581268532253488e-15 -12.0 6.0
    vertex -59.99999999999999 -12.0 6.000000000000026
  endloop
endfacet
facet normal -0.0 -1.0 0.0
  outer loop
    vertex 2.581268532253488e-15 -12.0 6.0
    vertex -59.99999999999999 -12.0 5.000000000000025
    vertex 2.1510571102112408e-15 -12.0 4.999999999999999
  endloop
endfacet
facet normal -0.4792500565371324 -0.87767840540209 2.0617884833666742e-16
  outer loop
    vertex -55.40640640258788 -23.412535309791565 5.000000000000023
    vertex -54.154151916503906 -24.09631997346878 2.3264723481020153e-14
    vertex -54.154151916503906 -24.09631997346878 5.000000000000023
  endloop
endfacet
facet normal -0.4792500565371324 -0.87767840540209 2.0617884833666742e-16
  outer loop
    vertex -54.154151916503906 -24.09631997346878 2.3264723481020153e-14
    vertex -55.40640640258788 -23.412535309791565 5.000000000000023
    vertex -55.40640640258788 -23.412535309791565 2.3969715101657127e-14
  endloop
endfacet
facet normal -0.8776790721988673 -0.47924883539152774 3.7758756174739577e-16
  outer loop
    vertex -59.096321105957024 -19.154150009155273 5.000000000000025
    vertex -58.41253662109374 -20.406408309936523 2.5379698342931078e-14
    vertex -58.41253662109374 -20.406408309936523 5.000000000000025
  endloop
endfacet
facet normal -0.8776790721988673 -0.47924883539152774 3.7758756174739577e-16
  outer loop
    vertex -58.41253662109374 -20.406408309936523 2.5379698342931078e-14
    vertex -59.096321105957024 -19.154150009155273 5.000000000000025
    vertex -59.096321105957024 -19.154150009155273 2.5379698342931078e-14
  endloop
endfacet
facet normal 0.9974521169962566 -0.07133914983854496 -4.291152936720103e-16
  outer loop
    vertex 0.0 -15.0 0.0
    vertex -0.10178558528423097 -16.42314910888672 4.999999999999999
    vertex -0.10178558528423308 -16.42314910888672 0.0
  endloop
endfacet
facet normal 0.9974521169962566 -0.07133914983854496 -4.291152936720103e-16
  outer loop
    vertex -0.10178558528423097 -16.42314910888672 4.999999999999999
    vertex 0.0 -15.0 0.0
    vertex 2.1510571102112408e-15 -15.0 4.999999999999999
  endloop
endfacet
facet normal 0.47924893193315693 -0.8776790194831642 -2.06178364519192e-16
  outer loop
    vertex -5.845849990844726 -24.09631997346878 2.8199664825478975e-15
    vertex -4.593591690063474 -23.412535309791565 5.000000000000002
    vertex -5.845849990844724 -24.09631997346878 5.000000000000002
  endloop
endfacet
facet normal 0.47924893193315693 -0.8776790194831642 -2.06178364519192e-16
  outer loop
    vertex -4.593591690063474 -23.412535309791565 5.000000000000002
    vertex -5.845849990844726 -24.09631997346878 2.8199664825478975e-15
    vertex -4.593591690063477 -23.412535309791565 2.114974861910923e-15
  endloop
endfacet
facet normal 0.8005412454701876 -0.5992776604388328 -3.444019876172018e-16
  outer loop
    vertex -1.587464690208435 -20.406408309936523 7.049916206369744e-16
    vertex -2.4425041675567605 -21.548607349395752 5.000000000000001
    vertex -2.4425041675567627 -21.548607349395752 7.049916206369744e-16
  endloop
endfacet
facet normal 0.8005412454701876 -0.5992776604388328 -3.444019876172018e-16
  outer loop
    vertex -2.4425041675567605 -21.548607349395752 5.000000000000001
    vertex -1.587464690208435 -20.406408309936523 7.049916206369744e-16
    vertex -1.5874646902084326 -20.406408309936523 5.000000000000001
  endloop
endfacet
facet normal -0.997452208404005 -0.07133787177911739 4.291153329966676e-16
  outer loop
    vertex -59.99999999999999 -15.0 5.000000000000025
    vertex -59.89821624755859 -16.42314910888672 2.6084689963568052e-14
    vertex -59.89821624755859 -16.42314910888672 5.000000000000025
  endloop
endfacet
facet normal -0.997452208404005 -0.07133787177911739 4.291153329966676e-16
  outer loop
    vertex -59.89821624755859 -16.42314910888672 2.6084689963568052e-14
    vertex -59.99999999999999 -15.0 5.000000000000025
    vertex -59.99999999999999 -15.0 2.6084689963568052e-14
  endloop
endfacet
facet normal 0.7071067811865476 -0.7071067811865476 -3.0420541386998136e-16
  outer loop
    vertex -2.4425041675567627 -21.548607349395752 7.049916206369744e-16
    vertex -3.451392650604246 -22.557495832443237 5.000000000000001
    vertex -3.451392650604248 -22.557495832443237 1.4099832412739487e-15
  endloop
endfacet
facet normal 0.7071067811865476 -0.7071067811865476 -3.0420541386998136e-16
  outer loop
    vertex -3.451392650604246 -22.557495832443237 5.000000000000001
    vertex -2.4425041675567627 -21.548607349395752 7.049916206369744e-16
    vertex -2.4425041675567605 -21.548607349395752 5.000000000000001
  endloop
endfacet
facet normal -0.8005418467202291 -0.5992768572619548 3.444022462818371e-16
  outer loop
    vertex -58.41253662109374 -20.406408309936523 5.000000000000025
    vertex -57.557498931884766 -21.548607349395752 2.4674706722294104e-14
    vertex -57.557498931884766 -21.548607349395752 5.000000000000025
  endloop
endfacet
facet normal -0.8005418467202291 -0.5992768572619548 3.444022462818371e-16
  outer loop
    vertex -57.557498931884766 -21.548607349395752 2.4674706722294104e-14
    vertex -58.41253662109374 -20.406408309936523 5.000000000000025
    vertex -58.41253662109374 -20.406408309936523 2.5379698342931078e-14
  endloop
endfacet
facet normal -0.3494637742228012 -0.9369498761972036 1.5034330726064248e-16
  outer loop
    vertex -54.154151916503906 -24.09631997346878 2.3264723481020153e-14
    vertex -52.81732559204101 -24.59492975473404 5.000000000000022
    vertex -54.154151916503906 -24.09631997346878 5.000000000000023
  endloop
endfacet
facet normal -0.3494637742228012 -0.9369498761972036 1.5034330726064248e-16
  outer loop
    vertex -52.81732559204101 -24.59492975473404 5.000000000000022
    vertex -54.154151916503906 -24.09631997346878 2.3264723481020153e-14
    vertex -52.81732559204101 -24.59492975473404 2.255973186038318e-14
  endloop
endfacet
endsolid Door_Stop
