solid Top_Edge
facet normal -1.0 8.806661754216043e-16 8.673617379884053e-16
  outer loop
    vertex -18.00000000000006 -18.64999618530268 -5.639932965095795e-15
    vertex -18.000000000000036 -15.999996185302702 25.999999999999996
    vertex -18.000000000000057 -15.99999618530265 0.0
  endloop
endfacet
facet normal -1.0 8.806661754216043e-16 8.673617379884053e-16
  outer loop
    vertex -18.000000000000036 -15.999996185302702 25.999999999999996
    vertex -18.00000000000006 -18.64999618530268 -5.639932965095795e-15
    vertex -18.00000000000004 -18.649996185302733 25.999999999999996
  endloop
endfacet
facet normal -1.0 8.806677072554037e-16 8.673617379884053e-16
  outer loop
    vertex -18.000000000000064 -23.99999999999992 -1.4099832412739488e-14
    vertex -18.00000000000004 -21.349996185302704 25.999999999999986
    vertex -18.00000000000006 -21.349996185302654 -1.127986593019159e-14
  endloop
endfacet
facet normal -1.0 8.806677072554037e-16 8.673617379884053e-16
  outer loop
    vertex -18.00000000000004 -21.349996185302704 25.999999999999986
    vertex -18.000000000000064 -23.99999999999992 -1.4099832412739488e-14
    vertex -18.00000000000004 -23.999999999999968 25.999999999999986
  endloop
endfacet
facet normal -3.944304526105059e-31 1.0 1.944804470722688e-15
  outer loop
    vertex -2.900000000000025 1.6919798895287383e-14 26.000000000000007
    vertex -4.7612894167336856e-14 6.767919558114953e-14 1.4099832412739488e-14
    vertex -2.9000000000000474 6.767919558114953e-14 1.6919798895287383e-14
  endloop
endfacet
facet normal -3.944304526105059e-31 1.0 1.944804470722688e-15
  outer loop
    vertex -4.7612894167336856e-14 6.767919558114953e-14 1.4099832412739488e-14
    vertex -2.900000000000025 1.6919798895287383e-14 26.000000000000007
    vertex -2.5061488979638376e-14 1.6919798895287383e-14 26.000000000000007
  endloop
endfacet
facet normal 3.944304526105059e-31 1.0 1.944804470722688e-15
  outer loop
    vertex -8.500000000000025 2.255973186038318e-14 26.00000000000002
    vertex -5.600000000000047 6.767919558114953e-14 1.973976537783528e-14
    vertex -8.500000000000048 7.331912854624534e-14 2.255973186038318e-14
  endloop
endfacet
facet normal 3.944304526105059e-31 1.0 1.944804470722688e-15
  outer loop
    vertex -5.600000000000047 6.767919558114953e-14 1.973976537783528e-14
    vertex -8.500000000000025 2.255973186038318e-14 26.00000000000002
    vertex -5.6000000000000245 1.6919798895287383e-14 26.00000000000002
  endloop
endfacet
facet normal 8.673617379884035e-16 -1.944804470722688e-15 1.0
  outer loop
    vertex -8.500000000000025 2.255973186038318e-14 26.00000000000002
    vertex -5.600000000000036 -15.999996185302702 25.999999999999986
    vertex -5.6000000000000245 1.6919798895287383e-14 26.00000000000002
  endloop
endfacet
facet normal 8.673617379884035e-16 -1.944804470722688e-15 1.0
  outer loop
    vertex -2.900000000000025 1.6919798895287383e-14 26.000000000000007
    vertex -4.05476645399378e-14 -20.99999999999998 25.999999999999975
    vertex -2.5061488979638376e-14 1.6919798895287383e-14 26.000000000000007
  endloop
endfacet
facet normal 8.673617379884035e-16 -1.944804470722688e-15 1.0
  outer loop
    vertex -4.05476645399378e-14 -20.99999999999998 25.999999999999975
    vertex -2.900000000000025 1.6919798895287383e-14 26.000000000000007
    vertex -0.045576740056317254 -21.520946502685526 25.999999999999975
  endloop
endfacet
facet normal 8.673617379884035e-16 -1.944804470722688e-15 1.0
  outer loop
    vertex -0.045576740056317254 -21.520946502685526 25.999999999999975
    vertex -2.900000000000025 1.6919798895287383e-14 26.000000000000007
    vertex -0.1809221357107575 -22.02606201171873 25.999999999999964
  endloop
endfacet
facet normal 8.673617379884035e-16 -1.944804470722688e-15 1.0
  outer loop
    vertex -0.1809221357107575 -22.02606201171873 25.999999999999964
    vertex -2.900000000000025 1.6919798895287383e-14 26.000000000000007
    vertex -0.4019237756729541 -22.499999999999982 25.999999999999964
  endloop
endfacet
facet normal 8.673617379884035e-16 -1.944804470722688e-15 1.0
  outer loop
    vertex -0.4019237756729541 -22.499999999999982 25.999999999999964
    vertex -2.900000000000025 1.6919798895287383e-14 26.000000000000007
    vertex -0.7018666863441886 -22.92836380004881 25.999999999999964
  endloop
endfacet
facet normal 8.673617379884035e-16 -1.944804470722688e-15 1.0
  outer loop
    vertex -0.7018666863441886 -22.92836380004881 25.999999999999964
    vertex -2.900000000000025 1.6919798895287383e-14 26.000000000000007
    vertex -1.0716371536255302 -23.29813385009764 25.999999999999964
  endloop
endfacet
facet normal 8.673617379884035e-16 -1.944804470722688e-15 1.0
  outer loop
    vertex -1.0716371536255302 -23.29813385009764 25.999999999999964
    vertex -2.900000000000025 1.6919798895287383e-14 26.000000000000007
    vertex -1.5000000000000424 -23.59807586669919 25.999999999999964
  endloop
endfacet
facet normal 8.673617379884035e-16 -1.944804470722688e-15 1.0
  outer loop
    vertex -1.5000000000000424 -23.59807586669919 25.999999999999964
    vertex -2.900000000000025 1.6919798895287383e-14 26.000000000000007
    vertex -1.9739395380020568 -23.819076538085913 25.999999999999964
  endloop
endfacet
facet normal 8.673617379884035e-16 -1.944804470722688e-15 1.0
  outer loop
    vertex -1.9739395380020568 -23.819076538085913 25.999999999999964
    vertex -2.900000000000025 1.6919798895287383e-14 26.000000000000007
    vertex -2.4790554046631286 -23.95442581176756 25.999999999999964
  endloop
endfacet
facet normal 8.673617379884035e-16 -1.944804470722688e-15 1.0
  outer loop
    vertex -2.4790554046631286 -23.95442581176756 25.999999999999964
    vertex -2.900000000000025 1.6919798895287383e-14 26.000000000000007
    vertex -2.9000000000000368 -15.999996185302708 25.999999999999986
  endloop
endfacet
facet normal 8.673617379884035e-16 -1.944804470722688e-15 1.0
  outer loop
    vertex -2.4790554046631286 -23.95442581176756 25.999999999999964
    vertex -2.9000000000000368 -15.999996185302708 25.999999999999986
    vertex -3.0000000000000426 -23.99999999999998 25.999999999999964
  endloop
endfacet
facet normal 8.673617379884035e-16 -1.944804470722688e-15 1.0
  outer loop
    vertex -3.0000000000000426 -23.99999999999998 25.999999999999964
    vertex -2.9000000000000368 -15.999996185302708 25.999999999999986
    vertex -3.100000000000037 -18.649996185302747 25.999999999999975
  endloop
endfacet
facet normal 8.673617379884035e-16 -1.944804470722688e-15 1.0
  outer loop
    vertex -3.100000000000037 -18.649996185302747 25.999999999999975
    vertex -2.9000000000000368 -15.999996185302708 25.999999999999986
    vertex -5.600000000000036 -15.999996185302702 25.999999999999986
  endloop
endfacet
facet normal 8.673617379884035e-16 -1.944804470722688e-15 1.0
  outer loop
    vertex -3.100000000000037 -18.649996185302747 25.999999999999975
    vertex -5.600000000000036 -15.999996185302702 25.999999999999986
    vertex -18.00000000000004 -18.649996185302733 25.999999999999996
  endloop
endfacet
facet normal 8.673617379884035e-16 -1.944804470722688e-15 1.0
  outer loop
    vertex -18.00000000000004 -18.649996185302733 25.999999999999996
    vertex -5.600000000000036 -15.999996185302702 25.999999999999986
    vertex -8.500000000000037 -15.999996185302708 25.999999999999986
  endloop
endfacet
facet normal 8.673617379884035e-16 -1.944804470722688e-15 1.0
  outer loop
    vertex -8.500000000000037 -15.999996185302708 25.999999999999986
    vertex -5.600000000000036 -15.999996185302702 25.999999999999986
    vertex -8.500000000000025 2.255973186038318e-14 26.00000000000002
  endloop
endfacet
facet normal 8.673617379884035e-16 -1.944804470722688e-15 1.0
  outer loop
    vertex -18.00000000000004 -18.649996185302733 25.999999999999996
    vertex -8.500000000000037 -15.999996185302708 25.999999999999986
    vertex -18.000000000000036 -15.999996185302702 25.999999999999996
  endloop
endfacet
facet normal 8.673617379884035e-16 -1.944804470722688e-15 1.0
  outer loop
    vertex -3.0000000000000426 -23.99999999999998 25.999999999999964
    vertex -3.100000000000039 -21.34999618530272 25.999999999999975
    vertex -18.00000000000004 -23.999999999999968 25.999999999999986
  endloop
endfacet
facet normal 8.673617379884035e-16 -1.944804470722688e-15 1.0
  outer loop
    vertex -3.100000000000039 -21.34999618530272 25.999999999999975
    vertex -3.0000000000000426 -23.99999999999998 25.999999999999964
    vertex -3.100000000000037 -18.649996185302747 25.999999999999975
  endloop
endfacet
facet normal 8.673617379884035e-16 -1.944804470722688e-15 1.0
  outer loop
    vertex -18.00000000000004 -23.999999999999968 25.999999999999986
    vertex -3.100000000000039 -21.34999618530272 25.999999999999975
    vertex -18.00000000000004 -21.349996185302704 25.999999999999986
  endloop
endfacet
facet normal 1.0 -7.181222438834771e-16 -8.517614134212368e-16
  outer loop
    vertex -4.05476645399378e-14 -20.99999999999998 25.999999999999975
    vertex -4.7612894167336856e-14 6.767919558114953e-14 1.4099832412739488e-14
    vertex -2.5061488979638376e-14 1.6919798895287383e-14 26.000000000000007
  endloop
endfacet
facet normal 1.0 -7.181222438834771e-16 -8.517614134212368e-16
  outer loop
    vertex -4.7612894167336856e-14 6.767919558114953e-14 1.4099832412739488e-14
    vertex -4.05476645399378e-14 -20.99999999999998 25.999999999999975
    vertex -6.228785285014355e-14 -20.999999999999932 -2.5379698342931078e-14
  endloop
endfacet
facet normal -7.228189949519321e-16 -1.0 -1.99903459538707e-15
  outer loop
    vertex -3.0000000000000426 -23.99999999999998 25.999999999999964
    vertex -18.000000000000064 -23.99999999999992 -1.4099832412739488e-14
    vertex -3.0000000000000653 -23.99999999999993 -2.8199664825478976e-14
  endloop
endfacet
facet normal -7.228189949519321e-16 -1.0 -1.99903459538707e-15
  outer loop
    vertex -18.000000000000064 -23.99999999999992 -1.4099832412739488e-14
    vertex -3.0000000000000426 -23.99999999999998 25.999999999999964
    vertex -18.00000000000004 -23.999999999999968 25.999999999999986
  endloop
endfacet
facet normal -1.1877664888306346e-15 -1.0 -1.944804470722687e-15
  outer loop
    vertex -3.100000000000037 -18.649996185302747 25.999999999999975
    vertex -18.00000000000006 -18.64999618530268 -5.639932965095795e-15
    vertex -3.1000000000000596 -18.649996185302697 -1.973976537783528e-14
  endloop
endfacet
facet normal -1.1877664888306346e-15 -1.0 -1.944804470722687e-15
  outer loop
    vertex -18.00000000000006 -18.64999618530268 -5.639932965095795e-15
    vertex -3.100000000000037 -18.649996185302747 25.999999999999975
    vertex -18.00000000000004 -18.649996185302733 25.999999999999996
  endloop
endfacet
facet normal -1.0 7.110688404624847e-16 8.673617379884049e-16
  outer loop
    vertex -8.500000000000059 -15.999996185302658 -8.459899447643692e-15
    vertex -8.500000000000025 2.255973186038318e-14 26.00000000000002
    vertex -8.500000000000048 7.331912854624534e-14 2.255973186038318e-14
  endloop
endfacet
facet normal -1.0 7.110688404624847e-16 8.673617379884049e-16
  outer loop
    vertex -8.500000000000025 2.255973186038318e-14 26.00000000000002
    vertex -8.500000000000059 -15.999996185302658 -8.459899447643692e-15
    vertex -8.500000000000037 -15.999996185302708 25.999999999999986
  endloop
endfacet
facet normal -1.0 7.330998338599875e-16 8.67361737988405e-16
  outer loop
    vertex -2.900000000000059 -15.999996185302658 -1.4099832412739488e-14
    vertex -2.900000000000025 1.6919798895287383e-14 26.000000000000007
    vertex -2.9000000000000474 6.767919558114953e-14 1.6919798895287383e-14
  endloop
endfacet
facet normal -1.0 7.330998338599875e-16 8.67361737988405e-16
  outer loop
    vertex -2.900000000000025 1.6919798895287383e-14 26.000000000000007
    vertex -2.900000000000059 -15.999996185302658 -1.4099832412739488e-14
    vertex -2.9000000000000368 -15.999996185302708 25.999999999999986
  endloop
endfacet
facet normal 8.852429592515927e-16 -1.954593842451473e-15 1.0
  outer loop
    vertex -8.500000000000048 7.331912854624534e-14 2.255973186038318e-14
    vertex -5.600000000000059 -15.99999618530265 -1.127986593019159e-14
    vertex -5.600000000000047 6.767919558114953e-14 1.973976537783528e-14
  endloop
endfacet
facet normal 8.852429592515927e-16 -1.954593842451473e-15 1.0
  outer loop
    vertex -4.7612894167336856e-14 6.767919558114953e-14 1.4099832412739488e-14
    vertex -0.04557674005632705 -21.520946502685486 -2.8199664825478976e-14
    vertex -6.228785285014355e-14 -20.999999999999932 -2.5379698342931078e-14
  endloop
endfacet
facet normal 8.852429592515927e-16 -1.954593842451473e-15 1.0
  outer loop
    vertex -0.04557674005632705 -21.520946502685486 -2.8199664825478976e-14
    vertex -4.7612894167336856e-14 6.767919558114953e-14 1.4099832412739488e-14
    vertex -2.9000000000000474 6.767919558114953e-14 1.6919798895287383e-14
  endloop
endfacet
facet normal 8.852429592515927e-16 -1.954593842451473e-15 1.0
  outer loop
    vertex -0.04557674005632705 -21.520946502685486 -2.8199664825478976e-14
    vertex -2.9000000000000474 6.767919558114953e-14 1.6919798895287383e-14
    vertex -0.18092213571076612 -22.02606201171869 -2.8199664825478976e-14
  endloop
endfacet
facet normal 8.852429592515927e-16 -1.954593842451473e-15 1.0
  outer loop
    vertex -0.18092213571076612 -22.02606201171869 -2.8199664825478976e-14
    vertex -2.9000000000000474 6.767919558114953e-14 1.6919798895287383e-14
    vertex -0.4019237756729799 -22.49999999999993 -2.8199664825478976e-14
  endloop
endfacet
facet normal 8.852429592515927e-16 -1.954593842451473e-15 1.0
  outer loop
    vertex -0.4019237756729799 -22.49999999999993 -2.8199664825478976e-14
    vertex -2.9000000000000474 6.767919558114953e-14 1.6919798895287383e-14
    vertex -0.7018666863442126 -22.928363800048757 -3.101963130802687e-14
  endloop
endfacet
facet normal 8.852429592515927e-16 -1.954593842451473e-15 1.0
  outer loop
    vertex -0.7018666863442126 -22.928363800048757 -3.101963130802687e-14
    vertex -2.9000000000000474 6.767919558114953e-14 1.6919798895287383e-14
    vertex -1.0716371536255507 -23.29813385009759 -3.101963130802687e-14
  endloop
endfacet
facet normal 8.852429592515927e-16 -1.954593842451473e-15 1.0
  outer loop
    vertex -1.0716371536255507 -23.29813385009759 -3.101963130802687e-14
    vertex -2.9000000000000474 6.767919558114953e-14 1.6919798895287383e-14
    vertex -1.5000000000000675 -23.598075866699137 -3.101963130802687e-14
  endloop
endfacet
facet normal 8.852429592515927e-16 -1.954593842451473e-15 1.0
  outer loop
    vertex -1.5000000000000675 -23.598075866699137 -3.101963130802687e-14
    vertex -2.9000000000000474 6.767919558114953e-14 1.6919798895287383e-14
    vertex -1.9739395380020772 -23.819076538085874 -2.8199664825478976e-14
  endloop
endfacet
facet normal 8.852429592515927e-16 -1.954593842451473e-15 1.0
  outer loop
    vertex -1.9739395380020772 -23.819076538085874 -2.8199664825478976e-14
    vertex -2.9000000000000474 6.767919558114953e-14 1.6919798895287383e-14
    vertex -2.479055404663152 -23.95442581176751 -2.8199664825478976e-14
  endloop
endfacet
facet normal 8.852429592515927e-16 -1.954593842451473e-15 1.0
  outer loop
    vertex -2.479055404663152 -23.95442581176751 -2.8199664825478976e-14
    vertex -2.9000000000000474 6.767919558114953e-14 1.6919798895287383e-14
    vertex -2.900000000000059 -15.999996185302658 -1.4099832412739488e-14
  endloop
endfacet
facet normal 8.852429592515927e-16 -1.954593842451473e-15 1.0
  outer loop
    vertex -2.479055404663152 -23.95442581176751 -2.8199664825478976e-14
    vertex -2.900000000000059 -15.999996185302658 -1.4099832412739488e-14
    vertex -3.0000000000000653 -23.99999999999993 -2.8199664825478976e-14
  endloop
endfacet
facet normal 8.852429592515927e-16 -1.954593842451473e-15 1.0
  outer loop
    vertex -3.0000000000000653 -23.99999999999993 -2.8199664825478976e-14
    vertex -2.900000000000059 -15.999996185302658 -1.4099832412739488e-14
    vertex -3.1000000000000596 -18.649996185302697 -1.973976537783528e-14
  endloop
endfacet
facet normal 8.852429592515927e-16 -1.954593842451473e-15 1.0
  outer loop
    vertex -3.1000000000000596 -18.649996185302697 -1.973976537783528e-14
    vertex -2.900000000000059 -15.999996185302658 -1.4099832412739488e-14
    vertex -5.600000000000059 -15.99999618530265 -1.127986593019159e-14
  endloop
endfacet
facet normal 8.852429592515927e-16 -1.954593842451473e-15 1.0
  outer loop
    vertex -3.1000000000000596 -18.649996185302697 -1.973976537783528e-14
    vertex -5.600000000000059 -15.99999618530265 -1.127986593019159e-14
    vertex -18.00000000000006 -18.64999618530268 -5.639932965095795e-15
  endloop
endfacet
facet normal 8.852429592515927e-16 -1.954593842451473e-15 1.0
  outer loop
    vertex -18.00000000000006 -18.64999618530268 -5.639932965095795e-15
    vertex -5.600000000000059 -15.99999618530265 -1.127986593019159e-14
    vertex -8.500000000000059 -15.999996185302658 -8.459899447643692e-15
  endloop
endfacet
facet normal 8.852429592515927e-16 -1.954593842451473e-15 1.0
  outer loop
    vertex -8.500000000000059 -15.999996185302658 -8.459899447643692e-15
    vertex -5.600000000000059 -15.99999618530265 -1.127986593019159e-14
    vertex -8.500000000000048 7.331912854624534e-14 2.255973186038318e-14
  endloop
endfacet
facet normal 8.852429592515927e-16 -1.954593842451473e-15 1.0
  outer loop
    vertex -18.00000000000006 -18.64999618530268 -5.639932965095795e-15
    vertex -8.500000000000059 -15.999996185302658 -8.459899447643692e-15
    vertex -18.000000000000057 -15.99999618530265 0.0
  endloop
endfacet
facet normal 8.852429592515927e-16 -1.954593842451473e-15 1.0
  outer loop
    vertex -3.0000000000000653 -23.99999999999993 -2.8199664825478976e-14
    vertex -3.100000000000062 -21.34999618530267 -2.5379698342931078e-14
    vertex -18.000000000000064 -23.99999999999992 -1.4099832412739488e-14
  endloop
endfacet
facet normal 8.852429592515927e-16 -1.954593842451473e-15 1.0
  outer loop
    vertex -3.100000000000062 -21.34999618530267 -2.5379698342931078e-14
    vertex -3.0000000000000653 -23.99999999999993 -2.8199664825478976e-14
    vertex -3.1000000000000596 -18.649996185302697 -1.973976537783528e-14
  endloop
endfacet
facet normal 8.852429592515927e-16 -1.954593842451473e-15 1.0
  outer loop
    vertex -18.000000000000064 -23.99999999999992 -1.4099832412739488e-14
    vertex -3.100000000000062 -21.34999618530267 -2.5379698342931078e-14
    vertex -18.00000000000006 -21.349996185302654 -1.127986593019159e-14
  endloop
endfacet
facet normal 1.0 -7.55130827257491e-16 -8.67361737988405e-16
  outer loop
    vertex -5.600000000000036 -15.999996185302702 25.999999999999986
    vertex -5.600000000000047 6.767919558114953e-14 1.973976537783528e-14
    vertex -5.6000000000000245 1.6919798895287383e-14 26.00000000000002
  endloop
endfacet
facet normal 1.0 -7.55130827257491e-16 -8.67361737988405e-16
  outer loop
    vertex -5.600000000000047 6.767919558114953e-14 1.973976537783528e-14
    vertex -5.600000000000036 -15.999996185302702 25.999999999999986
    vertex -5.600000000000059 -15.99999618530265 -1.127986593019159e-14
  endloop
endfacet
facet normal 7.574501622814673e-16 1.0 1.9448044707226873e-15
  outer loop
    vertex -18.000000000000036 -15.999996185302702 25.999999999999996
    vertex -8.500000000000059 -15.999996185302658 -8.459899447643692e-15
    vertex -18.000000000000057 -15.99999618530265 0.0
  endloop
endfacet
facet normal 7.574501622814673e-16 1.0 1.9448044707226873e-15
  outer loop
    vertex -8.500000000000059 -15.999996185302658 -8.459899447643692e-15
    vertex -18.000000000000036 -15.999996185302702 25.999999999999996
    vertex -8.500000000000037 -15.999996185302708 25.999999999999986
  endloop
endfacet
facet normal 1.1877664888306346e-15 1.0 1.944804470722687e-15
  outer loop
    vertex -18.00000000000004 -21.349996185302704 25.999999999999986
    vertex -3.100000000000062 -21.34999618530267 -2.5379698342931078e-14
    vertex -18.00000000000006 -21.349996185302654 -1.127986593019159e-14
  endloop
endfacet
facet normal 1.1877664888306346e-15 1.0 1.944804470722687e-15
  outer loop
    vertex -3.100000000000062 -21.34999618530267 -2.5379698342931078e-14
    vertex -18.00000000000004 -21.349996185302704 25.999999999999986
    vertex -3.100000000000039 -21.34999618530272 25.999999999999975
  endloop
endfacet
facet normal 0.9659257770837296 -0.2588192287392752 -7.478909557459151e-16
  outer loop
    vertex -0.1809221357107575 -22.02606201171873 25.999999999999964
    vertex -0.04557674005632705 -21.520946502685486 -2.8199664825478976e-14
    vertex -0.045576740056317254 -21.520946502685526 25.999999999999975
  endloop
endfacet
facet normal 0.9659257770837296 -0.2588192287392752 -7.478909557459151e-16
  outer loop
    vertex -0.04557674005632705 -21.520946502685486 -2.8199664825478976e-14
    vertex -0.1809221357107575 -22.02606201171873 25.999999999999964
    vertex -0.18092213571076612 -22.02606201171869 -2.8199664825478976e-14
  endloop
endfacet
facet normal 0.8191526293952045 -0.5735756007318676 -1.89990559347466e-15
  outer loop
    vertex -0.7018666863441886 -22.92836380004881 25.999999999999964
    vertex -0.4019237756729799 -22.49999999999993 -2.8199664825478976e-14
    vertex -0.4019237756729541 -22.499999999999982 25.999999999999964
  endloop
endfacet
facet normal 0.8191526293952045 -0.5735756007318676 -1.89990559347466e-15
  outer loop
    vertex -0.4019237756729799 -22.49999999999993 -2.8199664825478976e-14
    vertex -0.7018666863441886 -22.92836380004881 25.999999999999964
    vertex -0.7018666863442126 -22.928363800048757 -3.101963130802687e-14
  endloop
endfacet
facet normal 0.08715088792567047 -0.9961951228217126 -2.0682365471201896e-15
  outer loop
    vertex -2.4790554046631286 -23.95442581176756 25.999999999999964
    vertex -3.0000000000000653 -23.99999999999993 -2.8199664825478976e-14
    vertex -2.479055404663152 -23.95442581176751 -2.8199664825478976e-14
  endloop
endfacet
facet normal 0.08715088792567047 -0.9961951228217126 -2.0682365471201896e-15
  outer loop
    vertex -3.0000000000000653 -23.99999999999993 -2.8199664825478976e-14
    vertex -2.4790554046631286 -23.95442581176756 25.999999999999964
    vertex -3.0000000000000426 -23.99999999999998 25.999999999999964
  endloop
endfacet
facet normal 0.4226167464683413 -0.9063084936182126 -1.986281222816747e-15
  outer loop
    vertex -1.5000000000000424 -23.59807586669919 25.999999999999964
    vertex -1.9739395380020772 -23.819076538085874 -2.8199664825478976e-14
    vertex -1.5000000000000675 -23.598075866699137 -3.101963130802687e-14
  endloop
endfacet
facet normal 0.4226167464683413 -0.9063084936182126 -1.986281222816747e-15
  outer loop
    vertex -1.9739395380020772 -23.819076538085874 -2.8199664825478976e-14
    vertex -1.5000000000000424 -23.59807586669919 25.999999999999964
    vertex -1.9739395380020568 -23.819076538085913 25.999999999999964
  endloop
endfacet
facet normal 0.5735753103498654 -0.8191528327223533 -2.0967617797956577e-15
  outer loop
    vertex -1.0716371536255302 -23.29813385009764 25.999999999999964
    vertex -1.5000000000000675 -23.598075866699137 -3.101963130802687e-14
    vertex -1.0716371536255507 -23.29813385009759 -3.101963130802687e-14
  endloop
endfacet
facet normal 0.5735753103498654 -0.8191528327223533 -2.0967617797956577e-15
  outer loop
    vertex -1.5000000000000675 -23.598075866699137 -3.101963130802687e-14
    vertex -1.0716371536255302 -23.29813385009764 25.999999999999964
    vertex -1.5000000000000424 -23.59807586669919 25.999999999999964
  endloop
endfacet
facet normal 0.9961947268537488 -0.08715541399583378 -7.452911251824967e-16
  outer loop
    vertex -0.045576740056317254 -21.520946502685526 25.999999999999975
    vertex -6.228785285014355e-14 -20.999999999999932 -2.5379698342931078e-14
    vertex -4.05476645399378e-14 -20.99999999999998 25.999999999999975
  endloop
endfacet
facet normal 0.9961947268537488 -0.08715541399583378 -7.452911251824967e-16
  outer loop
    vertex -6.228785285014355e-14 -20.999999999999932 -2.5379698342931078e-14
    vertex -0.045576740056317254 -21.520946502685526 25.999999999999975
    vertex -0.04557674005632705 -21.520946502685486 -2.8199664825478976e-14
  endloop
endfacet
facet normal 0.25882597687247866 -0.965923968900248 -1.8866819420953772e-15
  outer loop
    vertex -1.9739395380020568 -23.819076538085913 25.999999999999964
    vertex -2.479055404663152 -23.95442581176751 -2.8199664825478976e-14
    vertex -1.9739395380020772 -23.819076538085874 -2.8199664825478976e-14
  endloop
endfacet
facet normal 0.25882597687247866 -0.965923968900248 -1.8866819420953772e-15
  outer loop
    vertex -2.479055404663152 -23.95442581176751 -2.8199664825478976e-14
    vertex -1.9739395380020568 -23.819076538085913 25.999999999999964
    vertex -2.4790554046631286 -23.95442581176756 25.999999999999964
  endloop
endfacet
facet normal 0.7071063822523272 -0.7071071801205427 -1.9416752465893217e-15
  outer loop
    vertex -0.7018666863441886 -22.92836380004881 25.999999999999964
    vertex -1.0716371536255507 -23.29813385009759 -3.101963130802687e-14
    vertex -0.7018666863442126 -22.928363800048757 -3.101963130802687e-14
  endloop
endfacet
facet normal 0.7071063822523272 -0.7071071801205427 -1.9416752465893217e-15
  outer loop
    vertex -1.0716371536255507 -23.29813385009759 -3.101963130802687e-14
    vertex -0.7018666863441886 -22.92836380004881 25.999999999999964
    vertex -1.0716371536255302 -23.29813385009764 25.999999999999964
  endloop
endfacet
facet normal 0.9063072548846697 -0.42261940294242856 -1.351906448040533e-15
  outer loop
    vertex -0.4019237756729541 -22.499999999999982 25.999999999999964
    vertex -0.18092213571076612 -22.02606201171869 -2.8199664825478976e-14
    vertex -0.1809221357107575 -22.02606201171873 25.999999999999964
  endloop
endfacet
facet normal 0.9063072548846697 -0.42261940294242856 -1.351906448040533e-15
  outer loop
    vertex -0.18092213571076612 -22.02606201171869 -2.8199664825478976e-14
    vertex -0.4019237756729541 -22.499999999999982 25.999999999999964
    vertex -0.4019237756729799 -22.49999999999993 -2.8199664825478976e-14
  endloop
endfacet
facet normal 4.033668531869279e-15 1.0 1.9448044707226845e-15
  outer loop
    vertex -5.600000000000036 -15.999996185302702 25.999999999999986
    vertex -2.900000000000059 -15.999996185302658 -1.4099832412739488e-14
    vertex -5.600000000000059 -15.99999618530265 -1.127986593019159e-14
  endloop
endfacet
facet normal 4.033668531869279e-15 1.0 1.9448044707226845e-15
  outer loop
    vertex -2.900000000000059 -15.999996185302658 -1.4099832412739488e-14
    vertex -5.600000000000036 -15.999996185302702 25.999999999999986
    vertex -2.9000000000000368 -15.999996185302708 25.999999999999986
  endloop
endfacet
facet normal -1.0 7.698184363277167e-16 8.673617379884051e-16
  outer loop
    vertex -3.100000000000062 -21.34999618530267 -2.5379698342931078e-14
    vertex -3.100000000000037 -18.649996185302747 25.999999999999975
    vertex -3.1000000000000596 -18.649996185302697 -1.973976537783528e-14
  endloop
endfacet
facet normal -1.0 7.698184363277167e-16 8.673617379884051e-16
  outer loop
    vertex -3.100000000000037 -18.649996185302747 25.999999999999975
    vertex -3.100000000000062 -21.34999618530267 -2.5379698342931078e-14
    vertex -3.100000000000039 -21.34999618530272 25.999999999999975
  endloop
endfacet
endsolid Top_Edge
